<?xml version="1.0" encoding="utf-8"?>
<!-- Generator: Adobe Illustrator 16.0.0, SVG Export Plug-In . SVG Version: 6.00 Build 0)  -->
<!DOCTYPE svg PUBLIC "-//W3C//DTD SVG 1.1//EN" "http://www.w3.org/Graphics/SVG/1.1/DTD/svg11.dtd">
<svg version="1.1" id="Layer_1" xmlns="http://www.w3.org/2000/svg" xmlns:xlink="http://www.w3.org/1999/xlink" x="0px" y="0px"
	 width="900px" height="230px" viewBox="0 0 900 230" enable-background="new 0 0 900 230" xml:space="preserve">
<text transform="matrix(1 0 0 1 32.4658 318)" fill="#FFFFFF" font-family="'HelveticaNeueLTPro-Blk'" font-size="40">I was playing for a local club, FC Edebei, </text>
<text transform="matrix(1 0 0 1 42.5049 366)" fill="#FFFFFF" font-family="'HelveticaNeueLTPro-Blk'" font-size="40">and the owner came to my house to tell </text>
<text transform="matrix(1 0 0 1 71.0645 414)" fill="#FFFFFF" font-family="'HelveticaNeueLTPro-Blk'" font-size="40">my parents of an opportunity in Italy. </text>
<text transform="matrix(1 0 0 1 105.084 462)" fill="#FFFFFF" font-family="'HelveticaNeueLTPro-Blk'" font-size="40">I told them they should let me go, </text>
<text transform="matrix(1 0 0 1 216.3027 510)" fill="#FFFFFF" font-family="'HelveticaNeueLTPro-Blk'" font-size="40">let’s see what happens.</text>
<text transform="matrix(1 0 0 1 -111.5 -262.5)" font-family="'MicrosoftJhengHeiUIRegular'" font-size="52">我曾经为FC Edebei俱乐部踢球，俱乐部主人来到我家告诉我的父母在意大利有个机会。我告诉他们应该让我去，去看看会发生什么。</text>
<g>
	<path fill="#FFFFFF" d="M596.455,63.215h2.932c1.422-2.857,2.356-5.152,2.802-6.884h-8.424
		C594.841,58.57,595.737,60.865,596.455,63.215z"/>
	<rect x="593.523" y="71.917" fill="#FFFFFF" width="8.554" height="5.696"/>
	<path fill="#FFFFFF" d="M417.922,77.984c1.633,0,2.965-0.615,3.998-1.846c1.033-1.23,1.55-2.786,1.55-4.667v-2.505
		c0-1.559-0.505-2.863-1.513-3.915c-1.008-1.051-2.254-1.577-3.738-1.577c-1.757,0-3.154,0.674-4.193,2.022
		c-1.039,1.349-1.559,3.191-1.559,5.529c0,2.152,0.488,3.85,1.466,5.093S416.239,77.984,417.922,77.984z"/>
	<path fill="#FFFFFF" d="M236.457,63.809h9.537v-6.457h-9.537V63.809z M241.448,58.075l3.117,0.909
		c-1.15,1.683-2.245,3.105-3.284,4.268l-3.062-1.15C239.519,60.667,240.595,59.325,241.448,58.075z"/>
	<rect x="585.489" y="159.536" fill="#FFFFFF" width="14.046" height="1.818"/>
	<rect x="585.489" y="163.674" fill="#FFFFFF" width="14.046" height="1.707"/>
	<path fill="#FFFFFF" d="M223.543,63.809h9.611v-6.457h-9.611V63.809z M228.182,58.112c1.348,1.312,2.412,2.604,3.191,3.878
		l-2.969,1.225c-1.571-2.127-2.647-3.445-3.229-3.952L228.182,58.112z"/>
	<rect x="644.066" y="58.261" fill="#FFFFFF" width="9.537" height="2.171"/>
	<rect x="644.066" y="53.437" fill="#FFFFFF" width="9.537" height="2.208"/>
	<path fill="#FFFFFF" d="M445.68,64.681c-0.792-0.94-1.918-1.41-3.377-1.41c-1.324,0-2.475,0.498-3.451,1.494
		c-0.978,0.996-1.584,2.316-1.818,3.961h9.853C446.873,66.969,446.471,65.621,445.68,64.681z"/>
	<rect x="353.463" y="117.963" fill="#FFFFFF" width="18.165" height="5.658"/>
	<rect x="585.489" y="167.812" fill="#FFFFFF" width="14.046" height="1.985"/>
	<path fill="#FFFFFF" d="M542.201,119.744h19.297c0.234-2.313,0.427-5.134,0.575-8.461h-19.037
		C542.764,114.425,542.485,117.245,542.201,119.744z M550.439,111.765c2.362,1.769,4.316,3.543,5.863,5.325l-2.746,1.93
		c-1.695-1.879-3.557-3.6-5.585-5.158L550.439,111.765z"/>
	<rect x="225.714" y="71.639" fill="#FFFFFF" width="18.165" height="1.948"/>
	<path fill="#FFFFFF" d="M488.615,63.271c-1.324,0-2.475,0.498-3.451,1.494c-0.978,0.996-1.584,2.316-1.818,3.961h9.853
		c-0.013-1.756-0.415-3.104-1.206-4.045C491.2,63.741,490.074,63.271,488.615,63.271z"/>
	<rect x="547.489" y="167.812" fill="#FFFFFF" width="14.046" height="1.985"/>
	<rect x="225.714" y="76.203" fill="#FFFFFF" width="18.165" height="2.097"/>
	<rect x="547.489" y="159.536" fill="#FFFFFF" width="14.046" height="1.818"/>
	<path fill="#FFFFFF" d="M543.259,108.054h18.963c0.186-3.352,0.278-6.24,0.278-8.665h-18.592
		C543.686,103.001,543.469,105.89,543.259,108.054z M550.143,100.224c2.09,1.25,4.193,2.87,6.309,4.861l-2.505,2.245
		c-1.657-1.694-3.735-3.315-6.234-4.861L550.143,100.224z"/>
	<rect x="464.309" y="104.213" fill="#FFFFFF" width="6.865" height="7.032"/>
	<path fill="#FFFFFF" d="M465.218,77.984c1.818,0,3.229-0.696,4.23-2.087s1.503-3.318,1.503-5.78c0-2.065-0.473-3.689-1.42-4.871
		c-0.945-1.181-2.235-1.772-3.868-1.772s-2.987,0.591-4.063,1.772c-1.076,1.182-1.614,2.706-1.614,4.574v2.598
		c0,1.559,0.497,2.876,1.493,3.952S463.721,77.984,465.218,77.984z"/>
	<rect x="464.309" y="114.437" fill="#FFFFFF" width="6.865" height="7.979"/>
	<rect x="85.663" y="117.518" fill="#FFFFFF" width="8.554" height="5.695"/>
	<rect x="619.871" y="114.363" fill="#FFFFFF" width="17.627" height="1.967"/>
	<rect x="527.098" y="53.028" fill="#FFFFFF" width="11.485" height="2.69"/>
	<rect x="619.871" y="110.132" fill="#FFFFFF" width="17.627" height="1.633"/>
	<rect x="19.237" y="98.628" fill="#FFFFFF" width="11.485" height="2.69"/>
	<rect x="527.098" y="58.465" fill="#FFFFFF" width="11.485" height="2.802"/>
	<rect x="19.237" y="109.557" fill="#FFFFFF" width="11.485" height="2.969"/>
	<rect x="736.58" y="108.648" fill="#FFFFFF" width="16.551" height="3.006"/>
	<rect x="19.237" y="104.065" fill="#FFFFFF" width="11.485" height="2.802"/>
	<path fill="#FFFFFF" d="M625.345,102.729h6.271c0.767-0.952,1.299-1.676,1.596-2.171h-8.999
		C624.51,101.041,624.887,101.764,625.345,102.729z"/>
	<rect x="19.237" y="115.16" fill="#FFFFFF" width="11.485" height="2.691"/>
	<path fill="#FFFFFF" d="M818.647,155.491c-0.644,0-1.169,0.22-1.577,0.659s-0.612,0.949-0.612,1.53c0,0.606,0.214,1.132,0.64,1.577
		c0.428,0.445,0.993,0.668,1.698,0.668c0.569,0,1.054-0.229,1.456-0.687s0.604-0.971,0.604-1.54c0-0.568-0.198-1.079-0.594-1.531
		C819.865,155.717,819.328,155.491,818.647,155.491z"/>
	<rect x="630.28" y="53.715" fill="#FFFFFF" width="4.063" height="4.898"/>
	<rect x="527.098" y="69.561" fill="#FFFFFF" width="11.485" height="2.69"/>
	<path fill="#FFFFFF" d="M894.647,109.891c-0.644,0-1.169,0.22-1.577,0.659c-0.408,0.439-0.612,0.95-0.612,1.531
		c0,0.606,0.213,1.132,0.641,1.577c0.426,0.445,0.992,0.668,1.697,0.668c0.568,0,1.055-0.229,1.457-0.687
		c0.401-0.458,0.603-0.971,0.603-1.54c0-0.569-0.198-1.079-0.594-1.531C895.865,110.117,895.327,109.891,894.647,109.891z"/>
	<rect x="547.489" y="163.674" fill="#FFFFFF" width="14.046" height="1.707"/>
	<path fill="#FFFFFF" d="M88.595,108.815h2.932c1.422-2.857,2.356-5.152,2.802-6.884h-8.424
		C86.98,104.17,87.877,106.465,88.595,108.815z"/>
	<rect x="736.58" y="114.734" fill="#FFFFFF" width="16.551" height="2.969"/>
	<path fill="#FFFFFF" d="M665.052,158.052c1.769,2.733,3.605,4.967,5.511,6.698c1.707-1.373,3.605-3.605,5.696-6.698H665.052z"/>
	<rect x="125.463" y="163.563" fill="#FFFFFF" width="18.165" height="5.659"/>
	<rect x="527.098" y="63.957" fill="#FFFFFF" width="11.485" height="2.969"/>
	<path fill="#FFFFFF" d="M-6-5v240h912V-5H-6z M716.625,66.499c0.525-0.445,1.104-0.668,1.734-0.668c0.717,0,1.305,0.26,1.763,0.779
		s0.687,1.163,0.687,1.93c0,1.423-1.089,2.963-3.266,4.62l-1.15-0.891c0.47-0.68,0.798-1.243,0.983-1.688
		c-1.026-0.408-1.54-1.2-1.54-2.375C715.836,67.514,716.099,66.944,716.625,66.499z M720.233,95.511v28.872
		c-0.05,2.732-1.509,4.125-4.379,4.174l-4.286,0.02l-1.188-3.545c1.225,0.074,3.129,0.111,5.715,0.111
		c0.482,0,0.724-0.277,0.724-0.834V95.511H720.233z M709.026,98.016h3.377v23.824h-3.377V98.016z M706.354,98.127
		c-1.657,0.557-3.835,1.089-6.531,1.596v4.286h6.921v3.284h-6.921v1.021c2.523,1.732,5.071,3.921,7.645,6.568l-1.707,3.155
		c-1.497-2.017-3.476-4.014-5.938-5.994v16.439h-3.34v-15.994c-2.028,4.058-4.36,7.354-6.995,9.89l-1.707-3.229
		c3.488-3.18,6.303-7.131,8.442-11.857h-7.57v-3.284h7.83v-3.785c-1.596,0.186-3.532,0.322-5.808,0.408l-1.41-3.266
		c5.949-0.037,10.99-0.736,15.122-2.097L706.354,98.127z M692.216,49.67c1.484,1.163,2.672,2.406,3.563,3.729l-2.728,2.06
		c-0.693-1.113-1.831-2.344-3.414-3.692L692.216,49.67z M664.477,65.441v-3.08h3.563v-7.478h-4.026v-3.191h11.411v3.191h-4.101
		v7.478h3.525v3.08h-3.525v7.533c1.41-0.717,2.765-1.527,4.063-2.431l0.482,3.229c-3.477,2.4-7.175,4.552-11.096,6.457l-1.243-3.191
		c1.694-0.717,3.197-1.453,4.509-2.208v-9.389H664.477z M680.025,68.521c-1.287-2.598-2.809-4.861-4.564-6.791l2.932-1.763
		c1.719,1.893,3.234,4.2,4.546,6.921L680.025,68.521z M683.477,72.214c-2.301,2.771-4.985,5.431-8.053,7.979l-2.171-2.616
		c3.266-2.684,5.975-5.307,8.127-7.867L683.477,72.214z M631.598,77.539V61.768h-4.546V50.561h10.521v11.207h-2.783v4.861h2.635
		v3.154h-2.635v6.383c1.014-0.346,2.146-0.816,3.396-1.41l0.334,3.266c-3.353,1.571-7.379,3.129-12.079,4.676l-0.909-3.117
		c0.755-0.21,1.312-0.383,1.67-0.52v-14.64h2.876v13.601C630.583,77.91,631.09,77.75,631.598,77.539z M628.796,95.01
		c0.507,0.804,0.978,1.744,1.41,2.82h12.691v2.728h-5.585c-0.347,0.582-0.842,1.305-1.484,2.171h8.98v2.802h-32.341v-2.802h8.999
		c-0.347-0.729-0.805-1.453-1.373-2.171h-5.733v-2.728h12.042c-0.248-0.581-0.625-1.268-1.132-2.06L628.796,95.01z M625.159,125.105
		l8.387-0.037c1.015,0,1.521-0.965,1.521-2.895l3.358,0.965c-0.26,3.365-1.33,5.047-3.21,5.047l-7.032,0.037
		c-2.981,0-4.74-0.04-5.279-0.12c-0.537-0.081-0.996-0.328-1.373-0.742c-0.377-0.415-0.565-1.079-0.565-1.995v-4.973h3.358v3.693
		C624.324,124.766,624.603,125.105,625.159,125.105z M627.2,120.467l3.191-0.982c0.915,1.348,1.589,2.604,2.022,3.766l-3.191,0.762
		C628.715,122.861,628.041,121.68,627.2,120.467z M616.457,119.113v-11.746h24.399v11.746H616.457z M619.686,121.654
		c-1.596,2.846-3.154,5.097-4.676,6.754l-2.82-1.93c1.645-1.707,3.129-3.822,4.453-6.346L619.686,121.654z M641.228,119.744
		c1.967,2.313,3.414,4.484,4.342,6.512l-2.895,1.855c-1.052-2.238-2.468-4.391-4.249-6.457L641.228,119.744z M523.758,50.208h18.165
		v22.043h3.154v2.765h-24.399v-2.765h3.08V50.208z M520.158,94.899c4.774,4.193,8.436,8.22,10.984,12.079l-2.895,1.985
		c-2.536-4.008-6.166-8.04-10.892-12.098L520.158,94.899z M520.084,80.489c3.414-1.422,6.234-3.117,8.461-5.084l2.394,2.356
		c-2.375,2.177-5.288,4.001-8.739,5.474L520.084,80.489z M518.748,49.336l3.34,0.761c-0.359,1.225-0.946,2.802-1.763,4.731
		l-1.243,2.839v25.216h-3.34V63.771c-0.779,1.15-1.627,2.152-2.542,3.006l-1.707-3.525C514.512,59.888,516.93,55.249,518.748,49.336
		z M502.262,51.609c0.502-0.476,1.135-0.714,1.902-0.714c0.754,0,1.392,0.238,1.911,0.714c0.52,0.477,0.779,1.08,0.779,1.809
		c0,0.73-0.26,1.333-0.779,1.809c-0.52,0.477-1.157,0.714-1.911,0.714c-0.755,0-1.386-0.241-1.893-0.724
		c-0.508-0.482-0.761-1.082-0.761-1.8C501.511,52.688,501.762,52.085,502.262,51.609z M506.298,60.469V80.99h-4.36V60.469H506.298z
		 M508.951,94.936l3.043,1.707c-3.798,5.232-7.7,9.364-11.708,12.395l-2.356-2.82C501.344,103.917,505.018,100.156,508.951,94.936z
		 M435.391,63.066c1.85-2.053,4.166-3.08,6.949-3.08c2.771,0,4.926,0.875,6.467,2.625c1.539,1.75,2.31,4.16,2.31,7.227v2.06h-14.102
		c0.186,4.144,2.294,6.216,6.327,6.216c2.275,0,4.348-0.68,6.216-2.041v3.6c-1.831,1.2-4.237,1.8-7.218,1.8
		c-3.043,0-5.424-0.928-7.144-2.783s-2.579-4.453-2.579-7.793C432.617,67.73,433.541,65.12,435.391,63.066z M454.159,101.857
		l-2.746,2.041c-1.36-2.028-2.993-3.865-4.898-5.511l2.616-2.189C451.072,97.905,452.749,99.792,454.159,101.857z M410.63,63.048
		c1.731-2.041,3.989-3.062,6.772-3.062s4.762,1.052,5.938,3.154h0.093V50.616h4.342V80.99h-4.342v-3.247h-0.093
		c-1.484,2.486-3.748,3.729-6.791,3.729c-2.598,0-4.666-0.924-6.207-2.774c-1.539-1.849-2.31-4.345-2.31-7.487
		C408.032,67.811,408.898,65.089,410.63,63.048z M417.031,119.781l-1.818,2.561c-1.447-0.891-3.328-1.955-5.641-3.191v9.574h-3.266
		v-11.096c-1.484-0.755-3.371-1.553-5.659-2.395l1.67-2.708c1.93,0.742,3.259,1.274,3.989,1.596v-4.564h-6.865
		c0.148,8.46-1.423,14.887-4.713,19.279l-2.319-2.395c1.089-1.545,1.988-3.54,2.7-5.983c0.711-2.442,1.066-6.101,1.066-10.975
		V97.831c6.778-0.334,12.753-1.156,17.924-2.468l2.06,2.876c-4.602,1.163-10.162,1.998-16.681,2.505v5.548h17.553v3.266h-7.459
		v6.011C412.244,116.93,414.73,118.334,417.031,119.781z M416.159,147.457l-2.746,2.041c-1.36-2.028-2.993-3.865-4.898-5.511
		l2.616-2.189C413.072,143.505,414.749,145.392,416.159,147.457z M388.717,52.249h15.271v3.822H393.17v8.461h10.038v3.804H393.17
		v8.832h11.467v3.822h-15.92V52.249z M388.067,95.084c2.054,2.091,3.754,4.255,5.103,6.494l-2.82,1.688
		c-1.188-1.954-2.857-4.113-5.01-6.476L388.067,95.084z M356.051,56.118c2.777-2.9,6.355-4.351,10.734-4.351
		c2.758,0,5.053,0.384,6.884,1.15v4.509c-2.028-1.138-4.274-1.707-6.735-1.707c-3.13,0-5.641,1.03-7.533,3.089
		s-2.839,4.753-2.839,8.081c0,3.179,0.888,5.752,2.663,7.719c1.774,1.967,4.152,2.95,7.134,2.95c2.771,0,5.208-0.637,7.311-1.911
		v4.212c-2.128,1.076-4.806,1.614-8.034,1.614c-4.156,0-7.486-1.308-9.992-3.924c-2.504-2.616-3.757-6.07-3.757-10.363
		C351.886,62.708,353.273,59.019,356.051,56.118z M333.238,52.249h15.289v3.822h-10.836v8.925h10.001V68.8h-10.001v12.19h-4.453
		V52.249z M340.233,98.09v6.884h-3.303v-3.878h-24.659v3.878h-3.358V98.09h13.693c-0.321-0.655-0.804-1.404-1.447-2.245l3.6-0.724
		c0.606,0.953,1.175,1.942,1.707,2.969H340.233z M298.448,49.874c2.399,1.237,4.663,2.715,6.791,4.435l-2.245,2.598
		c-2.029-1.657-4.28-3.117-6.754-4.379L298.448,49.874z M294.533,61.118v-3.34h13.025c0.099-1.645,0.148-4.348,0.148-8.108
		l3.47,0.037c0,2.635-0.037,5.325-0.111,8.071h15.122c0.037,1.534,0.056,3.124,0.056,4.769c0,4.033-0.127,7.908-0.38,11.625
		c-0.254,3.717-0.622,5.922-1.104,6.615s-1.058,1.218-1.726,1.577c-0.668,0.358-2.381,0.538-5.14,0.538
		c-0.755,0-1.528-0.019-2.319-0.056l-1.243-3.377c1.299,0.074,2.561,0.111,3.785,0.111c1.781,0,2.854-0.096,3.22-0.288
		c0.364-0.191,0.611-0.47,0.742-0.835c0.129-0.365,0.274-2.446,0.436-6.244c0.16-3.797,0.254-7.496,0.278-11.096h-11.931
		c-0.878,9.08-5.857,16.439-14.937,22.08l-2.115-2.932c8.535-5.133,13.056-11.516,13.563-19.148H294.533z M311.325,66.963
		l2.319-2.152c2.82,2.771,5.214,5.641,7.181,8.609l-2.394,2.134C316.415,72.598,314.046,69.734,311.325,66.963z M302.159,101.857
		l-2.746,2.041c-1.361-2.028-2.994-3.865-4.898-5.511l2.616-2.189C299.073,97.905,300.749,99.792,302.159,101.857z M269.113,50.468
		h16.755v3.191c-1.497,2.227-3.117,4.144-4.861,5.752c3.364,1.695,6.265,3.482,8.702,5.362l-2.06,2.542
		c-2.264-1.806-5.319-3.692-9.166-5.659c-2.969,2.301-6.173,4.225-9.611,5.771l-1.633-2.895c6.197-2.709,11.089-6.333,14.677-10.873
		h-12.803V50.468z M257.294,64.495l-0.965-2.839c2.301-3.266,4.447-7.311,6.438-12.135l3.024,1.336
		c-1.646,3.822-3.377,7.125-5.195,9.908c1.225-0.161,2.505-0.439,3.841-0.835c0.866-1.472,1.583-2.9,2.152-4.286l2.932,1.559
		c-2.734,5.542-5.492,10.112-8.275,13.712c2.189-0.569,4.453-1.317,6.791-2.245l0.501,3.043c-2.957,1.262-6.717,2.406-11.281,3.433
		l-0.965-2.857c2.016-2.325,4.094-5.263,6.234-8.813L257.294,64.495z M267.777,74.496l0.761,3.154
		c-3.847,1.855-7.762,3.426-11.745,4.713l-0.872-3.191C259.644,78.021,263.596,76.463,267.777,74.496z M253.898,98.016h3.34v23.638
		h-3.34V98.016z M246.718,105.494c-0.507-0.878-1.354-2.016-2.542-3.414l2.913-1.633c2.771,3.241,4.725,6.266,5.863,9.073
		l-2.783,1.763c-0.854-1.67-1.386-2.659-1.596-2.969c-1.336,0.223-2.728,0.439-4.175,0.649v5.01h6.828v3.302h-6.828v5.789
		c2.09-0.246,4.62-0.797,7.589-1.65v3.246c-4.218,1.176-10.626,2.338-19.223,3.488l-0.946-3.229c2.771-0.234,5.82-0.631,9.147-1.188
		v-6.457h-7.589v-3.302h7.589v-4.453c-3.142,0.408-5.598,0.693-7.366,0.854l-0.946-3.154c2.672-1.769,4.849-4.317,6.531-7.645
		h-6.791v-3.303h19.761v3.303h-8.943c-1.509,2.672-3.371,5.041-5.585,7.106C240.458,106.434,243.489,106.038,246.718,105.494z
		 M225.714,81.176v1.744h-3.396V68.763h24.863V82.92h-3.303v-1.744H225.714z M241.448,49.41l3.674,1.262
		c-1.225,1.212-2.666,2.363-4.323,3.451l-3.47-1.596C239.209,51.414,240.582,50.375,241.448,49.41z M228.182,49.299
		c1.682,1.312,2.925,2.425,3.729,3.34l-3.284,1.41c-1.88-1.769-3.167-2.895-3.859-3.377L228.182,49.299z M220.277,54.513h29.112
		v12.116h-29.112V54.513z M207.271,50.598c1.942,1.707,3.618,3.594,5.028,5.659l-2.746,2.041c-1.361-2.028-2.994-3.865-4.898-5.511
		L207.271,50.598z M101.063,96.198h11.578v3.062c-0.866,3.34-1.862,6.575-2.987,9.704c2.288,3.538,3.433,6.767,3.433,9.685
		c0,1.447-0.257,2.602-0.77,3.461c-0.514,0.859-1.135,1.432-1.865,1.717c-0.73,0.284-2.202,0.383-4.416,0.297l-0.946-3.266
		c1.026,0.099,2.09,0.148,3.191,0.148c0.433,0,0.792-0.152,1.076-0.455c0.284-0.303,0.427-1.012,0.427-2.125
		c0-2.807-1.188-5.764-3.563-8.869c1.188-3.142,2.251-6.574,3.191-10.298h-5.158v29.186h-3.191V96.198z M112.159,147.457
		l-2.746,2.041c-1.361-2.028-2.994-3.865-4.898-5.511l2.616-2.189C109.073,143.505,110.749,145.392,112.159,147.457z
		 M80.152,108.815h5.028c-0.606-1.868-1.367-3.655-2.282-5.362l2.505-1.521h-4.49v-3.043h7.533
		c-0.384-0.977-0.916-1.991-1.596-3.043l3.34-0.872c0.606,0.953,1.212,2.258,1.818,3.915h6.847v3.043h-3.841l2.394,1.336
		c-0.544,1.521-1.317,3.371-2.319,5.548h4.416v2.987H80.152V108.815z M85.663,126.256v2.152h-3.377v-13.971h15.196v13.971h-3.266
		v-2.152H85.663z M11.222,128.482h-3.34v-19.111c-0.779,1.15-1.627,2.152-2.542,3.006l-1.707-3.525
		c3.018-3.364,5.437-8.003,7.255-13.916l3.34,0.761c-0.359,1.225-0.946,2.802-1.763,4.731l-1.243,2.839V128.482z M14.339,128.836
		l-2.115-2.746c3.414-1.423,6.234-3.117,8.461-5.084l2.394,2.355C20.703,125.539,17.79,127.363,14.339,128.836z M34.489,128.799
		c-2.078-1.906-4.459-3.643-7.144-5.215l2.319-2.467c3.055,1.83,5.474,3.594,7.255,5.287L34.489,128.799z M37.217,120.615H12.817
		v-2.764h3.08V95.808h18.165v22.043h3.154V120.615z M44.249,127.352l-2.542-2.32c3.476-2.721,6.463-6.092,8.962-10.112l2.932,1.67
		C50.669,121.154,47.552,124.741,44.249,127.352z M61.282,125.18c0,0.705-0.195,1.33-0.584,1.875
		c-0.39,0.543-0.878,0.921-1.466,1.131c-0.588,0.211-1.766,0.316-3.535,0.316c-0.804,0-1.658-0.031-2.561-0.094l-0.909-3.377
		l4.936,0.148c0.507,0,0.761-0.216,0.761-0.648v-12.042h-14.25l3.229-14.51c10.625-0.247,19-1.249,25.123-3.006l1.818,2.895
		c-7.348,1.93-15.388,3.031-24.121,3.303l-1.744,8.127h9.945v-6.643h3.358v6.643H75.18v3.191H61.282V125.18z M72.452,127.463
		c-1.683-3.266-4.206-6.748-7.57-10.447l2.653-2.022c3.426,3.723,5.999,7.2,7.719,10.428L72.452,127.463z M111.519,172.283
		c-0.811,1.323-1.853,1.985-3.126,1.985c-2.128,0-4.243-1.899-6.346-5.696c-2.128,1.584-4.472,3.006-7.032,4.268l-1.893-2.82
		c2.932-1.373,5.498-2.889,7.7-4.546c-0.619-2.388-1.045-6.24-1.28-11.56h-7.941v5.251c1.893-0.384,3.995-0.915,6.309-1.596
		l0.074,3.303c-2.289,0.668-4.416,1.2-6.383,1.596v8.424c0,0.965-0.198,1.683-0.594,2.152c-0.396,0.47-0.897,0.776-1.503,0.919
		c-0.606,0.142-1.695,0.213-3.266,0.213c-1.175,0-2.326-0.031-3.451-0.093l-1.188-3.6c1.707,0.074,3.104,0.111,4.193,0.111
		c1.163,0,1.843-0.052,2.041-0.157c0.198-0.105,0.297-0.331,0.297-0.678v-6.568c-2.722,0.52-5.214,0.896-7.478,1.132l-0.612-3.154
		c2.449-0.272,5.146-0.705,8.09-1.299v-5.956h-7.979v-3.229h7.979v-4.305c-1.707,0.26-3.859,0.501-6.457,0.724l-1.521-3.154
		c6.42-0.384,11.782-1.379,16.087-2.987l1.93,2.802c-2.4,0.854-4.589,1.484-6.568,1.893v5.028h7.904
		c-0.05-1.533-0.074-4.762-0.074-9.686h3.377c-0.037,3.291-0.037,6.52,0,9.686h10.372v3.229h-10.261
		c0.086,3.154,0.315,6.117,0.687,8.888c1.756-2.017,3.34-4.483,4.75-7.403l2.969,1.484c-2.066,4.145-4.286,7.299-6.661,9.463
		c0.729,1.484,1.407,2.573,2.032,3.266c0.625,0.693,1.104,1.039,1.438,1.039c0.866,0,1.639-1.954,2.319-5.863l3.024,1.893
		C112.981,169.092,112.329,170.96,111.519,172.283z M147.042,174.12h-3.414v-1.707h-18.165v1.707h-3.507v-13.675h25.086V174.12z
		 M150.994,156.994h-32.99v-3.08h14.825v-5.047h-8.201c-1.41,1.683-2.857,3.037-4.342,4.063l-2.505-2.356
		c2.895-2.078,5.591-5.244,8.09-9.5l3.377,1.021c-0.668,1.188-1.41,2.394-2.227,3.618h5.808v-4.806h3.414v4.806h12.766v3.154
		h-12.766v5.047h14.751V156.994z M151.18,127.537h-32.953v-3.303h14.714v-8.164h-11.634v-3.303h11.634v-8.034h-13.415v-3.303h13.953
		c-0.482-1.596-1.317-3.457-2.505-5.585l3.414-0.909c1.063,2.054,1.985,4.218,2.765,6.494h12.654v3.303h-13.378v8.034H148.1v3.303
		h-11.671v8.164h14.751V127.537z M159.27,168.127c0.284-0.371,0.427-0.767,0.427-1.188v-12.729h-3.804v-3.303h7.181v14.565
		l2.356-1.948l1.021,3.08c-1.67,1.633-3.618,3.154-5.845,4.564L159.27,168.127z M157.34,142.392l2.728-1.707
		c2.053,2.091,3.754,4.255,5.103,6.494l-2.82,1.688C161.162,146.913,159.492,144.754,157.34,142.392z M189.031,155.157h-7.459v6.012
		c2.672,1.36,5.158,2.765,7.459,4.212l-1.818,2.561c-1.447-0.891-3.328-1.954-5.641-3.191v9.574h-3.266v-11.096
		c-1.484-0.754-3.371-1.553-5.659-2.394l1.67-2.709c1.93,0.742,3.259,1.274,3.989,1.596v-4.564h-6.865
		c0.148,8.461-1.423,14.888-4.713,19.278l-2.319-2.394c1.088-1.546,1.988-3.54,2.7-5.983c0.711-2.443,1.067-6.102,1.067-10.976
		v-11.652c6.778-0.334,12.753-1.156,17.924-2.468l2.06,2.876c-4.602,1.163-10.162,1.998-16.681,2.505v5.548h17.553V155.157z
		 M187.213,128.762c-7.397-5.604-12.265-11.486-14.603-17.646c-1.831,6.902-6.68,12.716-14.547,17.441l-2.282-2.764
		c9.982-6.223,14.974-14.343,14.974-24.363v-6.067h3.6v7.812c0,4.132,1.382,8.18,4.147,12.144c2.765,3.965,6.398,7.518,10.901,10.66
		L187.213,128.762z M199.682,62.714h-7.941v5.251c1.893-0.383,3.995-0.915,6.309-1.596l0.074,3.303
		c-2.289,0.668-4.416,1.2-6.383,1.596v8.424c0,0.965-0.198,1.682-0.594,2.152c-0.396,0.47-0.897,0.776-1.503,0.918
		c-0.606,0.142-1.695,0.213-3.266,0.213c-1.175,0-2.326-0.031-3.451-0.093l-1.188-3.6c1.707,0.074,3.104,0.111,4.193,0.111
		c1.163,0,1.843-0.052,2.041-0.158c0.198-0.105,0.297-0.331,0.297-0.677v-6.568c-2.722,0.52-5.214,0.897-7.478,1.132l-0.612-3.154
		c2.449-0.272,5.146-0.705,8.09-1.299v-5.956h-7.979v-3.229h7.979v-4.305c-1.707,0.26-3.859,0.501-6.457,0.724l-1.521-3.154
		c6.42-0.383,11.782-1.379,16.087-2.987l1.93,2.802c-2.4,0.854-4.589,1.484-6.568,1.893v5.028h7.904
		c-0.05-1.534-0.074-4.762-0.074-9.686h3.377c-0.037,3.291-0.037,6.519,0,9.686h10.372v3.229h-10.261
		c0.086,3.154,0.315,6.117,0.687,8.888c1.756-2.016,3.34-4.484,4.75-7.403l2.969,1.484c-2.066,4.144-4.286,7.298-6.661,9.463
		c0.729,1.484,1.407,2.573,2.032,3.266c0.625,0.693,1.104,1.039,1.438,1.039c0.866,0,1.639-1.954,2.319-5.863l3.024,1.893
		c-0.495,2.412-1.147,4.28-1.958,5.604c-0.811,1.323-1.853,1.985-3.126,1.985c-2.128,0-4.243-1.899-6.346-5.696
		c-2.128,1.583-4.472,3.006-7.032,4.268l-1.893-2.82c2.932-1.373,5.498-2.888,7.7-4.546
		C200.343,71.886,199.917,68.033,199.682,62.714z M201.37,149.016v24.993h-3.303V154.86c-0.928,1.336-1.726,2.375-2.394,3.117
		l-1.633-3.451c2.882-3.661,5.238-8.325,7.069-13.99l3.377,0.649c-0.371,1.324-0.983,2.975-1.837,4.954L201.37,149.016z
		 M225.76,172.357c-0.823,0.928-1.958,1.392-3.405,1.392h-12.079c-1.175,0-2.128-0.331-2.857-0.993
		c-0.73-0.661-1.095-1.672-1.095-3.033v-13.415l-2.932,0.909l-0.371-3.303l3.303-1.095v-8.517h3.303v7.403l4.75-1.559v-9.185h3.303
		v8.09l8.517-2.783c-0.198,5.802-0.897,11.324-2.097,16.569l-3.043-0.946c1.002-4.094,1.509-7.743,1.521-10.947l-4.898,1.559v14.677
		h-3.303v-13.526l-4.75,1.466v14.454c0,0.198,0.093,0.387,0.278,0.566s0.371,0.269,0.557,0.269h11.355
		c0.705,0,1.221-0.303,1.549-0.909c0.328-0.605,0.572-1.861,0.733-3.767l3.303,1.336C227.13,169.667,226.583,171.43,225.76,172.357z
		 M225.547,127.092c-6.062-3.315-10.533-6.952-13.415-10.91v12.469h-3.229v-12.432c-2.981,3.674-7.391,7.193-13.229,10.557
		l-2.115-2.652c5.715-2.981,10.069-6.377,13.063-10.187h-12.395v-3.191h14.677v-8.09h-13.267V99.5h13.267v-3.952h3.229V99.5h13.267
		v3.154h-13.267v8.09h14.547v3.191h-12.302c2.647,3.699,7.014,7.168,13.1,10.41L225.547,127.092z M197.956,104.733l2.932-1.596
		c1.274,1.349,2.616,3.111,4.026,5.288l-2.932,1.484C200.547,107.77,199.205,106.044,197.956,104.733z M223.265,104.937
		c-1.744,2.449-3.223,4.193-4.435,5.232l-2.932-1.67c1.694-1.62,3.185-3.34,4.472-5.158L223.265,104.937z M239.945,145.676
		l-1.373,3.488v24.956h-3.303v-17.961c-0.606,1.15-1.212,2.122-1.818,2.913l-1.93-3.451c2.561-3.76,4.799-8.752,6.717-14.974
		l3.154,0.946C240.848,143.227,240.366,144.588,239.945,145.676z M245.419,174.213h-3.303V147.03h3.303V174.213z M247.33,147.605
		c-1.175-1.941-2.523-3.767-4.045-5.474l2.746-1.67c1.633,1.683,3,3.52,4.101,5.511L247.33,147.605z M264.308,170.02
		c0,1.15-0.235,2.045-0.705,2.682c-0.47,0.637-1.027,1.061-1.67,1.271c-0.644,0.21-1.664,0.315-3.062,0.315
		c-1.373,0-2.74-0.025-4.101-0.074l-0.835-3.321c1.905,0.087,3.878,0.13,5.919,0.13c0.321,0,0.594-0.121,0.816-0.361
		c0.223-0.242,0.334-0.517,0.334-0.826v-24.325h-9.778v-3.303h13.081V170.02z M264.308,125.533c0,0.816-0.26,1.508-0.779,2.078
		c-0.52,0.568-1.126,0.877-1.818,0.928c-0.693,0.049-1.627,0.074-2.802,0.074c-0.73,0-1.707-0.02-2.932-0.057l-0.983-3.414
		c1.323,0.088,2.486,0.131,3.488,0.131c1.163,0,1.855-0.047,2.078-0.14s0.334-0.263,0.334-0.511v-29.26h3.414V125.533z
		 M268.427,78.856h8.35v-7.7h-7.069v-3.154h17.33v3.154h-6.921v7.7h8.702v3.191h-20.392V78.856z M275.663,157.291
		c0,7.15-1.039,12.803-3.117,16.959l-2.802-2.245c1.694-3.687,2.542-9.259,2.542-16.718v-10.91h13.489
		c-0.285-0.865-0.755-1.893-1.41-3.08l3.618-0.761c0.544,1.002,1.076,2.282,1.596,3.841h13.526v3.303h-27.442V157.291z
		 M292.084,165.158l-3.191,0.909c-0.297-4.515-1.287-9.784-2.969-15.809l3.191-0.724C290.772,155.3,291.762,160.508,292.084,165.158
		z M285.701,166.791l-3.08,1.113c-1.287-5.207-3.148-10.149-5.585-14.825l3.043-1.188
		C282.503,156.827,284.377,161.794,285.701,166.791z M303.143,173.211h-26.979v-3.266h15.883c2.251-4.713,4.268-11.033,6.049-18.963
		l3.266,0.909c-1.497,6.457-3.371,12.476-5.622,18.054h7.403V173.211z M301.519,126.684c-0.811,1.322-1.853,1.984-3.126,1.984
		c-2.128,0-4.243-1.898-6.346-5.695c-2.128,1.583-4.472,3.006-7.032,4.268l-1.893-2.82c2.932-1.373,5.498-2.889,7.7-4.547
		c-0.619-2.387-1.045-6.24-1.28-11.559h-7.941v5.251c1.893-0.383,3.995-0.915,6.309-1.596l0.074,3.302
		c-2.289,0.668-4.416,1.201-6.383,1.596v8.424c0,0.965-0.198,1.683-0.594,2.152c-0.396,0.471-0.897,0.776-1.503,0.919
		c-0.606,0.142-1.695,0.214-3.266,0.214c-1.175,0-2.326-0.031-3.451-0.094l-1.188-3.6c1.707,0.074,3.104,0.111,4.193,0.111
		c1.163,0,1.843-0.052,2.041-0.157c0.198-0.104,0.297-0.331,0.297-0.677v-6.568c-2.722,0.52-5.214,0.896-7.478,1.131l-0.612-3.154
		c2.449-0.271,5.146-0.705,8.09-1.298v-5.956h-7.979v-3.229h7.979v-4.305c-1.707,0.26-3.859,0.501-6.457,0.724l-1.521-3.154
		c6.42-0.383,11.782-1.379,16.087-2.987l1.93,2.802c-2.4,0.854-4.589,1.484-6.568,1.893v5.028h7.904
		c-0.05-1.534-0.074-4.762-0.074-9.686h3.377c-0.037,3.291-0.037,6.519,0,9.686h10.372v3.229h-10.261
		c0.086,3.154,0.315,6.117,0.687,8.887c1.756-2.016,3.34-4.483,4.75-7.403l2.969,1.484c-2.066,4.144-4.286,7.298-6.661,9.463
		c0.729,1.484,1.407,2.572,2.032,3.266c0.625,0.692,1.104,1.039,1.438,1.039c0.866,0,1.639-1.955,2.319-5.863l3.024,1.893
		C302.981,123.492,302.329,125.359,301.519,126.684z M311.047,169.611c0.284-0.321,0.427-0.692,0.427-1.113v-14.547h-3.47v-3.154
		h6.921v16.105c1.002-0.717,1.849-1.36,2.542-1.93l1.41,2.969c-2.388,1.942-4.478,3.445-6.271,4.509L311.047,169.611z
		 M308.839,142.392l2.895-1.818c2.177,2.362,3.772,4.608,4.787,6.735l-2.857,1.781C312.587,147.037,310.979,144.804,308.839,142.392
		z M325.909,141.798l3.229-1.039c0.767,1.509,1.41,2.932,1.93,4.268h10.149v3.154h-11.43c-2.326,2.919-4.404,5.183-6.234,6.791
		c2.103-0.099,4.583-0.303,7.44-0.612c1.336-1.67,2.449-3.21,3.34-4.62l2.783,1.707c-4.206,6.692-9.841,11.845-16.903,15.456
		l-2.208-2.653c4.156-2.128,7.446-4.292,9.871-6.494c-3.191,0.26-6.067,0.421-8.628,0.482l-0.631-2.802
		c2.238-1.843,4.502-4.262,6.791-7.255h-7.83v-3.154h9.778C326.985,143.987,326.503,142.911,325.909,141.798z M339.083,174.584
		c-2.091-1.942-4.911-4.032-8.461-6.271c-2.722,2.078-6.513,4.106-11.374,6.086l-1.967-2.895c4.997-1.88,8.968-3.965,11.912-6.253
		c2.943-2.288,5.826-5.609,8.646-9.964l2.728,1.744c-2.313,3.649-4.769,6.686-7.366,9.11c3.772,2.437,6.457,4.379,8.053,5.826
		L339.083,174.584z M339.547,126.961c-4.392-2.461-7.645-5.053-9.76-7.773c0.037,0.52,0.056,1.113,0.056,1.781
		c0,2.906-0.421,4.895-1.262,5.965s-2.468,1.605-4.88,1.605c-0.631,0-1.453-0.02-2.468-0.057l-1.113-3.229
		c1.744,0.063,2.987,0.094,3.729,0.094c0.928,0,1.537-0.131,1.828-0.391c0.29-0.26,0.516-0.578,0.677-0.955s0.241-1.537,0.241-3.479
		c0-0.619-0.013-1.193-0.037-1.727c-4.763,4.021-10.49,6.885-17.182,8.592l-1.484-2.857c6.902-1.436,12.945-4.484,18.128-9.148
		c-0.21-0.729-0.477-1.391-0.798-1.985c-4.527,3.5-9.71,5.858-15.549,7.069l-1.447-2.764c5.467-0.916,10.65-3.136,15.549-6.662
		c-0.074-0.099-0.508-0.575-1.299-1.429c-3.488,1.818-7.54,3.136-12.153,3.952l-1.521-2.895c5.158-0.532,9.921-2.016,14.287-4.453
		h-9.222v-2.95h21.468v2.95h-7.793c-0.618,0.619-1.392,1.2-2.319,1.744c1.583,1.732,2.721,3.532,3.414,5.399
		c2.609-1.299,5.108-3.123,7.496-5.474l2.394,2.134c-2.251,2.152-4.898,4.026-7.941,5.622c2.351,3.191,5.98,6.043,10.892,8.555
		L339.547,126.961z M352.628,103.267c-1.41,1.683-2.857,3.037-4.342,4.063l-2.505-2.356c2.895-2.078,5.591-5.245,8.09-9.5
		l3.377,1.021c-0.668,1.188-1.41,2.394-2.227,3.618h5.808v-4.806h3.414v4.806h12.766v3.154h-12.766v5.047h14.751v3.08h-32.99v-3.08
		h14.825v-5.047H352.628z M353.463,126.813v1.707h-3.507v-13.674h25.086v13.674h-3.414v-1.707H353.463z M355.207,147.216
		l-2.82,1.837c-1.386-2.214-3.043-4.366-4.973-6.457l2.895-1.911C352.597,143.245,354.229,145.422,355.207,147.216z
		 M349.808,169.982c0.247-0.26,0.371-0.588,0.371-0.983v-14.751h-4.063v-3.303h7.533v16.068c1.273-0.915,2.518-1.861,3.729-2.839
		l1.466,2.969c-2.907,2.499-5.375,4.336-7.403,5.511L349.808,169.982z M379.328,173.563h-22.915v-3.266h8.146v-29.112h3.414v11.578
		h10.521v3.247h-10.521v14.287h11.355V173.563z M383.893,105.308h7.181v14.565l2.356-1.947l1.021,3.08
		c-1.67,1.633-3.618,3.154-5.845,4.564l-1.336-3.043c0.284-0.371,0.427-0.768,0.427-1.188v-12.729h-3.804V105.308z M415.52,172.283
		c-0.811,1.323-1.854,1.985-3.127,1.985c-2.128,0-4.243-1.899-6.346-5.696c-2.128,1.584-4.472,3.006-7.032,4.268l-1.893-2.82
		c2.932-1.373,5.498-2.889,7.7-4.546c-0.619-2.388-1.045-6.24-1.28-11.56h-7.941v5.251c1.893-0.384,3.995-0.915,6.309-1.596
		l0.074,3.303c-2.288,0.668-4.416,1.2-6.383,1.596v8.424c0,0.965-0.198,1.683-0.594,2.152s-0.897,0.776-1.503,0.919
		c-0.606,0.142-1.695,0.213-3.266,0.213c-1.176,0-2.326-0.031-3.451-0.093l-1.188-3.6c1.707,0.074,3.104,0.111,4.193,0.111
		c1.162,0,1.843-0.052,2.041-0.157c0.197-0.105,0.297-0.331,0.297-0.678v-6.568c-2.722,0.52-5.214,0.896-7.478,1.132l-0.612-3.154
		c2.449-0.272,5.146-0.705,8.09-1.299v-5.956h-7.979v-3.229h7.979v-4.305c-1.707,0.26-3.859,0.501-6.457,0.724l-1.521-3.154
		c6.42-0.384,11.782-1.379,16.087-2.987l1.93,2.802c-2.399,0.854-4.589,1.484-6.568,1.893v5.028h7.904
		c-0.05-1.533-0.074-4.762-0.074-9.686h3.377c-0.037,3.291-0.037,6.52,0,9.686h10.372v3.229h-10.261
		c0.087,3.154,0.315,6.117,0.687,8.888c1.756-2.017,3.34-4.483,4.75-7.403l2.969,1.484c-2.066,4.145-4.286,7.299-6.661,9.463
		c0.729,1.484,1.407,2.573,2.032,3.266c0.624,0.693,1.104,1.039,1.438,1.039c0.865,0,1.639-1.954,2.319-5.863l3.024,1.893
		C416.981,169.092,416.329,170.96,415.52,172.283z M455.18,159.685h-17.052c-2.462,4.429-5.189,7.923-8.183,10.483
		c6.667-0.544,12.493-1.225,17.479-2.041c-1.695-2.041-3.34-3.791-4.936-5.251l2.69-2.041c4.008,3.772,7.292,7.645,9.853,11.615
		l-2.969,1.985c-0.866-1.436-1.651-2.592-2.356-3.47c-8.214,1.225-16.699,2.177-25.457,2.857l-0.649-2.932
		c3.748-1.917,7.181-5.653,10.298-11.207h-11.782v-3.34h14.714v-6.123h-12.506v-3.303h12.506v-5.956h3.563v5.956h12.654v3.303
		h-12.654v6.123h14.788V159.685z M453.52,126.684c-0.811,1.322-1.854,1.984-3.127,1.984c-2.128,0-4.243-1.898-6.346-5.695
		c-2.128,1.583-4.472,3.006-7.032,4.268l-1.893-2.82c2.932-1.373,5.498-2.889,7.7-4.547c-0.619-2.387-1.045-6.24-1.28-11.559h-7.941
		v5.251c1.893-0.383,3.995-0.915,6.309-1.596l0.074,3.302c-2.288,0.668-4.416,1.201-6.383,1.596v8.424
		c0,0.965-0.198,1.683-0.594,2.152c-0.396,0.471-0.897,0.776-1.503,0.919c-0.606,0.142-1.695,0.214-3.266,0.214
		c-1.176,0-2.326-0.031-3.451-0.094l-1.188-3.6c1.707,0.074,3.104,0.111,4.193,0.111c1.162,0,1.843-0.052,2.041-0.157
		c0.197-0.104,0.297-0.331,0.297-0.677v-6.568c-2.722,0.52-5.214,0.896-7.478,1.131l-0.612-3.154
		c2.449-0.271,5.146-0.705,8.09-1.298v-5.956h-7.979v-3.229h7.979v-4.305c-1.707,0.26-3.859,0.501-6.457,0.724l-1.521-3.154
		c6.42-0.383,11.782-1.379,16.087-2.987l1.93,2.802c-2.399,0.854-4.589,1.484-6.568,1.893v5.028h7.904
		c-0.05-1.534-0.074-4.762-0.074-9.686h3.377c-0.037,3.291-0.037,6.519,0,9.686h10.372v3.229h-10.261
		c0.087,3.154,0.315,6.117,0.687,8.887c1.756-2.016,3.34-4.483,4.75-7.403l2.969,1.484c-2.066,4.144-4.286,7.298-6.661,9.463
		c0.729,1.484,1.407,2.572,2.032,3.266c0.624,0.692,1.104,1.039,1.438,1.039c0.865,0,1.639-1.955,2.319-5.863l3.024,1.893
		C454.981,123.492,454.329,125.359,453.52,126.684z M460.022,78.226v2.765h-4.36V50.616h4.36v13.267h0.093
		c1.583-2.598,3.896-3.896,6.939-3.896c2.598,0,4.642,0.913,6.133,2.737c1.49,1.825,2.235,4.295,2.235,7.413
		c0,3.414-0.845,6.157-2.532,8.229c-1.689,2.072-3.949,3.108-6.782,3.108c-2.647,0-4.646-1.082-5.993-3.247H460.022z
		 M464.309,125.682v2.875h-3.358v-27.646h3.396c0.952-1.756,1.694-3.686,2.227-5.789l3.507,0.575
		c-0.186,1.2-0.779,2.938-1.781,5.214h6.142v27.275h-3.266v-2.504H464.309z M475.683,164.36l-1.15-0.891
		c0.47-0.681,0.798-1.243,0.983-1.688c-1.027-0.408-1.54-1.199-1.54-2.375c0-0.692,0.263-1.262,0.788-1.707s1.104-0.668,1.735-0.668
		c0.718,0,1.305,0.26,1.763,0.779c0.457,0.52,0.687,1.163,0.687,1.93C478.948,161.163,477.859,162.703,475.683,164.36z
		 M492.419,115.244c-0.235,5.795-0.581,9.213-1.039,10.252s-1.153,1.803-2.087,2.291c-0.935,0.488-3.207,0.745-6.819,0.77
		l-1.262-3.34l5.084-0.037c0.482,0,0.995-0.203,1.54-0.611c0.544-0.408,0.952-3.16,1.225-8.258c0.271-5.096,0.402-9.066,0.39-11.912
		h-7.626c-1.188,3.019-2.529,5.591-4.026,7.719l-2.598-2.319c2.722-4.403,4.639-9.32,5.752-14.751l3.34,0.724
		c-0.247,1.287-0.692,3.062-1.336,5.325h9.853C492.783,104.733,492.654,109.449,492.419,115.244z M479.078,111.802l2.969-1.855
		c2.523,3.154,4.273,5.864,5.251,8.127l-2.969,1.91C482.696,116.719,480.945,113.992,479.078,111.802z M497.429,71.898h-14.102
		c0.186,4.144,2.294,6.216,6.327,6.216c2.275,0,4.348-0.68,6.216-2.041v3.6c-1.831,1.2-4.237,1.8-7.218,1.8
		c-3.043,0-5.424-0.928-7.144-2.783s-2.579-4.453-2.579-7.793c0-3.167,0.924-5.776,2.773-7.83c1.85-2.053,4.166-3.08,6.949-3.08
		c2.771,0,4.926,0.875,6.467,2.625c1.539,1.75,2.31,4.16,2.31,7.227V71.898z M531.18,159.685h-17.052
		c-2.462,4.429-5.189,7.923-8.183,10.483c6.667-0.544,12.493-1.225,17.479-2.041c-1.695-2.041-3.34-3.791-4.936-5.251l2.69-2.041
		c4.008,3.772,7.292,7.645,9.853,11.615l-2.969,1.985c-0.866-1.436-1.651-2.592-2.356-3.47c-8.214,1.225-16.699,2.177-25.457,2.857
		l-0.649-2.932c3.748-1.917,7.181-5.653,10.298-11.207h-11.782v-3.34h14.714v-6.123h-12.506v-3.303h12.506v-5.956h3.563v5.956
		h12.654v3.303h-12.654v6.123h14.788V159.685z M529.695,128.762c-6.136-2.115-11.151-4.893-15.048-8.332
		c-4.181,3.699-9.247,6.426-15.196,8.184l-1.781-3.043c5.578-1.559,10.439-4.045,14.584-7.459c-2.969-3.39-5.399-7.261-7.292-11.616
		l3.006-1.484c1.769,4.132,3.971,7.737,6.605,10.817c2.857-3.24,5.022-6.809,6.494-10.706l3.117,1.373
		c-1.744,4.379-4.138,8.251-7.181,11.616c3.686,3.117,8.51,5.615,14.473,7.496L529.695,128.762z M537.525,75.517
		c3.055,1.831,5.474,3.594,7.255,5.288l-2.431,2.394c-2.078-1.905-4.459-3.643-7.144-5.214L537.525,75.517z M568.994,154.712h-19.39
		l-1.429,2.134h16.792v17.312h-3.433v-1.744h-14.046v1.744h-3.47V161.93c-2.189,2.227-4.101,3.922-5.733,5.084l-2.356-2.579
		c3.785-2.598,7.051-5.839,9.797-9.723h-9.259v-2.616h10.854c0.383-0.68,0.754-1.404,1.113-2.171h-10.521v-2.542h11.689l0.761-2.097
		c-5.529,0.148-9.203,0.235-11.021,0.26l-1.28-2.95c1.596,0.037,3.147,0.056,4.657,0.056c8.25,0,15.703-0.631,22.358-1.893
		l2.097,2.598c-3.39,0.705-7.774,1.262-13.155,1.67c-0.074,0.31-0.365,1.095-0.872,2.356h14.473v2.542h-15.456
		c-0.396,0.816-0.779,1.54-1.15,2.171h17.979V154.712z M569.143,111.283h-3.618c-0.087,2.115-0.272,4.936-0.557,8.461h4.175v3.229
		h-4.527c-0.211,1.954-0.662,3.309-1.354,4.063c-0.692,0.755-1.655,1.191-2.886,1.309s-3.182,0.176-5.854,0.176l-0.928-3.266
		l5.752-0.037c1.039,0,1.633-0.748,1.781-2.244h-22.841c0.655-5.171,1.101-9.067,1.336-11.69h-3.47v-3.229h3.618
		c0.272-2.944,0.525-6.921,0.761-11.931h25.531c-0.037,4.095-0.174,8.071-0.408,11.931h3.488V111.283z M549.567,79.432
		c3.476-2.721,6.463-6.092,8.962-10.112l2.932,1.67c-2.932,4.564-6.049,8.152-9.352,10.762L549.567,79.432z M569.143,79.58
		c0,0.705-0.195,1.33-0.584,1.874c-0.391,0.544-0.879,0.921-1.467,1.132c-0.588,0.21-1.766,0.315-3.534,0.315
		c-0.804,0-1.657-0.031-2.561-0.093l-0.909-3.377l4.936,0.148c0.507,0,0.761-0.216,0.761-0.649V66.889h-14.25l3.229-14.51
		c10.626-0.247,19-1.249,25.123-3.006l1.818,2.895c-7.348,1.93-15.388,3.031-24.121,3.303l-1.744,8.127h9.945v-6.643h3.358v6.643
		h13.897v3.191h-13.897V79.58z M575.396,69.394c3.427,3.724,5.999,7.199,7.719,10.428l-2.802,2.041
		c-1.683-3.266-4.206-6.748-7.57-10.446L575.396,69.394z M606.994,154.712h-19.39l-1.429,2.134h16.792v17.312h-3.433v-1.744h-14.046
		v1.744h-3.47V161.93c-2.189,2.227-4.101,3.922-5.733,5.084l-2.356-2.579c3.785-2.598,7.051-5.839,9.797-9.723h-9.259v-2.616h10.854
		c0.383-0.68,0.754-1.404,1.113-2.171h-10.521v-2.542h11.689l0.761-2.097c-5.529,0.148-9.203,0.235-11.021,0.26l-1.28-2.95
		c1.596,0.037,3.147,0.056,4.657,0.056c8.25,0,15.703-0.631,22.358-1.893l2.097,2.598c-3.39,0.705-7.774,1.262-13.155,1.67
		c-0.074,0.31-0.365,1.095-0.872,2.356h14.473v2.542h-15.456c-0.396,0.816-0.779,1.54-1.15,2.171h17.979V154.712z M607.217,127.24
		H583.17v1.316h-3.433v-14.769c-1.323,1.324-2.523,2.375-3.6,3.154l-2.319-2.783c3.995-2.944,7.149-6.327,9.463-10.149h-8.294
		v-3.266h10.149c0.717-1.397,1.503-3.284,2.356-5.659l3.34,0.872c-0.594,1.732-1.212,3.328-1.855,4.787h17.701v3.266h-19.445
		c-1.2,2.078-2.555,4.095-4.063,6.049v13.879h9.648v-8.869H585.1v-3.229h7.719v-6.067h3.525v6.067h8.294v3.229h-8.294v8.869h10.873
		V127.24z M593.523,80.656v2.152h-3.377V68.837h15.196v13.972h-3.266v-2.152H593.523z M607.365,66.202h-19.353v-2.987h5.028
		c-0.606-1.868-1.367-3.655-2.282-5.362l2.505-1.521h-4.49v-3.043h7.533c-0.384-0.977-0.916-1.991-1.596-3.043l3.34-0.872
		c0.605,0.953,1.212,2.258,1.818,3.915h6.847v3.043h-3.841l2.394,1.336c-0.544,1.521-1.317,3.371-2.319,5.548h4.416V66.202z
		 M608.924,50.598h11.578v3.062c-0.866,3.34-1.861,6.575-2.987,9.704c2.288,3.538,3.433,6.767,3.433,9.686
		c0,1.447-0.257,2.601-0.77,3.46c-0.514,0.86-1.136,1.432-1.865,1.716c-0.73,0.285-2.202,0.384-4.416,0.297l-0.946-3.266
		c1.026,0.099,2.091,0.148,3.191,0.148c0.433,0,0.792-0.151,1.076-0.455c0.284-0.303,0.427-1.011,0.427-2.125
		c0-2.808-1.188-5.764-3.563-8.869c1.188-3.142,2.251-6.574,3.191-10.298h-5.158v29.187h-3.191V50.598z M644.233,162.152h-16.718
		c-2.326,3.18-4.837,5.956-7.533,8.331c4.676-0.235,9.982-0.729,15.92-1.484c-0.94-1.126-2.128-2.301-3.563-3.525l2.765-1.837
		c3.229,2.846,6.055,5.95,8.479,9.314l-2.932,1.744c-0.656-0.965-1.312-1.861-1.967-2.69c-9.426,1.052-17.306,1.731-23.639,2.041
		l-0.872-2.542c2.993-1.991,5.993-5.108,8.999-9.352h-10.261v-3.191h31.32V162.152z M619.871,155.844v-3.08h17.516v3.08H619.871z
		 M643.77,155.398c-6.692-3.154-11.721-6.525-15.085-10.112c-3.798,4.045-8.826,7.416-15.085,10.112l-1.818-2.857
		c6.865-2.721,12.376-6.698,16.532-11.931l3.006,1.521c-0.099,0.223-0.278,0.464-0.538,0.724c3.5,3.6,8.442,6.804,14.825,9.611
		L643.77,155.398z M642.935,82.586l-2.097-2.431c5.9-3.055,9.37-6.958,10.409-11.708h-1.744c-1.843,3.724-4.794,6.649-8.851,8.776
		l-1.874-2.468c3.501-1.781,5.938-3.884,7.311-6.309h-2.505c-1.373,1.188-2.518,2.091-3.433,2.709l-1.893-2.486
		c2.523-1.583,4.435-3.364,5.733-5.344h-3.266V50.598h16.31v12.729h-9.5c-0.358,0.693-0.816,1.423-1.373,2.189h12.376
		c-0.025,3.117-0.127,6.185-0.307,9.203c-0.18,3.019-0.38,4.889-0.603,5.613s-0.579,1.283-1.067,1.679
		c-0.488,0.396-1.029,0.64-1.623,0.733s-1.887,0.139-3.878,0.139l-1.021-3.024c0.544,0.025,1.101,0.037,1.67,0.037
		c1.719,0,2.656-0.164,2.811-0.492c0.154-0.328,0.325-1.846,0.511-4.555s0.266-4.843,0.241-6.401h-0.872
		C652.93,74.583,649.107,79.296,642.935,82.586z M664.031,106.978h-13.378l-0.037-3.414h13.86c0.271-2.659,0.427-5.368,0.464-8.127
		h3.414c-0.037,3.303-0.148,6.012-0.334,8.127h14.862v3.414h-13.768c1.855,8.165,6.605,14.522,14.25,19.075l-2.041,2.746
		c-7.509-4.787-12.389-11.158-14.64-19.112c-2.362,7.645-7.298,13.922-14.807,18.833l-2.022-2.949
		C657.611,120.511,662.336,114.313,664.031,106.978z M679.524,145.249l-2.431,2.245c-1.967-1.484-4.058-2.74-6.271-3.767
		l2.394-2.394C675.813,142.584,677.916,143.889,679.524,145.249z M682.048,174.436c-4.193-1.324-7.985-3.148-11.374-5.474
		c-4.256,2.733-8.863,4.632-13.823,5.696l-1.707-3.006c4.886-0.915,9.153-2.548,12.803-4.898c-2.536-2.659-4.589-5.307-6.16-7.941
		c-2.486,5.047-5.653,9.896-9.5,14.547l-2.356-2.616c5.591-6.531,9.265-13.013,11.021-19.445h-10.187
		c1.175-2.474,2.368-5.758,3.581-9.853l3.303,0.649c-0.434,1.683-1.058,3.687-1.874,6.012h5.938c0.482-1.757,0.94-4.181,1.373-7.273
		l3.377,0.315c-0.371,2.536-0.804,4.855-1.299,6.958h18.091v3.191h-18.889c-0.285,1.163-0.637,2.362-1.058,3.6h16.903v3.154
		c-1.707,3.019-4.063,5.981-7.069,8.888c3.253,2.029,6.804,3.525,10.65,4.49L682.048,174.436z M687.54,79.395
		c0,0.742-0.21,1.401-0.631,1.976s-0.878,0.974-1.373,1.197s-1.262,0.334-2.301,0.334c-0.952,0-1.961-0.031-3.024-0.093
		l-1.076-3.266c0.643,0.05,1.961,0.074,3.952,0.074c0.223,0,0.47-0.114,0.742-0.343c0.272-0.229,0.408-0.455,0.408-0.677V58.947
		h-8.962v-3.154h8.962V49.67h3.303v6.123h9.426v3.154h-9.426v1.15c0.544,1.917,1.206,3.699,1.985,5.344
		c1.447-1.138,2.975-2.907,4.583-5.307l2.523,2.356c-2.004,2.647-3.909,4.633-5.715,5.956c1.349,3.117,3.531,6.03,6.55,8.739
		l-2.06,2.709c-3.6-3.191-6.222-7.273-7.867-12.246V79.395z M720.994,173.137h-32.953v-3.34h15.326v-8.294h-11.522v-3.34h11.522
		v-7.255h-8.517c-1.397,2.425-2.944,4.503-4.639,6.234l-2.579-2.468c3.451-3.538,5.764-7.886,6.939-13.044l3.396,0.798
		c-0.433,1.62-0.952,3.334-1.559,5.14h6.958v-6.661h3.488v6.661h13.638v3.34h-13.638v7.255h12.079v3.34h-12.079v8.294h14.139
		V173.137z M733.871,148.218v25.791h-3.451v-19.408c-1.076,1.447-2.004,2.647-2.783,3.6l-1.893-3.563
		c2.943-3.55,5.517-8.263,7.719-14.139l3.451,0.946c-0.384,1.102-0.983,2.523-1.8,4.268L733.871,148.218z M759.18,155.046h-9.908
		v19.037h-3.507v-19.037h-10.112v-3.451h10.112V140.87h3.507v10.725h9.908V155.046z M759.18,102.154h-18.462
		c-0.495,1.002-1.157,2.091-1.985,3.266h17.831v20.374c0,0.84-0.226,1.49-0.677,1.947c-0.452,0.458-1.136,0.699-2.051,0.725
		c-0.916,0.023-1.818,0.037-2.709,0.037c-1.423,0-2.592-0.02-3.507-0.057l-1.466-3.377c1.607,0.074,3.668,0.111,6.179,0.111
		c0.532,0,0.798-0.29,0.798-0.871v-3.488h-16.94c-0.644,2.684-1.961,5.238-3.952,7.662l-3.229-1.818
		c2.733-2.992,4.101-5.795,4.101-8.404v-6.105c-1.683,1.757-3.34,3.161-4.973,4.212l-2.431-2.58
		c4.539-3.067,8.201-6.945,10.984-11.634h-10.576v-3.303h12.357c0.804-1.422,1.385-2.678,1.744-3.767l3.507,0.575
		c-0.321,0.965-0.767,2.029-1.336,3.191h16.792V102.154z M781,141.835c-3.13,6.989-7.756,13.069-13.879,18.239l-2.616-2.561
		c5.888-4.428,10.267-10.025,13.137-16.792L781,141.835z M778.94,128.557v-23.063h3.525v23.063H778.94z M794.526,173.972
		c-0.718-1.386-1.596-2.944-2.635-4.676c-10.725,2.276-19.347,3.674-25.865,4.193l-0.946-2.895c3.179-1.818,6.29-4.326,9.333-7.524
		c3.043-3.197,6.834-8.352,11.374-15.465l3.08,1.781c-5.715,8.956-11.331,15.66-16.848,20.113c5.22-0.557,11.201-1.583,17.942-3.08
		c-1.806-2.598-3.253-4.527-4.342-5.789l3.006-1.707c3.921,4.936,6.871,9.32,8.851,13.155L794.526,173.972z M795.77,112.489
		c-6.321-3.229-11.313-7.434-14.974-12.617c-3.822,4.775-8.925,8.943-15.308,12.506l-1.818-2.932
		c7.434-3.946,12.889-8.758,16.365-14.436l3.154,1.188c-0.087,0.223-0.235,0.514-0.445,0.872c3.537,5.06,8.492,9.24,14.862,12.543
		L795.77,112.489z M811.133,128.52h-3.358v-16.68c-1.435,3.006-2.926,5.413-4.472,7.217l-1.596-3.34
		c2.301-2.807,4.249-6.172,5.845-10.093h-5.437v-3.247h5.659v-7.014h3.358v7.014h5.585v3.247h-5.585v0.946
		c2.598,2.808,4.546,5.288,5.845,7.44l-2.394,2.357c-1.113-2.079-2.264-3.891-3.451-5.437V128.52z M821.598,160.724
		c-0.854,0.829-1.844,1.243-2.969,1.243c-1.089,0-2.066-0.411-2.932-1.234c-0.866-0.822-1.299-1.852-1.299-3.089
		c0-1.175,0.418-2.167,1.252-2.978c0.836-0.811,1.84-1.216,3.016-1.216c1.162,0,2.155,0.415,2.979,1.243
		c0.822,0.829,1.233,1.813,1.233,2.95C822.878,158.868,822.451,159.895,821.598,160.724z M835.561,123.213
		c-0.105,1.35-0.195,2.236-0.27,2.663s-0.331,0.884-0.77,1.373c-0.439,0.488-0.975,0.801-1.605,0.937
		c-0.631,0.137-1.386,0.205-2.264,0.205c-1.707,0-2.793-0.328-3.256-0.984c-0.465-0.655-0.696-1.447-0.696-2.375V99.686h-5.418
		v14.788c0,5.604-1.546,10.416-4.639,14.436l-2.282-2.691c2.424-3.129,3.637-7.613,3.637-13.452V96.309h12.061v28.037
		c0,0.482,0.377,0.723,1.132,0.723c0.347,0,0.603-0.107,0.771-0.324c0.166-0.217,0.29-1.008,0.371-2.375
		c0.08-1.367,0.107-2.836,0.083-4.406l3.34,1.299C835.73,120.548,835.665,121.865,835.561,123.213z M872.233,116.553h-16.718
		c-2.326,3.179-4.837,5.955-7.533,8.33c4.676-0.234,9.982-0.729,15.92-1.484c-0.94-1.125-2.128-2.301-3.563-3.525l2.765-1.836
		c3.229,2.845,6.055,5.949,8.479,9.314l-2.932,1.744c-0.656-0.965-1.312-1.862-1.967-2.691c-9.426,1.052-17.306,1.732-23.639,2.041
		l-0.872-2.541c2.993-1.992,5.993-5.109,8.999-9.352h-10.261v-3.192h31.32V116.553z M847.871,110.244v-3.08h17.516v3.08H847.871z
		 M871.77,109.798c-6.692-3.154-11.721-6.525-15.085-10.112c-3.798,4.045-8.826,7.416-15.085,10.112l-1.818-2.857
		c6.865-2.721,12.376-6.698,16.532-11.931l3.006,1.521c-0.1,0.223-0.278,0.464-0.538,0.724c3.5,3.6,8.442,6.804,14.825,9.611
		L871.77,109.798z M897.598,115.123c-0.854,0.83-1.844,1.244-2.969,1.244c-1.089,0-2.066-0.412-2.932-1.234
		c-0.866-0.822-1.299-1.852-1.299-3.089c0-1.175,0.417-2.167,1.253-2.978c0.834-0.81,1.839-1.215,3.015-1.215
		c1.162,0,2.155,0.415,2.978,1.243c0.823,0.829,1.234,1.813,1.234,2.95C898.878,113.268,898.451,114.295,897.598,115.123z"/>
</g>
</svg>
