<?xml version="1.0" encoding="utf-8"?>
<!-- Generator: Adobe Illustrator 16.0.0, SVG Export Plug-In . SVG Version: 6.00 Build 0)  -->
<!DOCTYPE svg PUBLIC "-//W3C//DTD SVG 1.1//EN" "http://www.w3.org/Graphics/SVG/1.1/DTD/svg11.dtd">
<svg version="1.1" id="Layer_1" xmlns="http://www.w3.org/2000/svg" xmlns:xlink="http://www.w3.org/1999/xlink" x="0px" y="0px"
	 width="900px" height="230px" viewBox="0 0 900 230" enable-background="new 0 0 900 230" xml:space="preserve">
<text transform="matrix(1 0 0 1 13.002 323)" font-family="'HelveticaNeueLTPro-Blk'" font-size="40">Helvetica - 95Black - 40pt</text>
<path fill="#FFFFFF" d="M48.88,34.5h-8.559l-3.08-17.397h-0.08l-3,17.397h-8.599L17.805,5.945h8.638l3.479,17.637h0.08l3.439-17.637
	H41.2l3.359,17.877h0.08L48.2,5.945h8.679L48.88,34.5z M58.765,5.945h7.918v10.038h0.08c1.32-1.6,3.12-2.759,6.479-2.759
	c3.719,0,7.119,2.28,7.119,7.039V34.5h-7.918V23.622c0-2.4-0.28-4.08-2.6-4.08c-1.4,0-3.16,0.68-3.16,4V34.5h-7.918V5.945
	L58.765,5.945z M91.363,25.901c0.2,2.4,1.52,4.04,4.04,4.04c1.28,0,2.68-0.48,3.319-1.48h7.399c-1.6,4.479-5.999,6.559-10.678,6.559
	c-6.639,0-11.638-3.919-11.638-10.838c0-6.039,4.359-10.958,10.958-10.958c8.239,0,11.798,4.559,11.798,12.678L91.363,25.901
	L91.363,25.901z M98.961,21.782c0-1.92-1.439-3.479-3.479-3.479c-2.4,0-3.72,1.24-4.08,3.479H98.961z M109.884,13.744h7.639v2.639
	h0.08c1.479-2.08,3.56-3.159,6.759-3.159c3.719,0,7.119,2.28,7.119,7.039V34.5h-7.918V23.622c0-2.4-0.28-4.08-2.6-4.08
	c-1.4,0-3.16,0.68-3.16,4V34.5h-7.918L109.884,13.744L109.884,13.744z M158.682,13.744h4.239v4.879h-4.239v7.239
	c0,1.92,0.4,2.76,2.439,2.76c0.6,0,1.2-0.04,1.8-0.12V34.5c-1.6,0-3.359,0.24-5.079,0.24c-3.36,0-7.079-0.52-7.079-6.199v-9.918
	h-3.52v-4.879h3.52v-6.32h7.919V13.744L158.682,13.744z M165.444,5.945h7.918v10.038h0.08c1.32-1.6,3.12-2.759,6.479-2.759
	c3.719,0,7.119,2.28,7.119,7.039V34.5h-7.918V23.622c0-2.4-0.28-4.08-2.6-4.08c-1.4,0-3.16,0.68-3.16,4V34.5h-7.918V5.945z
	 M198.042,25.901c0.2,2.4,1.52,4.04,4.04,4.04c1.28,0,2.68-0.48,3.319-1.48h7.399c-1.6,4.479-5.999,6.559-10.678,6.559
	c-6.639,0-11.638-3.919-11.638-10.838c0-6.039,4.359-10.958,10.958-10.958c8.239,0,11.798,4.559,11.798,12.678L198.042,25.901
	L198.042,25.901z M205.641,21.782c0-1.92-1.439-3.479-3.479-3.479c-2.4,0-3.72,1.24-4.08,3.479H205.641z M240.361,35.02
	c-7.798,0-11.318-5.159-11.318-10.918c0-5.719,3.52-10.878,11.318-10.878c7.799,0,11.318,5.159,11.318,10.878
	C251.679,29.861,248.16,35.02,240.361,35.02z M240.361,18.982c-3.039,0-3.399,2.92-3.399,5.119c0,2.2,0.36,5.159,3.399,5.159
	c3.04,0,3.4-2.959,3.4-5.159C243.761,21.902,243.4,18.982,240.361,18.982z M255.123,13.744h7.639v2.279h0.08
	c0.96-1.28,2.24-2.799,6.079-2.799c5.879,0,8.718,5.759,8.718,10.998c0,4.919-1.879,10.798-8.838,10.798
	c-2.4,0-4.439-1.04-5.679-2.8h-0.08v8.999h-7.918L255.123,13.744L255.123,13.744z M266.241,29.261c2.839,0,3.479-2.679,3.479-5.119
	c0-2.439-0.64-5.159-3.479-5.159c-2.839,0-3.479,2.72-3.479,5.159C262.761,26.582,263.401,29.261,266.241,29.261z M281.042,13.744
	h7.639v2.279h0.08c0.96-1.28,2.24-2.799,6.079-2.799c5.879,0,8.718,5.759,8.718,10.998c0,4.919-1.879,10.798-8.838,10.798
	c-2.4,0-4.439-1.04-5.679-2.8h-0.08v8.999h-7.918L281.042,13.744L281.042,13.744z M292.161,29.261c2.839,0,3.479-2.679,3.479-5.119
	c0-2.439-0.64-5.159-3.479-5.159s-3.479,2.72-3.479,5.159C288.681,26.582,289.321,29.261,292.161,29.261z M317.4,35.02
	c-7.799,0-11.318-5.159-11.318-10.918c0-5.719,3.52-10.878,11.318-10.878s11.317,5.159,11.317,10.878
	C328.719,29.861,325.199,35.02,317.4,35.02z M317.4,18.982c-3.039,0-3.399,2.92-3.399,5.119c0,2.2,0.36,5.159,3.399,5.159
	c3.04,0,3.398-2.959,3.398-5.159C320.8,21.902,320.44,18.982,317.4,18.982z M332.162,13.744h7.599v3.319h0.08
	c1.28-2.52,2.959-3.839,5.839-3.839c0.761,0,1.521,0.12,2.32,0.32v6.999c-0.8-0.28-1.52-0.52-3.12-0.52
	c-3.159,0-4.799,1.8-4.799,6.279V34.5h-7.918L332.162,13.744L332.162,13.744z M359.44,13.744h4.238v4.879h-4.238v7.239
	c0,1.92,0.399,2.76,2.438,2.76c0.6,0,1.2-0.04,1.8-0.12V34.5c-1.6,0-3.358,0.24-5.079,0.24c-3.359,0-7.079-0.52-7.079-6.199v-9.918
	h-3.52v-4.879h3.52v-6.32h7.92V13.744L359.44,13.744z M387.797,34.5h-7.638v-2.64h-0.08c-1.48,2.08-3.561,3.16-6.76,3.16
	c-3.719,0-7.119-2.28-7.119-7.039V13.744h7.918v10.878c0,2.4,0.24,4.08,2.6,4.08c1.4,0,3.16-0.68,3.16-4V13.744h7.917V34.5H387.797z
	 M392.121,13.744h7.639v2.639h0.08c1.479-2.08,3.559-3.159,6.758-3.159c3.721,0,7.119,2.28,7.119,7.039V34.5h-7.918V23.622
	c0-2.4-0.279-4.08-2.6-4.08c-1.4,0-3.16,0.68-3.16,4V34.5h-7.918V13.744L392.121,13.744z M426.119,11.504h-7.918V5.945h7.918V11.504
	z M418.201,13.744h7.918V34.5h-7.918V13.744z M440.158,13.744h4.24v4.879h-4.24v7.239c0,1.92,0.4,2.76,2.439,2.76
	c0.6,0,1.199-0.04,1.801-0.12V34.5c-1.602,0-3.359,0.24-5.08,0.24c-3.359,0-7.078-0.52-7.078-6.199v-9.918h-3.521v-4.879h3.521
	v-6.32h7.918V13.744L440.158,13.744z M460.717,32.9c-0.639,1.879-1.359,4.199-2.6,5.759c-2.119,2.56-5.238,2.56-8.359,2.56h-3.598
	V34.9H448h1.279c0.439,0,0.84-0.08,1.121-0.2c0.479-0.28,0.76-0.64,0.76-1.56c0-0.96-3.041-8.639-3.48-9.838l-3.52-9.558h8.479
	l3.32,11.918h0.08l3.359-11.918h8.197L460.717,32.9z M490.598,11.504h-7.918V5.945h7.918V11.504z M482.68,13.744h7.918V34.5h-7.918
	V13.744z M495.119,13.744h7.639v2.639h0.08c1.48-2.08,3.561-3.159,6.76-3.159c3.719,0,7.117,2.28,7.117,7.039V34.5h-7.918V23.622
	c0-2.4-0.279-4.08-2.6-4.08c-1.4,0-3.16,0.68-3.16,4V34.5h-7.918V13.744z M534.479,5.945h12.518l4.08,16.797h0.08l4.08-16.797
	h12.518V34.5h-8.318V16.183h-0.08L554.396,34.5h-6.561l-4.959-18.317h-0.08V34.5h-8.318V5.945z M580.236,11.504h-7.918V5.945h7.918
	V11.504z M572.318,13.744h7.918V34.5h-7.918V13.744z M584.918,5.945h7.918V34.5h-7.918V5.945z M617.594,29.861
	c0,1.56,0.041,3.319,0.961,4.639h-8.08c-0.199-0.6-0.318-1.36-0.279-1.959h-0.08c-1.719,1.919-4.119,2.479-6.678,2.479
	c-4,0-7.318-1.92-7.318-6.279c0-6.599,7.719-6.279,11.717-7.079c1.08-0.2,2.16-0.52,2.16-1.84c0-1.399-1.32-1.919-2.6-1.919
	c-2.4,0-2.959,1.24-2.959,2.12h-7.359c0.199-5.879,5.799-6.799,10.678-6.799c9.918,0,9.84,4.119,9.84,8.119v8.518H617.594z
	 M609.996,25.182c-0.961,0.48-2.041,0.72-3.119,1c-1.76,0.439-2.68,0.84-2.68,2.239c0,0.96,1.039,1.92,2.479,1.92
	c1.801,0,3.199-1.04,3.32-3.24V25.182z M621.797,13.744h7.639v2.639h0.08c1.48-2.08,3.561-3.159,6.76-3.159
	c3.719,0,7.117,2.28,7.117,7.039V34.5h-7.918V23.622c0-2.4-0.279-4.08-2.6-4.08c-1.4,0-3.16,0.68-3.16,4V34.5h-7.918V13.744z
	 M661.076,13.744h7.639v2.279h0.08c0.961-1.28,2.24-2.799,6.08-2.799c5.879,0,8.719,5.759,8.719,10.998
	c0,4.919-1.881,10.798-8.84,10.798c-2.398,0-4.438-1.04-5.678-2.8h-0.08v8.999h-7.92V13.744L661.076,13.744z M672.195,29.261
	c2.84,0,3.479-2.679,3.479-5.119c0-2.439-0.641-5.159-3.479-5.159c-2.84,0-3.48,2.72-3.48,5.159
	C668.715,26.582,669.355,29.261,672.195,29.261z M686.996,13.744h7.6v3.319h0.08c1.279-2.52,2.959-3.839,5.838-3.839
	c0.762,0,1.521,0.12,2.32,0.32v6.999c-0.799-0.28-1.52-0.52-3.119-0.52c-3.16,0-4.799,1.8-4.799,6.279V34.5h-7.92V13.744
	L686.996,13.744z M710.715,25.901c0.201,2.4,1.521,4.04,4.039,4.04c1.281,0,2.68-0.48,3.32-1.48h7.396
	c-1.6,4.479-5.998,6.559-10.678,6.559c-6.639,0-11.639-3.919-11.639-10.838c0-6.039,4.359-10.958,10.959-10.958
	c8.238,0,11.799,4.559,11.799,12.678L710.715,25.901L710.715,25.901z M718.314,21.782c0-1.92-1.439-3.479-3.48-3.479
	c-2.398,0-3.719,1.24-4.078,3.479H718.314z M741.234,19.782c-0.041-0.68-0.4-1.2-0.92-1.56c-0.48-0.4-1.08-0.6-1.762-0.6
	c-1.119,0-2.398,0.28-2.398,1.6c0,0.6,0.479,0.88,0.92,1.08c1.281,0.52,4.318,0.76,6.959,1.6c2.68,0.84,4.959,2.399,4.959,5.799
	c0,5.759-5.52,7.319-10.559,7.319c-4.879,0-10.238-1.96-10.357-7.319h7.559c0.041,0.68,0.359,1.32,0.961,1.84
	c0.439,0.4,1.158,0.6,2.119,0.6c1.039,0,2.68-0.4,2.68-1.6s-0.68-1.56-4.359-2.2c-6.039-1-8.479-2.959-8.479-6.519
	c0-5.239,5.639-6.599,9.799-6.599c4.479,0,9.877,1.24,10.078,6.559H741.234L741.234,19.782z M758.875,25.901
	c0.199,2.4,1.52,4.04,4.039,4.04c1.279,0,2.68-0.48,3.318-1.48h7.398c-1.6,4.479-6,6.559-10.678,6.559
	c-6.641,0-11.639-3.919-11.639-10.838c0-6.039,4.359-10.958,10.957-10.958c8.238,0,11.799,4.559,11.799,12.678L758.875,25.901
	L758.875,25.901z M766.473,21.782c0-1.92-1.439-3.479-3.479-3.479c-2.4,0-3.721,1.24-4.08,3.479H766.473z M777.396,13.744h7.639
	v2.639h0.08c1.479-2.08,3.559-3.159,6.758-3.159c3.719,0,7.119,2.28,7.119,7.039V34.5h-7.918V23.622c0-2.4-0.281-4.08-2.602-4.08
	c-1.398,0-3.158,0.68-3.158,4V34.5h-7.918V13.744z M812.834,13.744h4.238v4.879h-4.238v7.239c0,1.92,0.398,2.76,2.439,2.76
	c0.6,0,1.199-0.04,1.799-0.12V34.5c-1.6,0-3.359,0.24-5.078,0.24c-3.359,0-7.08-0.52-7.08-6.199v-9.918h-3.52v-4.879h3.52v-6.32
	h7.92V13.744L812.834,13.744z M826.273,25.901c0.199,2.4,1.52,4.04,4.039,4.04c1.279,0,2.68-0.48,3.318-1.48h7.398
	c-1.6,4.479-5.998,6.559-10.678,6.559c-6.639,0-11.639-3.919-11.639-10.838c0-6.039,4.359-10.958,10.959-10.958
	c8.238,0,11.797,4.559,11.797,12.678L826.273,25.901L826.273,25.901z M833.873,21.782c0-1.92-1.441-3.479-3.48-3.479
	c-2.398,0-3.719,1.24-4.078,3.479H833.873z M866.391,34.5h-7.639v-2.28h-0.08c-0.961,1.28-2.24,2.8-6.08,2.8
	c-5.879,0-8.717-5.759-8.717-10.998c0-4.919,1.879-10.798,8.838-10.798c2.398,0,4.439,1.04,5.68,2.799h0.078V5.945h7.92V34.5z
	 M855.271,18.982c-2.84,0-3.479,2.68-3.479,5.119c0,2.44,0.641,5.159,3.479,5.159c2.84,0,3.479-2.719,3.479-5.159
	C858.752,21.662,858.111,18.982,855.271,18.982z M48.224,59.504h-7.918v-5.559h7.918V59.504z M40.306,61.744h7.918V82.5h-7.918
	V61.744z M62.264,61.744h4.239v4.879h-4.239v7.239c0,1.92,0.4,2.76,2.439,2.76c0.6,0,1.2-0.04,1.8-0.12V82.5
	c-1.6,0-3.359,0.24-5.079,0.24c-3.36,0-7.079-0.52-7.079-6.199v-9.918h-3.52v-4.879h3.52v-6.319h7.919V61.744z M81.023,67.782
	c-0.04-0.68-0.4-1.2-0.92-1.56c-0.48-0.4-1.08-0.6-1.76-0.6c-1.12,0-2.399,0.28-2.399,1.6c0,0.6,0.48,0.88,0.92,1.08
	c1.28,0.52,4.319,0.76,6.958,1.6c2.68,0.84,4.959,2.399,4.959,5.799c0,5.759-5.519,7.319-10.559,7.319
	c-4.879,0-10.238-1.96-10.358-7.319h7.559c0.04,0.68,0.36,1.32,0.96,1.84c0.44,0.4,1.16,0.6,2.12,0.6c1.04,0,2.679-0.4,2.679-1.6
	s-0.68-1.56-4.359-2.2c-6.039-1-8.479-2.959-8.479-6.519c0-5.239,5.639-6.599,9.798-6.599c4.479,0,9.878,1.24,10.078,6.559H81.023
	L81.023,67.782z M98.663,73.901c0.2,2.4,1.52,4.04,4.04,4.04c1.28,0,2.68-0.48,3.319-1.48h7.399
	c-1.6,4.479-5.999,6.559-10.678,6.559c-6.639,0-11.638-3.919-11.638-10.838c0-6.039,4.359-10.958,10.958-10.958
	c8.239,0,11.798,4.559,11.798,12.678L98.663,73.901L98.663,73.901z M106.262,69.782c0-1.92-1.439-3.479-3.479-3.479
	c-2.4,0-3.72,1.24-4.08,3.479H106.262z M117.344,53.945h7.918V82.5h-7.918V53.945z M131.104,66.623h-3.24v-4.879h3.24
	c-0.12-2.04,0.08-4.279,1.64-5.839c1.72-1.72,3.719-1.959,6.919-1.959c1.24,0,2.319,0.12,3.559,0.16v5.439
	c-0.64-0.12-1.28-0.28-1.919-0.28c-1.92,0-2.56,0.56-2.439,2.48h4.159v4.879h-4V82.5h-7.918L131.104,66.623L131.104,66.623z
	 M145.703,74.582h8.319V82.5h-8.319V74.582z M172.183,53.945h8.798V82.5h-8.798V53.945z M225.098,82.5h-8.119l-3-12.758h-0.08
	L210.821,82.5h-8.119l-6.479-20.756h8.239l3.079,12.838h0.08l2.64-12.838h7.399l2.759,12.838h0.16l2.879-12.838h8.239L225.098,82.5z
	 M253.779,77.861c0,1.56,0.04,3.319,0.959,4.639h-8.079c-0.2-0.6-0.32-1.36-0.28-1.959h-0.08c-1.72,1.919-4.119,2.479-6.679,2.479
	c-4,0-7.319-1.92-7.319-6.279c0-6.599,7.719-6.279,11.718-7.079c1.08-0.2,2.16-0.52,2.16-1.84c0-1.399-1.32-1.919-2.6-1.919
	c-2.399,0-2.959,1.24-2.959,2.12h-7.358c0.2-5.879,5.799-6.799,10.678-6.799c9.918,0,9.838,4.119,9.838,8.119L253.779,77.861
	L253.779,77.861z M246.18,73.182c-0.959,0.48-2.04,0.72-3.119,1c-1.76,0.439-2.68,0.84-2.68,2.239c0,0.96,1.04,1.92,2.479,1.92
	c1.8,0,3.2-1.04,3.319-3.24L246.18,73.182L246.18,73.182z M269.98,67.782c-0.04-0.68-0.4-1.2-0.92-1.56c-0.48-0.4-1.08-0.6-1.76-0.6
	c-1.12,0-2.399,0.28-2.399,1.6c0,0.6,0.48,0.88,0.92,1.08c1.28,0.52,4.319,0.76,6.958,1.6c2.68,0.84,4.959,2.399,4.959,5.799
	c0,5.759-5.519,7.319-10.559,7.319c-4.879,0-10.238-1.96-10.358-7.319h7.559c0.04,0.68,0.36,1.32,0.96,1.84
	c0.44,0.4,1.16,0.6,2.12,0.6c1.04,0,2.679-0.4,2.679-1.6s-0.68-1.56-4.359-2.2c-6.039-1-8.479-2.959-8.479-6.519
	c0-5.239,5.639-6.599,9.798-6.599c4.479,0,9.878,1.24,10.078,6.559H269.98L269.98,67.782z M306.3,67.782
	c-0.04-0.68-0.4-1.2-0.92-1.56c-0.48-0.4-1.08-0.6-1.76-0.6c-1.12,0-2.399,0.28-2.399,1.6c0,0.6,0.48,0.88,0.92,1.08
	c1.28,0.52,4.319,0.76,6.958,1.6c2.681,0.84,4.959,2.399,4.959,5.799c0,5.759-5.519,7.319-10.559,7.319
	c-4.879,0-10.238-1.96-10.358-7.319h7.559c0.04,0.68,0.36,1.32,0.96,1.84c0.44,0.4,1.16,0.6,2.12,0.6c1.04,0,2.679-0.4,2.679-1.6
	s-0.68-1.56-4.359-2.2c-6.039-1-8.479-2.959-8.479-6.519c0-5.239,5.639-6.599,9.798-6.599c4.479,0,9.878,1.24,10.078,6.559H306.3
	L306.3,67.782z M326.78,61.744h4.238v4.879h-4.238v7.239c0,1.92,0.399,2.76,2.438,2.76c0.601,0,1.2-0.04,1.8-0.12V82.5
	c-1.6,0-3.358,0.24-5.078,0.24c-3.36,0-7.079-0.52-7.079-6.199v-9.918h-3.521v-4.879h3.521v-6.319h7.919V61.744L326.78,61.744z
	 M341.62,59.504h-7.918v-5.559h7.918V59.504z M333.702,61.744h7.918V82.5h-7.918V61.744z M346.301,53.945h7.918V82.5h-7.918V53.945z
	 M358.901,53.945h7.917V82.5h-7.917V53.945z M395.137,83.02c-7.797,0-11.316-5.159-11.316-10.918
	c0-5.719,3.519-10.878,11.316-10.878c7.801,0,11.318,5.159,11.318,10.878C406.455,77.861,402.938,83.02,395.137,83.02z
	 M395.137,66.982c-3.039,0-3.398,2.92-3.398,5.119c0,2.2,0.359,5.159,3.398,5.159c3.041,0,3.4-2.959,3.4-5.159
	C398.537,69.902,398.176,66.982,395.137,66.982z M409.898,61.744h7.639v2.639h0.08c1.479-2.08,3.561-3.159,6.76-3.159
	c3.719,0,7.119,2.28,7.119,7.039V82.5h-7.918V71.622c0-2.4-0.281-4.08-2.602-4.08c-1.398,0-3.158,0.68-3.158,4V82.5H409.9V61.744
	H409.898z M435.979,53.945h7.918V82.5h-7.918V53.945z M462.217,80.9c-0.641,1.879-1.359,4.199-2.6,5.759
	c-2.119,2.56-5.24,2.56-8.359,2.56h-3.6V82.9h1.84h1.279c0.439,0,0.84-0.08,1.121-0.2c0.479-0.28,0.76-0.64,0.76-1.56
	c0-0.96-3.041-8.639-3.48-9.838l-3.52-9.558h8.479l3.318,11.918h0.08l3.359-11.918h8.199L462.217,80.9z M496.018,67.782
	c-0.041-0.68-0.4-1.2-0.92-1.56c-0.48-0.4-1.08-0.6-1.76-0.6c-1.121,0-2.4,0.28-2.4,1.6c0,0.6,0.48,0.88,0.92,1.08
	c1.279,0.52,4.318,0.76,6.959,1.6c2.68,0.84,4.959,2.399,4.959,5.799c0,5.759-5.52,7.319-10.559,7.319
	c-4.879,0-10.238-1.96-10.357-7.319h7.559c0.041,0.68,0.359,1.32,0.961,1.84c0.439,0.4,1.158,0.6,2.119,0.6
	c1.039,0,2.68-0.4,2.68-1.6s-0.68-1.56-4.357-2.2c-6.039-1-8.48-2.959-8.48-6.519c0-5.239,5.641-6.599,9.799-6.599
	c4.479,0,9.877,1.24,10.078,6.559H496.018L496.018,67.782z M515.057,59.504h-7.918v-5.559h7.918V59.504z M507.139,61.744h7.918V82.5
	h-7.918V61.744z M524.096,71.582l-6.518-9.838h8.719l2.279,4.119l2.318-4.119h8.479l-6.52,9.838l7.361,10.918h-8.719l-3.041-5.079
	l-2.918,5.079h-8.68L524.096,71.582z M551.336,61.744h4.24v4.879h-4.24v7.239c0,1.92,0.4,2.76,2.439,2.76
	c0.6,0,1.199-0.04,1.801-0.12V82.5c-1.602,0-3.359,0.24-5.08,0.24c-3.359,0-7.078-0.52-7.078-6.199v-9.918h-3.52v-4.879h3.52v-6.319
	h7.918V61.744L551.336,61.744z M564.775,73.901c0.199,2.4,1.521,4.04,4.041,4.04c1.277,0,2.68-0.48,3.316-1.48h7.4
	c-1.602,4.479-6,6.559-10.68,6.559c-6.639,0-11.639-3.919-11.639-10.838c0-6.039,4.359-10.958,10.959-10.958
	c8.238,0,11.799,4.559,11.799,12.678L564.775,73.901L564.775,73.901z M572.375,69.782c0-1.92-1.439-3.479-3.479-3.479
	c-2.4,0-3.723,1.24-4.08,3.479H572.375z M589.977,73.901c0.199,2.4,1.52,4.04,4.039,4.04c1.279,0,2.68-0.48,3.318-1.48h7.4
	c-1.602,4.479-6,6.559-10.68,6.559c-6.641,0-11.639-3.919-11.639-10.838c0-6.039,4.359-10.958,10.957-10.958
	c8.24,0,11.799,4.559,11.799,12.678L589.977,73.901L589.977,73.901z M597.574,69.782c0-1.92-1.439-3.479-3.48-3.479
	c-2.398,0-3.719,1.24-4.08,3.479H597.574z M608.496,61.744h7.639v2.639h0.08c1.48-2.08,3.561-3.159,6.76-3.159
	c3.719,0,7.119,2.28,7.119,7.039V82.5h-7.92V71.622c0-2.4-0.279-4.08-2.6-4.08c-1.398,0-3.158,0.68-3.158,4V82.5h-7.92V61.744z
	 M661.574,80.9c-0.641,1.879-1.359,4.199-2.602,5.759c-2.117,2.56-5.236,2.56-8.357,2.56h-3.6V82.9h1.84h1.279
	c0.439,0,0.842-0.08,1.119-0.2c0.48-0.28,0.76-0.64,0.76-1.56c0-0.96-3.037-8.639-3.479-9.838l-3.52-9.558h8.479l3.32,11.918h0.08
	l3.357-11.918h8.199L661.574,80.9z M676.695,73.901c0.199,2.4,1.52,4.04,4.039,4.04c1.279,0,2.68-0.48,3.318-1.48h7.398
	c-1.6,4.479-5.998,6.559-10.678,6.559c-6.641,0-11.639-3.919-11.639-10.838c0-6.039,4.359-10.958,10.957-10.958
	c8.24,0,11.799,4.559,11.799,12.678L676.695,73.901L676.695,73.901z M684.293,69.782c0-1.92-1.438-3.479-3.479-3.479
	c-2.398,0-3.719,1.24-4.078,3.479H684.293z M715.453,77.861c0,1.56,0.039,3.319,0.959,4.639h-8.078
	c-0.199-0.6-0.32-1.36-0.279-1.959h-0.08c-1.721,1.919-4.119,2.479-6.68,2.479c-4,0-7.318-1.92-7.318-6.279
	c0-6.599,7.719-6.279,11.719-7.079c1.08-0.2,2.158-0.52,2.158-1.84c0-1.399-1.318-1.919-2.6-1.919c-2.398,0-2.959,1.24-2.959,2.12
	h-7.357c0.199-5.879,5.799-6.799,10.678-6.799c9.918,0,9.838,4.119,9.838,8.119V77.861L715.453,77.861z M707.854,73.182
	c-0.959,0.48-2.039,0.72-3.119,1c-1.76,0.439-2.68,0.84-2.68,2.239c0,0.96,1.039,1.92,2.48,1.92c1.799,0,3.199-1.04,3.316-3.24
	v-1.919H707.854z M719.656,61.744h7.598v3.319h0.08c1.279-2.52,2.959-3.839,5.84-3.839c0.76,0,1.52,0.12,2.318,0.32v6.999
	c-0.799-0.28-1.521-0.52-3.119-0.52c-3.158,0-4.799,1.8-4.799,6.279V82.5h-7.918V61.744z M749.414,67.782
	c-0.041-0.68-0.4-1.2-0.92-1.56c-0.48-0.4-1.08-0.6-1.76-0.6c-1.121,0-2.4,0.28-2.4,1.6c0,0.6,0.48,0.88,0.92,1.08
	c1.279,0.52,4.318,0.76,6.959,1.6c2.68,0.84,4.959,2.399,4.959,5.799c0,5.759-5.52,7.319-10.559,7.319
	c-4.879,0-10.238-1.96-10.357-7.319h7.559c0.039,0.68,0.359,1.32,0.961,1.84c0.439,0.4,1.158,0.6,2.119,0.6
	c1.039,0,2.68-0.4,2.68-1.6s-0.682-1.56-4.359-2.2c-6.039-1-8.479-2.959-8.479-6.519c0-5.239,5.639-6.599,9.799-6.599
	c4.479,0,9.877,1.24,10.078,6.559H749.414L749.414,67.782z M784.172,83.02c-7.797,0-11.316-5.159-11.316-10.918
	c0-5.719,3.52-10.878,11.316-10.878c7.799,0,11.318,5.159,11.318,10.878C795.49,77.861,791.971,83.02,784.172,83.02z
	 M784.172,66.982c-3.039,0-3.398,2.92-3.398,5.119c0,2.2,0.359,5.159,3.398,5.159c3.041,0,3.4-2.959,3.4-5.159
	C787.572,69.902,787.213,66.982,784.172,66.982z M799.094,53.945h7.92V82.5h-7.92V53.945z M833.129,82.5h-7.639v-2.28h-0.08
	c-0.959,1.28-2.238,2.8-6.078,2.8c-5.879,0-8.719-5.759-8.719-10.998c0-4.919,1.879-10.798,8.838-10.798
	c2.398,0,4.439,1.04,5.68,2.799h0.08V53.945h7.918V82.5z M822.012,66.982c-2.84,0-3.479,2.68-3.479,5.119
	c0,2.44,0.641,5.159,3.479,5.159c2.84,0,3.479-2.719,3.479-5.159C825.49,69.662,824.852,66.982,822.012,66.982z M837.813,74.582
	h8.318V82.5h-8.318V74.582z M24.363,109.264h-7.999v-7.319H41.16v7.319h-7.999V130.5h-8.798V109.264z M44.285,101.945h7.918v10.038
	h0.08c1.32-1.6,3.12-2.759,6.479-2.759c3.719,0,7.119,2.28,7.119,7.04V130.5h-7.918v-10.878c0-2.399-0.28-4.08-2.6-4.08
	c-1.4,0-3.16,0.681-3.16,4V130.5h-7.918V101.945z M76.883,121.9c0.2,2.399,1.52,4.041,4.04,4.041c1.28,0,2.68-0.48,3.319-1.48h7.399
	c-1.6,4.479-5.999,6.559-10.678,6.559c-6.639,0-11.638-3.918-11.638-10.838c0-6.039,4.359-10.958,10.958-10.958
	c8.239,0,11.798,4.559,11.798,12.678H76.883V121.9z M84.481,117.782c0-1.921-1.439-3.479-3.479-3.479c-2.4,0-3.72,1.24-4.08,3.479
	H84.481z M109.202,128.9c-0.64,1.879-1.36,4.199-2.6,5.759c-2.12,2.56-5.239,2.56-8.359,2.56h-3.599V130.9h1.839h1.28
	c0.44,0,0.84-0.08,1.12-0.2c0.48-0.28,0.76-0.64,0.76-1.56c0-0.961-3.04-8.64-3.479-9.84l-3.52-9.558h8.479l3.319,11.918h0.08
	l3.359-11.918h8.198L109.202,128.9z M140.522,109.744h4.239v4.879h-4.239v7.238c0,1.921,0.4,2.761,2.439,2.761
	c0.6,0,1.2-0.04,1.8-0.12v5.998c-1.6,0-3.359,0.24-5.079,0.24c-3.36,0-7.079-0.52-7.079-6.199v-9.918h-3.52v-4.879h3.52v-6.319
	h7.919V109.744L140.522,109.744z M157.722,131.02c-7.798,0-11.318-5.158-11.318-10.918c0-5.719,3.52-10.877,11.318-10.877
	c7.799,0,11.318,5.159,11.318,10.877C169.04,125.861,165.521,131.02,157.722,131.02z M157.722,114.982
	c-3.039,0-3.399,2.92-3.399,5.12c0,2.198,0.36,5.158,3.399,5.158c3.04,0,3.399-2.96,3.399-5.158
	C161.121,117.902,160.761,114.982,157.722,114.982z M172.644,101.945h7.918V130.5h-7.918V101.945z M206.679,130.5h-7.639v-2.279
	h-0.08c-0.959,1.279-2.239,2.799-6.079,2.799c-5.879,0-8.719-5.759-8.719-10.998c0-4.918,1.88-10.797,8.838-10.797
	c2.4,0,4.439,1.04,5.679,2.799h0.08v-10.078h7.918V130.5H206.679z M195.561,114.982c-2.839,0-3.479,2.68-3.479,5.12
	c0,2.438,0.64,5.158,3.479,5.158c2.84,0,3.479-2.72,3.479-5.158C199.04,117.662,198.4,114.982,195.561,114.982z M224.323,109.744
	h7.639v2.759h0.08c1.6-2.399,3.919-3.279,6.799-3.279c2.24,0,4.639,1.16,5.599,3.239c0.32-0.2,1.919-3.239,7.079-3.239
	c5.319,0,7.119,3.679,7.119,7.04V130.5h-7.919v-11.238c0-1.959-0.2-3.719-2.6-3.719c-2.04,0-2.679,1.52-2.679,3.719V130.5h-7.919
	v-11.238c0-1.959-0.2-3.719-2.6-3.719c-2.04,0-2.68,1.52-2.68,3.719V130.5h-7.918L224.323,109.744L224.323,109.744z M269.561,121.9
	c0.2,2.399,1.52,4.041,4.04,4.041c1.28,0,2.68-0.48,3.319-1.48h7.399c-1.6,4.479-5.999,6.559-10.678,6.559
	c-6.639,0-11.638-3.918-11.638-10.838c0-6.039,4.359-10.958,10.958-10.958c8.239,0,11.798,4.559,11.798,12.678h-15.198V121.9z
	 M277.16,117.782c0-1.921-1.439-3.479-3.479-3.479c-2.4,0-3.72,1.24-4.08,3.479H277.16z M301.562,101.945h16.757
	c4.959,0,9.318,2.759,9.318,8.159c0,2.959-1.359,6.08-4.278,7.16c2.398,0.918,3.879,3.56,4.198,7.118
	c0.12,1.359,0.12,4.879,0.959,6.119h-8.798c-0.439-1.438-0.6-2.92-0.72-4.399c-0.2-2.72-0.48-5.56-3.959-5.56h-4.679v9.958h-8.798
	L301.562,101.945L301.562,101.945z M310.36,114.423h4.599c1.64,0,3.879-0.28,3.879-2.84c0-1.799-1-2.839-4.359-2.839h-4.118V114.423
	z M341.52,131.02c-7.798,0-11.317-5.158-11.317-10.918c0-5.719,3.52-10.877,11.317-10.877c7.8,0,11.318,5.159,11.318,10.877
	C352.838,125.861,349.319,131.02,341.52,131.02z M341.52,114.982c-3.038,0-3.398,2.92-3.398,5.12c0,2.198,0.36,5.158,3.398,5.158
	c3.04,0,3.4-2.96,3.4-5.158C344.92,117.902,344.56,114.982,341.52,114.982z M356.282,109.744h7.639v2.639H364
	c1.479-2.08,3.559-3.159,6.758-3.159c3.719,0,7.119,2.28,7.119,7.04V130.5h-7.918v-10.878c0-2.399-0.279-4.08-2.6-4.08
	c-1.4,0-3.16,0.681-3.16,4V130.5h-7.918V109.744L356.282,109.744z M402.438,125.861c0,1.559,0.039,3.318,0.961,4.639h-8.08
	c-0.199-0.6-0.32-1.359-0.279-1.959h-0.08c-1.721,1.919-4.119,2.479-6.68,2.479c-4,0-7.318-1.92-7.318-6.277
	c0-6.6,7.718-6.279,11.716-7.079c1.08-0.2,2.16-0.521,2.16-1.84c0-1.399-1.32-1.919-2.6-1.919c-2.398,0-2.959,1.24-2.959,2.12
	h-7.357c0.199-5.878,5.798-6.798,10.677-6.798c9.918,0,9.838,4.119,9.838,8.119V125.861z M394.838,121.182
	c-0.959,0.48-2.039,0.721-3.119,1c-1.76,0.439-2.68,0.84-2.68,2.239c0,0.96,1.041,1.92,2.479,1.92c1.801,0,3.201-1.04,3.32-3.239
	V121.182L394.838,121.182z M406.801,101.945h7.918V130.5h-7.918V101.945z M440.836,130.5h-7.639v-2.279h-0.08
	c-0.959,1.279-2.238,2.799-6.078,2.799c-5.879,0-8.719-5.759-8.719-10.998c0-4.918,1.879-10.797,8.838-10.797
	c2.398,0,4.438,1.04,5.678,2.799h0.08v-10.078h7.918V130.5H440.836z M429.719,114.982c-2.84,0-3.479,2.68-3.479,5.12
	c0,2.438,0.639,5.158,3.479,5.158s3.479-2.72,3.479-5.158C433.197,117.662,432.559,114.982,429.719,114.982z M455.598,131.02
	c-7.799,0-11.316-5.158-11.316-10.918c0-5.719,3.52-10.877,11.316-10.877c7.799,0,11.318,5.159,11.318,10.877
	C466.916,125.861,463.396,131.02,455.598,131.02z M455.598,114.982c-3.039,0-3.398,2.92-3.398,5.12c0,2.198,0.359,5.158,3.398,5.158
	s3.4-2.96,3.4-5.158C458.998,117.902,458.637,114.982,455.598,114.982z M510.074,130.5h-8.117l-3-12.758h-0.08l-3.08,12.758h-8.117
	l-6.479-20.756h8.238l3.078,12.838h0.08l2.641-12.838h7.398l2.76,12.838h0.16l2.879-12.838h8.238L510.074,130.5z M538.756,125.861
	c0,1.559,0.039,3.318,0.959,4.639h-8.078c-0.199-0.6-0.318-1.359-0.279-1.959h-0.08c-1.721,1.919-4.119,2.479-6.68,2.479
	c-3.998,0-7.318-1.92-7.318-6.277c0-6.6,7.719-6.279,11.719-7.079c1.08-0.2,2.16-0.521,2.16-1.84c0-1.399-1.32-1.919-2.602-1.919
	c-2.398,0-2.959,1.24-2.959,2.12h-7.357c0.199-5.878,5.799-6.798,10.678-6.798c9.918,0,9.838,4.119,9.838,8.119V125.861
	L538.756,125.861z M531.156,121.182c-0.959,0.48-2.039,0.721-3.119,1c-1.76,0.439-2.68,0.84-2.68,2.239
	c0,0.96,1.041,1.92,2.479,1.92c1.801,0,3.199-1.04,3.32-3.239V121.182L531.156,121.182z M554.957,115.782
	c-0.039-0.68-0.4-1.2-0.92-1.56c-0.48-0.4-1.08-0.6-1.76-0.6c-1.119,0-2.398,0.28-2.398,1.6c0,0.6,0.479,0.879,0.92,1.08
	c1.279,0.521,4.318,0.761,6.957,1.601c2.68,0.84,4.961,2.398,4.961,5.799c0,5.759-5.52,7.318-10.559,7.318
	c-4.879,0-10.238-1.959-10.359-7.318h7.561c0.039,0.68,0.359,1.32,0.959,1.84c0.439,0.4,1.16,0.6,2.119,0.6
	c1.041,0,2.68-0.399,2.68-1.6s-0.68-1.561-4.359-2.199c-6.039-1-8.479-2.96-8.479-6.52c0-5.239,5.639-6.599,9.799-6.599
	c4.479,0,9.879,1.24,10.078,6.559H554.957z M589.717,131.02c-7.799,0-11.318-5.158-11.318-10.918c0-5.719,3.52-10.877,11.318-10.877
	c7.797,0,11.318,5.159,11.318,10.877C601.035,125.861,597.516,131.02,589.717,131.02z M589.717,114.982
	c-3.039,0-3.398,2.92-3.398,5.12c0,2.198,0.359,5.158,3.398,5.158s3.398-2.96,3.398-5.158
	C593.115,117.902,592.756,114.982,589.717,114.982z M604.479,109.744h7.639v2.639h0.08c1.479-2.08,3.561-3.159,6.76-3.159
	c3.719,0,7.117,2.28,7.117,7.04V130.5h-7.918v-10.878c0-2.399-0.279-4.08-2.6-4.08c-1.4,0-3.16,0.681-3.16,4V130.5h-7.918V109.744
	L604.479,109.744z M643.838,101.945h12.518l4.08,16.797h0.08l4.078-16.797h12.52V130.5h-8.318v-18.317h-0.08l-4.961,18.317h-6.559
	l-4.959-18.317h-0.08V130.5h-8.318V101.945z M689.596,107.504h-7.918v-5.559h7.918V107.504z M681.678,109.744h7.918V130.5h-7.918
	V109.744z M694.277,101.945h7.918V130.5h-7.918V101.945z M726.953,125.861c0,1.559,0.039,3.318,0.959,4.639h-8.078
	c-0.199-0.6-0.32-1.359-0.279-1.959h-0.08c-1.721,1.919-4.119,2.479-6.68,2.479c-3.998,0-7.318-1.92-7.318-6.277
	c0-6.6,7.719-6.279,11.719-7.079c1.08-0.2,2.16-0.521,2.16-1.84c0-1.399-1.32-1.919-2.602-1.919c-2.398,0-2.959,1.24-2.959,2.12
	h-7.357c0.199-5.878,5.799-6.798,10.678-6.798c9.918,0,9.838,4.119,9.838,8.119V125.861L726.953,125.861z M719.354,121.182
	c-0.961,0.48-2.039,0.721-3.119,1c-1.76,0.439-2.68,0.84-2.68,2.239c0,0.96,1.039,1.92,2.479,1.92c1.801,0,3.199-1.04,3.318-3.239
	v-1.92H719.354z M731.156,109.744h7.639v2.639h0.08c1.479-2.08,3.559-3.159,6.758-3.159c3.721,0,7.119,2.28,7.119,7.04V130.5h-7.918
	v-10.878c0-2.399-0.279-4.08-2.6-4.08c-1.4,0-3.16,0.681-3.16,4V130.5h-7.918V109.744L731.156,109.744z M790.672,125.861
	c0,1.559,0.041,3.318,0.961,4.639h-8.08c-0.199-0.6-0.318-1.359-0.279-1.959h-0.08c-1.719,1.919-4.119,2.479-6.678,2.479
	c-4,0-7.318-1.92-7.318-6.277c0-6.6,7.719-6.279,11.717-7.079c1.08-0.2,2.16-0.521,2.16-1.84c0-1.399-1.32-1.919-2.6-1.919
	c-2.4,0-2.961,1.24-2.961,2.12h-7.357c0.199-5.878,5.799-6.798,10.678-6.798c9.918,0,9.84,4.119,9.84,8.119v8.518H790.672z
	 M783.074,121.182c-0.961,0.48-2.041,0.721-3.119,1c-1.76,0.439-2.68,0.84-2.68,2.239c0,0.96,1.039,1.92,2.479,1.92
	c1.801,0,3.199-1.04,3.32-3.239V121.182z M794.875,109.744h7.639v2.639h0.08c1.48-2.08,3.561-3.159,6.76-3.159
	c3.721,0,7.119,2.28,7.119,7.04V130.5h-7.92v-10.878c0-2.399-0.279-4.08-2.6-4.08c-1.398,0-3.158,0.681-3.158,4V130.5h-7.92V109.744
	z M842.391,130.5h-7.639v-2.279h-0.08c-0.959,1.279-2.238,2.799-6.078,2.799c-5.879,0-8.719-5.759-8.719-10.998
	c0-4.918,1.879-10.797,8.838-10.797c2.4,0,4.439,1.04,5.682,2.799h0.078v-10.078h7.918V130.5z M831.273,114.982
	c-2.84,0-3.48,2.68-3.48,5.12c0,2.438,0.641,5.158,3.48,5.158s3.479-2.72,3.479-5.158
	C834.752,117.662,834.113,114.982,831.273,114.982z M860.195,101.945h8.799V130.5h-8.799V101.945z M88.601,173.861
	c0,1.559,0.04,3.318,0.96,4.639h-8.079c-0.2-0.6-0.32-1.359-0.28-1.959h-0.08c-1.72,1.919-4.119,2.479-6.679,2.479
	c-4,0-7.319-1.92-7.319-6.277c0-6.6,7.719-6.279,11.718-7.079c1.08-0.199,2.16-0.521,2.16-1.84c0-1.399-1.32-1.921-2.6-1.921
	c-2.399,0-2.959,1.24-2.959,2.121h-7.358c0.2-5.879,5.799-6.799,10.678-6.799c9.918,0,9.838,4.118,9.838,8.117V173.861z
	 M81.002,169.182c-0.959,0.48-2.04,0.721-3.119,1c-1.76,0.439-2.68,0.84-2.68,2.239c0,0.96,1.04,1.92,2.479,1.92
	c1.8,0,3.2-1.04,3.319-3.239L81.002,169.182L81.002,169.182z M104.802,163.782c-0.04-0.681-0.4-1.2-0.92-1.56
	c-0.48-0.4-1.08-0.601-1.76-0.601c-1.12,0-2.399,0.278-2.399,1.601c0,0.6,0.48,0.879,0.92,1.079c1.28,0.521,4.319,0.761,6.958,1.601
	c2.68,0.84,4.959,2.398,4.959,5.799c0,5.759-5.519,7.318-10.559,7.318c-4.879,0-10.238-1.959-10.358-7.318h7.559
	c0.04,0.68,0.36,1.32,0.96,1.84c0.44,0.4,1.16,0.6,2.12,0.6c1.04,0,2.679-0.399,2.679-1.6s-0.68-1.561-4.359-2.199
	c-6.039-1-8.479-2.96-8.479-6.52c0-5.238,5.639-6.6,9.798-6.6c4.479,0,9.878,1.239,10.078,6.56H104.802z M115.924,149.945h7.918
	v13.797l5.039-5.998h8.958l-7.398,7.838L139,178.5h-9.518l-4.239-7.52l-1.4,1.521v5.999h-7.918L115.924,149.945L115.924,149.945z
	 M146.882,169.9c0.2,2.399,1.52,4.041,4.04,4.041c1.28,0,2.68-0.48,3.319-1.48h7.399c-1.6,4.479-5.999,6.559-10.678,6.559
	c-6.639,0-11.638-3.918-11.638-10.838c0-6.039,4.359-10.957,10.958-10.957c8.239,0,11.798,4.56,11.798,12.678h-15.198V169.9z
	 M154.48,165.782c0-1.921-1.439-3.479-3.479-3.479c-2.4,0-3.72,1.24-4.08,3.479H154.48z M186.999,178.5h-7.639v-2.279h-0.08
	c-0.959,1.279-2.239,2.799-6.079,2.799c-5.879,0-8.719-5.759-8.719-10.998c0-4.918,1.88-10.797,8.838-10.797
	c2.4,0,4.439,1.039,5.679,2.799h0.08v-10.078h7.918V178.5H186.999z M175.881,162.982c-2.839,0-3.479,2.68-3.479,5.119
	c0,2.438,0.64,5.158,3.479,5.158c2.84,0,3.479-2.72,3.479-5.158C179.36,165.662,178.721,162.982,175.881,162.982z M212.761,155.504
	h-7.918v-5.559h7.918V155.504z M204.843,157.744h7.918V178.5h-7.918V157.744z M218.602,162.623h-3.24v-4.879h3.24
	c-0.12-2.041,0.08-4.279,1.64-5.84c1.72-1.721,3.719-1.959,6.919-1.959c1.24,0,2.319,0.119,3.559,0.16v5.438
	c-0.64-0.12-1.28-0.279-1.919-0.279c-1.92,0-2.56,0.561-2.439,2.479h4.159v4.879h-4V178.5h-7.918L218.602,162.623L218.602,162.623z
	 M254.28,155.504h-7.918v-5.559h7.918V155.504z M246.362,157.744h7.918V178.5h-7.918V157.744z M268.32,157.744h4.239v4.879h-4.239
	v7.238c0,1.92,0.4,2.76,2.439,2.76c0.6,0,1.2-0.04,1.8-0.12v5.999c-1.6,0-3.359,0.24-5.079,0.24c-3.36,0-7.079-0.52-7.079-6.199
	v-9.918h-3.52v-4.879h3.52v-6.32h7.919V157.744L268.32,157.744z M314.796,178.5h-8.119l-3-12.758h-0.08l-3.078,12.758H292.4
	l-6.479-20.756h8.239l3.079,12.838h0.08l2.64-12.838h7.399l2.759,12.838h0.16l2.879-12.838h8.238L314.796,178.5z M343.478,173.861
	c0,1.559,0.04,3.318,0.96,4.639h-8.079c-0.2-0.6-0.32-1.359-0.28-1.959h-0.08c-1.72,1.919-4.119,2.479-6.679,2.479
	c-4,0-7.319-1.92-7.319-6.277c0-6.6,7.719-6.279,11.718-7.079c1.08-0.199,2.16-0.521,2.16-1.84c0-1.399-1.32-1.921-2.6-1.921
	c-2.399,0-2.959,1.24-2.959,2.121h-7.358c0.2-5.879,5.799-6.799,10.678-6.799c9.918,0,9.838,4.118,9.838,8.117L343.478,173.861
	L343.478,173.861z M335.878,169.182c-0.959,0.48-2.04,0.721-3.119,1c-1.76,0.439-2.68,0.84-2.68,2.239c0,0.96,1.04,1.92,2.479,1.92
	c1.801,0,3.2-1.04,3.319-3.239L335.878,169.182L335.878,169.182z M359.679,163.782c-0.04-0.681-0.399-1.2-0.92-1.56
	c-0.479-0.4-1.08-0.601-1.76-0.601c-1.12,0-2.399,0.278-2.399,1.601c0,0.6,0.48,0.879,0.92,1.079
	c1.28,0.521,4.319,0.761,6.958,1.601c2.681,0.84,4.96,2.398,4.96,5.799c0,5.759-5.52,7.318-10.56,7.318
	c-4.879,0-10.238-1.959-10.358-7.318h7.56c0.04,0.68,0.36,1.32,0.96,1.84c0.439,0.4,1.16,0.6,2.12,0.6c1.04,0,2.679-0.399,2.679-1.6
	s-0.68-1.561-4.359-2.199c-6.038-1-8.479-2.96-8.479-6.52c0-5.238,5.639-6.6,9.798-6.6c4.479,0,9.878,1.239,10.078,6.56H359.679z
	 M393.518,157.744h4.24v4.879h-4.24v7.238c0,1.92,0.4,2.76,2.439,2.76c0.6,0,1.201-0.04,1.801-0.12v5.999
	c-1.6,0-3.359,0.24-5.08,0.24c-3.359,0-7.078-0.52-7.078-6.199v-9.918h-3.519v-4.879h3.519v-6.32h7.918V157.744L393.518,157.744z
	 M400.279,149.945h7.918v10.037h0.08c1.32-1.601,3.121-2.76,6.479-2.76c3.719,0,7.119,2.28,7.119,7.038V178.5h-7.918v-10.878
	c0-2.399-0.279-4.079-2.6-4.079c-1.4,0-3.16,0.68-3.16,3.999V178.5h-7.918V149.945L400.279,149.945z M432.877,169.9
	c0.201,2.399,1.521,4.041,4.041,4.041c1.279,0,2.68-0.48,3.318-1.48h7.398c-1.6,4.479-5.998,6.559-10.678,6.559
	c-6.639,0-11.637-3.918-11.637-10.838c0-6.039,4.357-10.957,10.957-10.957c8.238,0,11.799,4.56,11.799,12.678h-15.199V169.9z
	 M440.477,165.782c0-1.921-1.439-3.479-3.479-3.479c-2.4,0-3.721,1.24-4.08,3.479H440.477z M476.758,163.782
	c-0.041-0.681-0.4-1.2-0.92-1.56c-0.48-0.4-1.08-0.601-1.76-0.601c-1.121,0-2.4,0.278-2.4,1.601c0,0.6,0.48,0.879,0.92,1.079
	c1.279,0.521,4.318,0.761,6.959,1.601c2.68,0.84,4.959,2.398,4.959,5.799c0,5.759-5.52,7.318-10.559,7.318
	c-4.879,0-10.238-1.959-10.357-7.318h7.559c0.041,0.68,0.359,1.32,0.961,1.84c0.439,0.4,1.158,0.6,2.119,0.6
	c1.039,0,2.68-0.399,2.68-1.6s-0.68-1.561-4.359-2.199c-6.037-1-8.479-2.96-8.479-6.52c0-5.238,5.639-6.6,9.799-6.6
	c4.479,0,9.877,1.239,10.078,6.56H476.758z M507.955,173.861c0,1.559,0.041,3.318,0.961,4.639h-8.08
	c-0.199-0.6-0.318-1.359-0.279-1.959h-0.08c-1.719,1.919-4.119,2.479-6.678,2.479c-4,0-7.318-1.92-7.318-6.277
	c0-6.6,7.719-6.279,11.717-7.079c1.08-0.199,2.16-0.521,2.16-1.84c0-1.399-1.32-1.921-2.6-1.921c-2.4,0-2.961,1.24-2.961,2.121
	h-7.357c0.199-5.879,5.799-6.799,10.678-6.799c9.918,0,9.84,4.118,9.84,8.117v8.52H507.955z M500.357,169.182
	c-0.961,0.48-2.041,0.721-3.119,1c-1.762,0.439-2.682,0.84-2.682,2.239c0,0.96,1.039,1.92,2.48,1.92c1.801,0,3.199-1.04,3.32-3.239
	V169.182L500.357,169.182z M512.119,157.744h7.639v2.759h0.08c1.6-2.399,3.918-3.278,6.799-3.278c2.238,0,4.639,1.158,5.6,3.238
	c0.318-0.199,1.918-3.238,7.078-3.238c5.318,0,7.119,3.678,7.119,7.037V178.5h-7.92v-11.238c0-1.959-0.199-3.719-2.6-3.719
	c-2.039,0-2.68,1.52-2.68,3.719V178.5h-7.918v-11.238c0-1.959-0.199-3.719-2.602-3.719c-2.039,0-2.68,1.52-2.68,3.719V178.5h-7.918
	v-20.756H512.119z M557.357,169.9c0.199,2.399,1.52,4.041,4.039,4.041c1.279,0,2.68-0.48,3.318-1.48h7.398
	c-1.6,4.479-5.998,6.559-10.678,6.559c-6.641,0-11.639-3.918-11.639-10.838c0-6.039,4.359-10.957,10.957-10.957
	c8.24,0,11.799,4.56,11.799,12.678h-15.195V169.9z M564.955,165.782c0-1.921-1.439-3.479-3.479-3.479
	c-2.398,0-3.719,1.24-4.078,3.479H564.955z M589.357,149.945h16.758c4.959,0,9.316,2.759,9.316,8.158
	c0,2.959-1.357,6.078-4.277,7.158c2.398,0.92,3.879,3.561,4.197,7.118c0.121,1.359,0.121,4.879,0.961,6.119h-8.799
	c-0.439-1.438-0.6-2.92-0.721-4.399c-0.199-2.72-0.479-5.56-3.959-5.56h-4.68v9.96h-8.797V149.945L589.357,149.945z
	 M598.156,162.423h4.6c1.641,0,3.879-0.28,3.879-2.84c0-1.8-1-2.839-4.359-2.839h-4.119V162.423L598.156,162.423z M629.316,179.02
	c-7.801,0-11.318-5.158-11.318-10.918c0-5.719,3.52-10.877,11.318-10.877c7.797,0,11.316,5.158,11.316,10.877
	C640.635,173.861,637.115,179.02,629.316,179.02z M629.316,162.982c-3.039,0-3.4,2.92-3.4,5.119c0,2.198,0.361,5.158,3.4,5.158
	s3.398-2.96,3.398-5.158C632.715,165.902,632.355,162.982,629.316,162.982z M644.078,157.744h7.639v2.639h0.08
	c1.479-2.08,3.559-3.158,6.758-3.158c3.721,0,7.119,2.279,7.119,7.037V178.5h-7.918v-10.878c0-2.399-0.281-4.079-2.6-4.079
	c-1.4,0-3.16,0.68-3.16,3.999V178.5h-7.918V157.744z M690.234,173.861c0,1.559,0.039,3.318,0.959,4.639h-8.078
	c-0.199-0.6-0.32-1.359-0.279-1.959h-0.08c-1.721,1.919-4.119,2.479-6.68,2.479c-4,0-7.318-1.92-7.318-6.277
	c0-6.6,7.719-6.279,11.717-7.079c1.08-0.199,2.16-0.521,2.16-1.84c0-1.399-1.318-1.921-2.6-1.921c-2.398,0-2.959,1.24-2.959,2.121
	h-7.359c0.201-5.879,5.801-6.799,10.68-6.799c9.918,0,9.838,4.118,9.838,8.117V173.861L690.234,173.861z M682.635,169.182
	c-0.959,0.48-2.039,0.721-3.119,1c-1.76,0.439-2.68,0.84-2.68,2.239c0,0.96,1.039,1.92,2.48,1.92c1.799,0,3.197-1.04,3.316-3.239
	v-1.92H682.635z M694.598,149.945h7.918V178.5h-7.918V149.945z M728.633,178.5h-7.639v-2.279h-0.08
	c-0.959,1.279-2.24,2.799-6.078,2.799c-5.881,0-8.719-5.759-8.719-10.998c0-4.918,1.879-10.797,8.838-10.797
	c2.4,0,4.439,1.039,5.68,2.799h0.08v-10.078h7.918V178.5L728.633,178.5z M717.514,162.982c-2.838,0-3.479,2.68-3.479,5.119
	c0,2.438,0.641,5.158,3.479,5.158c2.842,0,3.48-2.72,3.48-5.158C720.994,165.662,720.354,162.982,717.514,162.982z M743.395,179.02
	c-7.799,0-11.318-5.158-11.318-10.918c0-5.719,3.52-10.877,11.318-10.877s11.318,5.158,11.318,10.877
	C754.713,173.861,751.193,179.02,743.395,179.02z M743.395,162.982c-3.039,0-3.398,2.92-3.398,5.119
	c0,2.198,0.359,5.158,3.398,5.158s3.398-2.96,3.398-5.158C746.793,165.902,746.434,162.982,743.395,162.982z M771.637,149.945h8.797
	V178.5h-8.797V149.945z M792.273,156.504c0,4.239-0.998,7.639-7.357,8.598v-3.479c2.398-0.28,3.238-1.68,3.279-3.76h-3.279v-7.918
	h7.357V156.504z M818.271,178.5h-7.641v-2.279h-0.08c-0.959,1.279-2.238,2.799-6.078,2.799c-5.879,0-8.719-5.759-8.719-10.998
	c0-4.918,1.879-10.797,8.838-10.797c2.4,0,4.439,1.039,5.682,2.799h0.078v-10.078h7.92V178.5z M807.152,162.982
	c-2.838,0-3.479,2.68-3.479,5.119c0,2.438,0.641,5.158,3.479,5.158c2.84,0,3.479-2.72,3.479-5.158
	C810.631,165.662,809.992,162.982,807.152,162.982z M345.756,226.5h-8.119l-3-12.758h-0.08l-3.078,12.758h-8.118l-6.479-20.756
	h8.239l3.079,12.838h0.08l2.64-12.838h7.399l2.759,12.838h0.16l2.879-12.838h8.239L345.756,226.5z M374.438,221.861
	c0,1.559,0.039,3.318,0.959,4.639h-8.078c-0.201-0.6-0.32-1.359-0.281-1.959h-0.08c-1.719,1.919-4.119,2.479-6.678,2.479
	c-4,0-7.319-1.92-7.319-6.277c0-6.6,7.719-6.279,11.718-7.079c1.08-0.199,2.161-0.521,2.161-1.84c0-1.399-1.321-1.921-2.6-1.921
	c-2.399,0-2.959,1.24-2.959,2.121h-7.358c0.2-5.879,5.799-6.799,10.678-6.799c9.917,0,9.839,4.118,9.839,8.117V221.861z
	 M366.838,217.182c-0.959,0.48-2.041,0.721-3.12,1c-1.76,0.439-2.68,0.84-2.68,2.239c0,0.96,1.04,1.92,2.479,1.92
	c1.801,0,3.2-1.04,3.319-3.239v-1.92H366.838z M388.158,205.744h4.24v4.879h-4.24v7.238c0,1.92,0.4,2.76,2.439,2.76
	c0.6,0,1.199-0.04,1.801-0.12v5.999c-1.602,0-3.359,0.24-5.08,0.24c-3.359,0-7.078-0.52-7.078-6.199v-9.918h-3.521v-4.879h3.521
	v-6.32h7.917V205.744L388.158,205.744z M408.318,213.622c-0.08-0.88-0.361-1.521-0.881-1.96s-1.16-0.68-2-0.68
	c-3.039,0-3.479,2.64-3.479,5.158c0,2.561,0.439,5.119,3.479,5.119c1.721,0,2.92-1.398,3.08-3.039h7.559
	c-0.76,5.639-5.199,8.799-10.797,8.799c-6.24,0-11.238-4.318-11.238-10.879c0-6.559,4.998-10.918,11.238-10.918
	c5.479,0,10.037,2.641,10.557,8.398L408.318,213.622L408.318,213.622z M419.359,197.945h7.918v10.037h0.08
	c1.318-1.601,3.119-2.76,6.479-2.76c3.719,0,7.119,2.28,7.119,7.039V226.5h-7.918v-10.878c0-2.399-0.281-4.079-2.602-4.079
	c-1.398,0-3.158,0.68-3.158,3.999V226.5h-7.918V197.945L419.359,197.945z M469.076,227.02c-7.797,0-11.316-5.158-11.316-10.918
	c0-5.719,3.52-10.877,11.316-10.877c7.799,0,11.318,5.158,11.318,10.877C480.396,221.861,476.875,227.02,469.076,227.02z
	 M469.076,210.982c-3.039,0-3.398,2.92-3.398,5.119c0,2.198,0.359,5.158,3.398,5.158c3.041,0,3.398-2.96,3.398-5.158
	C472.475,213.902,472.117,210.982,469.076,210.982z M483.838,205.744h7.639v2.639h0.08c1.48-2.08,3.561-3.158,6.76-3.158
	c3.719,0,7.119,2.279,7.119,7.037V226.5h-7.92v-10.878c0-2.399-0.279-4.079-2.6-4.079c-1.398,0-3.158,0.68-3.158,3.999V226.5h-7.92
	V205.744L483.838,205.744z M529.918,205.264h-8v-7.318h24.797v7.318h-8V226.5h-8.797V205.264z M565.355,226.5h-9.84l-8.518-28.555
	h8.877l4.68,17.316h0.08l4.602-17.316h9.037L565.355,226.5z M571.918,218.582h8.318v7.918h-8.318V218.582L571.918,218.582z M908-3.5
	H-5v243h913V-3.5z"/>
<rect x="142.833" y="72.333" fill="#FFFFFF" width="17.333" height="13.333"/>
</svg>
