<?xml version="1.0" encoding="utf-8"?>
<!-- Generator: Adobe Illustrator 16.0.0, SVG Export Plug-In . SVG Version: 6.00 Build 0)  -->
<!DOCTYPE svg PUBLIC "-//W3C//DTD SVG 1.1//EN" "http://www.w3.org/Graphics/SVG/1.1/DTD/svg11.dtd">
<svg version="1.1" id="Layer_1" xmlns="http://www.w3.org/2000/svg" xmlns:xlink="http://www.w3.org/1999/xlink" x="0px" y="0px"
	 width="900px" height="140px" viewBox="0 0 900 140" enable-background="new 0 0 900 140" xml:space="preserve">
<text transform="matrix(1 0 0 1 13.0024 278)" font-family="'HelveticaNeueLTPro-Blk'" font-size="40">Helvetica - 95Black - 40pt</text>
<path fill="#FFFFFF" d="M64.34,35h-8.559l-3.08-17.397h-0.08l-3,17.397h-8.599L33.265,6.445h8.638l3.479,17.637h0.08l3.439-17.637
	h7.759l3.359,17.877h0.08L63.66,6.445h8.679L64.34,35z M74.225,6.445h7.918v10.038h0.08c1.32-1.6,3.12-2.759,6.479-2.759
	c3.719,0,7.119,2.28,7.119,7.039V35h-7.918V24.122c0-2.4-0.28-4.08-2.6-4.08c-1.4,0-3.16,0.68-3.16,4V35h-7.918V6.445z
	 M106.823,26.401c0.2,2.4,1.52,4.04,4.04,4.04c1.28,0,2.68-0.48,3.319-1.48h7.399c-1.6,4.479-5.999,6.559-10.678,6.559
	c-6.639,0-11.638-3.919-11.638-10.838c0-6.039,4.359-10.958,10.958-10.958c8.239,0,11.798,4.559,11.798,12.678H106.823z
	 M114.421,22.282c0-1.92-1.439-3.479-3.479-3.479c-2.4,0-3.72,1.24-4.08,3.479H114.421z M125.344,14.244h7.639v2.639h0.08
	c1.479-2.08,3.56-3.159,6.759-3.159c3.719,0,7.119,2.28,7.119,7.039V35h-7.918V24.122c0-2.4-0.28-4.08-2.6-4.08
	c-1.4,0-3.16,0.68-3.16,4V35h-7.918V14.244z M164.744,6.445h8.798V35h-8.798V6.445z M192.623,19.123h-3.24v-4.879h3.24
	c-0.12-2.04,0.08-4.279,1.64-5.839c1.72-1.72,3.719-1.959,6.919-1.959c1.24,0,2.319,0.12,3.559,0.16v5.439
	c-0.64-0.12-1.28-0.28-1.919-0.28c-1.92,0-2.56,0.56-2.439,2.48h4.159v4.879h-4V35h-7.918V19.123z M214.941,12.004h-7.918V6.445
	h7.918V12.004z M207.023,14.244h7.918V35h-7.918V14.244z M219.462,14.244h7.599v3.319h0.08c1.28-2.52,2.959-3.839,5.839-3.839
	c0.76,0,1.52,0.12,2.32,0.32v6.999c-0.8-0.28-1.52-0.52-3.12-0.52c-3.159,0-4.799,1.8-4.799,6.279V35h-7.918V14.244z M249.22,20.282
	c-0.04-0.68-0.4-1.2-0.92-1.56c-0.48-0.4-1.08-0.6-1.76-0.6c-1.12,0-2.399,0.28-2.399,1.6c0,0.6,0.48,0.88,0.92,1.08
	c1.28,0.52,4.319,0.76,6.958,1.6c2.68,0.84,4.959,2.399,4.959,5.799c0,5.759-5.519,7.319-10.559,7.319
	c-4.879,0-10.238-1.96-10.358-7.319h7.559c0.04,0.68,0.36,1.32,0.96,1.84c0.44,0.4,1.16,0.6,2.12,0.6c1.04,0,2.679-0.4,2.679-1.6
	s-0.68-1.56-4.359-2.2c-6.039-1-8.479-2.959-8.479-6.519c0-5.239,5.639-6.599,9.798-6.599c4.479,0,9.878,1.24,10.078,6.559H249.22z
	 M269.7,14.244h4.239v4.879H269.7v7.239c0,1.92,0.4,2.76,2.439,2.76c0.6,0,1.2-0.04,1.8-0.12V35c-1.6,0-3.359,0.24-5.079,0.24
	c-3.36,0-7.079-0.52-7.079-6.199v-9.918h-3.52v-4.879h3.52V7.924h7.919V14.244z M310.978,32.32c0,4.16-1.08,9.918-10.798,9.918
	c-4.919,0-10.079-1.32-10.838-6.919h7.839c0.12,0.2,0.28,0.44,0.44,0.72c0.48,0.76,1.32,1.52,2.319,1.52
	c2.56,0,3.12-3.04,3.12-4.759v-1.919h-0.08c-1.28,1.879-3.16,2.879-5.559,2.879c-6.119,0-8.878-4.559-8.878-10.118
	c0-5.399,3.08-9.918,8.999-9.918c2.359,0,4.519,0.92,5.439,3.04h0.08v-2.52h7.918V32.32z M300.02,28.681
	c2.919,0,3.239-2.8,3.239-5.119c0-2.28-1.08-4.08-3.439-4.08c-2.279,0-3.359,1.92-3.359,4.12
	C296.46,25.961,297.18,28.681,300.02,28.681z M325.459,35.52c-7.798,0-11.318-5.159-11.318-10.918
	c0-5.719,3.52-10.878,11.318-10.878c7.799,0,11.318,5.159,11.318,10.878C336.777,30.361,333.258,35.52,325.459,35.52z
	 M325.459,19.482c-3.039,0-3.399,2.92-3.399,5.119c0,2.2,0.36,5.159,3.399,5.159c3.04,0,3.399-2.959,3.399-5.159
	C328.858,22.402,328.499,19.482,325.459,19.482z M349.739,14.244h4.239v4.879h-4.239v7.239c0,1.92,0.4,2.76,2.439,2.76
	c0.6,0,1.2-0.04,1.8-0.12V35c-1.6,0-3.359,0.24-5.079,0.24c-3.36,0-7.079-0.52-7.079-6.199v-9.918h-3.52v-4.879h3.52V7.924h7.919
	V14.244z M379.379,14.244h4.239v4.879h-4.239v7.239c0,1.92,0.4,2.76,2.439,2.76c0.6,0,1.2-0.04,1.8-0.12V35
	c-1.6,0-3.359,0.24-5.079,0.24c-3.36,0-7.079-0.52-7.079-6.199v-9.918h-3.52v-4.879h3.52V7.924h7.919V14.244z M396.578,35.52
	c-7.798,0-11.318-5.159-11.318-10.918c0-5.719,3.52-10.878,11.318-10.878c7.799,0,11.318,5.159,11.318,10.878
	C407.896,30.361,404.377,35.52,396.578,35.52z M396.578,19.482c-3.039,0-3.399,2.92-3.399,5.119c0,2.2,0.36,5.159,3.399,5.159
	c3.04,0,3.399-2.959,3.399-5.159C399.978,22.402,399.618,19.482,396.578,19.482z M431.818,25.401c0,0.68,0.12,1.32,0.32,1.88
	c0.64,1.72,2.56,2.08,4.199,2.08c1.439,0,3.639-0.48,3.639-2.6c0-1.439-1.24-1.879-6.159-3.279c-4.52-1.28-9.679-2.52-9.679-8.279
	c0-6.599,5.639-9.438,11.518-9.438c6.199,0,11.718,2.399,11.918,9.318h-8.318c0.16-1.08-0.28-1.8-1.04-2.28
	c-0.76-0.52-1.68-0.72-2.6-0.72c-1.2,0-3.159,0.32-3.159,1.919c0.12,2,4.279,2.56,8.278,3.6c4.04,1.16,8.039,2.959,8.039,8.238
	c0,7.439-6.799,9.838-13.198,9.838c-3.199,0-12.558-1.16-12.558-10.278H431.818z M458.059,26.401c0.199,2.4,1.52,4.04,4.039,4.04
	c1.279,0,2.68-0.48,3.319-1.48h7.399c-1.601,4.479-6,6.559-10.679,6.559c-6.64,0-11.638-3.919-11.638-10.838
	c0-6.039,4.36-10.958,10.958-10.958c8.239,0,11.799,4.559,11.799,12.678H458.059z M465.656,22.282c0-1.92-1.439-3.479-3.479-3.479
	c-2.4,0-3.72,1.24-4.08,3.479H465.656z M496.815,30.361c0,1.56,0.04,3.319,0.96,4.639h-8.078c-0.2-0.6-0.32-1.36-0.28-1.959h-0.08
	c-1.72,1.919-4.119,2.479-6.679,2.479c-4,0-7.318-1.92-7.318-6.279c0-6.599,7.719-6.279,11.717-7.079c1.08-0.2,2.16-0.52,2.16-1.84
	c0-1.399-1.32-1.919-2.6-1.919c-2.399,0-2.959,1.24-2.959,2.12h-7.359c0.2-5.879,5.799-6.799,10.679-6.799
	c9.918,0,9.838,4.119,9.838,8.119V30.361z M489.217,25.682c-0.959,0.48-2.039,0.72-3.119,1c-1.76,0.439-2.68,0.84-2.68,2.239
	c0,0.96,1.039,1.92,2.479,1.92c1.8,0,3.2-1.04,3.319-3.24V25.682z M510.537,14.244h4.24v4.879h-4.24v7.239
	c0,1.92,0.4,2.76,2.439,2.76c0.601,0,1.2-0.04,1.801-0.12V35c-1.601,0-3.359,0.24-5.08,0.24c-3.359,0-7.078-0.52-7.078-6.199v-9.918
	h-3.52v-4.879h3.52V7.924h7.918V14.244z M526.817,14.244h4.239v4.879h-4.239v7.239c0,1.92,0.399,2.76,2.439,2.76
	c0.6,0,1.2-0.04,1.8-0.12V35c-1.6,0-3.359,0.24-5.079,0.24c-3.36,0-7.079-0.52-7.079-6.199v-9.918h-3.52v-4.879h3.52V7.924h7.919
	V14.244z M533.738,6.445h7.919V35h-7.919V6.445z M552.857,26.401c0.199,2.4,1.52,4.04,4.039,4.04c1.279,0,2.68-0.48,3.319-1.48
	h7.399c-1.601,4.479-6,6.559-10.679,6.559c-6.64,0-11.638-3.919-11.638-10.838c0-6.039,4.359-10.958,10.957-10.958
	c8.239,0,11.799,4.559,11.799,12.678H552.857z M560.455,22.282c0-1.92-1.439-3.479-3.479-3.479c-2.4,0-3.72,1.24-4.08,3.479H560.455
	z M571.738,27.082h8.318v6.279c0,3.799-1.32,7.199-4.879,8.398c-1.44,0.48-2.68,0.48-3.439,0.48v-3.479
	c1.959-0.16,3.439-1.839,3.559-3.759h-3.559V27.082z M598.098,14.244h7.639v2.279h0.08c0.96-1.28,2.24-2.799,6.079-2.799
	c5.879,0,8.718,5.759,8.718,10.998c0,4.919-1.879,10.798-8.838,10.798c-2.399,0-4.439-1.04-5.68-2.8h-0.08v8.999h-7.918V14.244z
	 M609.216,29.761c2.839,0,3.479-2.679,3.479-5.119c0-2.439-0.641-5.159-3.479-5.159s-3.479,2.72-3.479,5.159
	C605.736,27.082,606.377,29.761,609.216,29.761z M630.696,26.401c0.2,2.4,1.521,4.04,4.04,4.04c1.279,0,2.68-0.48,3.318-1.48h7.399
	c-1.601,4.479-5.999,6.559-10.679,6.559c-6.639,0-11.638-3.919-11.638-10.838c0-6.039,4.359-10.958,10.958-10.958
	c8.238,0,11.799,4.559,11.799,12.678H630.696z M638.295,22.282c0-1.92-1.439-3.479-3.479-3.479c-2.4,0-3.721,1.24-4.08,3.479
	H638.295z M659.655,35.52c-7.798,0-11.317-5.159-11.317-10.918c0-5.719,3.52-10.878,11.317-10.878
	c7.799,0,11.318,5.159,11.318,10.878C670.974,30.361,667.454,35.52,659.655,35.52z M659.655,19.482c-3.039,0-3.399,2.92-3.399,5.119
	c0,2.2,0.36,5.159,3.399,5.159c3.04,0,3.399-2.959,3.399-5.159C663.055,22.402,662.695,19.482,659.655,19.482z M674.416,14.244
	h7.639v2.279h0.08c0.961-1.28,2.24-2.799,6.08-2.799c5.879,0,8.718,5.759,8.718,10.998c0,4.919-1.88,10.798-8.839,10.798
	c-2.399,0-4.439-1.04-5.679-2.8h-0.08v8.999h-7.919V14.244z M685.535,29.761c2.839,0,3.479-2.679,3.479-5.119
	c0-2.439-0.64-5.159-3.479-5.159c-2.84,0-3.48,2.72-3.48,5.159C682.055,27.082,682.695,29.761,685.535,29.761z M700.496,6.445h7.919
	V35h-7.919V6.445z M719.615,26.401c0.199,2.4,1.52,4.04,4.039,4.04c1.279,0,2.68-0.48,3.319-1.48h7.398
	c-1.6,4.479-5.999,6.559-10.678,6.559c-6.64,0-11.638-3.919-11.638-10.838c0-6.039,4.359-10.958,10.957-10.958
	c8.239,0,11.799,4.559,11.799,12.678H719.615z M727.213,22.282c0-1.92-1.439-3.479-3.479-3.479c-2.4,0-3.72,1.24-4.08,3.479H727.213
	z M773.092,35h-7.639v-2.28h-0.08c-0.96,1.28-2.239,2.8-6.079,2.8c-5.879,0-8.718-5.759-8.718-10.998
	c0-4.919,1.879-10.798,8.838-10.798c2.399,0,4.439,1.04,5.68,2.799h0.079V6.445h7.919V35z M761.974,19.482
	c-2.839,0-3.479,2.68-3.479,5.119c0,2.44,0.641,5.159,3.479,5.159c2.84,0,3.479-2.719,3.479-5.159
	C765.453,22.162,764.813,19.482,761.974,19.482z M785.494,12.004h-7.919V6.445h7.919V12.004z M777.575,14.244h7.919V35h-7.919
	V14.244z M811.611,35h-7.639v-2.28h-0.08c-0.96,1.28-2.239,2.8-6.079,2.8c-5.879,0-8.718-5.759-8.718-10.998
	c0-4.919,1.879-10.798,8.838-10.798c2.399,0,4.439,1.04,5.68,2.799h0.079V6.445h7.919V35z M800.493,19.482
	c-2.839,0-3.479,2.68-3.479,5.119c0,2.44,0.641,5.159,3.479,5.159c2.84,0,3.479-2.719,3.479-5.159
	C803.973,22.162,803.333,19.482,800.493,19.482z M815.935,14.244h7.64v2.639h0.079c1.48-2.08,3.56-3.159,6.759-3.159
	c3.72,0,7.119,2.28,7.119,7.039V35h-7.919V24.122c0-2.4-0.279-4.08-2.6-4.08c-1.399,0-3.159,0.68-3.159,4V35h-7.919V14.244z
	 M849.294,13.004c0,4.239-1,7.639-7.359,8.598v-3.479c2.4-0.28,3.24-1.68,3.28-3.76h-3.28V6.445h7.359V13.004z M862.492,14.244
	h4.239v4.879h-4.239v7.239c0,1.92,0.4,2.76,2.439,2.76c0.601,0,1.2-0.04,1.8-0.12V35c-1.6,0-3.359,0.24-5.079,0.24
	c-3.359,0-7.078-0.52-7.078-6.199v-9.918h-3.52v-4.879h3.52V7.924h7.918V14.244z M29.924,54.445h7.918v13.798l5.039-5.999h8.958
	l-7.398,7.838L53,83h-9.518l-4.239-7.519l-1.4,1.52V83h-7.918V54.445z M54.204,62.244h7.639v2.639h0.08
	c1.479-2.08,3.559-3.159,6.759-3.159c3.719,0,7.119,2.28,7.119,7.039V83h-7.918V72.122c0-2.4-0.28-4.08-2.6-4.08
	c-1.4,0-3.16,0.68-3.16,4V83h-7.918V62.244z M90.562,83.52c-7.798,0-11.318-5.158-11.318-10.918c0-5.719,3.52-10.878,11.318-10.878
	c7.799,0,11.318,5.159,11.318,10.878C101.88,78.361,98.36,83.52,90.562,83.52z M90.562,67.482c-3.039,0-3.399,2.92-3.399,5.119
	s0.36,5.159,3.399,5.159c3.04,0,3.399-2.96,3.399-5.159S93.601,67.482,90.562,67.482z M131.679,83h-8.119l-3-12.758h-0.08
	L117.401,83h-8.119l-6.479-20.756h8.239l3.079,12.838h0.08l2.64-12.838h7.399L127,75.082h0.16l2.879-12.838h8.239L131.679,83z
	 M179.838,83h-8.119l-3-12.758h-0.08L165.561,83h-8.119l-6.479-20.756h8.239l3.079,12.838h0.08l2.64-12.838h7.399l2.759,12.838h0.16
	l2.879-12.838h8.239L179.838,83z M188.283,54.445h7.918v10.038h0.08c1.32-1.6,3.12-2.759,6.479-2.759
	c3.719,0,7.119,2.28,7.119,7.039V83h-7.918V72.122c0-2.4-0.28-4.08-2.6-4.08c-1.4,0-3.16,0.68-3.16,4V83h-7.918V54.445z
	 M224.641,83.52c-7.798,0-11.318-5.158-11.318-10.918c0-5.719,3.52-10.878,11.318-10.878c7.799,0,11.318,5.159,11.318,10.878
	C235.959,78.361,232.439,83.52,224.641,83.52z M224.641,67.482c-3.039,0-3.399,2.92-3.399,5.119s0.36,5.159,3.399,5.159
	c3.04,0,3.399-2.96,3.399-5.159S227.68,67.482,224.641,67.482z M252.882,54.445h8.798V83h-8.798V54.445z M305.797,83h-8.119
	l-3-12.758h-0.08L291.52,83h-8.119l-6.479-20.756h8.239l3.079,12.838h0.08l2.64-12.838h7.399l2.759,12.838h0.16l2.879-12.838h8.239
	L305.797,83z M334.479,78.361c0,1.559,0.04,3.318,0.959,4.639h-8.079c-0.2-0.6-0.32-1.359-0.28-1.959H327
	c-1.72,1.919-4.119,2.479-6.679,2.479c-4,0-7.319-1.92-7.319-6.278c0-6.599,7.719-6.279,11.718-7.079c1.08-0.2,2.16-0.52,2.16-1.84
	c0-1.399-1.32-1.919-2.6-1.919c-2.399,0-2.959,1.24-2.959,2.12h-7.358c0.2-5.879,5.799-6.799,10.678-6.799
	c9.918,0,9.838,4.119,9.838,8.119V78.361z M326.879,73.682c-0.959,0.48-2.04,0.72-3.119,1c-1.76,0.439-2.68,0.84-2.68,2.239
	c0,0.96,1.04,1.92,2.479,1.92c1.8,0,3.2-1.04,3.319-3.239V73.682z M350.679,68.282c-0.04-0.68-0.4-1.2-0.92-1.56
	c-0.48-0.4-1.08-0.6-1.76-0.6c-1.12,0-2.399,0.28-2.399,1.6c0,0.6,0.48,0.88,0.92,1.08c1.28,0.52,4.319,0.76,6.958,1.6
	c2.68,0.84,4.959,2.399,4.959,5.799c0,5.759-5.519,7.318-10.559,7.318c-4.879,0-10.238-1.959-10.358-7.318h7.559
	c0.04,0.68,0.36,1.32,0.96,1.84c0.44,0.4,1.16,0.6,2.12,0.6c1.04,0,2.679-0.4,2.679-1.6s-0.68-1.56-4.359-2.199
	c-6.039-1-8.479-2.96-8.479-6.52c0-5.239,5.639-6.599,9.798-6.599c4.479,0,9.878,1.24,10.078,6.559H350.679z M362.001,75.082h8.319
	V83h-8.319V75.082z M388.481,54.445h8.798V83h-8.798V54.445z M415.041,62.244h7.639v2.279h0.08c0.96-1.28,2.24-2.799,6.079-2.799
	c5.879,0,8.718,5.759,8.718,10.998c0,4.919-1.879,10.798-8.838,10.798c-2.4,0-4.439-1.039-5.679-2.799h-0.08v8.998h-7.918V62.244z
	 M426.159,77.761c2.839,0,3.479-2.679,3.479-5.119c0-2.439-0.64-5.159-3.479-5.159s-3.479,2.72-3.479,5.159
	C422.679,75.082,423.319,77.761,426.159,77.761z M440.96,62.244h7.599v3.319h0.08c1.28-2.52,2.959-3.839,5.839-3.839
	c0.76,0,1.52,0.12,2.319,0.32v6.999c-0.8-0.28-1.521-0.52-3.12-0.52c-3.159,0-4.799,1.8-4.799,6.278V83h-7.918V62.244z
	 M464.68,74.401c0.199,2.399,1.52,4.04,4.039,4.04c1.279,0,2.68-0.48,3.319-1.48h7.399c-1.601,4.479-6,6.559-10.679,6.559
	c-6.64,0-11.638-3.919-11.638-10.838c0-6.039,4.359-10.958,10.957-10.958c8.239,0,11.799,4.559,11.799,12.678H464.68z
	 M472.277,70.282c0-1.92-1.439-3.479-3.479-3.479c-2.4,0-3.72,1.24-4.08,3.479H472.277z M484.52,67.123h-3.24v-4.879h3.24
	c-0.12-2.04,0.08-4.279,1.64-5.839c1.72-1.72,3.72-1.959,6.919-1.959c1.24,0,2.319,0.12,3.559,0.16v5.439
	c-0.639-0.12-1.279-0.28-1.919-0.28c-1.92,0-2.56,0.56-2.439,2.48h4.159v4.879h-4V83h-7.918V67.123z M505.438,74.401
	c0.201,2.399,1.521,4.04,4.04,4.04c1.28,0,2.68-0.48,3.319-1.48h7.398c-1.6,4.479-5.998,6.559-10.678,6.559
	c-6.639,0-11.639-3.919-11.639-10.838c0-6.039,4.359-10.958,10.959-10.958c8.238,0,11.798,4.559,11.798,12.678H505.438z
	 M513.037,70.282c0-1.92-1.439-3.479-3.479-3.479c-2.399,0-3.72,1.24-4.079,3.479H513.037z M523.959,62.244h7.599v3.319h0.08
	c1.28-2.52,2.96-3.839,5.839-3.839c0.76,0,1.52,0.12,2.32,0.32v6.999c-0.801-0.28-1.521-0.52-3.12-0.52c-3.159,0-4.8,1.8-4.8,6.278
	V83h-7.918V62.244z M555.078,54.445h7.919v10.038h0.08c1.319-1.6,3.12-2.759,6.479-2.759c3.719,0,7.118,2.28,7.118,7.039V83h-7.919
	V72.122c0-2.4-0.279-4.08-2.6-4.08c-1.399,0-3.159,0.68-3.159,4V83h-7.919V54.445z M601.235,78.361c0,1.559,0.04,3.318,0.96,4.639
	h-8.079c-0.2-0.6-0.319-1.359-0.28-1.959h-0.08c-1.719,1.919-4.119,2.479-6.678,2.479c-4,0-7.319-1.92-7.319-6.278
	c0-6.599,7.719-6.279,11.718-7.079c1.08-0.2,2.16-0.52,2.16-1.84c0-1.399-1.32-1.919-2.6-1.919c-2.4,0-2.96,1.24-2.96,2.12h-7.358
	c0.199-5.879,5.799-6.799,10.678-6.799c9.918,0,9.839,4.119,9.839,8.119V78.361z M593.637,73.682c-0.96,0.48-2.04,0.72-3.119,1
	c-1.76,0.439-2.68,0.84-2.68,2.239c0,0.96,1.039,1.92,2.479,1.92c1.801,0,3.2-1.04,3.32-3.239V73.682z M619.035,83h-9.357
	l-6.799-20.756h8.357l3.24,12.637h0.08l3.279-12.637h8.078L619.035,83z M635.757,60.004h-7.919v-5.559h7.919V60.004z
	 M627.838,62.244h7.919V83h-7.919V62.244z M640.277,62.244h7.639v2.639h0.08c1.479-2.08,3.56-3.159,6.759-3.159
	c3.72,0,7.118,2.28,7.118,7.039V83h-7.918V72.122c0-2.4-0.279-4.08-2.6-4.08c-1.4,0-3.16,0.68-3.16,4V83h-7.918V62.244z
	 M687.354,80.32c0,4.16-1.08,9.918-10.798,9.918c-4.919,0-10.079-1.319-10.839-6.918h7.84c0.119,0.199,0.279,0.439,0.439,0.72
	c0.48,0.76,1.32,1.52,2.319,1.52c2.56,0,3.12-3.04,3.12-4.759v-1.92h-0.08c-1.28,1.879-3.16,2.879-5.56,2.879
	c-6.119,0-8.878-4.559-8.878-10.117c0-5.4,3.079-9.919,8.998-9.919c2.359,0,4.52,0.92,5.439,3.04h0.08v-2.52h7.918V80.32z
	 M676.396,76.682c2.919,0,3.239-2.801,3.239-5.119c0-2.28-1.08-4.08-3.439-4.08c-2.279,0-3.359,1.92-3.359,4.119
	C672.836,73.961,673.557,76.682,676.396,76.682z M714.275,62.244h4.239v4.879h-4.239v7.239c0,1.92,0.4,2.76,2.439,2.76
	c0.6,0,1.199-0.04,1.8-0.12V83c-1.601,0-3.359,0.24-5.079,0.24c-3.359,0-7.079-0.52-7.079-6.199v-9.918h-3.52v-4.879h3.52v-6.319
	h7.919V62.244z M731.475,83.52c-7.799,0-11.318-5.158-11.318-10.918c0-5.719,3.52-10.878,11.318-10.878s11.318,5.159,11.318,10.878
	C742.793,78.361,739.273,83.52,731.475,83.52z M731.475,67.482c-3.039,0-3.399,2.92-3.399,5.119s0.36,5.159,3.399,5.159
	c3.04,0,3.399-2.96,3.399-5.159S734.515,67.482,731.475,67.482z M759.596,62.244h7.64v2.279h0.079c0.96-1.28,2.24-2.799,6.079-2.799
	c5.879,0,8.719,5.759,8.719,10.998c0,4.919-1.88,10.798-8.839,10.798c-2.399,0-4.438-1.039-5.679-2.799h-0.08v8.998h-7.919V62.244z
	 M770.714,77.761c2.84,0,3.479-2.679,3.479-5.119c0-2.439-0.64-5.159-3.479-5.159c-2.839,0-3.479,2.72-3.479,5.159
	C767.235,75.082,767.875,77.761,770.714,77.761z M785.516,62.244h7.6v3.319h0.079c1.28-2.52,2.96-3.839,5.84-3.839
	c0.76,0,1.52,0.12,2.319,0.32v6.999c-0.8-0.28-1.52-0.52-3.119-0.52c-3.16,0-4.8,1.8-4.8,6.278V83h-7.919V62.244z M812.994,83.52
	c-7.799,0-11.318-5.158-11.318-10.918c0-5.719,3.52-10.878,11.318-10.878s11.318,5.159,11.318,10.878
	C824.313,78.361,820.793,83.52,812.994,83.52z M812.994,67.482c-3.039,0-3.399,2.92-3.399,5.119s0.36,5.159,3.399,5.159
	c3.04,0,3.399-2.96,3.399-5.159S816.034,67.482,812.994,67.482z M841.354,83h-9.359l-6.799-20.756h8.359l3.239,12.637h0.08
	l3.279-12.637h8.078L841.354,83z M856.675,74.401c0.199,2.399,1.52,4.04,4.039,4.04c1.279,0,2.68-0.48,3.319-1.48h7.398
	c-1.6,4.479-5.999,6.559-10.678,6.559c-6.639,0-11.639-3.919-11.639-10.838c0-6.039,4.359-10.958,10.959-10.958
	c8.238,0,11.798,4.559,11.798,12.678H856.675z M864.273,70.282c0-1.92-1.44-3.479-3.479-3.479c-2.399,0-3.72,1.24-4.079,3.479
	H864.273z M146.043,110.244h7.639v2.759h0.08c1.6-2.399,3.919-3.279,6.799-3.279c2.24,0,4.639,1.159,5.599,3.239
	c0.32-0.199,1.919-3.239,7.079-3.239c5.319,0,7.119,3.679,7.119,7.038V131h-7.919v-11.238c0-1.959-0.2-3.719-2.6-3.719
	c-2.04,0-2.679,1.52-2.679,3.719V131h-7.919v-11.238c0-1.959-0.2-3.719-2.6-3.719c-2.04,0-2.68,1.52-2.68,3.719V131h-7.918V110.244z
	 M198.401,129.4c-0.64,1.879-1.36,4.199-2.6,5.759c-2.12,2.56-5.239,2.56-8.359,2.56h-3.599V131.4h1.839h1.28
	c0.44,0,0.84-0.08,1.12-0.2c0.48-0.28,0.76-0.64,0.76-1.56c0-0.961-3.04-8.639-3.479-9.839l-3.52-9.558h8.479l3.319,11.918h0.08
	l3.359-11.918h8.198L198.401,129.4z M218.841,116.282c-0.04-0.68-0.4-1.2-0.92-1.56c-0.48-0.4-1.08-0.6-1.76-0.6
	c-1.12,0-2.399,0.279-2.399,1.6c0,0.6,0.48,0.88,0.92,1.08c1.28,0.52,4.319,0.76,6.958,1.6c2.68,0.84,4.959,2.399,4.959,5.799
	c0,5.759-5.519,7.318-10.559,7.318c-4.879,0-10.238-1.959-10.358-7.318h7.559c0.04,0.68,0.36,1.32,0.96,1.84
	c0.44,0.4,1.16,0.6,2.12,0.6c1.04,0,2.679-0.4,2.679-1.6s-0.68-1.56-4.359-2.199c-6.039-1-8.479-2.96-8.479-6.52
	c0-5.238,5.639-6.599,9.798-6.599c4.479,0,9.878,1.239,10.078,6.559H218.841z M236.481,122.401c0.2,2.399,1.52,4.04,4.04,4.04
	c1.28,0,2.68-0.48,3.319-1.48h7.399c-1.6,4.479-5.999,6.559-10.678,6.559c-6.639,0-11.638-3.919-11.638-10.838
	c0-6.039,4.359-10.958,10.958-10.958c8.239,0,11.798,4.56,11.798,12.678H236.481z M244.08,118.282c0-1.92-1.439-3.479-3.479-3.479
	c-2.4,0-3.72,1.24-4.08,3.479H244.08z M255.162,102.445h7.918V131h-7.918V102.445z M268.921,115.123h-3.24v-4.879h3.24
	c-0.12-2.041,0.08-4.279,1.64-5.84c1.72-1.72,3.719-1.959,6.919-1.959c1.24,0,2.319,0.119,3.559,0.16v5.438
	c-0.64-0.12-1.28-0.28-1.919-0.28c-1.92,0-2.56,0.561-2.439,2.48h4.159v4.879h-4V131h-7.918V115.123z M304.6,108.004h-7.918v-5.559
	h7.918V108.004z M296.681,110.244h7.918V131h-7.918V110.244z M309.121,110.244h7.639v2.639h0.08c1.479-2.08,3.559-3.159,6.759-3.159
	c3.719,0,7.119,2.28,7.119,7.038V131h-7.918v-10.878c0-2.399-0.28-4.079-2.6-4.079c-1.4,0-3.16,0.68-3.16,3.999V131h-7.918V110.244z
	 M368.637,126.361c0,1.559,0.04,3.318,0.96,4.639h-8.079c-0.2-0.6-0.32-1.359-0.28-1.959h-0.08c-1.72,1.919-4.119,2.479-6.679,2.479
	c-4,0-7.319-1.92-7.319-6.278c0-6.599,7.719-6.279,11.718-7.079c1.08-0.199,2.16-0.52,2.16-1.84c0-1.399-1.32-1.92-2.6-1.92
	c-2.399,0-2.959,1.24-2.959,2.12h-7.358c0.2-5.879,5.799-6.799,10.678-6.799c9.918,0,9.838,4.119,9.838,8.118V126.361z
	 M361.038,121.682c-0.959,0.48-2.04,0.72-3.119,1c-1.76,0.439-2.68,0.84-2.68,2.239c0,0.96,1.04,1.92,2.479,1.92
	c1.8,0,3.2-1.04,3.319-3.239V121.682z M386.2,110.244h7.639v2.639h0.08c1.479-2.08,3.56-3.159,6.759-3.159
	c3.719,0,7.119,2.28,7.119,7.038V131h-7.918v-10.878c0-2.399-0.28-4.079-2.6-4.079c-1.4,0-3.16,0.68-3.16,3.999V131H386.2V110.244z
	 M418.799,122.401c0.2,2.399,1.52,4.04,4.04,4.04c1.28,0,2.68-0.48,3.319-1.48h7.399c-1.6,4.479-5.999,6.559-10.678,6.559
	c-6.639,0-11.638-3.919-11.638-10.838c0-6.039,4.359-10.958,10.958-10.958c8.239,0,11.798,4.56,11.798,12.678H418.799z
	 M426.397,118.282c0-1.92-1.439-3.479-3.479-3.479c-2.4,0-3.72,1.24-4.08,3.479H426.397z M463.676,131h-8.119l-3-12.758h-0.08
	L449.398,131h-8.119l-6.479-20.756h8.239l3.079,12.838h0.08l2.64-12.838h7.398l2.76,12.838h0.16l2.879-12.838h8.239L463.676,131z
	 M492.158,122.401c0.2,2.399,1.52,4.04,4.039,4.04c1.28,0,2.68-0.48,3.32-1.48h7.398c-1.6,4.479-5.999,6.559-10.678,6.559
	c-6.64,0-11.639-3.919-11.639-10.838c0-6.039,4.359-10.958,10.958-10.958c8.239,0,11.798,4.56,11.798,12.678H492.158z
	 M499.757,118.282c0-1.92-1.439-3.479-3.479-3.479c-2.399,0-3.719,1.24-4.079,3.479H499.757z M510.68,110.244h7.639v2.639h0.08
	c1.479-2.08,3.559-3.159,6.758-3.159c3.72,0,7.119,2.28,7.119,7.038V131h-7.918v-10.878c0-2.399-0.28-4.079-2.6-4.079
	c-1.4,0-3.16,0.68-3.16,3.999V131h-7.918V110.244z M550.196,131h-9.358l-6.799-20.756h8.358l3.239,12.637h0.08l3.279-12.637h8.079
	L550.196,131z M566.918,108.004h-7.919v-5.559h7.919V108.004z M558.999,110.244h7.919V131h-7.919V110.244z M571.438,110.244h7.6
	v3.318h0.08c1.279-2.52,2.959-3.839,5.838-3.839c0.76,0,1.521,0.12,2.32,0.319v7c-0.8-0.281-1.52-0.521-3.119-0.521
	c-3.16,0-4.8,1.8-4.8,6.278V131h-7.919V110.244z M598.916,131.52c-7.799,0-11.318-5.158-11.318-10.918
	c0-5.719,3.52-10.878,11.318-10.878s11.318,5.159,11.318,10.878C610.234,126.361,606.715,131.52,598.916,131.52z M598.916,115.482
	c-3.039,0-3.399,2.92-3.399,5.119s0.36,5.159,3.399,5.159s3.399-2.96,3.399-5.159S601.955,115.482,598.916,115.482z
	 M613.678,110.244h7.639v2.639h0.08c1.479-2.08,3.56-3.159,6.759-3.159c3.72,0,7.118,2.28,7.118,7.038V131h-7.918v-10.878
	c0-2.399-0.279-4.079-2.6-4.079c-1.4,0-3.16,0.68-3.16,3.999V131h-7.918V110.244z M639.557,110.244h7.639v2.759h0.08
	c1.6-2.399,3.92-3.279,6.799-3.279c2.24,0,4.64,1.159,5.6,3.239c0.32-0.199,1.92-3.239,7.078-3.239c5.32,0,7.119,3.679,7.119,7.038
	V131h-7.918v-11.238c0-1.959-0.2-3.719-2.6-3.719c-2.04,0-2.68,1.52-2.68,3.719V131h-7.919v-11.238c0-1.959-0.2-3.719-2.6-3.719
	c-2.04,0-2.68,1.52-2.68,3.719V131h-7.919V110.244z M684.796,122.401c0.2,2.399,1.521,4.04,4.04,4.04c1.279,0,2.68-0.48,3.318-1.48
	h7.399c-1.601,4.479-5.999,6.559-10.679,6.559c-6.639,0-11.638-3.919-11.638-10.838c0-6.039,4.359-10.958,10.958-10.958
	c8.238,0,11.799,4.56,11.799,12.678H684.796z M692.395,118.282c0-1.92-1.439-3.479-3.479-3.479c-2.4,0-3.721,1.24-4.08,3.479
	H692.395z M703.316,110.244h7.639v2.639h0.08c1.48-2.08,3.56-3.159,6.76-3.159c3.719,0,7.118,2.28,7.118,7.038V131h-7.919v-10.878
	c0-2.399-0.279-4.079-2.6-4.079c-1.399,0-3.159,0.68-3.159,3.999V131h-7.919V110.244z M738.755,110.244h4.239v4.879h-4.239v7.238
	c0,1.92,0.4,2.76,2.439,2.76c0.601,0,1.2-0.04,1.8-0.12V131c-1.6,0-3.359,0.24-5.079,0.24c-3.359,0-7.079-0.52-7.079-6.199v-9.918
	h-3.52v-4.879h3.52v-6.32h7.919V110.244z M745.877,123.082h8.318V131h-8.318V123.082z M907-7H-6v154h913V-7z"/>
</svg>
