<?xml version="1.0" encoding="utf-8"?>
<!-- Generator: Adobe Illustrator 16.0.0, SVG Export Plug-In . SVG Version: 6.00 Build 0)  -->
<!DOCTYPE svg PUBLIC "-//W3C//DTD SVG 1.1//EN" "http://www.w3.org/Graphics/SVG/1.1/DTD/svg11.dtd">
<svg version="1.1" id="Layer_1" xmlns="http://www.w3.org/2000/svg" xmlns:xlink="http://www.w3.org/1999/xlink" x="0px" y="0px"
	 width="900px" height="230px" viewBox="0 0 900 230" enable-background="new 0 0 900 230" xml:space="preserve">
<text transform="matrix(1 0 0 1 32.4658 318)"><tspan x="0" y="0" fill="#FFFFFF" font-family="'HelveticaNeueLTPro-Blk'" font-size="40">I was playing for a local club, FC Edebei, </tspan><tspan x="10.039" y="48" fill="#FFFFFF" font-family="'HelveticaNeueLTPro-Blk'" font-size="40">and the owner came to my house to tell </tspan><tspan x="38.599" y="96" fill="#FFFFFF" font-family="'HelveticaNeueLTPro-Blk'" font-size="40">my parents of an opportunity in Italy. </tspan><tspan x="72.618" y="144" fill="#FFFFFF" font-family="'HelveticaNeueLTPro-Blk'" font-size="40">I told them they should let me go, </tspan><tspan x="183.837" y="192" fill="#FFFFFF" font-family="'HelveticaNeueLTPro-Blk'" font-size="40">let’s see what happens.</tspan></text>
<path fill="#FFFFFF" d="M27.746,2.445h8.798V31h-8.798V2.445z M80.661,31h-8.119l-3-12.758h-0.08L66.383,31h-8.119l-6.479-20.756
	h8.239l3.079,12.838h0.08l2.64-12.838h7.399l2.759,12.838h0.16l2.879-12.838h8.239L80.661,31z M109.342,26.361
	c0,1.56,0.04,3.319,0.959,4.639h-8.079c-0.2-0.6-0.32-1.36-0.28-1.959h-0.08c-1.72,1.919-4.119,2.479-6.679,2.479
	c-4,0-7.319-1.92-7.319-6.279c0-6.599,7.719-6.279,11.718-7.079c1.08-0.2,2.16-0.52,2.16-1.84c0-1.399-1.32-1.919-2.6-1.919
	c-2.399,0-2.959,1.24-2.959,2.12h-7.358c0.2-5.879,5.799-6.799,10.678-6.799c9.918,0,9.838,4.119,9.838,8.119V26.361z
	 M101.743,21.682c-0.959,0.48-2.04,0.72-3.119,1c-1.76,0.439-2.68,0.84-2.68,2.239c0,0.96,1.04,1.92,2.479,1.92
	c1.8,0,3.2-1.04,3.319-3.24V21.682z M125.542,16.282c-0.04-0.68-0.4-1.2-0.92-1.56c-0.48-0.4-1.08-0.6-1.76-0.6
	c-1.12,0-2.399,0.28-2.399,1.6c0,0.6,0.48,0.88,0.92,1.08c1.28,0.52,4.319,0.76,6.958,1.6c2.68,0.84,4.959,2.399,4.959,5.799
	c0,5.759-5.519,7.319-10.559,7.319c-4.879,0-10.238-1.96-10.358-7.319h7.559c0.04,0.68,0.36,1.32,0.96,1.84
	c0.44,0.4,1.16,0.6,2.12,0.6c1.04,0,2.679-0.4,2.679-1.6s-0.68-1.56-4.359-2.2c-6.039-1-8.479-2.959-8.479-6.519
	c0-5.239,5.639-6.599,9.798-6.599c4.479,0,9.878,1.24,10.078,6.559H125.542z M149.864,10.244h7.639v2.279h0.08
	c0.96-1.28,2.24-2.799,6.079-2.799c5.879,0,8.718,5.759,8.718,10.998c0,4.919-1.879,10.798-8.838,10.798
	c-2.399,0-4.439-1.04-5.679-2.8h-0.08v8.999h-7.918V10.244z M160.982,25.761c2.839,0,3.479-2.679,3.479-5.119
	c0-2.439-0.64-5.159-3.479-5.159s-3.479,2.72-3.479,5.159C157.503,23.082,158.143,25.761,160.982,25.761z M175.944,2.445h7.918V31
	h-7.918V2.445z M208.62,26.361c0,1.56,0.04,3.319,0.959,4.639h-8.079c-0.2-0.6-0.32-1.36-0.28-1.959h-0.08
	c-1.72,1.919-4.119,2.479-6.679,2.479c-4,0-7.319-1.92-7.319-6.279c0-6.599,7.719-6.279,11.718-7.079c1.08-0.2,2.16-0.52,2.16-1.84
	c0-1.399-1.32-1.919-2.6-1.919c-2.399,0-2.959,1.24-2.959,2.12h-7.358c0.2-5.879,5.799-6.799,10.678-6.799
	c9.918,0,9.838,4.119,9.838,8.119V26.361z M201.021,21.682c-0.959,0.48-2.04,0.72-3.119,1c-1.76,0.439-2.68,0.84-2.68,2.239
	c0,0.96,1.04,1.92,2.479,1.92c1.8,0,3.2-1.04,3.319-3.24V21.682z M226.621,29.4c-0.64,1.879-1.36,4.199-2.6,5.759
	c-2.12,2.56-5.239,2.56-8.359,2.56h-3.599V31.4h1.839h1.28c0.44,0,0.84-0.08,1.12-0.2c0.48-0.28,0.76-0.64,0.76-1.56
	c0-0.96-3.04-8.639-3.479-9.838l-3.52-9.558h8.479l3.319,11.918h0.08l3.359-11.918h8.198L226.621,29.4z M243.142,8.004h-7.918V2.445
	h7.918V8.004z M235.223,10.244h7.918V31h-7.918V10.244z M247.663,10.244h7.639v2.639h0.08c1.479-2.08,3.559-3.159,6.759-3.159
	c3.719,0,7.119,2.28,7.119,7.039V31h-7.918V20.122c0-2.4-0.28-4.08-2.6-4.08c-1.4,0-3.16,0.68-3.16,4V31h-7.918V10.244z
	 M294.739,28.32c0,4.16-1.08,9.918-10.798,9.918c-4.919,0-10.079-1.32-10.838-6.919h7.839c0.12,0.2,0.28,0.44,0.44,0.72
	c0.48,0.76,1.32,1.52,2.319,1.52c2.56,0,3.12-3.04,3.12-4.759v-1.919h-0.08c-1.28,1.879-3.159,2.879-5.559,2.879
	c-6.119,0-8.878-4.559-8.878-10.118c0-5.399,3.08-9.918,8.999-9.918c2.359,0,4.519,0.92,5.439,3.04h0.08v-2.52h7.918V28.32z
	 M283.781,24.681c2.919,0,3.239-2.8,3.239-5.119c0-2.28-1.08-4.08-3.439-4.08c-2.28,0-3.36,1.92-3.36,4.12
	C280.221,21.961,280.941,24.681,283.781,24.681z M313.462,15.123h-3.24v-4.879h3.24c-0.12-2.04,0.08-4.279,1.64-5.839
	c1.72-1.72,3.719-1.959,6.919-1.959c1.24,0,2.319,0.12,3.559,0.16v5.439c-0.64-0.12-1.28-0.28-1.919-0.28
	c-1.92,0-2.56,0.56-2.439,2.48h4.159v4.879h-4V31h-7.918V15.123z M338.14,31.52c-7.798,0-11.318-5.159-11.318-10.918
	c0-5.719,3.52-10.878,11.318-10.878c7.799,0,11.318,5.159,11.318,10.878C349.458,26.361,345.938,31.52,338.14,31.52z M338.14,15.482
	c-3.039,0-3.399,2.92-3.399,5.119c0,2.2,0.36,5.159,3.399,5.159c3.04,0,3.399-2.959,3.399-5.159
	C341.539,18.402,341.179,15.482,338.14,15.482z M352.901,10.244h7.599v3.319h0.08c1.28-2.52,2.959-3.839,5.839-3.839
	c0.76,0,1.52,0.12,2.32,0.32v6.999c-0.8-0.28-1.52-0.52-3.12-0.52c-3.159,0-4.799,1.8-4.799,6.279V31h-7.918V10.244z
	 M404.258,26.361c0,1.56,0.04,3.319,0.959,4.639h-8.079c-0.2-0.6-0.32-1.36-0.28-1.959h-0.08c-1.72,1.919-4.119,2.479-6.679,2.479
	c-4,0-7.319-1.92-7.319-6.279c0-6.599,7.719-6.279,11.718-7.079c1.08-0.2,2.16-0.52,2.16-1.84c0-1.399-1.32-1.919-2.6-1.919
	c-2.399,0-2.959,1.24-2.959,2.12h-7.358c0.2-5.879,5.799-6.799,10.678-6.799c9.918,0,9.838,4.119,9.838,8.119V26.361z
	 M396.659,21.682c-0.959,0.48-2.04,0.72-3.119,1c-1.76,0.439-2.68,0.84-2.68,2.239c0,0.96,1.04,1.92,2.479,1.92
	c1.8,0,3.2-1.04,3.319-3.24V21.682z M421.98,2.445h7.918V31h-7.918V2.445z M444.858,31.52c-7.798,0-11.318-5.159-11.318-10.918
	c0-5.719,3.52-10.878,11.318-10.878s11.318,5.159,11.318,10.878C456.176,26.361,452.656,31.52,444.858,31.52z M444.858,15.482
	c-3.039,0-3.399,2.92-3.399,5.119c0,2.2,0.36,5.159,3.399,5.159c3.04,0,3.4-2.959,3.4-5.159
	C448.258,18.402,447.897,15.482,444.858,15.482z M473.018,18.122c-0.08-0.88-0.36-1.52-0.88-1.959c-0.521-0.44-1.16-0.68-2-0.68
	c-3.04,0-3.479,2.64-3.479,5.159c0,2.56,0.439,5.119,3.479,5.119c1.72,0,2.919-1.399,3.079-3.04h7.559
	c-0.76,5.639-5.198,8.799-10.797,8.799c-6.24,0-11.238-4.319-11.238-10.878c0-6.559,4.998-10.918,11.238-10.918
	c5.479,0,10.037,2.64,10.558,8.398H473.018z M504.296,26.361c0,1.56,0.04,3.319,0.96,4.639h-8.079c-0.2-0.6-0.319-1.36-0.28-1.959
	h-0.08c-1.719,1.919-4.119,2.479-6.678,2.479c-4,0-7.319-1.92-7.319-6.279c0-6.599,7.719-6.279,11.718-7.079
	c1.08-0.2,2.16-0.52,2.16-1.84c0-1.399-1.32-1.919-2.6-1.919c-2.4,0-2.96,1.24-2.96,2.12h-7.358
	c0.199-5.879,5.799-6.799,10.678-6.799c9.918,0,9.839,4.119,9.839,8.119V26.361z M496.697,21.682c-0.96,0.48-2.04,0.72-3.119,1
	c-1.76,0.439-2.68,0.84-2.68,2.239c0,0.96,1.039,1.92,2.479,1.92c1.801,0,3.2-1.04,3.32-3.24V21.682z M508.659,2.445h7.919V31
	h-7.919V2.445z M547.856,18.122c-0.08-0.88-0.36-1.52-0.88-1.959s-1.16-0.68-2-0.68c-3.039,0-3.479,2.64-3.479,5.159
	c0,2.56,0.44,5.119,3.479,5.119c1.72,0,2.92-1.399,3.08-3.04h7.559c-0.76,5.639-5.199,8.799-10.799,8.799
	c-6.238,0-11.238-4.319-11.238-10.878c0-6.559,5-10.918,11.238-10.918c5.479,0,10.039,2.64,10.559,8.398H547.856z M559.059,2.445
	h7.918V31h-7.918V2.445z M593.094,31h-7.639v-2.64h-0.08c-1.479,2.08-3.559,3.16-6.759,3.16c-3.72,0-7.118-2.28-7.118-7.039V10.244
	h7.918v10.878c0,2.4,0.24,4.08,2.6,4.08c1.4,0,3.16-0.68,3.16-4V10.244h7.918V31z M597.418,2.445h7.918v10.078h0.08
	c1.24-1.76,3.279-2.799,5.68-2.799c6.959,0,8.838,5.879,8.838,10.798c0,5.239-2.84,10.998-8.719,10.998
	c-3.839,0-5.119-1.52-6.078-2.8h-0.08V31h-7.639V2.445z M608.535,15.482c-2.839,0-3.479,2.68-3.479,5.119
	c0,2.44,0.64,5.159,3.479,5.159c2.84,0,3.48-2.719,3.48-5.159C612.016,18.162,611.375,15.482,608.535,15.482z M623.697,23.082h8.318
	v6.279c0,3.799-1.319,7.199-4.879,8.398c-1.439,0.48-2.68,0.48-3.439,0.48v-3.479c1.96-0.16,3.439-1.839,3.56-3.759h-3.56V23.082z
	 M650.178,2.445h22.076v7.319h-13.278v3.559h11.397v6.799h-11.397V31h-8.798V2.445z M693.373,13.083
	c-0.199-1.04-0.959-4.199-4.599-4.199c-4.119,0-5.438,3.999-5.438,7.838s1.319,7.839,5.438,7.839c2.96,0,4.079-2.04,4.64-4.759
	h8.639c0,5.759-4.68,11.878-13.038,11.878c-9.239,0-14.478-6.519-14.478-14.958c0-8.958,5.679-14.957,14.478-14.957
	c7.878,0.04,12.157,4.119,12.917,11.318H693.373z M719.096,2.445h23.637v7.319h-14.838v3.559h13.478v6.799h-13.478v3.559h15.277V31
	h-24.076V2.445z M768.732,31h-7.639v-2.28h-0.08c-0.959,1.28-2.239,2.8-6.078,2.8c-5.88,0-8.719-5.759-8.719-10.998
	c0-4.919,1.879-10.798,8.838-10.798c2.4,0,4.439,1.04,5.68,2.799h0.08V2.445h7.918V31z M757.614,15.482
	c-2.839,0-3.479,2.68-3.479,5.119c0,2.44,0.641,5.159,3.479,5.159c2.84,0,3.479-2.719,3.479-5.159
	C761.094,18.162,760.454,15.482,757.614,15.482z M779.734,22.401c0.2,2.4,1.52,4.04,4.039,4.04c1.28,0,2.68-0.48,3.32-1.48h7.398
	c-1.6,4.479-5.999,6.559-10.678,6.559c-6.64,0-11.639-3.919-11.639-10.838c0-6.039,4.359-10.958,10.958-10.958
	c8.239,0,11.798,4.559,11.798,12.678H779.734z M787.333,18.282c0-1.92-1.439-3.479-3.479-3.479c-2.399,0-3.719,1.24-4.079,3.479
	H787.333z M798.256,2.445h7.918v10.078h0.08c1.24-1.76,3.279-2.799,5.68-2.799c6.958,0,8.838,5.879,8.838,10.798
	c0,5.239-2.84,10.998-8.719,10.998c-3.839,0-5.119-1.52-6.078-2.8h-0.08V31h-7.639V2.445z M809.373,15.482
	c-2.839,0-3.479,2.68-3.479,5.119c0,2.44,0.64,5.159,3.479,5.159c2.84,0,3.479-2.719,3.479-5.159
	C812.853,18.162,812.213,15.482,809.373,15.482z M830.854,22.401c0.199,2.4,1.52,4.04,4.039,4.04c1.279,0,2.68-0.48,3.319-1.48
	h7.398c-1.6,4.479-5.999,6.559-10.678,6.559c-6.639,0-11.639-3.919-11.639-10.838c0-6.039,4.359-10.958,10.959-10.958
	c8.238,0,11.798,4.559,11.798,12.678H830.854z M838.453,18.282c0-1.92-1.44-3.479-3.479-3.479c-2.399,0-3.72,1.24-4.079,3.479
	H838.453z M857.453,8.004h-7.919V2.445h7.919V8.004z M849.534,10.244h7.919V31h-7.919V10.244z M862.334,23.082h8.318v6.279
	c0,3.799-1.319,7.199-4.879,8.398c-1.439,0.48-2.68,0.48-3.439,0.48v-3.479c1.96-0.16,3.439-1.839,3.56-3.759h-3.56V23.082z
	 M57.9,74.361c0,1.56,0.04,3.319,0.96,4.639h-8.079c-0.2-0.6-0.32-1.36-0.28-1.959h-0.08c-1.72,1.919-4.119,2.479-6.679,2.479
	c-4,0-7.319-1.92-7.319-6.279c0-6.599,7.719-6.279,11.718-7.079c1.08-0.2,2.16-0.52,2.16-1.84c0-1.399-1.32-1.919-2.6-1.919
	c-2.399,0-2.959,1.24-2.959,2.12h-7.358c0.2-5.879,5.799-6.799,10.678-6.799c9.918,0,9.838,4.119,9.838,8.119V74.361z
	 M50.302,69.682c-0.959,0.48-2.04,0.72-3.119,1c-1.76,0.439-2.68,0.84-2.68,2.239c0,0.96,1.04,1.92,2.479,1.92
	c1.8,0,3.2-1.04,3.319-3.24V69.682z M62.104,58.244h7.639v2.639h0.08c1.479-2.08,3.559-3.159,6.759-3.159
	c3.719,0,7.119,2.28,7.119,7.039V79h-7.918V68.122c0-2.4-0.28-4.08-2.6-4.08c-1.4,0-3.16,0.68-3.16,4V79h-7.918V58.244z M109.62,79
	h-7.639v-2.28h-0.08c-0.959,1.28-2.239,2.8-6.079,2.8c-5.879,0-8.719-5.759-8.719-10.998c0-4.919,1.88-10.798,8.838-10.798
	c2.4,0,4.439,1.04,5.679,2.799h0.08V50.445h7.918V79z M98.501,63.482c-2.839,0-3.479,2.68-3.479,5.119
	c0,2.44,0.64,5.159,3.479,5.159c2.84,0,3.479-2.719,3.479-5.159C101.981,66.162,101.341,63.482,98.501,63.482z M136.822,58.244
	h4.239v4.879h-4.239v7.239c0,1.92,0.4,2.76,2.439,2.76c0.6,0,1.2-0.04,1.8-0.12V79c-1.6,0-3.359,0.24-5.079,0.24
	c-3.36,0-7.079-0.52-7.079-6.199v-9.918h-3.52v-4.879h3.52v-6.319h7.919V58.244z M143.583,50.445h7.918v10.038h0.08
	c1.32-1.6,3.12-2.759,6.479-2.759c3.719,0,7.119,2.28,7.119,7.039V79h-7.918V68.122c0-2.4-0.28-4.08-2.6-4.08
	c-1.4,0-3.16,0.68-3.16,4V79h-7.918V50.445z M176.182,70.401c0.2,2.4,1.52,4.04,4.04,4.04c1.28,0,2.68-0.48,3.319-1.48h7.399
	c-1.6,4.479-5.999,6.559-10.678,6.559c-6.639,0-11.638-3.919-11.638-10.838c0-6.039,4.359-10.958,10.958-10.958
	c8.239,0,11.798,4.559,11.798,12.678H176.182z M183.78,66.282c0-1.92-1.439-3.479-3.479-3.479c-2.4,0-3.72,1.24-4.08,3.479H183.78z
	 M218.5,79.52c-7.798,0-11.318-5.159-11.318-10.918c0-5.719,3.52-10.878,11.318-10.878c7.799,0,11.318,5.159,11.318,10.878
	C229.819,74.361,226.299,79.52,218.5,79.52z M218.5,63.482c-3.039,0-3.399,2.92-3.399,5.119c0,2.2,0.36,5.159,3.399,5.159
	c3.04,0,3.4-2.959,3.4-5.159C221.9,66.402,221.54,63.482,218.5,63.482z M259.618,79h-8.119l-3-12.758h-0.08L245.34,79h-8.119
	l-6.479-20.756h8.239l3.079,12.838h0.08l2.64-12.838h7.399l2.759,12.838h0.16l2.879-12.838h8.239L259.618,79z M268.062,58.244h7.639
	v2.639h0.08c1.479-2.08,3.559-3.159,6.759-3.159c3.719,0,7.119,2.28,7.119,7.039V79h-7.918V68.122c0-2.4-0.28-4.08-2.6-4.08
	c-1.4,0-3.16,0.68-3.16,4V79h-7.918V58.244z M300.661,70.401c0.2,2.4,1.52,4.04,4.04,4.04c1.28,0,2.68-0.48,3.319-1.48h7.399
	c-1.6,4.479-5.999,6.559-10.678,6.559c-6.639,0-11.638-3.919-11.638-10.838c0-6.039,4.359-10.958,10.958-10.958
	c8.239,0,11.798,4.559,11.798,12.678H300.661z M308.259,66.282c0-1.92-1.439-3.479-3.479-3.479c-2.4,0-3.72,1.24-4.08,3.479H308.259
	z M319.181,58.244h7.599v3.319h0.08c1.28-2.52,2.959-3.839,5.839-3.839c0.76,0,1.52,0.12,2.32,0.32v6.999
	c-0.8-0.28-1.52-0.52-3.12-0.52c-3.159,0-4.799,1.8-4.799,6.279V79h-7.918V58.244z M363.699,66.122c-0.08-0.88-0.36-1.52-0.88-1.959
	c-0.52-0.44-1.16-0.68-2-0.68c-3.04,0-3.479,2.64-3.479,5.159c0,2.56,0.44,5.119,3.479,5.119c1.72,0,2.919-1.399,3.08-3.04h7.559
	c-0.76,5.639-5.199,8.799-10.798,8.799c-6.239,0-11.238-4.319-11.238-10.878c0-6.559,4.999-10.918,11.238-10.918
	c5.479,0,10.038,2.64,10.558,8.398H363.699z M394.978,74.361c0,1.56,0.04,3.319,0.959,4.639h-8.079c-0.2-0.6-0.32-1.36-0.28-1.959
	h-0.08c-1.72,1.919-4.119,2.479-6.679,2.479c-4,0-7.319-1.92-7.319-6.279c0-6.599,7.719-6.279,11.718-7.079
	c1.08-0.2,2.16-0.52,2.16-1.84c0-1.399-1.32-1.919-2.6-1.919c-2.399,0-2.959,1.24-2.959,2.12h-7.358
	c0.2-5.879,5.799-6.799,10.678-6.799c9.918,0,9.838,4.119,9.838,8.119V74.361z M387.378,69.682c-0.959,0.48-2.04,0.72-3.119,1
	c-1.76,0.439-2.68,0.84-2.68,2.239c0,0.96,1.04,1.92,2.479,1.92c1.8,0,3.2-1.04,3.319-3.24V69.682z M399.14,58.244h7.639v2.759h0.08
	c1.6-2.399,3.919-3.279,6.799-3.279c2.24,0,4.639,1.16,5.599,3.239c0.32-0.2,1.919-3.239,7.079-3.239
	c5.319,0,7.119,3.679,7.119,7.039V79h-7.919V67.762c0-1.959-0.2-3.719-2.6-3.719c-2.04,0-2.679,1.52-2.679,3.719V79h-7.919V67.762
	c0-1.959-0.2-3.719-2.6-3.719c-2.04,0-2.68,1.52-2.68,3.719V79h-7.918V58.244z M444.379,70.401c0.2,2.4,1.52,4.04,4.04,4.04
	c1.28,0,2.679-0.48,3.32-1.48h7.398c-1.6,4.479-5.999,6.559-10.678,6.559c-6.639,0-11.638-3.919-11.638-10.838
	c0-6.039,4.359-10.958,10.958-10.958c8.239,0,11.798,4.559,11.798,12.678H444.379z M451.978,66.282c0-1.92-1.439-3.479-3.479-3.479
	c-2.4,0-3.72,1.24-4.08,3.479H451.978z M485.778,58.244h4.239v4.879h-4.239v7.239c0,1.92,0.399,2.76,2.439,2.76
	c0.6,0,1.2-0.04,1.8-0.12V79c-1.6,0-3.359,0.24-5.079,0.24c-3.36,0-7.079-0.52-7.079-6.199v-9.918h-3.52v-4.879h3.52v-6.319h7.919
	V58.244z M502.978,79.52c-7.798,0-11.317-5.159-11.317-10.918c0-5.719,3.52-10.878,11.317-10.878
	c7.799,0,11.318,5.159,11.318,10.878C514.296,74.361,510.776,79.52,502.978,79.52z M502.978,63.482c-3.039,0-3.399,2.92-3.399,5.119
	c0,2.2,0.36,5.159,3.399,5.159c3.04,0,3.399-2.959,3.399-5.159C506.377,66.402,506.018,63.482,502.978,63.482z M531.059,58.244
	h7.639v2.759h0.08c1.6-2.399,3.92-3.279,6.799-3.279c2.24,0,4.64,1.16,5.6,3.239c0.32-0.2,1.92-3.239,7.078-3.239
	c5.32,0,7.119,3.679,7.119,7.039V79h-7.918V67.762c0-1.959-0.2-3.719-2.6-3.719c-2.04,0-2.68,1.52-2.68,3.719V79h-7.919V67.762
	c0-1.959-0.2-3.719-2.6-3.719c-2.04,0-2.68,1.52-2.68,3.719V79h-7.919V58.244z M583.417,77.4c-0.64,1.879-1.36,4.199-2.6,5.759
	c-2.12,2.56-5.239,2.56-8.358,2.56h-3.6V79.4h1.84h1.279c0.439,0,0.84-0.08,1.12-0.2c0.479-0.28,0.76-0.64,0.76-1.56
	c0-0.96-3.04-8.639-3.479-9.838l-3.52-9.558h8.479l3.32,11.918h0.08l3.359-11.918h8.197L583.417,77.4z M605.219,50.445h7.919v10.038
	h0.08c1.319-1.6,3.12-2.759,6.479-2.759c3.719,0,7.118,2.28,7.118,7.039V79h-7.919V68.122c0-2.4-0.279-4.08-2.6-4.08
	c-1.399,0-3.159,0.68-3.159,4V79h-7.919V50.445z M641.576,79.52c-7.798,0-11.317-5.159-11.317-10.918
	c0-5.719,3.52-10.878,11.317-10.878c7.799,0,11.318,5.159,11.318,10.878C652.895,74.361,649.375,79.52,641.576,79.52z
	 M641.576,63.482c-3.039,0-3.398,2.92-3.398,5.119c0,2.2,0.359,5.159,3.398,5.159c3.04,0,3.4-2.959,3.4-5.159
	C644.977,66.402,644.616,63.482,641.576,63.482z M677.935,79h-7.639v-2.64h-0.08c-1.479,2.08-3.56,3.16-6.759,3.16
	c-3.719,0-7.119-2.28-7.119-7.039V58.244h7.919v10.878c0,2.4,0.24,4.08,2.6,4.08c1.399,0,3.159-0.68,3.159-4V58.244h7.919V79z
	 M694.256,64.282c-0.039-0.68-0.399-1.2-0.92-1.56c-0.479-0.4-1.079-0.6-1.76-0.6c-1.119,0-2.398,0.28-2.398,1.6
	c0,0.6,0.479,0.88,0.92,1.08c1.279,0.52,4.318,0.76,6.958,1.6c2.68,0.84,4.96,2.399,4.96,5.799c0,5.759-5.52,7.319-10.559,7.319
	c-4.879,0-10.238-1.96-10.358-7.319h7.559c0.04,0.68,0.36,1.32,0.96,1.84c0.439,0.4,1.16,0.6,2.119,0.6c1.04,0,2.68-0.4,2.68-1.6
	s-0.68-1.56-4.359-2.2c-6.039-1-8.479-2.959-8.479-6.519c0-5.239,5.639-6.599,9.799-6.599c4.479,0,9.878,1.24,10.078,6.559H694.256z
	 M711.896,70.401c0.2,2.4,1.52,4.04,4.039,4.04c1.28,0,2.68-0.48,3.32-1.48h7.398c-1.6,4.479-5.999,6.559-10.678,6.559
	c-6.64,0-11.639-3.919-11.639-10.838c0-6.039,4.359-10.958,10.958-10.958c8.239,0,11.798,4.559,11.798,12.678H711.896z
	 M719.495,66.282c0-1.92-1.439-3.479-3.479-3.479c-2.399,0-3.719,1.24-4.079,3.479H719.495z M753.296,58.244h4.239v4.879h-4.239
	v7.239c0,1.92,0.399,2.76,2.439,2.76c0.6,0,1.2-0.04,1.8-0.12V79c-1.6,0-3.359,0.24-5.079,0.24c-3.36,0-7.079-0.52-7.079-6.199
	v-9.918h-3.52v-4.879h3.52v-6.319h7.919V58.244z M770.495,79.52c-7.798,0-11.317-5.159-11.317-10.918
	c0-5.719,3.52-10.878,11.317-10.878c7.799,0,11.318,5.159,11.318,10.878C781.813,74.361,778.294,79.52,770.495,79.52z
	 M770.495,63.482c-3.039,0-3.399,2.92-3.399,5.119c0,2.2,0.36,5.159,3.399,5.159c3.04,0,3.399-2.959,3.399-5.159
	C773.895,66.402,773.535,63.482,770.495,63.482z M808.135,58.244h4.239v4.879h-4.239v7.239c0,1.92,0.4,2.76,2.439,2.76
	c0.601,0,1.2-0.04,1.8-0.12V79c-1.6,0-3.358,0.24-5.079,0.24c-3.359,0-7.078-0.52-7.078-6.199v-9.918h-3.52v-4.879h3.52v-6.319
	h7.918V58.244z M821.576,70.401c0.199,2.4,1.52,4.04,4.039,4.04c1.279,0,2.68-0.48,3.319-1.48h7.398
	c-1.6,4.479-5.999,6.559-10.678,6.559c-6.639,0-11.638-3.919-11.638-10.838c0-6.039,4.358-10.958,10.958-10.958
	c8.238,0,11.798,4.559,11.798,12.678H821.576z M829.175,66.282c0-1.92-1.44-3.479-3.479-3.479c-2.399,0-3.72,1.24-4.079,3.479
	H829.175z M840.256,50.445h7.919V79h-7.919V50.445z M852.855,50.445h7.919V79h-7.919V50.445z M68.384,106.244h7.639v2.759h0.08
	c1.6-2.399,3.919-3.279,6.799-3.279c2.24,0,4.639,1.16,5.599,3.239c0.32-0.2,1.919-3.239,7.079-3.239
	c5.319,0,7.119,3.679,7.119,7.039V127h-7.919v-11.238c0-1.959-0.2-3.719-2.6-3.719c-2.04,0-2.679,1.52-2.679,3.719V127h-7.919
	v-11.238c0-1.959-0.2-3.719-2.6-3.719c-2.04,0-2.68,1.52-2.68,3.719V127h-7.918V106.244z M120.742,125.4
	c-0.64,1.879-1.36,4.199-2.6,5.759c-2.12,2.56-5.239,2.56-8.359,2.56h-3.599V127.4h1.839h1.28c0.44,0,0.84-0.08,1.12-0.2
	c0.48-0.28,0.76-0.64,0.76-1.56c0-0.961-3.04-8.639-3.479-9.839l-3.52-9.558h8.479l3.319,11.918h0.08l3.359-11.918h8.198
	L120.742,125.4z M142.543,106.244h7.639v2.279h0.08c0.96-1.28,2.24-2.799,6.079-2.799c5.879,0,8.718,5.759,8.718,10.998
	c0,4.919-1.879,10.798-8.838,10.798c-2.4,0-4.439-1.039-5.679-2.799h-0.08v8.998h-7.918V106.244z M153.662,121.761
	c2.839,0,3.479-2.679,3.479-5.119c0-2.439-0.64-5.159-3.479-5.159s-3.479,2.72-3.479,5.159
	C150.182,119.082,150.822,121.761,153.662,121.761z M188.7,122.361c0,1.559,0.04,3.318,0.959,4.639h-8.079
	c-0.2-0.6-0.32-1.359-0.28-1.959h-0.08c-1.72,1.919-4.119,2.479-6.679,2.479c-4,0-7.319-1.92-7.319-6.278
	c0-6.599,7.719-6.279,11.718-7.079c1.08-0.2,2.16-0.52,2.16-1.84c0-1.399-1.32-1.919-2.6-1.919c-2.399,0-2.959,1.24-2.959,2.12
	h-7.358c0.2-5.879,5.799-6.799,10.678-6.799c9.918,0,9.838,4.119,9.838,8.119V122.361z M181.101,117.682
	c-0.959,0.48-2.04,0.72-3.119,1c-1.76,0.439-2.68,0.84-2.68,2.239c0,0.96,1.04,1.92,2.479,1.92c1.8,0,3.2-1.04,3.319-3.239V117.682z
	 M192.903,106.244h7.599v3.319h0.08c1.28-2.52,2.959-3.839,5.839-3.839c0.76,0,1.52,0.12,2.32,0.32v6.999
	c-0.8-0.28-1.52-0.52-3.12-0.52c-3.159,0-4.799,1.8-4.799,6.278V127h-7.918V106.244z M216.622,118.401
	c0.2,2.399,1.52,4.04,4.04,4.04c1.28,0,2.68-0.48,3.319-1.48h7.399c-1.6,4.479-5.999,6.559-10.678,6.559
	c-6.639,0-11.638-3.919-11.638-10.838c0-6.039,4.359-10.958,10.958-10.958c8.239,0,11.798,4.559,11.798,12.678H216.622z
	 M224.22,114.282c0-1.92-1.439-3.479-3.479-3.479c-2.4,0-3.72,1.24-4.08,3.479H224.22z M235.143,106.244h7.639v2.639h0.08
	c1.479-2.08,3.56-3.159,6.759-3.159c3.719,0,7.119,2.28,7.119,7.039V127h-7.918v-10.878c0-2.4-0.28-4.08-2.6-4.08
	c-1.4,0-3.16,0.68-3.16,4V127h-7.918V106.244z M270.581,106.244h4.239v4.879h-4.239v7.239c0,1.92,0.4,2.76,2.439,2.76
	c0.6,0,1.2-0.04,1.8-0.12V127c-1.6,0-3.359,0.24-5.079,0.24c-3.36,0-7.079-0.52-7.079-6.199v-9.918h-3.52v-4.879h3.52v-6.319h7.919
	V106.244z M289.34,112.282c-0.04-0.68-0.4-1.2-0.92-1.56c-0.48-0.4-1.08-0.6-1.76-0.6c-1.12,0-2.399,0.28-2.399,1.6
	c0,0.6,0.48,0.88,0.92,1.08c1.28,0.52,4.319,0.76,6.958,1.6c2.68,0.84,4.959,2.399,4.959,5.799c0,5.759-5.519,7.318-10.559,7.318
	c-4.879,0-10.238-1.959-10.358-7.318h7.559c0.04,0.68,0.36,1.32,0.96,1.84c0.44,0.4,1.16,0.6,2.12,0.6c1.04,0,2.679-0.4,2.679-1.6
	s-0.68-1.56-4.359-2.199c-6.039-1-8.479-2.96-8.479-6.52c0-5.239,5.639-6.599,9.798-6.599c4.479,0,9.878,1.24,10.078,6.559H289.34z
	 M324.1,127.52c-7.798,0-11.318-5.158-11.318-10.918c0-5.719,3.52-10.878,11.318-10.878c7.799,0,11.318,5.159,11.318,10.878
	C335.418,122.361,331.898,127.52,324.1,127.52z M324.1,111.482c-3.039,0-3.399,2.92-3.399,5.119s0.36,5.159,3.399,5.159
	c3.04,0,3.399-2.96,3.399-5.159S327.139,111.482,324.1,111.482z M340.181,111.123h-3.24v-4.879h3.24
	c-0.12-2.04,0.08-4.279,1.64-5.839c1.72-1.72,3.719-1.959,6.919-1.959c1.24,0,2.319,0.12,3.559,0.16v5.439
	c-0.64-0.12-1.28-0.28-1.919-0.28c-1.92,0-2.56,0.56-2.439,2.48h4.159v4.879h-4V127h-7.918V111.123z M388.018,122.361
	c0,1.559,0.04,3.318,0.96,4.639h-8.079c-0.2-0.6-0.32-1.359-0.28-1.959h-0.08c-1.72,1.919-4.119,2.479-6.679,2.479
	c-4,0-7.319-1.92-7.319-6.278c0-6.599,7.719-6.279,11.718-7.079c1.08-0.2,2.16-0.52,2.16-1.84c0-1.399-1.32-1.919-2.6-1.919
	c-2.399,0-2.959,1.24-2.959,2.12h-7.358c0.2-5.879,5.799-6.799,10.678-6.799c9.918,0,9.838,4.119,9.838,8.119V122.361z
	 M380.419,117.682c-0.959,0.48-2.04,0.72-3.119,1c-1.76,0.439-2.68,0.84-2.68,2.239c0,0.96,1.04,1.92,2.479,1.92
	c1.8,0,3.2-1.04,3.319-3.239V117.682z M392.221,106.244h7.639v2.639h0.08c1.479-2.08,3.56-3.159,6.759-3.159
	c3.719,0,7.119,2.28,7.119,7.039V127h-7.918v-10.878c0-2.4-0.28-4.08-2.6-4.08c-1.4,0-3.16,0.68-3.16,4V127h-7.918V106.244z
	 M441.938,127.52c-7.798,0-11.318-5.158-11.318-10.918c0-5.719,3.52-10.878,11.318-10.878c7.799,0,11.318,5.159,11.318,10.878
	C453.257,122.361,449.737,127.52,441.938,127.52z M441.938,111.482c-3.039,0-3.399,2.92-3.399,5.119s0.36,5.159,3.399,5.159
	c3.04,0,3.399-2.96,3.399-5.159S444.978,111.482,441.938,111.482z M456.7,106.244h7.639v2.279h0.08
	c0.96-1.28,2.239-2.799,6.079-2.799c5.879,0,8.719,5.759,8.719,10.998c0,4.919-1.88,10.798-8.839,10.798
	c-2.399,0-4.439-1.039-5.679-2.799h-0.08v8.998H456.7V106.244z M467.818,121.761c2.84,0,3.479-2.679,3.479-5.119
	c0-2.439-0.64-5.159-3.479-5.159s-3.479,2.72-3.479,5.159C464.339,119.082,464.979,121.761,467.818,121.761z M482.62,106.244h7.639
	v2.279h0.08c0.96-1.28,2.239-2.799,6.079-2.799c5.879,0,8.719,5.759,8.719,10.998c0,4.919-1.88,10.798-8.839,10.798
	c-2.399,0-4.439-1.039-5.679-2.799h-0.08v8.998h-7.919V106.244z M493.738,121.761c2.84,0,3.479-2.679,3.479-5.119
	c0-2.439-0.64-5.159-3.479-5.159s-3.479,2.72-3.479,5.159C490.259,119.082,490.898,121.761,493.738,121.761z M518.978,127.52
	c-7.798,0-11.317-5.158-11.317-10.918c0-5.719,3.52-10.878,11.317-10.878c7.799,0,11.318,5.159,11.318,10.878
	C530.296,122.361,526.776,127.52,518.978,127.52z M518.978,111.482c-3.039,0-3.399,2.92-3.399,5.119s0.36,5.159,3.399,5.159
	c3.04,0,3.399-2.96,3.399-5.159S522.018,111.482,518.978,111.482z M533.739,106.244h7.599v3.319h0.08
	c1.279-2.52,2.959-3.839,5.839-3.839c0.76,0,1.521,0.12,2.319,0.32v6.999c-0.799-0.28-1.52-0.52-3.119-0.52
	c-3.159,0-4.799,1.8-4.799,6.278V127h-7.919V106.244z M561.018,106.244h4.238v4.879h-4.238v7.239c0,1.92,0.399,2.76,2.439,2.76
	c0.6,0,1.199-0.04,1.799-0.12V127c-1.6,0-3.359,0.24-5.078,0.24c-3.36,0-7.08-0.52-7.08-6.199v-9.918h-3.52v-4.879h3.52v-6.319h7.92
	V106.244z M589.375,127h-7.639v-2.64h-0.08c-1.479,2.079-3.559,3.159-6.759,3.159c-3.72,0-7.118-2.279-7.118-7.039v-14.237h7.918
	v10.877c0,2.4,0.24,4.08,2.6,4.08c1.4,0,3.16-0.68,3.16-4v-10.958h7.918V127z M593.699,106.244h7.639v2.639h0.08
	c1.479-2.08,3.559-3.159,6.758-3.159c3.72,0,7.119,2.28,7.119,7.039V127h-7.918v-10.878c0-2.4-0.28-4.08-2.6-4.08
	c-1.4,0-3.16,0.68-3.16,4V127h-7.918V106.244z M627.697,104.004h-7.919v-5.559h7.919V104.004z M619.778,106.244h7.919V127h-7.919
	V106.244z M641.736,106.244h4.239v4.879h-4.239v7.239c0,1.92,0.4,2.76,2.439,2.76c0.6,0,1.199-0.04,1.8-0.12V127
	c-1.601,0-3.359,0.24-5.079,0.24c-3.359,0-7.079-0.52-7.079-6.199v-9.918h-3.52v-4.879h3.52v-6.319h7.919V106.244z M662.295,125.4
	c-0.64,1.879-1.359,4.199-2.6,5.759c-2.119,2.56-5.238,2.56-8.358,2.56h-3.599V127.4h1.839h1.28c0.439,0,0.84-0.08,1.119-0.2
	c0.48-0.28,0.76-0.64,0.76-1.56c0-0.961-3.039-8.639-3.479-9.839l-3.52-9.558h8.479l3.319,11.918h0.08l3.359-11.918h8.198
	L662.295,125.4z M692.176,104.004h-7.918v-5.559h7.918V104.004z M684.258,106.244h7.918V127h-7.918V106.244z M696.697,106.244h7.639
	v2.639h0.08c1.479-2.08,3.56-3.159,6.759-3.159c3.72,0,7.118,2.28,7.118,7.039V127h-7.918v-10.878c0-2.4-0.279-4.08-2.6-4.08
	c-1.4,0-3.16,0.68-3.16,4V127h-7.918V106.244z M736.098,98.445h8.798V127h-8.798V98.445z M758.814,106.244h4.24v4.879h-4.24v7.239
	c0,1.92,0.4,2.76,2.439,2.76c0.601,0,1.2-0.04,1.801-0.12V127c-1.601,0-3.359,0.24-5.08,0.24c-3.359,0-7.078-0.52-7.078-6.199
	v-9.918h-3.52v-4.879h3.52v-6.319h7.918V106.244z M785.813,122.361c0,1.559,0.04,3.318,0.96,4.639h-8.079
	c-0.2-0.6-0.319-1.359-0.28-1.959h-0.08c-1.719,1.919-4.119,2.479-6.678,2.479c-4,0-7.319-1.92-7.319-6.278
	c0-6.599,7.719-6.279,11.718-7.079c1.08-0.2,2.16-0.52,2.16-1.84c0-1.399-1.32-1.919-2.6-1.919c-2.4,0-2.96,1.24-2.96,2.12h-7.358
	c0.199-5.879,5.799-6.799,10.678-6.799c9.918,0,9.839,4.119,9.839,8.119V122.361z M778.215,117.682c-0.96,0.48-2.04,0.72-3.119,1
	c-1.76,0.439-2.68,0.84-2.68,2.239c0,0.96,1.039,1.92,2.479,1.92c1.801,0,3.2-1.04,3.32-3.239V117.682z M790.176,98.445h7.919V127
	h-7.919V98.445z M816.413,125.4c-0.64,1.879-1.359,4.199-2.6,5.759c-2.119,2.56-5.239,2.56-8.358,2.56h-3.6V127.4h1.84h1.279
	c0.44,0,0.84-0.08,1.121-0.2c0.479-0.28,0.76-0.64,0.76-1.56c0-0.961-3.04-8.639-3.48-9.839l-3.52-9.558h8.479l3.319,11.918h0.08
	l3.359-11.918h8.198L816.413,125.4z M821.536,119.082h8.318V127h-8.318V119.082z M100.364,146.445h8.798V175h-8.798V146.445z
	 M136.442,154.244h4.239v4.879h-4.239v7.238c0,1.92,0.4,2.76,2.439,2.76c0.6,0,1.2-0.04,1.8-0.12V175c-1.6,0-3.359,0.24-5.079,0.24
	c-3.36,0-7.079-0.52-7.079-6.199v-9.918h-3.52v-4.879h3.52v-6.32h7.919V154.244z M153.641,175.52
	c-7.798,0-11.318-5.158-11.318-10.918c0-5.719,3.52-10.878,11.318-10.878c7.799,0,11.318,5.159,11.318,10.878
	C164.959,170.361,161.44,175.52,153.641,175.52z M153.641,159.482c-3.039,0-3.399,2.92-3.399,5.119s0.36,5.159,3.399,5.159
	c3.04,0,3.4-2.96,3.4-5.159S156.681,159.482,153.641,159.482z M168.563,146.445h7.918V175h-7.918V146.445z M202.599,175h-7.639
	v-2.279h-0.08c-0.959,1.279-2.239,2.799-6.079,2.799c-5.879,0-8.719-5.759-8.719-10.998c0-4.919,1.88-10.798,8.838-10.798
	c2.4,0,4.439,1.04,5.679,2.8h0.08v-10.078h7.918V175z M191.48,159.482c-2.839,0-3.479,2.68-3.479,5.119s0.64,5.159,3.479,5.159
	c2.84,0,3.479-2.72,3.479-5.159S194.32,159.482,191.48,159.482z M229.801,154.244h4.239v4.879h-4.239v7.238
	c0,1.92,0.4,2.76,2.439,2.76c0.6,0,1.2-0.04,1.8-0.12V175c-1.6,0-3.359,0.24-5.079,0.24c-3.36,0-7.079-0.52-7.079-6.199v-9.918
	h-3.52v-4.879h3.52v-6.32h7.919V154.244z M236.562,146.445h7.918v10.037h0.08c1.32-1.6,3.12-2.759,6.479-2.759
	c3.719,0,7.119,2.28,7.119,7.038V175h-7.918v-10.878c0-2.399-0.28-4.079-2.6-4.079c-1.4,0-3.16,0.68-3.16,3.999V175h-7.918V146.445z
	 M269.161,166.401c0.2,2.399,1.52,4.04,4.04,4.04c1.28,0,2.68-0.48,3.319-1.48h7.399c-1.6,4.479-5.999,6.559-10.678,6.559
	c-6.639,0-11.638-3.919-11.638-10.838c0-6.039,4.359-10.958,10.958-10.958c8.239,0,11.798,4.56,11.798,12.678H269.161z
	 M276.759,162.282c0-1.92-1.439-3.479-3.479-3.479c-2.4,0-3.72,1.24-4.08,3.479H276.759z M287.641,154.244h7.639v2.759h0.08
	c1.6-2.399,3.919-3.279,6.799-3.279c2.24,0,4.639,1.159,5.599,3.239c0.32-0.199,1.919-3.239,7.079-3.239
	c5.319,0,7.119,3.679,7.119,7.038V175h-7.919v-11.238c0-1.959-0.2-3.719-2.6-3.719c-2.04,0-2.679,1.52-2.679,3.719V175h-7.919
	v-11.238c0-1.959-0.2-3.719-2.6-3.719c-2.04,0-2.68,1.52-2.68,3.719V175h-7.918V154.244z M349.08,154.244h4.239v4.879h-4.239v7.238
	c0,1.92,0.4,2.76,2.439,2.76c0.6,0,1.2-0.04,1.8-0.12V175c-1.6,0-3.359,0.24-5.079,0.24c-3.36,0-7.079-0.52-7.079-6.199v-9.918
	h-3.52v-4.879h3.52v-6.32h7.919V154.244z M355.841,146.445h7.918v10.037h0.08c1.32-1.6,3.12-2.759,6.479-2.759
	c3.719,0,7.119,2.28,7.119,7.038V175h-7.918v-10.878c0-2.399-0.28-4.079-2.6-4.079c-1.4,0-3.16,0.68-3.16,3.999V175h-7.918V146.445z
	 M388.44,166.401c0.2,2.399,1.52,4.04,4.04,4.04c1.28,0,2.68-0.48,3.319-1.48h7.399c-1.6,4.479-5.999,6.559-10.678,6.559
	c-6.639,0-11.638-3.919-11.638-10.838c0-6.039,4.359-10.958,10.958-10.958c8.239,0,11.798,4.56,11.798,12.678H388.44z
	 M396.039,162.282c0-1.92-1.439-3.479-3.479-3.479c-2.4,0-3.72,1.24-4.08,3.479H396.039z M420.758,173.4
	c-0.64,1.879-1.36,4.199-2.6,5.759c-2.12,2.56-5.239,2.56-8.359,2.56h-3.599V175.4h1.839h1.28c0.44,0,0.84-0.08,1.12-0.2
	c0.48-0.28,0.76-0.64,0.76-1.56c0-0.961-3.04-8.639-3.479-9.839l-3.52-9.558h8.479l3.319,11.918h0.08l3.359-11.918h8.198
	L420.758,173.4z M454.559,160.282c-0.04-0.68-0.4-1.2-0.92-1.56c-0.48-0.4-1.08-0.6-1.76-0.6c-1.12,0-2.399,0.279-2.399,1.6
	c0,0.6,0.48,0.88,0.92,1.08c1.28,0.52,4.319,0.76,6.958,1.6c2.68,0.84,4.96,2.399,4.96,5.799c0,5.759-5.519,7.318-10.559,7.318
	c-4.879,0-10.238-1.959-10.358-7.318h7.559c0.04,0.68,0.36,1.32,0.96,1.84c0.44,0.4,1.16,0.6,2.12,0.6c1.039,0,2.68-0.4,2.68-1.6
	s-0.68-1.56-4.359-2.199c-6.039-1-8.479-2.96-8.479-6.52c0-5.238,5.639-6.599,9.799-6.599c4.479,0,9.877,1.239,10.078,6.559H454.559
	z M465.52,146.445h7.919v10.037h0.08c1.319-1.6,3.12-2.759,6.479-2.759c3.719,0,7.118,2.28,7.118,7.038V175h-7.919v-10.878
	c0-2.399-0.279-4.079-2.6-4.079c-1.399,0-3.159,0.68-3.159,3.999V175h-7.919V146.445z M501.878,175.52
	c-7.798,0-11.317-5.158-11.317-10.918c0-5.719,3.52-10.878,11.317-10.878c7.799,0,11.318,5.159,11.318,10.878
	C513.196,170.361,509.677,175.52,501.878,175.52z M501.878,159.482c-3.039,0-3.399,2.92-3.399,5.119s0.36,5.159,3.399,5.159
	c3.04,0,3.399-2.96,3.399-5.159S504.918,159.482,501.878,159.482z M538.236,175h-7.639v-2.64h-0.08
	c-1.48,2.079-3.56,3.159-6.76,3.159c-3.719,0-7.118-2.279-7.118-7.039v-14.236h7.919v10.877c0,2.4,0.24,4.08,2.6,4.08
	c1.399,0,3.159-0.68,3.159-4v-10.957h7.919V175z M542.719,146.445h7.919V175h-7.919V146.445z M576.755,175h-7.639v-2.279h-0.08
	c-0.96,1.279-2.239,2.799-6.079,2.799c-5.879,0-8.719-5.759-8.719-10.998c0-4.919,1.881-10.798,8.839-10.798
	c2.399,0,4.439,1.04,5.679,2.8h0.08v-10.078h7.919V175z M565.637,159.482c-2.84,0-3.479,2.68-3.479,5.119s0.639,5.159,3.479,5.159
	s3.479-2.72,3.479-5.159S568.477,159.482,565.637,159.482z M594.599,146.445h7.919V175h-7.919V146.445z M613.717,166.401
	c0.2,2.399,1.52,4.04,4.039,4.04c1.28,0,2.68-0.48,3.32-1.48h7.398c-1.6,4.479-5.999,6.559-10.678,6.559
	c-6.64,0-11.639-3.919-11.639-10.838c0-6.039,4.359-10.958,10.958-10.958c8.239,0,11.798,4.56,11.798,12.678H613.717z
	 M621.315,162.282c0-1.92-1.439-3.479-3.479-3.479c-2.399,0-3.719,1.24-4.079,3.479H621.315z M641.756,154.244h4.24v4.879h-4.24
	v7.238c0,1.92,0.4,2.76,2.439,2.76c0.601,0,1.2-0.04,1.801-0.12V175c-1.601,0-3.359,0.24-5.08,0.24c-3.359,0-7.078-0.52-7.078-6.199
	v-9.918h-3.52v-4.879h3.52v-6.32h7.918V154.244z M661.838,154.244h7.639v2.759h0.08c1.6-2.399,3.919-3.279,6.799-3.279
	c2.239,0,4.639,1.159,5.599,3.239c0.319-0.199,1.919-3.239,7.079-3.239c5.318,0,7.119,3.679,7.119,7.038V175h-7.92v-11.238
	c0-1.959-0.199-3.719-2.6-3.719c-2.039,0-2.679,1.52-2.679,3.719V175h-7.919v-11.238c0-1.959-0.199-3.719-2.6-3.719
	c-2.039,0-2.68,1.52-2.68,3.719V175h-7.918V154.244z M707.076,166.401c0.2,2.399,1.52,4.04,4.039,4.04c1.28,0,2.68-0.48,3.32-1.48
	h7.398c-1.6,4.479-5.999,6.559-10.678,6.559c-6.64,0-11.639-3.919-11.639-10.838c0-6.039,4.359-10.958,10.958-10.958
	c8.239,0,11.798,4.56,11.798,12.678H707.076z M714.675,162.282c0-1.92-1.439-3.479-3.479-3.479c-2.399,0-3.719,1.24-4.079,3.479
	H714.675z M760.113,172.32c0,4.16-1.08,9.918-10.798,9.918c-4.919,0-10.079-1.319-10.839-6.918h7.84
	c0.119,0.199,0.279,0.439,0.439,0.72c0.48,0.76,1.32,1.52,2.319,1.52c2.56,0,3.12-3.04,3.12-4.759v-1.92h-0.08
	c-1.28,1.879-3.16,2.879-5.56,2.879c-6.119,0-8.878-4.559-8.878-10.117c0-5.4,3.079-9.919,8.998-9.919c2.359,0,4.52,0.92,5.439,3.04
	h0.08v-2.52h7.918V172.32z M749.155,168.682c2.919,0,3.239-2.801,3.239-5.119c0-2.28-1.08-4.08-3.439-4.08
	c-2.279,0-3.359,1.92-3.359,4.119C745.596,165.961,746.316,168.682,749.155,168.682z M774.595,175.52
	c-7.798,0-11.317-5.158-11.317-10.918c0-5.719,3.52-10.878,11.317-10.878c7.799,0,11.318,5.159,11.318,10.878
	C785.913,170.361,782.394,175.52,774.595,175.52z M774.595,159.482c-3.039,0-3.399,2.92-3.399,5.119s0.36,5.159,3.399,5.159
	c3.04,0,3.399-2.96,3.399-5.159S777.635,159.482,774.595,159.482z M789.716,167.082h8.319v6.278c0,3.8-1.32,7.198-4.88,8.398
	c-1.44,0.479-2.68,0.479-3.439,0.479v-3.479c1.96-0.16,3.439-1.84,3.56-3.76h-3.56V167.082z M213.103,194.445h7.918V223h-7.918
	V194.445z M232.221,214.401c0.2,2.399,1.52,4.04,4.04,4.04c1.28,0,2.68-0.48,3.319-1.48h7.399c-1.6,4.479-5.999,6.559-10.678,6.559
	c-6.639,0-11.638-3.919-11.638-10.838c0-6.039,4.359-10.958,10.958-10.958c8.239,0,11.798,4.56,11.798,12.678H232.221z
	 M239.819,210.282c0-1.92-1.439-3.479-3.479-3.479c-2.4,0-3.72,1.24-4.08,3.479H239.819z M260.26,202.244h4.239v4.879h-4.239v7.238
	c0,1.92,0.4,2.76,2.439,2.76c0.6,0,1.2-0.04,1.8-0.12V223c-1.6,0-3.359,0.24-5.079,0.24c-3.36,0-7.079-0.52-7.079-6.199v-9.918
	h-3.52v-4.879h3.52v-6.32h7.919V202.244z M274.46,201.004c0,4.239-1,7.639-7.358,8.598v-3.479c2.399-0.28,3.239-1.68,3.279-3.76
	h-3.279v-7.918h7.358V201.004z M287.899,208.282c-0.04-0.68-0.4-1.2-0.92-1.56c-0.48-0.4-1.08-0.6-1.76-0.6
	c-1.12,0-2.399,0.279-2.399,1.6c0,0.6,0.48,0.88,0.92,1.08c1.28,0.52,4.319,0.76,6.958,1.6c2.68,0.84,4.959,2.399,4.959,5.799
	c0,5.759-5.519,7.318-10.559,7.318c-4.879,0-10.238-1.959-10.358-7.318h7.559c0.04,0.68,0.36,1.32,0.96,1.84
	c0.44,0.4,1.16,0.6,2.12,0.6c1.04,0,2.679-0.4,2.679-1.6s-0.68-1.56-4.359-2.199c-6.039-1-8.479-2.96-8.479-6.52
	c0-5.238,5.639-6.599,9.798-6.599c4.479,0,9.878,1.239,10.078,6.559H287.899z M324.219,208.282c-0.04-0.68-0.4-1.2-0.92-1.56
	c-0.48-0.4-1.08-0.6-1.76-0.6c-1.12,0-2.399,0.279-2.399,1.6c0,0.6,0.48,0.88,0.92,1.08c1.28,0.52,4.319,0.76,6.958,1.6
	c2.68,0.84,4.959,2.399,4.959,5.799c0,5.759-5.519,7.318-10.559,7.318c-4.879,0-10.238-1.959-10.358-7.318h7.559
	c0.04,0.68,0.36,1.32,0.96,1.84c0.44,0.4,1.16,0.6,2.12,0.6c1.04,0,2.679-0.4,2.679-1.6s-0.68-1.56-4.359-2.199
	c-6.039-1-8.479-2.96-8.479-6.52c0-5.238,5.639-6.599,9.798-6.599c4.479,0,9.878,1.239,10.078,6.559H324.219z M341.859,214.401
	c0.2,2.399,1.52,4.04,4.04,4.04c1.28,0,2.68-0.48,3.319-1.48h7.399c-1.6,4.479-5.999,6.559-10.678,6.559
	c-6.639,0-11.638-3.919-11.638-10.838c0-6.039,4.359-10.958,10.958-10.958c8.239,0,11.798,4.56,11.798,12.678H341.859z
	 M349.458,210.282c0-1.92-1.439-3.479-3.479-3.479c-2.4,0-3.72,1.24-4.08,3.479H349.458z M367.059,214.401
	c0.2,2.399,1.52,4.04,4.04,4.04c1.28,0,2.68-0.48,3.319-1.48h7.399c-1.6,4.479-5.999,6.559-10.678,6.559
	c-6.639,0-11.638-3.919-11.638-10.838c0-6.039,4.359-10.958,10.958-10.958c8.239,0,11.798,4.56,11.798,12.678H367.059z
	 M374.658,210.282c0-1.92-1.439-3.479-3.479-3.479c-2.4,0-3.72,1.24-4.08,3.479H374.658z M425.295,223h-8.119l-3-12.758h-0.08
	L411.018,223h-8.119l-6.479-20.756h8.239l3.079,12.838h0.08l2.64-12.838h7.399l2.759,12.838h0.16l2.879-12.838h8.239L425.295,223z
	 M433.74,194.445h7.918v10.037h0.08c1.32-1.6,3.12-2.759,6.479-2.759c3.719,0,7.119,2.28,7.119,7.038V223h-7.918v-10.878
	c0-2.399-0.28-4.079-2.6-4.079c-1.4,0-3.16,0.68-3.16,3.999V223h-7.918V194.445z M479.896,218.361c0,1.559,0.04,3.318,0.96,4.639
	h-8.078c-0.2-0.6-0.32-1.359-0.28-1.959h-0.08c-1.72,1.919-4.119,2.479-6.679,2.479c-4,0-7.318-1.92-7.318-6.278
	c0-6.599,7.719-6.279,11.717-7.079c1.08-0.199,2.16-0.52,2.16-1.84c0-1.399-1.32-1.92-2.6-1.92c-2.399,0-2.959,1.24-2.959,2.12
	h-7.359c0.2-5.879,5.799-6.799,10.679-6.799c9.918,0,9.838,4.119,9.838,8.118V218.361z M472.297,213.682
	c-0.959,0.48-2.039,0.72-3.119,1c-1.76,0.439-2.68,0.84-2.68,2.239c0,0.96,1.039,1.92,2.479,1.92c1.8,0,3.2-1.04,3.319-3.239
	V213.682z M493.617,202.244h4.24v4.879h-4.24v7.238c0,1.92,0.4,2.76,2.439,2.76c0.601,0,1.2-0.04,1.801-0.12V223
	c-1.601,0-3.359,0.24-5.08,0.24c-3.359,0-7.078-0.52-7.078-6.199v-9.918h-3.52v-4.879h3.52v-6.32h7.918V202.244z M513.738,194.445
	h7.919v10.037h0.08c1.319-1.6,3.12-2.759,6.479-2.759c3.719,0,7.118,2.28,7.118,7.038V223h-7.919v-10.878
	c0-2.399-0.279-4.079-2.6-4.079c-1.399,0-3.159,0.68-3.159,3.999V223h-7.919V194.445z M559.896,218.361
	c0,1.559,0.04,3.318,0.96,4.639h-8.079c-0.2-0.6-0.319-1.359-0.28-1.959h-0.08c-1.719,1.919-4.119,2.479-6.678,2.479
	c-4,0-7.319-1.92-7.319-6.278c0-6.599,7.719-6.279,11.718-7.079c1.08-0.199,2.16-0.52,2.16-1.84c0-1.399-1.32-1.92-2.6-1.92
	c-2.4,0-2.96,1.24-2.96,2.12h-7.358c0.199-5.879,5.799-6.799,10.678-6.799c9.918,0,9.839,4.119,9.839,8.118V218.361z
	 M552.297,213.682c-0.96,0.48-2.04,0.72-3.119,1c-1.76,0.439-2.68,0.84-2.68,2.239c0,0.96,1.039,1.92,2.479,1.92
	c1.801,0,3.2-1.04,3.32-3.239V213.682z M564.098,202.244h7.639v2.279h0.08c0.961-1.28,2.24-2.8,6.08-2.8
	c5.879,0,8.718,5.759,8.718,10.998c0,4.919-1.88,10.798-8.839,10.798c-2.399,0-4.439-1.039-5.679-2.799h-0.08v8.998h-7.919V202.244z
	 M575.217,217.761c2.839,0,3.479-2.679,3.479-5.119c0-2.439-0.64-5.159-3.479-5.159c-2.84,0-3.48,2.72-3.48,5.159
	C571.736,215.082,572.377,217.761,575.217,217.761z M590.018,202.244h7.639v2.279h0.08c0.961-1.28,2.24-2.8,6.08-2.8
	c5.879,0,8.718,5.759,8.718,10.998c0,4.919-1.88,10.798-8.839,10.798c-2.399,0-4.439-1.039-5.679-2.799h-0.08v8.998h-7.919V202.244z
	 M601.137,217.761c2.839,0,3.479-2.679,3.479-5.119c0-2.439-0.64-5.159-3.479-5.159c-2.84,0-3.48,2.72-3.48,5.159
	C597.656,215.082,598.297,217.761,601.137,217.761z M622.617,214.401c0.199,2.399,1.52,4.04,4.039,4.04
	c1.279,0,2.68-0.48,3.319-1.48h7.399c-1.601,4.479-6,6.559-10.679,6.559c-6.64,0-11.638-3.919-11.638-10.838
	c0-6.039,4.359-10.958,10.957-10.958c8.239,0,11.799,4.56,11.799,12.678H622.617z M630.215,210.282c0-1.92-1.439-3.479-3.479-3.479
	c-2.4,0-3.72,1.24-4.08,3.479H630.215z M641.138,202.244h7.639v2.639h0.08c1.479-2.08,3.56-3.159,6.759-3.159
	c3.719,0,7.119,2.28,7.119,7.038V223h-7.919v-10.878c0-2.399-0.28-4.079-2.6-4.079c-1.399,0-3.159,0.68-3.159,3.999V223h-7.919
	V202.244z M679.055,208.282c-0.039-0.68-0.399-1.2-0.92-1.56c-0.479-0.4-1.079-0.6-1.76-0.6c-1.119,0-2.398,0.279-2.398,1.6
	c0,0.6,0.479,0.88,0.92,1.08c1.279,0.52,4.318,0.76,6.958,1.6c2.68,0.84,4.96,2.399,4.96,5.799c0,5.759-5.52,7.318-10.559,7.318
	c-4.879,0-10.238-1.959-10.358-7.318h7.559c0.04,0.68,0.36,1.32,0.96,1.84c0.439,0.4,1.16,0.6,2.119,0.6c1.04,0,2.68-0.4,2.68-1.6
	s-0.68-1.56-4.359-2.199c-6.039-1-8.479-2.96-8.479-6.52c0-5.238,5.639-6.599,9.799-6.599c4.479,0,9.878,1.239,10.078,6.559H679.055
	z M690.377,215.082h8.318V223h-8.318V215.082z M906-6H-6v242h912V-6z"/>
</svg>
