<?xml version="1.0" encoding="utf-8"?>
<!-- Generator: Adobe Illustrator 16.0.0, SVG Export Plug-In . SVG Version: 6.00 Build 0)  -->
<!DOCTYPE svg PUBLIC "-//W3C//DTD SVG 1.1//EN" "http://www.w3.org/Graphics/SVG/1.1/DTD/svg11.dtd">
<svg version="1.1" id="Layer_1" xmlns="http://www.w3.org/2000/svg" xmlns:xlink="http://www.w3.org/1999/xlink" x="0px" y="0px"
	 width="900px" height="185px" viewBox="0 0 900 185" enable-background="new 0 0 900 185" xml:space="preserve">
<text transform="matrix(1 0 0 1 467.4658 -388.5)"><tspan x="0" y="0" font-family="'HelveticaNeueLTPro-Blk'" font-size="40">The flip came at the suggestion of a friend </tspan><tspan x="44.499" y="48" font-family="'HelveticaNeueLTPro-Blk'" font-size="40">as a goal celebration. When I saw how </tspan><tspan x="80.079" y="96" font-family="'HelveticaNeueLTPro-Blk'" font-size="40">people would react to the flip after </tspan><tspan x="153.438" y="144" font-family="'HelveticaNeueLTPro-Blk'" font-size="40">I scored, I knew it was right.</tspan></text>
<path fill="#FFFFFF" d="M136.587,306.559h-7.667V326.5h-6.695v-19.941h-7.667v-5.76h22.029V306.559z M139.29,300.799h6.119v9.575
	h0.072c0.972-1.907,3.456-3.096,5.687-3.096c6.228,0,6.731,4.536,6.731,7.235V326.5h-6.12v-9.035v-1.871
	c0-1.801-0.612-3.275-3.06-3.275c-2.304,0-3.312,1.979-3.312,3.995V326.5h-6.119V300.799z M167.188,318.652
	c0.108,2.592,1.584,4.248,4.176,4.248c1.476,0,2.916-0.648,3.491-2.052h5.724c-1.152,4.319-5.111,6.191-9.287,6.191
	c-6.083,0-10.223-3.672-10.223-9.935c0-5.724,4.571-9.827,10.079-9.827c6.695,0,10.043,5.04,9.755,11.374H167.188z M174.784,315.233
	c-0.108-2.124-1.584-3.815-3.636-3.815c-2.16,0-3.563,1.512-3.959,3.815H174.784z M196.637,311.777h-2.952v-3.959h2.952
	c0-5.363,1.872-7.02,7.091-7.02c0.972,0,1.98,0.072,2.952,0.108v4.319c-0.576-0.072-1.116-0.107-1.656-0.107
	c-1.404,0-2.268,0.18-2.268,1.871v0.828h3.671v3.959h-3.671V326.5h-6.119V311.777z M208.84,300.799h6.119V326.5h-6.119V300.799z
	 M225.615,305.479h-6.119v-4.68h6.119V305.479z M219.496,307.818h6.119V326.5h-6.119V307.818z M229.936,307.818h5.831v2.16h0.072
	c1.224-1.801,2.952-2.7,5.147-2.7c5.867,0,8.351,5.003,8.351,10.295c0,4.859-2.591,9.467-7.883,9.467
	c-2.268,0-4.067-0.864-5.327-2.556h-0.072v8.279h-6.119V307.818z M235.839,316.961c0,3.275,0.936,5.399,3.708,5.399
	c2.7,0,3.671-2.843,3.671-5.399c0-2.375-0.9-5.003-3.635-5.003C237.962,311.958,235.839,313.074,235.839,316.961z M276.122,314.658
	c0-1.584-1.44-2.7-2.988-2.7c-3.419,0-3.959,2.915-3.959,5.507c0,2.412,1.044,4.896,3.636,4.896c2.16,0,3.204-1.188,3.492-3.204
	h5.939c-0.576,5.04-4.392,7.884-9.395,7.884c-5.615,0-9.791-3.815-9.791-9.575c0-5.939,3.779-10.187,9.791-10.187
	c4.68,0,8.747,2.483,9.215,7.38H276.122z M285.05,313.578c0.108-2.448,1.224-4.032,2.916-5.004s3.78-1.296,5.939-1.296
	c4.427,0,8.711,0.972,8.711,6.263v8.172c0,1.584,0,3.312,0.72,4.787h-6.155c-0.252-0.576-0.252-1.152-0.36-1.764
	c-1.584,1.691-3.888,2.304-6.155,2.304c-3.6,0-6.371-1.8-6.371-5.651c0-6.047,6.623-5.615,10.871-6.479
	c1.044-0.252,1.62-0.576,1.62-1.729c0-1.404-1.692-1.943-2.952-1.943c-1.764,0-2.771,0.791-3.06,2.34H285.05z M292.969,323.26
	c2.916,0,3.888-1.619,3.744-5.507c-0.864,0.54-2.448,0.612-3.78,1.008c-1.404,0.324-2.52,0.899-2.52,2.376
	C290.414,322.685,291.565,323.26,292.969,323.26z M306.65,307.818h5.939v2.556h0.072c1.116-1.872,3.06-3.096,5.363-3.096
	c2.34,0,4.428,0.756,5.436,3.024c1.476-2.017,3.275-3.024,5.831-3.024c5.939,0,6.587,4.499,6.587,8.063V326.5h-6.12v-10.979
	c0-2.016-0.972-3.203-2.556-3.203c-2.627,0-2.879,2.016-2.879,5.039v9.143h-6.119v-10.619c0-2.195-0.612-3.563-2.304-3.563
	c-2.196,0-3.132,1.295-3.132,5.074v9.107h-6.119V307.818z M345.205,318.652c0.108,2.592,1.584,4.248,4.176,4.248
	c1.476,0,2.916-0.648,3.491-2.052h5.724c-1.152,4.319-5.111,6.191-9.287,6.191c-6.083,0-10.223-3.672-10.223-9.935
	c0-5.724,4.571-9.827,10.079-9.827c6.695,0,10.043,5.04,9.755,11.374H345.205z M352.8,315.233c-0.108-2.124-1.584-3.815-3.636-3.815
	c-2.16,0-3.563,1.512-3.959,3.815H352.8z M373.069,313.578c0.108-2.448,1.224-4.032,2.916-5.004s3.78-1.296,5.939-1.296
	c4.427,0,8.711,0.972,8.711,6.263v8.172c0,1.584,0,3.312,0.72,4.787H385.2c-0.252-0.576-0.252-1.152-0.36-1.764
	c-1.584,1.691-3.888,2.304-6.155,2.304c-3.6,0-6.371-1.8-6.371-5.651c0-6.047,6.623-5.615,10.871-6.479
	c1.044-0.252,1.62-0.576,1.62-1.729c0-1.404-1.692-1.943-2.952-1.943c-1.764,0-2.771,0.791-3.06,2.34H373.069z M380.988,323.26
	c2.916,0,3.888-1.619,3.744-5.507c-0.864,0.54-2.448,0.612-3.78,1.008c-1.404,0.324-2.52,0.899-2.52,2.376
	C378.433,322.685,379.584,323.26,380.988,323.26z M405.935,311.777h-3.78v8.496c0,1.475,0.864,1.799,2.196,1.799
	c0.54,0,1.044-0.072,1.584-0.072v4.5c-1.116,0.036-2.232,0.18-3.348,0.18c-5.219,0-6.551-1.547-6.551-6.587v-8.315h-3.096v-3.959
	h3.096v-5.651h6.119v5.651h3.78V311.777z M431.278,311.777h-3.78v8.496c0,1.475,0.864,1.799,2.196,1.799
	c0.54,0,1.044-0.072,1.584-0.072v4.5c-1.116,0.036-2.232,0.18-3.348,0.18c-5.219,0-6.551-1.547-6.551-6.587v-8.315h-3.096v-3.959
	h3.096v-5.651h6.119v5.651h3.78V311.777z M434.016,300.799h6.119v9.575h0.072c0.972-1.907,3.456-3.096,5.687-3.096
	c6.227,0,6.731,4.536,6.731,7.235V326.5h-6.119v-9.035v-1.871c0-1.801-0.612-3.275-3.06-3.275c-2.304,0-3.312,1.979-3.312,3.995
	V326.5h-6.119V300.799z M461.914,318.652c0.108,2.592,1.584,4.248,4.176,4.248c1.477,0,2.916-0.648,3.492-2.052h5.723
	c-1.151,4.319-5.111,6.191-9.287,6.191c-6.082,0-10.223-3.672-10.223-9.935c0-5.724,4.572-9.827,10.079-9.827
	c6.695,0,10.043,5.04,9.755,11.374H461.914z M469.51,315.233c-0.107-2.124-1.584-3.815-3.636-3.815c-2.159,0-3.563,1.512-3.96,3.815
	H469.51z M494.781,320.345c0,0.972,0.396,1.62,1.008,2.088c0.576,0.432,1.404,0.647,2.268,0.647c1.152,0,2.881-0.539,2.881-1.979
	c0-1.476-1.944-1.692-2.988-1.979c-3.852-0.973-8.675-1.08-8.675-6.119c0-4.464,4.859-5.724,8.53-5.724
	c4.068,0,8.424,1.188,8.604,6.048h-5.651c0-0.756-0.252-1.297-0.792-1.62c-0.468-0.324-1.115-0.468-1.943-0.468
	c-1.008,0-2.628,0.107-2.628,1.403c0,1.728,4.104,2.124,6.911,2.7c3.744,0.756,4.752,3.491,4.752,5.039
	c0,5.004-4.752,6.659-8.963,6.659c-4.464,0-8.963-1.476-9.144-6.695H494.781z M528.62,326.5h-5.939v-2.556h-0.071
	c-1.152,1.907-3.528,3.096-5.688,3.096c-5.363,0-6.912-3.096-6.912-7.991v-11.23h6.119v10.834c0,2.484,1.045,3.348,3.024,3.348
	c1.296,0,3.348-0.863,3.348-4.175v-10.007h6.119V326.5z M550.796,324.232c0,3.023-0.576,8.818-9.323,8.818
	c-4.319,0-8.494-0.972-9.179-5.975h6.12c0.143,0.791,0.504,1.332,1.043,1.619c0.504,0.252,1.26,0.396,2.232,0.396
	c2.915,0,3.203-2.052,3.203-4.355v-1.764h-0.072c-1.115,1.728-2.951,2.735-4.967,2.735c-5.652,0-8.207-4.031-8.207-9.286
	c0-4.968,2.916-9.144,8.207-9.144c2.268,0,3.924,0.972,5.003,2.88h0.072v-2.34h5.867V324.232z M541.329,311.958
	c-2.7,0-3.563,2.376-3.563,4.679c0,2.196,1.043,4.393,3.527,4.393c2.592,0,3.707-2.053,3.707-4.355
	C545,314.262,544.029,311.958,541.329,311.958z M572.791,324.232c0,3.023-0.576,8.818-9.322,8.818c-4.32,0-8.495-0.972-9.18-5.975
	h6.12c0.144,0.791,0.504,1.332,1.044,1.619c0.504,0.252,1.26,0.396,2.231,0.396c2.915,0,3.204-2.052,3.204-4.355v-1.764h-0.072
	c-1.116,1.728-2.951,2.735-4.968,2.735c-5.651,0-8.207-4.031-8.207-9.286c0-4.968,2.916-9.144,8.207-9.144
	c2.269,0,3.924,0.972,5.003,2.88h0.072v-2.34h5.867V324.232z M563.324,311.958c-2.699,0-3.563,2.376-3.563,4.679
	c0,2.196,1.043,4.393,3.527,4.393c2.592,0,3.707-2.053,3.707-4.355C566.996,314.262,566.024,311.958,563.324,311.958z
	 M581.938,318.652c0.107,2.592,1.584,4.248,4.176,4.248c1.475,0,2.915-0.648,3.49-2.052h5.725c-1.152,4.319-5.112,6.191-9.287,6.191
	c-6.084,0-10.223-3.672-10.223-9.935c0-5.724,4.57-9.827,10.078-9.827c6.695,0,10.043,5.04,9.755,11.374H581.938z M589.532,315.233
	c-0.108-2.124-1.584-3.815-3.636-3.815c-2.16,0-3.563,1.512-3.959,3.815H589.532z M603.465,320.345c0,0.972,0.396,1.62,1.008,2.088
	c0.576,0.432,1.404,0.647,2.268,0.647c1.152,0,2.88-0.539,2.88-1.979c0-1.476-1.944-1.692-2.987-1.979
	c-3.852-0.973-8.676-1.08-8.676-6.119c0-4.464,4.859-5.724,8.531-5.724c4.067,0,8.423,1.188,8.604,6.048h-5.652
	c0-0.756-0.252-1.297-0.791-1.62c-0.469-0.324-1.116-0.468-1.943-0.468c-1.009,0-2.629,0.107-2.629,1.403
	c0,1.728,4.104,2.124,6.912,2.7c3.743,0.756,4.751,3.491,4.751,5.039c0,5.004-4.751,6.659-8.963,6.659
	c-4.464,0-8.963-1.476-9.144-6.695H603.465z M629.996,311.777h-3.779v8.496c0,1.475,0.863,1.799,2.195,1.799
	c0.54,0,1.044-0.072,1.584-0.072v4.5c-1.115,0.036-2.232,0.18-3.348,0.18c-5.219,0-6.551-1.547-6.551-6.587v-8.315h-3.096v-3.959
	h3.096v-5.651h6.119v5.651h3.779V311.777z M639.068,305.479h-6.119v-4.68h6.119V305.479z M632.949,307.818h6.119V326.5h-6.119
	V307.818z M652.315,307.278c5.796,0,9.862,4.284,9.862,9.899s-4.066,9.862-9.862,9.862c-5.795,0-9.827-4.247-9.827-9.862
	S646.521,307.278,652.315,307.278z M652.315,322.36c2.88,0,3.743-2.771,3.743-5.183c0-2.377-0.863-5.22-3.743-5.22
	c-2.844,0-3.708,2.843-3.708,5.22C648.607,319.589,649.472,322.36,652.315,322.36z M665.385,307.818h5.939v2.556h0.071
	c1.151-1.907,3.636-3.096,5.867-3.096c6.228,0,6.731,4.536,6.731,7.235V326.5h-6.119v-9.035v-1.871c0-1.801-0.612-3.275-3.061-3.275
	c-2.303,0-3.311,1.979-3.311,3.995V326.5h-6.119V307.818z M708.33,307.278c5.795,0,9.863,4.284,9.863,9.899
	s-4.068,9.862-9.863,9.862s-9.826-4.247-9.826-9.862S702.535,307.278,708.33,307.278z M708.33,322.36
	c2.88,0,3.744-2.771,3.744-5.183c0-2.377-0.864-5.22-3.744-5.22c-2.844,0-3.707,2.843-3.707,5.22
	C704.623,319.589,705.486,322.36,708.33,322.36z M722.731,311.777h-2.952v-3.959h2.952c0-5.363,1.872-7.02,7.091-7.02
	c0.973,0,1.98,0.072,2.951,0.108v4.319c-0.575-0.072-1.115-0.107-1.655-0.107c-1.403,0-2.268,0.18-2.268,1.871v0.828h3.671v3.959
	h-3.671V326.5h-6.119V311.777z M745.807,313.578c0.107-2.448,1.224-4.032,2.916-5.004c1.691-0.972,3.779-1.296,5.939-1.296
	c4.427,0,8.711,0.972,8.711,6.263v8.172c0,1.584,0,3.312,0.719,4.787h-6.154c-0.252-0.576-0.252-1.152-0.36-1.764
	c-1.584,1.691-3.888,2.304-6.155,2.304c-3.6,0-6.371-1.8-6.371-5.651c0-6.047,6.623-5.615,10.871-6.479
	c1.043-0.252,1.619-0.576,1.619-1.729c0-1.404-1.691-1.943-2.951-1.943c-1.764,0-2.771,0.791-3.061,2.34H745.807z M753.726,323.26
	c2.915,0,3.888-1.619,3.743-5.507c-0.863,0.54-2.447,0.612-3.779,1.008c-1.404,0.324-2.52,0.899-2.52,2.376
	C751.17,322.685,752.322,323.26,753.726,323.26z M780.078,311.777h-2.952v-3.959h2.952c0-5.363,1.871-7.02,7.09-7.02
	c0.973,0,1.98,0.072,2.952,0.108v4.319c-0.575-0.072-1.116-0.107-1.655-0.107c-1.404,0-2.268,0.18-2.268,1.871v0.828h3.671v3.959
	h-3.671V326.5h-6.119V311.777z M792.281,307.818h5.939v3.275h0.072c0.899-2.412,2.987-3.635,5.615-3.635
	c0.468,0,0.972,0.035,1.439,0.144v5.579c-0.828-0.252-1.512-0.359-2.34-0.359c-3.023,0-4.607,2.088-4.607,4.427v9.251h-6.119
	V307.818z M813.736,305.479h-6.119v-4.68h6.119V305.479z M807.617,307.818h6.119V326.5h-6.119V307.818z M823.276,318.652
	c0.108,2.592,1.584,4.248,4.176,4.248c1.476,0,2.915-0.648,3.491-2.052h5.724c-1.151,4.319-5.111,6.191-9.287,6.191
	c-6.083,0-10.223-3.672-10.223-9.935c0-5.724,4.571-9.827,10.079-9.827c6.695,0,10.043,5.04,9.754,11.374H823.276z M830.871,315.233
	c-0.107-2.124-1.584-3.815-3.635-3.815c-2.16,0-3.564,1.512-3.96,3.815H830.871z M840.053,307.818h5.939v2.556h0.072
	c1.151-1.907,3.635-3.096,5.867-3.096c6.227,0,6.73,4.536,6.73,7.235V326.5h-6.119v-9.035v-1.871c0-1.801-0.611-3.275-3.06-3.275
	c-2.304,0-3.312,1.979-3.312,3.995V326.5h-6.119V307.818z M881.234,326.5h-5.832v-2.16h-0.071c-1.224,1.801-2.952,2.7-5.147,2.7
	c-5.867,0-8.352-5.003-8.352-10.295c0-4.859,2.592-9.467,7.883-9.467c2.269,0,4.068,0.864,5.328,2.556h0.072v-9.035h6.119V326.5z
	 M867.951,316.961c0,2.557,0.973,5.399,3.744,5.399c2.988,0,3.636-2.843,3.636-5.22c0-2.699-0.972-5.183-3.636-5.183
	C868.924,311.958,867.951,314.586,867.951,316.961z M896.5,313.578c0.107-2.448,1.223-4.032,2.915-5.004s3.779-1.296,5.939-1.296
	c4.428,0,8.711,0.972,8.711,6.263v8.172c0,1.584,0,3.312,0.72,4.787h-6.155c-0.252-0.576-0.252-1.152-0.36-1.764
	c-1.583,1.691-3.887,2.304-6.154,2.304c-3.6,0-6.371-1.8-6.371-5.651c0-6.047,6.623-5.615,10.87-6.479
	c1.044-0.252,1.62-0.576,1.62-1.729c0-1.404-1.692-1.943-2.952-1.943c-1.764,0-2.771,0.791-3.06,2.34H896.5z M904.419,323.26
	c2.915,0,3.887-1.619,3.743-5.507c-0.864,0.54-2.448,0.612-3.779,1.008c-1.404,0.324-2.52,0.899-2.52,2.376
	C901.863,322.685,903.015,323.26,904.419,323.26z M922.85,320.345c0,0.972,0.396,1.62,1.008,2.088
	c0.576,0.432,1.404,0.647,2.269,0.647c1.151,0,2.879-0.539,2.879-1.979c0-1.476-1.943-1.692-2.987-1.979
	c-3.852-0.973-8.675-1.08-8.675-6.119c0-4.464,4.859-5.724,8.531-5.724c4.067,0,8.423,1.188,8.603,6.048h-5.651
	c0-0.756-0.252-1.297-0.792-1.62c-0.468-0.324-1.115-0.468-1.943-0.468c-1.008,0-2.628,0.107-2.628,1.403
	c0,1.728,4.104,2.124,6.911,2.7c3.743,0.756,4.751,3.491,4.751,5.039c0,5.004-4.751,6.659-8.963,6.659
	c-4.463,0-8.962-1.476-9.143-6.695H922.85z M949.202,313.578c0.108-2.448,1.224-4.032,2.916-5.004
	c1.691-0.972,3.779-1.296,5.938-1.296c4.428,0,8.711,0.972,8.711,6.263v8.172c0,1.584,0,3.312,0.721,4.787h-6.155
	c-0.252-0.576-0.252-1.152-0.36-1.764c-1.584,1.691-3.888,2.304-6.155,2.304c-3.6,0-6.371-1.8-6.371-5.651
	c0-6.047,6.623-5.615,10.87-6.479c1.044-0.252,1.62-0.576,1.62-1.729c0-1.404-1.691-1.943-2.951-1.943
	c-1.764,0-2.772,0.791-3.06,2.34H949.202z M957.121,323.26c2.916,0,3.888-1.619,3.743-5.507c-0.863,0.54-2.447,0.612-3.779,1.008
	c-1.403,0.324-2.52,0.899-2.52,2.376C954.565,322.685,955.718,323.26,957.121,323.26z M131.043,367.433
	c0,3.023-0.576,8.819-9.323,8.819c-4.32,0-8.495-0.973-9.179-5.976h6.12c0.144,0.792,0.504,1.331,1.043,1.62
	c0.504,0.252,1.26,0.396,2.232,0.396c2.916,0,3.204-2.052,3.204-4.355v-1.764h-0.072c-1.116,1.728-2.951,2.735-4.967,2.735
	c-5.651,0-8.207-4.031-8.207-9.287c0-4.967,2.916-9.143,8.207-9.143c2.268,0,3.924,0.973,5.003,2.88h0.072v-2.34h5.867V367.433z
	 M121.577,355.158c-2.7,0-3.563,2.375-3.563,4.68c0,2.195,1.043,4.391,3.527,4.391c2.592,0,3.708-2.051,3.708-4.355
	C125.248,357.462,124.276,355.158,121.577,355.158z M143.896,350.479c5.795,0,9.863,4.283,9.863,9.898s-4.067,9.863-9.863,9.863
	s-9.827-4.248-9.827-9.863S138.101,350.479,143.896,350.479z M143.896,365.561c2.88,0,3.744-2.771,3.744-5.184
	c0-2.375-0.864-5.219-3.744-5.219c-2.844,0-3.708,2.844-3.708,5.219C140.188,362.789,141.052,365.561,143.896,365.561z
	 M156.713,356.777c0.108-2.447,1.224-4.031,2.916-5.003s3.78-1.296,5.939-1.296c4.427,0,8.711,0.973,8.711,6.264v8.17
	c0,1.584,0,3.313,0.72,4.788h-6.155c-0.252-0.576-0.252-1.151-0.36-1.764c-1.584,1.692-3.888,2.304-6.155,2.304
	c-3.6,0-6.371-1.8-6.371-5.651c0-6.048,6.623-5.615,10.871-6.479c1.044-0.252,1.62-0.576,1.62-1.728
	c0-1.403-1.692-1.944-2.952-1.944c-1.764,0-2.771,0.793-3.06,2.34H156.713z M164.632,366.461c2.916,0,3.888-1.62,3.744-5.508
	c-0.864,0.54-2.448,0.612-3.78,1.008c-1.404,0.324-2.52,0.9-2.52,2.376C162.076,365.885,163.228,366.461,164.632,366.461z
	 M178.528,344h6.119v25.7h-6.119V344z M212.474,357.857c0-1.584-1.44-2.699-2.988-2.699c-3.419,0-3.959,2.916-3.959,5.508
	c0,2.411,1.044,4.895,3.636,4.895c2.16,0,3.204-1.188,3.492-3.203h5.939c-0.576,5.039-4.392,7.883-9.395,7.883
	c-5.615,0-9.791-3.815-9.791-9.574c0-5.939,3.779-10.188,9.791-10.188c4.68,0,8.747,2.484,9.215,7.379H212.474z M226.875,361.854
	c0.108,2.592,1.584,4.247,4.176,4.247c1.476,0,2.916-0.647,3.491-2.052h5.724c-1.152,4.319-5.112,6.191-9.287,6.191
	c-6.083,0-10.223-3.672-10.223-9.936c0-5.723,4.571-9.826,10.079-9.826c6.695,0,10.043,5.039,9.755,11.375H226.875z M234.47,358.434
	c-0.108-2.123-1.584-3.815-3.636-3.815c-2.16,0-3.563,1.512-3.959,3.815H234.47z M243.867,344h6.119v25.7h-6.119V344z
	 M259.526,361.854c0.108,2.592,1.584,4.247,4.176,4.247c1.476,0,2.916-0.647,3.491-2.052h5.724
	c-1.152,4.319-5.112,6.191-9.287,6.191c-6.083,0-10.223-3.672-10.223-9.936c0-5.723,4.571-9.826,10.079-9.826
	c6.695,0,10.043,5.039,9.755,11.375H259.526z M267.121,358.434c-0.108-2.123-1.584-3.815-3.636-3.815
	c-2.16,0-3.563,1.512-3.959,3.815H267.121z M276.302,344h6.119v9.07h0.072c1.26-1.729,3.023-2.592,5.327-2.592
	c5.292,0,7.883,4.607,7.883,9.467c0,5.291-2.483,10.295-8.351,10.295c-2.196,0-3.924-0.9-5.147-2.699h-0.072v2.159h-5.831V344z
	 M282.206,360.162c0,3.275,0.936,5.398,3.708,5.398c2.7,0,3.671-2.844,3.671-5.398c0-2.377-0.9-5.004-3.635-5.004
	C284.329,355.158,282.206,356.273,282.206,360.162z M299.198,351.019h5.939v3.275h0.072c0.9-2.411,2.988-3.636,5.615-3.636
	c0.468,0,0.972,0.036,1.44,0.145v5.579c-0.828-0.252-1.512-0.36-2.34-0.36c-3.023,0-4.607,2.088-4.607,4.428v9.251h-6.119V351.019z
	 M314.066,356.777c0.108-2.447,1.224-4.031,2.916-5.003s3.78-1.296,5.939-1.296c4.427,0,8.711,0.973,8.711,6.264v8.17
	c0,1.584,0,3.313,0.72,4.788h-6.155c-0.252-0.576-0.252-1.151-0.36-1.764c-1.584,1.692-3.888,2.304-6.155,2.304
	c-3.6,0-6.371-1.8-6.371-5.651c0-6.048,6.623-5.615,10.871-6.479c1.044-0.252,1.62-0.576,1.62-1.728
	c0-1.403-1.692-1.944-2.952-1.944c-1.764,0-2.771,0.793-3.06,2.34H314.066z M321.985,366.461c2.916,0,3.888-1.62,3.744-5.508
	c-0.864,0.54-2.448,0.612-3.78,1.008c-1.404,0.324-2.52,0.9-2.52,2.376C319.429,365.885,320.581,366.461,321.985,366.461z
	 M346.932,354.979h-3.78v8.494c0,1.477,0.864,1.801,2.196,1.801c0.54,0,1.044-0.072,1.584-0.072v4.499
	c-1.116,0.036-2.232,0.181-3.348,0.181c-5.219,0-6.551-1.549-6.551-6.588v-8.314h-3.096v-3.96h3.096v-5.651h6.119v5.651h3.78
	V354.979z M356.004,348.679h-6.119V344h6.119V348.679z M349.885,351.019h6.119V369.7h-6.119V351.019z M369.251,350.479
	c5.795,0,9.863,4.283,9.863,9.898s-4.067,9.863-9.863,9.863s-9.827-4.248-9.827-9.863S363.456,350.479,369.251,350.479z
	 M369.251,365.561c2.88,0,3.744-2.771,3.744-5.184c0-2.375-0.864-5.219-3.744-5.219c-2.844,0-3.708,2.844-3.708,5.219
	C365.544,362.789,366.408,365.561,369.251,365.561z M382.32,351.019h5.939v2.556h0.072c1.152-1.908,3.636-3.096,5.867-3.096
	c6.227,0,6.731,4.535,6.731,7.235V369.7h-6.12v-9.034v-1.873c0-1.799-0.612-3.275-3.06-3.275c-2.304,0-3.312,1.98-3.312,3.996V369.7
	h-6.119V351.019z M405.288,363.005h6.695v6.695h-6.695V363.005z M453.236,369.7h-6.695l-3.528-17.71h-0.072l-3.527,17.71h-6.803
	l-6.947-25.7h6.695l3.635,18.789h0.072L439.846,344h6.299l3.779,18.789h0.072L453.632,344h6.695L453.236,369.7z M462.383,344h6.119
	v9.574h0.072c0.973-1.908,3.456-3.096,5.688-3.096c6.228,0,6.731,4.535,6.731,7.235V369.7h-6.12v-9.034v-1.873
	c0-1.799-0.611-3.275-3.059-3.275c-2.305,0-3.313,1.98-3.313,3.996V369.7h-6.119V344z M490.282,361.854
	c0.108,2.592,1.584,4.247,4.176,4.247c1.476,0,2.915-0.647,3.491-2.052h5.724c-1.151,4.319-5.111,6.191-9.287,6.191
	c-6.083,0-10.223-3.672-10.223-9.936c0-5.723,4.571-9.826,10.079-9.826c6.695,0,10.043,5.039,9.754,11.375H490.282z
	 M497.877,358.434c-0.107-2.123-1.584-3.815-3.635-3.815c-2.16,0-3.564,1.512-3.96,3.815H497.877z M507.059,351.019h5.939v2.556
	h0.072c1.151-1.908,3.635-3.096,5.867-3.096c6.227,0,6.73,4.535,6.73,7.235V369.7h-6.119v-9.034v-1.873
	c0-1.799-0.611-3.275-3.06-3.275c-2.304,0-3.312,1.98-3.312,3.996V369.7h-6.119V351.019z M541.33,344h6.695v25.7h-6.695V344z
	 M568.508,363.545c0,0.972,0.396,1.619,1.008,2.088c0.576,0.432,1.404,0.648,2.268,0.648c1.152,0,2.881-0.541,2.881-1.98
	c0-1.476-1.944-1.691-2.988-1.979c-3.852-0.972-8.675-1.08-8.675-6.12c0-4.463,4.859-5.723,8.53-5.723
	c4.068,0,8.424,1.188,8.604,6.047h-5.651c0-0.756-0.252-1.295-0.792-1.619c-0.468-0.324-1.115-0.469-1.943-0.469
	c-1.008,0-2.628,0.108-2.628,1.404c0,1.729,4.104,2.124,6.911,2.699c3.744,0.756,4.752,3.492,4.752,5.04
	c0,5.003-4.752,6.659-8.963,6.659c-4.464,0-8.963-1.477-9.144-6.695H568.508z M583.521,356.777c0.107-2.447,1.223-4.031,2.915-5.003
	s3.78-1.296,5.939-1.296c4.427,0,8.711,0.973,8.711,6.264v8.17c0,1.584,0,3.313,0.72,4.788h-6.155
	c-0.252-0.576-0.252-1.151-0.36-1.764c-1.584,1.692-3.887,2.304-6.154,2.304c-3.6,0-6.371-1.8-6.371-5.651
	c0-6.048,6.623-5.615,10.87-6.479c1.044-0.252,1.62-0.576,1.62-1.728c0-1.403-1.692-1.944-2.952-1.944
	c-1.764,0-2.771,0.793-3.06,2.34H583.521z M591.439,366.461c2.916,0,3.889-1.62,3.744-5.508c-0.863,0.54-2.447,0.612-3.779,1.008
	c-1.404,0.324-2.52,0.9-2.52,2.376C588.885,365.885,590.036,366.461,591.439,366.461z M627.222,369.7h-6.19l-2.952-12.419h-0.072
	l-2.915,12.419H608.9l-5.832-18.682h6.191l3.132,12.095h0.072l2.663-12.095h5.832l2.735,12.059h0.071l3.061-12.059h6.227
	L627.222,369.7z M646.447,344h6.119v9.574h0.072c0.973-1.908,3.456-3.096,5.688-3.096c6.228,0,6.731,4.535,6.731,7.235V369.7h-6.12
	v-9.034v-1.873c0-1.799-0.611-3.275-3.059-3.275c-2.305,0-3.313,1.98-3.313,3.996V369.7h-6.119V344z M678.055,350.479
	c5.795,0,9.862,4.283,9.862,9.898s-4.067,9.863-9.862,9.863c-5.796,0-9.827-4.248-9.827-9.863S672.259,350.479,678.055,350.479z
	 M678.055,365.561c2.879,0,3.743-2.771,3.743-5.184c0-2.375-0.864-5.219-3.743-5.219c-2.844,0-3.708,2.844-3.708,5.219
	C674.347,362.789,675.211,365.561,678.055,365.561z M713.225,369.7h-6.191l-2.951-12.419h-0.072l-2.916,12.419h-6.191l-5.831-18.682
	h6.191l3.132,12.095h0.072l2.663-12.095h5.831l2.736,12.059h0.071l3.06-12.059h6.228L713.225,369.7z M732.45,351.019h5.831v2.159
	h0.072c1.224-1.799,2.951-2.699,5.147-2.699c5.867,0,8.351,5.004,8.351,10.295c0,4.859-2.592,9.467-7.883,9.467
	c-2.268,0-4.067-0.863-5.327-2.556h-0.072v8.278h-6.119V351.019z M738.354,360.162c0,3.275,0.936,5.398,3.707,5.398
	c2.7,0,3.672-2.844,3.672-5.398c0-2.377-0.9-5.004-3.635-5.004C740.477,355.158,738.354,356.273,738.354,360.162z M760.35,361.854
	c0.107,2.592,1.584,4.247,4.176,4.247c1.475,0,2.915-0.647,3.49-2.052h5.725c-1.152,4.319-5.112,6.191-9.287,6.191
	c-6.084,0-10.223-3.672-10.223-9.936c0-5.723,4.57-9.826,10.078-9.826c6.695,0,10.043,5.039,9.755,11.375H760.35z M767.944,358.434
	c-0.108-2.123-1.584-3.815-3.636-3.815c-2.16,0-3.563,1.512-3.959,3.815H767.944z M786.053,350.479c5.795,0,9.863,4.283,9.863,9.898
	s-4.068,9.863-9.863,9.863s-9.826-4.248-9.826-9.863S780.258,350.479,786.053,350.479z M786.053,365.561
	c2.88,0,3.744-2.771,3.744-5.184c0-2.375-0.864-5.219-3.744-5.219c-2.844,0-3.707,2.844-3.707,5.219
	C782.346,362.789,783.209,365.561,786.053,365.561z M799.121,351.019h5.832v2.159h0.072c1.223-1.799,2.951-2.699,5.146-2.699
	c5.867,0,8.352,5.004,8.352,10.295c0,4.859-2.592,9.467-7.883,9.467c-2.268,0-4.068-0.863-5.328-2.556h-0.072v8.278h-6.119V351.019z
	 M805.025,360.162c0,3.275,0.936,5.398,3.707,5.398c2.699,0,3.672-2.844,3.672-5.398c0-2.377-0.9-5.004-3.636-5.004
	C807.148,355.158,805.025,356.273,805.025,360.162z M822.018,344h6.119v25.7h-6.119V344z M837.676,361.854
	c0.107,2.592,1.584,4.247,4.176,4.247c1.476,0,2.916-0.647,3.491-2.052h5.724c-1.152,4.319-5.111,6.191-9.287,6.191
	c-6.083,0-10.223-3.672-10.223-9.936c0-5.723,4.571-9.826,10.078-9.826c6.695,0,10.043,5.039,9.756,11.375H837.676z
	 M845.271,358.434c-0.108-2.123-1.584-3.815-3.637-3.815c-2.159,0-3.563,1.512-3.959,3.815H845.271z M887.893,369.7h-6.19
	l-2.952-12.419h-0.072l-2.915,12.419h-6.191l-5.831-18.682h6.191l3.131,12.095h0.072l2.664-12.095h5.831l2.735,12.059h0.072
	l3.06-12.059h6.228L887.893,369.7z M904.707,350.479c5.795,0,9.862,4.283,9.862,9.898s-4.067,9.863-9.862,9.863
	c-5.796,0-9.827-4.248-9.827-9.863S898.911,350.479,904.707,350.479z M904.707,365.561c2.879,0,3.743-2.771,3.743-5.184
	c0-2.375-0.864-5.219-3.743-5.219c-2.844,0-3.708,2.844-3.708,5.219C900.999,362.789,901.863,365.561,904.707,365.561z
	 M936.349,369.7h-5.938v-2.556h-0.072c-1.152,1.908-3.527,3.096-5.688,3.096c-5.363,0-6.911-3.096-6.911-7.991v-11.23h6.119v10.835
	c0,2.483,1.044,3.348,3.023,3.348c1.296,0,3.348-0.864,3.348-4.176v-10.007h6.119V369.7z M940.671,344h6.119v25.7h-6.119V344z
	 M969.612,369.7h-5.832v-2.159h-0.071c-1.224,1.799-2.952,2.699-5.147,2.699c-5.867,0-8.351-5.004-8.351-10.295
	c0-4.859,2.591-9.467,7.883-9.467c2.268,0,4.067,0.863,5.327,2.556h0.072V344h6.119V369.7z M956.33,360.162
	c0,2.555,0.972,5.398,3.743,5.398c2.987,0,3.636-2.844,3.636-5.219c0-2.7-0.972-5.184-3.636-5.184
	C957.302,355.158,956.33,357.785,956.33,360.162z M98.79,394.219h5.939v3.275h0.072c0.9-2.412,2.988-3.636,5.615-3.636
	c0.468,0,0.972,0.036,1.44,0.144v5.58c-0.828-0.252-1.512-0.36-2.34-0.36c-3.023,0-4.607,2.088-4.607,4.427v9.252H98.79V394.219z
	 M118.481,405.053c0.108,2.592,1.584,4.248,4.176,4.248c1.476,0,2.916-0.648,3.491-2.053h5.724c-1.152,4.32-5.111,6.191-9.287,6.191
	c-6.083,0-10.223-3.672-10.223-9.935c0-5.724,4.571-9.827,10.079-9.827c6.695,0,10.043,5.04,9.755,11.375H118.481z M126.077,401.633
	c-0.108-2.123-1.584-3.814-3.636-3.814c-2.16,0-3.563,1.512-3.959,3.814H126.077z M135.006,399.978
	c0.108-2.448,1.224-4.032,2.916-5.003c1.692-0.973,3.78-1.297,5.939-1.297c4.427,0,8.711,0.973,8.711,6.264v8.171
	c0,1.584,0,3.312,0.72,4.788h-6.155c-0.252-0.576-0.252-1.152-0.36-1.764c-1.584,1.691-3.888,2.303-6.155,2.303
	c-3.6,0-6.371-1.799-6.371-5.65c0-6.048,6.623-5.615,10.871-6.479c1.044-0.252,1.62-0.576,1.62-1.728
	c0-1.404-1.692-1.944-2.952-1.944c-1.764,0-2.771,0.792-3.06,2.34H135.006z M142.925,409.66c2.916,0,3.888-1.619,3.744-5.508
	c-0.864,0.541-2.448,0.613-3.78,1.008c-1.404,0.324-2.52,0.9-2.52,2.377C140.37,409.084,141.521,409.66,142.925,409.66z
	 M168.772,401.058c0-1.584-1.44-2.7-2.988-2.7c-3.419,0-3.959,2.916-3.959,5.508c0,2.412,1.044,4.895,3.636,4.895
	c2.16,0,3.204-1.188,3.492-3.203h5.939c-0.576,5.039-4.392,7.883-9.395,7.883c-5.615,0-9.791-3.814-9.791-9.574
	c0-5.939,3.779-10.188,9.791-10.188c4.68,0,8.747,2.484,9.215,7.38H168.772z M189.22,398.178h-3.78v8.495
	c0,1.476,0.864,1.8,2.196,1.8c0.54,0,1.044-0.072,1.584-0.072v4.5c-1.116,0.035-2.232,0.18-3.348,0.18
	c-5.219,0-6.551-1.548-6.551-6.588v-8.314h-3.096v-3.959h3.096v-5.652h6.119v5.652h3.78V398.178z M214.563,398.178h-3.78v8.495
	c0,1.476,0.864,1.8,2.196,1.8c0.54,0,1.044-0.072,1.584-0.072v4.5c-1.116,0.035-2.232,0.18-3.348,0.18
	c-5.219,0-6.551-1.548-6.551-6.588v-8.314h-3.096v-3.959h3.096v-5.652h6.119v5.652h3.78V398.178z M226.227,393.678
	c5.795,0,9.863,4.284,9.863,9.899s-4.067,9.862-9.863,9.862s-9.827-4.247-9.827-9.862S220.432,393.678,226.227,393.678z
	 M226.227,408.76c2.88,0,3.744-2.771,3.744-5.183c0-2.376-0.864-5.22-3.744-5.22c-2.844,0-3.708,2.844-3.708,5.22
	C222.52,405.988,223.383,408.76,226.227,408.76z M261.902,398.178h-3.78v8.495c0,1.476,0.864,1.8,2.196,1.8
	c0.54,0,1.044-0.072,1.584-0.072v4.5c-1.116,0.035-2.232,0.18-3.348,0.18c-5.219,0-6.551-1.548-6.551-6.588v-8.314h-3.096v-3.959
	h3.096v-5.652h6.119v5.652h3.78V398.178z M264.639,387.199h6.119v9.574h0.072c0.972-1.907,3.456-3.096,5.687-3.096
	c6.228,0,6.731,4.536,6.731,7.236V412.9h-6.12v-9.035v-1.872c0-1.8-0.612-3.275-3.06-3.275c-2.304,0-3.312,1.979-3.312,3.995V412.9
	h-6.119V387.199z M292.538,405.053c0.108,2.592,1.584,4.248,4.176,4.248c1.476,0,2.916-0.648,3.491-2.053h5.724
	c-1.152,4.32-5.111,6.191-9.287,6.191c-6.083,0-10.223-3.672-10.223-9.935c0-5.724,4.571-9.827,10.079-9.827
	c6.695,0,10.043,5.04,9.755,11.375H292.538z M300.133,401.633c-0.108-2.123-1.584-3.814-3.636-3.814
	c-2.16,0-3.563,1.512-3.959,3.814H300.133z M321.986,398.178h-2.952v-3.959h2.952c0-5.363,1.872-7.02,7.091-7.02
	c0.972,0,1.98,0.072,2.952,0.107v4.32c-0.576-0.072-1.116-0.108-1.656-0.108c-1.404,0-2.268,0.181-2.268,1.872v0.828h3.671v3.959
	h-3.671V412.9h-6.119V398.178z M334.189,387.199h6.119V412.9h-6.119V387.199z M350.964,391.879h-6.119v-4.68h6.119V391.879z
	 M344.845,394.219h6.119V412.9h-6.119V394.219z M355.285,394.219h5.831v2.159h0.072c1.224-1.8,2.952-2.7,5.147-2.7
	c5.867,0,8.351,5.004,8.351,10.295c0,4.859-2.591,9.467-7.883,9.467c-2.268,0-4.067-0.863-5.327-2.555h-0.072v8.278h-6.119V394.219z
	 M361.188,403.361c0,3.275,0.936,5.398,3.708,5.398c2.7,0,3.671-2.843,3.671-5.398c0-2.376-0.9-5.004-3.635-5.004
	C363.312,398.357,361.188,399.474,361.188,403.361z M389.052,399.978c0.108-2.448,1.224-4.032,2.916-5.003
	c1.692-0.973,3.78-1.297,5.939-1.297c4.427,0,8.711,0.973,8.711,6.264v8.171c0,1.584,0,3.312,0.72,4.788h-6.155
	c-0.252-0.576-0.252-1.152-0.36-1.764c-1.584,1.691-3.888,2.303-6.155,2.303c-3.6,0-6.371-1.799-6.371-5.65
	c0-6.048,6.623-5.615,10.871-6.479c1.044-0.252,1.62-0.576,1.62-1.728c0-1.404-1.692-1.944-2.952-1.944
	c-1.764,0-2.771,0.792-3.06,2.34H389.052z M396.971,409.66c2.916,0,3.888-1.619,3.744-5.508c-0.864,0.541-2.448,0.613-3.78,1.008
	c-1.404,0.324-2.52,0.9-2.52,2.377C394.416,409.084,395.567,409.66,396.971,409.66z M411.984,398.178h-2.952v-3.959h2.952
	c0-5.363,1.872-7.02,7.091-7.02c0.972,0,1.98,0.072,2.952,0.107v4.32c-0.576-0.072-1.116-0.108-1.656-0.108
	c-1.404,0-2.268,0.181-2.268,1.872v0.828h3.671v3.959h-3.671V412.9h-6.119V398.178z M435.238,398.178h-3.78v8.495
	c0,1.476,0.864,1.8,2.196,1.8c0.54,0,1.044-0.072,1.584-0.072v4.5c-1.116,0.035-2.232,0.18-3.348,0.18
	c-5.219,0-6.551-1.548-6.551-6.588v-8.314h-3.096v-3.959h3.096v-5.652h6.119v5.652h3.78V398.178z M443.195,405.053
	c0.108,2.592,1.584,4.248,4.176,4.248c1.476,0,2.916-0.648,3.491-2.053h5.724c-1.152,4.32-5.112,6.191-9.288,6.191
	c-6.083,0-10.223-3.672-10.223-9.935c0-5.724,4.571-9.827,10.079-9.827c6.695,0,10.043,5.04,9.755,11.375H443.195z M450.79,401.633
	c-0.108-2.123-1.584-3.814-3.636-3.814c-2.16,0-3.563,1.512-3.959,3.814H450.79z M460.188,394.219h5.939v3.275h0.071
	c0.899-2.412,2.987-3.636,5.615-3.636c0.468,0,0.972,0.036,1.44,0.144v5.58c-0.828-0.252-1.512-0.36-2.34-0.36
	c-3.023,0-4.607,2.088-4.607,4.427v9.252h-6.119V394.219z M486.898,387.199h6.695V412.9h-6.695V387.199z M514.077,406.744
	c0,0.973,0.396,1.62,1.008,2.088c0.575,0.432,1.403,0.648,2.268,0.648c1.151,0,2.88-0.54,2.88-1.98c0-1.475-1.943-1.691-2.988-1.979
	c-3.852-0.973-8.674-1.08-8.674-6.12c0-4.464,4.859-5.724,8.53-5.724c4.067,0,8.423,1.188,8.603,6.048h-5.65
	c0-0.756-0.252-1.296-0.793-1.62c-0.467-0.324-1.115-0.468-1.943-0.468c-1.008,0-2.627,0.108-2.627,1.403
	c0,1.729,4.104,2.125,6.91,2.7c3.744,0.756,4.752,3.491,4.752,5.04c0,5.003-4.752,6.658-8.963,6.658
	c-4.463,0-8.963-1.476-9.143-6.695H514.077z M541.508,401.058c0-1.584-1.439-2.7-2.987-2.7c-3.419,0-3.96,2.916-3.96,5.508
	c0,2.412,1.045,4.895,3.637,4.895c2.159,0,3.203-1.188,3.491-3.203h5.938c-0.575,5.039-4.391,7.883-9.395,7.883
	c-5.615,0-9.791-3.814-9.791-9.574c0-5.939,3.779-10.188,9.791-10.188c4.68,0,8.747,2.484,9.215,7.38H541.508z M559.615,393.678
	c5.796,0,9.863,4.284,9.863,9.899s-4.067,9.862-9.863,9.862c-5.795,0-9.826-4.247-9.826-9.862S553.82,393.678,559.615,393.678z
	 M559.615,408.76c2.881,0,3.744-2.771,3.744-5.183c0-2.376-0.863-5.22-3.744-5.22c-2.844,0-3.707,2.844-3.707,5.22
	C555.908,405.988,556.771,408.76,559.615,408.76z M572.9,394.219h5.939v3.275h0.072c0.899-2.412,2.987-3.636,5.615-3.636
	c0.468,0,0.972,0.036,1.439,0.144v5.58c-0.828-0.252-1.512-0.36-2.34-0.36c-3.023,0-4.607,2.088-4.607,4.427v9.252H572.9V394.219z
	 M592.592,405.053c0.108,2.592,1.584,4.248,4.176,4.248c1.477,0,2.916-0.648,3.492-2.053h5.723c-1.151,4.32-5.111,6.191-9.287,6.191
	c-6.082,0-10.223-3.672-10.223-9.935c0-5.724,4.572-9.827,10.079-9.827c6.695,0,10.043,5.04,9.755,11.375H592.592z M600.188,401.633
	c-0.107-2.123-1.584-3.814-3.636-3.814c-2.159,0-3.563,1.512-3.96,3.814H600.188z M627.87,412.9h-5.831v-2.16h-0.072
	c-1.224,1.8-2.951,2.699-5.146,2.699c-5.867,0-8.352-5.003-8.352-10.295c0-4.859,2.592-9.467,7.883-9.467
	c2.268,0,4.068,0.864,5.328,2.557h0.071v-9.035h6.119V412.9z M614.588,403.361c0,2.556,0.973,5.398,3.744,5.398
	c2.987,0,3.635-2.843,3.635-5.219c0-2.699-0.972-5.184-3.635-5.184C615.561,398.357,614.588,400.985,614.588,403.361z
	 M632.336,406.205h6.695v5.939c0,5.183-3.995,6.73-6.695,7.019v-2.88c1.98-0.539,2.7-1.512,2.952-3.383h-2.952V406.205z
	 M655.016,387.199h6.695V412.9h-6.695V387.199z M677.443,387.199h6.119v13.246l5.579-6.227h7.091l-6.839,7.055l7.702,11.627h-7.379
	l-4.57-7.523l-1.584,1.548v5.976h-6.119V387.199z M698.79,394.219h5.939v2.555h0.071c1.152-1.907,3.637-3.096,5.867-3.096
	c6.228,0,6.732,4.536,6.732,7.236V412.9h-6.12v-9.035v-1.872c0-1.8-0.612-3.275-3.06-3.275c-2.304,0-3.312,1.979-3.312,3.995V412.9
	h-6.119V394.219z M726.689,405.053c0.107,2.592,1.584,4.248,4.176,4.248c1.475,0,2.915-0.648,3.49-2.053h5.725
	c-1.152,4.32-5.112,6.191-9.287,6.191c-6.084,0-10.223-3.672-10.223-9.935c0-5.724,4.57-9.827,10.078-9.827
	c6.695,0,10.043,5.04,9.755,11.375H726.689z M734.284,401.633c-0.108-2.123-1.584-3.814-3.636-3.814
	c-2.16,0-3.563,1.512-3.959,3.814H734.284z M765.566,412.9h-6.19l-2.952-12.419h-0.072l-2.915,12.419h-6.191l-5.831-18.682h6.191
	l3.131,12.094h0.072l2.664-12.094h5.831l2.735,12.059h0.072l3.06-12.059h6.228L765.566,412.9z M791.128,391.879h-6.119v-4.68h6.119
	V391.879z M785.009,394.219h6.119V412.9h-6.119V394.219z M806.715,398.178h-3.779v8.495c0,1.476,0.864,1.8,2.195,1.8
	c0.541,0,1.045-0.072,1.584-0.072v4.5c-1.115,0.035-2.231,0.18-3.348,0.18c-5.219,0-6.551-1.548-6.551-6.588v-8.314h-3.096v-3.959
	h3.096v-5.652h6.119v5.652h3.779V398.178z M842.893,412.9h-6.19l-2.952-12.419h-0.072l-2.915,12.419h-6.191l-5.831-18.682h6.191
	l3.131,12.094h0.072l2.664-12.094h5.831l2.735,12.059h0.072l3.06-12.059h6.228L842.893,412.9z M850.527,399.978
	c0.107-2.448,1.224-4.032,2.916-5.003c1.691-0.973,3.779-1.297,5.939-1.297c4.427,0,8.711,0.973,8.711,6.264v8.171
	c0,1.584,0,3.312,0.719,4.788h-6.154c-0.252-0.576-0.252-1.152-0.36-1.764c-1.584,1.691-3.888,2.303-6.155,2.303
	c-3.6,0-6.371-1.799-6.371-5.65c0-6.048,6.623-5.615,10.871-6.479c1.043-0.252,1.619-0.576,1.619-1.728
	c0-1.404-1.691-1.944-2.951-1.944c-1.764,0-2.771,0.792-3.061,2.34H850.527z M858.446,409.66c2.915,0,3.888-1.619,3.743-5.508
	c-0.863,0.541-2.447,0.613-3.779,1.008c-1.404,0.324-2.52,0.9-2.52,2.377C855.891,409.084,857.043,409.66,858.446,409.66z
	 M876.879,406.744c0,0.973,0.396,1.62,1.008,2.088c0.575,0.432,1.403,0.648,2.268,0.648c1.151,0,2.879-0.54,2.879-1.98
	c0-1.475-1.943-1.691-2.987-1.979c-3.852-0.973-8.675-1.08-8.675-6.12c0-4.464,4.859-5.724,8.531-5.724
	c4.066,0,8.422,1.188,8.603,6.048h-5.651c0-0.756-0.252-1.296-0.792-1.62c-0.468-0.324-1.116-0.468-1.943-0.468
	c-1.009,0-2.628,0.108-2.628,1.403c0,1.729,4.104,2.125,6.911,2.7c3.743,0.756,4.751,3.491,4.751,5.04
	c0,5.003-4.751,6.658-8.963,6.658c-4.463,0-8.963-1.476-9.143-6.695H876.879z M903.698,394.219h5.939v3.275h0.072
	c0.899-2.412,2.987-3.636,5.615-3.636c0.468,0,0.972,0.036,1.439,0.144v5.58c-0.828-0.252-1.512-0.36-2.34-0.36
	c-3.023,0-4.607,2.088-4.607,4.427v9.252h-6.119V394.219z M925.153,391.879h-6.119v-4.68h6.119V391.879z M919.034,394.219h6.119
	V412.9h-6.119V394.219z M947.543,410.633c0,3.023-0.575,8.818-9.322,8.818c-4.319,0-8.495-0.973-9.179-5.976h6.119
	c0.144,0.792,0.504,1.332,1.044,1.62c0.504,0.252,1.26,0.396,2.231,0.396c2.916,0,3.203-2.053,3.203-4.355v-1.764h-0.071
	c-1.116,1.727-2.952,2.734-4.968,2.734c-5.651,0-8.207-4.031-8.207-9.286c0-4.968,2.916-9.144,8.207-9.144
	c2.268,0,3.924,0.973,5.004,2.881h0.071v-2.34h5.867V410.633z M938.076,398.357c-2.699,0-3.563,2.376-3.563,4.68
	c0,2.195,1.044,4.392,3.528,4.392c2.591,0,3.707-2.052,3.707-4.355C941.748,400.662,940.776,398.357,938.076,398.357z
	 M951.47,387.199h6.119v9.574h0.072c0.972-1.907,3.455-3.096,5.688-3.096c6.227,0,6.73,4.536,6.73,7.236V412.9h-6.119v-9.035v-1.872
	c0-1.8-0.611-3.275-3.06-3.275c-2.304,0-3.312,1.979-3.312,3.995V412.9h-6.119V387.199z M985.416,398.178h-3.779v8.495
	c0,1.476,0.863,1.8,2.195,1.8c0.54,0,1.044-0.072,1.584-0.072v4.5c-1.116,0.035-2.231,0.18-3.348,0.18
	c-5.22,0-6.551-1.548-6.551-6.588v-8.314h-3.096v-3.959h3.096v-5.652h6.119v5.652h3.779V398.178z M988.441,406.205h6.695v6.695
	h-6.695V406.205z M1004,292.5H91v134h913V292.5z"/>
<path fill="#FFFFFF" d="M15.424,11.264H7.426V3.945h24.796v7.319h-7.999V32.5h-8.798V11.264z M35.345,3.945h7.918v10.038h0.08
	c1.32-1.6,3.12-2.759,6.479-2.759c3.719,0,7.119,2.28,7.119,7.039V32.5h-7.918V21.622c0-2.4-0.28-4.08-2.6-4.08
	c-1.4,0-3.16,0.68-3.16,4V32.5h-7.918V3.945z M67.944,23.901c0.2,2.4,1.52,4.04,4.04,4.04c1.28,0,2.68-0.48,3.319-1.48h7.399
	c-1.6,4.479-5.999,6.559-10.678,6.559c-6.639,0-11.638-3.919-11.638-10.838c0-6.039,4.359-10.958,10.958-10.958
	c8.239,0,11.798,4.559,11.798,12.678H67.944z M75.542,19.782c0-1.92-1.439-3.479-3.479-3.479c-2.4,0-3.72,1.24-4.08,3.479H75.542z
	 M101.145,16.623h-3.24v-4.879h3.24c-0.12-2.04,0.08-4.279,1.64-5.839c1.72-1.72,3.719-1.959,6.919-1.959
	c1.24,0,2.319,0.12,3.559,0.16v5.439c-0.64-0.12-1.28-0.28-1.919-0.28c-1.92,0-2.56,0.56-2.439,2.48h4.159v4.879h-4V32.5h-7.918
	V16.623z M115.544,3.945h7.918V32.5h-7.918V3.945z M136.063,9.504h-7.918V3.945h7.918V9.504z M128.144,11.744h7.918V32.5h-7.918
	V11.744z M140.583,11.744h7.639v2.279h0.08c0.96-1.28,2.24-2.799,6.079-2.799c5.879,0,8.718,5.759,8.718,10.998
	c0,4.919-1.879,10.798-8.838,10.798c-2.4,0-4.439-1.04-5.679-2.8h-0.08v8.999h-7.918V11.744z M151.702,27.261
	c2.839,0,3.479-2.679,3.479-5.119c0-2.439-0.64-5.159-3.479-5.159s-3.479,2.72-3.479,5.159
	C148.222,24.582,148.862,27.261,151.702,27.261z M193.261,19.622c-0.08-0.88-0.36-1.52-0.88-1.959c-0.52-0.44-1.16-0.68-2-0.68
	c-3.04,0-3.479,2.64-3.479,5.159c0,2.56,0.44,5.119,3.479,5.119c1.72,0,2.919-1.399,3.08-3.04h7.559
	c-0.76,5.639-5.199,8.799-10.798,8.799c-6.239,0-11.238-4.319-11.238-10.878c0-6.559,4.999-10.918,11.238-10.918
	c5.479,0,10.038,2.64,10.558,8.398H193.261z M224.54,27.861c0,1.56,0.04,3.319,0.959,4.639h-8.079c-0.2-0.6-0.32-1.36-0.28-1.959
	h-0.08c-1.72,1.919-4.119,2.479-6.679,2.479c-4,0-7.319-1.92-7.319-6.279c0-6.599,7.719-6.279,11.718-7.079
	c1.08-0.2,2.16-0.52,2.16-1.84c0-1.399-1.32-1.919-2.6-1.919c-2.399,0-2.959,1.24-2.959,2.12h-7.358
	c0.2-5.879,5.799-6.799,10.678-6.799c9.918,0,9.838,4.119,9.838,8.119V27.861z M216.941,23.182c-0.959,0.48-2.04,0.72-3.119,1
	c-1.76,0.439-2.68,0.84-2.68,2.239c0,0.96,1.04,1.92,2.479,1.92c1.8,0,3.2-1.04,3.319-3.24V23.182z M228.703,11.744h7.639v2.759
	h0.08c1.6-2.399,3.919-3.279,6.799-3.279c2.24,0,4.639,1.16,5.599,3.239c0.32-0.2,1.919-3.239,7.079-3.239
	c5.319,0,7.119,3.679,7.119,7.039V32.5h-7.919V21.262c0-1.959-0.2-3.719-2.6-3.719c-2.04,0-2.679,1.52-2.679,3.719V32.5H241.9
	V21.262c0-1.959-0.2-3.719-2.6-3.719c-2.04,0-2.68,1.52-2.68,3.719V32.5h-7.918V11.744z M273.941,23.901
	c0.2,2.4,1.52,4.04,4.04,4.04c1.28,0,2.68-0.48,3.319-1.48h7.399c-1.6,4.479-5.999,6.559-10.678,6.559
	c-6.639,0-11.638-3.919-11.638-10.838c0-6.039,4.359-10.958,10.958-10.958c8.239,0,11.798,4.559,11.798,12.678H273.941z
	 M281.54,19.782c0-1.92-1.439-3.479-3.479-3.479c-2.4,0-3.72,1.24-4.08,3.479H281.54z M326.059,27.861c0,1.56,0.04,3.319,0.96,4.639
	h-8.079c-0.2-0.6-0.32-1.36-0.28-1.959h-0.08c-1.72,1.919-4.119,2.479-6.679,2.479c-4,0-7.319-1.92-7.319-6.279
	c0-6.599,7.719-6.279,11.718-7.079c1.08-0.2,2.16-0.52,2.16-1.84c0-1.399-1.32-1.919-2.6-1.919c-2.399,0-2.959,1.24-2.959,2.12
	h-7.358c0.2-5.879,5.799-6.799,10.678-6.799c9.918,0,9.838,4.119,9.838,8.119V27.861z M318.46,23.182c-0.959,0.48-2.04,0.72-3.119,1
	c-1.76,0.439-2.68,0.84-2.68,2.239c0,0.96,1.04,1.92,2.479,1.92c1.8,0,3.2-1.04,3.319-3.24V23.182z M339.78,11.744h4.239v4.879
	h-4.239v7.239c0,1.92,0.4,2.76,2.439,2.76c0.6,0,1.2-0.04,1.8-0.12V32.5c-1.6,0-3.359,0.24-5.079,0.24
	c-3.36,0-7.079-0.52-7.079-6.199v-9.918h-3.52v-4.879h3.52V5.424h7.919V11.744z M369.42,11.744h4.239v4.879h-4.239v7.239
	c0,1.92,0.4,2.76,2.439,2.76c0.6,0,1.2-0.04,1.8-0.12V32.5c-1.6,0-3.359,0.24-5.079,0.24c-3.36,0-7.079-0.52-7.079-6.199v-9.918
	h-3.52v-4.879h3.52V5.424h7.919V11.744z M376.182,3.945h7.918v10.038h0.08c1.32-1.6,3.12-2.759,6.479-2.759
	c3.719,0,7.119,2.28,7.119,7.039V32.5h-7.918V21.622c0-2.4-0.28-4.08-2.6-4.08c-1.4,0-3.16,0.68-3.16,4V32.5h-7.918V3.945z
	 M408.78,23.901c0.2,2.4,1.52,4.04,4.04,4.04c1.28,0,2.68-0.48,3.319-1.48h7.399c-1.6,4.479-5.999,6.559-10.678,6.559
	c-6.639,0-11.638-3.919-11.638-10.838c0-6.039,4.359-10.958,10.958-10.958c8.239,0,11.798,4.559,11.798,12.678H408.78z
	 M416.379,19.782c0-1.92-1.439-3.479-3.479-3.479c-2.4,0-3.72,1.24-4.08,3.479H416.379z M452.659,17.782
	c-0.04-0.68-0.399-1.2-0.92-1.56c-0.479-0.4-1.08-0.6-1.76-0.6c-1.12,0-2.399,0.28-2.399,1.6c0,0.6,0.48,0.88,0.92,1.08
	c1.28,0.52,4.318,0.76,6.959,1.6c2.68,0.84,4.959,2.399,4.959,5.799c0,5.759-5.52,7.319-10.559,7.319
	c-4.879,0-10.238-1.96-10.358-7.319h7.559c0.04,0.68,0.36,1.32,0.96,1.84c0.44,0.4,1.16,0.6,2.12,0.6c1.04,0,2.679-0.4,2.679-1.6
	s-0.68-1.56-4.358-2.2c-6.039-1-8.479-2.959-8.479-6.519c0-5.239,5.639-6.599,9.798-6.599c4.479,0,9.878,1.24,10.078,6.559H452.659z
	 M485.217,32.5h-7.639v-2.64h-0.08c-1.479,2.08-3.559,3.16-6.759,3.16c-3.72,0-7.118-2.28-7.118-7.039V11.744h7.918v10.878
	c0,2.4,0.24,4.08,2.6,4.08c1.4,0,3.16-0.68,3.16-4V11.744h7.918V32.5z M510.697,29.82c0,4.16-1.08,9.918-10.799,9.918
	c-4.919,0-10.078-1.32-10.838-6.919h7.839c0.12,0.2,0.28,0.44,0.44,0.72c0.479,0.76,1.319,1.52,2.318,1.52
	c2.561,0,3.12-3.04,3.12-4.759v-1.919h-0.08c-1.28,1.879-3.159,2.879-5.56,2.879c-6.119,0-8.878-4.559-8.878-10.118
	c0-5.399,3.079-9.918,8.999-9.918c2.359,0,4.519,0.92,5.438,3.04h0.08v-2.52h7.919V29.82z M499.738,26.181
	c2.92,0,3.24-2.8,3.24-5.119c0-2.28-1.08-4.08-3.439-4.08c-2.279,0-3.359,1.92-3.359,4.12
	C496.18,23.461,496.899,26.181,499.738,26.181z M535.896,29.82c0,4.16-1.08,9.918-10.799,9.918c-4.919,0-10.078-1.32-10.838-6.919
	h7.839c0.12,0.2,0.28,0.44,0.44,0.72c0.479,0.76,1.319,1.52,2.318,1.52c2.561,0,3.12-3.04,3.12-4.759v-1.919h-0.08
	c-1.28,1.879-3.159,2.879-5.56,2.879c-6.119,0-8.878-4.559-8.878-10.118c0-5.399,3.079-9.918,8.999-9.918
	c2.359,0,4.519,0.92,5.438,3.04h0.08v-2.52h7.919V29.82z M524.938,26.181c2.92,0,3.24-2.8,3.24-5.119c0-2.28-1.08-4.08-3.439-4.08
	c-2.279,0-3.359,1.92-3.359,4.12C521.379,23.461,522.099,26.181,524.938,26.181z M546.618,23.901c0.2,2.4,1.521,4.04,4.04,4.04
	c1.279,0,2.68-0.48,3.318-1.48h7.399c-1.601,4.479-5.999,6.559-10.679,6.559c-6.639,0-11.638-3.919-11.638-10.838
	c0-6.039,4.359-10.958,10.958-10.958c8.238,0,11.799,4.559,11.799,12.678H546.618z M554.217,19.782c0-1.92-1.439-3.479-3.479-3.479
	c-2.4,0-3.721,1.24-4.08,3.479H554.217z M577.137,17.782c-0.039-0.68-0.399-1.2-0.92-1.56c-0.479-0.4-1.079-0.6-1.76-0.6
	c-1.119,0-2.398,0.28-2.398,1.6c0,0.6,0.479,0.88,0.92,1.08c1.279,0.52,4.318,0.76,6.958,1.6c2.68,0.84,4.96,2.399,4.96,5.799
	c0,5.759-5.52,7.319-10.559,7.319c-4.879,0-10.238-1.96-10.358-7.319h7.559c0.04,0.68,0.36,1.32,0.96,1.84
	c0.439,0.4,1.16,0.6,2.119,0.6c1.04,0,2.68-0.4,2.68-1.6s-0.68-1.56-4.359-2.2c-6.039-1-8.479-2.959-8.479-6.519
	c0-5.239,5.639-6.599,9.799-6.599c4.479,0,9.878,1.24,10.078,6.559H577.137z M597.617,11.744h4.239v4.879h-4.239v7.239
	c0,1.92,0.4,2.76,2.439,2.76c0.6,0,1.199-0.04,1.8-0.12V32.5c-1.601,0-3.359,0.24-5.079,0.24c-3.359,0-7.079-0.52-7.079-6.199
	v-9.918h-3.52v-4.879h3.52V5.424h7.919V11.744z M612.457,9.504h-7.918V3.945h7.918V9.504z M604.539,11.744h7.918V32.5h-7.918V11.744
	z M627.416,33.02c-7.799,0-11.318-5.159-11.318-10.918c0-5.719,3.52-10.878,11.318-10.878s11.318,5.159,11.318,10.878
	C638.734,27.861,635.215,33.02,627.416,33.02z M627.416,16.982c-3.039,0-3.399,2.92-3.399,5.119c0,2.2,0.36,5.159,3.399,5.159
	s3.399-2.959,3.399-5.159C630.815,19.902,630.455,16.982,627.416,16.982z M642.178,11.744h7.639v2.639h0.08
	c1.479-2.08,3.56-3.159,6.759-3.159c3.72,0,7.118,2.28,7.118,7.039V32.5h-7.918V21.622c0-2.4-0.279-4.08-2.6-4.08
	c-1.4,0-3.16,0.68-3.16,4V32.5h-7.918V11.744z M691.896,33.02c-7.798,0-11.317-5.159-11.317-10.918
	c0-5.719,3.52-10.878,11.317-10.878c7.799,0,11.318,5.159,11.318,10.878C703.214,27.861,699.694,33.02,691.896,33.02z
	 M691.896,16.982c-3.039,0-3.399,2.92-3.399,5.119c0,2.2,0.36,5.159,3.399,5.159c3.04,0,3.399-2.959,3.399-5.159
	C695.295,19.902,694.936,16.982,691.896,16.982z M707.977,16.623h-3.239v-4.879h3.239c-0.119-2.04,0.08-4.279,1.641-5.839
	c1.719-1.72,3.719-1.959,6.918-1.959c1.24,0,2.32,0.12,3.56,0.16v5.439c-0.64-0.12-1.28-0.28-1.919-0.28
	c-1.92,0-2.561,0.56-2.439,2.48h4.158v4.879h-3.999V32.5h-7.919V16.623z M755.813,27.861c0,1.56,0.04,3.319,0.96,4.639h-8.079
	c-0.2-0.6-0.319-1.36-0.28-1.959h-0.08c-1.719,1.919-4.119,2.479-6.678,2.479c-4,0-7.319-1.92-7.319-6.279
	c0-6.599,7.719-6.279,11.718-7.079c1.08-0.2,2.16-0.52,2.16-1.84c0-1.399-1.32-1.919-2.6-1.919c-2.4,0-2.96,1.24-2.96,2.12h-7.358
	c0.199-5.879,5.799-6.799,10.678-6.799c9.918,0,9.839,4.119,9.839,8.119V27.861z M748.215,23.182c-0.96,0.48-2.04,0.72-3.119,1
	c-1.76,0.439-2.68,0.84-2.68,2.239c0,0.96,1.039,1.92,2.479,1.92c1.801,0,3.2-1.04,3.32-3.24V23.182z M774.696,16.623h-3.239v-4.879
	h3.239c-0.12-2.04,0.08-4.279,1.64-5.839c1.72-1.72,3.719-1.959,6.919-1.959c1.239,0,2.319,0.12,3.56,0.16v5.439
	c-0.641-0.12-1.28-0.28-1.92-0.28c-1.92,0-2.56,0.56-2.439,2.48h4.159v4.879h-3.999V32.5h-7.919V16.623z M788.936,11.744h7.6v3.319
	h0.08c1.279-2.52,2.959-3.839,5.838-3.839c0.76,0,1.521,0.12,2.32,0.32v6.999c-0.8-0.28-1.52-0.52-3.119-0.52
	c-3.16,0-4.8,1.8-4.8,6.279V32.5h-7.919V11.744z M814.774,9.504h-7.919V3.945h7.919V9.504z M806.855,11.744h7.919V32.5h-7.919
	V11.744z M825.975,23.901c0.199,2.4,1.52,4.04,4.039,4.04c1.279,0,2.68-0.48,3.319-1.48h7.398c-1.6,4.479-5.999,6.559-10.678,6.559
	c-6.639,0-11.638-3.919-11.638-10.838c0-6.039,4.358-10.958,10.958-10.958c8.238,0,11.798,4.559,11.798,12.678H825.975z
	 M833.573,19.782c0-1.92-1.44-3.479-3.479-3.479c-2.399,0-3.72,1.24-4.079,3.479H833.573z M844.494,11.744h7.64v2.639h0.079
	c1.48-2.08,3.56-3.159,6.76-3.159c3.719,0,7.118,2.28,7.118,7.039V32.5h-7.919V21.622c0-2.4-0.279-4.08-2.6-4.08
	c-1.399,0-3.159,0.68-3.159,4V32.5h-7.919V11.744z M892.011,32.5h-7.639v-2.28h-0.08c-0.96,1.28-2.239,2.8-6.079,2.8
	c-5.879,0-8.718-5.759-8.718-10.998c0-4.919,1.879-10.798,8.838-10.798c2.399,0,4.439,1.04,5.68,2.799h0.079V3.945h7.919V32.5z
	 M880.893,16.982c-2.839,0-3.479,2.68-3.479,5.119c0,2.44,0.641,5.159,3.479,5.159c2.84,0,3.479-2.719,3.479-5.159
	C884.372,19.662,883.732,16.982,880.893,16.982z M73.361,75.861c0,1.56,0.04,3.319,0.959,4.639h-8.079
	c-0.2-0.6-0.32-1.36-0.28-1.959h-0.08c-1.72,1.919-4.119,2.479-6.679,2.479c-4,0-7.319-1.92-7.319-6.279
	c0-6.599,7.719-6.279,11.718-7.079c1.08-0.2,2.16-0.52,2.16-1.84c0-1.399-1.32-1.919-2.6-1.919c-2.399,0-2.959,1.24-2.959,2.12
	h-7.358c0.2-5.879,5.799-6.799,10.678-6.799c9.918,0,9.838,4.119,9.838,8.119V75.861z M65.762,71.182c-0.959,0.48-2.04,0.72-3.119,1
	c-1.76,0.439-2.68,0.84-2.68,2.239c0,0.96,1.04,1.92,2.479,1.92c1.8,0,3.2-1.04,3.319-3.24V71.182z M89.562,65.782
	c-0.04-0.68-0.4-1.2-0.92-1.56c-0.48-0.4-1.08-0.6-1.76-0.6c-1.12,0-2.399,0.28-2.399,1.6c0,0.6,0.48,0.88,0.92,1.08
	c1.28,0.52,4.319,0.76,6.958,1.6c2.68,0.84,4.959,2.399,4.959,5.799c0,5.759-5.519,7.319-10.559,7.319
	c-4.879,0-10.238-1.96-10.358-7.319h7.559c0.04,0.68,0.36,1.32,0.96,1.84c0.44,0.4,1.16,0.6,2.12,0.6c1.04,0,2.679-0.4,2.679-1.6
	s-0.68-1.56-4.359-2.2c-6.039-1-8.479-2.959-8.479-6.519c0-5.239,5.639-6.599,9.798-6.599c4.479,0,9.878,1.24,10.078,6.559H89.562z
	 M134.12,75.861c0,1.56,0.04,3.319,0.96,4.639h-8.079c-0.2-0.6-0.32-1.36-0.28-1.959h-0.08c-1.72,1.919-4.119,2.479-6.679,2.479
	c-4,0-7.319-1.92-7.319-6.279c0-6.599,7.719-6.279,11.718-7.079c1.08-0.2,2.16-0.52,2.16-1.84c0-1.399-1.32-1.919-2.6-1.919
	c-2.399,0-2.959,1.24-2.959,2.12h-7.358c0.2-5.879,5.799-6.799,10.678-6.799c9.918,0,9.838,4.119,9.838,8.119V75.861z
	 M126.521,71.182c-0.959,0.48-2.04,0.72-3.119,1c-1.76,0.439-2.68,0.84-2.68,2.239c0,0.96,1.04,1.92,2.479,1.92
	c1.8,0,3.2-1.04,3.319-3.24V71.182z M172.84,77.82c0,4.16-1.08,9.918-10.798,9.918c-4.919,0-10.079-1.32-10.838-6.919h7.839
	c0.12,0.2,0.28,0.44,0.44,0.72c0.48,0.76,1.32,1.52,2.319,1.52c2.56,0,3.12-3.04,3.12-4.759v-1.919h-0.08
	c-1.28,1.879-3.16,2.879-5.559,2.879c-6.119,0-8.878-4.559-8.878-10.118c0-5.399,3.08-9.918,8.999-9.918
	c2.359,0,4.519,0.92,5.439,3.04h0.08v-2.52h7.918V77.82z M161.882,74.181c2.919,0,3.239-2.8,3.239-5.119
	c0-2.28-1.08-4.08-3.439-4.08c-2.279,0-3.359,1.92-3.359,4.12C158.322,71.461,159.042,74.181,161.882,74.181z M187.321,81.02
	c-7.798,0-11.318-5.159-11.318-10.918c0-5.719,3.52-10.878,11.318-10.878c7.799,0,11.318,5.159,11.318,10.878
	C198.64,75.861,195.12,81.02,187.321,81.02z M187.321,64.982c-3.039,0-3.399,2.92-3.399,5.119c0,2.2,0.36,5.159,3.399,5.159
	c3.04,0,3.399-2.959,3.399-5.159C190.721,67.902,190.361,64.982,187.321,64.982z M222.319,75.861c0,1.56,0.04,3.319,0.959,4.639
	H215.2c-0.2-0.6-0.32-1.36-0.28-1.959h-0.08c-1.72,1.919-4.119,2.479-6.679,2.479c-4,0-7.319-1.92-7.319-6.279
	c0-6.599,7.719-6.279,11.718-7.079c1.08-0.2,2.16-0.52,2.16-1.84c0-1.399-1.32-1.919-2.6-1.919c-2.399,0-2.959,1.24-2.959,2.12
	h-7.358c0.2-5.879,5.799-6.799,10.678-6.799c9.918,0,9.838,4.119,9.838,8.119V75.861z M214.72,71.182c-0.959,0.48-2.04,0.72-3.119,1
	c-1.76,0.439-2.68,0.84-2.68,2.239c0,0.96,1.04,1.92,2.479,1.92c1.8,0,3.2-1.04,3.319-3.24V71.182z M226.683,51.945h7.918V80.5
	h-7.918V51.945z M265.88,67.622c-0.08-0.88-0.36-1.52-0.88-1.959c-0.52-0.44-1.16-0.68-2-0.68c-3.04,0-3.479,2.64-3.479,5.159
	c0,2.56,0.44,5.119,3.479,5.119c1.72,0,2.919-1.399,3.08-3.04h7.559c-0.76,5.639-5.199,8.799-10.798,8.799
	c-6.239,0-11.238-4.319-11.238-10.878c0-6.559,4.999-10.918,11.238-10.918c5.479,0,10.038,2.64,10.558,8.398H265.88z M283.6,71.901
	c0.2,2.4,1.52,4.04,4.04,4.04c1.28,0,2.68-0.48,3.319-1.48h7.399c-1.6,4.479-5.999,6.559-10.678,6.559
	c-6.639,0-11.638-3.919-11.638-10.838c0-6.039,4.359-10.958,10.958-10.958c8.239,0,11.798,4.559,11.798,12.678H283.6z
	 M291.199,67.782c0-1.92-1.439-3.479-3.479-3.479c-2.4,0-3.72,1.24-4.08,3.479H291.199z M302.281,51.945h7.918V80.5h-7.918V51.945z
	 M321.399,71.901c0.2,2.4,1.52,4.04,4.04,4.04c1.28,0,2.68-0.48,3.319-1.48h7.399c-1.6,4.479-5.999,6.559-10.678,6.559
	c-6.639,0-11.638-3.919-11.638-10.838c0-6.039,4.359-10.958,10.958-10.958c8.239,0,11.798,4.559,11.798,12.678H321.399z
	 M328.998,67.782c0-1.92-1.439-3.479-3.479-3.479c-2.4,0-3.72,1.24-4.08,3.479H328.998z M339.92,51.945h7.918v10.078h0.08
	c1.24-1.76,3.279-2.799,5.679-2.799c6.959,0,8.838,5.879,8.838,10.798c0,5.239-2.839,10.998-8.718,10.998
	c-3.839,0-5.119-1.52-6.079-2.8h-0.08v2.28h-7.639V51.945z M351.039,64.982c-2.839,0-3.479,2.68-3.479,5.119
	c0,2.44,0.64,5.159,3.479,5.159s3.479-2.719,3.479-5.159C354.518,67.662,353.878,64.982,351.039,64.982z M365.84,59.744h7.599v3.319
	h0.08c1.28-2.52,2.959-3.839,5.839-3.839c0.76,0,1.52,0.12,2.32,0.32v6.999c-0.8-0.28-1.52-0.52-3.12-0.52
	c-3.159,0-4.799,1.8-4.799,6.279V80.5h-7.918V59.744z M403.836,75.861c0,1.56,0.04,3.319,0.959,4.639h-8.079
	c-0.2-0.6-0.32-1.36-0.28-1.959h-0.08c-1.72,1.919-4.119,2.479-6.679,2.479c-4,0-7.319-1.92-7.319-6.279
	c0-6.599,7.719-6.279,11.718-7.079c1.08-0.2,2.16-0.52,2.16-1.84c0-1.399-1.32-1.919-2.6-1.919c-2.399,0-2.959,1.24-2.959,2.12
	h-7.358c0.2-5.879,5.799-6.799,10.678-6.799c9.918,0,9.838,4.119,9.838,8.119V75.861z M396.237,71.182
	c-0.959,0.48-2.04,0.72-3.119,1c-1.76,0.439-2.68,0.84-2.68,2.239c0,0.96,1.04,1.92,2.479,1.92c1.8,0,3.2-1.04,3.319-3.24V71.182z
	 M417.558,59.744h4.239v4.879h-4.239v7.239c0,1.92,0.4,2.76,2.439,2.76c0.6,0,1.2-0.04,1.8-0.12V80.5c-1.6,0-3.359,0.24-5.079,0.24
	c-3.36,0-7.079-0.52-7.079-6.199v-9.918h-3.52v-4.879h3.52v-6.319h7.919V59.744z M432.397,57.504h-7.918v-5.559h7.918V57.504z
	 M424.479,59.744h7.918V80.5h-7.918V59.744z M447.356,81.02c-7.798,0-11.318-5.159-11.318-10.918c0-5.719,3.52-10.878,11.318-10.878
	c7.799,0,11.318,5.159,11.318,10.878C458.675,75.861,455.155,81.02,447.356,81.02z M447.356,64.982c-3.039,0-3.399,2.92-3.399,5.119
	c0,2.2,0.36,5.159,3.399,5.159c3.04,0,3.399-2.959,3.399-5.159C450.756,67.902,450.396,64.982,447.356,64.982z M462.118,59.744
	h7.639v2.639h0.08c1.479-2.08,3.56-3.159,6.759-3.159c3.719,0,7.119,2.28,7.119,7.039V80.5h-7.919V69.622c0-2.4-0.28-4.08-2.6-4.08
	c-1.399,0-3.159,0.68-3.159,4V80.5h-7.919V59.744z M488.397,72.582h8.319V80.5h-8.319V72.582z M543.393,80.5h-8.559l-3.079-17.397
	h-0.08L528.676,80.5h-8.6l-7.758-28.555h8.639l3.479,17.637h0.08l3.439-17.637h7.76l3.359,17.877h0.08l3.559-17.877h8.679
	L543.393,80.5z M553.277,51.945h7.919v10.038h0.08c1.319-1.6,3.12-2.759,6.479-2.759c3.719,0,7.118,2.28,7.118,7.039V80.5h-7.919
	V69.622c0-2.4-0.279-4.08-2.6-4.08c-1.399,0-3.159,0.68-3.159,4V80.5h-7.919V51.945z M585.877,71.901
	c0.199,2.4,1.52,4.04,4.039,4.04c1.279,0,2.68-0.48,3.319-1.48h7.399c-1.601,4.479-6,6.559-10.679,6.559
	c-6.64,0-11.638-3.919-11.638-10.838c0-6.039,4.359-10.958,10.957-10.958c8.239,0,11.799,4.559,11.799,12.678H585.877z
	 M593.475,67.782c0-1.92-1.439-3.479-3.479-3.479c-2.4,0-3.72,1.24-4.08,3.479H593.475z M604.396,59.744h7.639v2.639h0.08
	c1.48-2.08,3.56-3.159,6.76-3.159c3.719,0,7.118,2.28,7.118,7.039V80.5h-7.919V69.622c0-2.4-0.279-4.08-2.6-4.08
	c-1.399,0-3.159,0.68-3.159,4V80.5h-7.919V59.744z M643.797,51.945h8.799V80.5h-8.799V51.945z M682.354,65.782
	c-0.04-0.68-0.399-1.2-0.92-1.56c-0.479-0.4-1.08-0.6-1.76-0.6c-1.12,0-2.399,0.28-2.399,1.6c0,0.6,0.48,0.88,0.92,1.08
	c1.279,0.52,4.318,0.76,6.959,1.6c2.68,0.84,4.959,2.399,4.959,5.799c0,5.759-5.52,7.319-10.559,7.319
	c-4.879,0-10.238-1.96-10.357-7.319h7.559c0.039,0.68,0.359,1.32,0.959,1.84c0.44,0.4,1.16,0.6,2.12,0.6c1.04,0,2.679-0.4,2.679-1.6
	s-0.68-1.56-4.358-2.2c-6.039-1-8.479-2.959-8.479-6.519c0-5.239,5.639-6.599,9.798-6.599c4.479,0,9.879,1.24,10.078,6.559H682.354z
	 M713.553,75.861c0,1.56,0.039,3.319,0.959,4.639h-8.078c-0.199-0.6-0.32-1.36-0.279-1.959h-0.08
	c-1.721,1.919-4.119,2.479-6.68,2.479c-3.999,0-7.318-1.92-7.318-6.279c0-6.599,7.719-6.279,11.718-7.079
	c1.08-0.2,2.159-0.52,2.159-1.84c0-1.399-1.319-1.919-2.6-1.919c-2.398,0-2.959,1.24-2.959,2.12h-7.358
	c0.2-5.879,5.799-6.799,10.679-6.799c9.918,0,9.838,4.119,9.838,8.119V75.861z M705.953,71.182c-0.959,0.48-2.039,0.72-3.119,1
	c-1.76,0.439-2.68,0.84-2.68,2.239c0,0.96,1.04,1.92,2.48,1.92c1.799,0,3.199-1.04,3.318-3.24V71.182z M744.111,80.5h-8.119
	l-2.999-12.758h-0.08L729.834,80.5h-8.119l-6.479-20.756h8.238l3.08,12.838h0.08l2.639-12.838h7.399l2.759,12.838h0.16l2.88-12.838
	h8.239L744.111,80.5z M765.916,51.945h7.918v10.038h0.08c1.32-1.6,3.119-2.759,6.479-2.759c3.72,0,7.119,2.28,7.119,7.039V80.5
	h-7.918V69.622c0-2.4-0.28-4.08-2.6-4.08c-1.4,0-3.16,0.68-3.16,4V80.5h-7.918V51.945z M802.273,81.02
	c-7.799,0-11.318-5.159-11.318-10.918c0-5.719,3.52-10.878,11.318-10.878s11.318,5.159,11.318,10.878
	C813.592,75.861,810.072,81.02,802.273,81.02z M802.273,64.982c-3.039,0-3.399,2.92-3.399,5.119c0,2.2,0.36,5.159,3.399,5.159
	s3.399-2.959,3.399-5.159C805.673,67.902,805.313,64.982,802.273,64.982z M843.391,80.5h-8.119l-2.999-12.758h-0.08l-3.08,12.758
	h-8.118l-6.479-20.756h8.239l3.079,12.838h0.08l2.64-12.838h7.398l2.76,12.838h0.16l2.879-12.838h8.239L843.391,80.5z
	 M89.064,107.744h7.639v2.279h0.08c0.96-1.28,2.24-2.8,6.079-2.8c5.879,0,8.718,5.759,8.718,10.998
	c0,4.919-1.879,10.798-8.838,10.798c-2.399,0-4.439-1.039-5.679-2.799h-0.08v8.998h-7.918V107.744z M100.183,123.261
	c2.839,0,3.479-2.679,3.479-5.119c0-2.439-0.64-5.159-3.479-5.159s-3.479,2.72-3.479,5.159
	C96.703,120.582,97.343,123.261,100.183,123.261z M121.663,119.901c0.2,2.399,1.52,4.04,4.04,4.04c1.28,0,2.68-0.48,3.319-1.48
	h7.399c-1.6,4.479-5.999,6.559-10.678,6.559c-6.639,0-11.638-3.919-11.638-10.838c0-6.039,4.359-10.958,10.958-10.958
	c8.239,0,11.798,4.56,11.798,12.678H121.663z M129.262,115.782c0-1.92-1.439-3.479-3.479-3.479c-2.4,0-3.72,1.24-4.08,3.479H129.262
	z M150.622,129.02c-7.798,0-11.318-5.158-11.318-10.918c0-5.719,3.52-10.878,11.318-10.878c7.799,0,11.318,5.159,11.318,10.878
	C161.94,123.861,158.421,129.02,150.622,129.02z M150.622,112.982c-3.039,0-3.399,2.92-3.399,5.119s0.36,5.159,3.399,5.159
	c3.04,0,3.399-2.96,3.399-5.159S153.662,112.982,150.622,112.982z M165.383,107.744h7.639v2.279h0.08c0.96-1.28,2.24-2.8,6.079-2.8
	c5.879,0,8.718,5.759,8.718,10.998c0,4.919-1.879,10.798-8.838,10.798c-2.4,0-4.439-1.039-5.679-2.799h-0.08v8.998h-7.918V107.744z
	 M176.501,123.261c2.839,0,3.479-2.679,3.479-5.119c0-2.439-0.64-5.159-3.479-5.159s-3.479,2.72-3.479,5.159
	C173.022,120.582,173.662,123.261,176.501,123.261z M191.463,99.945h7.918V128.5h-7.918V99.945z M210.582,119.901
	c0.2,2.399,1.52,4.04,4.04,4.04c1.28,0,2.68-0.48,3.319-1.48h7.399c-1.6,4.479-5.999,6.559-10.678,6.559
	c-6.639,0-11.638-3.919-11.638-10.838c0-6.039,4.359-10.958,10.958-10.958c8.239,0,11.798,4.56,11.798,12.678H210.582z
	 M218.18,115.782c0-1.92-1.439-3.479-3.479-3.479c-2.4,0-3.72,1.24-4.08,3.479H218.18z M268.818,128.5h-8.119l-3-12.758h-0.08
	l-3.079,12.758h-8.119l-6.479-20.756h8.239l3.079,12.838h0.08l2.64-12.838h7.399l2.759,12.838h0.16l2.879-12.838h8.239
	L268.818,128.5z M287.7,129.02c-7.798,0-11.318-5.158-11.318-10.918c0-5.719,3.52-10.878,11.318-10.878
	c7.799,0,11.318,5.159,11.318,10.878C299.019,123.861,295.499,129.02,287.7,129.02z M287.7,112.982c-3.039,0-3.399,2.92-3.399,5.119
	s0.36,5.159,3.399,5.159c3.04,0,3.399-2.96,3.399-5.159S290.74,112.982,287.7,112.982z M324.058,128.5h-7.639v-2.64h-0.08
	c-1.479,2.079-3.559,3.159-6.759,3.159c-3.719,0-7.119-2.279-7.119-7.039v-14.236h7.918v10.877c0,2.4,0.24,4.08,2.6,4.08
	c1.4,0,3.16-0.68,3.16-4v-10.957h7.918V128.5z M328.542,99.945h7.918V128.5h-7.918V99.945z M362.577,128.5h-7.639v-2.279h-0.08
	c-0.959,1.279-2.239,2.799-6.079,2.799c-5.879,0-8.719-5.759-8.719-10.998c0-4.919,1.88-10.798,8.838-10.798
	c2.4,0,4.439,1.04,5.679,2.8h0.08V99.945h7.918V128.5z M351.459,112.982c-2.839,0-3.479,2.68-3.479,5.119s0.64,5.159,3.479,5.159
	c2.84,0,3.479-2.72,3.479-5.159S354.299,112.982,351.459,112.982z M380.261,107.744h7.599v3.318h0.08
	c1.28-2.52,2.959-3.839,5.839-3.839c0.76,0,1.52,0.12,2.32,0.319v7c-0.8-0.281-1.52-0.521-3.12-0.521
	c-3.159,0-4.799,1.8-4.799,6.278v8.199h-7.918V107.744z M403.979,119.901c0.2,2.399,1.52,4.04,4.04,4.04
	c1.28,0,2.68-0.48,3.319-1.48h7.399c-1.6,4.479-5.999,6.559-10.678,6.559c-6.639,0-11.638-3.919-11.638-10.838
	c0-6.039,4.359-10.958,10.958-10.958c8.239,0,11.798,4.56,11.798,12.678H403.979z M411.578,115.782c0-1.92-1.439-3.479-3.479-3.479
	c-2.4,0-3.72,1.24-4.08,3.479H411.578z M442.736,123.861c0,1.559,0.04,3.318,0.96,4.639h-8.079c-0.2-0.6-0.32-1.359-0.28-1.959
	h-0.08c-1.72,1.919-4.119,2.479-6.679,2.479c-4,0-7.319-1.92-7.319-6.278c0-6.599,7.719-6.279,11.718-7.079
	c1.08-0.199,2.16-0.52,2.16-1.84c0-1.399-1.32-1.92-2.6-1.92c-2.399,0-2.959,1.24-2.959,2.12h-7.358
	c0.2-5.879,5.799-6.799,10.678-6.799c9.918,0,9.838,4.119,9.838,8.118V123.861z M435.138,119.182c-0.959,0.48-2.04,0.72-3.119,1
	c-1.76,0.439-2.68,0.84-2.68,2.239c0,0.96,1.04,1.92,2.479,1.92c1.8,0,3.2-1.04,3.319-3.239V119.182z M460.338,115.622
	c-0.08-0.88-0.36-1.52-0.88-1.96c-0.521-0.439-1.16-0.68-2-0.68c-3.04,0-3.479,2.64-3.479,5.159c0,2.56,0.439,5.119,3.479,5.119
	c1.72,0,2.919-1.399,3.079-3.04h7.559c-0.76,5.64-5.198,8.799-10.797,8.799c-6.24,0-11.239-4.318-11.239-10.878
	c0-6.559,4.999-10.918,11.239-10.918c5.479,0,10.037,2.64,10.558,8.398H460.338z M480.898,107.744h4.238v4.879h-4.238v7.238
	c0,1.92,0.399,2.76,2.439,2.76c0.6,0,1.199-0.04,1.799-0.12v5.999c-1.6,0-3.359,0.24-5.078,0.24c-3.36,0-7.08-0.52-7.08-6.199
	v-9.918h-3.52v-4.879h3.52v-6.32h7.92V107.744z M510.538,107.744h4.239v4.879h-4.239v7.238c0,1.92,0.399,2.76,2.439,2.76
	c0.6,0,1.2-0.04,1.8-0.12v5.999c-1.6,0-3.359,0.24-5.079,0.24c-3.36,0-7.079-0.52-7.079-6.199v-9.918h-3.52v-4.879h3.52v-6.32h7.919
	V107.744z M527.737,129.02c-7.798,0-11.317-5.158-11.317-10.918c0-5.719,3.52-10.878,11.317-10.878
	c7.799,0,11.318,5.159,11.318,10.878C539.056,123.861,535.536,129.02,527.737,129.02z M527.737,112.982
	c-3.039,0-3.399,2.92-3.399,5.119s0.36,5.159,3.399,5.159c3.04,0,3.399-2.96,3.399-5.159S530.777,112.982,527.737,112.982z
	 M565.377,107.744h4.24v4.879h-4.24v7.238c0,1.92,0.4,2.76,2.439,2.76c0.601,0,1.2-0.04,1.801-0.12v5.999
	c-1.601,0-3.359,0.24-5.08,0.24c-3.359,0-7.078-0.52-7.078-6.199v-9.918h-3.52v-4.879h3.52v-6.32h7.918V107.744z M572.139,99.945
	h7.918v10.037h0.08c1.32-1.6,3.12-2.759,6.479-2.759c3.72,0,7.118,2.28,7.118,7.038V128.5h-7.918v-10.878
	c0-2.399-0.279-4.079-2.6-4.079c-1.4,0-3.16,0.68-3.16,3.999V128.5h-7.918V99.945z M604.737,119.901c0.2,2.399,1.521,4.04,4.04,4.04
	c1.279,0,2.68-0.48,3.318-1.48h7.399c-1.601,4.479-5.999,6.559-10.679,6.559c-6.639,0-11.638-3.919-11.638-10.838
	c0-6.039,4.359-10.958,10.958-10.958c8.238,0,11.799,4.56,11.799,12.678H604.737z M612.336,115.782c0-1.92-1.439-3.479-3.479-3.479
	c-2.4,0-3.721,1.24-4.08,3.479H612.336z M637.938,112.623h-3.239v-4.879h3.239c-0.119-2.041,0.08-4.279,1.641-5.84
	c1.719-1.72,3.719-1.959,6.918-1.959c1.24,0,2.32,0.119,3.56,0.16v5.438c-0.64-0.12-1.28-0.28-1.919-0.28
	c-1.92,0-2.561,0.561-2.439,2.48h4.158v4.879h-3.999V128.5h-7.919V112.623z M652.338,99.945h7.918V128.5h-7.918V99.945z
	 M672.855,105.504h-7.918v-5.559h7.918V105.504z M664.938,107.744h7.918V128.5h-7.918V107.744z M677.377,107.744h7.639v2.279h0.08
	c0.96-1.28,2.24-2.8,6.079-2.8c5.879,0,8.718,5.759,8.718,10.998c0,4.919-1.879,10.798-8.838,10.798
	c-2.399,0-4.439-1.039-5.68-2.799h-0.08v8.998h-7.918V107.744z M688.495,123.261c2.839,0,3.479-2.679,3.479-5.119
	c0-2.439-0.641-5.159-3.479-5.159s-3.479,2.72-3.479,5.159C685.016,120.582,685.656,123.261,688.495,123.261z M736.894,123.861
	c0,1.559,0.04,3.318,0.96,4.639h-8.079c-0.2-0.6-0.319-1.359-0.28-1.959h-0.08c-1.719,1.919-4.119,2.479-6.678,2.479
	c-4,0-7.319-1.92-7.319-6.278c0-6.599,7.719-6.279,11.718-7.079c1.08-0.199,2.16-0.52,2.16-1.84c0-1.399-1.32-1.92-2.6-1.92
	c-2.4,0-2.96,1.24-2.96,2.12h-7.358c0.199-5.879,5.799-6.799,10.678-6.799c9.918,0,9.839,4.119,9.839,8.118V123.861z
	 M729.295,119.182c-0.96,0.48-2.04,0.72-3.119,1c-1.76,0.439-2.68,0.84-2.68,2.239c0,0.96,1.039,1.92,2.479,1.92
	c1.801,0,3.2-1.04,3.32-3.239V119.182z M742.416,112.623h-3.24v-4.879h3.24c-0.12-2.041,0.08-4.279,1.64-5.84
	c1.72-1.72,3.72-1.959,6.919-1.959c1.24,0,2.319,0.119,3.559,0.16v5.438c-0.639-0.12-1.279-0.28-1.919-0.28
	c-1.92,0-2.56,0.561-2.439,2.48h4.159v4.879h-4V128.5h-7.918V112.623z M766.174,107.744h4.24v4.879h-4.24v7.238
	c0,1.92,0.4,2.76,2.439,2.76c0.601,0,1.2-0.04,1.801-0.12v5.999c-1.601,0-3.359,0.24-5.08,0.24c-3.359,0-7.078-0.52-7.078-6.199
	v-9.918h-3.52v-4.879h3.52v-6.32h7.918V107.744z M779.615,119.901c0.199,2.399,1.52,4.04,4.039,4.04c1.279,0,2.68-0.48,3.319-1.48
	h7.399c-1.601,4.479-6,6.559-10.679,6.559c-6.64,0-11.638-3.919-11.638-10.838c0-6.039,4.359-10.958,10.957-10.958
	c8.239,0,11.799,4.56,11.799,12.678H779.615z M787.213,115.782c0-1.92-1.439-3.479-3.479-3.479c-2.4,0-3.72,1.24-4.08,3.479H787.213
	z M798.135,107.744h7.6v3.318h0.08c1.279-2.52,2.959-3.839,5.838-3.839c0.76,0,1.521,0.12,2.32,0.319v7
	c-0.8-0.281-1.52-0.521-3.119-0.521c-3.16,0-4.8,1.8-4.8,6.278v8.199h-7.919V107.744z M162.543,147.945h8.798V176.5h-8.798V147.945z
	 M201.101,161.782c-0.04-0.68-0.4-1.2-0.92-1.56c-0.48-0.4-1.08-0.6-1.76-0.6c-1.12,0-2.399,0.279-2.399,1.6
	c0,0.6,0.48,0.88,0.92,1.08c1.28,0.52,4.319,0.76,6.958,1.6c2.68,0.84,4.959,2.399,4.959,5.799c0,5.759-5.519,7.318-10.559,7.318
	c-4.879,0-10.238-1.959-10.358-7.318h7.559c0.04,0.68,0.36,1.32,0.96,1.84c0.44,0.4,1.16,0.6,2.12,0.6c1.04,0,2.679-0.4,2.679-1.6
	s-0.68-1.56-4.359-2.199c-6.039-1-8.479-2.96-8.479-6.52c0-5.238,5.639-6.599,9.798-6.599c4.479,0,9.878,1.239,10.078,6.559H201.101
	z M225.46,163.622c-0.08-0.88-0.36-1.52-0.88-1.96c-0.52-0.439-1.16-0.68-2-0.68c-3.04,0-3.479,2.64-3.479,5.159
	c0,2.56,0.44,5.119,3.479,5.119c1.72,0,2.919-1.399,3.08-3.04h7.559c-0.76,5.64-5.199,8.799-10.798,8.799
	c-6.239,0-11.238-4.318-11.238-10.878c0-6.559,4.999-10.918,11.238-10.918c5.479,0,10.038,2.64,10.558,8.398H225.46z M246.94,177.02
	c-7.798,0-11.318-5.158-11.318-10.918c0-5.719,3.52-10.878,11.318-10.878c7.799,0,11.318,5.159,11.318,10.878
	C258.259,171.861,254.739,177.02,246.94,177.02z M246.94,160.982c-3.039,0-3.399,2.92-3.399,5.119s0.36,5.159,3.399,5.159
	c3.04,0,3.399-2.96,3.399-5.159S249.98,160.982,246.94,160.982z M261.702,155.744h7.599v3.318h0.08
	c1.28-2.52,2.959-3.839,5.839-3.839c0.76,0,1.52,0.12,2.32,0.319v7c-0.8-0.281-1.52-0.521-3.12-0.521
	c-3.159,0-4.799,1.8-4.799,6.278v8.199h-7.918V155.744z M285.42,167.901c0.2,2.399,1.52,4.04,4.04,4.04c1.28,0,2.68-0.48,3.319-1.48
	h7.399c-1.6,4.479-5.999,6.559-10.678,6.559c-6.639,0-11.638-3.919-11.638-10.838c0-6.039,4.359-10.958,10.958-10.958
	c8.239,0,11.798,4.56,11.798,12.678H285.42z M293.019,163.782c0-1.92-1.439-3.479-3.479-3.479c-2.4,0-3.72,1.24-4.08,3.479H293.019z
	 M325.538,176.5h-7.639v-2.279h-0.08c-0.959,1.279-2.239,2.799-6.079,2.799c-5.879,0-8.719-5.759-8.719-10.998
	c0-4.919,1.88-10.798,8.838-10.798c2.4,0,4.439,1.04,5.679,2.8h0.08v-10.078h7.918V176.5z M314.419,160.982
	c-2.839,0-3.479,2.68-3.479,5.119s0.64,5.159,3.479,5.159c2.84,0,3.479-2.72,3.479-5.159S317.259,160.982,314.419,160.982z
	 M330.221,168.582h8.319v6.278c0,3.8-1.32,7.198-4.879,8.398c-1.44,0.479-2.68,0.479-3.439,0.479v-3.479
	c1.96-0.16,3.439-1.84,3.56-3.76h-3.56V168.582z M356.701,147.945h8.798V176.5h-8.798V147.945z M383.421,147.945h7.918v13.797
	l5.039-5.998h8.958l-7.398,7.838l8.558,12.918h-9.518l-4.239-7.519l-1.4,1.52v5.999h-7.918V147.945z M407.701,155.744h7.639v2.639
	h0.08c1.479-2.08,3.559-3.159,6.759-3.159c3.719,0,7.119,2.28,7.119,7.038V176.5h-7.918v-10.878c0-2.399-0.28-4.079-2.6-4.079
	c-1.4,0-3.16,0.68-3.16,3.999V176.5h-7.918V155.744z M440.299,167.901c0.2,2.399,1.52,4.04,4.04,4.04c1.28,0,2.68-0.48,3.319-1.48
	h7.399c-1.6,4.479-5.999,6.559-10.678,6.559c-6.639,0-11.638-3.919-11.638-10.838c0-6.039,4.359-10.958,10.958-10.958
	c8.239,0,11.798,4.56,11.798,12.678H440.299z M447.897,163.782c0-1.92-1.439-3.479-3.479-3.479c-2.4,0-3.72,1.24-4.08,3.479H447.897
	z M485.176,176.5h-8.119l-3-12.758h-0.08l-3.078,12.758h-8.119l-6.479-20.756h8.238l3.079,12.838h0.08l2.64-12.838h7.398
	l2.76,12.838h0.16l2.879-12.838h8.239L485.176,176.5z M515.059,153.504h-7.919v-5.559h7.919V153.504z M507.14,155.744h7.919V176.5
	h-7.919V155.744z M529.098,155.744h4.239v4.879h-4.239v7.238c0,1.92,0.4,2.76,2.439,2.76c0.6,0,1.199-0.04,1.8-0.12v5.999
	c-1.601,0-3.359,0.24-5.079,0.24c-3.359,0-7.079-0.52-7.079-6.199v-9.918h-3.52v-4.879h3.52v-6.32h7.919V155.744z M575.574,176.5
	h-8.118l-2.999-12.758h-0.08l-3.08,12.758h-8.118l-6.479-20.756h8.239l3.079,12.838h0.08l2.64-12.838h7.399l2.759,12.838h0.16
	l2.88-12.838h8.238L575.574,176.5z M604.256,171.861c0,1.559,0.039,3.318,0.959,4.639h-8.078c-0.199-0.6-0.32-1.359-0.279-1.959
	h-0.08c-1.721,1.919-4.119,2.479-6.68,2.479c-3.999,0-7.318-1.92-7.318-6.278c0-6.599,7.719-6.279,11.718-7.079
	c1.08-0.199,2.159-0.52,2.159-1.84c0-1.399-1.319-1.92-2.6-1.92c-2.398,0-2.959,1.24-2.959,2.12h-7.358
	c0.2-5.879,5.799-6.799,10.679-6.799c9.918,0,9.838,4.119,9.838,8.118V171.861z M596.656,167.182c-0.959,0.48-2.039,0.72-3.119,1
	c-1.76,0.439-2.68,0.84-2.68,2.239c0,0.96,1.04,1.92,2.48,1.92c1.799,0,3.199-1.04,3.318-3.239V167.182z M620.457,161.782
	c-0.041-0.68-0.4-1.2-0.92-1.56c-0.48-0.4-1.08-0.6-1.76-0.6c-1.12,0-2.4,0.279-2.4,1.6c0,0.6,0.48,0.88,0.92,1.08
	c1.28,0.52,4.319,0.76,6.959,1.6c2.68,0.84,4.959,2.399,4.959,5.799c0,5.759-5.519,7.318-10.559,7.318
	c-4.879,0-10.238-1.959-10.357-7.318h7.559c0.04,0.68,0.359,1.32,0.96,1.84c0.44,0.4,1.159,0.6,2.12,0.6
	c1.039,0,2.679-0.4,2.679-1.6s-0.68-1.56-4.358-2.199c-6.039-1-8.479-2.96-8.479-6.52c0-5.238,5.639-6.599,9.798-6.599
	c4.479,0,9.878,1.239,10.078,6.559H620.457z M644.777,155.744h7.6v3.318h0.08c1.279-2.52,2.959-3.839,5.838-3.839
	c0.76,0,1.521,0.12,2.32,0.319v7c-0.8-0.281-1.52-0.521-3.119-0.521c-3.16,0-4.8,1.8-4.8,6.278v8.199h-7.919V155.744z
	 M670.616,153.504h-7.919v-5.559h7.919V153.504z M662.697,155.744h7.919V176.5h-7.919V155.744z M696.293,173.82
	c0,4.16-1.079,9.918-10.797,9.918c-4.92,0-10.079-1.319-10.839-6.918h7.839c0.119,0.199,0.279,0.439,0.439,0.72
	c0.48,0.76,1.32,1.52,2.32,1.52c2.559,0,3.119-3.04,3.119-4.759v-1.92h-0.08c-1.279,1.879-3.159,2.879-5.559,2.879
	c-6.119,0-8.879-4.559-8.879-10.117c0-5.4,3.08-9.919,8.998-9.919c2.359,0,4.52,0.92,5.439,3.04h0.08v-2.52h7.918V173.82z
	 M685.336,170.182c2.919,0,3.238-2.801,3.238-5.119c0-2.28-1.079-4.08-3.438-4.08c-2.28,0-3.36,1.92-3.36,4.119
	C681.775,167.461,682.496,170.182,685.336,170.182z M700.336,147.945h7.919v10.037h0.08c1.319-1.6,3.12-2.759,6.479-2.759
	c3.719,0,7.118,2.28,7.118,7.038V176.5h-7.919v-10.878c0-2.399-0.279-4.079-2.6-4.079c-1.399,0-3.159,0.68-3.159,3.999V176.5h-7.919
	V147.945z M735.775,155.744h4.238v4.879h-4.238v7.238c0,1.92,0.399,2.76,2.439,2.76c0.6,0,1.199-0.04,1.799-0.12v5.999
	c-1.6,0-3.359,0.24-5.078,0.24c-3.36,0-7.08-0.52-7.08-6.199v-9.918h-3.52v-4.879h3.52v-6.32h7.92V155.744z M742.896,168.582h8.318
	v7.918h-8.318V168.582z M907.996-4.5h-913v196h913V-4.5z"/>
</svg>
