<?xml version="1.0" encoding="utf-8"?>
<!-- Generator: Adobe Illustrator 16.0.0, SVG Export Plug-In . SVG Version: 6.00 Build 0)  -->
<!DOCTYPE svg PUBLIC "-//W3C//DTD SVG 1.1//EN" "http://www.w3.org/Graphics/SVG/1.1/DTD/svg11.dtd">
<svg version="1.1" id="Layer_1" xmlns="http://www.w3.org/2000/svg" xmlns:xlink="http://www.w3.org/1999/xlink" x="0px" y="0px"
	 width="900px" height="190px" viewBox="0 0 900 190" enable-background="new 0 0 900 190" xml:space="preserve">
<text transform="matrix(1 0 0 1 13.002 323)" font-family="'HelveticaNeueLTPro-Blk'" font-size="40">Helvetica - 95Black - 40pt</text>
<g>
	<rect x="360.904" y="99.34" fill="#FFFFFF" width="12.32" height="2.766"/>
	<rect x="360.904" y="94.015" fill="#FFFFFF" width="12.32" height="2.653"/>
	<rect x="555.803" y="56.097" fill="#FFFFFF" width="4.305" height="4.472"/>
	<rect x="360.904" y="89.005" fill="#FFFFFF" width="12.265" height="2.394"/>
	<rect x="360.904" y="104.646" fill="#FFFFFF" width="12.32" height="2.709"/>
	<rect x="555.803" y="48.675" fill="#FFFFFF" width="4.305" height="4.49"/>
	<rect x="512.403" y="36.484" fill="#FFFFFF" width="4.193" height="5.084"/>
	<rect x="502.31" y="96.947" fill="#FFFFFF" width="6.865" height="7.979"/>
	<rect x="275.516" y="127.573" fill="#FFFFFF" width="6.568" height="5.01"/>
	<path fill="#FFFFFF" d="M506.781,57.303l-2.505-2.319c3.167-2.573,4.75-5.925,4.75-10.057h-5.288v14.732h21.783V44.927h-5.511v6.03
		c0,0.322,0.114,0.6,0.343,0.835c0.229,0.235,0.504,0.353,0.826,0.353h3.154v3.303h-4.138c-1.237,0-2.146-0.275-2.728-0.826
		c-0.582-0.55-0.872-1.481-0.872-2.792v-6.902h-4.193C512.403,50.122,510.529,54.248,506.781,57.303z"/>
	<rect x="502.31" y="86.723" fill="#FFFFFF" width="6.865" height="7.032"/>
	<path fill="#FFFFFF" d="M602.542,35.798h-23.861v24.771h23.861V35.798z M596.382,60.197c-3.983-1.497-8.362-2.598-13.137-3.303
		l1.484-2.746c5.27,1.002,9.661,2.208,13.174,3.618L596.382,60.197z M587.086,53.017l1.392-2.468
		c3.624,0.755,6.593,1.651,8.906,2.69l-1.336,2.431C593.228,54.47,590.24,53.586,587.086,53.017z M600.835,52.627
		c-3.921-0.804-7.366-2.004-10.335-3.6c-2.759,1.546-6,2.746-9.723,3.6l-1.521-2.802c3.216-0.631,5.986-1.509,8.313-2.635
		c-1.299-0.915-2.499-2.041-3.6-3.377c-0.606,0.482-1.429,1.064-2.468,1.744l-2.022-2.227c3.018-1.942,5.665-4.342,7.941-7.199
		l2.857,1.15c-0.161,0.272-0.414,0.612-0.761,1.021h9.611v2.746c-1.744,2.462-3.631,4.484-5.659,6.067
		c2.313,1.2,5.201,2.066,8.665,2.598L600.835,52.627z"/>
	<rect x="275.516" y="135.774" fill="#FFFFFF" width="6.568" height="5.511"/>
	<path fill="#FFFFFF" d="M595.213,41.309h-8.368c-0.21,0.173-0.396,0.365-0.557,0.575c1.237,1.373,2.628,2.61,4.175,3.711
		C592.046,44.717,593.629,43.288,595.213,41.309z"/>
	<path fill="#FFFFFF" d="M409.054,145.126c0.742,1.039,1.54,2.258,2.394,3.655v-5.789h-2.394V145.126z"/>
	<rect x="437.275" y="131.247" fill="#FFFFFF" width="12.246" height="1.67"/>
	<rect x="437.275" y="126.887" fill="#FFFFFF" width="12.246" height="1.633"/>
	<rect x="588.403" y="82.084" fill="#FFFFFF" width="4.193" height="5.084"/>
	<path fill="#FFFFFF" d="M370.367,48.638h-15.512c2.907,3.872,5.517,6.494,7.83,7.867C365.308,54.811,367.868,52.188,370.367,48.638
		z"/>
	<path fill="#FFFFFF" d="M391.074,146.981h-2.69c0,0.767-0.037,1.38-0.111,1.837h2.802V146.981z"/>
	<rect x="388.421" y="142.955" fill="#FFFFFF" width="2.653" height="1.707"/>
	<path fill="#FFFFFF" d="M582.781,102.902l-2.505-2.318c3.167-2.573,4.75-5.925,4.75-10.057h-5.288v14.733h21.783V90.527h-5.511
		v6.03c0,0.322,0.114,0.601,0.343,0.836c0.229,0.234,0.504,0.352,0.826,0.352h3.154v3.303h-4.138c-1.237,0-2.146-0.274-2.728-0.825
		c-0.582-0.55-0.872-1.481-0.872-2.792v-6.903h-4.193C588.403,95.723,586.529,99.848,582.781,102.902z"/>
	<rect x="555.803" y="41.457" fill="#FFFFFF" width="4.305" height="4.416"/>
	<path fill="#FFFFFF" d="M215.825,128.779c1.893,1.039,3.661,2.078,5.307,3.117c0.903-0.989,1.664-2.041,2.282-3.154h-7.552
		L215.825,128.779z"/>
	<rect x="122.31" y="51.347" fill="#FFFFFF" width="6.865" height="7.979"/>
	<rect x="239.983" y="35.872" fill="#FFFFFF" width="17.441" height="2.319"/>
	<rect x="239.983" y="40.975" fill="#FFFFFF" width="17.441" height="2.301"/>
	<rect x="433.101" y="52.293" fill="#FFFFFF" width="14.751" height="2.616"/>
	<rect x="122.31" y="41.123" fill="#FFFFFF" width="6.865" height="7.032"/>
	<rect x="200.425" y="45.762" fill="#FFFFFF" width="20.373" height="6.68"/>
	<rect x="433.101" y="57.915" fill="#FFFFFF" width="14.751" height="2.802"/>
	<rect x="390.313" y="135.199" fill="#FFFFFF" width="20.744" height="1.726"/>
	<rect x="399.275" y="85.647" fill="#FFFFFF" width="12.246" height="1.67"/>
	<rect x="287.335" y="53.425" fill="#FFFFFF" width="10.446" height="6.587"/>
	<rect x="399.275" y="81.287" fill="#FFFFFF" width="12.246" height="1.633"/>
	<rect x="163.111" y="45.984" fill="#FFFFFF" width="7.979" height="2.245"/>
	<rect x="482.419" y="39.063" fill="#FFFFFF" width="6.476" height="19.983"/>
	<rect x="467.538" y="127.573" fill="#FFFFFF" width="18.239" height="6.346"/>
	<rect x="475.275" y="85.647" fill="#FFFFFF" width="12.246" height="1.67"/>
	<path fill="#FFFFFF" d="M446.107,38.841h-6.661v3.767h2.672C443.689,41.247,445.019,39.991,446.107,38.841z"/>
	<rect x="475.275" y="81.287" fill="#FFFFFF" width="12.246" height="1.633"/>
	<path fill="#FFFFFF" d="M213.116,131.859c1.002,0.903,2.22,2.146,3.655,3.729c0.891-0.594,1.589-1.126,2.097-1.596
		c-2.004-1.312-3.692-2.264-5.065-2.857C213.679,131.383,213.45,131.625,213.116,131.859z"/>
	<rect x="174.43" y="45.984" fill="#FFFFFF" width="7.904" height="2.245"/>
	<path fill="#FFFFFF" d="M166.692,142.231h6.179v-3.525h-3.414C168.344,140.289,167.422,141.465,166.692,142.231z"/>
	<path fill="#FFFFFF" d="M275.516,151.397c2.783-0.755,4.973-1.429,6.568-2.022v-4.936h-6.568V151.397z"/>
	<rect x="163.111" y="50.586" fill="#FFFFFF" width="7.979" height="2.245"/>
	<rect x="174.43" y="50.586" fill="#FFFFFF" width="7.904" height="2.245"/>
	<rect x="694.388" y="39.101" fill="#FFFFFF" width="5.733" height="2.672"/>
	<rect x="617.367" y="126.998" fill="#FFFFFF" width="4.861" height="3.804"/>
	<rect x="694.388" y="50.233" fill="#FFFFFF" width="5.733" height="2.783"/>
	<rect x="617.367" y="133.529" fill="#FFFFFF" width="4.861" height="3.878"/>
	<rect x="854.403" y="36.484" fill="#FFFFFF" width="4.193" height="5.084"/>
	<rect x="632.341" y="127.035" fill="#FFFFFF" width="7.626" height="2.468"/>
	<path fill="#FFFFFF" d="M848.781,57.303l-2.505-2.319c3.167-2.573,4.75-5.925,4.75-10.057h-5.288v14.732h21.783V44.927h-5.511v6.03
		c0,0.322,0.114,0.6,0.343,0.835c0.229,0.235,0.504,0.353,0.826,0.353h3.154v3.303h-4.138c-1.237,0-2.146-0.275-2.728-0.826
		c-0.582-0.55-0.872-1.481-0.872-2.792v-6.902h-4.193C854.403,50.122,852.529,54.248,848.781,57.303z"/>
	<path fill="#FFFFFF" d="M639.967,132.212h-7.626c0,0.816-0.05,1.614-0.148,2.394h7.774V132.212z"/>
	<path fill="#FFFFFF" d="M628.797,96.836c0.568,0,1.055-0.229,1.457-0.688c0.401-0.457,0.603-0.97,0.603-1.54
		c0-0.569-0.198-1.079-0.594-1.531c-0.396-0.451-0.935-0.677-1.614-0.677c-0.644,0-1.169,0.22-1.577,0.659
		c-0.408,0.439-0.612,0.95-0.612,1.531c0,0.606,0.213,1.132,0.641,1.578C627.525,96.613,628.092,96.836,628.797,96.836z"/>
	<rect x="694.388" y="44.686" fill="#FFFFFF" width="5.733" height="2.635"/>
	<rect x="711.068" y="36.095" fill="#FFFFFF" width="5.715" height="5.399"/>
	<rect x="768.31" y="41.123" fill="#FFFFFF" width="6.865" height="7.032"/>
	<rect x="768.31" y="51.347" fill="#FFFFFF" width="6.865" height="7.979"/>
	<path fill="#FFFFFF" d="M780.648,138.001c-0.644,0-1.169,0.22-1.577,0.659s-0.612,0.949-0.612,1.53
		c0,0.606,0.213,1.132,0.641,1.577c0.426,0.445,0.992,0.668,1.697,0.668c0.568,0,1.055-0.229,1.457-0.687
		c0.401-0.458,0.603-0.971,0.603-1.54c0-0.568-0.198-1.079-0.594-1.531C781.867,138.227,781.328,138.001,780.648,138.001z"/>
	<rect x="618.852" y="147.408" fill="#FFFFFF" width="4.472" height="5.585"/>
	<rect x="711.068" y="44.834" fill="#FFFFFF" width="5.715" height="5.938"/>
	<rect x="634.345" y="147.408" fill="#FFFFFF" width="4.453" height="5.585"/>
	<rect x="626.607" y="147.408" fill="#FFFFFF" width="4.397" height="5.585"/>
	<path fill="#FFFFFF" d="M894.648,46.801c-0.644,0-1.169,0.22-1.577,0.659c-0.408,0.439-0.612,0.95-0.612,1.531
		c0,0.606,0.213,1.132,0.641,1.577c0.426,0.445,0.992,0.668,1.697,0.668c0.568,0,1.055-0.229,1.457-0.687
		c0.401-0.458,0.603-0.971,0.603-1.54c0-0.569-0.198-1.079-0.594-1.531C895.866,47.027,895.328,46.801,894.648,46.801z"/>
	<rect x="659.134" y="48.953" fill="#FFFFFF" width="15.456" height="2.505"/>
	<path fill="#FFFFFF" d="M579.404,148.577c1.447-0.371,2.728-0.724,3.841-1.058v-4.416h-3.841V148.577z"/>
	<polygon fill="#FFFFFF" points="545.06,36.447 542.165,36.447 540.829,45.261 545.06,45.261 	"/>
	<rect x="659.134" y="54.148" fill="#FFFFFF" width="15.456" height="2.635"/>
	<rect x="659.134" y="59.474" fill="#FFFFFF" width="15.456" height="2.542"/>
	<path fill="#FFFFFF" d="M-4.5-6.5v202h912v-202H-4.5z M730.347,127.369v3.117h-3.433v-6.179h31.432v6.179h-3.451v-3.117H730.347z
		 M738.325,55.93l3.043-2.004c2.313,2.078,4.082,3.952,5.307,5.622l-3.117,1.893C742.222,59.598,740.478,57.761,738.325,55.93z
		 M755.34,53.054v8.201c0,1.398-0.35,2.434-1.049,3.108c-0.699,0.674-1.926,1.011-3.683,1.011c-0.544,0-1.59-0.031-3.136-0.093
		l-1.169-3.34c0.606,0.05,2.097,0.074,4.472,0.074c0.791,0,1.188-0.365,1.188-1.095v-7.867H735.69v-3.191h16.272v-2.431h3.377v2.431
		h3.804v3.191H755.34z M736.618,36.095h9.11v-3.822h3.377v3.822h9.704v3.154h-9.704v3.767h8.331v3.191h-19.909v-3.191h8.201v-3.767
		h-9.11V36.095z M732.462,31.883l3.117,1.484c-2.536,3.835-5.245,6.723-8.127,8.665l-1.707-2.969
		C728.269,37.344,730.508,34.951,732.462,31.883z M712.033,148.021c0.111,0,0.226-0.071,0.344-0.214
		c0.117-0.142,0.176-0.274,0.176-0.398v-10.335h-7.552v-3.043h7.552v-4.249h3.34v4.249h4.954v3.043h-4.954v11.021
		c0,1.089-0.355,1.93-1.066,2.523c-0.712,0.594-2.472,0.829-5.279,0.705l-1.206-3.266
		C708.959,148.033,710.189,148.021,712.033,148.021z M705.298,140.116l2.653-1.837c1.41,1.571,2.69,3.625,3.841,6.16l-2.876,1.744
		C708.137,144.391,706.931,142.367,705.298,140.116z M720.383,131.896h-3.377v-4.676h-24.659v4.193h10.706v2.987h-11.578v-2.505
		h-2.523v-7.719h31.432V131.896z M698.154,58.676l2.505-1.855c1.237,1.2,2.479,2.796,3.729,4.787l-2.542,1.93
		C700.709,61.694,699.478,60.074,698.154,58.676z M707.766,32.866h12.283v28.129c0,2.932-1.373,4.397-4.119,4.397
		c-0.693,0-1.59-0.025-2.69-0.074l-1.132-3.266c0.902,0.037,1.614,0.056,2.134,0.056c1.15,0,1.861-0.108,2.134-0.325
		c0.271-0.216,0.408-0.553,0.408-1.011v-6.735h-6.012c-0.31,4.552-1.627,8.479-3.952,11.782l-2.932-1.855
		c2.585-3.315,3.878-8.306,3.878-14.974V32.866z M687.968,53.017h3.154V39.101h-2.542v-3.006h2.542V32.18h3.266v3.915h5.733V32.18
		h3.321v3.915h2.653v3.006h-2.653v13.916h2.876v3.006h-18.351V53.017z M693.738,56.895l2.82,1.596
		c-1.893,2.882-3.946,5.275-6.16,7.181l-2.579-2.245C689.984,61.682,691.957,59.505,693.738,56.895z M650.228,62.016h5.511V40.975
		h7.904c0.371-0.767,0.692-1.583,0.965-2.449h-13.916v-2.987h14.899c0.384-1.101,0.724-2.27,1.021-3.507l3.266,0.724
		c-0.26,1.175-0.525,2.103-0.798,2.783h13.768v2.987h-14.714c-0.211,0.693-0.514,1.509-0.909,2.449h10.632v21.041h5.548v2.857
		h-33.176V62.016z M575.452,32.755h30.393V65.43h-3.303v-1.818h-23.861v1.818h-3.229V32.755z M574.116,78.782h32.99v3.303h-11.096
		v5.084h8.999v23.75h-3.488V108.6h-21.783v2.318h-3.451v-23.75h8.739v-5.084h-10.91V78.782z M596.734,129.095l-3.117,1.169
		c-0.829-1.904-1.992-3.791-3.488-5.659l3.099-1.299C594.799,125.434,595.967,127.363,596.734,129.095z M551.053,107.838
		c0.655,0,0.983-0.364,0.983-1.094v-9.686h-13.563V93.83c2.572-2.511,4.904-5.504,6.995-8.98h-8.999v-3.229h10.91
		c0.643-1.063,1.336-2.431,2.078-4.101l3.377,0.983c-0.631,1.336-1.176,2.375-1.633,3.117h17.683v3.229h-19.501
		c-2.165,3.649-4.293,6.643-6.383,8.98h9.036v-6.884h3.247v6.884h12.19v3.229h-12.19v10.631c0,0.83-0.201,1.51-0.604,2.041
		c-0.402,0.532-0.859,0.879-1.373,1.039c-0.514,0.161-1.623,0.242-3.33,0.242c-0.73,0-1.447-0.02-2.152-0.057l-1.132-3.154
		C547.397,107.826,548.851,107.838,551.053,107.838z M538.361,109.75l-2.468-2.209c3.142-2.25,6.259-5.318,9.352-9.203l2.579,1.986
		C544.385,104.641,541.23,107.783,538.361,109.75z M561.091,98.264c3.55,3.365,6.284,6.482,8.201,9.352l-2.69,2.023
		c-1.844-2.783-4.553-5.889-8.127-9.314L561.091,98.264z M558.345,32.681c-0.532,1.658-1.367,3.569-2.505,5.733h5.103
		c-0.495-2.202-0.989-4.051-1.484-5.548l3.154-0.909c0.903,3.142,1.472,5.294,1.707,6.457h4.564v3.043h-5.511v4.416h5.01v2.802
		h-5.01v4.49h5.01v2.857h-5.01v4.546h5.771l0.037,3.154h-13.378v1.67h-3.377v-21.69c-0.631,0.681-1.102,1.163-1.41,1.447
		l-1.707-2.969c2.227-2.424,4.199-5.906,5.919-10.446L558.345,32.681z M498.116,33.182h32.99v3.303h-11.096v5.084h8.999v23.75
		h-3.488v-2.319h-21.783v2.319h-3.451v-23.75h8.739v-5.084h-10.91V33.182z M529.381,108.006c-0.458,1.039-1.154,1.803-2.088,2.291
		s-3.207,0.745-6.818,0.77l-1.262-3.34l5.084-0.037c0.482,0,0.996-0.203,1.54-0.611s0.952-3.16,1.225-8.258
		c0.272-5.096,0.401-9.066,0.39-11.912h-7.626c-1.188,3.019-2.53,5.591-4.026,7.719l-2.598-2.319
		c2.721-4.403,4.639-9.32,5.752-14.751l3.34,0.724c-0.248,1.287-0.693,3.062-1.336,5.325h9.853
		c-0.024,3.637-0.155,8.353-0.39,14.148C530.185,103.549,529.838,106.967,529.381,108.006z M529.919,127.109l-2.728,2.06
		c-0.693-1.113-1.831-2.344-3.414-3.692l2.579-2.097C527.841,124.543,529.028,125.786,529.919,127.109z M517.079,94.312l2.969-1.855
		c2.523,3.155,4.273,5.864,5.251,8.127l-2.969,1.91C520.697,99.229,518.947,96.502,517.079,94.312z M502.31,108.191v2.875h-3.358
		V83.42h3.396c0.952-1.756,1.694-3.686,2.227-5.789l3.507,0.575c-0.186,1.2-0.779,2.938-1.781,5.214h6.142v27.275h-3.266v-2.504
		H502.31z M493.292,97.43v3.043h-4.397v6.957c0,2.313-1.534,3.471-4.602,3.471c-0.816,0-1.688-0.031-2.616-0.094l-0.965-3.08
		c1.076,0.063,2.004,0.094,2.783,0.094c0.903,0,1.49-0.105,1.763-0.316c0.271-0.209,0.408-0.537,0.408-0.982v-6.049h-16.013V97.43
		h16.013v-2.246h-15.178v-2.987h21.857v2.987h-3.451v2.246H493.292z M480.378,105.408l-2.394,2.355
		c-1.918-2.004-3.705-3.506-5.362-4.508l2.171-2.32C476.426,101.814,478.287,103.305,480.378,105.408z M461.601,98.988l-1.633-3.08
		c2.696-2.14,5.418-5.598,8.164-10.373l2.783,1.336c-0.829,1.695-1.769,3.291-2.82,4.787v19.259h-3.377v-14.77
		C463.395,97.473,462.355,98.419,461.601,98.988z M459.782,84.923c2.486-1.299,5.171-3.742,8.053-7.329l2.783,1.744
		c-2.969,3.884-6.024,6.748-9.166,8.591L459.782,84.923z M471.936,90.286V78.392h18.852v11.894H471.936z M479.153,35.724h13.118
		v29.669h-3.377v-2.95h-6.476v2.95h-3.266V35.724z M460.395,44.314v-3.396h7.83V36.93c-2.313,0.334-4.256,0.501-5.826,0.501
		l-1.447-3.191c5.752-0.161,10.656-0.934,14.714-2.319l1.855,2.969c-1.646,0.557-3.631,1.039-5.956,1.447v4.583h6.16v3.396h-6.16
		v1.169c2.412,1.831,4.676,3.847,6.791,6.049l-1.893,3.006c-1.596-2.053-3.229-3.791-4.898-5.214v16.068h-3.34v-15.53
		c-2.141,3.785-4.459,6.81-6.958,9.073l-1.633-3.266c3.761-3.6,6.507-7.385,8.238-11.355H460.395z M447.202,83.94v2.171h-3.266
		V83.94h-4.379v-3.08h4.379v-2.987h3.266v2.987h8.016v3.08H447.202z M453.399,89.989l-1.67,2.319
		c-1.361-0.965-3.049-1.855-5.065-2.672l1.707-2.505C450.362,87.985,452.039,88.938,453.399,89.989z M422.116,45.799v-3.191h13.842
		v-3.804h-10.409v-3.08h10.409V32.18h3.488v3.507h6.995v2.802c1.756-1.806,3.204-3.575,4.342-5.307l2.653,2.115
		c-1.868,2.573-4.008,5.01-6.42,7.311h8.127v3.191H443.25c-1.732,1.386-3.34,2.536-4.824,3.451h12.877v16.217h-3.451v-1.633h-14.751
		v1.633h-3.488V53.499c-1.955,0.804-3.996,1.565-6.123,2.282l-1.633-3.043c7.162-2.14,12.493-4.453,15.994-6.939H422.116z
		 M422.153,83.94v-3.08h8.071v-2.987h3.266v2.987h4.435v3.08h-4.435v2.171h-3.266V83.94H422.153z M427.33,92.308
		c-1.361-1.36-2.981-2.566-4.861-3.618l2.394-2.319c2.127,1.25,3.847,2.579,5.158,3.989c1.212-0.952,2.542-2.214,3.989-3.785
		l2.672,1.707c-1.484,1.658-3.068,3.161-4.75,4.509c1.521,2.61,2.282,5.801,2.282,9.575c0,2.288-0.204,4.051-0.612,5.287
		c-0.408,1.238-1.061,2.094-1.958,2.57c-0.897,0.477-2.254,0.715-4.073,0.715c-0.557,0-1.336-0.02-2.338-0.057l-1.169-3.34
		c1.707,0.1,3.278,0.148,4.713,0.148c0.655,0,1.178-0.253,1.568-0.76c0.39-0.508,0.584-1.924,0.584-4.25
		c0-0.729-0.037-1.453-0.111-2.17c-2.14,2.251-4.484,4.113-7.032,5.584l-1.967-2.578c3.34-1.744,6.086-3.934,8.238-6.568
		c-0.223-0.866-0.514-1.59-0.872-2.171c-2.115,1.261-3.965,2.226-5.548,2.894l-1.855-2.708
		C424.157,94.034,426.006,93.149,427.33,92.308z M391.946,129.429h23.268v2.431h-25.16c-0.445,0-0.875-0.201-1.29-0.604
		c-0.415-0.401-0.622-0.831-0.622-1.289v-2.598h-3.915v-2.431h14.64c-0.21-0.544-0.477-1.021-0.798-1.429l3.488-0.538
		c0.383,0.631,0.687,1.286,0.909,1.967h14.677v2.431h-25.717v1.521C391.427,129.25,391.6,129.429,391.946,129.429z M397.309,142.955
		v7.57h-2.097v-10.187h9.89v10.224h-2.171v-7.607H397.309z M387.048,139.04v-5.845h27.238v5.845H387.048z M385.601,98.988
		l-1.633-3.08c2.696-2.14,5.418-5.598,8.164-10.373l2.783,1.336c-0.829,1.695-1.769,3.291-2.82,4.787v19.259h-3.377v-14.77
		C387.394,97.473,386.355,98.419,385.601,98.988z M396.622,103.256l2.171-2.32c1.633,0.879,3.494,2.369,5.585,4.473l-2.394,2.355
		C400.067,105.76,398.279,104.258,396.622,103.256z M412.895,100.473v6.957c0,2.313-1.534,3.471-4.602,3.471
		c-0.816,0-1.688-0.031-2.616-0.094l-0.965-3.08c1.076,0.063,2.004,0.094,2.783,0.094c0.903,0,1.49-0.105,1.763-0.316
		c0.272-0.209,0.408-0.537,0.408-0.982v-6.049h-16.013V97.43h16.013v-2.246h-15.178v-2.987h21.857v2.987h-3.451v2.246h4.397v3.043
		H412.895z M414.787,78.392v11.894h-18.852V78.392H414.787z M397.643,55.893l2.783-1.967c2.165,1.818,3.927,3.594,5.288,5.325
		l-2.783,1.967C401.558,59.437,399.795,57.662,397.643,55.893z M417.181,52.942h-3.841v8.925c0,0.978-0.198,1.731-0.594,2.264
		c-0.396,0.532-0.891,0.884-1.484,1.058c-0.594,0.173-1.553,0.26-2.876,0.26c-0.606,0-1.386-0.019-2.338-0.056l-1.169-3.377
		c0.891,0.05,1.664,0.074,2.319,0.074c1.435,0,2.273-0.068,2.514-0.204c0.241-0.136,0.362-0.346,0.362-0.631v-8.238H395.75v-3.08
		h14.324v-2.282h3.266v2.282h3.841V52.942z M395.861,36.058h8.702v-3.915h3.303v3.915h8.776v3.08h-8.776v3.952h7.496v3.08h-18.239
		v-3.08h7.44v-3.952h-8.702V36.058z M383.968,41.457v-3.229h4.898V32.31h3.303v5.919h2.561v3.229h-2.561v5.585
		c1.274-0.557,2.394-1.101,3.358-1.633l0.482,3.303c-1.732,0.978-3.012,1.627-3.841,1.948v11.615c0,2.078-1.2,3.117-3.6,3.117
		h-2.579l-1.188-3.377l3.47,0.037c0.396,0,0.594-0.204,0.594-0.612v-9.296c-2.004,0.767-3.346,1.287-4.026,1.559l-0.983-3.396
		c0.866-0.198,2.536-0.792,5.01-1.781v-7.069H383.968z M391.835,77.594l2.783,1.744c-2.969,3.884-6.024,6.748-9.166,8.591
		l-1.67-3.006C386.269,83.625,388.953,81.182,391.835,77.594z M347.638,96.111l-1.893-3.321c2.622-3.859,4.774-8.962,6.457-15.308
		l3.303,0.835c-0.285,1.212-0.749,2.734-1.392,4.564l-0.965,2.653v25.308h-3.34V92.828
		C349.338,93.718,348.615,94.813,347.638,96.111z M308.116,44.797h17.07c-1.955-1.534-4.893-3.154-8.813-4.861l2.505-2.431
		c2.202,1.015,4.026,1.955,5.474,2.82c2.87-1.373,5.337-2.715,7.403-4.026h-20.707V32.94h27.201v3.358
		c-3.996,2.536-7.515,4.596-10.558,6.179l1.447,1.076l-1.559,1.206h13.601v2.969c0,0.037-0.328,0.702-0.983,1.995
		c-0.656,1.293-1.336,2.505-2.041,3.637s-1.447,2.193-2.227,3.182l-3.099-1.855c1.534-1.855,2.975-4.02,4.323-6.494h-10.298V60.68
		c0,1.398-0.201,2.428-0.603,3.089c-0.402,0.662-0.956,1.101-1.661,1.317c-0.705,0.216-2.295,0.325-4.769,0.325
		c-1.175,0-2.326-0.019-3.451-0.056l-1.15-3.488c1.2,0.037,2.399,0.056,3.6,0.056c2.325,0,3.665-0.071,4.017-0.213
		c0.353-0.142,0.529-0.393,0.529-0.751V48.192h-15.252V44.797z M327.228,82.418v-3.303h13.081v27.814
		c0,1.15-0.235,2.044-0.705,2.681c-0.47,0.637-1.027,1.061-1.67,1.271c-0.644,0.211-1.664,0.316-3.062,0.316
		c-1.373,0-2.74-0.025-4.101-0.074l-0.835-3.322c1.905,0.088,3.878,0.131,5.919,0.131c0.321,0,0.594-0.121,0.816-0.362
		s0.334-0.517,0.334-0.825V82.418H327.228z M319.286,79.042l2.746-1.67c1.633,1.683,3,3.52,4.101,5.511l-2.802,1.633
		C322.156,82.573,320.808,80.749,319.286,79.042z M321.42,83.94v27.183h-3.303V83.94H321.42z M291.51,31.549l3.154,1.021
		c-0.148,0.408-0.297,0.724-0.445,0.946c1.88,3.303,4.929,6.433,9.147,9.389l-1.93,2.728c-4.008-2.907-6.971-5.968-8.888-9.185
		c-2.536,3.847-5.412,6.977-8.628,9.389l-1.8-2.635C286.03,40.257,289.159,36.373,291.51,31.549z M287.335,63.277v2.078h-3.34
		V50.196h17.089v15.159h-3.303v-2.078H287.335z M287.038,47.079v-3.229h11.281v3.229H287.038z M276.388,31.809l3.191,1.336
		c-1.683,4.033-3.427,7.428-5.232,10.187c1.348-0.297,2.598-0.643,3.748-1.039c0.742-1.274,1.429-2.69,2.06-4.249l3.043,1.243
		c-2.474,5.579-5.146,10.255-8.016,14.027c2.028-0.594,4.23-1.392,6.605-2.394l0.761,3.117c-4.354,1.72-8.152,2.95-11.393,3.692
		l-1.039-2.932c2.152-2.412,4.168-5.35,6.049-8.813c-1.93,0.495-3.612,0.86-5.047,1.095l-1.076-2.913
		C272.763,40.492,274.878,36.373,276.388,31.809z M282.362,57.117l0.835,3.117c-4.466,2.189-8.585,3.748-12.357,4.676l-0.983-3.08
		C273.394,61.014,277.563,59.443,282.362,57.117z M271.675,94.887l-1.633-3.451c2.882-3.661,5.238-8.325,7.069-13.99l3.377,0.649
		c-0.371,1.324-0.983,2.975-1.837,4.954l-1.28,2.876v24.993h-3.303V91.77C273.141,93.106,272.343,94.145,271.675,94.887z
		 M236.495,32.829h24.399v13.415h-24.399V32.829z M197.159,42.57h11.096V32.384h3.34v3.563h14.213v3.117h-14.213v3.507h12.58v12.951
		h-27.016V42.57z M218.219,65.17l-3.191,0.724c-0.359-2.363-1.225-5.096-2.598-8.201l3.191-0.835
		C216.87,59.74,217.736,62.511,218.219,65.17z M208.941,65.17l-3.229,0.464c-0.223-2.696-0.718-5.381-1.484-8.053l3.117-0.612
		C208.372,60.42,208.904,63.154,208.941,65.17z M138.953,31.957l3.34,0.724c-0.248,1.287-0.693,3.062-1.336,5.325h9.853
		c-0.025,3.637-0.155,8.353-0.39,14.148c-0.235,5.795-0.582,9.212-1.039,10.251c-0.458,1.039-1.154,1.803-2.087,2.292
		c-0.934,0.488-3.207,0.745-6.819,0.77l-1.262-3.34l5.084-0.037c0.482,0,0.996-0.204,1.54-0.612c0.544-0.408,0.952-3.16,1.225-8.257
		c0.272-5.096,0.402-9.067,0.39-11.912h-7.626c-1.188,3.019-2.53,5.591-4.026,7.719l-2.598-2.319
		C135.922,42.305,137.84,37.388,138.953,31.957z M150.16,129.967l-2.746,2.041c-1.361-2.028-2.994-3.865-4.898-5.511l2.616-2.189
		C147.074,126.015,148.75,127.901,150.16,129.967z M137.079,48.712l2.969-1.855c2.523,3.154,4.273,5.863,5.251,8.127l-2.969,1.911
		C140.697,53.629,138.947,50.901,137.079,48.712z M118.951,37.82h3.396c0.952-1.756,1.694-3.686,2.227-5.789l3.507,0.575
		c-0.186,1.2-0.779,2.938-1.781,5.214h6.142v27.275h-3.266v-2.505h-6.865v2.876h-3.358V37.82z M55.81,33.256h17.367v21.876H70.06
		V36.41H58.927v18.722H55.81V33.256z M31.132,33.107c1.942,1.707,3.618,3.594,5.028,5.659l-2.746,2.041
		c-1.361-2.028-2.994-3.865-4.898-5.511L31.132,33.107z M35.52,63.593c-0.811,1.323-1.853,1.985-3.126,1.985
		c-2.128,0-4.243-1.899-6.346-5.696c-2.128,1.583-4.472,3.006-7.032,4.268l-1.893-2.82c2.932-1.373,5.498-2.888,7.7-4.546
		c-0.619-2.387-1.045-6.24-1.28-11.56h-7.941v5.251c1.893-0.383,3.995-0.915,6.309-1.596l0.074,3.303
		c-2.289,0.668-4.416,1.2-6.383,1.596v8.424c0,0.965-0.198,1.682-0.594,2.152c-0.396,0.47-0.897,0.776-1.503,0.918
		c-0.606,0.142-1.695,0.213-3.266,0.213c-1.175,0-2.326-0.031-3.451-0.093l-1.188-3.6c1.707,0.074,3.104,0.111,4.193,0.111
		c1.163,0,1.843-0.052,2.041-0.158c0.198-0.105,0.297-0.331,0.297-0.677v-6.568c-2.722,0.52-5.214,0.897-7.478,1.132l-0.612-3.154
		c2.449-0.272,5.146-0.705,8.09-1.299v-5.956H4.153v-3.229h7.979V37.69c-1.707,0.26-3.859,0.501-6.457,0.724L4.153,35.26
		c6.42-0.383,11.782-1.379,16.087-2.987l1.93,2.802c-2.4,0.854-4.589,1.484-6.568,1.893v5.028h7.904
		c-0.05-1.534-0.074-4.762-0.074-9.686h3.377c-0.037,3.291-0.037,6.519,0,9.686h10.372v3.229H26.92
		c0.086,3.154,0.315,6.117,0.687,8.888c1.756-2.016,3.34-4.484,4.75-7.403l2.969,1.484c-2.066,4.144-4.286,7.298-6.661,9.463
		c0.729,1.484,1.407,2.573,2.032,3.266c0.625,0.693,1.104,1.039,1.438,1.039c0.866,0,1.639-1.954,2.319-5.863l3.024,1.893
		C36.982,60.401,36.33,62.27,35.52,63.593z M41.819,59.659c1.249-0.482,2.833-1.218,4.75-2.208v-9.463h-3.841v-3.154h3.841v-7.329
		h-4.286v-3.117h11.968v3.117h-4.416v7.329h3.878v3.154h-3.878v7.83c1.163-0.544,2.356-1.188,3.581-1.93l0.983,3.08
		c-4.478,2.474-8.238,4.385-11.281,5.733L41.819,59.659z M74.763,62.702c-0.328,1.014-0.792,1.694-1.392,2.041
		c-0.6,0.346-1.562,0.52-2.885,0.52c-2.313,0-3.757-0.078-4.333-0.232c-0.575-0.155-1.021-0.489-1.336-1.002
		c-0.315-0.514-0.473-1.147-0.473-1.902V56.69c-0.965,1.855-2.57,3.652-4.815,5.39s-4.45,2.897-6.615,3.479l-1.707-2.783
		c4.181-1.497,7.171-3.352,8.971-5.566c1.8-2.214,2.7-5.554,2.7-10.02v-9.296h3.062v10.632c0,1.744-0.148,3.303-0.445,4.676h2.041
		v8.09c0,0.52,0.674,0.779,2.022,0.779c0.754,0,1.36-0.074,1.818-0.223c0.458-0.148,0.733-0.891,0.826-2.227
		s0.121-2.121,0.083-2.356l3.043,0.798C75.279,60.142,75.091,61.688,74.763,62.702z M113.218,64.149H89.171v1.317h-3.433v-14.77
		c-1.324,1.324-2.523,2.375-3.6,3.154l-2.319-2.783c3.995-2.944,7.149-6.327,9.463-10.149h-8.294v-3.266h10.149
		c0.717-1.397,1.503-3.284,2.356-5.659l3.34,0.872c-0.594,1.732-1.212,3.328-1.855,4.787h17.701v3.266H93.234
		c-1.2,2.078-2.555,4.095-4.063,6.049v13.879h9.648v-8.869h-7.719v-3.229h7.719v-6.067h3.525v6.067h8.294v3.229h-8.294v8.869h10.873
		V64.149z M149.52,154.793c-0.811,1.323-1.853,1.985-3.126,1.985c-2.128,0-4.243-1.899-6.346-5.696
		c-2.128,1.584-4.472,3.006-7.032,4.268l-1.893-2.82c2.932-1.373,5.498-2.889,7.7-4.546c-0.619-2.388-1.045-6.24-1.28-11.56h-7.941
		v5.251c1.893-0.384,3.995-0.915,6.309-1.596l0.074,3.303c-2.289,0.668-4.416,1.2-6.383,1.596v8.424
		c0,0.965-0.198,1.683-0.594,2.152c-0.396,0.47-0.897,0.776-1.503,0.919c-0.606,0.142-1.695,0.213-3.266,0.213
		c-1.175,0-2.326-0.031-3.451-0.093l-1.188-3.6c1.707,0.074,3.104,0.111,4.193,0.111c1.163,0,1.843-0.052,2.041-0.157
		c0.198-0.105,0.297-0.331,0.297-0.678v-6.568c-2.722,0.52-5.214,0.896-7.478,1.132l-0.612-3.154
		c2.449-0.272,5.146-0.705,8.09-1.299v-5.956h-7.979v-3.229h7.979v-4.305c-1.707,0.26-3.859,0.501-6.457,0.724l-1.521-3.154
		c6.42-0.384,11.782-1.379,16.087-2.987l1.93,2.802c-2.4,0.854-4.589,1.484-6.568,1.893v5.028h7.904
		c-0.05-1.533-0.074-4.762-0.074-9.686h3.377c-0.037,3.291-0.037,6.52,0,9.686h10.372v3.229H140.92
		c0.086,3.154,0.315,6.117,0.687,8.888c1.756-2.017,3.34-4.483,4.75-7.403l2.969,1.484c-2.066,4.145-4.286,7.299-6.661,9.463
		c0.729,1.484,1.407,2.573,2.032,3.266c0.625,0.693,1.104,1.039,1.438,1.039c0.866,0,1.639-1.954,2.319-5.863l3.024,1.893
		C150.982,151.602,150.33,153.47,149.52,154.793z M188.958,138.706h-12.766v3.525h10.131v9.815c0,0.879-0.235,1.651-0.705,2.319
		c-0.47,0.668-1.825,1.002-4.063,1.002c-0.631,0-1.293-0.019-1.985-0.056l-1.188-3.191l3.989-0.037c0.458,0,0.687-0.254,0.687-0.761
		v-5.938h-6.865v11.281l-3.321-0.037v-11.244h-6.865v10.038h-3.266v-9.426c-1.744,1.571-3.631,2.963-5.659,4.175l-1.15-3.229
		c3.735-2.351,6.877-5.097,9.426-8.238h-8.813v-3.043h10.984c0.792-1.299,1.385-2.542,1.781-3.729
		c-2.845,0.693-6.364,1.466-10.558,2.319l-1.447-3.006c3.711-0.544,7.496-1.329,11.355-2.356c-1.262-0.433-4.286-1.243-9.073-2.431
		l1.521-2.802c6.481,1.683,10.873,2.857,13.174,3.525c3.401-1.236,6.179-2.579,8.331-4.026l2.839,1.985
		c-1.831,1.2-4.008,2.375-6.531,3.525c3.055,1.015,6.005,2.078,8.851,3.191l-1.781,2.672c-2.994-1.199-6.896-2.561-11.708-4.082
		c-1.559,0.495-3.117,0.953-4.676,1.373l2.895,1.021c-0.272,0.854-0.662,1.794-1.169,2.82h17.627V138.706z M189.218,64.725h-33.102
		v-2.709h14.974v-2.134h-13.378v-2.579h13.378v-2.004h-11.393V43.517h11.393v-2.134h-14.176v-2.579h14.176v-2.282
		c-5.641,0.21-9.543,0.285-11.708,0.223l-1.095-2.69c1.509,0.05,3.024,0.074,4.546,0.074c7.954,0,15.518-0.662,22.692-1.985
		l1.596,2.486c-4.936,0.816-9.166,1.349-12.691,1.596v2.579h13.953v2.579H174.43v2.134h11.3v11.782h-11.3v2.004h13.192v2.579
		h-13.155v2.134h14.751V64.725z M198.495,56.505l2.932,1.299c-1.583,3.34-3.247,5.975-4.991,7.904l-2.728-1.781
		C195.353,62.108,196.949,59.635,198.495,56.505z M193.968,126.961h6.568c-0.31-1.088-0.699-2.016-1.169-2.783l3.266-1.095
		c0.569,1.113,1.101,2.406,1.596,3.878h5.548v3.08h-10.112v6.457c0,0.631,0.334,0.946,1.002,0.946h8.238v3.006h-9.24
		c-2.152,0-3.229-1.193-3.229-3.581v-6.828h-2.468V126.961z M226.847,156.185h-32.304v-3.006h14.361v-2.69h-12.228v-2.969h12.228
		v-2.356c-5.072,0.148-9.494,0.186-13.267,0.111l-0.946-2.895c3.847,0.099,6.822,0.148,8.925,0.148
		c8.114,0,14.77-0.668,19.965-2.004l1.707,2.616c-3.056,0.742-7.379,1.33-12.97,1.763v2.616h12.357v2.969h-12.357v2.69h14.528
		V156.185z M226.847,128.742c0,0.384-0.479,1.32-1.438,2.811c-0.959,1.491-2.112,2.843-3.46,4.055
		c-1.349,1.213-2.885,2.326-4.611,3.34c-1.726,1.015-3.597,1.881-5.613,2.598l-1.874-2.542c1.855-0.681,3.303-1.312,4.342-1.893
		c-1.188-1.386-2.239-2.474-3.154-3.266l-1.002,0.872l-2.542-2.282c4.032-3.167,6.729-6.296,8.09-9.389l3.358,0.649
		c-0.347,0.779-0.681,1.398-1.002,1.855h8.906V128.742z M224.453,65.856c-0.804-2.276-2.202-4.874-4.193-7.793l3.006-1.484
		c2.028,3.117,3.451,5.833,4.268,8.146L224.453,65.856z M231.782,140.877c2.622-0.754,4.663-1.806,6.123-3.154h-5.585v-2.709h7.014
		c0.161-0.507,0.291-1.188,0.39-2.041h-5.845v-2.635h5.919c0.136-1.076,0.173-1.824,0.111-2.245
		c-2.276,0.284-4.466,0.452-6.568,0.501l-0.612-2.616c2.795-0.05,5.226-0.216,7.292-0.501v-2.171h3.266v1.948
		c2.338-0.284,4.391-0.625,6.16-1.021l0.538,2.616c-1.979,0.396-4.237,0.736-6.772,1.021c0.037,0.692,0,1.516-0.111,2.468h5.696
		v2.635h-5.808l-0.297,2.041h7.7v2.709h-8.609c-1.546,2.709-4.249,4.657-8.108,5.845L231.782,140.877z M261.692,151.045
		c0,1.646-0.35,2.703-1.048,3.173c-0.699,0.47-2.087,0.705-4.166,0.705c-0.718,0-1.324-0.037-1.818-0.111l-1.299-3.154
		c0.854,0.05,2.232,0.074,4.138,0.074c0.532,0,0.798-0.241,0.798-0.724v-4.546h-8.053v10.261h-3.266v-10.261h-8.127v8.238h-3.303
		v-11.318h11.43v-2.857h3.266v2.857h11.448V151.045z M259.633,139.578c-0.804,0-1.781-0.037-2.932-0.111l-1.169-3.043
		c1.521,0.137,2.826,0.204,3.915,0.204c0.952,0,1.568-0.099,1.846-0.297s0.417-0.495,0.417-0.891c0-0.581-0.523-1.323-1.568-2.227
		c-1.045-0.903-2.583-1.657-4.611-2.264c1.447-1.175,2.944-2.492,4.49-3.952h-5.288v14.788h-3.191v-17.72h12.729v2.932
		c-1.386,1.361-2.604,2.462-3.655,3.303c2.993,1.349,4.49,3.123,4.49,5.325C265.106,138.261,263.282,139.578,259.633,139.578z
		 M264.42,64.947c-2.4,0.037-4.422,0.056-6.067,0.056c-3.513,0-6.463-0.081-8.851-0.241c-2.388-0.161-4.401-0.64-6.04-1.438
		c-1.639-0.798-3.028-1.933-4.166-3.405c-1.868,2.672-3.637,4.602-5.307,5.789l-2.319-2.746c2.981-1.979,5.399-5.307,7.255-9.982
		l3.266,0.835c-0.371,1.052-0.829,2.128-1.373,3.229c1.299,1.93,3.47,3.334,6.513,4.212v-9.648h-15.252v-3.043h33.139v3.043h-14.436
		v3.451h12.432v3.006h-12.432v3.544c2.387,0.124,7.316,0.21,14.788,0.26L264.42,64.947z M269.708,152.956
		c1.422-0.321,2.27-0.525,2.542-0.612v-27.999h13.155v23.898c0.408-0.062,0.896-0.216,1.466-0.464l0.204,3.303
		c-4.144,1.621-9.581,3.309-16.31,5.065L269.708,152.956z M302.012,145.757c-0.198,4.639-0.452,7.376-0.761,8.21
		c-0.31,0.836-0.804,1.473-1.484,1.912c-0.681,0.438-1.788,0.658-3.321,0.658c-0.681,0-1.602-0.019-2.765-0.056l-1.169-3.451
		c0.272,0.024,1.88,0.037,4.824,0.037c0.297,0,0.557-0.163,0.779-0.491s0.42-2.438,0.594-6.328c0.173-3.89,0.26-8.08,0.26-12.57
		h-3.841c-0.26,6.186-0.978,10.886-2.152,14.102c-1.175,3.217-2.957,6.284-5.344,9.203l-2.579-2.245
		c2.065-2.351,3.67-5.013,4.815-7.987c1.144-2.975,1.784-7.332,1.92-13.072h-4.917v-3.303h4.954
		c0.099-1.941,0.124-4.273,0.074-6.995h3.303c0.037,2.065,0.012,4.397-0.074,6.995h7.181
		C302.309,135.991,302.209,141.118,302.012,145.757z M301.761,109.268c-0.823,0.928-1.958,1.391-3.405,1.391h-12.079
		c-1.175,0-2.128-0.33-2.857-0.992c-0.73-0.662-1.095-1.673-1.095-3.033V93.217l-2.932,0.909l-0.371-3.303l3.303-1.095v-8.517h3.303
		v7.403l4.75-1.559v-9.185h3.303v8.09l8.517-2.783c-0.198,5.802-0.897,11.325-2.097,16.569l-3.043-0.945
		c1.002-4.095,1.509-7.744,1.521-10.948l-4.898,1.559v14.676h-3.303V90.564l-4.75,1.466v14.455c0,0.197,0.093,0.387,0.278,0.565
		c0.186,0.18,0.371,0.269,0.557,0.269h11.355c0.705,0,1.221-0.303,1.549-0.908c0.328-0.606,0.572-1.861,0.733-3.768l3.303,1.336
		C303.131,106.576,302.583,108.34,301.761,109.268z M314.239,77.557l3.154,0.946c-0.544,1.633-1.027,2.994-1.447,4.082l-1.373,3.488
		v24.956h-3.303v-17.96c-0.606,1.15-1.212,2.122-1.818,2.914l-1.93-3.452C310.083,88.771,312.322,83.779,314.239,77.557z
		 M315.371,131.525v24.993h-3.303V137.37c-0.928,1.336-1.726,2.375-2.394,3.117l-1.633-3.451c2.882-3.661,5.238-8.325,7.069-13.99
		l3.377,0.649c-0.371,1.324-0.983,2.975-1.837,4.954L315.371,131.525z M339.761,154.867c-0.823,0.928-1.958,1.392-3.405,1.392
		h-12.079c-1.175,0-2.128-0.331-2.857-0.993c-0.73-0.661-1.095-1.672-1.095-3.033v-13.415l-2.932,0.909l-0.371-3.303l3.303-1.095
		v-8.517h3.303v7.403l4.75-1.559v-9.185h3.303v8.09l8.517-2.783c-0.198,5.802-0.897,11.324-2.097,16.569l-3.043-0.946
		c1.002-4.094,1.509-7.743,1.521-10.947l-4.898,1.559v14.677h-3.303v-13.526l-4.75,1.466v14.454c0,0.198,0.093,0.387,0.278,0.566
		s0.371,0.269,0.557,0.269h11.355c0.705,0,1.221-0.303,1.549-0.909c0.328-0.605,0.572-1.861,0.733-3.767l3.303,1.336
		C341.131,152.177,340.583,153.939,339.761,154.867z M353.946,128.186l-1.373,3.488v24.956h-3.303v-17.961
		c-0.606,1.15-1.212,2.122-1.818,2.913l-1.93-3.451c2.561-3.76,4.799-8.752,6.717-14.974l3.154,0.946
		C354.849,125.736,354.367,127.098,353.946,128.186z M359.42,156.723h-3.303V129.54h3.303V156.723z M361.331,130.115
		c-1.175-1.941-2.523-3.767-4.045-5.474l2.746-1.67c1.633,1.683,3,3.52,4.101,5.511L361.331,130.115z M378.309,152.529
		c0,1.15-0.235,2.045-0.705,2.682c-0.47,0.637-1.027,1.061-1.67,1.271c-0.644,0.21-1.664,0.315-3.062,0.315
		c-1.373,0-2.74-0.025-4.101-0.074l-0.835-3.321c1.905,0.087,3.878,0.13,5.919,0.13c0.321,0,0.594-0.121,0.816-0.361
		c0.223-0.242,0.334-0.517,0.334-0.826v-24.325h-9.778v-3.303h13.081V152.529z M379.218,110.27h-24.251v-2.914h2.561V86.111h6.568
		c0.334-1.138,0.587-2.035,0.761-2.69h-9.036v-2.969h9.797c0.383-1.596,0.6-2.548,0.649-2.857l3.525,0.353
		c-0.099,0.656-0.291,1.491-0.575,2.505h9.556v2.969h-10.298c-0.136,0.569-0.377,1.466-0.724,2.69h8.739v21.245h2.728V110.27z
		 M377.696,65.708c-5.418-1.064-10.409-2.696-14.974-4.898c-4.466,2.152-9.444,3.772-14.937,4.861l-1.818-3.47
		c5.381-0.841,9.741-2.053,13.081-3.637c-2.833-2.264-5.709-5.572-8.628-9.927h-1.67v-3.34h12.19v-5.121h-14.825v-3.396h14.825
		v-4.509h3.525v4.509h14.751v3.396h-14.751v5.121h10.428v3.34c-2.981,4.416-5.857,7.688-8.628,9.815
		c3.253,1.521,7.632,2.827,13.137,3.915L377.696,65.708z M393.69,154.44c0,1.41-1.2,2.115-3.6,2.115
		c-0.322,0-0.637-0.013-0.946-0.037l-0.835-2.839c0.297,0.05,1.082,0.074,2.356,0.074c0.272,0,0.408-0.191,0.408-0.575v-2.097
		h-3.043c-0.421,2.338-1.182,4.188-2.282,5.548l-1.967-1.893c1.311-2.054,1.967-4.867,1.967-8.442v-5.993h7.941V154.44z
		 M395.212,156.76l-1.206-2.171c1.15-0.47,2.13-1.11,2.941-1.921c0.81-0.81,1.348-1.617,1.614-2.421
		c0.266-0.804,0.399-2.097,0.399-3.878c0-0.668-0.019-1.373-0.056-2.115l2.431,0.037c0.074,3.241-0.056,5.492-0.39,6.754
		s-0.956,2.365-1.865,3.313C398.171,155.303,396.882,156.104,395.212,156.76z M400.648,152.919l1.818-1.837l2.319,2.486
		l-1.893,1.818C402.201,154.435,401.452,153.611,400.648,152.919z M416.782,155.451c-0.501,0.65-1.469,0.975-2.904,0.975
		c-1.621,0-2.431-0.563-2.431-1.688v-4.898l-1.262,1.707c-0.347-0.557-0.786-1.403-1.317-2.542c-0.31,2.944-1.15,5.529-2.523,7.756
		l-1.967-1.763c1.447-2.103,2.171-5.214,2.171-9.333v-5.325h7.292v12.877c0,0.297,0.161,0.445,0.482,0.445
		c0.408,0,0.683-0.244,0.826-0.733c0.142-0.488,0.213-1.555,0.213-3.2l2.171,0.872C417.533,153.186,417.283,154.803,416.782,155.451
		z M429.835,123.194l2.783,1.744c-2.969,3.884-6.024,6.748-9.166,8.591l-1.67-3.006
		C424.269,129.225,426.953,126.781,429.835,123.194z M430.095,156.519h-3.377v-14.77c-1.324,1.323-2.363,2.271-3.117,2.839
		l-1.633-3.08c2.696-2.14,5.418-5.598,8.164-10.372l2.783,1.336c-0.829,1.694-1.769,3.29-2.82,4.787V156.519z M439.984,153.364
		c-1.917-2.004-3.705-3.507-5.362-4.509l2.171-2.319c1.633,0.878,3.494,2.369,5.585,4.472L439.984,153.364z M455.292,146.072h-4.397
		v6.958c0,2.313-1.534,3.47-4.602,3.47c-0.816,0-1.688-0.031-2.616-0.093l-0.965-3.08c1.076,0.062,2.004,0.093,2.783,0.093
		c0.903,0,1.49-0.105,1.763-0.315c0.272-0.21,0.408-0.538,0.408-0.983v-6.049h-16.013v-3.043h16.013v-2.245h-15.178v-2.987h21.857
		v2.987h-3.451v2.245h4.397V146.072z M433.936,135.886v-11.894h18.852v11.894H433.936z M453.548,111.42
		c-4.639-3.278-7.639-7.026-8.999-11.244c-1.324,4.502-4.268,8.188-8.832,11.059l-1.93-2.709c4.812-2.598,7.613-6.779,8.405-12.543
		h-7.57v-3.099h7.756v-5.826h3.34v5.826h9.5v3.099h-8.851c1.125,5.096,4.193,9.357,9.203,12.783L453.548,111.42z M492.717,155.758
		c-2.438,0.086-5.078,0.13-7.923,0.13c-4.243,0-7.233-0.108-8.972-0.325s-3.367-0.727-4.889-1.53s-2.783-1.936-3.785-3.396
		c-1.299,2.141-2.981,4.23-5.047,6.271l-2.542-2.542c4.169-3.761,6.772-8.751,7.812-14.974l3.433,0.52
		c-0.557,2.944-1.269,5.48-2.134,7.607c1.496,2.647,3.754,4.193,6.772,4.639v-15.011h-11.411v-12.729h25.16v12.729h-10.298v5.548
		h12.58v3.229h-12.58v6.605c2.288,0.074,4.595,0.111,6.921,0.111c2.709,0,5.355-0.049,7.941-0.148L492.717,155.758z
		 M497.671,150.748c1.694-0.717,3.197-1.453,4.509-2.208v-9.389h-3.563v-3.08h3.563v-7.478h-4.026v-3.191h11.411v3.191h-4.101v7.478
		h3.525v3.08h-3.525v7.533c1.41-0.718,2.765-1.527,4.063-2.431l0.482,3.229c-3.477,2.4-7.175,4.553-11.096,6.457L497.671,150.748z
		 M509.602,135.44l2.932-1.763c1.719,1.893,3.234,4.199,4.546,6.921l-2.913,1.633C512.879,139.634,511.357,137.37,509.602,135.44z
		 M507.394,151.286c3.266-2.685,5.975-5.307,8.127-7.867l2.097,2.505c-2.301,2.771-4.985,5.431-8.053,7.979L507.394,151.286z
		 M529.548,153.605c-3.6-3.191-6.222-7.273-7.867-12.246v11.745c0,0.742-0.21,1.401-0.631,1.976
		c-0.421,0.576-0.878,0.975-1.373,1.197s-1.262,0.334-2.301,0.334c-0.952,0-1.961-0.031-3.024-0.093l-1.076-3.266
		c0.643,0.05,1.961,0.074,3.952,0.074c0.223,0,0.47-0.114,0.742-0.343s0.408-0.455,0.408-0.678v-19.649h-8.962v-3.154h8.962v-6.123
		h3.303v6.123h9.426v3.154h-9.426v1.15c0.544,1.917,1.206,3.698,1.985,5.344c1.447-1.138,2.975-2.907,4.583-5.307l2.523,2.356
		c-2.004,2.647-3.909,4.633-5.715,5.956c1.349,3.117,3.531,6.03,6.55,8.739L529.548,153.605z M537.081,48.304l1.818-11.856h-2.282
		v-3.043h14.788v3.043h-3.08v8.813h2.245v3.043h-2.245V61.57c0,1.039-0.267,1.936-0.798,2.69c-0.532,0.754-1.85,1.132-3.952,1.132
		c-0.655,0-1.28-0.025-1.874-0.074l-1.021-3.117c1.41,0.05,2.641,0.074,3.692,0.074c0.148,0,0.3-0.077,0.455-0.232
		c0.154-0.154,0.231-0.3,0.231-0.436V50.66c-2.375,5.579-4.874,9.704-7.496,12.376l-1.893-2.839
		c2.585-2.733,4.886-6.698,6.902-11.894H537.081z M567.325,156.908c-7.509-4.787-12.389-11.157-14.64-19.111
		c-2.363,7.645-7.299,13.922-14.807,18.833l-2.022-2.95c7.756-5.059,12.481-11.256,14.176-18.592h-13.378l-0.037-3.414h13.86
		c0.272-2.659,0.427-5.368,0.464-8.127h3.414c-0.037,3.303-0.148,6.012-0.334,8.127h14.862v3.414h-13.768
		c1.855,8.164,6.605,14.522,14.25,19.074L567.325,156.908z M586.437,156.519h-3.191v-5.733c-2.004,0.644-4.843,1.429-8.517,2.356
		l-1.021-3.154c0.52-0.099,1.354-0.29,2.505-0.575v-21.839h-1.855v-3.229h14.12v3.229h-2.041v19
		c0.779-0.198,1.299-0.353,1.559-0.464l0.761,2.969c-0.854,0.347-1.627,0.588-2.319,0.724V156.519z M605.399,157.02
		c-3.501-2.943-6.049-6.414-7.645-10.409c-1.447,3.958-4.23,7.366-8.35,10.224l-2.097-2.598c4.403-2.845,7.075-6.5,8.016-10.966
		h-7.403v-3.154h7.867c0.161-2.028,0.223-4.032,0.186-6.012h-7.181v-3.191h9.389c1.707-2.659,3.074-5.158,4.101-7.496l3.154,0.928
		c-1.052,2.288-2.189,4.478-3.414,6.568h4.36v3.191h-7.106c0,1.188-0.062,3.191-0.186,6.012h8.09v3.154h-7.106
		c0.854,3.884,3.321,7.595,7.403,11.133L605.399,157.02z M612.079,46.318h33.064v3.358h-33.064V46.318z M631.691,137.333
		c-0.829,2.709-2.017,4.886-3.563,6.531l-2.82-2.152c1.236-1.026,2.162-2.409,2.773-4.147c0.613-1.737,0.919-3.51,0.919-5.315
		v-8.108h14.25v16.272c0,0.915-0.334,1.603-1.002,2.06c-0.668,0.458-2.109,0.687-4.323,0.687c-0.606,0-1.188-0.019-1.744-0.056
		l-1.299-3.191c2.895,0,4.465-0.043,4.713-0.13c0.247-0.087,0.371-0.334,0.371-0.742v-1.707H631.691z M625.42,124.141v16.161
		h-11.281v-16.161H625.42z M624.399,94.553c0-1.175,0.417-2.167,1.253-2.978c0.834-0.81,1.84-1.215,3.015-1.215
		c1.163,0,2.155,0.415,2.978,1.243c0.822,0.829,1.234,1.813,1.234,2.95c0,1.224-0.427,2.251-1.28,3.08
		c-0.854,0.83-1.843,1.244-2.969,1.244c-1.089,0-2.065-0.412-2.932-1.234S624.399,95.791,624.399,94.553z M645.366,156.036h-33.139
		v-3.043h3.284v-8.591h26.552v8.591h3.303V156.036z M659.319,156.593h-3.34v-16.328c-1.052,2.351-2.319,4.577-3.804,6.68
		l-2.171-2.728c3.117-4.379,5.06-8.183,5.826-11.411h-5.474v-3.229h5.622v-6.067h3.34v6.067h4.639v3.229h-4.639v1.039
		c2.065,1.942,3.841,3.866,5.325,5.771l-2.394,2.579c-0.755-1.249-1.731-2.529-2.932-3.841V156.593z M681.325,148.095
		c-2.091-3.067-4.651-6.222-7.682-9.463v17.998h-3.34v-16.477c-2.054,3.006-4.397,5.776-7.032,8.313l-1.985-2.69
		c5.282-4.886,9.036-11.003,11.263-18.351h-9.389v-3.191h20.058v3.191h-7.144c-0.965,2.833-1.763,4.96-2.394,6.383
		c4.837,5.195,8.194,9.136,10.075,11.819L681.325,148.095z M720.012,154.561c-0.742,0.934-1.791,1.453-3.145,1.559
		c-1.355,0.105-4.303,0.158-8.842,0.158c-1.979,0-3.764-0.019-5.354-0.056s-2.644-0.421-3.163-1.15s-0.779-1.726-0.779-2.987
		v-11.096h-2.857c0,4.379-0.491,7.729-1.476,10.047c-0.982,2.32-2.452,4.228-4.406,5.725l-2.171-2.635
		c3.253-2.437,4.787-6.815,4.602-13.137h-3.878v-3.043h16.105v3.043h-2.653v11.133c0,0.408,0.163,0.674,0.491,0.798
		s2.923,0.186,7.784,0.186c3.525,0,5.542-0.056,6.049-0.167s0.884-0.367,1.132-0.77c0.247-0.402,0.451-1.772,0.612-4.11l3.266,1.095
		C721.193,151.824,720.754,153.627,720.012,154.561z M734.021,39.49l2.857,1.633c-0.792,1.571-1.917,3.34-3.377,5.307v18.777h-3.507
		V50.66c-0.779,0.779-1.676,1.553-2.69,2.319l-1.633-3.303C728.578,47.661,731.361,44.265,734.021,39.49z M759.329,150.414h-14.807
		v6.179h-3.358v-6.179h-14.937v-3.154h14.937v-3.433h-12.339v-2.913c1.683-1.893,3.136-3.871,4.36-5.938h-5.399v-3.043h7.236
		c0.866-1.546,1.559-2.863,2.078-3.952l3.433,0.798c-0.458,0.903-1.058,1.955-1.8,3.154h18.74v3.043h-20.447
		c-1.435,2.276-2.777,4.212-4.026,5.808h8.164v-4.509h3.358v4.509h12.153v3.043h-12.153v3.433h14.807V150.414z M768.31,62.591v2.876
		h-3.358V37.82h3.396c0.952-1.756,1.694-3.686,2.227-5.789l3.507,0.575c-0.186,1.2-0.779,2.938-1.781,5.214h6.142v27.275h-3.266
		v-2.505H768.31z M783.599,143.233c-0.854,0.829-1.843,1.243-2.969,1.243c-1.089,0-2.065-0.411-2.932-1.234
		c-0.866-0.822-1.299-1.852-1.299-3.089c0-1.175,0.417-2.167,1.253-2.978c0.834-0.811,1.84-1.216,3.015-1.216
		c1.163,0,2.155,0.415,2.978,1.243c0.822,0.829,1.234,1.813,1.234,2.95C784.879,141.378,784.452,142.404,783.599,143.233z
		 M783.079,48.712l2.969-1.855c2.523,3.154,4.273,5.863,5.251,8.127l-2.969,1.911C786.697,53.629,784.947,50.901,783.079,48.712z
		 M796.42,52.154c-0.235,5.795-0.582,9.212-1.039,10.251c-0.458,1.039-1.154,1.803-2.088,2.292c-0.934,0.488-3.207,0.745-6.818,0.77
		l-1.262-3.34l5.084-0.037c0.482,0,0.996-0.204,1.54-0.612s0.952-3.16,1.225-8.257c0.272-5.096,0.401-9.067,0.39-11.912h-7.626
		c-1.188,3.019-2.53,5.591-4.026,7.719l-2.598-2.319c2.721-4.403,4.639-9.32,5.752-14.751l3.34,0.724
		c-0.248,1.287-0.693,3.062-1.336,5.325h9.853C796.785,41.643,796.654,46.359,796.42,52.154z M804.361,64.149l-2.468-2.208
		c3.142-2.251,6.259-5.319,9.352-9.203l2.579,1.985C810.385,59.041,807.23,62.183,804.361,64.149z M821.283,62.09
		c0,0.829-0.201,1.509-0.604,2.041c-0.402,0.532-0.859,0.878-1.373,1.039c-0.514,0.161-1.623,0.241-3.33,0.241
		c-0.73,0-1.447-0.019-2.152-0.056l-1.132-3.154c0.705,0.025,2.158,0.037,4.36,0.037c0.655,0,0.983-0.365,0.983-1.095v-9.686
		h-13.563v-3.229c2.572-2.511,4.904-5.504,6.995-8.98h-8.999v-3.229h10.91c0.643-1.063,1.336-2.431,2.078-4.101l3.377,0.983
		c-0.631,1.336-1.176,2.375-1.633,3.117h17.683v3.229h-19.501c-2.165,3.649-4.293,6.643-6.383,8.98h9.036v-6.884h3.247v6.884h12.19
		v3.229h-12.19V62.09z M832.602,64.038c-1.844-2.783-4.553-5.888-8.127-9.314l2.616-2.06c3.55,3.365,6.284,6.482,8.201,9.352
		L832.602,64.038z M873.106,36.484h-11.096v5.084h8.999v23.75h-3.488v-2.319h-21.783v2.319h-3.451v-23.75h8.739v-5.084h-10.91
		v-3.303h32.99V36.484z M897.599,52.033c-0.854,0.829-1.844,1.243-2.969,1.243c-1.089,0-2.066-0.411-2.932-1.234
		c-0.866-0.822-1.299-1.852-1.299-3.089c0-1.175,0.417-2.167,1.253-2.978c0.834-0.81,1.839-1.215,3.015-1.215
		c1.162,0,2.155,0.415,2.978,1.243c0.823,0.829,1.234,1.813,1.234,2.95C898.879,50.178,898.452,51.205,897.599,52.033z"/>
	<rect x="659.134" y="43.813" fill="#FFFFFF" width="15.456" height="2.394"/>
	<rect x="579.404" y="127.573" fill="#FFFFFF" width="3.841" height="4.509"/>
	<rect x="579.404" y="135.273" fill="#FFFFFF" width="3.841" height="4.713"/>
</g>
</svg>
