<?xml version="1.0" encoding="utf-8"?>
<!-- Generator: Adobe Illustrator 16.0.0, SVG Export Plug-In . SVG Version: 6.00 Build 0)  -->
<!DOCTYPE svg PUBLIC "-//W3C//DTD SVG 1.1//EN" "http://www.w3.org/Graphics/SVG/1.1/DTD/svg11.dtd">
<svg version="1.1" id="Layer_1" xmlns="http://www.w3.org/2000/svg" xmlns:xlink="http://www.w3.org/1999/xlink" x="0px" y="0px"
	 width="900px" height="230px" viewBox="0 0 900 230" enable-background="new 0 0 900 230" xml:space="preserve">
<text transform="matrix(1 0 0 1 13.002 323)" enable-background="new    "><tspan x="0" y="0" font-family="'HelveticaNeueLTPro-Blk'" font-size="40">Helvetica - 95Black - 40pt</tspan><tspan x="0" y="48" font-family="'HelveticaNeueLTPro-Blk'" font-size="40">Microsoft JhengHei UI - 38 or 52</tspan></text>
<g>
	<rect x="363.947" y="182.992" fill="#FFFFFF" width="9.389" height="4.639"/>
	<rect x="351.033" y="182.992" fill="#FFFFFF" width="9.537" height="4.639"/>
	<rect x="363.947" y="175.273" fill="#FFFFFF" width="9.389" height="4.676"/>
	<rect x="351.033" y="175.273" fill="#FFFFFF" width="9.537" height="4.676"/>
	<rect x="163.983" y="170.672" fill="#FFFFFF" width="17.441" height="2.319"/>
	<rect x="163.983" y="175.774" fill="#FFFFFF" width="17.441" height="2.301"/>
	<rect x="280.581" y="43.558" fill="#FFFFFF" width="16.551" height="3.006"/>
	<path fill="#FFFFFF" d="M546.229,140.621h-10.947c-0.272,0.223-1.132,0.805-2.579,1.744c1.88,1.373,3.717,3.031,5.511,4.973
		C541.775,145.396,544.447,143.157,546.229,140.621z"/>
	<rect x="129.936" y="179.188" fill="#FFFFFF" width="9.24" height="10.187"/>
	<rect x="471.49" y="193.921" fill="#FFFFFF" width="14.046" height="1.985"/>
	<rect x="471.49" y="189.783" fill="#FFFFFF" width="14.046" height="1.707"/>
	<rect x="471.49" y="185.646" fill="#FFFFFF" width="14.046" height="1.818"/>
	<rect x="408.293" y="125.184" fill="#FFFFFF" width="5.437" height="5.437"/>
	<path fill="#FFFFFF" d="M411.93,141.456c2.87,1.262,6.117,3.019,9.741,5.27c2.907-1.868,5.412-4.058,7.515-6.568h-15.734
		C412.956,140.652,412.449,141.085,411.93,141.456z"/>
	<rect x="416.958" y="125.184" fill="#FFFFFF" width="5.437" height="5.437"/>
	<rect x="425.549" y="125.184" fill="#FFFFFF" width="5.418" height="5.437"/>
	<rect x="280.581" y="49.644" fill="#FFFFFF" width="16.551" height="2.969"/>
	<path fill="#FFFFFF" d="M540.978,127.058h-12.265c-0.124,0.111-0.34,0.26-0.649,0.445c2.152,1.521,4.026,3.08,5.622,4.676
		C536.58,130.62,539.011,128.913,540.978,127.058z"/>
	<rect x="239.983" y="175.774" fill="#FFFFFF" width="17.441" height="2.301"/>
	<rect x="540.31" y="39.123" fill="#FFFFFF" width="6.865" height="7.032"/>
	<path fill="#FFFFFF" d="M530.253,94.075c2.783,1.484,5.802,3.396,9.055,5.733c2.523-1.917,4.726-4.236,6.605-6.958h-14.287
		C531.045,93.419,530.587,93.828,530.253,94.075z"/>
	<rect x="540.31" y="49.347" fill="#FFFFFF" width="6.865" height="7.979"/>
	<rect x="578.458" y="47.324" fill="#FFFFFF" width="4.602" height="8.739"/>
	<path fill="#FFFFFF" d="M621.394,125.425h-23.713v23.657h23.713V125.425z M619.909,146.503h-20.781v-3.006h8.702v-5.474h-7.904
		v-2.913h7.904v-4.138h-8.331v-2.895h20.076v2.895h-8.517v4.138h7.979v2.913h-7.979v5.474h8.851V146.503z M618.963,141.178
		l-1.93,2.06c-1.521-1.126-3.019-2.022-4.49-2.69l1.855-2.097C616.241,139.316,617.763,140.226,618.963,141.178z"/>
	<rect x="578.458" y="35.653" fill="#FFFFFF" width="4.602" height="8.628"/>
	<path fill="#FFFFFF" d="M575.434,94.835c0.568,0,1.055-0.229,1.457-0.687c0.401-0.458,0.603-0.971,0.603-1.54
		c0-0.569-0.198-1.079-0.594-1.531c-0.396-0.451-0.935-0.677-1.614-0.677c-0.644,0-1.169,0.22-1.577,0.659
		c-0.408,0.439-0.612,0.95-0.612,1.531c0,0.606,0.213,1.132,0.641,1.577C574.162,94.613,574.729,94.835,575.434,94.835z"/>
	<rect x="296.464" y="144.072" fill="#FFFFFF" width="18.165" height="5.659"/>
	<rect x="405.937" y="80.122" fill="#FFFFFF" width="20.039" height="11.43"/>
	<rect x="239.983" y="170.672" fill="#FFFFFF" width="17.441" height="2.319"/>
	<rect x="406.809" y="36.451" fill="#FFFFFF" width="6.197" height="20.948"/>
	<rect x="447.944" y="95.244" fill="#FFFFFF" width="16.551" height="2.969"/>
	<path fill="#FFFFFF" d="M488.394,34.225h-23.713v23.657h23.713V34.225z M486.909,55.303h-20.781v-3.006h8.702v-5.474h-7.904V43.91
		h7.904v-4.138h-8.331v-2.895h20.076v2.895h-8.517v4.138h7.979v2.913h-7.979v5.474h8.851V55.303z M485.963,49.978l-1.93,2.06
		c-1.521-1.125-3.019-2.022-4.49-2.69l1.855-2.097C483.241,48.116,484.763,49.025,485.963,49.978z"/>
	<rect x="447.944" y="89.158" fill="#FFFFFF" width="16.551" height="3.006"/>
	<path fill="#FFFFFF" d="M507.338,104.094c1.496,0,2.688-0.563,3.572-1.688c0.884-1.125,1.326-2.517,1.326-4.175
		c0-1.868-0.421-3.306-1.262-4.314c-0.842-1.008-2.066-1.512-3.674-1.512c-1.436,0-2.635,0.507-3.6,1.521
		c-0.965,1.015-1.447,2.264-1.447,3.748c0,1.794,0.47,3.312,1.41,4.555C504.604,103.473,505.828,104.094,507.338,104.094z"/>
	<path fill="#FFFFFF" d="M582.818,170.709c0,1.93-0.037,3.779-0.111,5.548h4.268c0.049-2.61,0.062-4.459,0.037-5.548H582.818z"/>
	<rect x="672.549" y="170.783" fill="#FFFFFF" width="5.418" height="5.437"/>
	<rect x="663.958" y="170.783" fill="#FFFFFF" width="5.437" height="5.437"/>
	<path fill="#FFFFFF" d="M582.41,185.107h4.323c0.099-2.078,0.148-3.952,0.148-5.622h-4.212
		C582.67,181.18,582.583,183.055,582.41,185.107z"/>
	<path fill="#FFFFFF" d="M818.648,181.601c-0.644,0-1.169,0.22-1.577,0.659s-0.612,0.949-0.612,1.53
		c0,0.606,0.213,1.132,0.641,1.577c0.426,0.445,0.992,0.668,1.697,0.668c0.568,0,1.055-0.229,1.457-0.687
		c0.401-0.458,0.603-0.971,0.603-1.54c0-0.568-0.198-1.079-0.594-1.531C819.867,181.826,819.328,181.601,818.648,181.601z"/>
	<path fill="#FFFFFF" d="M779.702,187.965c1.88,1.373,3.717,3.031,5.511,4.973c3.563-1.941,6.234-4.181,8.016-6.717h-10.947
		C782.009,186.443,781.149,187.025,779.702,187.965z"/>
	<path fill="#FFFFFF" d="M787.978,172.657h-12.265c-0.124,0.111-0.34,0.26-0.649,0.445c2.152,1.521,4.026,3.08,5.622,4.676
		C783.58,176.22,786.011,174.513,787.978,172.657z"/>
	<rect x="540.31" y="175.923" fill="#FFFFFF" width="6.865" height="7.032"/>
	<path fill="#FFFFFF" d="M658.93,187.056c2.869,1.262,6.117,3.019,9.741,5.27c2.907-1.868,5.411-4.058,7.515-6.568h-15.734
		C659.956,186.252,659.449,186.685,658.93,187.056z"/>
	<rect x="655.293" y="170.783" fill="#FFFFFF" width="5.437" height="5.437"/>
	<path fill="#FFFFFF" d="M-1-1v235.5h904.5V-1H-1z M688.877,181.916l-0.724-2.95c2.128-2.845,4.268-6.89,6.42-12.135l3.043,1.262
		c-1.571,3.724-3.34,7.106-5.307,10.149c1.113-0.21,2.227-0.464,3.34-0.761c0.767-1.509,1.397-2.863,1.893-4.063l2.932,1.317
		c-2.276,5.208-4.774,9.704-7.496,13.489c2.895-0.841,5.103-1.602,6.624-2.282l0.872,3.006c-3.711,1.435-7.54,2.616-11.485,3.544
		l-0.983-2.82c2.028-2.461,3.952-5.338,5.771-8.628C691.561,181.489,689.928,181.78,688.877,181.916z M664.766,47.009
		c0.525-0.445,1.104-0.668,1.734-0.668c0.717,0,1.305,0.26,1.763,0.779s0.687,1.163,0.687,1.93c0,1.423-1.089,2.963-3.266,4.62
		l-1.15-0.891c0.47-0.68,0.798-1.243,0.983-1.688c-1.026-0.408-1.54-1.2-1.54-2.375C663.977,48.023,664.239,47.454,664.766,47.009z
		 M664.57,151.364l-2.895,2.022c-2.289-3.587-5.518-7.465-9.686-11.634l3.043-1.781C658.991,143.893,662.17,147.69,664.57,151.364z
		 M658.132,123.18l3.284,1.206c-1.608,3.29-3.408,6.104-5.399,8.442l-3.006-1.707C654.705,129.167,656.412,126.52,658.132,123.18z
		 M635.384,57.251l2.282-2.319c3.277,2.289,5.845,4.577,7.7,6.865l-2.542,2.022C640.919,61.568,638.439,59.379,635.384,57.251z
		 M641.952,131.27l-3.117,1.521c-1.274-2.498-2.993-5.207-5.158-8.127l3.229-1.484C638.859,125.827,640.542,128.523,641.952,131.27z
		 M625.346,37.212h12.506c0.26-1.262,0.42-2.338,0.482-3.229h-11.541v-3.006h15.271c-0.186,2.474-0.439,4.552-0.761,6.234h3.878
		v3.08h-19.835V37.212z M629.001,40.904l3.024,0.946c-0.111,0.544-0.334,1.169-0.668,1.874h12.524v3.062h-6.717
		c-0.05,0.928-0.204,2.208-0.464,3.841h8.257v3.043h-9.092c-1.608,4.577-4.886,7.91-9.834,10.001l-2.134-2.635
		c4.379-1.781,7.205-4.236,8.479-7.366h-6.995v-3.043h7.941c0.234-1.076,0.402-2.356,0.501-3.841h-4.156
		c-0.692,1.2-1.491,2.264-2.394,3.191l-2.69-1.855C626.292,46.341,627.764,43.935,629.001,40.904z M597.681,152.236v2.282h-3.303
		v-32.211h30.281v32.211h-3.266v-2.282H597.681z M624.177,58.643h-3.321V35.857h3.321V58.643z M619,29.846l3.377,0.946
		c-0.768,2.115-1.59,4.156-2.468,6.123l-1.336,2.69v23.787h-3.303V44.931c-0.458,0.644-1.076,1.392-1.855,2.245l-1.67-3.451
		C614.59,40.311,617.008,35.685,619,29.846z M575.192,32.573h11.207v28.277h-3.34v-1.781h-4.602v2.728h-3.266V32.573z
		 M573.819,150.047v-8.869h-7.719v-3.229h7.719v-6.067h3.525v6.067h8.294v3.229h-8.294v8.869h10.873v3.303h-24.047v1.317h-3.433
		v-14.77c-1.324,1.323-2.523,2.375-3.6,3.154l-2.319-2.783c3.995-2.944,7.149-6.327,9.463-10.149h-8.294v-3.266h10.149
		c0.718-1.397,1.503-3.284,2.356-5.659l3.34,0.872c-0.594,1.732-1.213,3.328-1.855,4.787h17.701v3.266h-19.445
		c-1.2,2.078-2.555,4.095-4.063,6.049v13.879H573.819z M555.079,46.712l2.969-1.855c2.523,3.154,4.273,5.863,5.251,8.127
		l-2.969,1.911C558.697,51.629,556.947,48.901,555.079,46.712z M572.289,89.575c0.834-0.81,1.84-1.215,3.015-1.215
		c1.163,0,2.155,0.415,2.978,1.243c0.822,0.829,1.234,1.813,1.234,2.95c0,1.225-0.427,2.251-1.28,3.08
		c-0.854,0.829-1.843,1.243-2.969,1.243c-1.089,0-2.065-0.411-2.932-1.234c-0.866-0.822-1.299-1.852-1.299-3.089
		C571.036,91.378,571.453,90.386,572.289,89.575z M556.953,29.957l3.34,0.724c-0.248,1.287-0.693,3.062-1.336,5.325h9.853
		c-0.024,3.637-0.155,8.353-0.39,14.148c-0.235,5.795-0.582,9.212-1.039,10.251c-0.458,1.039-1.154,1.803-2.088,2.292
		c-0.934,0.488-3.207,0.745-6.818,0.77l-1.262-3.34l5.084-0.037c0.482,0,0.996-0.204,1.54-0.612s0.952-3.16,1.225-8.257
		c0.272-5.096,0.401-9.067,0.39-11.912h-7.626c-1.188,3.019-2.53,5.591-4.026,7.719l-2.598-2.319
		C553.922,40.305,555.84,35.388,556.953,29.957z M536.951,35.82h3.396c0.952-1.756,1.694-3.686,2.227-5.789l3.507,0.575
		c-0.186,1.2-0.779,2.938-1.781,5.214h6.142v27.275h-3.266v-2.505h-6.865v2.876h-3.358V35.82z M535.689,75.78h3.229v7.385h9.537
		V77.58h3.266v8.702H537.1c-0.94,1.46-1.75,2.585-2.431,3.377h15.271v3.191c-3.625,5.468-7.629,9.404-12.014,11.81
		c-4.386,2.406-9.677,3.893-15.874,4.462l-1.447-3.154c5.851-0.321,11.071-1.731,15.66-4.23c-2.388-1.917-5.288-3.804-8.702-5.659
		c-1.398,0.978-2.883,1.837-4.453,2.579l-2.078-2.505c4.91-2.461,8.912-5.752,12.005-9.871h-10.224V77.58h3.266v5.585h9.611V75.78z
		 M525.336,129.21c-2.338,1.249-4.293,2.165-5.863,2.746l-2.004-2.542c5.405-2.14,9.809-4.904,13.211-8.294l3.191,1.225
		c-0.396,0.495-0.953,1.076-1.67,1.744h13.415v2.969c-6.16,6.481-15.128,10.86-26.904,13.137l-1.596-3.006
		c5.653-0.903,10.137-2.065,13.452-3.488C529.455,132.377,527.711,130.88,525.336,129.21z M528.676,62.187
		c-2.289-3.587-5.518-7.465-9.686-11.634l3.043-1.781c3.958,3.921,7.137,7.719,9.537,11.393L528.676,62.187z M525.132,31.979
		l3.284,1.206c-1.608,3.291-3.408,6.104-5.399,8.442l-3.006-1.707C521.705,37.967,523.412,35.319,525.132,31.979z M503.905,31.979
		c1.954,2.647,3.637,5.344,5.047,8.09l-3.117,1.521c-1.274-2.499-2.993-5.208-5.158-8.127L503.905,31.979z M498.469,43.038h14.324
		V30.384h3.563v12.654h14.491v3.303h-14.491V63.43h-3.563V46.341h-14.324V43.038z M507.097,48.697l3.08,1.744
		c-3.353,5.294-6.624,9.185-9.815,11.671l-2.431-2.356C501.258,57.06,504.313,53.373,507.097,48.697z M500.862,82.487
		c2.152-3.074,5.146-4.611,8.98-4.611c2.065,0,3.698,0.272,4.898,0.816v3.878c-1.46-0.792-3.03-1.188-4.713-1.188
		c-2.474,0-4.425,1.048-5.854,3.145c-1.428,2.097-2.137,4.803-2.124,8.118h0.093c1.348-2.461,3.476-3.692,6.383-3.692
		c2.474,0,4.44,0.82,5.9,2.458c1.459,1.639,2.189,3.782,2.189,6.429c0,2.796-0.875,5.118-2.625,6.967
		c-1.751,1.85-3.993,2.774-6.727,2.774c-3.105,0-5.486-1.172-7.144-3.516c-1.657-2.344-2.486-5.569-2.486-9.676
		C497.634,89.529,498.71,85.562,500.862,82.487z M486.724,129.934c-2.276,3.266-4.403,5.684-6.383,7.255l-1.818-2.913
		c3.377-3.018,6.5-7.44,9.37-13.267l3.507,0.835c-0.742,1.584-1.633,3.204-2.672,4.861h23.268c-0.681,3.662-1.62,6.804-2.82,9.426
		l-3.266-0.983c0.866-1.905,1.503-3.643,1.911-5.214H486.724z M490.379,137.764c-2.783,6.197-5.9,11.077-9.352,14.64l-2.431-2.486
		c3.056-2.969,5.993-7.576,8.813-13.823L490.379,137.764z M480.211,84.705c-1.2,0.668-2.344,1.145-3.433,1.429v-4.23
		c3.167-1.002,5.962-2.437,8.387-4.305h2.746V107.1h-4.49V82.478C482.48,83.294,481.41,84.037,480.211,84.705z M504.054,136.131
		c3.414,4.763,6.147,9.611,8.201,14.547l-3.08,1.688c-1.905-4.737-4.589-9.593-8.053-14.565L504.054,136.131z M461.378,31.107
		h30.281v32.211h-3.266v-2.282h-23.713v2.282h-3.303V31.107z M467.928,85.929v20.373c0,0.841-0.227,1.49-0.678,1.948
		c-0.451,0.458-1.135,0.699-2.05,0.724c-0.915,0.024-1.818,0.037-2.709,0.037c-1.423,0-2.592-0.019-3.507-0.056l-1.466-3.377
		c1.608,0.074,3.667,0.111,6.179,0.111c0.531,0,0.798-0.291,0.798-0.872v-3.488h-16.94c-0.644,2.685-1.961,5.239-3.952,7.663
		l-3.229-1.818c2.733-2.993,4.101-5.795,4.101-8.405v-6.104c-1.683,1.757-3.34,3.161-4.973,4.212l-2.431-2.579
		c4.54-3.067,8.201-6.945,10.984-11.634h-10.576v-3.303h12.357c0.804-1.422,1.386-2.678,1.744-3.767l3.507,0.575
		c-0.322,0.965-0.768,2.029-1.336,3.191h16.792v3.303h-18.462c-0.495,1.002-1.156,2.091-1.985,3.266H467.928z M441.877,136.316
		l-0.724-2.95c2.127-2.845,4.268-6.89,6.42-12.135l3.043,1.262c-1.571,3.724-3.34,7.106-5.307,10.149
		c1.113-0.21,2.227-0.464,3.34-0.761c0.767-1.509,1.397-2.863,1.893-4.063l2.932,1.317c-2.276,5.208-4.775,9.704-7.496,13.489
		c2.895-0.841,5.103-1.602,6.624-2.282l0.872,3.006c-3.711,1.435-7.54,2.616-11.485,3.544l-0.983-2.82
		c2.028-2.461,3.952-5.338,5.771-8.628C444.561,135.89,442.928,136.181,441.877,136.316z M452.602,146.726l0.946,2.969
		c-4.07,1.88-7.997,3.315-11.782,4.305l-0.946-3.08C444.876,149.855,448.804,148.457,452.602,146.726z M430.197,52.687
		c2.381-3.104,4.196-6.509,5.446-10.214c1.249-3.705,1.874-6.126,1.874-7.264l-0.111-0.761h-4.602V31.07h7.793
		c0.334,7.298,1.775,13.22,4.323,17.766c2.548,4.546,6.03,8.6,10.446,12.163l-2.653,2.523c-7.236-6.309-11.851-13.205-13.842-20.688
		c-2.523,8.646-7.422,15.45-14.695,20.41l-2.468-2.653C424.986,58.426,427.815,55.792,430.197,52.687z M403.506,33.111h12.84V63.43
		h-3.34v-2.653h-6.197v2.616h-3.303V33.111z M402.485,76.856h26.979v17.961h-26.979V76.856z M432.767,106.803l-2.69,2.468
		c-2.573-3.649-6.104-7.236-10.595-10.762l2.653-2.431C427.008,100.186,430.552,103.76,432.767,106.803z M401.409,170.857v18.74
		h-3.229v-21.969h17.293v21.969h-3.229v-18.74H401.409z M399.331,106.562c4.478-2.993,7.849-6.389,10.112-10.187l3.08,1.559
		c-2.548,4.292-6.136,7.991-10.762,11.096L399.331,106.562z M384.58,38.808v-3.266h5.251l0.148-5.437h3.377l-0.148,5.437h7.793
		c-0.025,5.505-0.161,10.882-0.408,16.133c-0.248,5.251-0.514,8.285-0.798,9.101c-0.285,0.816-0.792,1.459-1.521,1.93
		c-0.73,0.47-1.893,0.705-3.488,0.705c-0.792,0-1.583-0.031-2.375-0.093l-0.946-3.34c1.026,0.074,1.868,0.111,2.523,0.111
		c1.596,0,2.52-0.476,2.774-1.429c0.253-0.952,0.522-7.57,0.807-19.854h-4.435c-0.359,10.712-2.555,18.976-6.587,24.789
		l-2.876-2.022c4.008-5.913,6.03-13.501,6.067-22.767H384.58z M349.048,63.355l-0.872-2.542c2.993-1.991,5.993-5.108,8.999-9.352
		h-10.261v-3.191h31.32v3.191h-16.718c-2.326,3.179-4.837,5.956-7.533,8.331c4.676-0.235,9.982-0.729,15.92-1.484
		c-0.94-1.125-2.128-2.301-3.563-3.525l2.765-1.837c3.229,2.845,6.055,5.95,8.479,9.314l-2.932,1.744
		c-0.656-0.965-1.312-1.862-1.967-2.69C363.261,62.366,355.381,63.046,349.048,63.355z M355.523,82.367l-2.746,2.041
		c-1.361-2.028-2.994-3.865-4.898-5.511l2.616-2.189C352.437,78.415,354.113,80.301,355.523,82.367z M353.872,45.153v-3.08h17.516
		v3.08H353.872z M394.767,94.334l-1.967,2.802c-2.598-2.808-5.486-5.3-8.665-7.478v14.658h-3.377v-15.53
		c-1.905,2.734-4.367,5.455-7.385,8.164l-1.893-2.839c4.688-3.971,8.121-8.776,10.298-14.417h-9.76v-3.229h22.488v3.229h-9.352
		c-0.136,0.495-0.34,1.07-0.612,1.726l-0.408,0.909v3.6C388.452,88.737,391.996,91.539,394.767,94.334z M370.571,80.456
		l-2.282,2.356c-1.695-1.793-3.674-3.426-5.938-4.898l2.282-2.356C366.873,76.967,368.852,78.6,370.571,80.456z M362.018,96.542
		v-3.266c2.016-2.313,3.649-4.459,4.898-6.438h-5.399v-3.117h9.352v3.154c-2.202,3.179-3.736,5.35-4.602,6.513h4.676v3.377
		c-0.458,1.744-1.089,3.482-1.893,5.214c0.878,0.94,1.905,1.692,3.08,2.254c1.175,0.563,2.375,0.937,3.6,1.123
		s3.173,0.278,5.845,0.278c4.032,0,8.473-0.117,13.322-0.353l-1.225,3.34c-2.449,0.062-4.93,0.093-7.44,0.093
		c-5.232,0-8.609-0.074-10.131-0.223s-3.043-0.52-4.564-1.113s-2.87-1.472-4.045-2.635c-1.163,1.794-2.406,3.364-3.729,4.713
		l-2.653-2.134c3.451-3.563,5.579-7.156,6.383-10.78H362.018z M392.132,122.308c1.942,1.707,3.618,3.594,5.028,5.659l-2.746,2.041
		c-1.361-2.028-2.994-3.865-4.898-5.511L392.132,122.308z M362.314,29.92l3.006,1.521c-0.099,0.223-0.278,0.464-0.538,0.724
		c3.5,3.6,8.442,6.804,14.825,9.611l-1.837,2.932c-6.692-3.154-11.721-6.525-15.085-10.112c-3.798,4.045-8.826,7.416-15.085,10.112
		l-1.818-2.857C352.647,39.129,358.158,35.152,362.314,29.92z M346.172,75.91c-0.037,3.291-0.037,6.519,0,9.686h10.372v3.229
		h-10.261c0.086,3.154,0.315,6.117,0.687,8.888c1.756-2.016,3.34-4.484,4.75-7.403l2.969,1.484
		c-2.066,4.144-4.286,7.298-6.661,9.463c0.729,1.484,1.407,2.573,2.032,3.266c0.625,0.693,1.104,1.039,1.438,1.039
		c0.866,0,1.639-1.954,2.319-5.863l3.024,1.893c-0.495,2.412-1.147,4.28-1.958,5.604c-0.811,1.323-1.853,1.985-3.126,1.985
		c-2.128,0-4.243-1.899-6.346-5.696c-2.128,1.583-4.472,3.006-7.032,4.268l-1.893-2.82c2.932-1.373,5.498-2.888,7.7-4.546
		c-0.619-2.387-1.045-6.24-1.28-11.56h-7.941v5.251c1.893-0.383,3.995-0.915,6.309-1.596l0.074,3.303
		c-2.289,0.668-4.416,1.2-6.383,1.596v8.424c0,0.965-0.198,1.682-0.594,2.152c-0.396,0.47-0.897,0.776-1.503,0.918
		c-0.606,0.142-1.695,0.213-3.266,0.213c-1.175,0-2.326-0.031-3.451-0.093l-1.188-3.6c1.707,0.074,3.104,0.111,4.193,0.111
		c1.163,0,1.843-0.052,2.041-0.158c0.198-0.105,0.297-0.331,0.297-0.677v-6.568c-2.722,0.52-5.214,0.897-7.478,1.132l-0.612-3.154
		c2.449-0.272,5.146-0.705,8.09-1.299v-5.956h-7.979v-3.229h7.979v-4.305c-1.707,0.26-3.859,0.501-6.457,0.724l-1.521-3.154
		c6.42-0.383,11.782-1.379,16.087-2.987l1.93,2.802c-2.4,0.854-4.589,1.484-6.568,1.893v5.028h7.904
		c-0.05-1.534-0.074-4.762-0.074-9.686H346.172z M326.894,134.721v-3.303h7.181v14.565l2.356-1.948l1.021,3.08
		c-1.67,1.633-3.618,3.154-5.845,4.564l-1.336-3.043c0.284-0.371,0.427-0.767,0.427-1.188v-12.729H326.894z M328.341,122.901
		l2.728-1.707c2.053,2.091,3.754,4.255,5.103,6.494l-2.82,1.688C332.163,127.423,330.493,125.264,328.341,122.901z M323.999,31.219
		h12.061v28.036c0,0.482,0.377,0.724,1.132,0.724c0.346,0,0.603-0.108,0.77-0.325c0.167-0.216,0.291-1.008,0.371-2.375
		c0.08-1.367,0.108-2.835,0.083-4.407l3.34,1.299c-0.025,1.287-0.09,2.604-0.195,3.952c-0.105,1.349-0.195,2.236-0.269,2.663
		s-0.331,0.884-0.77,1.373c-0.439,0.488-0.974,0.801-1.605,0.937c-0.631,0.136-1.386,0.204-2.264,0.204
		c-1.707,0-2.792-0.328-3.256-0.983c-0.464-0.656-0.696-1.447-0.696-2.375V34.596h-5.418v14.788c0,5.604-1.546,10.416-4.639,14.436
		l-2.282-2.69c2.424-3.129,3.637-7.613,3.637-13.452V31.219z M308.116,40.533v-3.247h5.659v-7.014h3.358v7.014h5.585v3.247h-5.585
		v0.946c2.598,2.808,4.546,5.288,5.845,7.44l-2.394,2.356c-1.113-2.078-2.264-3.89-3.451-5.437v17.59h-3.358V46.749
		c-1.435,3.006-2.926,5.412-4.472,7.218l-1.596-3.34c2.301-2.808,4.249-6.172,5.845-10.094H308.116z M303.83,121.417h3.414v4.806
		h12.766v3.154h-12.766v5.047h14.751v3.08h-32.99v-3.08h14.825v-5.047h-8.201c-1.41,1.683-2.857,3.037-4.342,4.063l-2.505-2.356
		c2.895-2.078,5.591-5.244,8.09-9.5l3.377,1.021c-0.668,1.188-1.41,2.394-2.227,3.618h5.808V121.417z M296.464,152.923v1.707h-3.507
		v-13.675h25.086v13.675h-3.414v-1.707H296.464z M302.16,173.566l-2.746,2.041c-1.361-2.028-2.994-3.865-4.898-5.511l2.616-2.189
		C299.074,169.614,300.75,171.501,302.16,173.566z M260.06,31.516l2.765,1.948c-2.264,2.882-4.849,5.412-7.756,7.589l-2.653-2.208
		C255.26,36.729,257.808,34.287,260.06,31.516z M237.441,31.404c3.204,2.647,5.752,5.09,7.645,7.329l-2.598,2.134
		c-1.744-2.152-4.299-4.57-7.663-7.255L237.441,31.404z M233.563,58.234h26.144v-5.214h-24.956v-3.08h24.956v-5.047h-26.144v-3.08
		h13.526V30.272h3.34v11.541h12.617v21.505h-3.34v-1.967h-26.144V58.234z M261.117,127.54h3.303v27.183h-3.303V127.54z
		 M252.452,139.582l-1.93-3.451c2.561-3.76,4.799-8.752,6.717-14.974l3.154,0.946c-0.544,1.633-1.027,2.994-1.447,4.082
		l-1.373,3.488v24.956h-3.303v-17.961C253.664,137.819,253.058,138.791,252.452,139.582z M260.895,167.629v13.415h-24.399v-13.415
		H260.895z M220.111,121.046l3.377,0.649c-0.371,1.324-0.983,2.975-1.837,4.954l-1.28,2.876v24.993h-3.303V135.37
		c-0.928,1.336-1.726,2.375-2.394,3.117l-1.633-3.451C215.924,131.375,218.28,126.711,220.111,121.046z M160.495,167.629h24.399
		v13.415h-24.399V167.629z M107.132,167.907c1.942,1.707,3.618,3.594,5.028,5.659l-2.746,2.041
		c-1.361-2.028-2.994-3.865-4.898-5.511L107.132,167.907z M111.52,198.393c-0.811,1.323-1.853,1.985-3.126,1.985
		c-2.128,0-4.243-1.899-6.346-5.696c-2.128,1.584-4.472,3.006-7.032,4.268l-1.893-2.82c2.932-1.373,5.498-2.889,7.7-4.546
		c-0.619-2.388-1.045-6.24-1.28-11.56h-7.941v5.251c1.893-0.384,3.995-0.915,6.309-1.596l0.074,3.303
		c-2.289,0.668-4.416,1.2-6.383,1.596v8.424c0,0.965-0.198,1.683-0.594,2.152c-0.396,0.47-0.897,0.776-1.503,0.919
		c-0.606,0.142-1.695,0.213-3.266,0.213c-1.175,0-2.326-0.031-3.451-0.093l-1.188-3.6c1.707,0.074,3.104,0.111,4.193,0.111
		c1.163,0,1.843-0.052,2.041-0.157c0.198-0.105,0.297-0.331,0.297-0.678v-6.568c-2.722,0.52-5.214,0.896-7.478,1.132l-0.612-3.154
		c2.449-0.272,5.146-0.705,8.09-1.299v-5.956h-7.979v-3.229h7.979v-4.305c-1.707,0.26-3.859,0.501-6.457,0.724l-1.521-3.154
		c6.42-0.384,11.782-1.379,16.087-2.987l1.93,2.802c-2.4,0.854-4.589,1.484-6.568,1.893v5.028h7.904
		c-0.05-1.533-0.074-4.762-0.074-9.686h3.377c-0.037,3.291-0.037,6.52,0,9.686h10.372v3.229H102.92
		c0.086,3.154,0.315,6.117,0.687,8.888c1.756-2.017,3.34-4.483,4.75-7.403l2.969,1.484c-2.066,4.145-4.286,7.299-6.661,9.463
		c0.729,1.484,1.407,2.573,2.032,3.266c0.625,0.693,1.104,1.039,1.438,1.039c0.866,0,1.639-1.954,2.319-5.863l3.024,1.893
		C112.982,195.201,112.33,197.069,111.52,198.393z M122.421,200.155h-3.266v-25.271h3.266V200.155z M118.84,168.742l2.579-2.171
		c2.028,1.583,3.934,3.347,5.715,5.288l-2.598,2.189C122.928,172.193,121.029,170.425,118.84,168.742z M126.781,176.22h15.623
		v16.161h-15.623V176.22z M149.975,196.481c0,1.249-0.322,2.181-0.965,2.792c-0.644,0.613-1.868,0.919-3.674,0.919h-2.746
		l-1.132-3.266c3.018,0,4.645-0.05,4.88-0.148c0.235-0.099,0.353-0.327,0.353-0.687v-25.067h-18.239v-3.191h21.523V196.481z
		 M188.42,199.747c-2.4,0.037-4.422,0.056-6.067,0.056c-3.513,0-6.463-0.08-8.851-0.241c-2.388-0.161-4.401-0.64-6.04-1.438
		c-1.639-0.797-3.028-1.932-4.166-3.404c-1.868,2.672-3.637,4.602-5.307,5.789l-2.319-2.746c2.981-1.979,5.399-5.307,7.255-9.982
		l3.266,0.835c-0.371,1.052-0.829,2.128-1.373,3.229c1.299,1.93,3.47,3.334,6.513,4.212v-9.648h-15.252v-3.043h33.139v3.043h-14.436
		v3.451h12.432v3.006h-12.432v3.544c2.387,0.124,7.316,0.21,14.788,0.26L188.42,199.747z M225.474,191.49
		c-3.971-3.314-8.381-6.364-13.229-9.147v17.813h-3.563v-19.037c-4.008,4.156-8.356,7.589-13.044,10.298l-1.967-2.876
		c8.584-4.948,14.497-10.725,17.738-17.33H194.32v-3.34h32.322v3.34h-11.318c-0.755,1.608-1.781,3.408-3.08,5.399v1.855
		c7.211,4.156,12.277,7.576,15.196,10.261L225.474,191.49z M226.42,153.266c-0.73-0.661-1.095-1.672-1.095-3.033v-13.415
		l-2.932,0.909l-0.371-3.303l3.303-1.095v-8.517h3.303v7.403l4.75-1.559v-9.185h3.303v8.09l8.517-2.783
		c-0.198,5.802-0.897,11.324-2.097,16.569l-3.043-0.946c1.002-4.094,1.509-7.743,1.521-10.947l-4.898,1.559v14.677h-3.303v-13.526
		l-4.75,1.466v14.454c0,0.198,0.093,0.387,0.278,0.566s0.371,0.269,0.557,0.269h11.355c0.705,0,1.221-0.303,1.549-0.909
		c0.328-0.605,0.572-1.861,0.733-3.767l3.303,1.336c-0.272,2.598-0.82,4.36-1.642,5.288c-0.823,0.928-1.958,1.392-3.405,1.392
		h-12.079C228.102,154.259,227.149,153.928,226.42,153.266z M264.42,199.747c-2.4,0.037-4.422,0.056-6.067,0.056
		c-3.513,0-6.463-0.08-8.851-0.241c-2.388-0.161-4.401-0.64-6.04-1.438c-1.639-0.797-3.028-1.932-4.166-3.404
		c-1.868,2.672-3.637,4.602-5.307,5.789l-2.319-2.746c2.981-1.979,5.399-5.307,7.255-9.982l3.266,0.835
		c-0.371,1.052-0.829,2.128-1.373,3.229c1.299,1.93,3.47,3.334,6.513,4.212v-9.648h-15.252v-3.043h33.139v3.043h-14.436v3.451
		h12.432v3.006h-12.432v3.544c2.387,0.124,7.316,0.21,14.788,0.26L264.42,199.747z M266.331,128.115
		c-1.175-1.941-2.523-3.767-4.045-5.474l2.746-1.67c1.633,1.683,3,3.52,4.101,5.511L266.331,128.115z M270.116,37.063v-3.303h12.357
		c0.804-1.422,1.385-2.678,1.744-3.767l3.507,0.575c-0.322,0.965-0.767,2.029-1.336,3.191h16.792v3.303h-18.462
		c-0.495,1.002-1.157,2.091-1.985,3.266h17.831v20.373c0,0.841-0.226,1.49-0.677,1.948c-0.452,0.458-1.135,0.699-2.05,0.724
		c-0.916,0.024-1.818,0.037-2.709,0.037c-1.423,0-2.592-0.019-3.507-0.056l-1.466-3.377c1.608,0.074,3.667,0.111,6.179,0.111
		c0.532,0,0.798-0.291,0.798-0.872v-3.488h-16.94c-0.644,2.685-1.961,5.239-3.952,7.663l-3.229-1.818
		c2.733-2.993,4.101-5.795,4.101-8.405v-6.104c-1.683,1.757-3.34,3.161-4.973,4.212l-2.431-2.579
		c4.54-3.067,8.201-6.945,10.984-11.634H270.116z M270.228,126.019v-3.303h13.081v27.813c0,1.15-0.235,2.045-0.705,2.682
		c-0.47,0.637-1.027,1.061-1.67,1.271c-0.644,0.21-1.664,0.315-3.062,0.315c-1.373,0-2.74-0.025-4.101-0.074l-0.835-3.321
		c1.905,0.087,3.878,0.13,5.919,0.13c0.321,0,0.594-0.121,0.816-0.361c0.223-0.242,0.334-0.517,0.334-0.826v-24.325H270.228z
		 M301.52,198.393c-0.811,1.323-1.853,1.985-3.126,1.985c-2.128,0-4.243-1.899-6.346-5.696c-2.128,1.584-4.472,3.006-7.032,4.268
		l-1.893-2.82c2.932-1.373,5.498-2.889,7.7-4.546c-0.619-2.388-1.045-6.24-1.28-11.56h-7.941v5.251
		c1.893-0.384,3.995-0.915,6.309-1.596l0.074,3.303c-2.289,0.668-4.416,1.2-6.383,1.596v8.424c0,0.965-0.198,1.683-0.594,2.152
		c-0.396,0.47-0.897,0.776-1.503,0.919c-0.606,0.142-1.695,0.213-3.266,0.213c-1.175,0-2.326-0.031-3.451-0.093l-1.188-3.6
		c1.707,0.074,3.104,0.111,4.193,0.111c1.163,0,1.843-0.052,2.041-0.157c0.198-0.105,0.297-0.331,0.297-0.678v-6.568
		c-2.722,0.52-5.214,0.896-7.478,1.132l-0.612-3.154c2.449-0.272,5.146-0.705,8.09-1.299v-5.956h-7.979v-3.229h7.979v-4.305
		c-1.707,0.26-3.859,0.501-6.457,0.724l-1.521-3.154c6.42-0.384,11.782-1.379,16.087-2.987l1.93,2.802
		c-2.4,0.854-4.589,1.484-6.568,1.893v5.028h7.904c-0.05-1.533-0.074-4.762-0.074-9.686h3.377c-0.037,3.291-0.037,6.52,0,9.686
		h10.372v3.229H292.92c0.086,3.154,0.315,6.117,0.687,8.888c1.756-2.017,3.34-4.483,4.75-7.403l2.969,1.484
		c-2.066,4.145-4.286,7.299-6.661,9.463c0.729,1.484,1.407,2.573,2.032,3.266c0.625,0.693,1.104,1.039,1.438,1.039
		c0.866,0,1.639-1.954,2.319-5.863l3.024,1.893C302.982,195.201,302.33,197.069,301.52,198.393z M341.218,198.949h-24.047v1.317
		h-3.433v-14.77c-1.324,1.323-2.523,2.375-3.6,3.154l-2.319-2.783c3.995-2.944,7.149-6.327,9.463-10.149h-8.294v-3.266h10.149
		c0.717-1.397,1.503-3.284,2.356-5.659l3.34,0.872c-0.594,1.732-1.212,3.328-1.855,4.787h17.701v3.266h-19.445
		c-1.2,2.078-2.555,4.095-4.063,6.049v13.879h9.648v-8.869h-7.719v-3.229h7.719v-6.067h3.525v6.067h8.294v3.229h-8.294v8.869h10.873
		V198.949z M342.442,135.667c0.148,8.461-1.423,14.888-4.713,19.278l-2.319-2.394c1.088-1.546,1.988-3.54,2.7-5.983
		c0.711-2.443,1.067-6.102,1.067-10.976V123.94c6.778-0.334,12.753-1.156,17.924-2.468l2.06,2.876
		c-4.602,1.163-10.162,1.998-16.681,2.505v5.548h17.553v3.266h-7.459v6.012c2.672,1.36,5.158,2.765,7.459,4.212l-1.818,2.561
		c-1.447-0.891-3.328-1.954-5.641-3.191v9.574h-3.266v-11.096c-1.484-0.754-3.371-1.553-5.659-2.394l1.67-2.709
		c1.93,0.742,3.259,1.274,3.989,1.596v-4.564H342.442z M378.494,197.975c-0.495,0.848-1.117,1.379-1.865,1.596
		c-0.749,0.217-2.583,0.325-5.501,0.325c-4.367,0-6.971-0.046-7.812-0.14c-0.841-0.092-1.509-0.433-2.004-1.02
		c-0.495-0.588-0.742-1.568-0.742-2.941v-5.177h-13.007v-18.425h13.007v-5.325h3.377v5.325h12.729v18.425h-12.729v5.288
		c0,0.384,0.198,0.631,0.594,0.742c0.396,0.111,2.672,0.167,6.828,0.167c1.2,0,2.14-0.003,2.82-0.009
		c0.68-0.006,1.166-0.331,1.457-0.975c0.291-0.643,0.467-1.67,0.529-3.08l3.266,1.021
		C379.304,195.727,378.989,197.128,378.494,197.975z M378.123,150.529c2.932-1.373,5.498-2.889,7.7-4.546
		c-0.619-2.388-1.045-6.24-1.28-11.56h-7.941v5.251c1.893-0.384,3.995-0.915,6.309-1.596l0.074,3.303
		c-2.289,0.668-4.416,1.2-6.383,1.596v8.424c0,0.965-0.198,1.683-0.594,2.152c-0.396,0.47-0.897,0.776-1.503,0.919
		c-0.606,0.142-1.695,0.213-3.266,0.213c-1.175,0-2.326-0.031-3.451-0.093l-1.188-3.6c1.707,0.074,3.104,0.111,4.193,0.111
		c1.163,0,1.843-0.052,2.041-0.157c0.198-0.105,0.297-0.331,0.297-0.678v-6.568c-2.722,0.52-5.214,0.896-7.478,1.132l-0.612-3.154
		c2.449-0.272,5.146-0.705,8.09-1.299v-5.956h-7.979v-3.229h7.979v-4.305c-1.707,0.26-3.859,0.501-6.457,0.724l-1.521-3.154
		c6.42-0.384,11.782-1.379,16.087-2.987l1.93,2.802c-2.4,0.854-4.589,1.484-6.568,1.893v5.028h7.904
		c-0.05-1.533-0.074-4.762-0.074-9.686h3.377c-0.037,3.291-0.037,6.52,0,9.686h10.372v3.229H387.92
		c0.086,3.154,0.315,6.117,0.687,8.888c1.756-2.017,3.34-4.483,4.75-7.403l2.969,1.484c-2.066,4.145-4.286,7.299-6.661,9.463
		c0.729,1.484,1.407,2.573,2.032,3.266c0.625,0.693,1.104,1.039,1.438,1.039c0.866,0,1.639-1.954,2.319-5.863l3.024,1.893
		c-0.495,2.412-1.147,4.28-1.958,5.604c-0.811,1.323-1.853,1.985-3.126,1.985c-2.128,0-4.243-1.899-6.346-5.696
		c-2.128,1.584-4.472,3.006-7.032,4.268L378.123,150.529z M393.505,171.321l-2.932,1.299c-1.126-1.794-2.326-3.353-3.6-4.676
		l3.006-1.447C391.303,167.857,392.478,169.466,393.505,171.321z M392.707,185.497v14.584h-3.229v-13.025
		c-0.779,0.841-1.979,1.917-3.6,3.229l-1.948-2.82c3.896-2.622,6.927-6.296,9.092-11.021h-8.442v-3.229h11.782v3.229
		c-0.767,1.954-1.707,3.792-2.82,5.511c1.942,2.066,3.321,3.705,4.138,4.917l-2.227,2.542
		C394.748,188.188,393.833,186.883,392.707,185.497z M416.188,198.801c-0.711,0.692-2.217,1.039-4.518,1.039
		c-1.695,0-2.873-0.244-3.535-0.732c-0.662-0.489-0.993-1.401-0.993-2.737v-6.012c-1.534,4.082-4.657,7.403-9.37,9.964l-2.208-2.523
		c2.239-1.113,4.138-2.566,5.696-4.36s2.613-3.597,3.164-5.409c0.55-1.812,0.826-4.104,0.826-6.874v-8.201h3.154v9.426
		c0,1.991-0.18,3.792-0.538,5.399h2.505v8.016c0,0.619,0.532,0.928,1.596,0.928c0.866,0,1.422-0.182,1.67-0.547
		c0.247-0.365,0.476-1.723,0.687-4.073l3.247,1.299C417.36,196.309,416.899,198.108,416.188,198.801z M404.489,154.908l-1.447-3.191
		c5.69-0.086,10.799-1.138,15.326-3.154c-2.585-1.806-5.666-3.507-9.24-5.103c-1.262,0.891-2.641,1.757-4.138,2.598l-2.097-2.783
		c5.307-2.783,9.413-6.036,12.32-9.76h-10.149v-11.374h29.187v11.374h-18.239l2.394,1.317l-1.874,2.319h16.959v3.006
		c-3.476,4.589-7.505,8.099-12.088,10.53C416.819,153.117,411.181,154.524,404.489,154.908z M455.106,199.283h-33.139v-3.414h13.638
		v-28.853h3.544v11.411h14.324v3.34h-14.324v14.102h15.957V199.283z M457.5,130.917v23.713h-3.229v-26.849h8.053
		c0.099-1.769,0.148-3.859,0.148-6.271h3.154c0.049,2.536,0.012,4.627-0.111,6.271h7.645v23.472c0,1.101-0.338,1.951-1.012,2.552
		c-0.674,0.6-2.02,0.899-4.035,0.899c-0.606,0-1.243-0.024-1.911-0.074l-0.909-3.154c0.457,0.037,0.922,0.056,1.392,0.056
		c1.583,0,2.521-0.09,2.812-0.27c0.29-0.179,0.436-0.473,0.436-0.881v-19.464h-4.564c-0.05,1.188-0.148,2.065-0.297,2.635
		c1.707,3.353,3.186,7.088,4.435,11.207l-2.579,2.208c-0.854-3.426-1.844-6.432-2.969-9.018c-0.866,3.303-2.121,6.309-3.767,9.018
		l-2.264-2.356c2.288-3.538,3.704-8.103,4.249-13.693H457.5z M492.995,180.821h-19.39l-1.429,2.134h16.792v17.312h-3.433v-1.744
		H471.49v1.744h-3.47v-12.228c-2.189,2.227-4.101,3.922-5.733,5.084l-2.356-2.579c3.785-2.598,7.051-5.839,9.797-9.723h-9.259
		v-2.616h10.854c0.384-0.68,0.755-1.404,1.113-2.171h-10.521v-2.542h11.689l0.761-2.097c-5.529,0.148-9.203,0.235-11.021,0.26
		l-1.28-2.95c1.596,0.037,3.148,0.056,4.657,0.056c8.251,0,15.703-0.631,22.358-1.893l2.097,2.598
		c-3.39,0.705-7.774,1.262-13.155,1.67c-0.074,0.31-0.365,1.095-0.872,2.356h14.473v2.542h-15.456
		c-0.396,0.816-0.779,1.54-1.15,2.171h17.979V180.821z M497.393,151.364c0,0.779-0.244,1.515-0.732,2.208
		c-0.489,0.692-1.445,1.045-2.867,1.058l-5.659-0.037l-1.373-3.414c2.041,0.074,4.106,0.111,6.197,0.111
		c0.681,0,1.021-0.364,1.021-1.095v-18.351h3.414V151.364z M517.228,185.683v3.303h-6.828v5.789c2.091-0.247,4.62-0.798,7.589-1.651
		v3.247c-4.219,1.175-10.626,2.338-19.223,3.488l-0.946-3.229c2.771-0.235,5.819-0.631,9.147-1.188v-6.457h-7.589v-3.303h7.589
		v-4.453c-3.143,0.408-5.598,0.692-7.366,0.854l-0.946-3.154c2.672-1.769,4.849-4.317,6.531-7.645h-6.791v-3.303h19.761v3.303
		h-8.943c-1.509,2.672-3.371,5.041-5.585,7.106c2.832-0.247,5.863-0.643,9.092-1.188c-0.508-0.878-1.354-2.016-2.542-3.414
		l2.913-1.633c2.771,3.241,4.725,6.266,5.863,9.073l-2.783,1.763c-0.854-1.67-1.386-2.659-1.596-2.969
		c-1.336,0.223-2.728,0.439-4.175,0.649v5.01H517.228z M530.309,197.242c0,0.816-0.26,1.509-0.779,2.078
		c-0.52,0.568-1.126,0.878-1.818,0.928c-0.693,0.049-1.627,0.074-2.802,0.074c-0.729,0-1.707-0.019-2.932-0.056l-0.983-3.414
		c1.323,0.087,2.486,0.13,3.488,0.13c1.162,0,1.855-0.047,2.078-0.139c0.223-0.094,0.334-0.264,0.334-0.511v-29.261h3.414V197.242z
		 M519.899,193.364v-23.639h3.34v23.639H519.899z M528.824,153.888c-2.833,0.532-5.808,0.81-8.925,0.835l-1.373-3.154
		c6.271,0.148,11.794-0.804,16.569-2.857c-1.139-1.41-2.9-3.006-5.288-4.787c-2.733,1.349-5.381,2.375-7.941,3.08l-2.115-2.709
		c7.125-1.867,13.112-5.207,17.961-10.02l3.229,1.169c-0.569,0.692-1.237,1.404-2.004,2.134h10.947v3.043
		c0,0.396-0.758,1.488-2.272,3.275c-1.516,1.787-3.168,3.293-4.955,4.518s-3.831,2.311-6.132,3.256
		C534.224,152.617,531.656,153.355,528.824,153.888z M550.44,199.896h-3.266v-2.505h-6.865v2.876h-3.358V172.62h3.396
		c0.952-1.757,1.694-3.687,2.227-5.789l3.507,0.575c-0.186,1.2-0.779,2.938-1.781,5.214h6.142V199.896z M568.42,186.953
		c-0.235,5.796-0.582,9.213-1.039,10.252c-0.458,1.039-1.154,1.803-2.088,2.291s-3.207,0.746-6.818,0.771l-1.262-3.34l5.084-0.037
		c0.482,0,0.996-0.204,1.54-0.612s0.952-3.16,1.225-8.257s0.401-9.067,0.39-11.912h-7.626c-1.188,3.019-2.53,5.591-4.026,7.719
		l-2.598-2.319c2.721-4.403,4.639-9.32,5.752-14.751l3.34,0.724c-0.248,1.287-0.693,3.062-1.336,5.325h9.853
		C568.785,176.442,568.654,181.158,568.42,186.953z M555.079,183.512l2.969-1.855c2.523,3.154,4.273,5.863,5.251,8.127l-2.969,1.911
		C558.697,188.429,556.947,185.701,555.079,183.512z M590.008,186.211c-0.277,6.848-0.547,10.691-0.807,11.532
		s-0.776,1.462-1.549,1.864c-0.773,0.402-2.546,0.548-5.316,0.437l-0.872-3.266c0.668,0.074,1.386,0.111,2.152,0.111
		c1.249,0,2.028-0.117,2.338-0.353c0.31-0.234,0.544-2.993,0.705-8.275h-4.676c-0.718,4.577-2.653,8.635-5.808,12.172l-2.431-2.171
		c2.833-3.464,4.503-6.797,5.01-10.001h-3.952v-3.154h4.379c0.26-2.127,0.358-4.002,0.297-5.622h-4.639v-3.229h4.713
		c0.037-1.769,0.037-3.618,0-5.548h-5.047v-3.154h15.809C590.389,173.146,590.287,179.365,590.008,186.211z M589.368,44.745
		l3.024-1.447c2.561,3.983,4.323,7.478,5.288,10.483l-3.006,1.373C593.611,51.703,591.842,48.233,589.368,44.745z M597.347,60.387
		c1.41,0,2.229-0.059,2.458-0.176c0.229-0.117,0.344-0.318,0.344-0.603V40.57h-12.766v-3.08h12.766v-7.032h3.303v7.032h3.841v3.08
		h-3.841v19.761c0,0.953-0.315,1.722-0.946,2.31c-0.631,0.587-1.441,0.881-2.431,0.881c-2.969,0-5.022-0.031-6.16-0.093
		l-1.021-3.229C594.539,60.325,596.023,60.387,597.347,60.387z M606.123,193.818c-0.606,0.91-1.317,1.479-2.134,1.707
		c-0.816,0.229-2.462,0.344-4.936,0.344l-0.872-3.229c2.535,0.1,4.072-0.016,4.611-0.344c0.537-0.327,0.807-1.004,0.807-2.031
		c0-3.03-1.379-6.092-4.138-9.185c1.509-3.353,2.752-6.76,3.729-10.224h-6.457v29.187h-3.377v-32.415h13.285v3.229
		c-0.879,2.783-2.017,6.104-3.414,9.964c2.535,3.142,3.804,6.179,3.804,9.11C607.032,191.614,606.729,192.91,606.123,193.818z
		 M630.467,200.267h-3.525v-23.063h3.525V200.267z M643.771,184.198c-6.321-3.229-11.313-7.435-14.974-12.617
		c-3.822,4.774-8.925,8.943-15.308,12.506l-1.818-2.932c7.435-3.946,12.89-8.758,16.365-14.436l3.154,1.188
		c-0.087,0.223-0.235,0.514-0.445,0.872c3.538,5.06,8.491,9.24,14.862,12.543L643.771,184.198z M630.931,150.956
		c3.327-2.696,6.383-6.383,9.166-11.059l3.08,1.744c-3.353,5.294-6.624,9.185-9.815,11.671L630.931,150.956z M649.355,154.63h-3.563
		v-17.089h-14.324v-3.303h14.324v-12.654h3.563v12.654h14.491v3.303h-14.491V154.63z M681.251,179.114h-18.239l2.394,1.317
		l-1.874,2.319h16.959v3.006c-3.477,4.589-7.506,8.099-12.088,10.53c-4.584,2.43-10.221,3.837-16.913,4.221l-1.447-3.191
		c5.69-0.086,10.799-1.138,15.326-3.154c-2.585-1.806-5.665-3.507-9.24-5.103c-1.262,0.891-2.642,1.757-4.138,2.598l-2.097-2.783
		c5.307-2.783,9.413-6.036,12.32-9.76h-10.149V167.74h29.187V179.114z M684.684,144.87l-1.15-0.891
		c0.47-0.681,0.798-1.243,0.983-1.688c-1.026-0.408-1.54-1.199-1.54-2.375c0-0.692,0.263-1.262,0.789-1.707
		c0.525-0.445,1.104-0.668,1.734-0.668c0.717,0,1.305,0.26,1.763,0.779s0.687,1.163,0.687,1.93
		C687.949,141.673,686.86,143.213,684.684,144.87z M688.766,199.599l-0.946-3.08c4.058-1.063,7.984-2.462,11.782-4.193l0.946,2.969
		C696.479,197.174,692.551,198.609,688.766,199.599z M720.16,196.853c0,1.101-0.338,1.951-1.012,2.552
		c-0.674,0.6-2.02,0.899-4.035,0.899c-0.606,0-1.243-0.024-1.911-0.074l-0.909-3.154c0.457,0.037,0.922,0.056,1.392,0.056
		c1.583,0,2.521-0.09,2.812-0.27c0.29-0.179,0.436-0.473,0.436-0.881v-19.464h-4.564c-0.05,1.188-0.148,2.065-0.297,2.635
		c1.707,3.353,3.186,7.088,4.435,11.207l-2.579,2.208c-0.854-3.426-1.844-6.432-2.969-9.018c-0.866,3.303-2.121,6.309-3.767,9.018
		l-2.264-2.356c2.288-3.538,3.704-8.103,4.249-13.693H704.5v23.713h-3.229v-26.849h8.053c0.099-1.769,0.148-3.859,0.148-6.271h3.154
		c0.049,2.536,0.012,4.627-0.111,6.271h7.645V196.853z M734.893,166.608l3.507,0.835c-0.742,1.584-1.633,3.204-2.672,4.861h23.268
		c-0.681,3.662-1.62,6.804-2.82,9.426l-3.266-0.983c0.866-1.905,1.503-3.643,1.911-5.214h-21.097
		c-2.276,3.266-4.403,5.684-6.383,7.255l-1.818-2.913C728.899,176.857,732.022,172.435,734.893,166.608z M725.597,195.517
		c3.056-2.969,5.993-7.576,8.813-13.823l2.969,1.67c-2.783,6.197-5.9,11.077-9.352,14.64L725.597,195.517z M744.393,196.964
		c0,0.779-0.244,1.515-0.732,2.208c-0.489,0.692-1.445,1.045-2.867,1.058l-5.659-0.037l-1.373-3.414
		c2.041,0.074,4.106,0.111,6.197,0.111c0.681,0,1.021-0.364,1.021-1.095v-18.351h3.414V196.964z M756.175,197.966
		c-1.905-4.737-4.589-9.593-8.053-14.565l2.932-1.67c3.414,4.763,6.147,9.611,8.201,14.547L756.175,197.966z M772.336,174.81
		c-2.338,1.249-4.293,2.165-5.863,2.746l-2.004-2.542c5.405-2.14,9.809-4.904,13.211-8.294l3.191,1.225
		c-0.396,0.495-0.953,1.076-1.67,1.744h13.415v2.969c-6.16,6.481-15.128,10.86-26.904,13.137l-1.596-3.006
		c5.653-0.903,10.137-2.065,13.452-3.488C776.455,177.977,774.711,176.479,772.336,174.81z M796.884,186.221
		c0,0.396-0.758,1.488-2.272,3.275c-1.516,1.787-3.168,3.293-4.955,4.518s-3.831,2.311-6.132,3.256
		c-2.301,0.947-4.868,1.686-7.7,2.218c-2.833,0.532-5.808,0.81-8.925,0.835l-1.373-3.154c6.271,0.148,11.794-0.804,16.569-2.857
		c-1.139-1.41-2.9-3.006-5.288-4.787c-2.733,1.349-5.381,2.375-7.941,3.08l-2.115-2.709c7.125-1.867,13.112-5.207,17.961-10.02
		l3.229,1.169c-0.569,0.692-1.237,1.404-2.004,2.134h10.947V186.221z M821.599,186.833c-0.854,0.829-1.843,1.243-2.969,1.243
		c-1.089,0-2.065-0.411-2.932-1.234c-0.866-0.822-1.299-1.852-1.299-3.089c0-1.175,0.417-2.167,1.253-2.978
		c0.834-0.811,1.84-1.216,3.015-1.216c1.163,0,2.155,0.415,2.978,1.243c0.822,0.829,1.234,1.813,1.234,2.95
		C822.879,184.978,822.452,186.004,821.599,186.833z"/>
	<rect x="540.31" y="186.146" fill="#FFFFFF" width="6.865" height="7.979"/>
</g>
</svg>
