<?xml version="1.0" encoding="utf-8"?>
<!-- Generator: Adobe Illustrator 16.0.0, SVG Export Plug-In . SVG Version: 6.00 Build 0)  -->
<!DOCTYPE svg PUBLIC "-//W3C//DTD SVG 1.1//EN" "http://www.w3.org/Graphics/SVG/1.1/DTD/svg11.dtd">
<svg version="1.1" id="Layer_1" xmlns="http://www.w3.org/2000/svg" xmlns:xlink="http://www.w3.org/1999/xlink" x="0px" y="0px"
	 width="900px" height="230px" viewBox="0 0 900 230" enable-background="new 0 0 900 230" xml:space="preserve">
<text transform="matrix(1 0 0 1 13.002 323)" font-family="'HelveticaNeueLTPro-Blk'" font-size="40">Helvetica - 95Black - 40pt</text>
<text transform="matrix(1 0 0 1 258.3252 -452)" fill="#FFFFFF" font-family="'HelveticaNeueLTPro-Blk'" font-size="40">I did very well with the second-team. I got </text>
<text transform="matrix(1 0 0 1 260.604 -404)" fill="#FFFFFF" font-family="'HelveticaNeueLTPro-Blk'" font-size="40">my chance with the first team when there </text>
<text transform="matrix(1 0 0 1 312.0664 -356)" fill="#FFFFFF" font-family="'HelveticaNeueLTPro-Blk'" font-size="40">were some injuries to strikers on the </text>
<text transform="matrix(1 0 0 1 281.0054 -308)" fill="#FFFFFF" font-family="'HelveticaNeueLTPro-Blk'" font-size="40">first-team and the club wasn’t willing to </text>
<text transform="matrix(1 0 0 1 448.7632 -260)" fill="#FFFFFF" font-family="'HelveticaNeueLTPro-Blk'" font-size="40">spend on more strikers. </text>
<text transform="matrix(1 0 0 1 47.5 -159.5)" font-family="'MicrosoftJhengHeiUIRegular'" font-size="12">我在第二队里踢得不错。当有第一队前锋受伤了，而俱乐部不希望花费引进前锋，我就有了进入第一队的机会</text>
<g>
	<rect x="337.119" y="40.001" fill="#FFFFFF" width="9.166" height="2.282"/>
	<polygon fill="#FFFFFF" points="324.242,93.079 333.705,93.079 333.705,90.833 324.743,90.833 	"/>
	<polygon fill="#FFFFFF" points="333.705,45.233 324.743,45.233 324.242,47.479 333.705,47.479 	"/>
	<rect x="305.427" y="140.627" fill="#FFFFFF" width="8.554" height="5.696"/>
	<path fill="#FFFFFF" d="M308.359,131.925h2.932c1.422-2.857,2.356-5.151,2.802-6.884h-8.424
		C306.745,127.28,307.641,129.574,308.359,131.925z"/>
	<rect x="439.002" y="31.299" fill="#FFFFFF" width="8.739" height="4.026"/>
	<path fill="#FFFFFF" d="M432.879,126.859c1.002,0.903,2.22,2.146,3.655,3.729c0.891-0.594,1.589-1.126,2.097-1.596
		c-2.004-1.312-3.692-2.264-5.065-2.857C433.442,126.383,433.213,126.625,432.879,126.859z"/>
	<path fill="#FFFFFF" d="M392.634,137.231v-3.525h-3.414c-1.113,1.583-2.035,2.759-2.765,3.525H392.634z"/>
	<path fill="#FFFFFF" d="M435.588,123.779c1.893,1.039,3.661,2.078,5.307,3.117c0.903-0.989,1.664-2.041,2.282-3.154h-7.552
		L435.588,123.779z"/>
	<rect x="310.344" y="177.357" fill="#FFFFFF" width="16.551" height="3.006"/>
	<rect x="266.629" y="175.966" fill="#FFFFFF" width="7.867" height="4.026"/>
	<rect x="239.001" y="138.271" fill="#FFFFFF" width="11.485" height="2.69"/>
	<rect x="310.344" y="183.443" fill="#FFFFFF" width="16.551" height="2.969"/>
	<rect x="291.344" y="86.158" fill="#FFFFFF" width="16.551" height="3.006"/>
	<rect x="439.002" y="38.275" fill="#FFFFFF" width="8.739" height="4.23"/>
	<rect x="337.119" y="85.601" fill="#FFFFFF" width="9.166" height="2.282"/>
	<rect x="239.001" y="132.667" fill="#FFFFFF" width="11.485" height="2.969"/>
	<rect x="239.001" y="121.738" fill="#FFFFFF" width="11.485" height="2.69"/>
	<rect x="291.344" y="92.244" fill="#FFFFFF" width="16.551" height="2.969"/>
	<rect x="239.001" y="127.175" fill="#FFFFFF" width="11.485" height="2.802"/>
	<path fill="#FFFFFF" d="M399.982,172.719h-5.325c0,2.351-0.037,4.23-0.111,5.641h5.437V172.719z"/>
	<rect x="604.992" y="34.026" fill="#FFFFFF" width="5.623" height="3.952"/>
	<rect x="451.082" y="38.275" fill="#FFFFFF" width="8.85" height="4.23"/>
	<rect x="602.971" y="46.532" fill="#FFFFFF" width="9.537" height="3.08"/>
	<rect x="524.039" y="35.047" fill="#FFFFFF" width="12.246" height="1.67"/>
	<rect x="524.039" y="30.687" fill="#FFFFFF" width="12.246" height="1.633"/>
	<path fill="#FFFFFF" d="M589.982,127.119h-5.326c0,2.351-0.037,4.23-0.111,5.641h5.438V127.119z"/>
	<path fill="#FFFFFF" d="M664.387,127.119c1.805-1.162,3.271-2.313,4.396-3.451h-8.275
		C661.894,125.178,663.186,126.328,664.387,127.119z"/>
	<path fill="#FFFFFF" d="M639.561,46.235c0.568,0,1.054-0.229,1.456-0.687c0.401-0.458,0.603-0.971,0.603-1.54
		c0-0.569-0.197-1.079-0.594-1.531c-0.396-0.451-0.934-0.677-1.613-0.677c-0.645,0-1.17,0.22-1.578,0.659
		c-0.408,0.439-0.611,0.95-0.611,1.531c0,0.606,0.213,1.132,0.64,1.577S638.855,46.235,639.561,46.235z"/>
	<rect x="610.262" y="137.269" fill="#FFFFFF" width="6.922" height="3.229"/>
	<rect x="610.262" y="131.201" fill="#FFFFFF" width="6.922" height="3.117"/>
	<rect x="602.971" y="52.451" fill="#FFFFFF" width="9.537" height="3.154"/>
	<rect x="488.971" y="35.771" fill="#FFFFFF" width="9.537" height="2.171"/>
	<path fill="#FFFFFF" d="M495.205,128.604h4.898c0.148-0.643,0.253-1.188,0.314-1.633h-4.713L495.205,128.604z"/>
	<rect x="488.971" y="30.946" fill="#FFFFFF" width="9.537" height="2.208"/>
	<rect x="451.082" y="31.299" fill="#FFFFFF" width="8.85" height="4.026"/>
	<rect x="475.184" y="31.225" fill="#FFFFFF" width="4.064" height="4.898"/>
	<rect x="503.609" y="122.907" fill="#FFFFFF" width="5.381" height="1.596"/>
	<path fill="#FFFFFF" d="M503.295,128.604h5.695v-1.633h-5.418C503.523,127.651,503.43,128.195,503.295,128.604z"/>
	<rect x="512.182" y="122.907" fill="#FFFFFF" width="5.104" height="1.559"/>
	<path fill="#FFFFFF" d="M489.508,78.068c1.386,1.509,2.678,2.66,3.879,3.451c1.805-1.163,3.271-2.313,4.396-3.451H489.508z"/>
	<polygon fill="#FFFFFF" points="457.242,184.278 466.705,184.278 466.705,182.033 457.742,182.033 	"/>
	<rect x="470.119" y="176.801" fill="#FFFFFF" width="9.166" height="2.282"/>
	<rect x="570.072" y="183.146" fill="#FFFFFF" width="6.865" height="7.979"/>
	<rect x="570.072" y="172.923" fill="#FFFFFF" width="6.865" height="7.032"/>
	<path fill="#FFFFFF" d="M531.424,93.042h-10.873c1.322,1.905,3.018,3.464,5.084,4.676
		C527.947,96.344,529.877,94.786,531.424,93.042z"/>
	<path fill="#FFFFFF" d="M-5.5-4.5v240h912v-240H-5.5z M661.381,118.12l3.08,1.058c-0.248,0.471-0.645,1.002-1.188,1.596h9.537
		v2.895c-1.584,1.942-3.391,3.655-5.418,5.14c1.471,0.816,4.051,1.559,7.736,2.227l-1.447,2.82
		c-3.563-0.705-6.637-1.781-9.221-3.229c-2.129,1.052-5.209,2.078-9.24,3.08l-1.41-2.932c2.82-0.532,5.367-1.243,7.645-2.134
		c-1.758-1.694-2.809-2.733-3.154-3.117c-0.73,0.569-1.417,1.039-2.061,1.41l-1.967-2.394
		C656.958,122.981,659.326,120.842,661.381,118.12z M654.607,147.307v-2.969h8.035v-1.967h-7.107v-2.746h7.107v-1.893h-7.793v-2.969
		h7.793v-2.356h3.191v2.356h7.979v2.969h-7.979v1.893h7.014v2.746h-7.014v1.967h8.646v2.969h-8.646v4.323h-3.191v-4.323H654.607z
		 M636.415,40.975c0.835-0.81,1.84-1.215,3.015-1.215c1.163,0,2.156,0.415,2.979,1.243c0.822,0.829,1.234,1.813,1.234,2.95
		c0,1.225-0.428,2.251-1.281,3.08c-0.854,0.829-1.843,1.243-2.969,1.243c-1.088,0-2.065-0.411-2.932-1.234
		c-0.865-0.822-1.299-1.852-1.299-3.089C635.162,42.778,635.58,41.786,636.415,40.975z M630.412,148.067
		c0.174,0,0.338-0.099,0.492-0.297s0.232-0.401,0.232-0.612v-19.315h3.229v19.612c0,1.584-0.365,2.638-1.096,3.164
		c-0.729,0.525-2.084,0.788-4.063,0.788c-0.779,0-1.609-0.024-2.486-0.074l-1.059-3.266H630.412z M624.141,145.099v-16.421h3.303
		v16.421H624.141z M603.99,125.765v-3.154h33.064v3.154H603.99z M609.891,143.392c-0.568,3.488-1.707,6.21-3.414,8.164l-2.783-1.781
		c2.252-2.264,3.377-6.228,3.377-11.894v-9.723h13.23v19.724c0,0.978-0.208,1.723-0.622,2.235c-0.415,0.514-0.915,0.854-1.503,1.021
		c-0.588,0.166-1.623,0.25-3.107,0.25c-0.742,0-1.404-0.019-1.986-0.056l-1.188-3.266c0.545,0.062,1.133,0.093,1.764,0.093
		c1.447,0,2.396-0.049,2.848-0.148c0.451-0.099,0.678-0.358,0.678-0.779v-3.841H609.891z M627.871,117.86l3.525,1.707
		c-2.041,1.212-3.842,2.072-5.4,2.579l-3.488-1.596C624.487,119.71,626.275,118.813,627.871,117.86z M614.641,122.146
		c-1.509-0.891-3.357-1.738-5.547-2.542l3.525-1.707c2.053,0.705,3.89,1.59,5.51,2.653L614.641,122.146z M597.533,37.979h4.102
		v-3.952h-3.063v-2.969h3.063v-3.785h3.357v3.785h5.623v-3.785h3.303v3.785h3.117v2.969h-3.117v3.952h4.063v3.006h-20.447V37.979z
		 M602.971,58.574v1.855h-3.377v-16.94h16.254v16.94h-3.34v-1.855H602.971z M588.943,26.92l3.32,0.687
		c-0.321,1.583-0.6,2.771-0.834,3.563h5.955v3.08h-6.883c-0.445,1.299-0.897,2.456-1.355,3.47h7.107v3.08h-3.117v4.212h4.359v3.117
		h-4.359v7.069c1.582-0.903,2.807-1.651,3.674-2.245l1.002,2.932c-2.227,1.67-4.701,3.123-7.422,4.36l-1.447-2.913
		c0.568-0.346,0.854-0.884,0.854-1.614v-7.589h-4.807v-3.117h4.807v-4.212h-2.098c-0.309,0.582-0.611,1.089-0.908,1.521
		l-2.357-2.561C586.71,35.802,588.213,31.521,588.943,26.92z M581.354,118.547h3.303v5.511h5.326v-5.511h3.34v5.511h4.861v3.062
		h-4.861v5.641h5.547v3.154h-5.547v10.743h-3.34v-10.743h-5.789c-0.631,4.07-2.555,7.472-5.771,10.205l-2.467-2.152
		c2.746-2.288,4.365-4.973,4.861-8.053h-5.4v-3.154h5.752c0.161-2.189,0.223-4.069,0.186-5.641h-5.064v-3.062h5.064V118.547z
		 M579.758,76.361v3.117h-18.275c-1.781,2.87-3.508,5.06-5.178,6.568l-2.467-2.505c2.98-2.449,5.424-6.147,7.328-11.096l3.229,0.946
		c-0.111,0.334-0.514,1.324-1.205,2.969H579.758z M547.084,31.41v-3.34h32.322v3.34h-11.318c-0.756,1.608-1.781,3.408-3.08,5.399
		v1.855c7.211,4.156,12.276,7.577,15.195,10.261l-1.967,2.765c-3.971-3.315-8.381-6.364-13.229-9.147v17.813h-3.563V41.318
		c-4.008,4.156-8.356,7.589-13.045,10.298l-1.967-2.876c8.585-4.948,14.498-10.725,17.738-17.33H547.084z M551.945,72.297
		l3.229,0.946c-0.285,1.175-0.693,2.629-1.225,4.36l-0.799,2.486v25.865h-3.229V88.032c-0.334,0.668-0.902,1.651-1.707,2.95
		l-1.984-3.303C548.543,84.03,550.447,78.903,551.945,72.297z M529.104,138.493l1.781-11.244h13.305v-5.177h-15.475v-3.006h18.814
		v11.263h-13.75l-0.834,5.27h14.621c-0.26,3.488-0.545,6.38-0.854,8.675c-0.311,2.295-0.635,3.77-0.975,4.425
		s-0.872,1.23-1.596,1.726c-0.724,0.494-1.436,0.816-2.134,0.965c-0.699,0.148-2.546,0.223-5.538,0.223
		c-1.832,0-3.377-0.031-4.639-0.093l-1.207-3.414c5.852,0.173,8.9,0.26,9.148,0.26c1.521,0,2.508-0.563,2.959-1.688
		c0.451-1.125,0.85-3.854,1.197-8.183H529.104z M542.055,46.829v3.043h-4.396v6.958c0,2.313-1.535,3.47-4.602,3.47
		c-0.816,0-1.689-0.031-2.617-0.093l-0.965-3.08c1.076,0.062,2.004,0.093,2.783,0.093c0.903,0,1.49-0.105,1.764-0.315
		c0.271-0.21,0.408-0.538,0.408-0.983v-6.049h-16.014v-3.043h16.014v-2.245h-15.178v-2.987h21.857v2.987h-3.451v2.245H542.055z
		 M513.295,87.234v5.437h-3.377v-8.628h31.266v8.498h-3.414v-5.307H513.295z M538.252,72.557l1.521,2.932
		c-7.176,1.312-14.678,1.967-22.508,1.967c-1.806,0-3.611-0.037-5.418-0.111l-0.945-3.229c2.324,0.124,4.632,0.186,6.92,0.186
		C524.923,74.301,531.732,73.72,538.252,72.557z M521.385,52.655l2.172-2.319c1.633,0.878,3.494,2.369,5.584,4.472l-2.393,2.356
		C524.83,55.16,523.043,53.657,521.385,52.655z M538.566,78.068c-0.865,1.72-2.059,3.52-3.58,5.399l-3.377-1.299
		c1.434-1.744,2.665-3.544,3.691-5.399L538.566,78.068z M528.158,82.558l-3.396,0.909c-0.581-1.608-1.428-3.167-2.541-4.676
		l3.377-0.946C526.822,79.664,527.676,81.235,528.158,82.558z M518.77,82.521l-3.471,1.021c-0.605-1.237-1.59-2.666-2.949-4.286
		l3.377-1.188C517.148,79.763,518.162,81.247,518.77,82.521z M520.699,27.792h18.852v11.894h-18.852V27.792z M516.857,41.059v19.26
		h-3.377v-14.77c-1.323,1.324-2.362,2.27-3.117,2.839l-1.633-3.08c2.697-2.14,5.418-5.597,8.164-10.372l2.783,1.336
		C518.85,37.966,517.909,39.562,516.857,41.059z M516.598,26.994l2.783,1.744c-2.969,3.884-6.023,6.748-9.166,8.591l-1.67-3.006
		C511.031,33.024,513.716,30.582,516.598,26.994z M520.365,120.439v6.531h-8.184v1.633h10.225c-0.063,2.61-0.474,4.326-1.234,5.148
		c-0.761,0.823-2.088,1.234-3.98,1.234c-0.507,0-1.082-0.024-1.725-0.074l-0.965-2.505c0.42,0.037,0.958,0.056,1.613,0.056
		c1.361,0,2.187-0.114,2.478-0.344c0.29-0.229,0.399-0.59,0.325-1.085h-6.736v3.915h-3.191v-3.915h-6.42
		c-1.125,2.091-3.303,3.729-6.531,4.917h22.377v9.908h-3.266v-7.181h-17.33v7.181h-3.266v-9.537
		c-1.249,0.359-2.362,0.588-3.34,0.687l-1.41-2.783c4.516-0.631,7.509-1.694,8.98-3.191h-7.645l1.744-6.531h7.645v-1.596h-9.092
		v-2.468h9.092v-2.022h3.08v2.022h5.381v-2.022h3.191v2.022H520.365z M484.535,96.771v-2.746h7.107v-1.893h-7.793v-2.969h7.793
		v-2.356h3.191v2.356h7.979v2.969h-7.979v1.893h7.014v2.746h-7.014v1.967h8.646v2.969h-8.646v4.323h-3.191v-4.323h-8.035v-2.969
		h8.035v-1.967H484.535z M502.682,88.254c-3.563-0.705-6.637-1.781-9.221-3.229c-2.129,1.052-5.209,2.078-9.24,3.08l-1.41-2.932
		c2.82-0.532,5.367-1.243,7.645-2.134c-1.758-1.694-2.809-2.733-3.154-3.117c-0.73,0.569-1.417,1.039-2.061,1.41l-1.967-2.394
		c2.685-1.559,5.053-3.698,7.107-6.42l3.08,1.058c-0.248,0.47-0.645,1.002-1.188,1.596h9.537v2.895
		c-1.584,1.942-3.391,3.655-5.418,5.14c1.471,0.816,4.051,1.559,7.736,2.227L502.682,88.254z M471.084,93.765v-3.117h3.637v-4.249
		h-1.096c-0.531,0.903-0.811,1.367-0.834,1.392l-2.283-2.542c1.732-3.414,3.1-7.694,4.102-12.84l3.08,0.724
		c-0.074,0.52-0.328,1.732-0.762,3.637h5.92v3.043h-6.68c-0.496,1.546-0.916,2.703-1.262,3.47h6.846v3.117h-3.803v4.249h4.787v3.117
		h-4.787v7.255c1.916-1.101,3.234-1.898,3.951-2.394l0.984,3.08c-3.168,1.967-5.561,3.296-7.182,3.989l-1.354-2.69
		c0.246-0.408,0.371-0.854,0.371-1.336v-7.904H471.084z M485.631,40.836V28.107h16.309v12.729h-9.5
		c-0.358,0.693-0.816,1.423-1.373,2.189h12.377c-0.025,3.117-0.127,6.185-0.307,9.203c-0.18,3.019-0.381,4.889-0.604,5.613
		s-0.578,1.283-1.066,1.679c-0.488,0.396-1.029,0.64-1.623,0.733s-1.887,0.139-3.879,0.139l-1.02-3.024
		c0.543,0.025,1.1,0.037,1.67,0.037c1.719,0,2.656-0.164,2.811-0.492c0.154-0.328,0.324-1.846,0.51-4.555s0.266-4.843,0.242-6.401
		h-0.873c-1.472,6.136-5.294,10.849-11.467,14.139l-2.096-2.431c5.9-3.055,9.369-6.958,10.408-11.708h-1.744
		c-1.843,3.724-4.793,6.649-8.85,8.776l-1.875-2.468c3.501-1.781,5.938-3.884,7.311-6.309h-2.504
		c-1.373,1.188-2.518,2.091-3.434,2.709l-1.893-2.486c2.523-1.583,4.436-3.364,5.734-5.344H485.631z M476.502,55.049V39.277h-4.547
		V28.07h10.521v11.207h-2.783v4.861h2.635v3.154h-2.635v6.383c1.014-0.346,2.146-0.816,3.395-1.41l0.334,3.266
		c-3.352,1.571-7.379,3.129-12.078,4.676l-0.91-3.117c0.755-0.21,1.312-0.383,1.67-0.52v-14.64h2.877v13.601
		C475.486,55.42,475.994,55.259,476.502,55.049z M469.283,122.184h4.379v-3.711h3.377v3.711h7.979v3.191h-7.979v2.82h-3.377v-2.82
		h-4.379V122.184z M453.902,142.742l-2.283-2.394c4.045-3.204,7.249-6.977,9.611-11.318l3.006,0.909
		c-0.68,1.521-1.607,3.093-2.783,4.713v16.903h-3.34v-12.729C456.406,140.596,455.002,141.901,453.902,142.742z M463.291,125.375
		v2.783h-3.396v-2.783h-8.016v-3.191h8.016v-3.711h3.396v3.711h4.285v3.191H463.291z M456.443,99.499h-3.303V83.078h3.303V99.499z
		 M459.412,102.467c0.174,0,0.338-0.099,0.492-0.297c0.154-0.198,0.232-0.402,0.232-0.612V82.243h3.229v19.612
		c0,1.583-0.365,2.638-1.096,3.164c-0.729,0.525-2.084,0.789-4.063,0.789c-0.779,0-1.609-0.025-2.486-0.074l-1.059-3.266H459.412z
		 M466.055,80.165h-33.064V77.01h33.064V80.165z M438.093,74.004l3.525-1.707c2.053,0.705,3.89,1.59,5.511,2.653l-3.488,1.596
		C442.132,75.656,440.283,74.809,438.093,74.004z M451.508,74.951c1.979-0.841,3.768-1.738,5.363-2.69l3.525,1.707
		c-2.041,1.212-3.842,2.072-5.4,2.579L451.508,74.951z M432.805,56.366h14.937v-4.101h-13.192V49.26h13.192v-3.711h-12.19V28.182
		h27.74v17.367h-12.209v3.711h13.191v3.006h-13.191v4.101h14.861v3.117h-33.138V56.366z M446.61,120.551v3.191
		c0,0.384-0.479,1.32-1.438,2.811c-0.959,1.491-2.112,2.843-3.46,4.055c-1.349,1.213-2.885,2.326-4.611,3.34
		c-1.726,1.015-3.597,1.881-5.613,2.598l-1.874-2.542c1.855-0.681,3.303-1.312,4.342-1.893c-1.188-1.386-2.239-2.474-3.154-3.266
		l-1.002,0.872l-2.542-2.282c4.032-3.167,6.729-6.296,8.09-9.389l3.358,0.649c-0.347,0.779-0.681,1.398-1.002,1.855H446.61z
		 M416.44,145.488v-2.969h12.228v-2.356c-5.072,0.148-9.494,0.186-13.267,0.111l-0.946-2.895c3.847,0.099,6.822,0.148,8.925,0.148
		c8.114,0,14.77-0.668,19.965-2.004l1.707,2.616c-3.056,0.742-7.379,1.33-12.97,1.763v2.616h12.357v2.969h-12.357v2.69h14.528v3.006
		h-32.304v-3.006h14.361v-2.69H416.44z M429.54,125.041h-10.112v6.457c0,0.631,0.334,0.946,1.002,0.946h8.238v3.006h-9.24
		c-2.152,0-3.229-1.193-3.229-3.581v-6.828h-2.468v-3.08h6.568c-0.31-1.088-0.699-2.016-1.169-2.783l3.266-1.095
		c0.569,1.113,1.101,2.406,1.596,3.878h5.548V125.041z M414.844,34.249v-6.791h3.34v7.069c0,5.566,0.863,10.137,2.588,13.712
		c1.726,3.575,4.233,6.946,7.524,10.112l-2.134,2.542c-5.022-4.836-8.238-10.192-9.648-16.068
		c-1.336,6.062-4.886,11.405-10.65,16.031l-2.319-2.542c5.096-4.218,8.253-8.39,9.472-12.515
		C414.235,41.674,414.844,37.824,414.844,34.249z M395.677,28.219h11.56v3.191c-0.866,2.672-1.843,5.189-2.932,7.552
		c2.437,3.056,3.655,6.012,3.655,8.869c0,1.546-0.427,2.796-1.28,3.748c-0.854,0.953-2.734,1.349-5.641,1.188l-0.983-3.396
		c0.717,0.062,1.385,0.093,2.004,0.093c1.063,0,1.756-0.158,2.078-0.473c0.321-0.315,0.482-0.832,0.482-1.549
		c0-2.684-1.305-5.368-3.915-8.053c1.125-2.499,2.152-5.158,3.08-7.979h-4.843V60.56h-3.266V28.219z M395.677,73.819h11.56v3.191
		c-0.866,2.672-1.843,5.189-2.932,7.552c2.437,3.056,3.655,6.012,3.655,8.869c0,1.546-0.427,2.796-1.28,3.748
		c-0.854,0.953-2.734,1.349-5.641,1.188l-0.983-3.396c0.717,0.062,1.385,0.093,2.004,0.093c1.063,0,1.756-0.158,2.078-0.473
		c0.321-0.315,0.482-0.832,0.482-1.549c0-2.684-1.305-5.368-3.915-8.053c1.125-2.499,2.152-5.158,3.08-7.979h-4.843v29.149h-3.266
		V73.819z M402.375,118.157l2.839,1.985c-1.831,1.2-4.008,2.375-6.531,3.525c3.055,1.015,6.005,2.078,8.851,3.191l-1.781,2.672
		c-2.994-1.199-6.896-2.561-11.708-4.082c-1.559,0.495-3.117,0.953-4.676,1.373l2.895,1.021c-0.272,0.854-0.662,1.794-1.169,2.82
		h17.627v3.043h-12.766v3.525h10.131v9.815c0,0.879-0.235,1.651-0.705,2.319c-0.47,0.668-1.825,1.002-4.063,1.002
		c-0.631,0-1.293-0.019-1.985-0.056l-1.188-3.191l3.989-0.037c0.458,0,0.687-0.254,0.687-0.761v-5.938h-6.865v11.281l-3.321-0.037
		v-11.244h-6.865v10.038h-3.266v-9.426c-1.744,1.571-3.631,2.963-5.659,4.175l-1.15-3.229c3.735-2.351,6.877-5.097,9.426-8.238
		h-8.813v-3.043h10.984c0.792-1.299,1.385-2.542,1.781-3.729c-2.845,0.693-6.364,1.466-10.558,2.319l-1.447-3.006
		c3.711-0.544,7.496-1.329,11.355-2.356c-1.262-0.433-4.286-1.243-9.073-2.431l1.521-2.802c6.481,1.683,10.873,2.857,13.174,3.525
		C397.446,120.947,400.223,119.604,402.375,118.157z M394.193,181.514c-0.631,4.07-2.555,7.472-5.771,10.205l-2.468-2.152
		c2.746-2.288,4.366-4.973,4.861-8.053h-5.399v-3.154h5.752c0.161-2.189,0.223-4.069,0.186-5.641h-5.065v-3.062h5.065v-5.511h3.303
		v5.511h5.325v-5.511h3.34v5.511h4.861v3.062h-4.861v5.641h5.548v3.154h-5.548v10.743h-3.34v-10.743H394.193z M384.507,169.769
		l-2.616,2.115c-1.472-2.028-3.309-4.063-5.511-6.104l2.505-2.06C381.075,165.748,382.949,167.765,384.507,169.769z M359.44,28.627
		h27.851v3.34H359.44V28.627z M356.917,55.717h32.916v3.358h-32.916V55.717z M356.842,86.918h33.064v3.358h-33.064V86.918z
		 M340.05,26.92l3.303,0.835c-0.136,0.371-0.452,0.953-0.946,1.744h9.463v3.043h-11.43c-1.225,1.596-2.542,2.938-3.952,4.026
		l-2.709-1.93C336.104,32.919,338.195,30.347,340.05,26.92z M340.44,78.142c-1.225,1.596-2.542,2.938-3.952,4.026l-2.709-1.93
		c2.325-1.719,4.416-4.292,6.271-7.719l3.303,0.835c-0.136,0.371-0.452,0.953-0.946,1.744h9.463v3.043H340.44z M347.454,81.371
		l-3.303,0.649c-0.507-0.989-1.052-1.837-1.633-2.542l3.377-0.687C346.538,79.645,347.058,80.505,347.454,81.371z M320.104,59.873
		l-1.633-3.006c5.121-1.472,9.222-3.612,12.302-6.42h-10.817l1.93-8.164h11.819v-2.282h-13.916v-2.969h29.873v8.201h-12.543v2.245
		h14.139c-0.074,1.707-0.269,3.665-0.584,5.873s-0.73,3.547-1.243,4.017c-0.514,0.47-1.07,0.786-1.67,0.946
		c-0.6,0.161-1.834,0.241-3.702,0.241c-0.816,0-1.571-0.019-2.264-0.056l-1.095-3.266c0.94,0.087,1.991,0.13,3.154,0.13
		c1.484,0,2.387-0.089,2.709-0.269c0.321-0.179,0.55-0.584,0.687-1.215c0.136-0.631,0.284-1.775,0.445-3.433h-10.576v9.982h-3.414
		v-8.572C330.414,55.271,325.88,57.943,320.104,59.873z M327.248,33.878l3.229-0.761c0.779,0.916,1.36,1.726,1.744,2.431
		l-3.229,0.798C328.695,35.752,328.113,34.93,327.248,33.878z M342.518,33.878l3.377-0.687c0.643,0.854,1.163,1.713,1.559,2.579
		l-3.303,0.649C343.644,35.431,343.099,34.583,342.518,33.878z M324.965,26.771l3.154,1.058c-0.297,0.594-0.625,1.15-0.983,1.67
		h7.756v3.043h-9.89c-1.015,1.324-2.369,2.653-4.063,3.989l-2.542-2.152C321.106,32.326,323.295,29.79,324.965,26.771z
		 M324.965,72.372l3.154,1.058c-0.297,0.594-0.625,1.15-0.983,1.67h7.756v3.043h-9.89c-1.015,1.324-2.369,2.653-4.063,3.989
		l-2.542-2.152C321.106,77.926,323.295,75.39,324.965,72.372z M332.22,81.148l-3.229,0.798c-0.297-0.594-0.878-1.416-1.744-2.468
		l3.229-0.761C331.255,79.633,331.836,80.443,332.22,81.148z M317.172,126.377c-0.544,1.521-1.317,3.371-2.319,5.548h4.416v2.987
		h-19.353v-2.987h5.028c-0.606-1.868-1.367-3.655-2.282-5.362l2.505-1.521h-4.49v-3.043h7.533c-0.384-0.977-0.916-1.991-1.596-3.043
		l3.34-0.872c0.606,0.952,1.212,2.258,1.818,3.915h6.847v3.043h-3.841L317.172,126.377z M305.427,149.366v2.152h-3.377v-13.972
		h15.196v13.972h-3.266v-2.152H305.427z M281.751,35.919v-3.266h10.149c0.717-1.397,1.503-3.284,2.356-5.659l3.34,0.872
		c-0.594,1.732-1.212,3.328-1.855,4.787h17.701v3.266h-19.445c-1.2,2.078-2.555,4.095-4.063,6.049v13.879h9.648v-8.869h-7.719
		v-3.229h7.719v-6.067h3.525v6.067h8.294v3.229h-8.294v8.869h10.873v3.303h-24.047v1.317h-3.433v-14.77
		c-1.324,1.324-2.523,2.375-3.6,3.154l-2.319-2.783c3.995-2.944,7.149-6.327,9.463-10.149H281.751z M291.456,79.664h-10.576v-3.303
		h12.357c0.804-1.422,1.385-2.678,1.744-3.767l3.507,0.575c-0.322,0.965-0.767,2.029-1.336,3.191h16.792v3.303h-18.462
		c-0.495,1.002-1.157,2.091-1.985,3.266h17.831v20.373c0,0.841-0.226,1.49-0.677,1.948c-0.452,0.458-1.135,0.699-2.05,0.724
		c-0.916,0.024-1.818,0.037-2.709,0.037c-1.423,0-2.592-0.019-3.507-0.056l-1.466-3.377c1.608,0.074,3.667,0.111,6.179,0.111
		c0.532,0,0.798-0.291,0.798-0.872V98.33h-16.94c-0.644,2.685-1.961,5.239-3.952,7.663l-3.229-1.818
		c2.733-2.993,4.101-5.795,4.101-8.405v-6.104c-1.683,1.757-3.34,3.161-4.973,4.212l-2.431-2.579
		C285.011,88.23,288.672,84.352,291.456,79.664z M292.216,150.572c-1.683-3.266-4.206-6.748-7.57-10.446l2.653-2.022
		c3.426,3.724,5.999,7.199,7.719,10.428L292.216,150.572z M294.183,169.583l-2.653,1.781c-0.693-1.559-1.757-3.271-3.191-5.14
		l2.505-1.633C291.957,165.656,293.07,167.319,294.183,169.583z M245.514,95.621v-3.08h24.956v-5.047h-26.144v-3.08h13.526V72.873
		h3.34v11.541h12.617v21.505h-3.34v-1.967h-26.144v-3.117h26.144v-5.214H245.514z M245.588,76.212l2.616-2.208
		c3.204,2.647,5.752,5.09,7.645,7.329l-2.598,2.134C251.507,81.315,248.953,78.897,245.588,76.212z M263.178,81.445
		c2.845-2.115,5.393-4.558,7.645-7.329l2.765,1.948c-2.264,2.882-4.849,5.412-7.756,7.589L263.178,81.445z M261.805,167.561h7.218
		c-0.421-1.199-0.916-2.201-1.484-3.006l3.433-1.058c0.581,1.101,1.163,2.456,1.744,4.063h5.622v3.006h-16.532V167.561z
		 M261.471,148.142c3.476-2.722,6.463-6.092,8.962-10.112l2.932,1.67c-2.932,4.564-6.049,8.152-9.352,10.762L261.471,148.142z
		 M275.461,151.611c-0.804,0-1.658-0.031-2.561-0.093l-0.909-3.377l4.936,0.148c0.507,0,0.761-0.216,0.761-0.649v-12.042h-14.25
		l3.229-14.51c10.625-0.247,19-1.249,25.123-3.006l1.818,2.895c-7.348,1.93-15.388,3.03-24.121,3.303l-1.744,8.127h9.945v-6.643
		h3.358v6.643h13.897v3.191h-13.897v12.691c0,0.705-0.195,1.33-0.584,1.874s-0.878,0.922-1.466,1.132
		C278.408,151.506,277.23,151.611,275.461,151.611z M269.895,28.107c1.942,1.707,3.618,3.594,5.028,5.659l-2.746,2.041
		c-1.361-2.028-2.994-3.865-4.898-5.511L269.895,28.107z M242.917,40.224v-3.229h7.979V32.69c-1.707,0.26-3.859,0.501-6.457,0.724
		l-1.521-3.154c6.42-0.383,11.782-1.379,16.087-2.987l1.93,2.802c-2.4,0.854-4.589,1.484-6.568,1.893v5.028h7.904
		c-0.05-1.534-0.074-4.762-0.074-9.686h3.377c-0.037,3.291-0.037,6.519,0,9.686h10.372v3.229h-10.261
		c0.086,3.154,0.315,6.117,0.687,8.888c1.756-2.016,3.34-4.484,4.75-7.403l2.969,1.484c-2.066,4.144-4.286,7.298-6.661,9.463
		c0.729,1.484,1.407,2.573,2.032,3.266c0.625,0.693,1.104,1.039,1.438,1.039c0.866,0,1.639-1.954,2.319-5.863l3.024,1.893
		c-0.495,2.412-1.147,4.28-1.958,5.604c-0.811,1.323-1.853,1.985-3.126,1.985c-2.128,0-4.243-1.899-6.346-5.696
		c-2.128,1.583-4.472,3.006-7.032,4.268l-1.893-2.82c2.932-1.373,5.498-2.888,7.7-4.546c-0.619-2.387-1.045-6.24-1.28-11.56h-7.941
		v5.251c1.893-0.383,3.995-0.915,6.309-1.596l0.074,3.303c-2.289,0.668-4.416,1.2-6.383,1.596v8.424
		c0,0.965-0.198,1.682-0.594,2.152c-0.396,0.47-0.897,0.776-1.503,0.918c-0.606,0.142-1.695,0.213-3.266,0.213
		c-1.175,0-2.326-0.031-3.451-0.093l-1.188-3.6c1.707,0.074,3.104,0.111,4.193,0.111c1.163,0,1.843-0.052,2.041-0.158
		c0.198-0.105,0.297-0.331,0.297-0.677v-6.568c-2.722,0.52-5.214,0.897-7.478,1.132l-0.612-3.154
		c2.449-0.272,5.146-0.705,8.09-1.299v-5.956H242.917z M235.662,118.918h18.165v22.043h3.154v2.765h-24.399v-2.765h3.08V118.918z
		 M254.253,151.908c-2.078-1.905-4.459-3.643-7.144-5.214l2.319-2.468c3.055,1.831,5.474,3.594,7.255,5.288L254.253,151.908z
		 M255.923,170.566l-2.746,2.041c-1.361-2.028-2.994-3.865-4.898-5.511l2.616-2.189
		C252.837,166.614,254.513,168.501,255.923,170.566z M242.842,146.472c-2.375,2.177-5.288,4.001-8.739,5.474l-2.115-2.746
		c3.414-1.422,6.234-3.117,8.461-5.084L242.842,146.472z M218.833,122.573h-15.4c-0.631,2.028-1.25,3.724-1.855,5.084h15.011v20.911
		c0.012,1.064-0.377,1.809-1.169,2.236c-0.792,0.426-2.418,0.64-4.88,0.64l-1.021-3.34c0.52,0.05,1.559,0.074,3.117,0.074
		c0.458,0,0.687-0.229,0.687-0.687v-16.606h-5.14v19.761h-3.229v-19.761h-5.084v19.761h-3.303v-19.761h-5.177v20.633h-3.266v-23.861
		h9.853c0.754-1.62,1.397-3.315,1.93-5.084h-14.064v-3.266h32.99V122.573z M230.652,118.046l3.34,0.761
		c-0.359,1.225-0.946,2.802-1.763,4.731l-1.243,2.839v25.216h-3.34v-19.111c-0.779,1.15-1.627,2.152-2.542,3.006l-1.707-3.525
		C226.415,128.598,228.833,123.959,230.652,118.046z M255.283,195.393c-0.811,1.323-1.853,1.985-3.126,1.985
		c-2.128,0-4.243-1.899-6.346-5.696c-2.128,1.584-4.472,3.006-7.032,4.268l-1.893-2.82c2.932-1.373,5.498-2.889,7.7-4.546
		c-0.619-2.388-1.045-6.24-1.28-11.56h-7.941v5.251c1.893-0.384,3.995-0.915,6.309-1.596l0.074,3.303
		c-2.289,0.668-4.416,1.2-6.383,1.596v8.424c0,0.965-0.198,1.683-0.594,2.152c-0.396,0.47-0.897,0.776-1.503,0.919
		c-0.606,0.142-1.695,0.213-3.266,0.213c-1.175,0-2.326-0.031-3.451-0.093l-1.188-3.6c1.707,0.074,3.104,0.111,4.193,0.111
		c1.163,0,1.843-0.052,2.041-0.157c0.198-0.105,0.297-0.331,0.297-0.678v-6.568c-2.722,0.52-5.214,0.896-7.478,1.132l-0.612-3.154
		c2.449-0.272,5.146-0.705,8.09-1.299v-5.956h-7.979v-3.229h7.979v-4.305c-1.707,0.26-3.859,0.501-6.457,0.724l-1.521-3.154
		c6.42-0.384,11.782-1.379,16.087-2.987l1.93,2.802c-2.4,0.854-4.589,1.484-6.568,1.893v5.028h7.904
		c-0.05-1.533-0.074-4.762-0.074-9.686h3.377c-0.037,3.291-0.037,6.52,0,9.686h10.372v3.229h-10.261
		c0.086,3.154,0.315,6.117,0.687,8.888c1.756-2.017,3.34-4.483,4.75-7.403l2.969,1.484c-2.066,4.145-4.286,7.299-6.661,9.463
		c0.729,1.484,1.407,2.573,2.032,3.266c0.625,0.693,1.104,1.039,1.438,1.039c0.866,0,1.639-1.954,2.319-5.863l3.024,1.893
		C256.746,192.201,256.093,194.069,255.283,195.393z M261.471,193.704c1.435-2.264,2.622-5.368,3.563-9.314l2.932,1.15
		c-0.891,3.995-2.134,7.323-3.729,9.982L261.471,193.704z M272.251,193.927c0,0.681-0.139,1.269-0.417,1.763
		s-0.649,0.85-1.113,1.066s-1.042,0.34-1.735,0.371c-0.693,0.031-1.373,0.053-2.041,0.065l-1.039-3.266
		c0.52,0.037,0.952,0.056,1.299,0.056c1.212,0,1.818-0.309,1.818-0.928v-10.075h-5.733v-10.057h14.51v10.057h-5.548V193.927z
		 M273.253,185.651l2.579-1.521c1.299,2.388,2.276,4.639,2.932,6.754l-2.857,1.726C275.499,190.902,274.614,188.583,273.253,185.651
		z M276.705,194.929c3.674-4.515,5.888-11.015,6.643-19.501h-4.249v-3.117h4.453c0.074-1.188,0.148-3.965,0.223-8.331h3.303
		c0,2.189-0.087,4.967-0.26,8.331h8.053v3.117h-8.201c-0.804,9.314-3.291,16.613-7.459,21.895L276.705,194.929z M294.638,194.771
		c-0.217,0.637-0.612,1.159-1.188,1.567s-1.661,0.612-3.256,0.612c-2.351,0-3.525-0.983-3.525-2.95v-14.658h3.266v13.601
		c0,0.482,0.315,0.724,0.946,0.724c0.606,0,0.94-0.31,1.002-0.928c0.062-0.618,0.161-2.437,0.297-5.455l2.987,1.058
		C295.03,191.991,294.854,194.135,294.638,194.771z M332.944,170.863h-18.462c-0.495,1.002-1.157,2.091-1.985,3.266h17.831v20.373
		c0,0.841-0.226,1.49-0.677,1.948c-0.452,0.458-1.135,0.698-2.05,0.724c-0.916,0.024-1.818,0.037-2.709,0.037
		c-1.423,0-2.592-0.019-3.507-0.056l-1.466-3.377c1.608,0.074,3.667,0.111,6.179,0.111c0.532,0,0.798-0.29,0.798-0.872v-3.488
		h-16.94c-0.644,2.685-1.961,5.238-3.952,7.663l-3.229-1.818c2.733-2.993,4.101-5.795,4.101-8.405v-6.104
		c-1.683,1.757-3.34,3.161-4.973,4.212l-2.431-2.579c4.54-3.067,8.201-6.945,10.984-11.634h-10.576v-3.303h12.357
		c0.804-1.422,1.385-2.678,1.744-3.767l3.507,0.575c-0.322,0.965-0.767,2.029-1.336,3.191h16.792V170.863z M332.851,141.759
		c0,1.447-0.257,2.601-0.77,3.46c-0.514,0.86-1.135,1.433-1.865,1.717c-0.73,0.285-2.202,0.384-4.416,0.297l-0.946-3.266
		c1.026,0.1,2.09,0.148,3.191,0.148c0.433,0,0.792-0.151,1.076-0.455c0.284-0.303,0.427-1.011,0.427-2.124
		c0-2.808-1.188-5.765-3.563-8.869c1.188-3.142,2.251-6.574,3.191-10.298h-5.158v29.187h-3.191v-32.248h11.578v3.062
		c-0.866,3.34-1.862,6.574-2.987,9.704C331.707,135.611,332.851,138.84,332.851,141.759z M337.119,106.03h-3.414v-8.572
		c-3.291,3.414-7.824,6.086-13.601,8.016l-1.633-3.006c5.121-1.472,9.222-3.612,12.302-6.42h-10.817l1.93-8.164h11.819v-2.282
		h-13.916v-2.969h29.873v8.201h-12.543v2.245h14.139c-0.074,1.707-0.269,3.665-0.584,5.873s-0.73,3.547-1.243,4.017
		c-0.514,0.47-1.07,0.786-1.67,0.946c-0.6,0.161-1.834,0.241-3.702,0.241c-0.816,0-1.571-0.019-2.264-0.056l-1.095-3.266
		c0.94,0.087,1.991,0.13,3.154,0.13c1.484,0,2.387-0.089,2.709-0.269c0.321-0.179,0.55-0.584,0.687-1.215
		c0.136-0.631,0.284-1.775,0.445-3.433h-10.576V106.03z M369.274,168.396c-4.07,3.674-8.35,6.952-12.84,9.834v15.512
		c0,0.866-0.25,1.573-0.751,2.124s-1.104,0.9-1.809,1.049s-1.961,0.223-3.767,0.223c-0.891,0-1.8-0.019-2.728-0.056l-1.447-3.674
		c3.34,0.024,5.328,0.019,5.965-0.019c0.637-0.037,0.956-0.271,0.956-0.705v-16.272c4.403-2.771,8.028-5.442,10.873-8.016H339.29
		v-3.451h29.984V168.396z M369.237,142.891c-3.971-3.314-8.381-6.364-13.229-9.147v17.813h-3.563v-19.037
		c-4.008,4.156-8.356,7.589-13.044,10.298l-1.967-2.876c8.584-4.948,14.497-10.725,17.738-17.33h-17.089v-3.34h32.322v3.34h-11.318
		c-0.755,1.608-1.781,3.408-3.08,5.399v1.855c7.211,4.156,12.277,7.576,15.196,10.261L369.237,142.891z M408.109,196.97
		c-2.326,0.087-4.701,0.13-7.125,0.13c-4.429,0-7.623-0.105-9.583-0.315c-1.961-0.21-3.764-0.662-5.409-1.354
		c-1.646-0.692-3.062-1.701-4.249-3.024c-1.175,1.596-2.468,3.179-3.878,4.75l-2.672-2.115c1.719-1.683,3.383-3.637,4.991-5.863
		v-11.578h-4.342v-3.229h7.607v14.881c2.14,3.043,6.018,4.564,11.634,4.564c4.28,0,9.018-0.062,14.213-0.186L408.109,196.97z
		 M405.864,106.457l-2.319-2.542c5.096-4.218,8.253-8.39,9.472-12.515c1.218-4.125,1.828-7.975,1.828-11.55v-6.791h3.34v7.069
		c0,5.566,0.863,10.137,2.588,13.712c1.726,3.575,4.233,6.946,7.524,10.112l-2.134,2.542c-5.022-4.836-8.238-10.192-9.648-16.068
		C415.178,96.487,411.628,101.831,405.864,106.457z M444.476,197.322c-7.236-6.309-11.851-13.205-13.842-20.688
		c-2.523,8.646-7.422,15.45-14.695,20.41l-2.468-2.653c3.278-2.164,6.107-4.799,8.489-7.904c2.381-3.104,4.196-6.51,5.446-10.215
		c1.249-3.704,1.874-6.125,1.874-7.264l-0.111-0.761h-4.602v-3.377h7.793c0.334,7.298,1.775,13.22,4.323,17.767
		c2.548,4.545,6.03,8.6,10.446,12.162L444.476,197.322z M449.3,102.282c0,0.978-0.208,1.723-0.622,2.236
		c-0.415,0.513-0.916,0.854-1.503,1.021c-0.588,0.167-1.624,0.25-3.108,0.25c-0.742,0-1.404-0.019-1.985-0.056l-1.188-3.266
		c0.544,0.062,1.132,0.093,1.763,0.093c1.447,0,2.396-0.049,2.848-0.148c0.451-0.099,0.677-0.358,0.677-0.779v-3.841h-7.292
		c-0.569,3.488-1.707,6.21-3.414,8.164l-2.783-1.781c2.251-2.264,3.377-6.228,3.377-11.894v-9.723H449.3V102.282z M457.965,163.571
		l3.154,1.058c-0.297,0.594-0.625,1.15-0.982,1.67h7.756v3.043h-9.891c-1.014,1.324-2.369,2.653-4.063,3.989l-2.543-2.152
		C454.105,169.125,456.295,166.59,457.965,163.571z M465.221,172.348l-3.229,0.798c-0.297-0.594-0.879-1.416-1.744-2.468
		l3.229-0.761C464.256,170.832,464.836,171.643,465.221,172.348z M483.673,190.15c-0.315,2.209-0.729,3.548-1.243,4.018
		c-0.514,0.471-1.07,0.785-1.67,0.946s-1.834,0.241-3.701,0.241c-0.816,0-1.572-0.019-2.264-0.056l-1.096-3.266
		c0.94,0.087,1.992,0.13,3.154,0.13c1.484,0,2.388-0.09,2.709-0.27c0.322-0.179,0.551-0.584,0.688-1.215
		c0.135-0.631,0.283-1.775,0.445-3.433h-10.576v9.982h-3.414v-8.572c-3.291,3.414-7.824,6.086-13.602,8.016l-1.633-3.006
		c5.121-1.472,9.223-3.612,12.303-6.42h-10.818l1.93-8.164h11.82v-2.282h-13.916v-2.969h29.873v8.201h-12.543v2.245h14.139
		C484.184,185.985,483.988,187.943,483.673,190.15z M475.518,170.678l3.377-0.687c0.644,0.854,1.163,1.714,1.559,2.579l-3.303,0.649
		C476.644,172.23,476.1,171.383,475.518,170.678z M484.869,169.342h-11.43c-1.225,1.596-2.541,2.938-3.951,4.026l-2.709-1.93
		c2.324-1.72,4.416-4.292,6.271-7.719l3.303,0.835c-0.137,0.371-0.452,0.953-0.947,1.744h9.463V169.342z M484.201,148.828
		c-0.445,1.113-1.085,1.821-1.92,2.125c-0.835,0.303-2.73,0.454-5.688,0.454c-2.065,0-3.624-0.024-4.676-0.074
		c-1.051-0.05-1.887-0.47-2.504-1.262c-0.619-0.792-0.928-1.8-0.928-3.024v-17.646h3.395v5.251h12.488v3.303h-12.488v9.018
		c0,0.174,0.094,0.39,0.279,0.649s0.457,0.408,0.816,0.445c0.357,0.037,1.422,0.056,3.191,0.056c2.51,0,3.964-0.086,4.359-0.26
		c0.396-0.173,0.684-0.977,0.863-2.412c0.18-1.435,0.287-2.641,0.324-3.618l3.377,1.373
		C484.943,145.841,484.646,147.715,484.201,148.828z M498.73,147.474c2.338-0.779,3.898-1.72,4.685-2.82
		c0.785-1.101,1.276-2.573,1.476-4.416l3.432,0.148c-0.457,4.082-2.229,6.952-5.315,8.609c-3.087,1.657-6.992,2.591-11.718,2.802
		l-1.484-3.08C493.417,148.668,496.393,148.253,498.73,147.474z M522.906,181.477h-33.064v-3.358h33.064V181.477z M521.533,152.057
		c-4.688-1.942-9.295-3.438-13.822-4.49l1.373-2.69c4.848,1.052,9.543,2.573,14.082,4.564L521.533,152.057z M510.326,106.271
		l-1.707-3.229c4.874-0.383,9.469-1.577,13.787-3.581c-2.883-2.165-4.893-4.305-6.031-6.42h-1.299v-3.154h20.855v3.043
		c-1.509,2.177-3.871,4.354-7.088,6.531c3.6,1.707,8.133,2.901,13.602,3.581l-1.262,3.154c-5.951-0.854-11.17-2.412-15.66-4.676
		C521.293,103.723,516.227,105.306,510.326,106.271z M534.039,189.566l-0.982-3.396c0.717,0.062,1.385,0.093,2.004,0.093
		c1.063,0,1.756-0.158,2.078-0.473c0.32-0.316,0.482-0.832,0.482-1.55c0-2.685-1.306-5.368-3.916-8.053
		c1.126-2.499,2.152-5.158,3.08-7.979h-4.842v29.149h-3.266v-32.341h11.559v3.191c-0.865,2.672-1.843,5.189-2.932,7.552
		c2.438,3.056,3.656,6.012,3.656,8.869c0,1.547-0.428,2.796-1.281,3.748C538.826,189.332,536.946,189.728,534.039,189.566z
		 M559.162,197.693c-5.021-4.836-8.238-10.192-9.648-16.068c-1.336,6.062-4.886,11.405-10.65,16.031l-2.318-2.542
		c5.096-4.218,8.253-8.39,9.472-12.515c1.218-4.125,1.827-7.976,1.827-11.551v-6.791h3.34v7.069c0,5.566,0.863,10.138,2.589,13.712
		c1.726,3.575,4.233,6.945,7.524,10.112L559.162,197.693z M555.582,151.723v-33.176h3.357v33.176H555.582z M556.156,106.197
		l-2.021-2.672c3.426-2.041,5.894-4.203,7.402-6.485c1.51-2.282,2.375-4.957,2.598-8.025h-6.92v-3.154h7.217
		c0.161-2.14,0.229-3.772,0.205-4.898h3.266c0,1.212-0.037,2.845-0.111,4.898h10.668c0.025,3.253-0.046,6.763-0.213,10.53
		s-0.347,6.03-0.538,6.791c-0.192,0.761-0.631,1.438-1.317,2.032s-2.137,0.891-4.352,0.891c-0.804,0-1.867-0.037-3.191-0.111
		l-1.299-3.34c1.596,0.099,2.82,0.148,3.674,0.148c1.386,0,2.224-0.071,2.515-0.213c0.29-0.142,0.52-0.355,0.687-0.64
		c0.167-0.284,0.324-1.648,0.473-4.091c0.148-2.443,0.248-5.39,0.297-8.841h-7.719C566.968,96.647,563.195,102.375,556.156,106.197z
		 M574.508,124.169l-2.617,2.115c-1.472-2.028-3.309-4.063-5.51-6.104l2.504-2.06C571.074,120.148,572.949,122.165,574.508,124.169z
		 M580.203,196.896h-3.266v-2.505h-6.865v2.876h-3.357V169.62h3.395c0.953-1.757,1.695-3.687,2.227-5.789l3.508,0.575
		c-0.186,1.2-0.779,2.938-1.781,5.214h6.141V196.896z M598.184,183.953c-0.236,5.796-0.582,9.213-1.039,10.252
		c-0.459,1.039-1.154,1.803-2.088,2.291s-3.207,0.746-6.818,0.771l-1.262-3.34l5.084-0.037c0.482,0,0.995-0.204,1.539-0.612
		c0.545-0.408,0.953-3.16,1.225-8.257c0.272-5.097,0.402-9.067,0.391-11.912h-7.627c-1.188,3.019-2.529,5.591-4.025,7.719
		l-2.598-2.319c2.721-4.403,4.639-9.32,5.752-14.751l3.34,0.724c-0.248,1.287-0.693,3.062-1.336,5.325h9.852
		C598.548,173.442,598.418,178.158,598.184,183.953z M584.842,180.512l2.969-1.855c2.523,3.154,4.273,5.863,5.252,8.127
		l-2.969,1.911C588.461,185.429,586.71,182.701,584.842,180.512z M598.109,151.37c-2.326,0.087-4.701,0.13-7.125,0.13
		c-4.43,0-7.623-0.105-9.584-0.315s-3.764-0.662-5.408-1.354c-1.646-0.692-3.063-1.701-4.25-3.024
		c-1.175,1.596-2.467,3.179-3.877,4.75l-2.672-2.115c1.719-1.683,3.383-3.637,4.99-5.863v-11.578h-4.342v-3.229h7.607v14.881
		c2.141,3.043,6.018,4.564,11.635,4.564c4.279,0,9.018-0.062,14.213-0.186L598.109,151.37z M603.434,102.542
		c0,0.866-0.25,1.574-0.751,2.125c-0.501,0.55-1.104,0.9-1.81,1.048s-1.961,0.223-3.766,0.223c-0.891,0-1.801-0.019-2.729-0.056
		l-1.447-3.674c3.34,0.025,5.328,0.019,5.966-0.019c0.637-0.037,0.956-0.272,0.956-0.705V85.211
		c4.402-2.771,8.027-5.442,10.873-8.016h-24.438v-3.451h29.984v3.451c-4.069,3.674-8.35,6.952-12.84,9.834V102.542z
		 M612.896,197.229h-3.357v-16.681c-1.436,3.006-2.926,5.412-4.473,7.218l-1.596-3.34c2.301-2.808,4.25-6.173,5.846-10.094h-5.438
		v-3.247h5.66v-7.014h3.357v7.014h5.586v3.247h-5.586v0.946c2.598,2.809,4.547,5.288,5.846,7.44l-2.395,2.356
		c-1.113-2.078-2.264-3.891-3.451-5.437V197.229z M637.324,191.923c-0.105,1.349-0.195,2.235-0.27,2.663
		c-0.074,0.426-0.33,0.884-0.77,1.373c-0.439,0.488-0.975,0.801-1.605,0.937s-1.385,0.204-2.264,0.204
		c-1.707,0-2.792-0.328-3.256-0.983s-0.695-1.447-0.695-2.375v-25.346h-5.418v14.788c0,5.604-1.547,10.416-4.639,14.436l-2.283-2.69
		c2.425-3.13,3.637-7.613,3.637-13.452v-16.458h12.061v28.036c0,0.482,0.377,0.724,1.133,0.724c0.346,0,0.603-0.108,0.77-0.325
		c0.167-0.216,0.291-1.008,0.371-2.375c0.08-1.366,0.107-2.835,0.084-4.406l3.34,1.299
		C637.494,189.258,637.43,190.574,637.324,191.923z M638.447,96.27l-1.15-0.891c0.469-0.68,0.797-1.243,0.982-1.688
		c-1.026-0.408-1.539-1.2-1.539-2.375c0-0.692,0.262-1.262,0.788-1.707c0.525-0.445,1.104-0.668,1.735-0.668
		c0.717,0,1.305,0.26,1.762,0.779c0.458,0.52,0.688,1.163,0.688,1.93C641.713,93.073,640.623,94.613,638.447,96.27z
		 M645.609,118.009l3.08,0.724c-0.074,0.52-0.328,1.732-0.762,3.637h5.92v3.043h-6.68c-0.496,1.547-0.916,2.703-1.262,3.47h6.846
		v3.117h-3.803v4.249h4.787v3.117h-4.787v7.255c1.916-1.101,3.234-1.898,3.951-2.394l0.984,3.08
		c-3.168,1.967-5.561,3.297-7.182,3.989l-1.354-2.69c0.246-0.408,0.371-0.854,0.371-1.336v-7.904h-3.637v-3.117h3.637v-4.249h-1.096
		c-0.531,0.903-0.811,1.367-0.834,1.392l-2.283-2.542C643.24,127.435,644.607,123.154,645.609,118.009z M673.998,185.262h-16.719
		c-2.325,3.18-4.836,5.956-7.533,8.331c4.676-0.235,9.982-0.729,15.92-1.484c-0.939-1.126-2.127-2.301-3.563-3.525l2.766-1.837
		c3.229,2.846,6.055,5.95,8.479,9.314l-2.932,1.744c-0.655-0.965-1.311-1.861-1.967-2.69c-9.426,1.052-17.305,1.731-23.639,2.041
		l-0.871-2.542c2.992-1.991,5.992-5.108,8.998-9.352h-10.26v-3.191h31.32V185.262z M649.635,178.953v-3.08h17.516v3.08H649.635z
		 M673.533,178.508c-6.691-3.154-11.721-6.525-15.084-10.112c-3.799,4.045-8.826,7.416-15.086,10.112l-1.818-2.857
		c6.865-2.721,12.377-6.698,16.533-11.931l3.006,1.521c-0.1,0.223-0.279,0.464-0.539,0.724c3.501,3.6,8.443,6.804,14.826,9.611
		L673.533,178.508z M695.447,141.87l-1.15-0.891c0.469-0.681,0.797-1.243,0.982-1.688c-1.026-0.408-1.539-1.199-1.539-2.375
		c0-0.692,0.262-1.262,0.788-1.707c0.525-0.445,1.104-0.668,1.735-0.668c0.717,0,1.305,0.26,1.762,0.779
		c0.458,0.52,0.688,1.163,0.688,1.93C698.713,138.673,697.623,140.213,695.447,141.87z"/>
	<rect x="439.262" y="85.601" fill="#FFFFFF" width="6.921" height="3.117"/>
	<rect x="439.262" y="91.668" fill="#FFFFFF" width="6.921" height="3.229"/>
</g>
</svg>
