<?xml version="1.0" encoding="utf-8"?>
<!-- Generator: Adobe Illustrator 16.0.0, SVG Export Plug-In . SVG Version: 6.00 Build 0)  -->
<!DOCTYPE svg PUBLIC "-//W3C//DTD SVG 1.1//EN" "http://www.w3.org/Graphics/SVG/1.1/DTD/svg11.dtd">
<svg version="1.1" id="Layer_1" xmlns="http://www.w3.org/2000/svg" xmlns:xlink="http://www.w3.org/1999/xlink" x="0px" y="0px"
	 width="900px" height="140px" viewBox="0 0 900 140" enable-background="new 0 0 900 140" xml:space="preserve">
<text transform="matrix(1 0 0 1 13.002 278)" font-family="'HelveticaNeueLTPro-Blk'" font-size="40">Helvetica - 95Black - 40pt</text>
<g>
	<rect x="253.761" y="113.424" fill="#FFFFFF" width="17.664" height="2.097"/>
	<path fill="#FFFFFF" d="M258.696,120.419h7.57l1.243-2.468h-9.76C258.17,118.892,258.486,119.714,258.696,120.419z"/>
	<rect x="252.814" y="127.414" fill="#FFFFFF" width="19.52" height="2.004"/>
	<path fill="#FFFFFF" d="M288.18,106.243c2.078,3.34,3.729,6.136,4.954,8.387c1.014-2.882,1.731-5.678,2.152-8.387H288.18z"/>
	<path fill="#FFFFFF" d="M234.612,115.595h-8.442c-0.074,0.915-0.111,1.911-0.111,2.987h8.554V115.595z"/>
	<path fill="#FFFFFF" d="M214.462,118.582h8.294c0.024-0.371,0.037-1.367,0.037-2.987h-8.331V118.582z"/>
	<rect x="214.462" y="109.769" fill="#FFFFFF" width="8.517" height="2.82"/>
	<rect x="489.331" y="115.78" fill="#FFFFFF" width="12.877" height="1.596"/>
	<path fill="#FFFFFF" d="M389.692,65.579h0.909c0.989-1.051,2.028-2.406,3.117-4.063h-4.026V65.579z"/>
	<path fill="#FFFFFF" d="M365.831,106.28c0.841,1.88,1.509,3.718,2.004,5.511h2.022c0.854-1.707,1.571-3.544,2.152-5.511H365.831z"
		/>
	<rect x="402.31" y="109.323" fill="#FFFFFF" width="6.865" height="7.032"/>
	<rect x="226.281" y="109.769" fill="#FFFFFF" width="8.331" height="2.82"/>
	<rect x="385.963" y="80.33" fill="#FFFFFF" width="7.366" height="2.652"/>
	<rect x="385.963" y="74.893" fill="#FFFFFF" width="7.366" height="2.58"/>
	<rect x="402.31" y="119.547" fill="#FFFFFF" width="6.865" height="7.979"/>
	<rect x="531.803" y="33.097" fill="#FFFFFF" width="4.305" height="4.472"/>
	<rect x="531.803" y="25.675" fill="#FFFFFF" width="4.305" height="4.49"/>
	<path fill="#FFFFFF" d="M578.542,12.798h-23.861v24.771h23.861V12.798z M572.382,37.197c-3.983-1.497-8.362-2.598-13.137-3.303
		l1.484-2.746c5.27,1.002,9.661,2.208,13.174,3.618L572.382,37.197z M563.086,30.017l1.392-2.468
		c3.624,0.755,6.593,1.651,8.906,2.69l-1.336,2.431C569.228,31.47,566.24,30.586,563.086,30.017z M576.835,29.627
		c-3.921-0.804-7.366-2.004-10.335-3.6c-2.759,1.546-6,2.746-9.723,3.6l-1.521-2.802c3.216-0.631,5.986-1.509,8.313-2.635
		c-1.299-0.915-2.499-2.041-3.6-3.377c-0.606,0.482-1.429,1.064-2.468,1.744l-2.022-2.227c3.018-1.942,5.665-4.342,7.941-7.199
		l2.857,1.15c-0.161,0.272-0.414,0.612-0.761,1.021h9.611v2.746c-1.744,2.462-3.631,4.484-5.659,6.067
		c2.313,1.2,5.201,2.066,8.665,2.598L576.835,29.627z"/>
	<rect x="531.803" y="18.457" fill="#FFFFFF" width="4.305" height="4.416"/>
	<rect x="592.458" y="26.324" fill="#FFFFFF" width="4.602" height="8.739"/>
	<rect x="592.458" y="14.653" fill="#FFFFFF" width="4.602" height="8.628"/>
	<rect x="508.053" y="59.122" fill="#FFFFFF" width="12.469" height="11.82"/>
	<rect x="488.403" y="13.484" fill="#FFFFFF" width="4.193" height="5.084"/>
	<path fill="#FFFFFF" d="M482.781,34.303l-2.505-2.319c3.167-2.573,4.75-5.925,4.75-10.057h-5.288v14.732h21.783V21.927h-5.511v6.03
		c0,0.322,0.114,0.6,0.343,0.835c0.229,0.235,0.504,0.353,0.826,0.353h3.154v3.303h-4.138c-1.237,0-2.146-0.275-2.728-0.826
		c-0.582-0.55-0.872-1.481-0.872-2.792v-6.902h-4.193C488.403,27.122,486.529,31.248,482.781,34.303z"/>
	<polygon fill="#FFFFFF" points="521.06,13.447 518.165,13.447 516.829,22.261 521.06,22.261 	"/>
	<rect x="340.355" y="22.001" fill="#FFFFFF" width="9.166" height="2.282"/>
	<polygon fill="#FFFFFF" points="336.941,27.233 327.979,27.233 327.479,29.479 336.941,29.479 	"/>
	<path fill="#FFFFFF" d="M493.654,108.451h4.063c0.581-0.902,1.039-1.818,1.373-2.746h-6.735
		C492.801,106.423,493.233,107.338,493.654,108.451z"/>
	<path fill="#FFFFFF" d="M571.213,18.309h-8.368c-0.21,0.173-0.396,0.365-0.557,0.575c1.237,1.373,2.628,2.61,4.175,3.711
		C568.046,21.717,569.629,20.288,571.213,18.309z"/>
	<rect x="632.666" y="115.483" fill="#FFFFFF" width="19.946" height="4.657"/>
	<rect x="632.666" y="123.332" fill="#FFFFFF" width="19.946" height="5.065"/>
	<rect x="632.666" y="107.839" fill="#FFFFFF" width="19.946" height="4.435"/>
	<path fill="#FFFFFF" d="M585.648,69.401c-0.644,0-1.169,0.22-1.577,0.659c-0.408,0.439-0.612,0.95-0.612,1.53
		c0,0.607,0.213,1.133,0.641,1.578c0.426,0.445,0.992,0.668,1.697,0.668c0.568,0,1.055-0.229,1.457-0.688
		c0.401-0.457,0.603-0.971,0.603-1.539c0-0.569-0.198-1.08-0.594-1.531S586.328,69.401,585.648,69.401z"/>
	<rect x="608.081" y="104.61" fill="#FFFFFF" width="8.646" height="5.232"/>
	<rect x="517.404" y="109.917" fill="#FFFFFF" width="9.463" height="9.352"/>
	<rect x="592.272" y="115.966" fill="#FFFFFF" width="5.27" height="7.607"/>
	<rect x="592.272" y="105.445" fill="#FFFFFF" width="5.27" height="7.366"/>
	<rect x="530.355" y="109.917" fill="#FFFFFF" width="9.537" height="9.352"/>
	<rect x="489.331" y="119.881" fill="#FFFFFF" width="12.877" height="1.67"/>
	<rect x="608.081" y="113.201" fill="#FFFFFF" width="8.646" height="5.585"/>
	<path fill="#FFFFFF" d="M-2.657-3.763v150h911v-150H-2.657z M640.766,26.009c0.525-0.445,1.104-0.668,1.734-0.668
		c0.717,0,1.305,0.26,1.763,0.779s0.687,1.163,0.687,1.93c0,1.423-1.089,2.963-3.266,4.62l-1.15-0.891
		c0.47-0.68,0.798-1.243,0.983-1.688c-1.026-0.408-1.54-1.2-1.54-2.375C639.977,27.023,640.239,26.454,640.766,26.009z
		 M589.192,11.573h11.207v28.277h-3.34v-1.781h-4.602v2.728h-3.266V11.573z M551.452,9.755h30.393V42.43h-3.303v-1.818h-23.861
		v1.818h-3.229V9.755z M563.16,61.367l-2.746,2.041c-1.361-2.028-2.994-3.865-4.898-5.511l2.616-2.189
		C560.074,57.415,561.75,59.301,563.16,61.367z M534.345,9.681c-0.532,1.658-1.367,3.569-2.505,5.733h5.103
		c-0.495-2.202-0.989-4.051-1.484-5.548l3.154-0.909c0.903,3.142,1.472,5.294,1.707,6.457h4.564v3.043h-5.511v4.416h5.01v2.802
		h-5.01v4.49h5.01v2.857h-5.01v4.546h5.771l0.037,3.154h-13.378v1.67h-3.377v-21.69c-0.631,0.681-1.102,1.163-1.41,1.447
		l-1.707-2.969c2.227-2.424,4.199-5.906,5.919-10.446L534.345,9.681z M513.081,25.304l1.818-11.856h-2.282v-3.043h14.788v3.043
		h-3.08v8.813h2.245v3.043h-2.245V38.57c0,1.039-0.267,1.936-0.798,2.69c-0.532,0.754-1.85,1.132-3.952,1.132
		c-0.655,0-1.28-0.025-1.874-0.074l-1.021-3.117c1.41,0.05,2.641,0.074,3.692,0.074c0.148,0,0.3-0.077,0.455-0.232
		c0.154-0.154,0.231-0.3,0.231-0.436V27.66c-2.375,5.579-4.874,9.704-7.496,12.376l-1.893-2.839
		c2.585-2.733,4.886-6.698,6.902-11.894H513.081z M506.921,108.451v2.802h-22.34v-2.802h5.27c-0.445-1.076-0.885-1.991-1.317-2.746
		h-2.672v-2.969h8.016c-0.161-0.557-0.427-1.225-0.798-2.004l3.618-0.649c0.297,0.47,0.612,1.354,0.946,2.653h7.979v2.969h-2.653
		c-0.322,0.866-0.755,1.781-1.299,2.746H506.921z M496.345,82.834c0.358-0.186,0.538-0.568,0.538-1.15V68.046h-3.841v-3.303h7.218
		v15.549c0.865-0.557,2.01-1.423,3.433-2.598l1.169,3.191c-2.462,1.967-4.793,3.605-6.995,4.916L496.345,82.834z M494.378,56.19
		l3.08-1.633c2.165,2.251,3.896,4.472,5.195,6.661l-3.08,1.559C497.891,60.167,496.159,57.971,494.378,56.19z M504.676,74.207
		V55.893h19.223v18.314H504.676z M519.037,75.84c2.622,2.832,5.065,6.469,7.329,10.91l-2.839,1.855
		c-1.608-3.291-4.014-6.952-7.218-10.984L519.037,75.84z M474.116,10.182h32.99v3.303h-11.096v5.084h8.999v23.75h-3.488v-2.319
		h-21.783v2.319h-3.451v-23.75h8.739v-5.084h-10.91V10.182z M474.023,68.167c0.408-3.247,0.655-7.604,0.742-13.072h3.34
		c-0.05,1.646-0.074,3.13-0.074,4.453c0,4.33,0.393,7.917,1.178,10.762c0.785,2.845,1.936,5.653,3.451,8.424
		c1.516,2.771,3.485,5.25,5.91,7.439l-2.523,2.283c-4.564-4.354-7.769-9.674-9.611-15.957c-1.621,6.086-4.861,11.355-9.723,15.809
		l-2.505-2.135c2.919-2.758,5.183-5.637,6.791-8.637S473.615,71.414,474.023,68.167z M455.079,68.121v-3.377h7.533v15.735
		c1.089-0.953,2.165-1.955,3.229-3.006l1.559,2.857c-2.103,2.177-4.36,4.174-6.772,5.992l-1.744-2.949
		c0.223-0.285,0.334-0.582,0.334-0.891V68.121H455.079z M456.229,56.58l2.653-1.911c1.682,1.583,3.457,3.699,5.325,6.346
		l-2.857,1.948C460.237,61.095,458.53,58.967,456.229,56.58z M436.116,24.654h14.714v-6.123h-12.506v-3.303h12.506V9.272h3.563
		v5.956h12.654v3.303h-12.654v6.123h14.788v3.34h-17.052c-2.462,4.429-5.189,7.923-8.183,10.483
		c6.667-0.544,12.493-1.225,17.479-2.041c-1.694-2.041-3.34-3.791-4.936-5.251l2.69-2.041c4.008,3.773,7.292,7.645,9.853,11.615
		l-2.969,1.985c-0.866-1.435-1.651-2.591-2.356-3.47c-8.214,1.225-16.699,2.177-25.457,2.857l-0.649-2.932
		c3.748-1.917,7.181-5.653,10.298-11.207h-11.782V24.654z M405.148,68.881c1.113-2.907,2.177-6.185,3.191-9.834h-4.898v28.982
		h-3.303V55.782h11.634v3.266c-1.361,4.552-2.363,7.731-3.006,9.537c2.301,3.279,3.451,6.507,3.451,9.685
		c0,2.104-0.452,3.535-1.354,4.296c-0.903,0.761-2.128,1.142-3.674,1.142c-0.495,0-1.2-0.025-2.115-0.074l-0.909-3.266
		c1.076,0.049,2.189,0.074,3.34,0.074c0.482,0,0.844-0.152,1.085-0.455s0.362-0.943,0.362-1.92
		C408.952,75.135,407.684,72.072,405.148,68.881z M406.41,42.708l-2.394-2.579c4.936-2.647,8.25-5.285,9.945-7.914
		c1.694-2.628,2.542-6.157,2.542-10.585c0-0.742-0.025-1.534-0.074-2.375h3.358c-0.037,0.693-0.056,1.354-0.056,1.985
		c0,3.105,0.411,5.724,1.234,7.858c0.822,2.134,2.267,4.209,4.333,6.225c2.065,2.017,4.125,3.538,6.179,4.564l-2.115,2.895
		c-5.455-3.303-9.154-7.409-11.096-12.32C416.349,35.583,412.397,39.665,406.41,42.708z M417.654,9.606
		c-0.445,1.472-0.978,3.006-1.596,4.602h14.714c-0.916,5.542-2.474,9.977-4.676,13.304l-2.895-1.521
		c1.546-2.449,2.684-5.263,3.414-8.442h-12.005c-1.571,3.253-3.179,5.777-4.824,7.57l-2.616-2.022
		c3.067-3.451,5.449-8.139,7.144-14.064L417.654,9.606z M398.951,14.022h10.576v3.303h-10.576V14.022z M398.116,27.771h12.32v3.34
		h-12.32V27.771z M360.079,23.318h33.064v3.358h-33.064V23.318z M359.467,57.6h13.768v6.884h-3.303v-3.878h-24.659v3.878h-3.358
		V57.6h13.693c-0.322-0.655-0.804-1.404-1.447-2.245l3.6-0.724C358.366,55.584,358.935,56.574,359.467,57.6z M323.341,41.873
		l-1.633-3.006c5.121-1.472,9.222-3.612,12.302-6.42h-10.817l1.93-8.164h11.819v-2.282h-13.916v-2.969h29.873v8.201h-12.543v2.245
		h14.139c-0.074,1.707-0.269,3.665-0.584,5.873s-0.73,3.547-1.243,4.017c-0.514,0.47-1.07,0.786-1.67,0.946
		c-0.6,0.161-1.834,0.241-3.702,0.241c-0.816,0-1.571-0.019-2.264-0.056l-1.095-3.266c0.94,0.087,1.991,0.13,3.154,0.13
		c1.484,0,2.387-0.089,2.709-0.269c0.321-0.179,0.55-0.584,0.687-1.215c0.136-0.631,0.284-1.775,0.445-3.433h-10.576v9.982h-3.414
		v-8.572C333.651,37.271,329.117,39.943,323.341,41.873z M330.484,15.878l3.229-0.761c0.779,0.916,1.36,1.726,1.744,2.431
		l-3.229,0.798C331.932,17.752,331.35,16.93,330.484,15.878z M345.755,15.878l3.377-0.687c0.643,0.854,1.163,1.713,1.559,2.579
		l-3.303,0.649C346.88,17.431,346.336,16.583,345.755,15.878z M343.287,8.92l3.303,0.835c-0.136,0.371-0.452,0.953-0.946,1.744
		h9.463v3.043h-11.43c-1.225,1.596-2.542,2.938-3.952,4.026l-2.709-1.93C339.341,14.919,341.432,12.347,343.287,8.92z
		 M328.202,8.771l3.154,1.058c-0.297,0.594-0.625,1.15-0.983,1.67h7.756v3.043h-9.89c-1.015,1.324-2.369,2.653-4.063,3.989
		l-2.542-2.152C324.343,14.326,326.532,11.79,328.202,8.771z M311.132,10.107c1.942,1.707,3.618,3.594,5.028,5.659l-2.746,2.041
		c-1.361-2.028-2.994-3.865-4.898-5.511L311.132,10.107z M284.153,22.224v-3.229h7.979V14.69c-1.707,0.26-3.859,0.501-6.457,0.724
		l-1.521-3.154c6.42-0.383,11.782-1.379,16.087-2.987l1.93,2.802c-2.4,0.854-4.589,1.484-6.568,1.893v5.028h7.904
		c-0.05-1.534-0.074-4.762-0.074-9.686h3.377c-0.037,3.291-0.037,6.519,0,9.686h10.372v3.229H306.92
		c0.086,3.154,0.315,6.117,0.687,8.888c1.756-2.016,3.34-4.484,4.75-7.403l2.969,1.484c-2.066,4.144-4.286,7.298-6.661,9.463
		c0.729,1.484,1.407,2.573,2.032,3.266c0.625,0.693,1.104,1.039,1.438,1.039c0.866,0,1.639-1.954,2.319-5.863l3.024,1.893
		c-0.495,2.412-1.147,4.28-1.958,5.604c-0.811,1.323-1.853,1.985-3.126,1.985c-2.128,0-4.243-1.899-6.346-5.696
		c-2.128,1.583-4.472,3.006-7.032,4.268l-1.893-2.82c2.932-1.373,5.498-2.888,7.7-4.546c-0.619-2.387-1.045-6.24-1.28-11.56h-7.941
		v5.251c1.893-0.383,3.995-0.915,6.309-1.596l0.074,3.303c-2.289,0.668-4.416,1.2-6.383,1.596v8.424
		c0,0.965-0.198,1.682-0.594,2.152c-0.396,0.47-0.897,0.776-1.503,0.918c-0.606,0.142-1.695,0.213-3.266,0.213
		c-1.175,0-2.326-0.031-3.451-0.093l-1.188-3.6c1.707,0.074,3.104,0.111,4.193,0.111c1.163,0,1.843-0.052,2.041-0.158
		c0.198-0.105,0.297-0.331,0.297-0.677v-6.568c-2.722,0.52-5.214,0.897-7.478,1.132l-0.612-3.154
		c2.449-0.272,5.146-0.705,8.09-1.299v-5.956H284.153z M317.218,105.631c-0.73,4.07-1.794,7.947-3.191,11.634l-2.932-1.41
		c0.742-1.917,1.466-4.273,2.171-7.069h-9.574c-1.113,2.846-2.227,5.164-3.34,6.958l-2.394-2.394
		c2.115-3.674,3.797-8.034,5.047-13.081l3.043,1.15c-0.334,1.46-0.755,2.864-1.262,4.212H317.218z M274.06,10.516l2.765,1.948
		c-2.264,2.882-4.849,5.412-7.756,7.589l-2.653-2.208C269.26,15.729,271.808,13.287,274.06,10.516z M251.441,10.404
		c3.204,2.647,5.752,5.09,7.645,7.329l-2.598,2.134c-1.744-2.152-4.299-4.57-7.663-7.255L251.441,10.404z M247.563,37.234h26.144
		v-5.214h-24.956v-3.08h24.956v-5.047h-26.144v-3.08h13.526V9.272h3.34v11.541h12.617v21.505h-3.34v-1.967h-26.144V37.234z
		 M246.84,102.402h14.064v-1.93h3.414v1.93h13.916v2.505h-13.916v1.818h12.246v2.486h-27.943v-2.486h12.283v-1.818H246.84V102.402z
		 M197.132,101.308c1.942,1.707,3.618,3.594,5.028,5.659l-2.746,2.041c-1.361-2.028-2.994-3.865-4.898-5.511L197.132,101.308z
		 M201.52,131.793c-0.811,1.323-1.853,1.985-3.126,1.985c-2.128,0-4.243-1.899-6.346-5.696c-2.128,1.584-4.472,3.006-7.032,4.268
		l-1.893-2.82c2.932-1.373,5.498-2.889,7.7-4.546c-0.619-2.388-1.045-6.24-1.28-11.56h-7.941v5.251
		c1.893-0.384,3.995-0.915,6.309-1.596l0.074,3.303c-2.289,0.668-4.416,1.2-6.383,1.596v8.424c0,0.965-0.198,1.683-0.594,2.152
		c-0.396,0.47-0.897,0.776-1.503,0.919c-0.606,0.142-1.695,0.213-3.266,0.213c-1.175,0-2.326-0.031-3.451-0.093l-1.188-3.6
		c1.707,0.074,3.104,0.111,4.193,0.111c1.163,0,1.843-0.052,2.041-0.157c0.198-0.105,0.297-0.331,0.297-0.678v-6.568
		c-2.722,0.52-5.214,0.896-7.478,1.132l-0.612-3.154c2.449-0.272,5.146-0.705,8.09-1.299v-5.956h-7.979v-3.229h7.979v-4.305
		c-1.707,0.26-3.859,0.501-6.457,0.724l-1.521-3.154c6.42-0.384,11.782-1.379,16.087-2.987l1.93,2.802
		c-2.4,0.854-4.589,1.484-6.568,1.893v5.028h7.904c-0.05-1.533-0.074-4.762-0.074-9.686h3.377c-0.037,3.291-0.037,6.52,0,9.686
		h10.372v3.229H192.92c0.086,3.154,0.315,6.117,0.687,8.888c1.756-2.017,3.34-4.483,4.75-7.403l2.969,1.484
		c-2.066,4.145-4.286,7.299-6.661,9.463c0.729,1.484,1.407,2.573,2.032,3.266c0.625,0.693,1.104,1.039,1.438,1.039
		c0.866,0,1.639-1.954,2.319-5.863l3.024,1.893C202.982,128.602,202.33,130.47,201.52,131.793z M240.234,133.667
		c-7.855-0.235-14.263-1.46-19.223-3.674c-3.55,2.115-7.502,3.42-11.856,3.915l-1.447-3.117c4.119-0.396,7.385-1.219,9.797-2.468
		c-1.893-1.138-3.513-2.381-4.861-3.729l2.579-1.967c1.954,1.732,3.643,2.944,5.065,3.637c1.188-1.113,1.905-2.646,2.152-4.602
		h-11.318v-14.974h11.856v-2.616h-14.621v-3.08h32.526v3.08h-14.565v2.616h11.671v14.974h-12.19
		c-0.347,2.61-1.095,4.602-2.245,5.975c4.639,1.72,10.669,2.685,18.091,2.895L240.234,133.667z M275.804,133.593h-3.47v-1.596
		h-19.52v1.596h-3.47v-8.813h26.459V133.593z M279.106,123.109h-33.102v-2.69h9.092c-0.322-0.718-0.73-1.54-1.225-2.468h-3.525
		v-7.032h24.474v7.032h-3.47l-1.206,2.468h8.962V123.109z M285.786,132.461l-2.189-2.468c3.266-3.266,5.888-7.081,7.867-11.448
		c-1.905-3.748-3.971-7.342-6.197-10.78l2.282-1.521h-3.358v-3.34h14.788c-0.495,5.479-1.8,10.645-3.915,15.493
		c1.484,2.932,2.789,5.882,3.915,8.851l-2.69,1.911c-0.804-2.189-1.806-4.484-3.006-6.884
		C291.019,126.381,288.52,129.777,285.786,132.461z M315.251,134.094c-3.649-3.129-6.234-7.248-7.756-12.357
		c-1.435,5.035-4.527,9.117-9.277,12.246l-2.245-2.394c3.426-2.239,5.903-4.784,7.431-7.636c1.527-2.851,2.229-7.158,2.106-12.923
		l3.229,0.037c0.223,8.882,3.136,15.784,8.739,20.707L315.251,134.094z M304.879,88.029l-2.022-2.949
		c7.756-5.06,12.481-11.257,14.176-18.592h-13.378l-0.037-3.414h13.86c0.272-2.659,0.427-5.368,0.464-8.127h3.414
		c-0.037,3.303-0.148,6.012-0.334,8.127h14.862v3.414h-13.768c1.855,8.165,6.605,14.522,14.25,19.075l-2.041,2.746
		c-7.509-4.787-12.389-11.158-14.64-19.112C317.323,76.842,312.387,83.119,304.879,88.029z M355.218,132.35h-24.047v1.317h-3.433
		v-14.77c-1.324,1.323-2.523,2.375-3.6,3.154l-2.319-2.783c3.995-2.944,7.149-6.327,9.463-10.149h-8.294v-3.266h10.149
		c0.717-1.397,1.503-3.284,2.356-5.659l3.34,0.872c-0.594,1.732-1.212,3.328-1.855,4.787h17.701v3.266h-19.445
		c-1.2,2.078-2.555,4.095-4.063,6.049v13.879h9.648v-8.869h-7.719v-3.229h7.719v-6.067h3.525v6.067h8.294v3.229h-8.294v8.869h10.873
		V132.35z M354.234,87.992l-1.113-3.229c1.744,0.063,2.987,0.094,3.729,0.094c0.928,0,1.537-0.131,1.828-0.391
		c0.291-0.26,0.516-0.578,0.677-0.955c0.161-0.377,0.241-1.537,0.241-3.479c0-0.619-0.013-1.193-0.037-1.727
		c-4.763,4.021-10.49,6.885-17.182,8.592l-1.484-2.857c6.902-1.436,12.945-4.484,18.128-9.148c-0.21-0.729-0.477-1.391-0.798-1.984
		c-4.527,3.5-9.71,5.857-15.549,7.068l-1.447-2.764c5.467-0.916,10.65-3.137,15.549-6.662c-0.074-0.098-0.507-0.575-1.299-1.428
		c-3.488,1.819-7.54,3.135-12.153,3.952l-1.521-2.894c5.158-0.532,9.92-2.016,14.287-4.453h-9.222v-2.95h21.468v2.95h-7.793
		c-0.619,0.619-1.392,1.2-2.319,1.744c1.583,1.732,2.721,3.532,3.414,5.4c2.61-1.299,5.108-3.124,7.496-5.474l2.394,2.134
		c-2.251,2.153-4.898,4.026-7.941,5.622c2.35,3.191,5.98,6.043,10.892,8.555l-1.93,2.764c-4.392-2.461-7.645-5.053-9.76-7.773
		c0.037,0.52,0.056,1.113,0.056,1.781c0,2.906-0.421,4.895-1.262,5.965c-0.841,1.07-2.468,1.605-4.88,1.605
		C356.071,88.049,355.249,88.029,354.234,87.992z M362.584,130.977l-2.728-2.06c1.311-1.868,2.474-4.181,3.488-6.939l2.932,1.392
		C365.064,126.66,363.833,129.195,362.584,130.977z M370.488,133.667h-3.34v-12.691h-6.995v-3.154h6.995v-2.987h-6.605v-3.043h3.729
		c-0.359-1.249-0.891-2.696-1.596-4.342l2.264-1.169h-4.323v-3.043h6.086c-0.235-0.718-0.619-1.49-1.15-2.319l3.618-0.798
		c0.668,1.299,1.138,2.338,1.41,3.117h6.383v3.043h-4.119l2.356,1.299c-0.594,1.521-1.237,2.926-1.93,4.212h3.729v3.043h-6.513
		v2.987h7.106v3.154h-7.106V133.667z M371.75,122.887l2.82-1.299c1.15,1.979,1.936,3.791,2.356,5.437l-2.746,1.559
		C373.599,126.592,372.789,124.693,371.75,122.887z M393.181,115.02h-3.451v18.573h-3.303V115.02h-3.841
		c-0.074,8.659-1.521,14.862-4.342,18.61l-2.765-2.264c2.474-3.327,3.711-8.424,3.711-15.289v-13.025
		c4.243-0.581,7.817-1.521,10.725-2.82l2.319,2.82c-2.759,1.2-5.975,2.159-9.648,2.876v5.826h10.595V115.02z M398.803,68.584h-6.754
		c-1.435,1.386-2.641,2.474-3.618,3.265h8.201v16.18h-3.303v-2.041h-7.366v2.041h-3.34V75.691c-0.569,0.334-1.354,0.723-2.356,1.168
		l-1.67-2.801c3.352-1.46,6.339-3.285,8.962-5.474h-8.479v-3.006h7.292v-4.063h-5.585v-3.006h5.585v-3.692h3.321v3.692h4.212v2.783
		c0.792-1.163,1.589-2.468,2.394-3.915l2.728,1.392c-1.472,2.66-2.95,4.93-4.435,6.81h4.212V68.584z M412.44,133.296h-3.266v-2.505
		h-6.865v2.876h-3.358v-27.646h3.396c0.952-1.757,1.694-3.687,2.227-5.789l3.507,0.575c-0.186,1.2-0.779,2.938-1.781,5.214h6.142
		V133.296z M430.42,120.354c-0.235,5.796-0.582,9.213-1.039,10.252c-0.458,1.039-1.154,1.803-2.087,2.291
		c-0.934,0.488-3.207,0.746-6.819,0.771l-1.262-3.34l5.084-0.037c0.482,0,0.996-0.204,1.54-0.612
		c0.544-0.408,0.952-3.16,1.225-8.257c0.272-5.097,0.402-9.067,0.39-11.912h-7.626c-1.188,3.019-2.53,5.591-4.026,7.719
		l-2.598-2.319c2.721-4.403,4.639-9.32,5.752-14.751l3.34,0.724c-0.248,1.287-0.693,3.062-1.336,5.325h9.853
		C430.785,109.843,430.655,114.559,430.42,120.354z M417.079,116.912l2.969-1.855c2.523,3.154,4.273,5.863,5.251,8.127l-2.969,1.911
		C420.697,121.829,418.947,119.102,417.079,116.912z M435.244,87.955h-3.563V68.918c-4.008,4.156-8.356,7.589-13.044,10.298
		l-1.967-2.877c8.584-4.947,14.497-10.724,17.738-17.33H417.32v-3.34h32.322v3.34h-11.318c-0.755,1.608-1.781,3.408-3.08,5.399
		v1.855c7.211,4.156,12.277,7.577,15.196,10.26l-1.967,2.766c-3.971-3.315-8.381-6.365-13.229-9.148V87.955z M436.914,130.68
		l-1.169-3.006c1.41-0.531,3.08-1.23,5.01-2.097v-9.537h-4.101v-3.117h4.101v-7.403h-4.639v-3.154h12.209v3.154h-4.305v7.403h3.692
		v3.117h-3.692v8.016c1.67-0.804,3-1.521,3.989-2.152l1.002,3.08C444.818,127.334,440.786,129.232,436.914,130.68z M467.659,122.738
		c-2.437-3.043-5.06-5.758-7.867-8.146v18.926h-3.303v-18.722c-2.362,3.501-4.67,6.186-6.921,8.053l-2.041-2.505
		c4.663-4.292,8.232-9.667,10.706-16.124h-8.851v-3.191h19.761v3.191h-7.44l-1.911,4.416v2.041
		c4.478,3.501,7.836,6.698,10.075,9.593L467.659,122.738z M473.856,128.045c1.646-0.655,2.851-1.175,3.618-1.559v-13.322h-3.117
		v-3.247h3.117v-9.537h3.303v9.537h2.728v3.247h-2.728v11.764c1.162-0.581,2.313-1.175,3.451-1.781l0.39,3.433
		c-3.093,1.683-6.364,3.247-9.815,4.694L473.856,128.045z M506.81,131.589c-0.347,0.804-0.804,1.342-1.373,1.614
		c-0.569,0.271-1.868,0.408-3.896,0.408c-1.521,0-2.635-0.189-3.34-0.566s-1.058-1.055-1.058-2.031v-6.568h-3.637
		c-0.161,2.672-0.975,4.777-2.439,6.318c-1.467,1.539-3.925,2.637-7.376,3.293l-1.633-3.006c2.857-0.358,4.892-1.049,6.104-2.068
		c1.212-1.021,1.904-2.533,2.078-4.537h-4.342v-11.56h19.687v11.56h-5.158v5.195c0,0.644,0.34,0.965,1.021,0.965
		c1.249,0,2.028-0.182,2.338-0.547c0.309-0.365,0.52-1.513,0.631-3.442l3.154,1.058C507.409,129.48,507.156,130.785,506.81,131.589z
		 M504.676,88.494l-2.616-2.283c3.81-3.66,6.507-7.118,8.09-10.371l2.932,1.67C511.324,80.998,508.522,84.659,504.676,88.494z
		 M543.399,122.627h-13.044v10.966h-3.488v-10.966h-12.988v-16.05h12.988v-6.104h3.488v6.104h13.044V122.627z M544.123,83.93
		c2.932-1.373,5.498-2.889,7.7-4.547c-0.618-2.387-1.046-6.24-1.28-11.559h-7.941v5.25c1.893-0.383,3.995-0.914,6.309-1.596
		l0.074,3.303c-2.289,0.668-4.416,1.201-6.383,1.596v8.424c0,0.965-0.198,1.683-0.594,2.152c-0.396,0.471-0.896,0.776-1.503,0.919
		c-0.606,0.142-1.694,0.214-3.266,0.214c-1.175,0-2.325-0.031-3.451-0.094l-1.188-3.6c1.707,0.074,3.104,0.111,4.193,0.111
		c1.163,0,1.843-0.052,2.041-0.157c0.198-0.104,0.297-0.331,0.297-0.677v-6.568c-2.722,0.52-5.214,0.896-7.478,1.131l-0.612-3.154
		c2.449-0.271,5.146-0.705,8.09-1.299v-5.956h-7.979v-3.229h7.979v-4.305c-1.707,0.26-3.859,0.501-6.457,0.724l-1.521-3.154
		c6.42-0.383,11.782-1.379,16.087-2.987l1.93,2.802c-2.4,0.854-4.59,1.484-6.568,1.893v5.028h7.904
		c-0.05-1.534-0.074-4.762-0.074-9.686h3.377c-0.037,3.291-0.037,6.519,0,9.686h10.372v3.229H553.92
		c0.086,3.155,0.315,6.118,0.687,8.887c1.757-2.016,3.34-4.483,4.75-7.403l2.969,1.485c-2.065,4.144-4.286,7.298-6.661,9.463
		c0.729,1.484,1.406,2.572,2.031,3.266c0.625,0.692,1.104,1.039,1.438,1.039c0.866,0,1.639-1.955,2.319-5.863l3.024,1.893
		c-0.495,2.412-1.147,4.279-1.958,5.604c-0.811,1.322-1.852,1.984-3.126,1.984c-2.128,0-4.243-1.898-6.346-5.695
		c-2.128,1.583-4.472,3.006-7.032,4.268L544.123,83.93z M559.319,106.317l-2.653,2.004c-1.571-2.14-3.346-4.162-5.325-6.067
		l2.653-2.022C556.084,102.285,557.859,104.313,559.319,106.317z M553.159,129.158c0.26-0.136,0.39-0.494,0.39-1.076v-14.436h-3.581
		v-3.303h6.884v15.883c1.063-0.915,2.103-1.88,3.117-2.895l1.447,2.932c-1.757,1.855-3.989,3.779-6.698,5.771L553.159,129.158z
		 M583.069,132.962h-23.453v-3.191h2.82V110.27h3.377v19.501h4.527v-25.049h-9.89v-3.229h22.117v3.229h-8.888v9.24h8.201v3.229
		h-8.201v12.58h9.389V132.962z M585.63,75.877c-1.089,0-2.065-0.412-2.932-1.234s-1.299-1.852-1.299-3.09
		c0-1.174,0.417-2.167,1.253-2.978c0.834-0.81,1.84-1.215,3.015-1.215c1.163,0,2.155,0.415,2.978,1.243
		c0.822,0.829,1.234,1.813,1.234,2.95c0,1.225-0.427,2.252-1.28,3.08C587.745,75.463,586.756,75.877,585.63,75.877z
		 M600.845,128.973h-3.303v-2.208h-5.27v3.08h-3.321V102.18h11.894V128.973z M620.16,129.604c0,1.25-0.186,2.146-0.557,2.69
		s-0.854,0.896-1.447,1.058c-0.594,0.16-1.732,0.241-3.414,0.241c-1.102,0-2.158-0.024-3.173-0.074l-1.15-3.34
		c2.041,0.05,3.729,0.074,5.065,0.074c0.828,0,1.243-0.377,1.243-1.132v-7.106h-8.851c-0.545,5.034-1.911,8.999-4.101,11.894
		l-2.857-1.985c2.486-3.575,3.729-8.275,3.729-14.102v-16.514h15.512V129.604z M603.368,23.745l3.024-1.447
		c2.561,3.983,4.323,7.478,5.288,10.483l-3.006,1.373C607.611,30.703,605.842,27.233,603.368,23.745z M621.292,19.57h-3.841v19.761
		c0,0.953-0.315,1.722-0.946,2.31c-0.631,0.587-1.441,0.881-2.431,0.881c-2.969,0-5.022-0.031-6.16-0.093l-1.021-3.229
		c1.646,0.124,3.13,0.186,4.453,0.186c1.41,0,2.229-0.059,2.458-0.176c0.229-0.117,0.344-0.318,0.344-0.603V19.57h-12.766v-3.08
		h12.766V9.458h3.303v7.032h3.841V19.57z M656.101,133.593h-3.488v-1.93h-19.946v1.93h-3.47v-29.057h9.166
		c0.718-1.138,1.349-2.573,1.893-4.305l3.692,0.612c-0.396,1.373-0.953,2.604-1.67,3.692h13.823V133.593z M696.68,128.574
		c-0.371,1.762-1.066,2.984-2.088,3.664c-1.02,0.68-2.662,1.021-4.926,1.021c-5.072,0-9.707-0.024-13.906-0.074
		c-4.2-0.05-6.56-0.155-7.079-0.315c-0.52-0.161-1.048-0.541-1.587-1.141c-0.537-0.6-0.807-1.296-0.807-2.088v-16.402h24.437v-8.517
		h-26.106v-3.34h29.632v15.159h-24.381v12.469c0,0.347,0.177,0.569,0.528,0.668c0.354,0.1,1.67,0.174,3.953,0.223
		c2.281,0.05,4.789,0.074,7.523,0.074c5.739,0,9.033-0.059,9.881-0.176c0.847-0.117,1.395-0.932,1.642-2.44s0.371-3.34,0.371-5.492
		l3.525,1.206C697.255,124.978,697.051,126.811,696.68,128.574z M721.599,120.233c-0.854,0.829-1.843,1.243-2.969,1.243
		c-1.089,0-2.065-0.411-2.932-1.234c-0.866-0.822-1.299-1.852-1.299-3.089c0-1.175,0.417-2.167,1.253-2.978
		c0.834-0.811,1.84-1.216,3.015-1.216c1.163,0,2.155,0.415,2.978,1.243c0.822,0.829,1.234,1.813,1.234,2.95
		C722.879,118.378,722.452,119.404,721.599,120.233z"/>
	<path fill="#FFFFFF" d="M718.648,115.001c-0.644,0-1.169,0.22-1.577,0.659s-0.612,0.949-0.612,1.53
		c0,0.606,0.213,1.132,0.641,1.577c0.426,0.445,0.992,0.668,1.697,0.668c0.568,0,1.055-0.229,1.457-0.687
		c0.401-0.458,0.603-0.971,0.603-1.54c0-0.568-0.198-1.079-0.594-1.531C719.867,115.227,719.328,115.001,718.648,115.001z"/>
</g>
</svg>
