<?xml version="1.0" encoding="utf-8"?>
<!-- Generator: Adobe Illustrator 16.0.0, SVG Export Plug-In . SVG Version: 6.00 Build 0)  -->
<!DOCTYPE svg PUBLIC "-//W3C//DTD SVG 1.1//EN" "http://www.w3.org/Graphics/SVG/1.1/DTD/svg11.dtd">
<svg version="1.1" id="Layer_1" xmlns="http://www.w3.org/2000/svg" xmlns:xlink="http://www.w3.org/1999/xlink" x="0px" y="0px"
	 width="900px" height="190px" viewBox="0 -0.25 900 190" enable-background="new 0 -0.25 900 190" xml:space="preserve">
<text transform="matrix(1 0 0 1 13.002 323)" font-family="'HelveticaNeueLTPro-Blk'" font-size="40">Helvetica - 95Black - 40pt</text>
<text transform="matrix(1 0 0 1 113.8442 -243.5)"><tspan x="0" y="0" font-family="'HelveticaNeueLTPro-Blk'" font-size="40">My focus right now is to give the </tspan><tspan x="-98.459" y="48" font-family="'HelveticaNeueLTPro-Blk'" font-size="40">supporters and the city what they’ve been </tspan><tspan x="-82.58" y="96" font-family="'HelveticaNeueLTPro-Blk'" font-size="40">waiting for. What they deserve. I want to </tspan><tspan x="59.699" y="144" font-family="'HelveticaNeueLTPro-Blk'" font-size="40">help win them the MLS Cup</tspan></text>
<path fill="#FFFFFF" d="M111.024,4.363h12.518l4.08,16.797h0.08l4.078-16.797h12.519v28.555h-8.319V14.602h-0.08l-4.959,18.317
	h-6.559l-4.959-18.317h-0.08v18.317h-8.318V4.363z M162.501,31.319c-0.64,1.879-1.359,4.199-2.6,5.759
	c-2.119,2.56-5.238,2.56-8.358,2.56h-3.599v-6.319h1.839h1.28c0.439,0,0.84-0.08,1.119-0.2c0.48-0.28,0.76-0.64,0.76-1.56
	c0-0.96-3.039-8.639-3.479-9.838l-3.52-9.558h8.479l3.319,11.918h0.08l3.359-11.918h8.198L162.501,31.319z M185.624,17.041h-3.24
	v-4.879h3.24c-0.121-2.04,0.08-4.279,1.639-5.839c1.721-1.72,3.72-1.959,6.92-1.959c1.239,0,2.318,0.12,3.559,0.16v5.439
	c-0.64-0.12-1.279-0.28-1.92-0.28c-1.92,0-2.559,0.56-2.439,2.48h4.16v4.879h-4v15.877h-7.918V17.041z M210.302,33.438
	c-7.799,0-11.318-5.159-11.318-10.918c0-5.719,3.52-10.878,11.318-10.878s11.318,5.159,11.318,10.878
	C221.62,28.279,218.101,33.438,210.302,33.438z M210.302,17.401c-3.039,0-3.4,2.92-3.4,5.119c0,2.2,0.361,5.159,3.4,5.159
	s3.399-2.959,3.399-5.159C213.701,20.321,213.341,17.401,210.302,17.401z M238.461,20.041c-0.08-0.88-0.36-1.52-0.88-1.959
	s-1.16-0.68-2-0.68c-3.039,0-3.479,2.64-3.479,5.159c0,2.56,0.44,5.119,3.479,5.119c1.72,0,2.92-1.399,3.08-3.04h7.559
	c-0.76,5.639-5.199,8.799-10.799,8.799c-6.238,0-11.238-4.319-11.238-10.878c0-6.559,5-10.918,11.238-10.918
	c5.479,0,10.039,2.64,10.559,8.398H238.461z M271.099,32.918h-7.639v-2.64h-0.08c-1.479,2.08-3.559,3.16-6.759,3.16
	c-3.72,0-7.118-2.28-7.118-7.039V12.162h7.918V23.04c0,2.4,0.24,4.08,2.6,4.08c1.4,0,3.16-0.68,3.16-4V12.162h7.918V32.918z
	 M287.421,18.201c-0.041-0.68-0.4-1.2-0.92-1.56c-0.48-0.4-1.08-0.6-1.76-0.6c-1.12,0-2.4,0.28-2.4,1.6c0,0.6,0.48,0.88,0.92,1.08
	c1.28,0.52,4.319,0.76,6.959,1.6c2.68,0.84,4.959,2.399,4.959,5.799c0,5.759-5.519,7.319-10.559,7.319
	c-4.879,0-10.238-1.96-10.357-7.319h7.559c0.04,0.68,0.359,1.32,0.96,1.84c0.44,0.4,1.159,0.6,2.12,0.6c1.039,0,2.679-0.4,2.679-1.6
	s-0.68-1.56-4.358-2.2c-6.039-1-8.479-2.959-8.479-6.519c0-5.239,5.639-6.599,9.798-6.599c4.479,0,9.878,1.24,10.078,6.559H287.421z
	 M311.742,12.162h7.599v3.319h0.08c1.279-2.52,2.959-3.839,5.839-3.839c0.76,0,1.521,0.12,2.319,0.32v6.999
	c-0.799-0.28-1.52-0.52-3.119-0.52c-3.159,0-4.799,1.8-4.799,6.279v8.199h-7.919V12.162z M337.58,9.922h-7.919V4.363h7.919V9.922z
	 M329.661,12.162h7.919v20.756h-7.919V12.162z M363.257,30.239c0,4.16-1.079,9.918-10.797,9.918c-4.92,0-10.079-1.32-10.839-6.919
	h7.839c0.119,0.2,0.279,0.44,0.439,0.72c0.48,0.76,1.32,1.52,2.32,1.52c2.559,0,3.119-3.04,3.119-4.759v-1.919h-0.08
	c-1.279,1.879-3.159,2.879-5.559,2.879c-6.119,0-8.879-4.559-8.879-10.118c0-5.399,3.08-9.918,8.998-9.918
	c2.359,0,4.52,0.92,5.439,3.04h0.08v-2.52h7.918V30.239z M352.3,26.6c2.919,0,3.238-2.8,3.238-5.119c0-2.28-1.079-4.08-3.438-4.08
	c-2.28,0-3.36,1.92-3.36,4.12C348.739,23.88,349.46,26.6,352.3,26.6z M367.3,4.363h7.919v10.038h0.08
	c1.319-1.6,3.12-2.759,6.479-2.759c3.719,0,7.118,2.28,7.118,7.039v14.238h-7.919V22.041c0-2.4-0.279-4.08-2.6-4.08
	c-1.399,0-3.159,0.68-3.159,4v10.958H367.3V4.363z M402.739,12.162h4.238v4.879h-4.238v7.239c0,1.92,0.399,2.76,2.439,2.76
	c0.6,0,1.199-0.04,1.799-0.12v5.999c-1.6,0-3.359,0.24-5.078,0.24c-3.36,0-7.08-0.52-7.08-6.199v-9.918h-3.52v-4.879h3.52V5.843
	h7.92V12.162z M422.86,12.162h7.639v2.639h0.08c1.479-2.08,3.56-3.159,6.759-3.159c3.72,0,7.118,2.28,7.118,7.039v14.238h-7.918
	V22.041c0-2.4-0.279-4.08-2.6-4.08c-1.4,0-3.16,0.68-3.16,4v10.958h-7.918V12.162z M459.218,33.438
	c-7.799,0-11.318-5.159-11.318-10.918c0-5.719,3.52-10.878,11.318-10.878s11.318,5.159,11.318,10.878
	C470.536,28.279,467.017,33.438,459.218,33.438z M459.218,17.401c-3.039,0-3.399,2.92-3.399,5.119c0,2.2,0.36,5.159,3.399,5.159
	s3.399-2.959,3.399-5.159C462.617,20.321,462.257,17.401,459.218,17.401z M500.335,32.918h-8.119l-2.999-12.758h-0.08l-3.079,12.758
	h-8.119l-6.479-20.756h8.238L482.778,25h0.08l2.639-12.838h7.399L495.655,25h0.16l2.88-12.838h8.239L500.335,32.918z M530.218,9.922
	H522.3V4.363h7.918V9.922z M522.3,12.162h7.918v20.756H522.3V12.162z M546.737,18.201c-0.041-0.68-0.4-1.2-0.92-1.56
	c-0.48-0.4-1.08-0.6-1.76-0.6c-1.12,0-2.4,0.28-2.4,1.6c0,0.6,0.48,0.88,0.92,1.08c1.28,0.52,4.319,0.76,6.959,1.6
	c2.68,0.84,4.959,2.399,4.959,5.799c0,5.759-5.519,7.319-10.559,7.319c-4.879,0-10.238-1.96-10.357-7.319h7.559
	c0.04,0.68,0.359,1.32,0.96,1.84c0.44,0.4,1.159,0.6,2.12,0.6c1.039,0,2.679-0.4,2.679-1.6s-0.68-1.56-4.358-2.2
	c-6.039-1-8.479-2.959-8.479-6.519c0-5.239,5.639-6.599,9.798-6.599c4.479,0,9.878,1.24,10.078,6.559H546.737z M580.577,12.162
	h4.239v4.879h-4.239v7.239c0,1.92,0.4,2.76,2.439,2.76c0.6,0,1.199-0.04,1.8-0.12v5.999c-1.601,0-3.359,0.24-5.079,0.24
	c-3.359,0-7.079-0.52-7.079-6.199v-9.918h-3.52v-4.879h3.52V5.843h7.919V12.162z M597.776,33.438
	c-7.799,0-11.318-5.159-11.318-10.918c0-5.719,3.52-10.878,11.318-10.878s11.318,5.159,11.318,10.878
	C609.095,28.279,605.575,33.438,597.776,33.438z M597.776,17.401c-3.039,0-3.399,2.92-3.399,5.119c0,2.2,0.36,5.159,3.399,5.159
	s3.399-2.959,3.399-5.159C601.176,20.321,600.815,17.401,597.776,17.401z M647.054,30.239c0,4.16-1.079,9.918-10.797,9.918
	c-4.92,0-10.079-1.32-10.839-6.919h7.839c0.119,0.2,0.279,0.44,0.439,0.72c0.48,0.76,1.32,1.52,2.32,1.52
	c2.559,0,3.119-3.04,3.119-4.759v-1.919h-0.08c-1.279,1.879-3.159,2.879-5.559,2.879c-6.119,0-8.879-4.559-8.879-10.118
	c0-5.399,3.08-9.918,8.998-9.918c2.359,0,4.52,0.92,5.439,3.04h0.08v-2.52h7.918V30.239z M636.097,26.6
	c2.919,0,3.238-2.8,3.238-5.119c0-2.28-1.079-4.08-3.438-4.08c-2.28,0-3.36,1.92-3.36,4.12C632.536,23.88,633.257,26.6,636.097,26.6
	z M659.177,9.922h-7.919V4.363h7.919V9.922z M651.258,12.162h7.919v20.756h-7.919V12.162z M677.294,32.918h-9.357l-6.799-20.756
	h8.357l3.24,12.638h0.08l3.279-12.638h8.078L677.294,32.918z M692.616,24.32c0.199,2.4,1.52,4.04,4.039,4.04
	c1.279,0,2.68-0.48,3.319-1.48h7.399c-1.601,4.479-6,6.559-10.679,6.559c-6.64,0-11.638-3.919-11.638-10.838
	c0-6.039,4.359-10.958,10.957-10.958c8.239,0,11.799,4.559,11.799,12.678H692.616z M700.214,20.201c0-1.92-1.439-3.479-3.479-3.479
	c-2.4,0-3.72,1.24-4.08,3.479H700.214z M734.015,12.162h4.24v4.879h-4.24v7.239c0,1.92,0.4,2.76,2.439,2.76
	c0.601,0,1.2-0.04,1.801-0.12v5.999c-1.601,0-3.359,0.24-5.08,0.24c-3.359,0-7.078-0.52-7.078-6.199v-9.918h-3.52v-4.879h3.52V5.843
	h7.918V12.162z M740.776,4.363h7.918v10.038h0.08c1.32-1.6,3.12-2.759,6.479-2.759c3.72,0,7.118,2.28,7.118,7.039v14.238h-7.918
	V22.041c0-2.4-0.279-4.08-2.6-4.08c-1.4,0-3.16,0.68-3.16,4v10.958h-7.918V4.363z M773.375,24.32c0.2,2.4,1.521,4.04,4.04,4.04
	c1.279,0,2.68-0.48,3.318-1.48h7.399c-1.601,4.479-5.999,6.559-10.679,6.559c-6.639,0-11.638-3.919-11.638-10.838
	c0-6.039,4.359-10.958,10.958-10.958c8.238,0,11.799,4.559,11.799,12.678H773.375z M780.974,20.201c0-1.92-1.439-3.479-3.479-3.479
	c-2.4,0-3.721,1.24-4.08,3.479H780.974z M24.483,66.201c-0.04-0.68-0.4-1.2-0.92-1.56c-0.48-0.4-1.08-0.6-1.76-0.6
	c-1.12,0-2.399,0.28-2.399,1.6c0,0.6,0.48,0.88,0.92,1.08c1.28,0.52,4.319,0.76,6.958,1.6c2.68,0.84,4.959,2.399,4.959,5.799
	c0,5.759-5.519,7.319-10.559,7.319c-4.879,0-10.238-1.96-10.358-7.319h7.559c0.04,0.68,0.36,1.32,0.96,1.84
	c0.44,0.4,1.16,0.6,2.12,0.6c1.04,0,2.679-0.4,2.679-1.6s-0.68-1.56-4.359-2.2c-6.039-1-8.479-2.959-8.479-6.519
	c0-5.239,5.639-6.599,9.798-6.599c4.479,0,9.878,1.24,10.078,6.559H24.483z M57.04,80.918h-7.639v-2.64h-0.08
	c-1.479,2.08-3.559,3.16-6.758,3.16c-3.719,0-7.119-2.28-7.119-7.039V60.162h7.918V71.04c0,2.4,0.24,4.08,2.6,4.08
	c1.4,0,3.16-0.68,3.16-4V60.162h7.918V80.918z M61.364,60.162h7.639v2.279h0.08c0.96-1.28,2.24-2.799,6.079-2.799
	c5.879,0,8.718,5.759,8.718,10.998c0,4.919-1.879,10.798-8.838,10.798c-2.399,0-4.439-1.04-5.68-2.8h-0.08v8.999h-7.918V60.162z
	 M72.482,75.679c2.839,0,3.479-2.679,3.479-5.119c0-2.439-0.641-5.159-3.479-5.159s-3.479,2.72-3.479,5.159
	C69.003,73,69.644,75.679,72.482,75.679z M87.284,60.162h7.639v2.279h0.08c0.96-1.28,2.24-2.799,6.079-2.799
	c5.879,0,8.718,5.759,8.718,10.998c0,4.919-1.879,10.798-8.838,10.798c-2.399,0-4.439-1.04-5.68-2.8h-0.08v8.999h-7.918V60.162z
	 M98.402,75.679c2.839,0,3.479-2.679,3.479-5.119c0-2.439-0.641-5.159-3.479-5.159s-3.479,2.72-3.479,5.159
	C94.923,73,95.563,75.679,98.402,75.679z M123.642,81.438c-7.799,0-11.318-5.159-11.318-10.918c0-5.719,3.52-10.878,11.318-10.878
	s11.318,5.159,11.318,10.878C134.96,76.279,131.44,81.438,123.642,81.438z M123.642,65.401c-3.039,0-3.399,2.92-3.399,5.119
	c0,2.2,0.36,5.159,3.399,5.159s3.399-2.959,3.399-5.159C127.041,68.321,126.681,65.401,123.642,65.401z M138.403,60.162h7.599v3.319
	h0.08c1.28-2.52,2.96-3.839,5.839-3.839c0.76,0,1.52,0.12,2.32,0.32v6.999c-0.801-0.28-1.521-0.52-3.12-0.52
	c-3.159,0-4.8,1.8-4.8,6.279v8.199h-7.918V60.162z M165.681,60.162h4.24v4.879h-4.24v7.239c0,1.92,0.4,2.76,2.439,2.76
	c0.601,0,1.2-0.04,1.801-0.12v5.999c-1.601,0-3.359,0.24-5.08,0.24c-3.359,0-7.078-0.52-7.078-6.199v-9.918h-3.52v-4.879h3.52
	v-6.319h7.918V60.162z M179.122,72.32c0.199,2.4,1.52,4.04,4.039,4.04c1.279,0,2.68-0.48,3.319-1.48h7.399
	c-1.601,4.479-6,6.559-10.679,6.559c-6.64,0-11.638-3.919-11.638-10.838c0-6.039,4.359-10.958,10.957-10.958
	c8.239,0,11.799,4.559,11.799,12.678H179.122z M186.72,68.201c0-1.92-1.439-3.479-3.479-3.479c-2.4,0-3.72,1.24-4.08,3.479H186.72z
	 M197.642,60.162h7.6v3.319h0.08c1.279-2.52,2.959-3.839,5.838-3.839c0.76,0,1.521,0.12,2.32,0.32v6.999
	c-0.8-0.28-1.52-0.52-3.119-0.52c-3.16,0-4.8,1.8-4.8,6.279v8.199h-7.919V60.162z M227.399,66.201c-0.039-0.68-0.399-1.2-0.92-1.56
	c-0.479-0.4-1.079-0.6-1.76-0.6c-1.119,0-2.398,0.28-2.398,1.6c0,0.6,0.479,0.88,0.92,1.08c1.279,0.52,4.318,0.76,6.958,1.6
	c2.68,0.84,4.96,2.399,4.96,5.799c0,5.759-5.52,7.319-10.559,7.319c-4.879,0-10.238-1.96-10.358-7.319h7.559
	c0.04,0.68,0.36,1.32,0.96,1.84c0.439,0.4,1.16,0.6,2.119,0.6c1.04,0,2.68-0.4,2.68-1.6s-0.68-1.56-4.359-2.2
	c-6.039-1-8.479-2.959-8.479-6.519c0-5.239,5.639-6.599,9.799-6.599c4.479,0,9.878,1.24,10.078,6.559H227.399z M271.958,76.279
	c0,1.56,0.039,3.319,0.959,4.639h-8.078c-0.199-0.6-0.32-1.36-0.279-1.959h-0.08c-1.721,1.919-4.119,2.479-6.68,2.479
	c-3.999,0-7.318-1.92-7.318-6.279c0-6.599,7.719-6.279,11.718-7.079c1.08-0.2,2.159-0.52,2.159-1.84c0-1.399-1.319-1.919-2.6-1.919
	c-2.398,0-2.959,1.24-2.959,2.12h-7.358c0.2-5.879,5.799-6.799,10.679-6.799c9.918,0,9.838,4.119,9.838,8.119V76.279z M264.358,71.6
	c-0.959,0.48-2.039,0.72-3.119,1c-1.76,0.439-2.68,0.84-2.68,2.239c0,0.96,1.04,1.92,2.48,1.92c1.799,0,3.199-1.04,3.318-3.24V71.6z
	 M276.161,60.162h7.639v2.639h0.08c1.479-2.08,3.56-3.159,6.759-3.159c3.72,0,7.118,2.28,7.118,7.039v14.238h-7.918V70.041
	c0-2.4-0.279-4.08-2.6-4.08c-1.4,0-3.16,0.68-3.16,4v10.958h-7.918V60.162z M323.677,80.918h-7.639v-2.28h-0.08
	c-0.959,1.28-2.239,2.8-6.078,2.8c-5.88,0-8.719-5.759-8.719-10.998c0-4.919,1.879-10.798,8.838-10.798c2.4,0,4.439,1.04,5.68,2.799
	h0.08V52.363h7.918V80.918z M312.559,65.401c-2.839,0-3.479,2.68-3.479,5.119c0,2.44,0.641,5.159,3.479,5.159
	c2.84,0,3.479-2.719,3.479-5.159C316.038,68.081,315.398,65.401,312.559,65.401z M350.88,60.162h4.238v4.879h-4.238v7.239
	c0,1.92,0.399,2.76,2.439,2.76c0.6,0,1.199-0.04,1.799-0.12v5.999c-1.6,0-3.359,0.24-5.078,0.24c-3.36,0-7.08-0.52-7.08-6.199
	v-9.918h-3.52v-4.879h3.52v-6.319h7.92V60.162z M357.641,52.363h7.919v10.038h0.08c1.319-1.6,3.119-2.759,6.479-2.759
	c3.719,0,7.119,2.28,7.119,7.039v14.238h-7.919V70.041c0-2.4-0.28-4.08-2.6-4.08c-1.399,0-3.159,0.68-3.159,4v10.958h-7.919V52.363z
	 M390.239,72.32c0.199,2.4,1.52,4.04,4.039,4.04c1.279,0,2.68-0.48,3.319-1.48h7.399c-1.601,4.479-6,6.559-10.679,6.559
	c-6.64,0-11.638-3.919-11.638-10.838c0-6.039,4.359-10.958,10.957-10.958c8.239,0,11.799,4.559,11.799,12.678H390.239z
	 M397.837,68.201c0-1.92-1.439-3.479-3.479-3.479c-2.4,0-3.72,1.24-4.08,3.479H397.837z M435.518,68.041
	c-0.08-0.88-0.36-1.52-0.88-1.959s-1.16-0.68-2-0.68c-3.039,0-3.479,2.64-3.479,5.159c0,2.56,0.44,5.119,3.479,5.119
	c1.72,0,2.92-1.399,3.08-3.04h7.559c-0.76,5.639-5.199,8.799-10.799,8.799c-6.238,0-11.238-4.319-11.238-10.878
	c0-6.559,5-10.918,11.238-10.918c5.479,0,10.039,2.64,10.559,8.398H435.518z M454.638,57.922h-7.918v-5.559h7.918V57.922z
	 M446.72,60.162h7.918v20.756h-7.918V60.162z M468.678,60.162h4.239v4.879h-4.239v7.239c0,1.92,0.399,2.76,2.439,2.76
	c0.6,0,1.2-0.04,1.8-0.12v5.999c-1.6,0-3.359,0.24-5.079,0.24c-3.36,0-7.079-0.52-7.079-6.199v-9.918h-3.52v-4.879h3.52v-6.319
	h7.919V60.162z M489.237,79.319c-0.641,1.879-1.36,4.199-2.6,5.759c-2.12,2.56-5.24,2.56-8.359,2.56h-3.6v-6.319h1.84h1.279
	c0.44,0,0.84-0.08,1.121-0.2c0.479-0.28,0.76-0.64,0.76-1.56c0-0.96-3.04-8.639-3.48-9.838l-3.52-9.558h8.479l3.319,11.918h0.08
	l3.359-11.918h8.198L489.237,79.319z M537.395,80.918h-8.118l-3-12.758h-0.08l-3.079,12.758h-8.118l-6.479-20.756h8.239L519.837,73
	h0.08l2.641-12.838h7.398L532.716,73h0.16l2.879-12.838h8.238L537.395,80.918z M545.839,52.363h7.918v10.038h0.08
	c1.32-1.6,3.12-2.759,6.479-2.759c3.72,0,7.118,2.28,7.118,7.039v14.238h-7.918V70.041c0-2.4-0.279-4.08-2.6-4.08
	c-1.4,0-3.16,0.68-3.16,4v10.958h-7.918V52.363z M591.995,76.279c0,1.56,0.039,3.319,0.959,4.639h-8.078
	c-0.199-0.6-0.32-1.36-0.279-1.959h-0.08c-1.721,1.919-4.119,2.479-6.68,2.479c-3.999,0-7.318-1.92-7.318-6.279
	c0-6.599,7.719-6.279,11.718-7.079c1.08-0.2,2.159-0.52,2.159-1.84c0-1.399-1.319-1.919-2.6-1.919c-2.398,0-2.959,1.24-2.959,2.12
	h-7.358c0.2-5.879,5.799-6.799,10.679-6.799c9.918,0,9.838,4.119,9.838,8.119V76.279z M584.396,71.6c-0.959,0.48-2.039,0.72-3.119,1
	c-1.76,0.439-2.68,0.84-2.68,2.239c0,0.96,1.04,1.92,2.48,1.92c1.799,0,3.199-1.04,3.318-3.24V71.6z M605.717,60.162h4.239v4.879
	h-4.239v7.239c0,1.92,0.399,2.76,2.439,2.76c0.6,0,1.2-0.04,1.8-0.12v5.999c-1.6,0-3.359,0.24-5.079,0.24
	c-3.36,0-7.079-0.52-7.079-6.199v-9.918h-3.52v-4.879h3.52v-6.319h7.919V60.162z M635.356,60.162h4.24v4.879h-4.24v7.239
	c0,1.92,0.4,2.76,2.439,2.76c0.601,0,1.2-0.04,1.801-0.12v5.999c-1.601,0-3.359,0.24-5.08,0.24c-3.359,0-7.078-0.52-7.078-6.199
	v-9.918h-3.52v-4.879h3.52v-6.319h7.918V60.162z M642.118,52.363h7.918v10.038h0.08c1.32-1.6,3.12-2.759,6.479-2.759
	c3.72,0,7.118,2.28,7.118,7.039v14.238h-7.918V70.041c0-2.4-0.279-4.08-2.6-4.08c-1.4,0-3.16,0.68-3.16,4v10.958h-7.918V52.363z
	 M674.716,72.32c0.201,2.4,1.521,4.04,4.04,4.04c1.28,0,2.68-0.48,3.319-1.48h7.398c-1.6,4.479-5.998,6.559-10.678,6.559
	c-6.639,0-11.639-3.919-11.639-10.838c0-6.039,4.359-10.958,10.959-10.958c8.238,0,11.798,4.559,11.798,12.678H674.716z
	 M682.315,68.201c0-1.92-1.439-3.479-3.479-3.479c-2.399,0-3.72,1.24-4.079,3.479H682.315z M707.035,79.319
	c-0.64,1.879-1.36,4.199-2.6,5.759c-2.12,2.56-5.239,2.56-8.358,2.56h-3.6v-6.319h1.84h1.279c0.439,0,0.84-0.08,1.12-0.2
	c0.479-0.28,0.76-0.64,0.76-1.56c0-0.96-3.04-8.639-3.479-9.838l-3.52-9.558h8.479l3.32,11.918h0.08l3.359-11.918h8.197
	L707.035,79.319z M722.916,58.922c0,4.239-0.999,7.639-7.358,8.598v-3.479c2.399-0.28,3.239-1.68,3.279-3.76h-3.279v-7.918h7.358
	V58.922z M740.915,80.918h-9.359l-6.799-20.756h8.359l3.239,12.638h0.08l3.279-12.638h8.079L740.915,80.918z M756.235,72.32
	c0.201,2.4,1.521,4.04,4.04,4.04c1.28,0,2.68-0.48,3.319-1.48h7.398c-1.6,4.479-5.998,6.559-10.678,6.559
	c-6.639,0-11.639-3.919-11.639-10.838c0-6.039,4.359-10.958,10.959-10.958c8.238,0,11.798,4.559,11.798,12.678H756.235z
	 M763.835,68.201c0-1.92-1.439-3.479-3.479-3.479c-2.399,0-3.72,1.24-4.079,3.479H763.835z M788.116,52.363h7.919v10.078h0.08
	c1.239-1.76,3.279-2.799,5.679-2.799c6.959,0,8.839,5.879,8.839,10.798c0,5.239-2.839,10.998-8.718,10.998
	c-3.84,0-5.119-1.52-6.08-2.8h-0.08v2.28h-7.639V52.363z M799.235,65.401c-2.84,0-3.48,2.68-3.48,5.119
	c0,2.44,0.641,5.159,3.48,5.159c2.839,0,3.479-2.719,3.479-5.159C802.714,68.081,802.074,65.401,799.235,65.401z M820.716,72.32
	c0.199,2.4,1.52,4.04,4.039,4.04c1.279,0,2.68-0.48,3.319-1.48h7.399c-1.601,4.479-6,6.559-10.679,6.559
	c-6.64,0-11.638-3.919-11.638-10.838c0-6.039,4.359-10.958,10.957-10.958c8.239,0,11.799,4.559,11.799,12.678H820.716z
	 M828.313,68.201c0-1.92-1.439-3.479-3.479-3.479c-2.4,0-3.72,1.24-4.08,3.479H828.313z M845.915,72.32
	c0.199,2.4,1.52,4.04,4.039,4.04c1.279,0,2.68-0.48,3.319-1.48h7.398c-1.6,4.479-5.999,6.559-10.678,6.559
	c-6.64,0-11.638-3.919-11.638-10.838c0-6.039,4.359-10.958,10.958-10.958c8.238,0,11.798,4.559,11.798,12.678H845.915z
	 M853.514,68.201c0-1.92-1.44-3.479-3.479-3.479c-2.399,0-3.72,1.24-4.079,3.479H853.514z M864.436,60.162h7.64v2.639h0.079
	c1.48-2.08,3.56-3.159,6.759-3.159c3.72,0,7.119,2.28,7.119,7.039v14.238h-7.919V70.041c0-2.4-0.279-4.08-2.6-4.08
	c-1.399,0-3.159,0.68-3.159,4v10.958h-7.919V60.162z M56.36,128.918h-8.119l-2.999-12.758h-0.08l-3.079,12.758h-8.119l-6.479-20.756
	h8.239L38.803,121h0.08l2.64-12.838h7.399L51.681,121h0.16l2.88-12.838h8.239L56.36,128.918z M85.041,124.279
	c0,1.559,0.04,3.318,0.96,4.639h-8.078c-0.2-0.6-0.32-1.359-0.28-1.959h-0.08c-1.72,1.92-4.119,2.479-6.679,2.479
	c-4,0-7.318-1.92-7.318-6.277c0-6.6,7.719-6.279,11.717-7.08c1.08-0.199,2.16-0.52,2.16-1.84c0-1.398-1.32-1.92-2.6-1.92
	c-2.399,0-2.959,1.24-2.959,2.121h-7.359c0.2-5.879,5.799-6.799,10.679-6.799c9.918,0,9.838,4.119,9.838,8.117V124.279z
	 M77.442,119.6c-0.959,0.48-2.039,0.721-3.119,1c-1.76,0.439-2.68,0.84-2.68,2.24c0,0.959,1.039,1.92,2.479,1.92
	c1.8,0,3.2-1.041,3.319-3.24V119.6z M97.323,105.922h-7.918v-5.559h7.918V105.922z M89.405,108.162h7.918v20.756h-7.918V108.162z
	 M111.362,108.162h4.239v4.879h-4.239v7.238c0,1.92,0.4,2.76,2.439,2.76c0.6,0,1.199-0.039,1.8-0.119v5.998
	c-1.601,0-3.359,0.24-5.079,0.24c-3.359,0-7.079-0.52-7.079-6.199v-9.918h-3.52v-4.879h3.52v-6.319h7.919V108.162z M126.202,105.922
	h-7.918v-5.559h7.918V105.922z M118.284,108.162h7.918v20.756h-7.918V108.162z M130.724,108.162h7.639v2.639h0.08
	c1.479-2.079,3.559-3.158,6.758-3.158c3.72,0,7.119,2.279,7.119,7.037v14.238h-7.918v-10.877c0-2.4-0.28-4.08-2.6-4.08
	c-1.4,0-3.16,0.68-3.16,4v10.957h-7.918V108.162z M177.8,126.238c0,4.16-1.08,9.918-10.799,9.918
	c-4.919,0-10.078-1.318-10.838-6.918h7.839c0.12,0.199,0.28,0.439,0.44,0.721c0.479,0.76,1.319,1.52,2.318,1.52
	c2.561,0,3.12-3.041,3.12-4.76v-1.92h-0.08c-1.28,1.879-3.159,2.879-5.56,2.879c-6.119,0-8.878-4.559-8.878-10.117
	c0-5.4,3.079-9.918,8.999-9.918c2.359,0,4.519,0.92,5.438,3.039h0.08v-2.52h7.919V126.238z M166.841,122.6
	c2.92,0,3.24-2.801,3.24-5.119c0-2.279-1.08-4.08-3.439-4.08c-2.279,0-3.359,1.92-3.359,4.119
	C163.282,119.879,164.002,122.6,166.841,122.6z M196.522,113.041h-3.24v-4.879h3.24c-0.12-2.04,0.08-4.279,1.64-5.84
	c1.72-1.719,3.72-1.959,6.919-1.959c1.24,0,2.319,0.12,3.559,0.16v5.439c-0.639-0.121-1.279-0.281-1.919-0.281
	c-1.92,0-2.56,0.561-2.439,2.48h4.159v4.879h-4v15.877h-7.918V113.041z M221.2,129.438c-7.799,0-11.318-5.158-11.318-10.918
	c0-5.719,3.52-10.877,11.318-10.877s11.318,5.158,11.318,10.877C232.519,124.279,228.999,129.438,221.2,129.438z M221.2,113.4
	c-3.039,0-3.399,2.92-3.399,5.119s0.36,5.16,3.399,5.16s3.399-2.961,3.399-5.16S224.239,113.4,221.2,113.4z M235.962,108.162h7.599
	v3.319h0.08c1.28-2.52,2.96-3.839,5.839-3.839c0.76,0,1.52,0.119,2.32,0.319v6.999c-0.801-0.281-1.521-0.52-3.12-0.52
	c-3.159,0-4.8,1.799-4.8,6.277v8.199h-7.918V108.162z M250.401,121h8.318v7.918h-8.318V121z M305.396,128.918h-8.559l-3.079-17.396
	h-0.08l-3,17.396h-8.599l-7.759-28.555h8.639L286.439,118h0.08l3.439-17.637h7.759l3.359,17.877h0.08l3.559-17.877h8.68
	L305.396,128.918z M315.281,100.363h7.919v10.038h0.08c1.319-1.6,3.119-2.759,6.479-2.759c3.719,0,7.119,2.279,7.119,7.037v14.238
	h-7.919v-10.877c0-2.4-0.28-4.08-2.6-4.08c-1.399,0-3.159,0.68-3.159,4v10.957h-7.919V100.363z M361.438,124.279
	c0,1.559,0.04,3.318,0.96,4.639h-8.078c-0.2-0.6-0.32-1.359-0.28-1.959h-0.08c-1.72,1.92-4.119,2.479-6.679,2.479
	c-4,0-7.318-1.92-7.318-6.277c0-6.6,7.719-6.279,11.717-7.08c1.08-0.199,2.16-0.52,2.16-1.84c0-1.398-1.32-1.92-2.6-1.92
	c-2.399,0-2.959,1.24-2.959,2.121h-7.359c0.2-5.879,5.799-6.799,10.679-6.799c9.918,0,9.838,4.119,9.838,8.117V124.279z
	 M353.839,119.6c-0.959,0.48-2.039,0.721-3.119,1c-1.76,0.439-2.68,0.84-2.68,2.24c0,0.959,1.039,1.92,2.479,1.92
	c1.8,0,3.2-1.041,3.319-3.24V119.6z M375.159,108.162h4.24v4.879h-4.24v7.238c0,1.92,0.4,2.76,2.439,2.76
	c0.601,0,1.2-0.039,1.801-0.119v5.998c-1.601,0-3.359,0.24-5.08,0.24c-3.359,0-7.078-0.52-7.078-6.199v-9.918h-3.52v-4.879h3.52
	v-6.319h7.918V108.162z M404.8,108.162h4.238v4.879H404.8v7.238c0,1.92,0.399,2.76,2.439,2.76c0.6,0,1.199-0.039,1.799-0.119v5.998
	c-1.6,0-3.359,0.24-5.078,0.24c-3.36,0-7.08-0.52-7.08-6.199v-9.918h-3.52v-4.879h3.52v-6.319h7.92V108.162z M411.561,100.363h7.919
	v10.038h0.08c1.319-1.6,3.119-2.759,6.479-2.759c3.719,0,7.119,2.279,7.119,7.037v14.238h-7.919v-10.877c0-2.4-0.28-4.08-2.6-4.08
	c-1.399,0-3.159,0.68-3.159,4v10.957h-7.919V100.363z M444.159,120.32c0.2,2.398,1.52,4.039,4.039,4.039c1.28,0,2.68-0.48,3.32-1.48
	h7.398c-1.6,4.48-5.999,6.559-10.678,6.559c-6.64,0-11.639-3.918-11.639-10.838c0-6.039,4.359-10.957,10.958-10.957
	c8.239,0,11.798,4.559,11.798,12.678H444.159z M451.758,116.201c0-1.92-1.439-3.48-3.479-3.48c-2.399,0-3.719,1.24-4.079,3.48
	H451.758z M476.478,127.318c-0.64,1.879-1.359,4.199-2.6,5.76c-2.119,2.559-5.238,2.559-8.358,2.559h-3.599v-6.318h1.839h1.28
	c0.439,0,0.84-0.08,1.119-0.199c0.48-0.281,0.76-0.641,0.76-1.561c0-0.961-3.039-8.639-3.479-9.838l-3.52-9.559h8.479l3.319,11.918
	h0.08l3.359-11.918h8.198L476.478,127.318z M519.876,128.918h-7.639v-2.279h-0.08c-0.959,1.279-2.239,2.799-6.078,2.799
	c-5.88,0-8.719-5.758-8.719-10.998c0-4.918,1.879-10.797,8.838-10.797c2.4,0,4.439,1.039,5.68,2.799h0.08v-10.078h7.918V128.918z
	 M508.758,113.4c-2.839,0-3.479,2.68-3.479,5.119s0.641,5.16,3.479,5.16c2.84,0,3.479-2.721,3.479-5.16S511.598,113.4,508.758,113.4
	z M530.878,120.32c0.201,2.398,1.521,4.039,4.04,4.039c1.28,0,2.68-0.48,3.319-1.48h7.398c-1.6,4.48-5.998,6.559-10.678,6.559
	c-6.639,0-11.639-3.918-11.639-10.838c0-6.039,4.359-10.957,10.959-10.957c8.238,0,11.798,4.559,11.798,12.678H530.878z
	 M538.478,116.201c0-1.92-1.439-3.48-3.479-3.48c-2.399,0-3.72,1.24-4.079,3.48H538.478z M561.397,114.201
	c-0.04-0.68-0.4-1.201-0.92-1.561c-0.48-0.4-1.08-0.6-1.76-0.6c-1.119,0-2.399,0.279-2.399,1.6c0,0.6,0.479,0.881,0.92,1.08
	c1.28,0.52,4.319,0.76,6.958,1.6c2.68,0.84,4.96,2.4,4.96,5.799c0,5.76-5.519,7.318-10.559,7.318
	c-4.879,0-10.238-1.959-10.358-7.318h7.559c0.041,0.68,0.36,1.32,0.961,1.84c0.439,0.4,1.159,0.6,2.119,0.6
	c1.039,0,2.68-0.4,2.68-1.6s-0.68-1.559-4.359-2.199c-6.039-1-8.479-2.959-8.479-6.52c0-5.238,5.639-6.598,9.799-6.598
	c4.479,0,9.877,1.239,10.078,6.559H561.397z M579.038,120.32c0.199,2.398,1.52,4.039,4.039,4.039c1.279,0,2.68-0.48,3.319-1.48
	h7.399c-1.601,4.48-6,6.559-10.679,6.559c-6.64,0-11.638-3.918-11.638-10.838c0-6.039,4.359-10.957,10.957-10.957
	c8.239,0,11.799,4.559,11.799,12.678H579.038z M586.636,116.201c0-1.92-1.439-3.48-3.479-3.48c-2.4,0-3.72,1.24-4.08,3.48H586.636z
	 M597.559,108.162h7.599v3.319h0.08c1.279-2.52,2.959-3.839,5.839-3.839c0.76,0,1.521,0.119,2.319,0.319v6.999
	c-0.799-0.281-1.52-0.52-3.119-0.52c-3.159,0-4.799,1.799-4.799,6.277v8.199h-7.919V108.162z M629.315,128.918h-9.358l-6.799-20.756
	h8.358l3.24,12.637h0.08l3.279-12.637h8.078L629.315,128.918z M644.636,120.32c0.201,2.398,1.521,4.039,4.04,4.039
	c1.28,0,2.68-0.48,3.319-1.48h7.398c-1.6,4.48-5.998,6.559-10.678,6.559c-6.639,0-11.639-3.918-11.639-10.838
	c0-6.039,4.359-10.957,10.959-10.957c8.238,0,11.798,4.559,11.798,12.678H644.636z M652.235,116.201c0-1.92-1.439-3.48-3.479-3.48
	c-2.399,0-3.72,1.24-4.079,3.48H652.235z M663.517,121h8.319v7.918h-8.319V121z M689.997,100.363h8.799v28.555h-8.799V100.363z
	 M742.913,128.918h-8.119l-3-12.758h-0.08l-3.078,12.758h-8.119l-6.479-20.756h8.238L725.355,121h0.08l2.64-12.838h7.398
	l2.76,12.838h0.16l2.879-12.838h8.239L742.913,128.918z M771.594,124.279c0,1.559,0.04,3.318,0.96,4.639h-8.079
	c-0.2-0.6-0.319-1.359-0.28-1.959h-0.08c-1.719,1.92-4.119,2.479-6.678,2.479c-4,0-7.319-1.92-7.319-6.277
	c0-6.6,7.719-6.279,11.718-7.08c1.08-0.199,2.16-0.52,2.16-1.84c0-1.398-1.32-1.92-2.6-1.92c-2.4,0-2.96,1.24-2.96,2.121h-7.358
	c0.199-5.879,5.799-6.799,10.678-6.799c9.918,0,9.839,4.119,9.839,8.117V124.279z M763.995,119.6c-0.96,0.48-2.04,0.721-3.119,1
	c-1.76,0.439-2.68,0.84-2.68,2.24c0,0.959,1.039,1.92,2.479,1.92c1.801,0,3.2-1.041,3.32-3.24V119.6z M775.796,108.162h7.639v2.639
	h0.08c1.48-2.079,3.56-3.158,6.76-3.158c3.719,0,7.118,2.279,7.118,7.037v14.238h-7.919v-10.877c0-2.4-0.279-4.08-2.6-4.08
	c-1.399,0-3.159,0.68-3.159,4v10.957h-7.919V108.162z M811.235,108.162h4.238v4.879h-4.238v7.238c0,1.92,0.399,2.76,2.439,2.76
	c0.6,0,1.199-0.039,1.799-0.119v5.998c-1.6,0-3.359,0.24-5.078,0.24c-3.36,0-7.08-0.52-7.08-6.199v-9.918h-3.52v-4.879h3.52v-6.319
	h7.92V108.162z M840.874,108.162h4.24v4.879h-4.24v7.238c0,1.92,0.4,2.76,2.439,2.76c0.601,0,1.2-0.039,1.801-0.119v5.998
	c-1.601,0-3.359,0.24-5.08,0.24c-3.359,0-7.078-0.52-7.078-6.199v-9.918h-3.52v-4.879h3.52v-6.319h7.918V108.162z M858.074,129.438
	c-7.799,0-11.317-5.158-11.317-10.918c0-5.719,3.519-10.877,11.317-10.877s11.318,5.158,11.318,10.877
	C869.393,124.279,865.873,129.438,858.074,129.438z M858.074,113.4c-3.039,0-3.399,2.92-3.399,5.119s0.36,5.16,3.399,5.16
	c3.04,0,3.399-2.961,3.399-5.16S861.114,113.4,858.074,113.4z M170.644,148.363h7.918V158.4h0.08c1.32-1.6,3.119-2.758,6.479-2.758
	c3.72,0,7.119,2.279,7.119,7.037v14.238h-7.918v-10.877c0-2.4-0.28-4.08-2.6-4.08c-1.4,0-3.16,0.68-3.16,4v10.957h-7.918V148.363z
	 M203.241,168.32c0.201,2.398,1.521,4.039,4.04,4.039c1.28,0,2.68-0.48,3.319-1.48h7.398c-1.6,4.48-5.998,6.559-10.678,6.559
	c-6.639,0-11.639-3.918-11.639-10.838c0-6.039,4.359-10.957,10.959-10.957c8.238,0,11.798,4.559,11.798,12.678H203.241z
	 M210.841,164.201c0-1.92-1.439-3.48-3.479-3.48c-2.399,0-3.72,1.24-4.079,3.48H210.841z M221.923,148.363h7.918v28.555h-7.918
	V148.363z M234.362,156.162h7.639v2.279h0.08c0.959-1.279,2.239-2.799,6.078-2.799c5.879,0,8.719,5.758,8.719,10.998
	c0,4.918-1.879,10.797-8.838,10.797c-2.4,0-4.439-1.039-5.68-2.799h-0.08v8.998h-7.918V156.162z M245.479,171.68
	c2.84,0,3.48-2.68,3.48-5.119s-0.641-5.16-3.48-5.16c-2.839,0-3.479,2.721-3.479,5.16S242.641,171.68,245.479,171.68z
	 M299.997,176.918h-8.119l-2.999-12.758h-0.08l-3.079,12.758h-8.119l-6.479-20.756h8.238L282.44,169h0.08l2.639-12.838h7.399
	L295.317,169h0.16l2.88-12.838h8.239L299.997,176.918z M316.521,153.922h-7.919v-5.559h7.919V153.922z M308.602,156.162h7.919
	v20.756h-7.919V156.162z M321.041,156.162h7.639v2.639h0.08c1.479-2.08,3.56-3.158,6.759-3.158c3.719,0,7.119,2.279,7.119,7.037
	v14.238h-7.919v-10.877c0-2.4-0.28-4.08-2.6-4.08c-1.399,0-3.159,0.68-3.159,4v10.957h-7.919V156.162z M369.839,156.162h4.24v4.879
	h-4.24v7.238c0,1.92,0.4,2.76,2.439,2.76c0.601,0,1.2-0.039,1.801-0.119v5.998c-1.601,0-3.359,0.24-5.08,0.24
	c-3.359,0-7.078-0.52-7.078-6.199v-9.918h-3.52v-4.879h3.52v-6.32h7.918V156.162z M376.601,148.363h7.918V158.4h0.08
	c1.32-1.6,3.12-2.758,6.479-2.758c3.72,0,7.118,2.279,7.118,7.037v14.238h-7.918v-10.877c0-2.4-0.279-4.08-2.6-4.08
	c-1.4,0-3.16,0.68-3.16,4v10.957h-7.918V148.363z M409.199,168.32c0.2,2.398,1.521,4.039,4.04,4.039c1.279,0,2.68-0.48,3.318-1.48
	h7.399c-1.601,4.48-5.999,6.559-10.679,6.559c-6.639,0-11.638-3.918-11.638-10.838c0-6.039,4.359-10.957,10.958-10.957
	c8.238,0,11.799,4.559,11.799,12.678H409.199z M416.798,164.201c0-1.92-1.439-3.48-3.479-3.48c-2.4,0-3.721,1.24-4.08,3.48H416.798z
	 M427.681,156.162h7.639v2.76h0.08c1.6-2.4,3.919-3.279,6.799-3.279c2.239,0,4.639,1.158,5.599,3.238
	c0.319-0.199,1.919-3.238,7.079-3.238c5.318,0,7.119,3.678,7.119,7.037v14.238h-7.92V165.68c0-1.959-0.199-3.719-2.6-3.719
	c-2.039,0-2.679,1.52-2.679,3.719v11.238h-7.919V165.68c0-1.959-0.199-3.719-2.6-3.719c-2.039,0-2.68,1.52-2.68,3.719v11.238h-7.918
	V156.162z M489.118,156.162h4.24v4.879h-4.24v7.238c0,1.92,0.4,2.76,2.439,2.76c0.601,0,1.2-0.039,1.801-0.119v5.998
	c-1.601,0-3.359,0.24-5.08,0.24c-3.359,0-7.078-0.52-7.078-6.199v-9.918h-3.52v-4.879h3.52v-6.32h7.918V156.162z M495.88,148.363
	h7.918V158.4h0.08c1.32-1.6,3.12-2.758,6.479-2.758c3.72,0,7.118,2.279,7.118,7.037v14.238h-7.918v-10.877
	c0-2.4-0.279-4.08-2.6-4.08c-1.4,0-3.16,0.68-3.16,4v10.957h-7.918V148.363z M528.479,168.32c0.2,2.398,1.521,4.039,4.04,4.039
	c1.279,0,2.68-0.48,3.318-1.48h7.399c-1.601,4.48-5.999,6.559-10.679,6.559c-6.639,0-11.638-3.918-11.638-10.838
	c0-6.039,4.359-10.957,10.958-10.957c8.238,0,11.799,4.559,11.799,12.678H528.479z M536.077,164.201c0-1.92-1.439-3.48-3.479-3.48
	c-2.4,0-3.721,1.24-4.08,3.48H536.077z M560.439,148.363h12.518l4.079,16.797h0.08l4.08-16.797h12.518v28.555h-8.318v-18.316h-0.08
	l-4.959,18.316h-6.56l-4.959-18.316h-0.08v18.316h-8.318V148.363z M598.239,148.363h8.798V169.6h12.638v7.318h-21.436V148.363z
	 M630.437,167.32c0,0.68,0.121,1.318,0.32,1.879c0.641,1.721,2.56,2.08,4.199,2.08c1.439,0,3.64-0.48,3.64-2.6
	c0-1.439-1.239-1.879-6.159-3.279c-4.52-1.279-9.678-2.52-9.678-8.279c0-6.598,5.639-9.438,11.518-9.438
	c6.199,0,11.719,2.398,11.918,9.318h-8.318c0.16-1.08-0.28-1.801-1.04-2.279c-0.76-0.521-1.68-0.721-2.6-0.721
	c-1.2,0-3.159,0.32-3.159,1.92c0.119,2,4.279,2.559,8.278,3.6c4.04,1.16,8.039,2.959,8.039,8.238c0,7.439-6.8,9.838-13.198,9.838
	c-3.199,0-12.558-1.16-12.558-10.277H630.437z M681.475,159.002c-0.2-1.041-0.96-4.199-4.599-4.199
	c-4.119,0-5.439,3.998-5.439,7.838s1.32,7.838,5.439,7.838c2.959,0,4.079-2.039,4.639-4.758h8.639
	c0,5.758-4.68,11.877-13.037,11.877c-9.239,0-14.479-6.518-14.479-14.957c0-8.959,5.68-14.957,14.479-14.957
	c7.878,0.039,12.157,4.119,12.917,11.318H681.475z M715.313,176.918h-7.639v-2.639h-0.08c-1.479,2.078-3.559,3.158-6.759,3.158
	c-3.72,0-7.118-2.279-7.118-7.039v-14.236h7.918v10.877c0,2.4,0.24,4.08,2.6,4.08c1.4,0,3.16-0.68,3.16-4v-10.957h7.918V176.918z
	 M719.638,156.162h7.639v2.279h0.08c0.959-1.279,2.239-2.799,6.078-2.799c5.879,0,8.719,5.758,8.719,10.998
	c0,4.918-1.879,10.797-8.838,10.797c-2.4,0-4.439-1.039-5.68-2.799h-0.08v8.998h-7.918V156.162z M730.755,171.68
	c2.84,0,3.48-2.68,3.48-5.119s-0.641-5.16-3.48-5.16c-2.839,0-3.479,2.721-3.479,5.16S727.916,171.68,730.755,171.68z M917.5-15.5
	h-933v220h933V-15.5z"/>
</svg>
