<?xml version="1.0" encoding="utf-8"?>
<!-- Generator: Adobe Illustrator 16.0.0, SVG Export Plug-In . SVG Version: 6.00 Build 0)  -->
<!DOCTYPE svg PUBLIC "-//W3C//DTD SVG 1.1//EN" "http://www.w3.org/Graphics/SVG/1.1/DTD/svg11.dtd">
<svg version="1.1" id="Layer_1" xmlns="http://www.w3.org/2000/svg" xmlns:xlink="http://www.w3.org/1999/xlink" x="0px" y="0px"
	 width="900px" height="230px" viewBox="0 0 900 230" enable-background="new 0 0 900 230" xml:space="preserve">
<text transform="matrix(1 0 0 1 13.0024 323)" font-family="'HelveticaNeueLTPro-Blk'" font-size="40">Helvetica - 95Black - 40pt</text>
<text transform="matrix(1 0 0 1 258.3252 -452)"><tspan x="0" y="0" fill="#FFFFFF" font-family="'HelveticaNeueLTPro-Blk'" font-size="40">I did very well with the second-team. I got </tspan><tspan x="2.279" y="48" fill="#FFFFFF" font-family="'HelveticaNeueLTPro-Blk'" font-size="40">my chance with the first team when there </tspan><tspan x="53.741" y="96" fill="#FFFFFF" font-family="'HelveticaNeueLTPro-Blk'" font-size="40">were some injuries to strikers on the </tspan><tspan x="22.68" y="144" fill="#FFFFFF" font-family="'HelveticaNeueLTPro-Blk'" font-size="40">first-team and the club wasn’t willing to </tspan><tspan x="190.438" y="192" fill="#FFFFFF" font-family="'HelveticaNeueLTPro-Blk'" font-size="40">spend on more strikers. </tspan></text>
<path fill="#FFFFFF" d="M11.202,2.445H20V31h-8.798V2.445z M59.357,31h-7.639v-2.28h-0.08c-0.959,1.28-2.239,2.8-6.079,2.8
	c-5.879,0-8.719-5.759-8.719-10.998c0-4.919,1.88-10.798,8.838-10.798c2.4,0,4.439,1.04,5.679,2.799h0.08V2.445h7.918V31z
	 M48.239,15.482c-2.839,0-3.479,2.68-3.479,5.119c0,2.44,0.64,5.159,3.479,5.159c2.84,0,3.479-2.719,3.479-5.159
	C51.719,18.162,51.079,15.482,48.239,15.482z M71.76,8.004h-7.918V2.445h7.918V8.004z M63.841,10.244h7.918V31h-7.918V10.244z
	 M97.877,31h-7.639v-2.28h-0.08c-0.959,1.28-2.239,2.8-6.079,2.8c-5.879,0-8.719-5.759-8.719-10.998
	c0-4.919,1.88-10.798,8.838-10.798c2.4,0,4.439,1.04,5.679,2.799h0.08V2.445h7.918V31z M86.759,15.482
	c-2.839,0-3.479,2.68-3.479,5.119c0,2.44,0.64,5.159,3.479,5.159c2.84,0,3.479-2.719,3.479-5.159
	C90.238,18.162,89.599,15.482,86.759,15.482z M129.158,31h-9.358L113,10.244h8.358l3.24,12.638h0.08l3.279-12.638h8.079L129.158,31z
	 M144.479,22.401c0.2,2.4,1.52,4.04,4.04,4.04c1.28,0,2.68-0.48,3.319-1.48h7.399c-1.6,4.479-5.999,6.559-10.678,6.559
	c-6.639,0-11.638-3.919-11.638-10.838c0-6.039,4.359-10.958,10.958-10.958c8.239,0,11.798,4.559,11.798,12.678H144.479z
	 M152.078,18.282c0-1.92-1.439-3.479-3.479-3.479c-2.4,0-3.72,1.24-4.08,3.479H152.078z M163,10.244h7.599v3.319h0.08
	c1.28-2.52,2.959-3.839,5.839-3.839c0.76,0,1.52,0.12,2.32,0.32v6.999c-0.8-0.28-1.52-0.52-3.12-0.52
	c-3.159,0-4.799,1.8-4.799,6.279V31H163V10.244z M194.957,29.4c-0.64,1.879-1.36,4.199-2.6,5.759c-2.12,2.56-5.239,2.56-8.359,2.56
	h-3.599V31.4h1.839h1.28c0.44,0,0.84-0.08,1.12-0.2c0.48-0.28,0.76-0.64,0.76-1.56c0-0.96-3.04-8.639-3.479-9.838l-3.52-9.558h8.479
	l3.319,11.918h0.08l3.359-11.918h8.198L194.957,29.4z M243.115,31h-8.119l-3-12.758h-0.08L228.837,31h-8.119l-6.479-20.756h8.239
	l3.079,12.838h0.08l2.64-12.838h7.399l2.759,12.838h0.16l2.879-12.838h8.239L243.115,31z M258.238,22.401
	c0.2,2.4,1.52,4.04,4.04,4.04c1.28,0,2.68-0.48,3.319-1.48h7.399c-1.6,4.479-5.999,6.559-10.678,6.559
	c-6.639,0-11.638-3.919-11.638-10.838c0-6.039,4.359-10.958,10.958-10.958c8.239,0,11.798,4.559,11.798,12.678H258.238z
	 M265.836,18.282c0-1.92-1.439-3.479-3.479-3.479c-2.4,0-3.72,1.24-4.08,3.479H265.836z M276.918,2.445h7.918V31h-7.918V2.445z
	 M289.518,2.445h7.918V31h-7.918V2.445z M341.673,31h-8.119l-3-12.758h-0.08L327.396,31h-8.119l-6.479-20.756h8.239l3.079,12.838
	h0.08l2.64-12.838h7.399l2.759,12.838h0.16l2.879-12.838h8.239L341.673,31z M358.196,8.004h-7.918V2.445h7.918V8.004z
	 M350.277,10.244h7.918V31h-7.918V10.244z M372.235,10.244h4.239v4.879h-4.239v7.239c0,1.92,0.4,2.76,2.439,2.76
	c0.6,0,1.2-0.04,1.8-0.12V31c-1.6,0-3.359,0.24-5.079,0.24c-3.36,0-7.079-0.52-7.079-6.199v-9.918h-3.52v-4.879h3.52V3.924h7.919
	V10.244z M378.997,2.445h7.918v10.038h0.08c1.32-1.6,3.12-2.759,6.479-2.759c3.719,0,7.119,2.28,7.119,7.039V31h-7.918V20.122
	c0-2.4-0.28-4.08-2.6-4.08c-1.4,0-3.16,0.68-3.16,4V31h-7.918V2.445z M427.795,10.244h4.239v4.879h-4.239v7.239
	c0,1.92,0.4,2.76,2.439,2.76c0.6,0,1.2-0.04,1.8-0.12V31c-1.6,0-3.359,0.24-5.079,0.24c-3.36,0-7.079-0.52-7.079-6.199v-9.918h-3.52
	v-4.879h3.52V3.924h7.919V10.244z M434.556,2.445h7.918v10.038h0.08c1.32-1.6,3.12-2.759,6.479-2.759
	c3.719,0,7.119,2.28,7.119,7.039V31h-7.918V20.122c0-2.4-0.28-4.08-2.6-4.08c-1.4,0-3.16,0.68-3.16,4V31h-7.918V2.445z
	 M467.154,22.401c0.201,2.4,1.521,4.04,4.04,4.04c1.28,0,2.68-0.48,3.319-1.48h7.398c-1.6,4.479-5.998,6.559-10.678,6.559
	c-6.639,0-11.639-3.919-11.639-10.838c0-6.039,4.359-10.958,10.959-10.958c8.238,0,11.798,4.559,11.798,12.678H467.154z
	 M474.754,18.282c0-1.92-1.439-3.479-3.479-3.479c-2.399,0-3.72,1.24-4.079,3.479H474.754z M511.033,16.282
	c-0.039-0.68-0.399-1.2-0.92-1.56c-0.479-0.4-1.079-0.6-1.76-0.6c-1.119,0-2.398,0.28-2.398,1.6c0,0.6,0.479,0.88,0.92,1.08
	c1.279,0.52,4.318,0.76,6.958,1.6c2.68,0.84,4.96,2.399,4.96,5.799c0,5.759-5.52,7.319-10.559,7.319
	c-4.879,0-10.238-1.96-10.358-7.319h7.559c0.04,0.68,0.36,1.32,0.96,1.84c0.439,0.4,1.16,0.6,2.119,0.6c1.04,0,2.68-0.4,2.68-1.6
	s-0.68-1.56-4.359-2.2c-6.039-1-8.479-2.959-8.479-6.519c0-5.239,5.639-6.599,9.799-6.599c4.479,0,9.878,1.24,10.078,6.559H511.033z
	 M528.674,22.401c0.2,2.4,1.52,4.04,4.039,4.04c1.28,0,2.68-0.48,3.32-1.48h7.398c-1.6,4.479-5.999,6.559-10.678,6.559
	c-6.64,0-11.639-3.919-11.639-10.838c0-6.039,4.359-10.958,10.958-10.958c8.239,0,11.798,4.559,11.798,12.678H528.674z
	 M536.272,18.282c0-1.92-1.439-3.479-3.479-3.479c-2.399,0-3.719,1.24-4.079,3.479H536.272z M560.593,18.122
	c-0.08-0.88-0.36-1.52-0.88-1.959s-1.16-0.68-2-0.68c-3.039,0-3.479,2.64-3.479,5.159c0,2.56,0.44,5.119,3.479,5.119
	c1.72,0,2.92-1.399,3.08-3.04h7.559c-0.76,5.639-5.199,8.799-10.799,8.799c-6.238,0-11.238-4.319-11.238-10.878
	c0-6.559,5-10.918,11.238-10.918c5.479,0,10.039,2.64,10.559,8.398H560.593z M582.072,31.52c-7.799,0-11.318-5.159-11.318-10.918
	c0-5.719,3.52-10.878,11.318-10.878s11.318,5.159,11.318,10.878C593.391,26.361,589.871,31.52,582.072,31.52z M582.072,15.482
	c-3.039,0-3.399,2.92-3.399,5.119c0,2.2,0.36,5.159,3.399,5.159s3.399-2.959,3.399-5.159
	C585.472,18.402,585.111,15.482,582.072,15.482z M596.834,10.244h7.639v2.639h0.08c1.479-2.08,3.56-3.159,6.759-3.159
	c3.72,0,7.118,2.28,7.118,7.039V31h-7.918V20.122c0-2.4-0.279-4.08-2.6-4.08c-1.4,0-3.16,0.68-3.16,4V31h-7.918V10.244z M644.35,31
	h-7.639v-2.28h-0.08c-0.959,1.28-2.238,2.8-6.078,2.8c-5.879,0-8.719-5.759-8.719-10.998c0-4.919,1.88-10.798,8.838-10.798
	c2.4,0,4.439,1.04,5.68,2.799h0.08V2.445h7.918V31z M633.232,15.482c-2.84,0-3.479,2.68-3.479,5.119c0,2.44,0.64,5.159,3.479,5.159
	s3.479-2.719,3.479-5.159C636.711,18.162,636.072,15.482,633.232,15.482z M648.395,17.042h12.518v6.559h-12.518V17.042z
	 M674.473,10.244h4.238v4.879h-4.238v7.239c0,1.92,0.399,2.76,2.439,2.76c0.6,0,1.199-0.04,1.799-0.12V31
	c-1.6,0-3.359,0.24-5.078,0.24c-3.36,0-7.08-0.52-7.08-6.199v-9.918h-3.52v-4.879h3.52V3.924h7.92V10.244z M687.912,22.401
	c0.2,2.4,1.52,4.04,4.039,4.04c1.28,0,2.68-0.48,3.32-1.48h7.398c-1.6,4.479-5.999,6.559-10.678,6.559
	c-6.64,0-11.639-3.919-11.639-10.838c0-6.039,4.359-10.958,10.958-10.958c8.239,0,11.798,4.559,11.798,12.678H687.912z
	 M695.511,18.282c0-1.92-1.439-3.479-3.479-3.479c-2.399,0-3.719,1.24-4.079,3.479H695.511z M726.67,26.361
	c0,1.56,0.039,3.319,0.959,4.639h-8.078c-0.199-0.6-0.32-1.36-0.279-1.959h-0.08c-1.721,1.919-4.119,2.479-6.68,2.479
	c-3.999,0-7.318-1.92-7.318-6.279c0-6.599,7.719-6.279,11.718-7.079c1.08-0.2,2.159-0.52,2.159-1.84c0-1.399-1.319-1.919-2.6-1.919
	c-2.398,0-2.959,1.24-2.959,2.12h-7.358c0.2-5.879,5.799-6.799,10.679-6.799c9.918,0,9.838,4.119,9.838,8.119V26.361z
	 M719.07,21.682c-0.959,0.48-2.039,0.72-3.119,1c-1.76,0.439-2.68,0.84-2.68,2.239c0,0.96,1.04,1.92,2.48,1.92
	c1.799,0,3.199-1.04,3.318-3.24V21.682z M730.833,10.244h7.639v2.759h0.079c1.601-2.399,3.92-3.279,6.799-3.279
	c2.24,0,4.64,1.16,5.6,3.239c0.32-0.2,1.92-3.239,7.079-3.239c5.318,0,7.118,3.679,7.118,7.039V31h-7.918V19.762
	c0-1.959-0.2-3.719-2.6-3.719c-2.04,0-2.68,1.52-2.68,3.719V31h-7.919V19.762c0-1.959-0.2-3.719-2.6-3.719
	c-2.04,0-2.68,1.52-2.68,3.719V31h-7.918V10.244z M769.753,23.082h8.318V31h-8.318V23.082z M796.232,2.445h8.799V31h-8.799V2.445z
	 M843.949,28.32c0,4.16-1.08,9.918-10.799,9.918c-4.919,0-10.078-1.32-10.838-6.919h7.839c0.12,0.2,0.28,0.44,0.439,0.72
	c0.48,0.76,1.32,1.52,2.32,1.52c2.56,0,3.119-3.04,3.119-4.759v-1.919h-0.08c-1.279,1.879-3.159,2.879-5.559,2.879
	c-6.119,0-8.879-4.559-8.879-10.118c0-5.399,3.079-9.918,8.998-9.918c2.36,0,4.52,0.92,5.439,3.04h0.08v-2.52h7.919V28.32z
	 M832.991,24.681c2.919,0,3.239-2.8,3.239-5.119c0-2.28-1.08-4.08-3.439-4.08c-2.28,0-3.359,1.92-3.359,4.12
	C829.432,21.961,830.151,24.681,832.991,24.681z M858.43,31.52c-7.799,0-11.318-5.159-11.318-10.918
	c0-5.719,3.52-10.878,11.318-10.878s11.318,5.159,11.318,10.878C869.748,26.361,866.229,31.52,858.43,31.52z M858.43,15.482
	c-3.039,0-3.399,2.92-3.399,5.119c0,2.2,0.36,5.159,3.399,5.159c3.04,0,3.399-2.959,3.399-5.159
	C861.829,18.402,861.47,15.482,858.43,15.482z M882.71,10.244h4.239v4.879h-4.239v7.239c0,1.92,0.4,2.76,2.439,2.76
	c0.601,0,1.2-0.04,1.8-0.12V31c-1.6,0-3.359,0.24-5.079,0.24c-3.359,0-7.078-0.52-7.078-6.199v-9.918h-3.52v-4.879h3.52V3.924h7.918
	V10.244z M13.881,58.244h7.639v2.759h0.08c1.6-2.399,3.919-3.279,6.799-3.279c2.24,0,4.639,1.16,5.599,3.239
	c0.32-0.2,1.919-3.239,7.079-3.239c5.319,0,7.119,3.679,7.119,7.039V79h-7.919V67.762c0-1.959-0.2-3.719-2.6-3.719
	c-2.04,0-2.679,1.52-2.679,3.719V79h-7.919V67.762c0-1.959-0.2-3.719-2.6-3.719c-2.04,0-2.68,1.52-2.68,3.719V79h-7.918V58.244z
	 M66.239,77.4c-0.64,1.879-1.36,4.199-2.6,5.759c-2.12,2.56-5.239,2.56-8.359,2.56h-3.599V79.4h1.839h1.28
	c0.44,0,0.84-0.08,1.12-0.2c0.48-0.28,0.76-0.64,0.76-1.56c0-0.96-3.04-8.639-3.479-9.838l-3.52-9.558h8.479l3.319,11.918h0.08
	l3.359-11.918h8.198L66.239,77.4z M101.438,66.122c-0.08-0.88-0.36-1.52-0.88-1.959c-0.52-0.44-1.16-0.68-2-0.68
	c-3.04,0-3.479,2.64-3.479,5.159c0,2.56,0.44,5.119,3.479,5.119c1.72,0,2.919-1.399,3.08-3.04h7.559
	c-0.76,5.639-5.199,8.799-10.798,8.799c-6.239,0-11.238-4.319-11.238-10.878c0-6.559,4.999-10.918,11.238-10.918
	c5.479,0,10.038,2.64,10.558,8.398H101.438z M112.48,50.445h7.918v10.038h0.08c1.32-1.6,3.12-2.759,6.479-2.759
	c3.719,0,7.119,2.28,7.119,7.039V79h-7.918V68.122c0-2.4-0.28-4.08-2.6-4.08c-1.4,0-3.16,0.68-3.16,4V79h-7.918V50.445z
	 M158.637,74.361c0,1.56,0.04,3.319,0.96,4.639h-8.079c-0.2-0.6-0.32-1.36-0.28-1.959h-0.08c-1.72,1.919-4.119,2.479-6.679,2.479
	c-4,0-7.319-1.92-7.319-6.279c0-6.599,7.719-6.279,11.718-7.079c1.08-0.2,2.16-0.52,2.16-1.84c0-1.399-1.32-1.919-2.6-1.919
	c-2.399,0-2.959,1.24-2.959,2.12h-7.358c0.2-5.879,5.799-6.799,10.678-6.799c9.918,0,9.838,4.119,9.838,8.119V74.361z
	 M151.038,69.682c-0.959,0.48-2.04,0.72-3.119,1c-1.76,0.439-2.68,0.84-2.68,2.239c0,0.96,1.04,1.92,2.479,1.92
	c1.8,0,3.2-1.04,3.319-3.24V69.682z M162.84,58.244h7.639v2.639h0.08c1.479-2.08,3.56-3.159,6.759-3.159
	c3.719,0,7.119,2.28,7.119,7.039V79h-7.918V68.122c0-2.4-0.28-4.08-2.6-4.08c-1.4,0-3.16,0.68-3.16,4V79h-7.918V58.244z
	 M202.158,66.122c-0.08-0.88-0.36-1.52-0.88-1.959c-0.52-0.44-1.16-0.68-2-0.68c-3.04,0-3.479,2.64-3.479,5.159
	c0,2.56,0.44,5.119,3.479,5.119c1.72,0,2.919-1.399,3.08-3.04h7.559c-0.76,5.639-5.199,8.799-10.798,8.799
	c-6.239,0-11.238-4.319-11.238-10.878c0-6.559,4.999-10.918,11.238-10.918c5.479,0,10.038,2.64,10.558,8.398H202.158z
	 M219.878,70.401c0.2,2.4,1.52,4.04,4.04,4.04c1.28,0,2.68-0.48,3.319-1.48h7.399c-1.6,4.479-5.999,6.559-10.678,6.559
	c-6.639,0-11.638-3.919-11.638-10.838c0-6.039,4.359-10.958,10.958-10.958c8.239,0,11.798,4.559,11.798,12.678H219.878z
	 M227.477,66.282c0-1.92-1.439-3.479-3.479-3.479c-2.4,0-3.72,1.24-4.08,3.479H227.477z M278.115,79h-8.119l-3-12.758h-0.08
	L263.837,79h-8.119l-6.479-20.756h8.239l3.079,12.838h0.08l2.64-12.838h7.399l2.759,12.838h0.16l2.879-12.838h8.239L278.115,79z
	 M294.638,56.004h-7.918v-5.559h7.918V56.004z M286.719,58.244h7.918V79h-7.918V58.244z M308.677,58.244h4.239v4.879h-4.239v7.239
	c0,1.92,0.4,2.76,2.439,2.76c0.6,0,1.2-0.04,1.8-0.12V79c-1.6,0-3.359,0.24-5.079,0.24c-3.36,0-7.079-0.52-7.079-6.199v-9.918h-3.52
	v-4.879h3.52v-6.319h7.919V58.244z M315.438,50.445h7.918v10.038h0.08c1.32-1.6,3.12-2.759,6.479-2.759
	c3.719,0,7.119,2.28,7.119,7.039V79h-7.918V68.122c0-2.4-0.28-4.08-2.6-4.08c-1.4,0-3.16,0.68-3.16,4V79h-7.918V50.445z
	 M364.237,58.244h4.239v4.879h-4.239v7.239c0,1.92,0.4,2.76,2.439,2.76c0.6,0,1.2-0.04,1.8-0.12V79c-1.6,0-3.359,0.24-5.079,0.24
	c-3.36,0-7.079-0.52-7.079-6.199v-9.918h-3.52v-4.879h3.52v-6.319h7.919V58.244z M370.998,50.445h7.918v10.038h0.08
	c1.32-1.6,3.12-2.759,6.479-2.759c3.719,0,7.119,2.28,7.119,7.039V79h-7.918V68.122c0-2.4-0.28-4.08-2.6-4.08
	c-1.4,0-3.16,0.68-3.16,4V79h-7.918V50.445z M403.596,70.401c0.2,2.4,1.52,4.04,4.04,4.04c1.28,0,2.68-0.48,3.319-1.48h7.399
	c-1.6,4.479-5.999,6.559-10.678,6.559c-6.639,0-11.638-3.919-11.638-10.838c0-6.039,4.359-10.958,10.958-10.958
	c8.239,0,11.798,4.559,11.798,12.678H403.596z M411.195,66.282c0-1.92-1.439-3.479-3.479-3.479c-2.4,0-3.72,1.24-4.08,3.479H411.195
	z M436.797,63.123h-3.24v-4.879h3.24c-0.12-2.04,0.08-4.279,1.64-5.839c1.72-1.72,3.719-1.959,6.919-1.959
	c1.24,0,2.319,0.12,3.559,0.16v5.439c-0.64-0.12-1.28-0.28-1.919-0.28c-1.92,0-2.56,0.56-2.439,2.48h4.159v4.879h-4V79h-7.918
	V63.123z M459.115,56.004h-7.918v-5.559h7.918V56.004z M451.197,58.244h7.918V79h-7.918V58.244z M463.637,58.244h7.598v3.319h0.08
	c1.28-2.52,2.96-3.839,5.84-3.839c0.76,0,1.52,0.12,2.319,0.32v6.999c-0.8-0.28-1.521-0.52-3.12-0.52
	c-3.158,0-4.799,1.8-4.799,6.279V79h-7.918V58.244z M493.395,64.282c-0.041-0.68-0.4-1.2-0.92-1.56c-0.48-0.4-1.08-0.6-1.76-0.6
	c-1.12,0-2.4,0.28-2.4,1.6c0,0.6,0.48,0.88,0.92,1.08c1.28,0.52,4.319,0.76,6.959,1.6c2.68,0.84,4.959,2.399,4.959,5.799
	c0,5.759-5.519,7.319-10.559,7.319c-4.879,0-10.238-1.96-10.357-7.319h7.559c0.04,0.68,0.359,1.32,0.96,1.84
	c0.44,0.4,1.159,0.6,2.12,0.6c1.039,0,2.679-0.4,2.679-1.6s-0.68-1.56-4.358-2.2c-6.039-1-8.479-2.959-8.479-6.519
	c0-5.239,5.639-6.599,9.798-6.599c4.479,0,9.878,1.24,10.078,6.559H493.395z M513.874,58.244h4.239v4.879h-4.239v7.239
	c0,1.92,0.399,2.76,2.439,2.76c0.6,0,1.2-0.04,1.8-0.12V79c-1.6,0-3.359,0.24-5.079,0.24c-3.36,0-7.079-0.52-7.079-6.199v-9.918
	h-3.52v-4.879h3.52v-6.319h7.919V58.244z M543.514,58.244h4.24v4.879h-4.24v7.239c0,1.92,0.4,2.76,2.439,2.76
	c0.601,0,1.2-0.04,1.801-0.12V79c-1.601,0-3.359,0.24-5.08,0.24c-3.359,0-7.078-0.52-7.078-6.199v-9.918h-3.52v-4.879h3.52v-6.319
	h7.918V58.244z M556.954,70.401c0.2,2.4,1.521,4.04,4.04,4.04c1.279,0,2.68-0.48,3.318-1.48h7.399
	c-1.601,4.479-5.999,6.559-10.679,6.559c-6.639,0-11.638-3.919-11.638-10.838c0-6.039,4.359-10.958,10.958-10.958
	c8.238,0,11.799,4.559,11.799,12.678H556.954z M564.553,66.282c0-1.92-1.439-3.479-3.479-3.479c-2.4,0-3.721,1.24-4.08,3.479
	H564.553z M595.712,74.361c0,1.56,0.04,3.319,0.96,4.639h-8.079c-0.2-0.6-0.319-1.36-0.28-1.959h-0.08
	c-1.719,1.919-4.119,2.479-6.678,2.479c-4,0-7.319-1.92-7.319-6.279c0-6.599,7.719-6.279,11.718-7.079c1.08-0.2,2.16-0.52,2.16-1.84
	c0-1.399-1.32-1.919-2.6-1.919c-2.4,0-2.96,1.24-2.96,2.12h-7.358c0.199-5.879,5.799-6.799,10.678-6.799
	c9.918,0,9.839,4.119,9.839,8.119V74.361z M588.113,69.682c-0.96,0.48-2.04,0.72-3.119,1c-1.76,0.439-2.68,0.84-2.68,2.239
	c0,0.96,1.039,1.92,2.479,1.92c1.801,0,3.2-1.04,3.32-3.24V69.682z M599.875,58.244h7.639v2.759h0.08
	c1.6-2.399,3.919-3.279,6.799-3.279c2.239,0,4.639,1.16,5.599,3.239c0.319-0.2,1.919-3.239,7.079-3.239
	c5.318,0,7.119,3.679,7.119,7.039V79h-7.92V67.762c0-1.959-0.199-3.719-2.6-3.719c-2.039,0-2.679,1.52-2.679,3.719V79h-7.919V67.762
	c0-1.959-0.199-3.719-2.6-3.719c-2.039,0-2.68,1.52-2.68,3.719V79h-7.918V58.244z M678.15,79h-8.119l-3-12.758h-0.08L663.873,79
	h-8.119l-6.479-20.756h8.238l3.079,12.838h0.08l2.64-12.838h7.398l2.76,12.838h0.16l2.879-12.838h8.239L678.15,79z M686.594,50.445
	h7.919v10.038h0.08c1.319-1.6,3.12-2.759,6.479-2.759c3.719,0,7.118,2.28,7.118,7.039V79h-7.919V68.122c0-2.4-0.279-4.08-2.6-4.08
	c-1.399,0-3.159,0.68-3.159,4V79h-7.919V50.445z M719.193,70.401c0.199,2.4,1.52,4.04,4.039,4.04c1.279,0,2.68-0.48,3.319-1.48
	h7.398c-1.6,4.479-5.999,6.559-10.678,6.559c-6.64,0-11.638-3.919-11.638-10.838c0-6.039,4.359-10.958,10.957-10.958
	c8.239,0,11.799,4.559,11.799,12.678H719.193z M726.791,66.282c0-1.92-1.439-3.479-3.479-3.479c-2.4,0-3.72,1.24-4.08,3.479H726.791
	z M737.713,58.244h7.64v2.639h0.079c1.48-2.08,3.56-3.159,6.76-3.159c3.719,0,7.118,2.28,7.118,7.039V79h-7.919V68.122
	c0-2.4-0.279-4.08-2.6-4.08c-1.399,0-3.159,0.68-3.159,4V79h-7.919V58.244z M786.512,58.244h4.239v4.879h-4.239v7.239
	c0,1.92,0.4,2.76,2.439,2.76c0.601,0,1.2-0.04,1.8-0.12V79c-1.6,0-3.359,0.24-5.079,0.24c-3.359,0-7.078-0.52-7.078-6.199v-9.918
	h-3.52v-4.879h3.52v-6.319h7.918V58.244z M793.272,50.445h7.919v10.038h0.08c1.32-1.6,3.119-2.759,6.479-2.759
	c3.72,0,7.119,2.28,7.119,7.039V79h-7.919V68.122c0-2.4-0.279-4.08-2.6-4.08c-1.399,0-3.159,0.68-3.159,4V79h-7.919V50.445z
	 M825.872,70.401c0.199,2.4,1.52,4.04,4.039,4.04c1.279,0,2.68-0.48,3.319-1.48h7.398c-1.6,4.479-5.999,6.559-10.678,6.559
	c-6.639,0-11.639-3.919-11.639-10.838c0-6.039,4.359-10.958,10.959-10.958c8.238,0,11.798,4.559,11.798,12.678H825.872z
	 M833.471,66.282c0-1.92-1.44-3.479-3.479-3.479c-2.399,0-3.72,1.24-4.079,3.479H833.471z M844.393,58.244h7.6v3.319h0.079
	c1.28-2.52,2.96-3.839,5.84-3.839c0.76,0,1.52,0.12,2.319,0.32v6.999c-0.8-0.28-1.52-0.52-3.119-0.52c-3.16,0-4.8,1.8-4.8,6.279V79
	h-7.919V58.244z M868.111,70.401c0.199,2.4,1.52,4.04,4.039,4.04c1.279,0,2.68-0.48,3.319-1.48h7.398
	c-1.6,4.479-5.999,6.559-10.678,6.559c-6.639,0-11.638-3.919-11.638-10.838c0-6.039,4.358-10.958,10.958-10.958
	c8.238,0,11.798,4.559,11.798,12.678H868.111z M875.71,66.282c0-1.92-1.44-3.479-3.479-3.479c-2.399,0-3.72,1.24-4.079,3.479H875.71
	z M91.738,127h-8.119l-3-12.758h-0.08L77.46,127h-8.119l-6.479-20.756h8.239l3.079,12.838h0.08l2.64-12.838h7.399l2.759,12.838h0.16
	l2.879-12.838h8.239L91.738,127z M106.861,118.401c0.2,2.399,1.52,4.04,4.04,4.04c1.28,0,2.68-0.48,3.319-1.48h7.399
	c-1.6,4.479-5.999,6.559-10.678,6.559c-6.639,0-11.638-3.919-11.638-10.838c0-6.039,4.359-10.958,10.958-10.958
	c8.239,0,11.798,4.559,11.798,12.678H106.861z M114.459,114.282c0-1.92-1.439-3.479-3.479-3.479c-2.4,0-3.72,1.24-4.08,3.479
	H114.459z M125.382,106.244h7.599v3.319h0.08c1.28-2.52,2.959-3.839,5.839-3.839c0.76,0,1.52,0.12,2.32,0.32v6.999
	c-0.8-0.28-1.52-0.52-3.12-0.52c-3.159,0-4.799,1.8-4.799,6.278V127h-7.918V106.244z M149.1,118.401c0.2,2.399,1.52,4.04,4.04,4.04
	c1.28,0,2.68-0.48,3.319-1.48h7.399c-1.6,4.479-5.999,6.559-10.678,6.559c-6.639,0-11.638-3.919-11.638-10.838
	c0-6.039,4.359-10.958,10.958-10.958c8.239,0,11.798,4.559,11.798,12.678H149.1z M156.699,114.282c0-1.92-1.439-3.479-3.479-3.479
	c-2.4,0-3.72,1.24-4.08,3.479H156.699z M192.979,112.282c-0.04-0.68-0.4-1.2-0.92-1.56c-0.48-0.4-1.08-0.6-1.76-0.6
	c-1.12,0-2.399,0.28-2.399,1.6c0,0.6,0.48,0.88,0.92,1.08c1.28,0.52,4.319,0.76,6.958,1.6c2.68,0.84,4.959,2.399,4.959,5.799
	c0,5.759-5.519,7.318-10.559,7.318c-4.879,0-10.238-1.959-10.358-7.318h7.559c0.04,0.68,0.36,1.32,0.96,1.84
	c0.44,0.4,1.16,0.6,2.12,0.6c1.04,0,2.679-0.4,2.679-1.6s-0.68-1.56-4.359-2.199c-6.039-1-8.479-2.96-8.479-6.52
	c0-5.239,5.639-6.599,9.798-6.599c4.479,0,9.878,1.24,10.078,6.559H192.979z M214.379,127.52c-7.798,0-11.318-5.158-11.318-10.918
	c0-5.719,3.52-10.878,11.318-10.878c7.799,0,11.318,5.159,11.318,10.878C225.697,122.361,222.178,127.52,214.379,127.52z
	 M214.379,111.482c-3.039,0-3.399,2.92-3.399,5.119s0.36,5.159,3.399,5.159c3.04,0,3.399-2.96,3.399-5.159
	S217.418,111.482,214.379,111.482z M229.1,106.244h7.639v2.759h0.08c1.6-2.399,3.919-3.279,6.799-3.279
	c2.24,0,4.639,1.16,5.599,3.239c0.32-0.2,1.919-3.239,7.079-3.239c5.319,0,7.119,3.679,7.119,7.039V127h-7.919v-11.238
	c0-1.959-0.2-3.719-2.6-3.719c-2.04,0-2.679,1.52-2.679,3.719V127h-7.919v-11.238c0-1.959-0.2-3.719-2.6-3.719
	c-2.04,0-2.68,1.52-2.68,3.719V127H229.1V106.244z M274.339,118.401c0.2,2.399,1.52,4.04,4.04,4.04c1.28,0,2.68-0.48,3.319-1.48
	h7.399c-1.6,4.479-5.999,6.559-10.678,6.559c-6.639,0-11.638-3.919-11.638-10.838c0-6.039,4.359-10.958,10.958-10.958
	c8.239,0,11.798,4.559,11.798,12.678H274.339z M281.938,114.282c0-1.92-1.439-3.479-3.479-3.479c-2.4,0-3.72,1.24-4.08,3.479
	H281.938z M314.298,104.004h-7.918v-5.559h7.918V104.004z M306.38,106.244h7.918V127h-7.918V106.244z M318.819,106.244h7.639v2.639
	h0.08c1.479-2.08,3.56-3.159,6.759-3.159c3.719,0,7.119,2.28,7.119,7.039V127h-7.918v-10.878c0-2.4-0.28-4.08-2.6-4.08
	c-1.4,0-3.16,0.68-3.16,4V127h-7.918V106.244z M341.379,127.4h1.32c1.6,0,2.2-0.521,2.2-2.561v-18.596h7.918V125.6
	c0,3.32-0.2,5.32-1.84,6.72c-1.479,1.28-3.959,1.399-5.879,1.399h-3.719V127.4z M352.817,104.004h-7.918v-5.559h7.918V104.004z
	 M378.935,127h-7.639v-2.64h-0.08c-1.479,2.079-3.559,3.159-6.759,3.159c-3.719,0-7.119-2.279-7.119-7.039v-14.237h7.918v10.877
	c0,2.4,0.24,4.08,2.6,4.08c1.4,0,3.16-0.68,3.16-4v-10.958h7.918V127z M383.258,106.244h7.599v3.319h0.08
	c1.28-2.52,2.959-3.839,5.839-3.839c0.76,0,1.52,0.12,2.32,0.32v6.999c-0.8-0.28-1.52-0.52-3.12-0.52
	c-3.159,0-4.799,1.8-4.799,6.278V127h-7.918V106.244z M409.096,104.004h-7.918v-5.559h7.918V104.004z M401.178,106.244h7.918V127
	h-7.918V106.244z M420.296,118.401c0.2,2.399,1.52,4.04,4.04,4.04c1.28,0,2.68-0.48,3.319-1.48h7.399
	c-1.6,4.479-5.999,6.559-10.678,6.559c-6.639,0-11.638-3.919-11.638-10.838c0-6.039,4.359-10.958,10.958-10.958
	c8.239,0,11.798,4.559,11.798,12.678H420.296z M427.895,114.282c0-1.92-1.439-3.479-3.479-3.479c-2.4,0-3.72,1.24-4.08,3.479
	H427.895z M450.815,112.282c-0.04-0.68-0.4-1.2-0.92-1.56c-0.48-0.4-1.08-0.6-1.76-0.6c-1.12,0-2.399,0.28-2.399,1.6
	c0,0.6,0.48,0.88,0.92,1.08c1.28,0.52,4.319,0.76,6.958,1.6c2.68,0.84,4.96,2.399,4.96,5.799c0,5.759-5.52,7.318-10.559,7.318
	c-4.879,0-10.238-1.959-10.358-7.318h7.559c0.04,0.68,0.36,1.32,0.96,1.84c0.44,0.4,1.16,0.6,2.12,0.6c1.04,0,2.679-0.4,2.679-1.6
	s-0.68-1.56-4.359-2.199c-6.039-1-8.479-2.96-8.479-6.52c0-5.239,5.639-6.599,9.798-6.599c4.479,0,9.878,1.24,10.078,6.559H450.815z
	 M484.654,106.244h4.24v4.879h-4.24v7.239c0,1.92,0.4,2.76,2.439,2.76c0.601,0,1.2-0.04,1.801-0.12V127
	c-1.601,0-3.359,0.24-5.08,0.24c-3.359,0-7.078-0.52-7.078-6.199v-9.918h-3.52v-4.879h3.52v-6.319h7.918V106.244z M501.854,127.52
	c-7.798,0-11.317-5.158-11.317-10.918c0-5.719,3.52-10.878,11.317-10.878c7.799,0,11.318,5.159,11.318,10.878
	C513.173,122.361,509.653,127.52,501.854,127.52z M501.854,111.482c-3.039,0-3.399,2.92-3.399,5.119s0.36,5.159,3.399,5.159
	c3.04,0,3.399-2.96,3.399-5.159S504.895,111.482,501.854,111.482z M541.975,112.282c-0.041-0.68-0.4-1.2-0.92-1.56
	c-0.48-0.4-1.08-0.6-1.76-0.6c-1.12,0-2.4,0.28-2.4,1.6c0,0.6,0.48,0.88,0.92,1.08c1.28,0.52,4.319,0.76,6.959,1.6
	c2.68,0.84,4.959,2.399,4.959,5.799c0,5.759-5.519,7.318-10.559,7.318c-4.879,0-10.238-1.959-10.357-7.318h7.559
	c0.04,0.68,0.359,1.32,0.96,1.84c0.44,0.4,1.159,0.6,2.12,0.6c1.039,0,2.679-0.4,2.679-1.6s-0.68-1.56-4.358-2.199
	c-6.039-1-8.479-2.96-8.479-6.52c0-5.239,5.639-6.599,9.798-6.599c4.479,0,9.878,1.24,10.078,6.559H541.975z M562.454,106.244h4.239
	v4.879h-4.239v7.239c0,1.92,0.399,2.76,2.439,2.76c0.6,0,1.2-0.04,1.8-0.12V127c-1.6,0-3.359,0.24-5.079,0.24
	c-3.36,0-7.079-0.52-7.079-6.199v-9.918h-3.52v-4.879h3.52v-6.319h7.919V106.244z M569.215,106.244h7.6v3.319h0.08
	c1.279-2.52,2.959-3.839,5.838-3.839c0.76,0,1.521,0.12,2.32,0.32v6.999c-0.8-0.28-1.52-0.52-3.119-0.52c-3.16,0-4.8,1.8-4.8,6.278
	V127h-7.919V106.244z M595.053,104.004h-7.918v-5.559h7.918V104.004z M587.135,106.244h7.918V127h-7.918V106.244z M599.734,98.445
	h7.918v13.798l5.039-5.999h8.959l-7.398,7.838L622.811,127h-9.519l-4.239-7.519l-1.4,1.52V127h-7.918V98.445z M630.693,118.401
	c0.199,2.399,1.52,4.04,4.039,4.04c1.279,0,2.68-0.48,3.319-1.48h7.399c-1.601,4.479-6,6.559-10.679,6.559
	c-6.64,0-11.638-3.919-11.638-10.838c0-6.039,4.359-10.958,10.957-10.958c8.239,0,11.799,4.559,11.799,12.678H630.693z
	 M638.291,114.282c0-1.92-1.439-3.479-3.479-3.479c-2.4,0-3.72,1.24-4.08,3.479H638.291z M649.213,106.244h7.6v3.319h0.08
	c1.279-2.52,2.959-3.839,5.838-3.839c0.76,0,1.521,0.12,2.32,0.32v6.999c-0.8-0.28-1.52-0.52-3.119-0.52c-3.16,0-4.8,1.8-4.8,6.278
	V127h-7.919V106.244z M678.971,112.282c-0.039-0.68-0.399-1.2-0.92-1.56c-0.479-0.4-1.079-0.6-1.76-0.6
	c-1.119,0-2.398,0.28-2.398,1.6c0,0.6,0.479,0.88,0.92,1.08c1.279,0.52,4.318,0.76,6.958,1.6c2.68,0.84,4.96,2.399,4.96,5.799
	c0,5.759-5.52,7.318-10.559,7.318c-4.879,0-10.238-1.959-10.358-7.318h7.559c0.04,0.68,0.36,1.32,0.96,1.84
	c0.439,0.4,1.16,0.6,2.119,0.6c1.04,0,2.68-0.4,2.68-1.6s-0.68-1.56-4.359-2.199c-6.039-1-8.479-2.96-8.479-6.52
	c0-5.239,5.639-6.599,9.799-6.599c4.479,0,9.878,1.24,10.078,6.559H678.971z M713.73,127.52c-7.799,0-11.318-5.158-11.318-10.918
	c0-5.719,3.52-10.878,11.318-10.878s11.318,5.159,11.318,10.878C725.049,122.361,721.529,127.52,713.73,127.52z M713.73,111.482
	c-3.039,0-3.399,2.92-3.399,5.119s0.36,5.159,3.399,5.159s3.399-2.96,3.399-5.159S716.77,111.482,713.73,111.482z M728.492,106.244
	h7.639v2.639h0.08c1.479-2.08,3.56-3.159,6.759-3.159c3.72,0,7.119,2.28,7.119,7.039V127h-7.919v-10.878c0-2.4-0.28-4.08-2.6-4.08
	c-1.399,0-3.159,0.68-3.159,4V127h-7.919V106.244z M777.29,106.244h4.239v4.879h-4.239v7.239c0,1.92,0.4,2.76,2.439,2.76
	c0.601,0,1.2-0.04,1.8-0.12V127c-1.6,0-3.359,0.24-5.079,0.24c-3.359,0-7.078-0.52-7.078-6.199v-9.918h-3.52v-4.879h3.52v-6.319
	h7.918V106.244z M784.052,98.445h7.919v10.038h0.08c1.32-1.6,3.119-2.759,6.479-2.759c3.72,0,7.119,2.28,7.119,7.039V127h-7.919
	v-10.878c0-2.4-0.279-4.08-2.6-4.08c-1.399,0-3.159,0.68-3.159,4V127h-7.919V98.445z M816.65,118.401
	c0.199,2.399,1.52,4.04,4.039,4.04c1.279,0,2.68-0.48,3.319-1.48h7.398c-1.6,4.479-5.999,6.559-10.678,6.559
	c-6.639,0-11.638-3.919-11.638-10.838c0-6.039,4.358-10.958,10.958-10.958c8.238,0,11.798,4.559,11.798,12.678H816.65z
	 M824.249,114.282c0-1.92-1.44-3.479-3.479-3.479c-2.399,0-3.72,1.24-4.079,3.479H824.249z M35.642,159.123h-3.24v-4.879h3.24
	c-0.12-2.041,0.08-4.279,1.64-5.84c1.72-1.72,3.719-1.959,6.919-1.959c1.24,0,2.319,0.119,3.559,0.16v5.438
	c-0.64-0.12-1.28-0.28-1.919-0.28c-1.92,0-2.56,0.561-2.439,2.48h4.159v4.879h-4V175h-7.918V159.123z M57.96,152.004h-7.918v-5.559
	h7.918V152.004z M50.042,154.244h7.918V175h-7.918V154.244z M62.481,154.244h7.599v3.318h0.08c1.28-2.52,2.959-3.839,5.839-3.839
	c0.76,0,1.52,0.12,2.32,0.319v7c-0.8-0.281-1.52-0.521-3.12-0.521c-3.159,0-4.799,1.8-4.799,6.278V175h-7.918V154.244z
	 M92.238,160.282c-0.04-0.68-0.4-1.2-0.92-1.56c-0.48-0.4-1.08-0.6-1.76-0.6c-1.12,0-2.399,0.279-2.399,1.6
	c0,0.6,0.48,0.88,0.92,1.08c1.28,0.52,4.319,0.76,6.958,1.6c2.68,0.84,4.959,2.399,4.959,5.799c0,5.759-5.519,7.318-10.559,7.318
	c-4.879,0-10.238-1.959-10.358-7.318h7.559c0.04,0.68,0.36,1.32,0.96,1.84c0.44,0.4,1.16,0.6,2.12,0.6c1.04,0,2.679-0.4,2.679-1.6
	s-0.68-1.56-4.359-2.199c-6.039-1-8.479-2.96-8.479-6.52c0-5.238,5.639-6.599,9.798-6.599c4.479,0,9.878,1.239,10.078,6.559H92.238z
	 M112.718,154.244h4.239v4.879h-4.239v7.238c0,1.92,0.4,2.76,2.439,2.76c0.6,0,1.2-0.04,1.8-0.12V175c-1.6,0-3.359,0.24-5.079,0.24
	c-3.36,0-7.079-0.52-7.079-6.199v-9.918h-3.52v-4.879h3.52v-6.32h7.919V154.244z M119.2,161.043h12.518v6.559H119.2V161.043z
	 M145.278,154.244h4.239v4.879h-4.239v7.238c0,1.92,0.4,2.76,2.439,2.76c0.6,0,1.2-0.04,1.8-0.12V175c-1.6,0-3.359,0.24-5.079,0.24
	c-3.36,0-7.079-0.52-7.079-6.199v-9.918h-3.52v-4.879h3.52v-6.32h7.919V154.244z M158.718,166.401c0.2,2.399,1.52,4.04,4.04,4.04
	c1.28,0,2.68-0.48,3.319-1.48h7.399c-1.6,4.479-5.999,6.559-10.678,6.559c-6.639,0-11.638-3.919-11.638-10.838
	c0-6.039,4.359-10.958,10.958-10.958c8.239,0,11.798,4.56,11.798,12.678H158.718z M166.317,162.282c0-1.92-1.439-3.479-3.479-3.479
	c-2.4,0-3.72,1.24-4.08,3.479H166.317z M197.476,170.361c0,1.559,0.04,3.318,0.96,4.639h-8.079c-0.2-0.6-0.32-1.359-0.28-1.959
	h-0.08c-1.72,1.919-4.119,2.479-6.679,2.479c-4,0-7.319-1.92-7.319-6.278c0-6.599,7.719-6.279,11.718-7.079
	c1.08-0.199,2.16-0.52,2.16-1.84c0-1.399-1.32-1.92-2.6-1.92c-2.399,0-2.959,1.24-2.959,2.12h-7.358
	c0.2-5.879,5.799-6.799,10.678-6.799c9.918,0,9.838,4.119,9.838,8.118V170.361z M189.877,165.682c-0.959,0.48-2.04,0.72-3.119,1
	c-1.76,0.439-2.68,0.84-2.68,2.239c0,0.96,1.04,1.92,2.479,1.92c1.8,0,3.2-1.04,3.319-3.239V165.682z M201.639,154.244h7.639v2.759
	h0.08c1.6-2.399,3.919-3.279,6.799-3.279c2.24,0,4.639,1.159,5.599,3.239c0.32-0.199,1.919-3.239,7.079-3.239
	c5.319,0,7.119,3.679,7.119,7.038V175h-7.919v-11.238c0-1.959-0.2-3.719-2.6-3.719c-2.04,0-2.679,1.52-2.679,3.719V175h-7.919
	v-11.238c0-1.959-0.2-3.719-2.6-3.719c-2.04,0-2.68,1.52-2.68,3.719V175h-7.918V154.244z M273.796,170.361
	c0,1.559,0.04,3.318,0.959,4.639h-8.079c-0.2-0.6-0.32-1.359-0.28-1.959h-0.08c-1.72,1.919-4.119,2.479-6.679,2.479
	c-4,0-7.319-1.92-7.319-6.278c0-6.599,7.719-6.279,11.718-7.079c1.08-0.199,2.16-0.52,2.16-1.84c0-1.399-1.32-1.92-2.6-1.92
	c-2.399,0-2.959,1.24-2.959,2.12h-7.358c0.2-5.879,5.799-6.799,10.678-6.799c9.918,0,9.838,4.119,9.838,8.118V170.361z
	 M266.197,165.682c-0.959,0.48-2.04,0.72-3.119,1c-1.76,0.439-2.68,0.84-2.68,2.239c0,0.96,1.04,1.92,2.479,1.92
	c1.8,0,3.2-1.04,3.319-3.239V165.682z M277.999,154.244h7.639v2.639h0.08c1.479-2.08,3.559-3.159,6.759-3.159
	c3.719,0,7.119,2.28,7.119,7.038V175h-7.918v-10.878c0-2.399-0.28-4.079-2.6-4.079c-1.4,0-3.16,0.68-3.16,3.999V175h-7.918V154.244z
	 M325.515,175h-7.639v-2.279h-0.08c-0.959,1.279-2.239,2.799-6.079,2.799c-5.879,0-8.719-5.759-8.719-10.998
	c0-4.919,1.88-10.798,8.838-10.798c2.4,0,4.439,1.04,5.679,2.8h0.08v-10.078h7.918V175z M314.396,159.482
	c-2.839,0-3.479,2.68-3.479,5.119s0.64,5.159,3.479,5.159c2.84,0,3.479-2.72,3.479-5.159S317.236,159.482,314.396,159.482z
	 M352.717,154.244h4.239v4.879h-4.239v7.238c0,1.92,0.4,2.76,2.439,2.76c0.6,0,1.2-0.04,1.8-0.12V175c-1.6,0-3.359,0.24-5.079,0.24
	c-3.36,0-7.079-0.52-7.079-6.199v-9.918h-3.52v-4.879h3.52v-6.32h7.919V154.244z M359.478,146.445h7.918v10.037h0.08
	c1.32-1.6,3.12-2.759,6.479-2.759c3.719,0,7.119,2.28,7.119,7.038V175h-7.918v-10.878c0-2.399-0.28-4.079-2.6-4.079
	c-1.4,0-3.16,0.68-3.16,3.999V175h-7.918V146.445z M392.077,166.401c0.2,2.399,1.52,4.04,4.04,4.04c1.28,0,2.68-0.48,3.319-1.48
	h7.399c-1.6,4.479-5.999,6.559-10.678,6.559c-6.639,0-11.638-3.919-11.638-10.838c0-6.039,4.359-10.958,10.958-10.958
	c8.239,0,11.798,4.56,11.798,12.678H392.077z M399.675,162.282c0-1.92-1.439-3.479-3.479-3.479c-2.4,0-3.72,1.24-4.08,3.479H399.675
	z M437.355,162.122c-0.08-0.88-0.36-1.52-0.88-1.96c-0.52-0.439-1.16-0.68-2-0.68c-3.04,0-3.479,2.64-3.479,5.159
	c0,2.56,0.44,5.119,3.479,5.119c1.72,0,2.919-1.399,3.08-3.04h7.559c-0.76,5.64-5.199,8.799-10.798,8.799
	c-6.239,0-11.238-4.318-11.238-10.878c0-6.559,4.999-10.918,11.238-10.918c5.479,0,10.038,2.64,10.558,8.398H437.355z
	 M448.557,146.445h7.918V175h-7.918V146.445z M482.593,175h-7.639v-2.64h-0.08c-1.479,2.079-3.56,3.159-6.759,3.159
	c-3.719,0-7.119-2.279-7.119-7.039v-14.236h7.919v10.877c0,2.4,0.24,4.08,2.6,4.08c1.399,0,3.159-0.68,3.159-4v-10.957h7.919V175z
	 M486.916,146.445h7.919v10.078h0.08c1.239-1.76,3.279-2.8,5.679-2.8c6.959,0,8.839,5.879,8.839,10.798
	c0,5.239-2.839,10.998-8.718,10.998c-3.84,0-5.119-1.52-6.08-2.799h-0.08V175h-7.639V146.445z M498.035,159.482
	c-2.84,0-3.48,2.68-3.48,5.119s0.641,5.159,3.48,5.159c2.839,0,3.479-2.72,3.479-5.159S500.874,159.482,498.035,159.482z
	 M552.552,175h-8.118l-3-12.758h-0.08L538.274,175h-8.118l-6.479-20.756h8.239l3.078,12.838h0.08l2.641-12.838h7.398l2.76,12.838
	h0.16l2.879-12.838h8.238L552.552,175z M581.232,170.361c0,1.559,0.04,3.318,0.96,4.639h-8.079c-0.199-0.6-0.319-1.359-0.279-1.959
	h-0.08c-1.72,1.919-4.119,2.479-6.679,2.479c-3.999,0-7.319-1.92-7.319-6.278c0-6.599,7.719-6.279,11.719-7.079
	c1.08-0.199,2.159-0.52,2.159-1.84c0-1.399-1.319-1.92-2.6-1.92c-2.399,0-2.96,1.24-2.96,2.12h-7.357
	c0.199-5.879,5.799-6.799,10.678-6.799c9.918,0,9.838,4.119,9.838,8.118V170.361z M573.634,165.682c-0.96,0.48-2.04,0.72-3.119,1
	c-1.76,0.439-2.68,0.84-2.68,2.239c0,0.96,1.04,1.92,2.479,1.92c1.8,0,3.199-1.04,3.319-3.239V165.682z M597.434,160.282
	c-0.04-0.68-0.4-1.2-0.92-1.56c-0.48-0.4-1.08-0.6-1.76-0.6c-1.119,0-2.399,0.279-2.399,1.6c0,0.6,0.479,0.88,0.92,1.08
	c1.28,0.52,4.319,0.76,6.958,1.6c2.68,0.84,4.96,2.399,4.96,5.799c0,5.759-5.519,7.318-10.559,7.318
	c-4.879,0-10.238-1.959-10.358-7.318h7.559c0.041,0.68,0.36,1.32,0.961,1.84c0.439,0.4,1.159,0.6,2.119,0.6
	c1.039,0,2.68-0.4,2.68-1.6s-0.68-1.56-4.359-2.199c-6.039-1-8.479-2.96-8.479-6.52c0-5.238,5.639-6.599,9.799-6.599
	c4.479,0,9.877,1.239,10.078,6.559H597.434z M608.395,154.244h7.639v2.639h0.08c1.48-2.08,3.56-3.159,6.76-3.159
	c3.719,0,7.118,2.28,7.118,7.038V175h-7.919v-10.878c0-2.399-0.279-4.079-2.6-4.079c-1.399,0-3.159,0.68-3.159,3.999V175h-7.919
	V154.244z M641.754,153.004c0,4.239-1,7.639-7.359,8.598v-3.479c2.4-0.28,3.24-1.68,3.279-3.76h-3.279v-7.918h7.359V153.004z
	 M654.953,154.244h4.24v4.879h-4.24v7.238c0,1.92,0.4,2.76,2.439,2.76c0.601,0,1.2-0.04,1.801-0.12V175
	c-1.601,0-3.359,0.24-5.08,0.24c-3.359,0-7.078-0.52-7.078-6.199v-9.918h-3.52v-4.879h3.52v-6.32h7.918V154.244z M701.43,175h-8.118
	l-2.999-12.758h-0.08L687.152,175h-8.118l-6.479-20.756h8.239l3.079,12.838h0.08l2.64-12.838h7.399l2.759,12.838h0.16l2.88-12.838
	h8.238L701.43,175z M717.953,152.004h-7.918v-5.559h7.918V152.004z M710.035,154.244h7.918V175h-7.918V154.244z M722.635,146.445
	h7.918V175h-7.918V146.445z M735.233,146.445h7.919V175h-7.919V146.445z M755.752,152.004h-7.919v-5.559h7.919V152.004z
	 M747.833,154.244h7.919V175h-7.919V154.244z M760.272,154.244h7.64v2.639h0.079c1.48-2.08,3.56-3.159,6.759-3.159
	c3.72,0,7.119,2.28,7.119,7.038V175h-7.919v-10.878c0-2.399-0.279-4.079-2.6-4.079c-1.399,0-3.159,0.68-3.159,3.999V175h-7.919
	V154.244z M807.35,172.32c0,4.16-1.08,9.918-10.799,9.918c-4.919,0-10.078-1.319-10.838-6.918h7.839
	c0.12,0.199,0.28,0.439,0.439,0.72c0.48,0.76,1.32,1.52,2.32,1.52c2.56,0,3.119-3.04,3.119-4.759v-1.92h-0.08
	c-1.279,1.879-3.159,2.879-5.559,2.879c-6.119,0-8.879-4.559-8.879-10.117c0-5.4,3.079-9.919,8.998-9.919
	c2.36,0,4.52,0.92,5.439,3.04h0.08v-2.52h7.919V172.32z M796.392,168.682c2.919,0,3.239-2.801,3.239-5.119
	c0-2.28-1.08-4.08-3.439-4.08c-2.28,0-3.359,1.92-3.359,4.119C792.832,165.961,793.552,168.682,796.392,168.682z M834.271,154.244
	h4.239v4.879h-4.239v7.238c0,1.92,0.4,2.76,2.439,2.76c0.601,0,1.2-0.04,1.8-0.12V175c-1.6,0-3.359,0.24-5.079,0.24
	c-3.359,0-7.078-0.52-7.078-6.199v-9.918h-3.52v-4.879h3.52v-6.32h7.918V154.244z M851.47,175.52
	c-7.799,0-11.317-5.158-11.317-10.918c0-5.719,3.519-10.878,11.317-10.878s11.318,5.159,11.318,10.878
	C862.788,170.361,859.269,175.52,851.47,175.52z M851.47,159.482c-3.039,0-3.399,2.92-3.399,5.119s0.36,5.159,3.399,5.159
	c3.04,0,3.399-2.96,3.399-5.159S854.51,159.482,851.47,159.482z M214.078,208.282c-0.04-0.68-0.4-1.2-0.92-1.56
	c-0.48-0.4-1.08-0.6-1.76-0.6c-1.12,0-2.399,0.279-2.399,1.6c0,0.6,0.48,0.88,0.92,1.08c1.28,0.52,4.319,0.76,6.958,1.6
	c2.68,0.84,4.959,2.399,4.959,5.799c0,5.759-5.519,7.318-10.559,7.318c-4.879,0-10.238-1.959-10.358-7.318h7.559
	c0.04,0.68,0.36,1.32,0.96,1.84c0.44,0.4,1.16,0.6,2.12,0.6c1.04,0,2.679-0.4,2.679-1.6s-0.68-1.56-4.359-2.199
	c-6.039-1-8.479-2.96-8.479-6.52c0-5.238,5.639-6.599,9.798-6.599c4.479,0,9.878,1.239,10.078,6.559H214.078z M225.039,202.244
	h7.639v2.279h0.08c0.96-1.28,2.24-2.8,6.079-2.8c5.879,0,8.718,5.759,8.718,10.998c0,4.919-1.879,10.798-8.838,10.798
	c-2.399,0-4.439-1.039-5.679-2.799h-0.08v8.998h-7.918V202.244z M236.157,217.761c2.839,0,3.479-2.679,3.479-5.119
	c0-2.439-0.64-5.159-3.479-5.159s-3.479,2.72-3.479,5.159C232.678,215.082,233.318,217.761,236.157,217.761z M257.638,214.401
	c0.2,2.399,1.52,4.04,4.04,4.04c1.28,0,2.68-0.48,3.319-1.48h7.399c-1.6,4.479-5.999,6.559-10.678,6.559
	c-6.639,0-11.638-3.919-11.638-10.838c0-6.039,4.359-10.958,10.958-10.958c8.239,0,11.798,4.56,11.798,12.678H257.638z
	 M265.236,210.282c0-1.92-1.439-3.479-3.479-3.479c-2.4,0-3.72,1.24-4.08,3.479H265.236z M276.159,202.244h7.639v2.639h0.08
	c1.479-2.08,3.559-3.159,6.759-3.159c3.719,0,7.119,2.28,7.119,7.038V223h-7.918v-10.878c0-2.399-0.28-4.079-2.6-4.079
	c-1.4,0-3.16,0.68-3.16,3.999V223h-7.918V202.244z M323.675,223h-7.639v-2.279h-0.08c-0.959,1.279-2.239,2.799-6.079,2.799
	c-5.879,0-8.719-5.759-8.719-10.998c0-4.919,1.88-10.798,8.838-10.798c2.4,0,4.439,1.04,5.679,2.8h0.08v-10.078h7.918V223z
	 M312.557,207.482c-2.839,0-3.479,2.68-3.479,5.119s0.64,5.159,3.479,5.159c2.84,0,3.479-2.72,3.479-5.159
	S315.396,207.482,312.557,207.482z M351.796,223.52c-7.798,0-11.318-5.158-11.318-10.918c0-5.719,3.52-10.878,11.318-10.878
	c7.799,0,11.318,5.159,11.318,10.878C363.114,218.361,359.595,223.52,351.796,223.52z M351.796,207.482
	c-3.039,0-3.399,2.92-3.399,5.119s0.36,5.159,3.399,5.159c3.04,0,3.399-2.96,3.399-5.159S354.835,207.482,351.796,207.482z
	 M366.558,202.244h7.639v2.639h0.08c1.479-2.08,3.56-3.159,6.759-3.159c3.719,0,7.119,2.28,7.119,7.038V223h-7.918v-10.878
	c0-2.399-0.28-4.079-2.6-4.079c-1.4,0-3.16,0.68-3.16,3.999V223h-7.918V202.244z M405.797,202.244h7.639v2.759h0.08
	c1.6-2.399,3.919-3.279,6.799-3.279c2.24,0,4.639,1.159,5.599,3.239c0.32-0.199,1.919-3.239,7.079-3.239
	c5.319,0,7.119,3.679,7.119,7.038V223h-7.919v-11.238c0-1.959-0.2-3.719-2.6-3.719c-2.04,0-2.679,1.52-2.679,3.719V223h-7.919
	v-11.238c0-1.959-0.2-3.719-2.6-3.719c-2.04,0-2.68,1.52-2.68,3.719V223h-7.918V202.244z M454.795,223.52
	c-7.798,0-11.317-5.158-11.317-10.918c0-5.719,3.52-10.878,11.317-10.878c7.799,0,11.318,5.159,11.318,10.878
	C466.113,218.361,462.594,223.52,454.795,223.52z M454.795,207.482c-3.039,0-3.398,2.92-3.398,5.119s0.359,5.159,3.398,5.159
	c3.04,0,3.4-2.96,3.4-5.159S457.835,207.482,454.795,207.482z M469.557,202.244h7.6v3.318h0.08c1.279-2.52,2.959-3.839,5.838-3.839
	c0.76,0,1.521,0.12,2.32,0.319v7c-0.8-0.281-1.52-0.521-3.119-0.521c-3.16,0-4.8,1.8-4.8,6.278V223h-7.919V202.244z
	 M493.275,214.401c0.2,2.399,1.52,4.04,4.039,4.04c1.28,0,2.68-0.48,3.32-1.48h7.398c-1.6,4.479-5.999,6.559-10.678,6.559
	c-6.64,0-11.639-3.919-11.639-10.838c0-6.039,4.359-10.958,10.958-10.958c8.239,0,11.798,4.56,11.798,12.678H493.275z
	 M500.874,210.282c0-1.92-1.439-3.479-3.479-3.479c-2.399,0-3.719,1.24-4.079,3.479H500.874z M537.154,208.282
	c-0.04-0.68-0.4-1.2-0.92-1.56c-0.48-0.4-1.08-0.6-1.76-0.6c-1.119,0-2.399,0.279-2.399,1.6c0,0.6,0.479,0.88,0.92,1.08
	c1.28,0.52,4.319,0.76,6.958,1.6c2.68,0.84,4.96,2.399,4.96,5.799c0,5.759-5.519,7.318-10.559,7.318
	c-4.879,0-10.238-1.959-10.358-7.318h7.559c0.041,0.68,0.36,1.32,0.961,1.84c0.439,0.4,1.159,0.6,2.119,0.6
	c1.039,0,2.68-0.4,2.68-1.6s-0.68-1.56-4.359-2.199c-6.039-1-8.479-2.96-8.479-6.52c0-5.238,5.639-6.599,9.799-6.599
	c4.479,0,9.877,1.239,10.078,6.559H537.154z M557.635,202.244h4.238v4.879h-4.238v7.238c0,1.92,0.399,2.76,2.439,2.76
	c0.6,0,1.199-0.04,1.799-0.12V223c-1.6,0-3.359,0.24-5.078,0.24c-3.36,0-7.08-0.52-7.08-6.199v-9.918h-3.52v-4.879h3.52v-6.32h7.92
	V202.244z M564.396,202.244h7.598v3.318h0.08c1.28-2.52,2.96-3.839,5.84-3.839c0.76,0,1.52,0.12,2.319,0.319v7
	c-0.8-0.281-1.521-0.521-3.12-0.521c-3.158,0-4.799,1.8-4.799,6.278V223h-7.918V202.244z M590.234,200.004h-7.919v-5.559h7.919
	V200.004z M582.315,202.244h7.919V223h-7.919V202.244z M594.915,194.445h7.919v13.797l5.039-5.998h8.958l-7.398,7.838L617.99,223
	h-9.518l-4.239-7.519l-1.399,1.52V223h-7.919V194.445z M625.873,214.401c0.2,2.399,1.52,4.04,4.039,4.04c1.28,0,2.68-0.48,3.32-1.48
	h7.398c-1.6,4.479-5.999,6.559-10.678,6.559c-6.64,0-11.639-3.919-11.639-10.838c0-6.039,4.359-10.958,10.958-10.958
	c8.239,0,11.798,4.56,11.798,12.678H625.873z M633.472,210.282c0-1.92-1.439-3.479-3.479-3.479c-2.399,0-3.719,1.24-4.079,3.479
	H633.472z M644.395,202.244h7.598v3.318h0.08c1.28-2.52,2.96-3.839,5.84-3.839c0.76,0,1.52,0.12,2.319,0.319v7
	c-0.8-0.281-1.521-0.521-3.12-0.521c-3.158,0-4.799,1.8-4.799,6.278V223h-7.918V202.244z M674.151,208.282
	c-0.04-0.68-0.399-1.2-0.92-1.56c-0.479-0.4-1.08-0.6-1.76-0.6c-1.12,0-2.399,0.279-2.399,1.6c0,0.6,0.48,0.88,0.92,1.08
	c1.279,0.52,4.318,0.76,6.959,1.6c2.68,0.84,4.959,2.399,4.959,5.799c0,5.759-5.52,7.318-10.559,7.318
	c-4.879,0-10.238-1.959-10.357-7.318h7.559c0.039,0.68,0.359,1.32,0.959,1.84c0.44,0.4,1.16,0.6,2.12,0.6
	c1.04,0,2.679-0.4,2.679-1.6s-0.68-1.56-4.358-2.199c-6.039-1-8.479-2.96-8.479-6.52c0-5.238,5.639-6.599,9.798-6.599
	c4.479,0,9.879,1.239,10.078,6.559H674.151z M685.473,215.082h8.318V223h-8.318V215.082z M909-8H-8v247h917V-8z"/>
</svg>
