<?xml version="1.0" encoding="utf-8"?>
<!-- Generator: Adobe Illustrator 16.0.0, SVG Export Plug-In . SVG Version: 6.00 Build 0)  -->
<!DOCTYPE svg PUBLIC "-//W3C//DTD SVG 1.1//EN" "http://www.w3.org/Graphics/SVG/1.1/DTD/svg11.dtd">
<svg version="1.1" id="Layer_1" xmlns="http://www.w3.org/2000/svg" xmlns:xlink="http://www.w3.org/1999/xlink" x="0px" y="0px"
	 width="50px" height="50px" viewBox="0 0 50 50" enable-background="new 0 0 50 50" xml:space="preserve">
<g>
	<g>
		<g>
			<g>
				<g>
					<g>
						<path fill="#FFFFFF" d="M49.295,21.22c-0.152-0.193-0.417-0.211-0.666-0.244C48.821,21.161,49.025,21.241,49.295,21.22z"/>
						<polygon fill="#FFFFFF" points="48.624,20.972 48.62,20.975 48.629,20.976 						"/>
						<path fill="#FFFFFF" d="M0.185,29.611c0.062-0.003,0.133-0.008,0.205-0.012C0.321,29.594,0.251,29.594,0.185,29.611z"/>
						<path fill="#FFFFFF" d="M36.531,20.417l-0.038,0.32c-0.592,0.004-0.172-0.366-0.72-0.287
							c-0.214,0.453-0.909-0.047-1.099,0.193c0.004-0.036-0.265-0.049-0.248-0.191c-0.081,0.246-0.275,0.057-0.444,0.12
							c-0.062,0.068,0.046,0.074,0.091,0.147l-0.387,0.087c-0.152-0.079-0.189-0.224-0.025-0.25
							c-1.012-0.088-5.872-0.323-6.963-0.201c0.141,0.185,0.477,0.06,0.605,0.352c-0.289,0.164-0.426-0.057-0.553,0.115
							c-0.11-0.434-0.633-0.104-0.852-0.543l-0.082,0.246l-0.145-0.151c-1.268,0.256-0.289,0.125-1.413,0.067
							c-0.651,0.038-0.96,0.378-1.322,0.253c0.054,0.002,0.198,0.153,0.029,0.216c-0.029-0.216-0.449,0.155-0.531-0.063
							c-0.165,0.027-0.7,0-0.519,0.295c-0.091-0.147-0.568-0.208-0.284-0.335c-0.161-0.009-0.316-0.052-0.433,0.013l0.207,0.082
							c-0.544,0.043-0.84-0.186-1.194,0.082l0.201,0.117c-0.325,0.019-0.597,0.041-0.725-0.251l0.334-0.089
							c-0.54,0.007-0.865,0.027-1.314,0.182l0.161,0.008c-0.572,0.292-3.567,0.532-4.094,0.897l0.243,0.227l-0.454,0.191
							c0.054,0.002,0.219-0.736,0.264-0.662c-0.972,0.021-6.027,0.197-6.924,0.044c-0.362-0.125-0.065-0.36-0.061-0.396
							c-0.44,0.084-0.19,0.24-0.565,0.221c-0.102-0.041,0.021-0.178,0.079-0.21c-0.165,0.027-0.317-0.052-0.329,0.054
							c0.205,0.082,0.118,0.363,0.205,0.545l-0.482-0.024l0.021-0.177c-0.107-0.005-0.272,0.485-0.746,0.39
							c-0.799-0.077-1.667-0.015-2.47-0.056c0.013-0.106,0.181-0.169,0.35-0.231c-0.108-0.005-0.271,0.022-0.371-0.055
							c0.194,0.188-0.337,0.125-0.186,0.205c-0.588,0.434-1.35,0.038-1.869,0.332c-0.045,0.39-1.112,6.7-1.112,7.165
							C0.209,29.398,0.049,29.391,0,29.353c0.042,0.108,0.358,0.161,0.527,0.099l0.029-0.248c0.387-0.088,0.091,0.146,0.469,0.131
							c0.02,0.203-0.328,0.246-0.635,0.266c0.276,0.023,0.551,0.172,0.664-0.051c0.259,0.085-0.029,0.248,0.284,0.336
							c0.223-0.061,0.515-0.26,0.771-0.139l-0.004,0.035c0.622,0.211,0.951-0.309,1.519-0.1l-0.062,0.067
							c0.201,0.118,0.596-0.04,0.958,0.085c-0.104-0.041-0.193-0.188,0.024-0.213c0.417,0.129,0.701,0,1.005,0.158l0.292-0.198
							c1.45,0.038,7.176-0.245,8.632-0.276l-0.057,0.031c2.219-0.099,6.773-0.084,9.067-0.357c0.354,0.195,0.844,0.149,1.214,0.205
							c-0.206-0.082-0.136-0.221,0.025-0.213c1.128,0.021,0.075-0.137,1.216-0.22c1.313-0.183,6.338,0.024,7.504,0.192
							c0.625-0.289,1.407-0.07,2.021-0.254l-0.062,0.068c0.658-0.108,4.387,0.159,5.152,0.057l-0.102-0.042
							c0.667-0.179,0.576,0.137,1.102,0.235c-0.068-0.324,0.504-0.508,0.722-0.533l-0.009,0.071c0.329-0.055,1.074-0.337,1.618-0.38
							l-0.021,0.178c0.452-0.191,1.305-0.111,1.63-0.131c0.745,0.074,1.894,0.383,2.89,0.148l0.643,0.506l0.095-0.051
							c0,0,1.036-6.105-0.279-7.405l0.021-0.177l-0.26,0.023c-0.313-0.087-0.456,0.118-0.435-0.059l0.427,0.021
							c-0.313-0.051-0.094-0.145,0.025-0.245c-0.131-0.017-0.258-0.039-0.362-0.093c-0.062,0.068,0.046,0.074,0.095,0.112
							c-0.169,0.063-0.404,0.229-0.609,0.147c-0.32-0.017-0.021-0.287-0.395-0.306c-1.976-0.137-3.891-0.342-5.887-0.302
							c-0.045-0.073,0.009-0.071,0.066-0.104c-0.602,0.077-1.137,0.049-1.684,0.128c-0.152-0.08-0.193-0.188-0.239-0.262
							C39.696,20.442,36.581,20.456,36.531,20.417z"/>
					</g>
				</g>
			</g>
		</g>
	</g>
	<g>
		<g>
			<g>
				<g>
					<g>
						<path fill="#FFFFFF" d="M0.183,45.221c0.155,0.193,0.423,0.212,0.677,0.244C0.665,45.279,0.457,45.199,0.183,45.221z"/>
						<polygon fill="#FFFFFF" points="0.864,45.469 0.869,45.467 0.86,45.465 						"/>
						<path fill="#FFFFFF" d="M50.101,36.829c-0.063,0.003-0.136,0.008-0.209,0.012C49.962,36.847,50.033,36.848,50.101,36.829z"/>
						<path fill="#FFFFFF" d="M13.156,46.023l0.039-0.319c0.602-0.005,0.175,0.366,0.732,0.287c0.218-0.452,0.924,0.047,1.117-0.193
							c-0.004,0.036,0.269,0.05,0.251,0.19c0.083-0.245,0.28-0.057,0.452-0.119c0.062-0.068-0.046-0.074-0.092-0.147l0.394-0.087
							c0.154,0.079,0.192,0.224,0.024,0.25c1.029,0.088,5.97,0.323,7.079,0.201c-0.143-0.186-0.485-0.061-0.615-0.352
							c0.293-0.164,0.432,0.057,0.561-0.115c0.112,0.434,0.644,0.104,0.866,0.543l0.083-0.246l0.146,0.151
							c1.289-0.256,0.295-0.125,1.438-0.067c0.661-0.037,0.976-0.379,1.344-0.253c-0.055-0.003-0.201-0.153-0.029-0.216
							c0.029,0.216,0.456-0.154,0.539,0.063c0.168-0.027,0.711,0.001,0.527-0.295c0.092,0.147,0.578,0.208,0.289,0.335
							c0.164,0.01,0.322,0.053,0.439-0.013l-0.21-0.082c0.553-0.043,0.854,0.186,1.214-0.081l-0.204-0.117
							c0.331-0.02,0.606-0.041,0.736,0.251l-0.339,0.089c0.547-0.007,0.878-0.026,1.334-0.182l-0.162-0.008
							c0.582-0.291,3.625-0.532,4.16-0.897l-0.246-0.227l0.461-0.19c-0.055-0.003-0.223,0.735-0.268,0.661
							c0.987-0.021,6.125-0.196,7.037-0.044c0.369,0.125,0.067,0.359,0.063,0.396c0.448-0.085,0.193-0.24,0.574-0.221
							c0.104,0.041-0.021,0.178-0.08,0.21c0.168-0.027,0.322,0.052,0.334-0.055c-0.208-0.082-0.119-0.362-0.208-0.545l0.49,0.024
							l-0.022,0.177c0.109,0.006,0.277-0.484,0.759-0.39c0.812,0.077,1.694,0.015,2.511,0.056c-0.014,0.106-0.185,0.17-0.356,0.232
							c0.109,0.005,0.276-0.022,0.377,0.055c-0.197-0.188,0.343-0.126,0.188-0.205c0.598-0.434,1.371-0.037,1.899-0.332
							c0.046-0.39,1.13-6.7,1.13-7.164c0.164,0.009,0.328,0.018,0.377,0.055c-0.041-0.108-0.363-0.16-0.535-0.098l-0.029,0.248
							c-0.395,0.087-0.092-0.147-0.477-0.131c-0.021-0.203,0.333-0.247,0.645-0.267c-0.28-0.023-0.561-0.172-0.674,0.051
							c-0.264-0.085,0.029-0.248-0.289-0.335c-0.227,0.06-0.523,0.259-0.783,0.139l0.005-0.036c-0.632-0.21-0.967,0.309-1.544,0.101
							l0.063-0.068c-0.204-0.117-0.605,0.041-0.975-0.084c0.105,0.041,0.197,0.188-0.024,0.212c-0.423-0.128-0.712,0-1.021-0.158
							l-0.297,0.198c-1.474-0.038-7.294,0.245-8.774,0.276l0.059-0.031c-2.256,0.099-6.886,0.084-9.217,0.358
							c-0.36-0.196-0.857-0.15-1.234-0.205c0.21,0.082,0.138,0.221-0.025,0.213c-1.146-0.022-0.077,0.136-1.236,0.219
							c-1.334,0.183-6.442-0.024-7.626-0.191c-0.636,0.289-1.431,0.07-2.054,0.253l0.063-0.068c-0.67,0.108-4.46-0.159-5.238-0.056
							l0.104,0.041c-0.678,0.18-0.586-0.137-1.121-0.234c0.07,0.324-0.511,0.508-0.733,0.532l0.008-0.071
							c-0.334,0.055-1.092,0.337-1.645,0.38l0.021-0.177c-0.46,0.19-1.326,0.111-1.657,0.13c-0.757-0.073-1.925-0.382-2.937-0.147
							l-0.654-0.506l-0.096,0.05c0,0-1.053,6.105,0.284,7.405l-0.022,0.178l0.265-0.023c0.317,0.088,0.464-0.117,0.442,0.059
							l-0.434-0.021c0.319,0.052,0.096,0.146-0.025,0.246c0.133,0.017,0.262,0.038,0.368,0.092c0.063-0.067-0.046-0.073-0.096-0.111
							c0.171-0.063,0.41-0.229,0.619-0.147c0.326,0.017,0.021,0.287,0.402,0.306c2.007,0.138,3.954,0.343,5.983,0.303
							c0.046,0.073-0.009,0.07-0.067,0.104c0.611-0.076,1.155-0.049,1.712-0.128c0.154,0.079,0.196,0.188,0.242,0.262
							C9.939,45.999,13.106,45.985,13.156,46.023z"/>
					</g>
				</g>
			</g>
		</g>
	</g>
	<g>
		<g>
			<g>
				<g>
					<g>
						<path fill="#FFFFFF" d="M0.548,12.503c0.15,0.193,0.41,0.211,0.656,0.244C1.015,12.562,0.814,12.481,0.548,12.503z"/>
						<polygon fill="#FFFFFF" points="1.209,12.75 1.213,12.748 1.205,12.747 						"/>
						<path fill="#FFFFFF" d="M48.921,4.111C48.86,4.114,48.79,4.119,48.72,4.123C48.787,4.128,48.856,4.129,48.921,4.111z"/>
						<path fill="#FFFFFF" d="M13.121,13.306l0.037-0.32c0.584-0.004,0.17,0.366,0.709,0.287c0.211-0.453,0.896,0.047,1.083-0.193
							c-0.004,0.036,0.26,0.049,0.243,0.191c0.081-0.246,0.272-0.057,0.438-0.12c0.061-0.068-0.044-0.074-0.089-0.147l0.382-0.087
							c0.149,0.079,0.186,0.224,0.023,0.25c0.998,0.088,5.785,0.323,6.859,0.201c-0.138-0.185-0.47-0.06-0.596-0.352
							c0.284-0.164,0.418,0.057,0.543-0.115c0.109,0.434,0.624,0.104,0.839,0.543l0.082-0.246l0.141,0.151
							c1.249-0.256,0.285-0.125,1.393-0.067c0.641-0.038,0.945-0.378,1.303-0.253c-0.054-0.002-0.195-0.153-0.029-0.216
							c0.029,0.216,0.442-0.155,0.523,0.063c0.162-0.027,0.689,0,0.511-0.295c0.089,0.147,0.56,0.208,0.28,0.335
							c0.158,0.009,0.312,0.052,0.426-0.013l-0.203-0.082c0.535-0.043,0.826,0.186,1.176-0.082l-0.198-0.117
							c0.32-0.019,0.588-0.041,0.714,0.251l-0.329,0.089c0.531-0.007,0.852-0.027,1.294-0.182l-0.158-0.008
							c0.564-0.292,3.514-0.532,4.032-0.897L34.31,11.65l0.447-0.191c-0.053-0.002-0.216,0.736-0.26,0.662
							c0.957-0.021,5.936-0.197,6.82-0.044c0.357,0.125,0.064,0.36,0.061,0.396c0.434-0.084,0.187-0.24,0.557-0.221
							c0.1,0.041-0.021,0.178-0.078,0.21c0.162-0.027,0.312,0.052,0.324-0.054c-0.203-0.082-0.117-0.363-0.203-0.545l0.476,0.024
							l-0.021,0.177c0.106,0.005,0.269-0.485,0.735-0.39c0.786,0.077,1.641,0.015,2.432,0.056c-0.012,0.106-0.178,0.169-0.344,0.231
							c0.105,0.005,0.268-0.022,0.365,0.055c-0.191-0.188,0.332-0.125,0.182-0.205c0.58-0.434,1.33-0.038,1.842-0.332
							c0.044-0.39,1.095-6.701,1.095-7.165c0.159,0.009,0.317,0.017,0.365,0.055c-0.04-0.109-0.353-0.161-0.519-0.099L48.556,4.52
							c-0.381,0.087-0.09-0.147-0.461-0.131c-0.021-0.203,0.322-0.247,0.625-0.267c-0.272-0.023-0.543-0.172-0.654,0.051
							c-0.256-0.084,0.029-0.248-0.279-0.335c-0.219,0.06-0.507,0.259-0.759,0.139l0.005-0.036c-0.613-0.21-0.938,0.309-1.497,0.101
							l0.061-0.068c-0.198-0.118-0.587,0.041-0.944-0.085c0.102,0.041,0.191,0.188-0.023,0.212c-0.41-0.128-0.69,0-0.99-0.158
							l-0.287,0.199c-1.428-0.039-7.068,0.245-8.503,0.276l0.056-0.031c-2.186,0.099-6.672,0.084-8.931,0.358
							c-0.349-0.196-0.831-0.149-1.195-0.205c0.202,0.082,0.133,0.221-0.024,0.213c-1.111-0.022-0.076,0.136-1.199,0.219
							c-1.293,0.182-6.243-0.025-7.391-0.192c-0.617,0.289-1.387,0.071-1.991,0.253l0.061-0.068
							c-0.649,0.109-4.322-0.159-5.076-0.056L9.259,4.95C8.602,5.129,8.691,4.813,8.173,4.715c0.068,0.324-0.496,0.508-0.71,0.533
							l0.008-0.071C7.147,5.231,6.413,5.513,5.877,5.556l0.021-0.177C5.452,5.57,4.613,5.49,4.292,5.509
							C3.559,5.436,2.427,5.127,1.446,5.361L0.813,4.855L0.72,4.906c0,0-1.021,6.105,0.275,7.406l-0.021,0.177l0.256-0.023
							c0.307,0.087,0.449-0.118,0.428,0.059l-0.421-0.021c0.309,0.051,0.093,0.145-0.024,0.245c0.129,0.017,0.254,0.039,0.356,0.093
							c0.061-0.068-0.044-0.074-0.093-0.112c0.166-0.063,0.397-0.229,0.6-0.147c0.316,0.017,0.02,0.287,0.389,0.306
							c1.945,0.137,3.831,0.342,5.797,0.302c0.045,0.073-0.008,0.071-0.065,0.104c0.592-0.077,1.119-0.049,1.659-0.128
							c0.15,0.08,0.19,0.188,0.235,0.262C10.003,13.281,13.072,13.267,13.121,13.306z"/>
					</g>
				</g>
			</g>
		</g>
	</g>
</g>
</svg>
