<?xml version="1.0" encoding="utf-8"?>
<!-- Generator: Adobe Illustrator 16.0.0, SVG Export Plug-In . SVG Version: 6.00 Build 0)  -->
<!DOCTYPE svg PUBLIC "-//W3C//DTD SVG 1.1//EN" "http://www.w3.org/Graphics/SVG/1.1/DTD/svg11.dtd">
<svg version="1.1" id="Layer_1" xmlns="http://www.w3.org/2000/svg" xmlns:xlink="http://www.w3.org/1999/xlink" x="0px" y="0px"
	 width="900px" height="500px" viewBox="0 0 900 500" enable-background="new 0 0 900 500" xml:space="preserve">
<g>
	
		<rect x="-219.873" y="-138.74" transform="matrix(0.926 -0.3774 0.3774 0.926 69.1382 104.0554)" fill="#005594" width="1039.895" height="28.711"/>
	
		<rect x="-209.426" y="-112.516" transform="matrix(0.926 -0.3774 0.3774 0.926 60.0134 109.9376)" fill="#5C9742" width="1039.894" height="28.711"/>
	
		<rect x="-198.487" y="-85.97" transform="matrix(0.926 -0.3774 0.3774 0.926 50.8036 116.0298)" fill="#005594" width="1039.894" height="28.712"/>
	
		<rect x="-188.04" y="-59.746" transform="matrix(0.926 -0.3774 0.3774 0.926 41.6787 121.9119)" fill="#5C9742" width="1039.895" height="28.711"/>
	
		<rect x="-177.049" y="-33.222" transform="matrix(0.926 -0.3774 0.3774 0.926 32.4807 128.0221)" fill="#005594" width="1039.894" height="28.711"/>
	
		<rect x="-166.602" y="-6.998" transform="matrix(0.926 -0.3774 0.3774 0.926 23.3561 133.9042)" fill="#5C9742" width="1039.893" height="28.712"/>
	
		<rect x="-155.663" y="19.548" transform="matrix(0.926 -0.3774 0.3774 0.926 14.1459 139.9962)" fill="#005594" width="1039.896" height="28.711"/>
	
		<rect x="-145.217" y="45.771" transform="matrix(0.926 -0.3774 0.3774 0.926 5.0213 145.8786)" fill="#5C9742" width="1039.894" height="28.711"/>
	
		<rect x="-134.148" y="72.263" transform="matrix(0.926 -0.3774 0.3774 0.926 -4.1588 152.0153)" fill="#005594" width="1039.895" height="28.711"/>
	
		<rect x="-123.701" y="98.487" transform="matrix(0.926 -0.3774 0.3774 0.926 -13.2836 157.8974)" fill="#5C9742" width="1039.894" height="28.711"/>
	
		<rect x="-112.762" y="125.033" transform="matrix(0.926 -0.3774 0.3774 0.926 -22.4933 163.9897)" fill="#005594" width="1039.895" height="28.711"/>
	
		<rect x="-102.316" y="151.256" transform="matrix(0.926 -0.3774 0.3774 0.926 -31.6182 169.8717)" fill="#5C9742" width="1039.893" height="28.711"/>
	
		<rect x="-91.325" y="177.781" transform="matrix(0.926 -0.3774 0.3774 0.926 -40.8163 175.982)" fill="#005594" width="1039.894" height="28.712"/>
	
		<rect x="-80.878" y="204.005" transform="matrix(0.926 -0.3774 0.3774 0.926 -49.9413 181.8632)" fill="#5C9742" width="1039.893" height="28.711"/>
	
		<rect x="-69.939" y="230.551" transform="matrix(0.926 -0.3774 0.3774 0.926 -59.1511 187.9563)" fill="#005594" width="1039.896" height="28.711"/>
	
		<rect x="-59.493" y="256.774" transform="matrix(0.926 -0.3774 0.3774 0.926 -68.2758 193.838)" fill="#5C9742" width="1039.894" height="28.711"/>
	
		<rect x="-47.943" y="283.07" transform="matrix(0.926 -0.3774 0.3774 0.926 -77.3466 200.1427)" fill="#005594" width="1039.895" height="28.712"/>
	
		<rect x="-37.497" y="309.294" transform="matrix(0.926 -0.3774 0.3774 0.926 -86.4714 206.0244)" fill="#5C9742" width="1039.895" height="28.712"/>
	
		<rect x="-26.557" y="335.84" transform="matrix(0.926 -0.3774 0.3774 0.926 -95.6813 212.117)" fill="#005594" width="1039.895" height="28.712"/>
	
		<rect x="-16.111" y="362.064" transform="matrix(0.926 -0.3774 0.3774 0.926 -104.8062 217.9979)" fill="#5C9742" width="1039.893" height="28.712"/>
	
		<rect x="-5.119" y="388.588" transform="matrix(0.926 -0.3774 0.3774 0.926 -114.0042 224.1086)" fill="#005594" width="1039.894" height="28.712"/>
	
		<rect x="5.327" y="414.812" transform="matrix(0.926 -0.3774 0.3774 0.926 -123.1293 229.9906)" fill="#5C9742" width="1039.893" height="28.713"/>
	
		<rect x="16.267" y="441.359" transform="matrix(0.926 -0.3774 0.3774 0.926 -132.3387 236.0824)" fill="#005594" width="1039.896" height="28.71"/>
	
		<rect x="26.712" y="467.583" transform="matrix(0.926 -0.3774 0.3774 0.926 -141.4634 241.9644)" fill="#5C9742" width="1039.895" height="28.709"/>
	
		<rect x="37.782" y="494.074" transform="matrix(0.926 -0.3774 0.3774 0.926 -150.6433 248.1014)" fill="#005594" width="1039.896" height="28.711"/>
	
		<rect x="48.228" y="520.298" transform="matrix(0.926 -0.3774 0.3774 0.926 -159.7683 253.9839)" fill="#5C9742" width="1039.894" height="28.711"/>
	
		<rect x="59.167" y="546.844" transform="matrix(0.926 -0.3774 0.3774 0.926 -168.978 260.0757)" fill="#005594" width="1039.894" height="28.71"/>
	
		<rect x="69.614" y="573.068" transform="matrix(0.926 -0.3774 0.3774 0.926 -178.1031 265.958)" fill="#5C9742" width="1039.894" height="28.709"/>
	
		<rect x="80.605" y="599.591" transform="matrix(0.926 -0.3774 0.3774 0.926 -187.3011 272.068)" fill="#005594" width="1039.894" height="28.712"/>
	
		<rect x="91.051" y="625.815" transform="matrix(0.926 -0.3774 0.3774 0.926 -196.426 277.95)" fill="#5C9742" width="1039.893" height="28.712"/>
	
		<rect x="101.991" y="652.361" transform="matrix(0.926 -0.3774 0.3774 0.926 -205.6359 284.0423)" fill="#005594" width="1039.894" height="28.713"/>
	
		<rect x="112.437" y="678.585" transform="matrix(0.926 -0.3774 0.3774 0.926 -214.7607 289.9244)" fill="#5C9742" width="1039.894" height="28.712"/>
</g>
<rect x="-85.383" y="-70.145" opacity="0.2" width="1076.129" height="682.624"/>
</svg>
