<?xml version="1.0" encoding="utf-8"?>
<!-- Generator: Adobe Illustrator 16.0.0, SVG Export Plug-In . SVG Version: 6.00 Build 0)  -->
<!DOCTYPE svg PUBLIC "-//W3C//DTD SVG 1.1//EN" "http://www.w3.org/Graphics/SVG/1.1/DTD/svg11.dtd">
<svg version="1.1" id="Layer_1" xmlns="http://www.w3.org/2000/svg" xmlns:xlink="http://www.w3.org/1999/xlink" x="0px" y="0px"
	 width="160px" height="80px" viewBox="0 0 160 80" enable-background="new 0 0 160 80" xml:space="preserve">
<g>
	<g>
		<g>
			<path fill-rule="evenodd" clip-rule="evenodd" d="M135.203,44.512c0.852,0.141,1.861-0.129,2.555-0.785
				c0.326-0.309,4.109-0.59,5.109-1.57c0.178-0.176,0.313-1.072,0.662-1.522c0.744-0.954,1.18-0.447,1.678-2.121
				c0.139-0.463,0.008-1.464,0.143-1.938c-0.115,0.402,1.283-3.261,0.766-5.857c-0.084-0.43-0.838-0.588-0.875-1.336
				c0,0,0.633-1.566,0.662-1.521c-0.738-1.165-3.072,0.587-5.117,1.092c-4.521,1.119-7.48,0.801-11.287,0.388
				c-9.217-1.003-19.432-3.378-28.98-4.229c-2.111-0.188-4.408-0.019-6.342-0.685c-0.336-0.115-0.281-0.879-0.525-0.896
				c0.1,0.006-0.1,0.948-0.156,0.979c-0.652,0.342-2.658-0.9-3.609-1.011c-5.129-0.603-10.154-0.447-15.579-0.543
				c-8.618-0.149-17.229-2.627-25.707-2.696c-8.3-0.068-16.651-2.254-25.016-2.298c-5.696-0.032-11.912,1.665-17.599,1.62
				c-1.917-0.016-3.648-0.092-4.092,0.969c0.209-0.501,1.054,0.264,0.876,1.336c0.08-0.479-1.388,1.111-1.018,0.604
				c-0.813,1.117-0.678,0.443-0.61,4.876c0.002,0.163,0.254,0.734,0.192,1.419c-0.035,0.382-0.382,0.519-0.327,0.999
				c0.036,0.314,1.119,3.593,0.905,3.256c0.828,1.306,3.987,1.151,6.349,1.162c5.506,0.031,11.49-1.954,17.599-1.618
				c0.642,0.034,1.284-0.249,1.879-0.225c6.583,0.262,11.372,1.595,16.967,1.818c0.333,0.013,3.446-1.295,3.586-0.429
				c-0.089-0.548-0.796,0.542-0.676,0.561c0.156,0.024,0.575,0.143,1.195-0.143c0.599-0.274,0.649-1.155,1.196-0.143
				c-0.231-0.427-0.505,0.541-0.505,0.541c0.703,0.255,3.403-1.204,3.936,0.011c-0.211-0.481-0.505,0.541-0.505,0.541
				c0.509,0.045,1.512-1.12,2.213-0.745c-0.013-0.007-0.098,0.243-0.179,0.494c-0.081,0.251-0.148,0.504-0.148,0.504
				c0.519,0.005,1.112-0.64,1.701-0.682c0.227-0.016,0.483,0.788,0.868,0.857c0.391,0.068,0.883-0.772,1.188-0.622
				c0.068,0.033,0.101,0.909,0.356,0.919c0.484,0.017,1.003-0.659,1.53-0.664c11.066-0.081,27.896,2.112,40.09,3.383
				c4.75,0.494,9.301,0.742,14.055,1.685c0.205,0.04,0.471,0.873,0.699,0.876c0.463,0.012,0.602-0.779,0.846-0.581
				c0,0-0.363,0.991-0.326,1c0.609,0.162,1.064-0.842,1.871-0.704c0,0-0.092,0.228-0.184,0.466s-0.178,0.487-0.143,0.532
				c1.092,1.42,2.717-0.469,3.252,0.092c-0.285-0.297-0.457,0.547-0.506,0.543c1.061,0.09,1.313-1.646,1.879-0.227
				c-0.158-0.395-0.58,0.428-0.506,0.541c0.646,0.977,0.848-0.996,1.025-0.121c0.354-1.51,1.102,0.422,0,0
				C124.971,44.682,130.547,43.736,135.203,44.512z M51.038,34.381c-0.328-0.146,0.1-0.625,0.334-0.521
				C51.7,34.004,51.272,34.484,51.038,34.381z M119.076,41.633C118.402,41.713,119.75,41.551,119.076,41.633L119.076,41.633z
				 M124.059,42.959C123.369,42.768,125.074,43.244,124.059,42.959L124.059,42.959z"/>
			<path fill-rule="evenodd" clip-rule="evenodd" d="M49.159,34.605C48.484,34.686,49.834,34.524,49.159,34.605L49.159,34.605z"/>
			<path fill-rule="evenodd" clip-rule="evenodd" d="M56.533,35.647C55.843,35.453,57.549,35.93,56.533,35.647L56.533,35.647z"/>
			<path fill-rule="evenodd" clip-rule="evenodd" d="M60.646,36.116C60.577,36.325,60.753,35.789,60.646,36.116L60.646,36.116z"/>
			<path fill-rule="evenodd" clip-rule="evenodd" d="M62.198,36.892c-0.456-0.263,0.594-0.608,0.676-0.563
				C63.056,36.435,62.845,37.265,62.198,36.892z"/>
			<path fill-rule="evenodd" clip-rule="evenodd" d="M63.394,36.749C63.325,36.958,63.5,36.421,63.394,36.749L63.394,36.749z"/>
			<path fill-rule="evenodd" clip-rule="evenodd" d="M64.589,36.606C64.383,36.68,64.473,35.922,64.589,36.606L64.589,36.606z"/>
			<path fill-rule="evenodd" clip-rule="evenodd" d="M64.589,36.606C66.664,35.801,66.085,37.851,64.589,36.606L64.589,36.606z"/>
			<path fill-rule="evenodd" clip-rule="evenodd" d="M67.336,37.239c-0.414-0.253,0.728-0.654,0.847-0.58
				C68.39,36.785,68.06,37.682,67.336,37.239z"/>
			<path fill-rule="evenodd" clip-rule="evenodd" d="M70.076,37.392C70.008,37.602,70.183,37.064,70.076,37.392L70.076,37.392z"/>
			<path fill-rule="evenodd" clip-rule="evenodd" d="M81.377,37.965C81.309,38.174,81.484,37.638,81.377,37.965L81.377,37.965z"/>
		</g>
	</g>
</g>
<g>
	<g>
		<g>
			<path fill-rule="evenodd" clip-rule="evenodd" d="M78.187,31.504c-0.154-0.255,6.131-0.48,6.734-0.48
				c1.969,0,6.039-1.138,6.732,0c-0.105-0.173-5.492,0.48-6.732,0.48C83.612,31.504,78.882,32.643,78.187,31.504z"/>
			<path fill-rule="evenodd" clip-rule="evenodd" d="M59.743,32.465c4.375-0.527,10.087-0.961,14.053-0.961
				c0.42,0,5.733,0.124,2.927,0.479C70.67,32.752,65.913,32.098,59.743,32.465z"/>
			<path fill-rule="evenodd" clip-rule="evenodd" d="M94.874,31.983c-0.152-0.25,0.977-0.798,1.172-0.479
				C96.198,31.756,95.069,32.302,94.874,31.983z"/>
			<path fill-rule="evenodd" clip-rule="evenodd" d="M45.982,34.385c-9.497,0.723-20.319,0.209-30.155,0.959
				c-1.797,0.138-3.97-0.063-5.563,0.48c-0.833,0.283,0.907,1.41,0.878,1.439c-1.073,1.072-3.216-0.814-4.392,0.48
				c0.417-0.46,1.971,0.999,1.757,1.438c-0.271,0.558-4.084,0.186-4.392,0.481c0.363-0.349,1.101,0.177,1.171,0.48
				c0.157,0.68-0.896,1.94-0.585,1.439c-3.199,5.151,5.471,7.043,6.733,7.2c11.625,1.446,28.782,0.32,39.523-0.48
				c20.709-1.542,41.897-2.439,61.774-0.959c5.492,0.408,11.346,1.154,16.688,0.479c1.625-0.205,6.688-1.44,4.1-1.44
				c-1.719,0-0.174-0.673,0-1.44c0.551-2.44-0.445-2.217-1.172-2.399c-1.949-0.488,0.064-1.811,0.586-0.96
				c-0.545-0.891-1.053-1.943-2.928-2.401c-2.5-0.606-5.059,1.159-6.441-0.479c0.998,1.182,3.264-1.601,2.049-0.96
				c-0.219,0.115-0.621-0.467-0.584-0.48c1.436-0.528,3.057,0.074,4.098,0c4.527-0.32,0.049-0.82-1.463-0.959
				c-6.434-0.592-13-0.907-19.031-0.961c1.463,0.015-4.471-0.347-4.391-0.479c0.43-0.705,8.256-0.327,10.246,0
				c2.055,0.338,6.275,0.654,8.49,0.96c1.854,0.256,11.098-0.628,6.148-0.96c-0.959-0.064-5.068-0.901-5.855-0.96
				c-13.895-1.046-29.734-2.479-43.037-1.439C69.401,33.311,57.667,33.492,45.982,34.385z M97.216,34.864
				c-0.379-0.621,3.52-0.188,0.879,0C97.981,34.872,97.29,34.983,97.216,34.864z M99.853,34.864
				c-0.148-0.243,0.729-0.726,0.877-0.479C100.878,34.627,100.001,35.109,99.853,34.864z"/>
			<path fill-rule="evenodd" clip-rule="evenodd" d="M59.743,32.465c-1.513,0.1-4.252,1.669-4.977,0.479
				C55.042,33.396,59.052,31.572,59.743,32.465z"/>
			<path fill-rule="evenodd" clip-rule="evenodd" d="M49.203,33.424c1.58-0.029,4.485-1.766,5.27-0.48
				C53.983,32.141,49.906,34.584,49.203,33.424z"/>
			<path fill-rule="evenodd" clip-rule="evenodd" d="M49.203,33.424c-0.942-0.026-6.918,1.617-7.612,0.48
				c0.253,0.415,2.867-0.471,3.513-0.48C46.655,33.424,47.973,33.424,49.203,33.424z"/>
		</g>
	</g>
</g>
<g>
	<g>
		<g>
			<path fill-rule="evenodd" clip-rule="evenodd" d="M62.234,24.97c0.155,0.255-6.13,0.48-6.733,0.48c-1.969,0-6.039,1.138-6.733,0
				c0.106,0.173,5.493-0.48,6.733-0.48C56.809,24.97,61.54,23.832,62.234,24.97z"/>
			<path fill-rule="evenodd" clip-rule="evenodd" d="M80.679,24.009c-4.375,0.527-10.087,0.961-14.053,0.961
				c-0.42,0-5.733-0.124-2.928-0.479C69.751,23.722,74.509,24.376,80.679,24.009z"/>
			<path fill-rule="evenodd" clip-rule="evenodd" d="M45.547,24.491c0.153,0.25-0.977,0.798-1.171,0.479
				C44.223,24.718,45.353,24.172,45.547,24.491z"/>
			<path fill-rule="evenodd" clip-rule="evenodd" d="M94.438,22.089c9.497-0.723,20.318-0.209,30.154-0.959
				c1.797-0.138,3.97,0.063,5.563-0.48c0.834-0.283-0.907-1.41-0.878-1.439c1.072-1.072,3.216,0.814,4.392-0.48
				c-0.418,0.46-1.972-0.999-1.757-1.438c0.271-0.558,4.084-0.186,4.392-0.481c-0.363,0.349-1.102-0.177-1.171-0.48
				c-0.157-0.68,0.896-1.94,0.585-1.439c3.199-5.151-5.471-7.043-6.733-7.2c-11.624-1.446-28.782-0.32-39.522,0.48
				C68.752,9.712,47.565,10.61,27.688,9.129C22.195,8.721,16.342,7.975,11.001,8.65c-1.625,0.205-6.688,1.44-4.099,1.44
				c1.718,0,0.173,0.673,0,1.44c-0.55,2.44,0.444,2.217,1.171,2.399c1.949,0.488-0.064,1.811-0.585,0.96
				c0.544,0.891,1.052,1.943,2.928,2.401c2.499,0.606,5.058-1.159,6.441,0.479c-0.998-1.182-3.265,1.601-2.049,0.96
				c0.219-0.115,0.621,0.467,0.585,0.48c-1.436,0.528-3.056-0.074-4.099,0c-4.527,0.32-0.048,0.82,1.464,0.959
				c6.434,0.592,13,0.907,19.03,0.961c-1.462-0.015,4.472,0.347,4.391,0.479c-0.43,0.705-8.256,0.327-10.247,0
				c-2.054-0.338-6.274-0.654-8.49-0.96c-1.854-0.256-11.096,0.628-6.148,0.96c0.96,0.064,5.069,0.901,5.855,0.96
				c13.895,1.046,29.734,2.479,43.036,1.439C71.02,23.164,82.754,22.982,94.438,22.089z M43.205,21.61
				c0.378,0.621-3.519,0.188-0.879,0C42.44,21.602,43.132,21.491,43.205,21.61z M40.57,21.61c0.148,0.243-0.729,0.726-0.878,0.479
				C39.543,21.847,40.42,21.365,40.57,21.61z"/>
			<path fill-rule="evenodd" clip-rule="evenodd" d="M80.679,24.009c1.512-0.1,4.251-1.669,4.977-0.479
				C85.379,23.078,81.369,24.902,80.679,24.009z"/>
			<path fill-rule="evenodd" clip-rule="evenodd" d="M91.218,23.05c-1.579,0.029-4.485,1.766-5.27,0.48
				C86.438,24.333,90.516,21.89,91.218,23.05z"/>
			<path fill-rule="evenodd" clip-rule="evenodd" d="M91.218,23.05c0.941,0.026,6.919-1.617,7.612-0.48
				c-0.253-0.415-2.867,0.471-3.514,0.48C93.766,23.05,92.448,23.05,91.218,23.05z"/>
		</g>
	</g>
</g>
<g>
	<g>
		<g>
			<path fill-rule="evenodd" clip-rule="evenodd" d="M127.925,68.684c0.019-0.759-0.949-0.633-1.413-0.378
				C127.256,68.031,127.325,68.745,127.925,68.684z M108.646,44.356c0.176,0.596,0.027,0.629,0,1.318
				c0.089,0.624,1.025,0.006,1.028,0.756c-0.208,0.053-0.222-0.179-0.386-0.189c-0.4,0.661,0.634,0.822,0.771,1.32
				c0.27,0.657-0.4,0.951,0.386,1.132c0.089,0.507-0.266,0.364-0.386,0.565c0.02,0.35,0.436,0.115,0.515,0.377
				c0.053,0.894-0.438,0.991-0.386,1.887c6.459,1.652,13.755,1.794,21.851,2.263c2.993,0.173,7.816,0.358,8.997,1.886
				c0.453,0.584,0.286,1.929,1.028,1.887c0.037,0.492-0.047,0.811-0.386,0.754c0.924,0.111,1.677,2.194,0.644,3.018
				c0.039,0.443,0.446,0.35,0.385,0.942c-0.454,1.597-1.064,2.963-1.671,4.337c-13.23-1.371-23.642-0.944-34.318-1.885
				c-0.36-0.033-0.71,0.379-1.028,0.376c-2.396-0.022-4.816-0.553-7.454-0.566c-2.398-0.011-4.938,0.157-7.455,0
				c2.639,1.527,5.375-0.288,7.583,1.321c0.504-0.242,1.136-0.75,1.671-0.755c1.68-0.013,3.61,1.011,5.27,0.942
				c0.348-0.013,0.684-0.381,1.029-0.376c0.835,0.011,1.89,0.589,2.827,0.565c0.286-0.006,0.646-0.416,0.899-0.377
				c0.423,0.063,0.647,0.527,1.028,0.564c0.621,0.064,1.256-0.005,2.186,0c0.204,0.002,0.508-0.39,0.643-0.377
				c1.245,0.128,2.392,0.734,3.599,0.756c2.646,0.047,5.252,1.13,8.098,1.131c0.022,0.41-0.456,0.086-0.643,0.188
				c-0.023,0.531,0.506,0.473,0,0.755c1.382,0.545,2.427,0.559,3.984,1.131c0.071,0.419-0.245,0.27-0.257,0.566
				c0.449,0.785,1.378,0.87,1.8,1.697c-0.085,0.253-0.275,0.352-0.515,0.377c0.368,0.467,1.063,0.453,1.157,1.319
				c-1.286,1.51-3.683-0.363-4.499,1.321c-16.601,2.979-33.415,0.115-49.099,1.13c-2.965-0.443-7.353,0.13-11.439,0.378
				c-0.923,0.056-2.002-0.396-2.442,0.188c-1.692-0.661-3.55,0.315-5.27-0.566c-1.976,0.521-3.608,0.832-5.526,0
				c-1.93,0.712-4.112,0.318-6.042,0c-1.531-0.251-3.271,0.937-4.499-0.376c-3.639-0.233-8.4-0.783-10.925-4.337
				c-0.554-0.78-0.633-1.991-1.414-2.452c-0.296-1.137-0.616-2.238-0.771-3.583c-0.136-0.703,0.271-0.608,0.386-0.942
				c-2.93,0.042-6.464-0.811-10.154-1.133c-2.037-0.177-4.414,0.047-5.784-1.509c-1.034-1.173-0.76-3.593-1.8-4.714
				c0.487-1.741,0.468-2.504,0.129-4.337c0.433-1.755,1.701-2.282,2.956-2.829c-1.121-0.065-2.571-1.328-3.984-0.943
				c0.117-0.395,0.379-0.575,0.771-0.565c-0.107-0.527-1.034-0.588-0.386-1.132c-0.477-0.305-1.156-0.315-1.671-0.566
				c0.075-0.832,0.539-1.096,0.9-1.508c-0.157-0.133-0.905-0.225-1.542-0.189c0.985-0.589,1.516-0.676,2.828-0.754
				c-0.095-0.426-0.72-0.074-1.028-0.188c3.077-1.837,7.785-2.378,11.439-2.452c0.227-0.169,0.375-0.456,0.643-0.566
				c8.002-0.537,16.477-0.745,24.55-0.565c15.472,0.345,29.371,0.434,45.5,1.509c0.239,0.017,0.408,0.154,0.644,0.188
				C98.797,43.234,104.674,42.423,108.646,44.356z M83.967,64.346c1.394,0.923,3.122,0.412,4.371,0.188
				C86.847,63.752,85.355,64.896,83.967,64.346z M89.365,64.91c0.04-0.514-0.747-0.769-0.899-0.377
				C88.738,65.12,89.039,64.573,89.365,64.91z"/>
		</g>
	</g>
</g>
</svg>
