<?xml version="1.0" encoding="utf-8"?>
<!-- Generator: Adobe Illustrator 16.0.0, SVG Export Plug-In . SVG Version: 6.00 Build 0)  -->
<!DOCTYPE svg PUBLIC "-//W3C//DTD SVG 1.1//EN" "http://www.w3.org/Graphics/SVG/1.1/DTD/svg11.dtd">
<svg version="1.1" id="Layer_1" xmlns="http://www.w3.org/2000/svg" xmlns:xlink="http://www.w3.org/1999/xlink" x="0px" y="0px"
	 width="150px" height="40px" viewBox="0 0 150 40" enable-background="new 0 0 150 40" xml:space="preserve">
<g>
	<g>
		<g>
			<path fill-rule="evenodd" clip-rule="evenodd" d="M133.301,30.244c0.021-0.759-1.065-0.633-1.585-0.378
				C132.551,29.592,132.629,30.306,133.301,30.244z M111.685,5.917c0.198,0.596,0.031,0.629,0,1.318
				c0.101,0.624,1.149,0.006,1.153,0.756c-0.233,0.053-0.248-0.179-0.433-0.189c-0.448,0.661,0.71,0.822,0.864,1.32
				c0.302,0.657-0.449,0.951,0.433,1.132c0.1,0.507-0.298,0.364-0.433,0.565c0.021,0.35,0.488,0.115,0.576,0.377
				c0.06,0.894-0.491,0.991-0.432,1.887c7.242,1.652,15.422,1.794,24.498,2.263c3.356,0.173,8.764,0.358,10.088,1.886
				c0.508,0.584,0.32,1.929,1.152,1.887c0.041,0.492-0.052,0.811-0.432,0.754c1.035,0.111,1.879,2.194,0.721,3.018
				c0.045,0.443,0.5,0.35,0.432,0.942c-0.509,1.597-1.193,2.963-1.873,4.337c-14.834-1.371-26.508-0.944-38.478-1.885
				c-0.403-0.033-0.796,0.379-1.152,0.376c-2.688-0.022-5.4-0.553-8.358-0.566c-2.688-0.011-5.536,0.157-8.358,0
				c2.959,1.527,6.026-0.288,8.503,1.321c0.563-0.242,1.272-0.75,1.873-0.755c1.883-0.013,4.047,1.011,5.908,0.942
				c0.389-0.013,0.767-0.381,1.153-0.376c0.937,0.011,2.118,0.589,3.17,0.565c0.32-0.006,0.725-0.416,1.009-0.377
				c0.474,0.063,0.726,0.527,1.153,0.564c0.695,0.064,1.407-0.005,2.449,0c0.229,0.002,0.57-0.39,0.721-0.377
				c1.396,0.128,2.681,0.734,4.035,0.756c2.966,0.047,5.888,1.13,9.079,1.131c0.024,0.41-0.512,0.086-0.721,0.188
				c-0.026,0.531,0.567,0.473,0,0.755c1.549,0.545,2.721,0.559,4.468,1.131c0.079,0.419-0.275,0.27-0.289,0.566
				c0.505,0.785,1.546,0.87,2.018,1.697c-0.095,0.253-0.308,0.352-0.576,0.377c0.412,0.467,1.191,0.453,1.298,1.319
				c-1.443,1.51-4.13-0.363-5.045,1.321c-18.612,2.979-37.464,0.115-55.049,1.13c-3.324-0.443-8.245,0.13-12.826,0.378
				c-1.034,0.056-2.245-0.396-2.738,0.188c-1.897-0.661-3.98,0.315-5.909-0.566c-2.216,0.521-4.045,0.832-6.196,0
				c-2.164,0.712-4.61,0.318-6.773,0c-1.717-0.251-3.668,0.937-5.044-0.376c-4.08-0.233-9.418-0.783-12.249-4.337
				c-0.621-0.78-0.71-1.991-1.585-2.452c-0.332-1.137-0.69-2.238-0.864-3.583c-0.152-0.703,0.303-0.608,0.432-0.942
				c-3.285,0.042-7.247-0.811-11.385-1.133c-2.283-0.177-4.949,0.047-6.484-1.509c-1.16-1.173-0.852-3.593-2.018-4.714
				c0.546-1.741,0.525-2.504,0.145-4.337c0.485-1.755,1.907-2.282,3.314-2.829c-1.256-0.065-2.882-1.328-4.467-0.943
				c0.131-0.395,0.426-0.575,0.865-0.565c-0.12-0.527-1.159-0.588-0.433-1.132C2.059,8.817,1.298,8.807,0.721,8.556
				C0.805,7.724,1.325,7.46,1.729,7.048C1.553,6.915,0.715,6.823,0,6.858C1.105,6.27,1.7,6.183,3.17,6.104
				C3.063,5.679,2.363,6.03,2.018,5.917c3.449-1.837,8.729-2.378,12.825-2.452c0.255-0.169,0.421-0.456,0.721-0.566
				c8.972-0.537,18.473-0.745,27.524-0.565C60.436,2.678,76.02,2.767,94.104,3.842c0.268,0.017,0.457,0.154,0.721,0.188
				C100.643,4.795,107.232,3.983,111.685,5.917z M84.016,25.906c1.562,0.923,3.5,0.412,4.9,0.188
				C87.244,25.313,85.572,26.457,84.016,25.906z M90.068,26.471c0.045-0.514-0.838-0.769-1.009-0.377
				C89.365,26.681,89.702,26.134,90.068,26.471z"/>
		</g>
	</g>
</g>
</svg>
