<?xml version="1.0" encoding="utf-8"?>
<!-- Generator: Adobe Illustrator 16.0.0, SVG Export Plug-In . SVG Version: 6.00 Build 0)  -->
<!DOCTYPE svg PUBLIC "-//W3C//DTD SVG 1.1//EN" "http://www.w3.org/Graphics/SVG/1.1/DTD/svg11.dtd">
<svg version="1.1" id="Layer_1" xmlns="http://www.w3.org/2000/svg" xmlns:xlink="http://www.w3.org/1999/xlink" x="0px" y="0px"
	 width="60px" height="55px" viewBox="0 0 60 55" enable-background="new 0 0 60 55" xml:space="preserve">
<g>
	<g>
		<g>
			<path fill-rule="evenodd" clip-rule="evenodd" d="M11.945,30.996c1.012,3.499,3.011,9.106,4.797,9.401
				c0.829,0.375,4.754,2.357,6.318,1.445c-0.222,3.932,0.011,9.32,1.755,10.605c0.297,0.432-0.277,1.48,0.234,1.688
				c0.253-0.613,0.869-0.426,1.521-0.48c1.076-1.24,1.655-3.502,2.925-4.34c0.242,0.064,0.028,1.068,0.351,0.965
				c0.242-0.787,0.49-1.563,0.819-2.17c2.319-1.41,4.851-2.381,7.02-4.098c1.644-2.254,2.634-7.09,4.914-7.23
				c-0.09,0.965-0.343,2.914,0.352,2.893c0.63-0.512-0.399-1.906,0.351-2.17c1.93,0.586,3.873-1.855,5.148-4.098
				c2.404-0.877,4.863-2.22,7.371-2.169c0.209-0.647-0.515-0.466-0.116-0.723c0.92-0.652,1.229-0.273,1.755-0.964
				c0.938-1.234,1.788-5.928,1.404-9.16c-0.153-1.292-1.192-2.257-1.17-3.133c0.012-0.486,0.699-0.812,0.818-1.205
				c0.016-0.053,0.035-0.987,0.117-1.447c0.701-3.91,0.411-8.276-0.936-10.846c-1.12-2.137-1.967-2.48-3.979-2.651
				c-2.453-0.211-5.835-0.271-8.658,0c-5.518,0.528-10.708,0.188-15.796,0.481c-4.45,0.258-9.617,1.152-14.508,1.205
				c-2.078,0.023-4.1-0.73-5.733,0.482C8.443,8.435,4.121,5.879,2.702,9.303c0.025,1.756-0.381,2.223,0,3.615
				C2.148,13.472,2.134,15.572,2,16.292c0.162,0.633,0.533,0.831,0.585,1.688c0.618,7.913,5.346,8.554,9.126,9.159
				C11.576,28.515,11.677,30.066,11.945,30.996z M44.59,18.703c-4.549,3.96-9.988,3.31-14.508,5.304
				c-0.124-1.069-0.208-2.826,0-3.856C34.699,19.358,39.832,19.37,44.59,18.703z"/>
		</g>
	</g>
</g>
</svg>
