<?xml version="1.0" encoding="utf-8"?>
<!-- Generator: Adobe Illustrator 16.0.0, SVG Export Plug-In . SVG Version: 6.00 Build 0)  -->
<!DOCTYPE svg PUBLIC "-//W3C//DTD SVG 1.1//EN" "http://www.w3.org/Graphics/SVG/1.1/DTD/svg11.dtd">
<svg version="1.1" id="Layer_1" xmlns="http://www.w3.org/2000/svg" xmlns:xlink="http://www.w3.org/1999/xlink" x="0px" y="0px"
	 width="60px" height="40px" viewBox="0 0 60 40" enable-background="new 0 0 60 40" xml:space="preserve">
<g>
	<g>
		<g>
			<path fill-rule="evenodd" clip-rule="evenodd" d="M51.821,29.87c0.008-0.759-0.404-0.633-0.603-0.378
				C51.536,29.218,51.565,29.932,51.821,29.87z M43.607,5.543c0.075,0.596,0.012,0.629,0,1.318c0.038,0.624,0.437,0.006,0.438,0.756
				c-0.088,0.053-0.094-0.179-0.164-0.189c-0.171,0.661,0.27,0.822,0.328,1.32c0.115,0.657-0.17,0.951,0.164,1.132
				c0.038,0.507-0.112,0.364-0.164,0.565c0.009,0.35,0.186,0.115,0.22,0.377c0.022,0.894-0.188,0.991-0.164,1.887
				c2.752,1.652,5.86,1.794,9.309,2.263c1.275,0.173,3.331,0.358,3.834,1.886c0.192,0.584,0.122,1.929,0.438,1.887
				c0.016,0.492-0.02,0.811-0.164,0.754c0.394,0.111,0.714,2.194,0.274,3.018c0.017,0.443,0.189,0.35,0.164,0.942
				c-0.193,1.597-0.454,2.963-0.712,4.337c-5.637-1.371-10.073-0.944-14.622-1.885c-0.153-0.033-0.302,0.379-0.438,0.376
				c-1.021-0.022-2.053-0.553-3.177-0.566c-1.021-0.011-2.104,0.157-3.176,0c1.124,1.527,2.29-0.288,3.231,1.321
				c0.214-0.242,0.483-0.75,0.712-0.755c0.715-0.013,1.537,1.011,2.244,0.942c0.148-0.013,0.292-0.381,0.438-0.376
				c0.356,0.011,0.806,0.589,1.205,0.565c0.121-0.006,0.275-0.416,0.383-0.377c0.181,0.063,0.276,0.527,0.438,0.564
				c0.265,0.064,0.535-0.005,0.931,0c0.087,0.002,0.217-0.39,0.274-0.377c0.53,0.128,1.019,0.734,1.533,0.756
				c1.127,0.047,2.237,1.13,3.45,1.131c0.009,0.41-0.194,0.086-0.274,0.188c-0.01,0.531,0.216,0.473,0,0.755
				c0.589,0.545,1.034,0.559,1.698,1.131c0.029,0.419-0.104,0.27-0.11,0.566c0.192,0.785,0.588,0.87,0.767,1.697
				c-0.035,0.253-0.116,0.352-0.219,0.377c0.157,0.467,0.453,0.453,0.493,1.319c-0.548,1.51-1.569-0.363-1.917,1.321
				c-7.072,2.979-14.236,0.115-20.919,1.13c-1.263-0.443-3.133,0.13-4.874,0.378c-0.393,0.056-0.853-0.396-1.041,0.188
				c-0.721-0.661-1.513,0.315-2.245-0.566c-0.842,0.521-1.538,0.832-2.355,0c-0.822,0.712-1.751,0.318-2.574,0
				c-0.652-0.251-1.394,0.937-1.917-0.376c-1.551-0.233-3.579-0.783-4.655-4.337c-0.236-0.78-0.27-1.991-0.603-2.452
				c-0.126-1.137-0.263-2.238-0.329-3.583c-0.058-0.703,0.115-0.608,0.165-0.942C8.68,25.952,7.175,25.1,5.603,24.777
				c-0.868-0.177-1.881,0.047-2.464-1.509c-0.44-1.173-0.324-3.593-0.767-4.714c0.208-1.741,0.2-2.504,0.055-4.337
				c0.184-1.755,0.725-2.282,1.259-2.829c-0.478-0.065-1.095-1.328-1.698-0.943c0.05-0.395,0.162-0.575,0.329-0.565
				c-0.045-0.527-0.44-0.588-0.164-1.132C1.949,8.443,1.66,8.433,1.44,8.182C1.472,7.35,1.67,7.086,1.824,6.674
				C1.757,6.541,1.438,6.449,1.167,6.484c0.42-0.589,0.646-0.676,1.205-0.754C2.331,5.305,2.064,5.656,1.933,5.543
				C3.244,3.706,5.25,3.165,6.807,3.091c0.097-0.169,0.16-0.456,0.274-0.566c3.409-0.537,7.02-0.745,10.459-0.565
				c6.592,0.345,12.513,0.434,19.385,1.509C37.027,3.484,37.1,3.622,37.2,3.656C39.411,4.421,41.915,3.609,43.607,5.543z
				 M33.093,25.532c0.594,0.923,1.33,0.412,1.862,0.188C34.319,24.938,33.685,26.083,33.093,25.532z M35.393,26.097
				c0.018-0.514-0.318-0.769-0.383-0.377C35.126,26.307,35.254,25.76,35.393,26.097z"/>
		</g>
	</g>
</g>
</svg>
