<?xml version="1.0" encoding="utf-8"?>
<!-- Generator: Adobe Illustrator 16.0.0, SVG Export Plug-In . SVG Version: 6.00 Build 0)  -->
<!DOCTYPE svg PUBLIC "-//W3C//DTD SVG 1.1//EN" "http://www.w3.org/Graphics/SVG/1.1/DTD/svg11.dtd">
<svg version="1.1" id="Layer_1" xmlns="http://www.w3.org/2000/svg" xmlns:xlink="http://www.w3.org/1999/xlink" x="0px" y="0px"
	 width="60px" height="45px" viewBox="0 0 60 45" enable-background="new 0 0 60 45" xml:space="preserve">
<g>
	<g>
		<g>
			<path fill-rule="evenodd" clip-rule="evenodd" d="M48.46,14.95c-7.853,0.472-15.662-0.852-22.953-0.175
				c-0.251-0.644-0.674,0.084-0.871-0.521c-1.428,0.63-3.327,0.637-4.986,1.045c0.191,0.522,1.32,0.445,1.82,0.174
				c1.312,0.955,2.709,0.732,4.116,1.042c1.241,0.274,2.512,1,3.799,1.218c5.012,0.851,9.999-0.431,14.406-0.347
				c1.343-0.936,3.192,0.243,4.432-1.218c0.503,1.402,2.858-1.129,3.087,1.564c2.314,0.342,3.563,0.415,6.174,0.87
				c0.498,1.406,1.651,1.637,1.504,3.825c-0.166,2.473-2.691,2.877-3.879,3.825c-1.339-0.334-3.622,0.027-4.827,1.393
				c-2.959,0.709-5.978,0.445-8.707,1.738c-0.081,0.814,0.225,0.782,0.396,1.042c-0.021,2.066,0.915,3.875,0,5.393
				c0.479,1.975-0.564,2.694-0.791,4.172c-2.651,2.262-6.069,1.953-9.498,2.436c-3.406,0.479-6.856,0.689-9.814,0.521
				c-2.33-0.133-5.476-0.663-6.332-3.478c-0.249-0.819-0.241-2.301-0.554-2.957c0.116-1.9-0.222-3.618,0.316-5.042
				c1.42-1.952,3.295-2.71,5.145-3.304c-0.292-0.681-0.883,0.122-1.187-0.696c-1.725,0.529-4.522-0.467-7.519-1.218
				c-3.1-0.775-7.319-0.673-7.756-7.303c-0.167-2.533-0.042-5.278,1.187-6.26c0.871,0.03,1.6-0.935,2.375-0.871
				c0.454,0.039,0.824,0.743,1.267,0.871c1.073,0.311,2.142-0.601,3.403-0.695C9.165,11.471,5.662,9.851,2.95,6.951
				C2.729,5.757,2.395,4.809,2,3.995C2.318,4.231,2.209,4.05,2.159,3.474C3.553,1.767,6.216,2.08,7.857,2.083
				c2.118,0.004,4.33-0.052,6.728,0C25.05,2.311,36.033,2.166,45.373,3.995c1.645,0.323,3.174,0.488,4.195,1.739
				c0.069,0.558-0.122,0.544-0.237,0.696c0.958,0.631,0.226,2.907,0.791,4.172c-0.278,0.141-0.202,1.063-0.554,1.044
				c0.246,0.446,0.29,1.333,0.475,1.912c-0.464,0.544-0.9,1.688-1.504,1.392c-0.125,0.276,0.092,1.181-0.079,0.869
				C48.312,15.489,48.452,15.384,48.46,14.95z"/>
		</g>
	</g>
</g>
</svg>
