<?xml version="1.0" encoding="utf-8"?>
<!-- Generator: Adobe Illustrator 16.0.0, SVG Export Plug-In . SVG Version: 6.00 Build 0)  -->
<!DOCTYPE svg PUBLIC "-//W3C//DTD SVG 1.1//EN" "http://www.w3.org/Graphics/SVG/1.1/DTD/svg11.dtd">
<svg version="1.1" id="Layer_1" xmlns="http://www.w3.org/2000/svg" xmlns:xlink="http://www.w3.org/1999/xlink" x="0px" y="0px"
	 width="300px" height="20px" viewBox="0 0 300 20" enable-background="new 0 0 300 20" xml:space="preserve">
<g>
	<path fill-rule="evenodd" clip-rule="evenodd" fill="#FFFFFF" d="M181.762,17.311c1.037-0.195,2.881,0.447,3.24-0.451
		c-0.961-0.121-2.494,0.348-2.809-0.445C182.424,17.609,181.658,16.385,181.762,17.311z M49.961,16.859
		c-0.032,0.492-0.544,0.482-1.08,0.451C48.729,16.535,49.638,16.506,49.961,16.859z M58.603,16.635
		c-0.215,0.906-1.566,0.617-2.376,0.449C56.753,16.662,57.635,16.605,58.603,16.635z M158.859,16.635
		c0.051,1.393-2.457,0.979-3.025,0.449C156.451,16.531,158.197,17.145,158.859,16.635z M164.908,17.311
		c-0.533,0.027-1.041,0.031-1.297-0.227C163.809,16.557,164.848,16.566,164.908,17.311z M168.582,16.859
		c0.047,1.203-1.504,0.088-2.594,0.451C166.469,16.525,167.178,16.9,168.582,16.859z M146.328,17.311
		c-0.778,0.807-2.416,0.26-3.027-0.227C144.004,16.869,145.467,17.027,146.328,17.311z M155.184,17.533
		c-0.406-0.398-1.426-0.164-2.158-0.223C153.369,16.74,154.869,16.668,155.184,17.533z M194.725,17.084
		c-0.832,1.135-3.266,0.566-4.535,0.227C190.898,16.438,193.658,16.881,194.725,17.084z M123.639,17.311
		c-0.324,0.26-0.526,0.645-1.081,0.67v-0.67C123.224,17.154,122.975,17.154,123.639,17.311z M133.579,17.084
		c0.452-0.096,0.572,0.154,0.865,0.227c-0.053,0.391-0.373,0.508-0.865,0.447V17.084z M200.127,17.084
		c0.863-0.07,1.596-0.012,1.943,0.449C201.668,17.662,200.451,17.93,200.127,17.084z M208.336,17.758
		c-0.609,0.184-0.557-0.316-1.078-0.225C207.297,16.846,208.422,17.064,208.336,17.758z M215.9,17.311
		c0.174,0.848-1.021,0.283-1.512,0.447C214.742,16.988,215.109,17.625,215.9,17.311z M140.926,16.635
		c-0.375-0.357-1.337-0.105-1.514-0.668c-0.315,0.271-0.207,0.979-1.08,0.668c-0.101-0.477,0.309-0.424,0.648-0.445
		c-0.41-0.623-1.522-0.102-1.512,0.445c-0.777,0.139-0.638-0.68-1.297-0.668c-0.32,0.098,0.086,0.285,0,0.668
		c-0.288-0.221-0.424-0.604-0.863-0.668c0.118,1.16-0.885,0.063-1.946,0c-0.319,0.098,0.087,0.285,0,0.668
		c-0.848-0.398-0.92-0.221-1.727-0.668c-0.471-0.039-0.099,0.791-0.216,1.117c0.253-0.035,0.182-0.406,0.216-0.67
		c0.313,0.273,0.289,0.893,0.863,0.896c-0.989,0.83-2.141,0.025-2.809,0.447c-0.014-0.986,1.753-0.127,1.297-1.568
		c-1.798,0.174-2.779,1.568-3.672,0c-1.108,1.158-2.371-0.768-2.594,0.895c-0.668-0.203-1.191-0.555-1.729-0.895
		c-0.738-0.168-0.274,0.908-1.081,0.67c0.085-0.668-1.748-0.367-2.161-0.67c-0.32,0.098,0.086,0.285,0,0.67
		c-1.274-1.639-2.659,1.037-3.671-0.67c-0.254,0.037-0.183,0.408-0.216,0.67c-1.001-1.227-2.598,0.674-2.809-0.67
		c-0.314,0.568-1.07,0.684-1.729,0.895c-0.461,0.105-0.412-0.318-0.431-0.67c-0.587,0.564-1.49-0.496-1.297,0.67
		c-0.928-1.701-2.782,0.936-3.241-0.67c-0.836,1.074-3.388-0.871-3.672,0.67c-0.581,0.154-0.418-0.461-0.648-0.67
		c-2.132,1.01-5.022-0.623-7.131,0.896c-0.664-0.482-2.027-0.732-2.376,0.223c-0.702-0.596-1.316,0.051-1.728-0.674
		c-0.836,0.281-1.392,0.357-1.512,0.898c-0.4-0.033-0.133-0.758-0.432-0.898c-0.817,1.082-3.072-0.996-4.538,0.674
		c-0.461,0.104-0.411-0.318-0.431-0.674c-0.698-0.199-0.304,0.732-0.649,0.898c-0.787-0.83-2.335,0.377-2.809-0.898
		c-0.847-0.008-0.668,0.475-0.863,0.674c-0.721-0.756-1.443-0.201-2.16,0.225c-0.589-0.963-1.574-0.648-3.025,0
		c-0.259-0.293-0.085-0.352,0-0.674c-2.77-0.441-3.676,1.824-4.97,0c0.032,0.938-0.111,0.541-0.432,0.227
		c-0.488,0.125,0.262,0.348-0.216,0.67c-0.4-0.033-0.133-0.758-0.432-0.896c-0.413,0.094-0.932,0.082-0.864,0.674
		c-0.583,0.152-0.419-0.465-0.649-0.674c-0.471-0.039-0.688,0.184-0.648,0.674c-0.202-0.24-0.797-0.07-0.648-0.674
		c-0.202,0.166-0.327,0.408-0.432,0.674c-0.54-0.113-0.722-0.596-1.297-0.674c-0.765,0.025,0.459,0.74-0.216,0.674
		c-0.877,0.063-0.488-0.084-0.433-0.674c-0.801,0.027-0.543,0.328-0.432,0.896c-0.569,0.066-0.708-0.313-0.647-0.896
		c-0.766-0.119-0.533,0.795-1.298,0.674c-0.157-0.686,0.374-0.66,0.217-1.344c0.809,0.229,2.125-0.316,3.24-0.447
		c-5.258-0.877-9.557-0.596-12.964-0.672c-0.063,0.566-1.681-1.174-1.511,0.447c-0.473,0.043-0.688-0.184-0.649-0.672
		c-6.254-0.221-12.846-0.4-16.853,0.225c-6.892-0.521-13.533-1.899-20.743-2.012c0.243-0.705,0.019-0.506,0-1.343
		c-2.505,0.57-2.941-1.392-4.322-1.342c-0.068-0.892,1-0.606,1.08-1.342C7.364,9.066,5.603,9.77,5.667,8.585
		C6.749,8.734,7.34,8.376,8.26,8.361C7.887,7.48,6.262,7.896,5.667,7.242C5.641,6.08,6.576,5.717,5.235,5.454
		c12.025-1.576,29.17-0.89,43.213-1.566c3.911-0.188,7.598-0.594,10.155,0c18.449-1.191,40.526-0.648,60.067-1.119
		c22.571-0.543,44.582-1.16,66.117-0.446c6.826,0.226,13.572-0.332,20.309,0c26.896,1.322,54.332,0.224,81.027,3.803
		c2.289,1.802,6.098,2.036,8.641,3.579c-7.117,0.394-9.684,6.667-16.854,6.263c-0.875,0.664-2.291,1.174-3.67,0.668
		c0.971,1.086,3.352,0.707,4.75,1.346c-4.363,0.834-8.781,0.674-13.178,0.447c-22.992-1.189-44.832-2.293-65.037-2.014
		c-1.025-0.68-2.246-0.248-3.457-0.447c-2.914-0.475-6.246,0.457-9.289,0.223c-3.342-0.256-7.201-0.131-11.885-0.447
		c0.035,0.262,0.393,0.189,0.648,0.225c-0.65,0.104-1.984,0.729-1.514-0.225c-2.932,0.047-7.111-0.195-8.209,0.447
		c-0.783-0.535-3.84-0.781-4.539,0.225c-0.252-0.037-0.182-0.406-0.217-0.672c-0.887,0.516-5.148-0.342-6.264,0.225
		c-1.23-0.244-2.275,0.623-3.674,0.223c-0.449,0.059-0.059,0.982-0.434,1.121c-1.398-0.498-3.806,0.729-5.401,0
		c0.188-0.652,0.323-0.252,0.865-0.227c-0.018-0.803-0.837-0.773-1.08-1.342c-0.682-0.033-0.092,1.246-1.081,0.893
		c0.766-1.002-1.682-0.5-2.377,0C143.307,16.021,140.975,15.424,140.926,16.635z M148.488,16.189v0.895
		c1.313-0.33,1.698-0.313,3.241-0.225c-0.063-1.082-1.162-0.094-1.511-1.117C149.822,16.303,148.953,16.17,148.488,16.189z"/>
</g>
</svg>
