<?xml version="1.0" encoding="utf-8"?>
<!-- Generator: Adobe Illustrator 16.0.0, SVG Export Plug-In . SVG Version: 6.00 Build 0)  -->
<!DOCTYPE svg PUBLIC "-//W3C//DTD SVG 1.1//EN" "http://www.w3.org/Graphics/SVG/1.1/DTD/svg11.dtd">
<svg version="1.1" id="Layer_1" xmlns="http://www.w3.org/2000/svg" xmlns:xlink="http://www.w3.org/1999/xlink" x="0px" y="0px"
	 width="300px" height="30px" viewBox="0 0 300 30" enable-background="new 0 0 300 30" xml:space="preserve">
<g>
	<g>
		<path fill="none" stroke="#000000" stroke-miterlimit="10" d="M87.288-7.944"/>
	</g>
</g>
<g>
	<path fill="#F1F2F2" d="M23.088,21.054c82.091-3.069,164.467-6.149,246.555-9.218"/>
	<g>
		<g>
			<path fill-rule="evenodd" clip-rule="evenodd" d="M251.417,25.785c1.45,0.085,3.154-0.248,4.308-0.947
				c0.541-0.33,6.953-0.851,8.615-1.895c0.296-0.186,0.49-1.09,1.065-1.563c1.228-1,1.986-0.522,2.771-2.226
				c0.216-0.472-0.044-1.463,0.168-1.946c-0.18,0.409,2.057-3.34,1.083-5.902c-0.16-0.424-1.447-0.534-1.536-1.28
				c0,0,1.016-1.605,1.065-1.562c-1.295-1.118-5.191,0.781-8.646,1.416c-7.634,1.405-12.668,1.275-19.147,1.104
				c-15.684-0.417-33.116-2.142-49.357-2.386c-3.59-0.054-7.485,0.261-10.79-0.282c-0.577-0.094-0.514-0.86-0.929-0.862
				c0.169,0-0.132,0.954-0.229,0.988c-1.095,0.383-4.545-0.731-6.163-0.781c-8.729-0.277-17.256,0.197-26.469,0.446
				c-14.636,0.397-29.347-1.532-43.742-1.063C89.392,7.503,75.133,5.849,60.931,6.336c-9.673,0.33-20.161,2.42-29.817,2.736
				c-3.254,0.106-6.197,0.14-6.911,1.228c0.337-0.514,1.8,0.197,1.537,1.279c0.118-0.483-2.314,1.199-1.705,0.668
				c-1.339,1.168-1.134,0.486-0.854,4.911c0.01,0.163,0.459,0.718,0.38,1.406c-0.044,0.384-0.629,0.542-0.518,1.019
				c0.073,0.312,2.033,3.52,1.658,3.196c1.453,1.252,6.811,0.897,10.821,0.758c9.349-0.318,19.433-2.682,29.817-2.734
				c1.09-0.007,2.169-0.331,3.181-0.344c11.185-0.156,19.366,0.872,28.872,0.74c0.567-0.009,5.802-1.513,6.073-0.656
				c-0.171-0.542-1.331,0.592-1.126,0.603c0.265,0.015,0.982,0.106,2.024-0.218c1.006-0.313,1.058-1.196,2.024-0.218
				c-0.408-0.412-0.837,0.573-0.837,0.573c1.202,0.21,5.731-1.419,6.682-0.239c-0.376-0.468-0.837,0.573-0.837,0.573
				c0.865,0.013,2.525-1.215,3.729-0.885c-0.043-0.012-0.543,1.019-0.518,1.018c0.881-0.028,1.864-0.709,2.862-0.789
				c0.384-0.03,0.849,0.757,1.506,0.802c0.667,0.043,1.47-0.828,1.994-0.697c0.117,0.029,0.205,0.902,0.639,0.896
				c0.822-0.014,1.679-0.723,2.572-0.761c18.785-0.784,47.438,0.34,68.186,0.836c8.083,0.192,15.819,0.151,23.925,0.791
				c0.348,0.027,0.83,0.842,1.217,0.832c0.787-0.018,0.993-0.817,1.416-0.634c0,0-0.15,0.25-0.286,0.505s-0.262,0.511-0.231,0.515
				c1.041,0.125,1.776-0.909,3.151-0.821c0.025,0-0.64,0.934-0.518,1.019c1.908,1.35,4.596-0.641,5.523-0.115
				c-0.492-0.28-0.755,0.575-0.837,0.574c1.803,0.022,2.165-1.728,3.182-0.345c-0.283-0.384-0.969,0.464-0.837,0.572
				c1.133,0.936,1.4-1.049,1.734-0.186c0.542-1.53,1.887,0.352,0,0C234.051,26.604,243.483,25.304,251.417,25.785z M108.153,21.003
				c-0.563-0.125,0.146-0.631,0.548-0.542C109.263,20.584,108.554,21.09,108.153,21.003z M223.931,23.93
				C222.788,24.054,225.072,23.806,223.931,23.93L223.931,23.93z M232.438,24.94C231.261,24.792,234.174,25.161,232.438,24.94
				L232.438,24.94z"/>
			<path fill-rule="evenodd" clip-rule="evenodd" d="M104.971,21.346C103.829,21.469,106.114,21.222,104.971,21.346L104.971,21.346z
				"/>
			<path fill-rule="evenodd" clip-rule="evenodd" d="M117.528,21.919C116.35,21.769,119.264,22.137,117.528,21.919L117.528,21.919z"
				/>
			<path fill-rule="evenodd" clip-rule="evenodd" d="M124.529,22.126C124.42,22.339,124.699,21.792,124.529,22.126L124.529,22.126z"
				/>
			<path fill-rule="evenodd" clip-rule="evenodd" d="M127.192,22.804c-0.784-0.234,0.986-0.646,1.126-0.605
				C128.632,22.292,128.305,23.135,127.192,22.804z"/>
			<path fill-rule="evenodd" clip-rule="evenodd" d="M129.217,22.584C129.108,22.798,129.386,22.25,129.217,22.584L129.217,22.584z"
				/>
			<path fill-rule="evenodd" clip-rule="evenodd" d="M131.241,22.366C130.894,22.453,131.019,21.69,131.241,22.366L131.241,22.366z"
				/>
			<path fill-rule="evenodd" clip-rule="evenodd" d="M131.241,22.366C134.733,21.43,133.827,23.515,131.241,22.366L131.241,22.366z"
				/>
			<path fill-rule="evenodd" clip-rule="evenodd" d="M135.929,22.824c-0.712-0.227,1.21-0.7,1.416-0.633
				C137.701,22.303,137.174,23.221,135.929,22.824z"/>
			<path fill-rule="evenodd" clip-rule="evenodd" d="M140.586,22.803C140.478,23.017,140.755,22.468,140.586,22.803L140.586,22.803z
				"/>
			<path fill-rule="evenodd" clip-rule="evenodd" d="M159.794,22.659C159.686,22.872,159.963,22.325,159.794,22.659L159.794,22.659z
				"/>
		</g>
	</g>
</g>
</svg>
