<?xml version="1.0" encoding="utf-8"?>
<!-- Generator: Adobe Illustrator 16.0.0, SVG Export Plug-In . SVG Version: 6.00 Build 0)  -->
<!DOCTYPE svg PUBLIC "-//W3C//DTD SVG 1.1//EN" "http://www.w3.org/Graphics/SVG/1.1/DTD/svg11.dtd">
<svg version="1.1"
	 id="Layer_1" sodipodi:docname="101709MLSGameGuideSFCatKC223332Wpdf.svg" inkscape:version="0.46" sodipodi:version="0.32" inkscape:output_extension="org.inkscape.output.svg.inkscape" xmlns:dc="http://purl.org/dc/elements/1.1/" xmlns:cc="http://creativecommons.org/ns#" xmlns:rdf="http://www.w3.org/1999/02/22-rdf-syntax-ns#" xmlns:svg="http://www.w3.org/2000/svg" xmlns:sodipodi="http://sodipodi.sourceforge.net/DTD/sodipodi-0.dtd" xmlns:inkscape="http://www.inkscape.org/namespaces/inkscape"
	 xmlns="http://www.w3.org/2000/svg" xmlns:xlink="http://www.w3.org/1999/xlink" x="0px" y="0px" width="53.667px" height="77px"
	 viewBox="0 -29.42 53.667 77" enable-background="new 0 -29.42 53.667 77" xml:space="preserve">
<defs>
	
	
		<inkscape:perspective  sodipodi:type="inkscape:persp3d" inkscape:vp_y="0 : 1000 : 0" inkscape:vp_x="0 : 300 : 1" inkscape:vp_z="800 : 300 : 1" id="perspective74" inkscape:persp3d-origin="400 : 200 : 1">
		</inkscape:perspective>
</defs>
<sodipodi:namedview  inkscape:cy="44.762931" inkscape:cx="94.289246" inkscape:zoom="2.72" showgrid="false" pagecolor="#ffffff" bordercolor="#666666" borderopacity="1.0" objecttolerance="10.0" gridtolerance="10.0" guidetolerance="10.0" id="base" inkscape:current-layer="Layer_1" inkscape:window-y="323" inkscape:window-x="675" inkscape:snap-global="false" inkscape:pageopacity="0.0" inkscape:pageshadow="2" inkscape:window-width="934" inkscape:window-height="669">
	</sodipodi:namedview>
<path fill="#8E4040" d="M44.688,8.466"/>
<path opacity="0.6" d="M43.656,9.429c-0.016-0.418-0.118-0.719-0.263-0.943c-0.469-0.666-1.404-0.598-1.404-0.598h-1.313v4.688
	h1.688c1.375-0.146,1.292-1.563,1.292-1.563V9.429z"/>
<path opacity="0.6" d="M36.551,7.214V3.902c0,0,0.083-1.563-1.479-1.563c-1.563,0-1.479,1.563-1.479,1.563v3.313V7.8v3.313
	c0,0-0.083,1.564,1.479,1.564c1.562,0,1.479-1.564,1.479-1.564V7.8V7.214z"/>
<path opacity="0.6" d="M43.393,5.601V3.687c-0.077-1.225-1.384-1.174-1.384-1.174h-0.292h-1.063v4.063h1.333
	C42.989,6.601,43.299,6.042,43.393,5.601z"/>
<polygon opacity="0.6" points="47.925,10.033 50.698,10.033 49.281,2.887 "/>
<polygon fill="none" points="10.05,13.791 15.206,13.791 15.206,12.519 11.466,12.5 11.466,8.062 14.53,8.062 14.53,6.785 
	11.488,6.785 11.488,2.458 15.206,2.458 15.206,1.238 10.05,1.238 "/>
<polygon fill="none" points="4.847,11.099 2.753,1.223 0.784,1.223 0.784,13.775 1.691,13.775 2.066,13.775 2.066,4.027 
	4.128,13.775 5.409,13.775 7.411,4.254 7.471,4.044 7.471,13.775 8.784,13.775 8.785,13.775 8.785,1.223 6.817,1.223 "/>
<polygon fill="none" points="22.518,2.458 24.831,2.458 24.831,13.792 26.3,13.792 26.3,2.458 28.55,2.458 28.55,1.238 
	22.518,1.238 "/>
<polygon fill="none" points="16.55,13.791 21.706,13.791 21.706,12.519 17.966,12.5 17.966,8.062 21.03,8.062 21.03,6.785 
	17.988,6.785 17.988,2.458 21.706,2.458 21.706,1.238 16.55,1.238 "/>
<path fill="none" d="M45.099,9.294c-0.031-0.748-0.347-1.244-0.704-1.574c-0.228-0.236-0.532-0.458-0.961-0.624
	c0,0,1.305-0.153,1.408-2.233c0,0,0.063-0.892-0.125-1.955c-0.021-0.129-0.06-0.254-0.109-0.375c-0.002,0-0.002,0-0.003-0.002
	c-0.666-1.229-2.138-1.317-2.674-1.308c-0.071,0.005-0.14,0-0.214,0.009h-2.458v12.607h3.104c0,0,2.521,0.193,2.667-2.514
	c0.075-1.42,0.078-1.887,0.059-2.029L45.099,9.294z"/>
<polygon fill="none" points="48.385,1.232 45.948,13.843 47.26,13.843 47.76,11.306 50.926,11.306 51.406,13.839 52.844,13.839 
	50.406,1.232 "/>
<path fill="none" d="M38.03,3.839c-0.275-2.445-1.906-2.775-2.62-2.801V1.035h-0.718v0.006c-0.735,0.037-2.308,0.402-2.578,2.799
	v3.375V7.8v3.375c0.27,2.396,1.843,2.762,2.578,2.799v0.004h0.132c0.005,0,0.009,0,0.014,0h0.469c0.005,0,0.01,0,0.015,0h0.09
	v-0.002c0.714-0.027,2.345-0.355,2.62-2.801V7.8V7.214H38.03V3.839z"/>
<polygon fill="none" points="16.55,13.791 21.706,13.791 21.706,12.519 17.966,12.5 17.966,8.062 21.03,8.062 21.03,6.785 
	17.988,6.785 17.988,2.458 21.706,2.458 21.706,1.238 16.55,1.238 "/>
<polygon fill="none" points="10.05,13.791 15.206,13.791 15.206,12.519 11.466,12.5 11.466,8.062 14.53,8.062 14.53,6.785 
	11.488,6.785 11.488,2.458 15.206,2.458 15.206,1.238 10.05,1.238 "/>
<polygon fill="none" points="4.847,11.099 2.753,1.223 0.784,1.223 0.784,13.775 1.691,13.775 2.066,13.775 2.066,4.027 
	4.128,13.775 5.409,13.775 7.411,4.254 7.471,4.044 7.471,13.775 8.784,13.775 8.785,13.775 8.785,1.223 6.817,1.223 "/>
<polygon fill="none" points="22.518,2.458 24.831,2.458 24.831,13.792 26.3,13.792 26.3,2.458 28.55,2.458 28.55,1.238 
	22.518,1.238 "/>
<polygon fill="none" points="48.385,1.232 45.948,13.843 47.26,13.843 47.76,11.306 50.926,11.306 51.406,13.839 52.844,13.839 
	50.406,1.232 "/>
<path fill="none" d="M45.099,9.294c-0.031-0.748-0.347-1.244-0.704-1.574c-0.228-0.236-0.532-0.458-0.961-0.624
	c0,0,1.305-0.153,1.408-2.233c0,0,0.063-0.892-0.125-1.955c-0.021-0.129-0.06-0.254-0.109-0.375c-0.002,0-0.002,0-0.003-0.002
	c-0.666-1.229-2.138-1.317-2.674-1.308c-0.071,0.005-0.14,0-0.214,0.009h-2.458v12.607h3.104c0,0,2.521,0.193,2.667-2.514
	c0.075-1.42,0.078-1.887,0.059-2.029L45.099,9.294z"/>
<path fill="none" d="M38.03,3.839c-0.275-2.445-1.906-2.775-2.62-2.801V1.035h-0.718v0.006c-0.735,0.037-2.308,0.402-2.578,2.799
	v3.375V7.8v3.375c0.27,2.396,1.843,2.762,2.578,2.799v0.004h0.132c0.005,0,0.009,0,0.014,0h0.469c0.005,0,0.01,0,0.015,0h0.09
	v-0.002c0.714-0.027,2.345-0.355,2.62-2.801V7.8V7.214H38.03V3.839z"/>
<polygon fill="none" points="16.55,13.791 21.706,13.791 21.706,12.519 17.966,12.5 17.966,8.062 21.03,8.062 21.03,6.785 
	17.988,6.785 17.988,2.458 21.706,2.458 21.706,1.238 16.55,1.238 "/>
<polygon fill="none" points="4.847,11.099 2.753,1.223 0.784,1.223 0.784,13.775 1.691,13.775 2.066,13.775 2.066,4.027 
	4.128,13.775 5.409,13.775 7.411,4.254 7.471,4.044 7.471,13.775 8.784,13.775 8.785,13.775 8.785,1.223 6.817,1.223 "/>
<path fill="none" d="M38.03,3.839c-0.275-2.445-1.906-2.775-2.62-2.801V1.035h-0.718v0.006c-0.735,0.037-2.308,0.402-2.578,2.799
	v3.375V7.8v3.375c0.27,2.396,1.843,2.762,2.578,2.799v0.004h0.132c0.005,0,0.009,0,0.014,0h0.469c0.005,0,0.01,0,0.015,0h0.09
	v-0.002c0.714-0.027,2.345-0.355,2.62-2.801V7.8V7.214H38.03V3.839z"/>
<polygon fill="none" points="10.05,13.791 15.206,13.791 15.206,12.519 11.466,12.5 11.466,8.062 14.53,8.062 14.53,6.785 
	11.488,6.785 11.488,2.458 15.206,2.458 15.206,1.238 10.05,1.238 "/>
<polygon fill="none" points="22.518,2.458 24.831,2.458 24.831,13.792 26.3,13.792 26.3,2.458 28.55,2.458 28.55,1.238 
	22.518,1.238 "/>
<path fill="none" d="M45.099,9.294c-0.031-0.748-0.347-1.244-0.704-1.574c-0.228-0.236-0.532-0.458-0.961-0.624
	c0,0,1.305-0.153,1.408-2.233c0,0,0.063-0.892-0.125-1.955c-0.021-0.129-0.06-0.254-0.109-0.375c-0.002,0-0.002,0-0.003-0.002
	c-0.666-1.229-2.138-1.317-2.674-1.308c-0.071,0.005-0.14,0-0.214,0.009h-2.458v12.607h3.104c0,0,2.521,0.193,2.667-2.514
	c0.075-1.42,0.078-1.887,0.059-2.029L45.099,9.294z"/>
<polygon fill="none" points="50.406,1.232 48.385,1.232 45.948,13.843 47.26,13.843 47.76,11.306 50.926,11.306 51.406,13.839 
	52.844,13.839 "/>
<polygon fill="none" points="24.831,13.792 26.3,13.792 26.3,2.458 28.55,2.458 28.55,1.238 22.518,1.238 22.518,2.458 
	24.831,2.458 "/>
<polygon fill="none" points="21.706,12.519 17.966,12.5 17.966,8.062 21.03,8.062 21.03,6.785 17.988,6.785 17.988,2.458 
	21.706,2.458 21.706,1.238 16.55,1.238 16.55,13.791 21.706,13.791 "/>
<polygon fill="none" points="15.206,12.519 11.466,12.5 11.466,8.062 14.53,8.062 14.53,6.785 11.488,6.785 11.488,2.458 
	15.206,2.458 15.206,1.238 10.05,1.238 10.05,13.791 15.206,13.791 "/>
<path fill="none" d="M45.031,11.326c0.075-1.42,0.078-1.887,0.059-2.029l0.01-0.002c-0.031-0.748-0.347-1.244-0.704-1.574
	c-0.228-0.236-0.532-0.458-0.961-0.624c0,0,1.305-0.153,1.408-2.233c0,0,0.063-0.892-0.125-1.955
	c-0.021-0.129-0.06-0.254-0.109-0.375c-0.002,0-0.002,0-0.003-0.002c-0.666-1.229-2.138-1.317-2.674-1.308
	c-0.071,0.005-0.14,0-0.214,0.009h-2.458v12.607h3.104C42.364,13.839,44.884,14.033,45.031,11.326z"/>
<path fill="none" d="M34.692,13.974v0.004h0.132c0.005,0,0.009,0,0.014,0h0.469c0.005,0,0.01,0,0.015,0h0.09v-0.002
	c0.714-0.027,2.345-0.355,2.62-2.801V7.8V7.214H38.03V3.839c-0.275-2.445-1.906-2.775-2.62-2.801V1.035h-0.718v0.006
	c-0.735,0.037-2.308,0.402-2.578,2.799v3.375V7.8v3.375C32.383,13.572,33.956,13.937,34.692,13.974z"/>
<polygon fill="none" points="47.76,11.306 50.926,11.306 51.406,13.839 52.844,13.839 50.406,1.232 48.385,1.232 45.948,13.843 
	47.26,13.843 "/>
<polygon fill="none" points="1.691,13.775 2.066,13.775 2.066,4.027 4.128,13.775 5.409,13.775 7.411,4.254 7.471,4.044 
	7.471,13.775 8.784,13.775 8.785,13.775 8.785,1.223 6.817,1.223 4.847,11.099 2.753,1.223 0.784,1.223 0.784,13.775 "/>
<path opacity="0.6" d="M0,0.107v15.168V47.58h53.667V15.275V0.107V-29.42H0V0.107z M48.385,1.232h2.021l2.438,12.607h-1.438
	l-0.479-2.533H47.76l-0.5,2.537h-1.313L48.385,1.232z M39.259,1.232h2.458c0.074-0.009,0.143-0.004,0.214-0.009
	c0.536-0.01,2.008,0.079,2.674,1.308c0.001,0.002,0.001,0.002,0.003,0.002c0.05,0.121,0.088,0.246,0.109,0.375
	c0.188,1.063,0.125,1.955,0.125,1.955c-0.104,2.08-1.408,2.233-1.408,2.233c0.429,0.166,0.733,0.388,0.961,0.624
	c0.357,0.33,0.673,0.826,0.704,1.574l-0.01,0.002c0.02,0.143,0.017,0.609-0.059,2.029c-0.146,2.707-2.667,2.514-2.667,2.514h-3.104
	V1.232z M32.114,7.8V7.214V3.839c0.271-2.396,1.843-2.762,2.578-2.799V1.035h0.718v0.004c0.714,0.025,2.345,0.355,2.62,2.801v3.375
	h0.001V7.8v3.375c-0.275,2.445-1.906,2.773-2.62,2.801v0.002h-0.09c-0.005,0-0.01,0-0.015,0h-0.469c-0.005,0-0.009,0-0.014,0h-0.132
	v-0.004c-0.735-0.037-2.309-0.402-2.578-2.799V7.8z M22.518,1.238h6.032v1.22H26.3v11.335h-1.469V2.458h-2.313V1.238z M16.55,1.238
	h5.156v1.22h-3.719v4.327h3.042v1.277h-3.063V12.5l3.74,0.02v1.271H16.55V1.238z M10.05,1.238h5.156v1.22h-3.719v4.327h3.042v1.277
	h-3.063V12.5l3.74,0.02v1.271H10.05V1.238z M2.753,1.223l2.094,9.876l1.97-9.876h1.969v12.552H8.784H7.471v-9.73l-0.06,0.21
	l-2.002,9.521H4.128L2.066,4.027v9.748H1.691H0.784V1.223H2.753z"/>
</svg>
