<?xml version="1.0" encoding="utf-8"?>
<!-- Generator: Adobe Illustrator 16.0.0, SVG Export Plug-In . SVG Version: 6.00 Build 0)  -->
<!DOCTYPE svg PUBLIC "-//W3C//DTD SVG 1.1//EN" "http://www.w3.org/Graphics/SVG/1.1/DTD/svg11.dtd">
<svg version="1.1"
	 id="Layer_1" sodipodi:docname="101709MLSGameGuideSFCatKC223332Wpdf.svg" inkscape:version="0.46" sodipodi:version="0.32" inkscape:output_extension="org.inkscape.output.svg.inkscape" xmlns:dc="http://purl.org/dc/elements/1.1/" xmlns:cc="http://creativecommons.org/ns#" xmlns:rdf="http://www.w3.org/1999/02/22-rdf-syntax-ns#" xmlns:svg="http://www.w3.org/2000/svg" xmlns:sodipodi="http://sodipodi.sourceforge.net/DTD/sodipodi-0.dtd" xmlns:inkscape="http://www.inkscape.org/namespaces/inkscape"
	 xmlns="http://www.w3.org/2000/svg" xmlns:xlink="http://www.w3.org/1999/xlink" x="0px" y="0px" width="68.266px"
	 height="29.159px" viewBox="0 28.329 68.266 29.159" enable-background="new 0 28.329 68.266 29.159" xml:space="preserve">
<defs>
	
	
		<inkscape:perspective  sodipodi:type="inkscape:persp3d" inkscape:vp_y="0 : 1000 : 0" inkscape:vp_x="0 : 300 : 1" inkscape:vp_z="800 : 300 : 1" id="perspective74" inkscape:persp3d-origin="400 : 200 : 1">
		</inkscape:perspective>
</defs>
<sodipodi:namedview  inkscape:cy="44.762931" inkscape:cx="94.289246" inkscape:zoom="2.72" showgrid="false" pagecolor="#ffffff" bordercolor="#666666" borderopacity="1.0" objecttolerance="10.0" gridtolerance="10.0" guidetolerance="10.0" id="base" inkscape:current-layer="Layer_1" inkscape:window-y="323" inkscape:window-x="675" inkscape:snap-global="false" inkscape:pageopacity="0.0" inkscape:pageshadow="2" inkscape:window-width="934" inkscape:window-height="669">
	</sodipodi:namedview>
<path id="path5" fill="#142530" d="M-112.878,75.053c-3.735-3.552-7.718-6.637-12.103-9.332c0,0,1.132-2.796,1.512-4.197
	c3.042-11.282,0.342-20.332-4.649-30.659c0,0,7.937,0.879,13.067,0.383c7.355-0.716,13.923-2.745,20.57-6.053
	c11.558,5.75,21.033,7.066,33.634,5.669c-5.906,12.217-8.213,22.331-3.137,34.856c0,0-2.977,1.83-4.807,3.185
	c-13.182,9.758-19.787,20.027-25.691,35.365C-99.01,92.503-103.585,83.879-112.878,75.053"/>
<path id="path7" fill="#005595" d="M-92.095,9.697c5.766,5.475,12.494,13.428,16.604,23.501
	c4.828-11.837,14.058-22.406,24.291-29.977c1.414-1.044,2.449-1.729,2.934-2.044c-1.067-2.914-1.637-6.096-1.906-9.162
	c-0.49-5.636-0.012-13.262,3.77-21.431c-9.621,0.659-20.536-1.749-29.086-5.962c-8.551,4.213-19.469,6.621-29.088,5.962
	c4.066,8.788,5.08,19.007,2.567,28.341c-0.288,1.073-0.552,1.846-0.703,2.252C-98.92,3.627-95.358,6.593-92.095,9.697"/>
<path id="path9" fill="#FFFFFF" d="M114.42-14.92c5.68,5.396,12.311,13.233,16.357,23.151c4.756-11.656,13.85-22.066,23.93-29.526
	c1.393-1.031,2.414-1.708,2.891-2.017c-1.053-2.862-1.615-6.002-1.879-9.026c-0.48-5.546-0.014-13.064,3.715-21.105
	c-9.479,0.646-20.232-1.724-28.655-5.875c-8.425,4.15-19.179,6.522-28.653,5.875c4.005,8.655,5.004,18.719,2.527,27.915
	c-0.287,1.06-0.547,1.814-0.693,2.217C107.699-20.899,111.207-17.976,114.42-14.92 M113.842-14.31
	c-3.326-3.157-7.004-6.252-10.929-8.652c0,0,0.499-1.213,0.921-2.785c2.615-9.705,1.27-19.604-3.119-28.685
	c0,0,4.295,0.486,9.697-0.039c7.103-0.69,13.957-2.604,20.365-5.791c8.703,4.33,20.254,6.94,30.061,5.829
	c-4.391,9.081-5.736,18.979-3.121,28.685c0.424,1.572,0.924,2.785,0.924,2.785s-1.506,0.919-3.428,2.342
	c-10.82,8.008-19.547,18.473-24.435,31.17C126.994,0.726,121.39-7.133,113.842-14.31"/>
<path id="path11" fill="#142530" d="M121.203,62.9c-2.645-14.425-2.32-28.974-2.32-28.974l25.025-8.818l25.023,8.818
	c0,0,0.326,14.549-2.32,28.974c-3.059,16.691-8.655,31.9-22.703,42.699C129.858,94.801,124.267,79.592,121.203,62.9"/>
<path id="path13" fill="#5D9741" d="M-58.488,78.891c2.59,14.11,7.962,30.17,18.997,38.973
	c16.574-13.221,21.481-44.609,21.355-64.745l-21.355-7.528l-21.354,7.528C-60.86,55.553-60.782,66.366-58.488,78.891"/>
<path id="path15" fill="#FFFFFF" d="M-113.007,41.329c2.523,13.764,7.764,29.427,18.526,38.011
	c16.163-12.891,20.95-43.505,20.826-63.15l-20.826-7.336l-20.829,7.336C-115.325,18.573-115.249,29.117-113.007,41.329
	 M-114.446,41.592c-2.578-14.059-2.305-26.439-2.305-26.439l22.27-7.851l22.265,7.851c0,0,0.273,12.38-2.304,26.439
	c-2.586,14.098-7.886,30.311-19.961,39.594C-106.56,71.902-111.856,55.689-114.446,41.592"/>
<path id="path17" fill="#FFFFFF" d="M99.516,55.041l-1.592-11.5c-1.445-0.4-4.14-1.322-4.14-3.2
	c-1.373-0.674-2.845-1.699-2.845-3.162c0-1.684,1.877-2.775,3.512-3.447c1.051-1.228,3.111-2.066,5.445-2.532
	c0.105-0.671,0.508-1.311,0.961-1.733c0.641-0.546,1.328-0.942,2.006-1.195l0.215-0.294l0.379-4.979
	c0.229-1.404,1.69-1.247,2.13-0.746c0.197,0.195,0.328,0.483,0.355,0.756l0.407,4.965l0.226,0.304
	c2.426,0.96,2.896,2.17,3.016,2.906c2.288,0.297,4.338,1.314,5.385,2.549c1.641,0.672,3.516,1.764,3.516,3.447
	c0,1.463-1.473,2.479-2.846,3.149c0,1.957-2.661,2.853-4.168,3.24L109.9,55.042L99.516,55.041"/>
<path id="path19" fill="#142530" d="M-48.503,46.83l-1.734-12.367c-2.186-0.514-4.024-1.367-4.024-2.333
	c0-0.214,0.076-0.42,0.224-0.618c-1.784-0.69-2.854-1.579-2.854-2.544c0-0.97,1.087-1.861,2.896-2.559
	c0.81-1.162,3.062-2.102,5.985-2.537c-0.547-0.848,0.468-1.818,0.468-1.818c0.645-0.548,1.306-0.889,1.956-1.083l0.6-0.827
	l0.376-5.236c0.201-0.736,0.414,0,0.414,0l0.375,5.236l0.46,0.631c1.689,0.496,2.362,1.325,2.362,1.325l-0.347-0.025
	c-1.551,0.188-1.972,1.013-1.91,1.565c4.087,0.182,7.418,1.3,8.445,2.769c1.808,0.697,2.895,1.589,2.895,2.559
	c0,0.965-1.068,1.854-2.852,2.544c0.143,0.198,0.221,0.405,0.221,0.618c0,0.966-1.6,1.821-4.063,2.349l-1.695,12.351h-0.879
	l0.938-11.61c0.021-0.138,0.043-0.518-0.451-0.431c-0.367,0.061-1.256,0.197-1.256,0.197c-0.419,0.07-0.439,0.342-0.439,0.511
	c0,0,0.01,6.075,0.006,11.332h-4.028v-11.27c0,0,0.089-0.483-0.431-0.566l-1.217-0.195c-0.627-0.122-0.506,0.398-0.506,0.398
	l0.954,11.633h-0.89"/>
<path id="path21" fill="#FFFFFF" d="M106.391,13.761c-0.876-0.226-1.748-0.327-2.652-0.296l0.3-0.168
	c0.993-0.549,2.543-0.698,3.733-0.396c1.064,0.275,3.783,1.776,3.117,3.557c-0.355-0.388-0.725-0.736-1.116-1.042
	c0,0-0.382,0.138-0.266,0.593c0.754,0.723,1.168,1.666,0.847,2.526c-1.006-1.402-3.236-2.612-4.945-3.157l-0.152-0.048
	c0.926-0.706,2.182-0.589,3.231-0.046c0,0,0.378-0.194,0.266-0.56C108.027,14.3,107.245,13.981,106.391,13.761"/>
<path id="path23" fill="#FFFFFF" d="M-101.817,72.964c1.234-8.231,2.107-11.704,2.563-20.146h9.542
	c0.505,8.709,1.405,11.914,2.767,20.205l-7.535,7.643L-101.817,72.964"/>
<path id="path25" fill="#142530" d="M-100.908,73.553c0.643-3.529,2.389-11.492,2.815-20.73h7.215
	c0.425,9.238,2.162,17.169,2.811,20.704l-1.694,2.116c-0.788-3.885-1.245-6.197-1.958-10.041c-0.112-0.612-0.272-0.966-0.538-0.932
	c-0.214,0.03-0.319,0.314-0.341,1.005l-0.85,13.05l-1.036,1.552l-1.04-1.552l-0.849-13.05c-0.024-0.69-0.126-0.975-0.34-1.005
	c-0.264-0.034-0.425,0.319-0.538,0.932c-0.713,3.844-1.155,6.104-1.94,9.989L-100.908,73.553"/>
<path id="path27" fill="none" d="M-111.581,49.86c3.068,11.636,8.272,23.327,17.1,30.378c8.415-6.725,13.827-18.133,17.082-30.378
	H-111.581"/>
<path id="path31" fill="#FFFFFF" d="M72.75,56.732v17.252c9.882-4.213,20.763-6.551,32.187-6.551
	c11.422,0,22.297,2.336,32.181,6.551V56.732c-9.884-4.219-20.76-6.548-32.181-6.548C93.512,50.184,82.631,52.515,72.75,56.732"/>
<path id="path33" fill="#142530" d="M87.555,57.113c0,0.649,0.303,0.749,1.057,0.601l1.003-0.194
	c1.101-0.213,1.348-0.392,1.348-1.203c0-0.874-0.298-0.9-1.586-0.648c-0.888,0.178-0.988,0.188-0.988-0.072
	c0-0.162,0.128-0.256,0.313-0.295l0.92-0.178c0.379-0.076,0.4,0.014,0.4,0.232l0.83-0.162v-0.093c0-0.53-0.09-0.874-1.047-0.688
	l-1.156,0.227c-1.045,0.201-1.09,0.631-1.09,1.174c0,0.74,0.143,0.877,1.389,0.632c1.068-0.204,1.166-0.21,1.166,0.054
	c0,0.23-0.182,0.287-0.357,0.32l-1.014,0.199c-0.239,0.045-0.354,0.045-0.359-0.271l-0.828,0.159V57.113"/>
<polyline id="polyline35" fill="#142530" points="93.427,56.817 96.429,56.445 96.429,55.725 94.255,55.996 94.255,55.51 
	95.984,55.297 96.272,54.646 94.255,54.891 94.255,54.406 96.384,54.151 96.384,53.449 93.427,53.813 93.427,56.817 "/>
<path id="path37" fill="#142530" d="M100.614,53.828l0.537,1.086l-1.059,0.078L100.614,53.828L100.614,53.828z M98.615,56.275
	l0.921-0.067l0.244-0.546l1.682-0.117l0.257,0.515l0.922-0.069l-1.487-2.895l-1.078,0.072L98.615,56.275"/>
<polyline id="polyline39" fill="#142530" points="104.209,53.775 105.373,53.798 105.373,56.055 106.2,56.068 106.2,53.813 
	107.366,53.834 107.366,53.084 104.209,53.031 104.209,53.775 "/>
<polyline id="polyline41" fill="#142530" points="108.984,53.896 110.149,53.979 110.149,56.234 110.974,56.291 110.974,54.035 
	112.138,54.115 112.138,53.369 108.984,53.15 108.984,53.896 "/>
<polyline id="polyline43" fill="#142530" points="114.312,56.602 117,56.979 117,56.207 115.143,55.944 115.143,53.717 
	114.312,53.602 114.312,56.602 "/>
<polyline id="polyline45" fill="#142530" points="118.87,57.297 121.875,57.879 121.875,57.158 119.701,56.732 119.701,56.252 
	121.368,56.57 121.714,56.023 119.701,55.632 119.701,55.15 121.827,55.564 121.827,54.869 118.87,54.291 118.87,57.297 "/>
<path id="path47" fill="#142530" d="M82.976,61.707c-1.036,0.27-1.735,1.398-1.735,2.713c0,1.307,0.699,2.086,1.735,1.814
	c1.037-0.27,1.732-1.409,1.732-2.717C84.708,62.207,84.013,61.438,82.976,61.707 M82.949,67.744
	c-2.027,0.531-3.321-0.761-3.321-2.905c0-2.151,1.357-4.13,3.385-4.659c2.018-0.521,3.32,0.766,3.32,2.914
	C86.333,65.239,84.967,67.217,82.949,67.744"/>
<polyline id="polyline49" fill="#142530" points="99.024,57.545 99.058,64.617 94.557,61.068 95.239,62.066 95.209,64.832 
	93.546,65.027 93.543,57.921 97.379,61.109 97.403,57.676 99.024,57.545 "/>
<path id="path51" fill="#142530" d="M102.688,62.838c0.897,0.033,1.114-0.518,1.114-1.037v-1.893c0-1.42-0.926-1.09-1.785-1.145
	v4.107L102.688,62.838L102.688,62.838z M105.19,59.555v2.275c0,1.852-1.436,2.494-2.193,2.477c-1.389,0.046-2.467,0.055-2.467,0.055
	l0.01-6.195l-0.607-0.684c0,0,1.738-0.113,3.275-0.131C104.168,57.398,105.19,57.761,105.19,59.555"/>
<polyline id="polyline53" fill="#142530" points="110.854,57.597 110.863,59.033 108.173,58.873 108.156,60.212 110.449,60.414 
	109.679,61.58 108.165,61.444 108.168,62.908 110.876,63.128 110.89,64.527 106.598,64.277 106.567,60.734 105.769,60 
	106.566,60.079 106.58,57.369 110.854,57.597 "/>
<path id="path55" fill="#142530" d="M114.801,59.128l-1.209-0.185v1.787l1.209,0.185c0.563,0.083,0.932-0.231,0.932-0.756
	S115.364,59.209,114.801,59.128 M115.8,64.864l-1.286-2.892l-0.922-0.139v2.702l-1.285-0.191v-6.27l-0.589-0.588l3.165,0.472
	c1.338,0.197,2.135,1.262,2.135,2.392c0,0.949-0.563,1.453-1.201,1.597l1.469,3.139L115.8,64.864"/>
<path id="path57" fill="#142530" d="M114.846,61.256l-1.306-0.201v-2.022l1.351,0.202l-0.022,0.117l-0.021,0.108l-1.072-0.155v1.548
	l1.117,0.167l0.197,0.011c0.38-0.024,0.589-0.243,0.594-0.644c0-0.465-0.324-0.848-0.837-0.927l0.022-0.108l0.021-0.117
	c0.61,0.088,1.027,0.559,1.023,1.139c0,0.502-0.332,0.869-0.824,0.893L114.846,61.256 M117.154,65.165l-1.438-3.073l0.146-0.033
	c0.595-0.137,1.102-0.578,1.107-1.48c-0.004-1.078-0.756-2.088-2.041-2.281l-2.807-0.416l0.369,0.367v6.221l1.051,0.158v-2.703
	l1.121,0.169l1.285,2.894L117.154,65.165L117.154,65.165z M115.718,65.048l-1.217-2.745l-0.727-0.108v2.615l-1.516-0.175v-6.167
	l-0.75-0.815l3.58,0.388c1.391,0.209,2.113,1.345,2.11,2.527c0.007,0.932-0.526,1.489-1.149,1.683l1.445,3.104L115.718,65.048"/>
<path id="path59" fill="#142530" d="M120.183,65.99c-0.764-0.15-1.689-0.645-2.283-1.158l0.402-1.381
	c0.553,0.518,1.264,0.919,1.9,1.047c0.551,0.108,0.756-0.114,0.75-0.461c-0.006-0.362-0.18-0.643-1.219-1.273
	c-1.197-0.731-1.627-1.523-1.641-2.363c-0.016-1.021,0.766-1.852,2.341-1.539c0.733,0.144,1.495,0.563,1.894,0.911l-0.371,1.371
	c-0.391-0.353-1.02-0.771-1.498-0.864c-0.573-0.113-0.799,0.119-0.79,0.404c0.009,0.455,0.352,0.676,1.202,1.216
	c1.271,0.802,1.658,1.499,1.676,2.399C122.568,65.408,121.802,66.311,120.183,65.99"/>
<path id="path61" fill="#142530" d="M89.587,66.08c-1.671,0.297-2.599-0.58-2.599-2.583v-4.184l1.438-0.302v4.094
	c0,1.031,0.371,1.584,1.195,1.438c0.813-0.152,1.184-0.844,1.184-1.881v-4.102l1.996-0.305l-0.557,0.66v3.598
	C92.244,64.555,91.252,65.788,89.587,66.08"/>
<path id="path63" fill="#142530" d="M76.747,70.029c-0.795,0.289-1.75,0.305-2.361,0.102l0.451-1.741
	c0.563,0.234,1.296,0.247,1.955,0.003c0.576-0.209,0.795-0.576,0.795-0.945c0-0.389-0.182-0.588-1.25-0.656
	c-1.235-0.073-1.662-0.684-1.662-1.584c0-1.092,0.828-2.462,2.461-3.064c0.764-0.281,1.547-0.284,1.959-0.145l-0.41,1.711
	c-0.4-0.15-1.051-0.226-1.548-0.043c-0.591,0.216-0.831,0.6-0.831,0.906c0,0.491,0.352,0.525,1.23,0.602
	c1.311,0.109,1.704,0.645,1.704,1.604C79.239,67.974,78.425,69.408,76.747,70.029"/>
<path id="path65" fill="#142530" d="M125.693,63.141v-3.062l4.268,1.142v1.543l-2.705-0.723v1.516l2.34,0.625l-0.776,1.051
	l-1.563-0.414v2.93l-1.563-0.416v-3.527l-0.785-0.879L125.693,63.141 M125.693,63.779l-0.725-0.816"/>
<path id="path67" fill="#142530" d="M133.527,70.234c-2.158-0.791-3.623-2.904-3.623-5.036c0-2.142,1.465-3.188,3.623-2.398
	c0.768,0.276,1.473,0.78,2.07,1.38l-0.47,1.242c-0.488-0.471-1.04-0.857-1.583-1.054c-1.238-0.452-2.006,0.095-2.006,1.429
	c0,1.33,0.768,2.438,2.006,2.888c0.543,0.198,1.16,0.229,1.656,0.077l0.459,1.584C135.083,70.539,134.285,70.508,133.527,70.234"/>
<path fill="#8E4040" d="M53.238,41.604"/>
<path fill="none" d="M124.036,18.748c-0.015-0.419-0.118-0.719-0.262-0.944c-0.469-0.666-1.405-0.598-1.405-0.598h-1.313v4.688
	h1.688c1.375-0.146,1.292-1.563,1.292-1.563V18.748z"/>
<path fill="none" d="M50.267,30.631c0.074-0.008,0.142-0.004,0.214-0.008C50.357,30.625,50.267,30.631,50.267,30.631z"/>
<path fill="none" d="M51.943,35v-1.914c-0.078-1.224-1.384-1.173-1.384-1.173h-0.292h-1.063v4.063h1.333
	C51.538,36,51.849,35.442,51.943,35z"/>
<path fill="#FFFFFF" d="M52.205,42.568c-0.015-0.419-0.118-0.719-0.262-0.944c-0.469-0.666-1.405-0.598-1.405-0.598h-1.313v4.688
	h1.688c1.375-0.146,1.292-1.563,1.292-1.563V42.568z"/>
<path fill="#FFFFFF" d="M45.101,40.353V37.04c0,0,0.083-1.563-1.479-1.563s-1.479,1.563-1.479,1.563v3.313v0.586v3.313
	c0,0-0.083,1.563,1.479,1.563s1.479-1.563,1.479-1.563v-3.313V40.353z"/>
<path fill="#FFFFFF" d="M34.134,28.329c-12.191,0-22.943,2.438-34.134,7.214v21.483c11.609-4.955,21.464-7.557,34.134-7.557
	c12.673,0,22.525,2.603,34.133,7.557V35.543C57.075,30.766,46.32,28.329,34.134,28.329z M17.334,46.914h-1.313v-9.731l-0.06,0.21
	l-2.002,9.521h-1.281l-2.063-9.749v9.749h-0.375H9.334V34.362h1.969l2.094,9.875l1.969-9.875h1.969V46.914z M23.756,35.596h-3.719
	v4.328h3.042v1.276h-3.063v4.438l3.74,0.02v1.271H18.6V34.377h5.156V35.596z M30.256,35.596h-3.719v4.328h3.042v1.276h-3.063v4.438
	l3.74,0.02v1.271H25.1V34.377h5.156V35.596z M37.1,35.596h-2.25V46.93h-1.469V35.596h-2.313v-1.219H37.1V35.596z M46.58,40.353
	v0.586v3.375c-0.275,2.445-1.906,2.773-2.62,2.801v0.002h-0.09c-0.005,0-0.009,0-0.014,0h-0.469c-0.005,0-0.009,0-0.014,0h-0.132
	v-0.004c-0.735-0.038-2.308-0.402-2.578-2.799v-3.375v-0.586v-3.375c0.271-2.396,1.843-2.761,2.578-2.799v-0.005h0.718v0.003
	c0.714,0.026,2.345,0.355,2.62,2.801V40.353z M53.58,44.464c-0.146,2.708-2.667,2.513-2.667,2.513h-3.104V34.37h2.458
	c0.074-0.008,0.142-0.004,0.214-0.008c0.536-0.01,2.008,0.079,2.674,1.308c0.001,0.001,0.001,0.001,0.002,0.002
	c0.05,0.121,0.088,0.246,0.11,0.375c0.188,1.063,0.125,1.955,0.125,1.955c-0.104,2.08-1.408,2.233-1.408,2.233
	c0.428,0.166,0.733,0.387,0.961,0.623c0.357,0.33,0.672,0.826,0.704,1.575l-0.01,0.002C53.658,42.578,53.656,43.044,53.58,44.464z
	 M59.955,46.977l-0.479-2.533h-3.166l-0.5,2.537h-1.313l2.438-12.61h2.021l2.438,12.606H59.955z"/>
<path fill="#FFFFFF" d="M51.943,38.739v-1.914c-0.078-1.224-1.384-1.173-1.384-1.173h-0.292h-1.063v4.063h1.333
	C51.538,39.739,51.849,39.181,51.943,38.739z"/>
<polygon fill="#FFFFFF" points="56.475,43.172 59.247,43.172 57.83,36.026 "/>
</svg>
