<?xml version="1.0" encoding="utf-8"?>
<!-- Generator: Adobe Illustrator 16.0.0, SVG Export Plug-In . SVG Version: 6.00 Build 0)  -->
<!DOCTYPE svg PUBLIC "-//W3C//DTD SVG 1.1//EN" "http://www.w3.org/Graphics/SVG/1.1/DTD/svg11.dtd">
<svg version="1.1" id="Layer_1" xmlns="http://www.w3.org/2000/svg" xmlns:xlink="http://www.w3.org/1999/xlink" x="0px" y="0px"
	 width="60px" height="90px" viewBox="0 0 60 90" enable-background="new 0 0 60 90" xml:space="preserve">
<g>
	<g>
		<g>
			<g>
				<path fill-rule="evenodd" clip-rule="evenodd" d="M13.542,33.708c-0.275-0.297,0.531,0.219,0.779,0.371
					c2.739-2.407,5.455-5.086,7.941-7.989c5.522-6.447,9.475-11.503,14.949-17.134c0.727-0.749,1.073-1.913,2.341-2.094
					c0.9-0.127,1.665-0.574,2.317-1.104c0.937-0.759,1.665-1.649,3.138-2.064c0.112-0.267,0.933,0.78,1.009,0.746
					c0.442,0.024,0.723-0.167,1.189-0.109c1.739,1.606,0.807,1.404,0.521,1.634c-0.54,0.438-0.246,1.802-0.962,2.086
					c0.25,0.343,0.844,0.529,0.889,0.881c-0.922,1.49-1.031,2.908-2.359,4.038c0.813,0.583,0.387-0.462,0.973-0.177
					c-0.574,0.922-0.896,2.28-1.28,3.418c-0.144,0.423-0.77,0.444-0.98,0.824c-1.359,2.452-3.006,4.794-4.656,7.357
					c-1.465,2.272-3.234,4.128-4.444,6.47c-1.539,0.295-2.005,1.585-2.505,2.606c-2.53,1.749-4.348,4.892-7.177,7.099
					c-1.715,1.335-3.315,2.781-4.771,4.289c-0.783,0.81-2.108,1.181-3.338,1.655c-0.65,0.251-0.983,0.764-1.49,1.1
					c-0.63,0.418-0.817,1.107-2.242,0.694c-0.767,1.156-2.225,1.202-3.244,2.508c-1.618-0.939-2.279-0.621-4.017-1.718
					c-0.96-0.986-0.682-1.303-1.24-2.072c0.355-0.469,0.256-1.375,0.194-2.15c-0.039-0.479,0.645-0.261,0.961-0.483
					c0.619-0.434,0.938-1.359,1.369-1.917c0.715-0.925,0.734-2.293,1.292-3.111c1.968-1.443,3.941-3.024,5.218-5.451
					C13.846,33.914,13.583,33.665,13.542,33.708z"/>
			</g>
		</g>
	</g>
	<g>
		<g>
			<g>
				<path fill-rule="evenodd" clip-rule="evenodd" d="M52.621,80.968l-0.148-0.148c0.259-0.438,0.221,0.176,0.326,0.326
					c0.145,0.206,0.495,0.27,0.341,0.607c-0.384,0.555-0.821,1.132-1.451,1.748c-1.569,1.535-1.737,1.144-2.653,1.349
					c-0.988,0.222-2.59,0.837-3.127,0.874c-2.695-1.548-4.944-3.877-7.278-5.944c-0.33-0.292-0.53-0.612-0.459-1.26
					c-1.871-0.501-2.63-2.535-3.854-3.854c-0.34-0.368-0.845-0.582-1.202-0.934c-0.342-0.337-0.666-0.689-1.008-1.008
					c-1.981-1.851-4.106-4.273-6.21-6.479c-0.385-0.404-0.997-0.586-1.32-1.052c-1.514-2.193-3.556-3.966-4.98-5.515
					c-1.892-2.059-4.349-3.712-6.641-5.573c-0.043-0.891-0.861-1.491-1.29-2.09c-1.085-1.517-2.499-2.992-2.24-5.706
					c0.058-0.603,0.426-1.624,0.548-2.386c0.124-0.767,0.044-1.437,0.548-2.387c0.358-0.675,1.662-2.062,1.555-2.444
					c1.704-1.564,3.888-4.354,5.113-4.224c0.806,0.086,0.374,1.5,0.429,2.298c0.364,5.15,4.468,8.221,7.295,11.026
					c1.012,1.008,2.656,1.564,2.757,3.292c1.365,0.549,2.154,1.733,3.008,2.743c2.749,3.242,6.168,5.86,9.013,9.013
					c1.583,1.751,3.047,3.565,4.566,5.632c2.662,3.613,5.481,6.85,7.649,10.851C51.773,80.083,51.921,81.017,52.621,80.968z"/>
			</g>
		</g>
	</g>
</g>
</svg>
