<?xml version="1.0" encoding="utf-8"?>
<!-- Generator: Adobe Illustrator 16.0.0, SVG Export Plug-In . SVG Version: 6.00 Build 0)  -->
<!DOCTYPE svg PUBLIC "-//W3C//DTD SVG 1.1//EN" "http://www.w3.org/Graphics/SVG/1.1/DTD/svg11.dtd">
<svg version="1.1" id="Layer_1" xmlns="http://www.w3.org/2000/svg" xmlns:xlink="http://www.w3.org/1999/xlink" x="0px" y="0px"
	 width="900px" height="300px" viewBox="-50 0 900 300" enable-background="new -50 0 900 300" xml:space="preserve">
<path fill="#FFFFFF" d="M841.559-353.587h7.344v26.21h12.865v6.145h-20.209V-353.587z M888.601-333.233
	c0,8.593-6.097,12.529-12.386,12.529c-6.863,0-12.145-4.512-12.145-12.097s4.993-12.433,12.529-12.433
	C883.799-345.234,888.601-340.29,888.601-333.233z M871.606-332.993c0,4.033,1.68,7.057,4.801,7.057
	c2.832,0,4.656-2.832,4.656-7.057c0-3.504-1.345-7.056-4.656-7.056C872.902-340.05,871.606-336.449,871.606-332.993z
	 M893.11-336.977c0-3.457-0.097-5.713-0.192-7.729h6.289l0.24,4.32h0.191c1.201-3.408,4.08-4.848,6.337-4.848
	c0.672,0,1.008,0,1.536,0.096v6.865c-0.528-0.096-1.152-0.192-1.969-0.192c-2.688,0-4.512,1.44-4.992,3.696
	c-0.096,0.48-0.144,1.056-0.144,1.632v11.905h-7.297V-336.977L893.11-336.977z M916.582-330.641c0.24,3.024,3.217,4.464,6.625,4.464
	c2.496,0,4.512-0.336,6.48-0.96l0.96,4.944c-2.399,0.96-5.329,1.44-8.497,1.44c-7.969,0-12.529-4.608-12.529-11.953
	c0-5.952,3.696-12.529,11.857-12.529c7.584,0,10.465,5.904,10.465,11.713c0,1.248-0.145,2.352-0.24,2.88L916.582-330.641
	L916.582-330.641z M925.176-335.634c0-1.776-0.769-4.752-4.129-4.752c-3.071,0-4.319,2.784-4.513,4.752H925.176z M936.31-337.218
	c0-2.928-0.097-5.424-0.192-7.489h6.145l0.336,3.168h0.145c1.008-1.488,3.072-3.696,7.104-3.696c3.025,0,5.426,1.536,6.434,3.984
	h0.096c0.864-1.2,1.92-2.16,3.024-2.833c1.296-0.768,2.735-1.152,4.464-1.152c4.514,0,7.922,3.168,7.922,10.177v13.825h-7.105
	v-12.767c0-3.408-1.104-5.376-3.455-5.376c-1.682,0-2.881,1.152-3.36,2.544c-0.19,0.528-0.287,1.296-0.287,1.873v13.729h-7.104
	v-13.155c0-2.976-1.057-4.992-3.36-4.992c-1.872,0-2.976,1.44-3.407,2.64c-0.24,0.576-0.289,1.248-0.289,1.824v13.681h-7.104
	v-15.985H936.31z M994.822-351.235c0,2.016-1.537,3.648-3.938,3.648c-2.303,0-3.84-1.632-3.791-3.648
	c-0.049-2.112,1.488-3.696,3.84-3.696S994.773-353.347,994.822-351.235z M987.285-321.232v-23.474h7.297v23.474H987.285z
	 M1000.437-336.834c0-3.072-0.097-5.712-0.192-7.873h6.338l0.336,3.264h0.096c1.729-2.496,4.416-3.792,7.824-3.792
	c5.138,0,9.744,4.464,9.744,11.953c0,8.544-5.424,12.577-10.656,12.577c-2.832,0-5.041-1.152-6.096-2.688h-0.097v11.665h-7.297
	V-336.834z M1007.733-331.313c0,0.576,0.048,1.104,0.144,1.536c0.48,1.968,2.16,3.457,4.272,3.457c3.169,0,5.04-2.64,5.04-6.625
	c0-3.745-1.68-6.577-4.943-6.577c-2.063,0-3.889,1.536-4.369,3.696c-0.096,0.384-0.144,0.864-0.144,1.296V-331.313z
	 M1029.092-327.617c1.344,0.816,4.129,1.776,6.289,1.776c2.207,0,3.119-0.768,3.119-1.968c0-1.2-0.721-1.776-3.455-2.688
	c-4.851-1.632-6.722-4.272-6.675-7.057c0-4.369,3.744-7.681,9.554-7.681c2.735,0,5.186,0.624,6.625,1.344l-1.297,5.041
	c-1.056-0.576-3.072-1.344-5.088-1.344c-1.775,0-2.783,0.72-2.783,1.92c0,1.104,0.912,1.68,3.791,2.688
	c4.465,1.536,6.338,3.792,6.385,7.249c0,4.368-3.456,7.584-10.176,7.584c-3.072,0-5.81-0.672-7.586-1.632L1029.092-327.617z
	 M1072.102-328.769c0,3.072,0.096,5.568,0.191,7.537h-6.336l-0.336-3.313h-0.146c-0.912,1.44-3.119,3.84-7.345,3.84
	c-4.752,0-8.258-2.976-8.258-10.225v-13.776h7.346v12.625c0,3.409,1.104,5.473,3.648,5.473c2.016,0,3.168-1.392,3.648-2.544
	c0.191-0.432,0.238-1.008,0.238-1.584v-13.97h7.346v15.937H1072.102z M1077.955-337.218c0-2.928-0.096-5.424-0.191-7.489h6.146
	l0.336,3.168h0.144c1.01-1.488,3.072-3.696,7.104-3.696c3.024,0,5.425,1.536,6.433,3.984h0.098c0.863-1.2,1.92-2.16,3.023-2.833
	c1.297-0.768,2.735-1.152,4.465-1.152c4.512,0,7.92,3.168,7.92,10.177v13.825h-7.104v-12.767c0-3.408-1.104-5.376-3.456-5.376
	c-1.681,0-2.882,1.152-3.361,2.544c-0.191,0.528-0.287,1.296-0.287,1.873v13.729h-7.104v-13.155c0-2.976-1.056-4.992-3.36-4.992
	c-1.871,0-2.977,1.44-3.407,2.64c-0.24,0.576-0.288,1.248-0.288,1.824v13.681h-7.104v-15.985H1077.955z M1151.684-355.315v27.074
	c0,2.641,0.097,5.425,0.191,7.009h-6.479l-0.336-3.456h-0.097c-1.487,2.64-4.32,3.984-7.345,3.984
	c-5.567,0-10.032-4.752-10.032-12.049c-0.049-7.921,4.896-12.481,10.514-12.481c2.879,0,5.136,1.008,6.191,2.64h0.096v-12.721
	H1151.684z M1144.387-334.769c0-0.384-0.047-0.912-0.096-1.296c-0.433-1.968-2.017-3.6-4.271-3.6c-3.313,0-5.041,2.976-5.041,6.672
	c0,3.984,1.969,6.481,4.992,6.481c2.113,0,3.793-1.44,4.225-3.504c0.145-0.528,0.191-1.056,0.191-1.68V-334.769L1144.387-334.769z
	 M1180.725-333.233c0,8.593-6.099,12.529-12.385,12.529c-6.865,0-12.146-4.512-12.146-12.097s4.993-12.433,12.529-12.433
	C1175.924-345.234,1180.725-340.29,1180.725-333.233z M1163.73-332.993c0,4.033,1.68,7.057,4.801,7.057
	c2.832,0,4.656-2.832,4.656-7.057c0-3.504-1.344-7.056-4.656-7.056C1165.027-340.05,1163.73-336.449,1163.73-332.993z
	 M1185.234-355.315h7.297v34.083h-7.297V-355.315z M1221.621-333.233c0,8.593-6.098,12.529-12.387,12.529
	c-6.863,0-12.145-4.512-12.145-12.097s4.991-12.433,12.528-12.433C1216.82-345.234,1221.621-340.29,1221.621-333.233z
	 M1204.627-332.993c0,4.033,1.681,7.057,4.802,7.057c2.832,0,4.655-2.832,4.655-7.057c0-3.504-1.344-7.056-4.655-7.056
	C1205.924-340.05,1204.627-336.449,1204.627-332.993z M1226.129-336.977c0-3.457-0.096-5.713-0.19-7.729h6.289l0.24,4.32h0.19
	c1.199-3.408,4.08-4.848,6.336-4.848c0.672,0,1.008,0,1.537,0.096v6.865c-0.529-0.096-1.152-0.192-1.969-0.192
	c-2.688,0-4.512,1.44-4.992,3.696c-0.096,0.48-0.145,1.056-0.145,1.632v11.905h-7.298L1226.129-336.977L1226.129-336.977z
	 M1254.018-327.617c1.344,0.816,4.129,1.776,6.289,1.776c2.207,0,3.119-0.768,3.119-1.968c0-1.2-0.722-1.776-3.455-2.688
	c-4.851-1.632-6.722-4.272-6.675-7.057c0-4.369,3.744-7.681,9.554-7.681c2.735,0,5.186,0.624,6.625,1.344l-1.297,5.041
	c-1.056-0.576-3.072-1.344-5.088-1.344c-1.775,0-2.783,0.72-2.783,1.92c0,1.104,0.912,1.68,3.791,2.688
	c4.465,1.536,6.338,3.792,6.385,7.249c0,4.368-3.457,7.584-10.176,7.584c-3.072,0-5.81-0.672-7.586-1.632L1254.018-327.617z
	 M1282.434-351.235c0,2.016-1.537,3.648-3.937,3.648c-2.305,0-3.842-1.632-3.793-3.648c-0.049-2.112,1.488-3.696,3.84-3.696
	C1280.896-354.931,1282.385-353.347,1282.434-351.235z M1274.896-321.232v-23.474h7.297v23.474H1274.896z M1296.209-351.427v6.721
	h5.232v5.376h-5.232v8.497c0,2.832,0.672,4.128,2.881,4.128c0.912,0,1.632-0.096,2.16-0.192l0.047,5.521
	c-0.959,0.384-2.688,0.624-4.752,0.624c-2.352,0-4.319-0.816-5.473-2.016c-1.344-1.392-2.016-3.648-2.016-6.96v-9.601h-3.121v-5.376
	h3.121v-5.088L1296.209-351.427z M1328.705-321.232l-0.434-2.352h-0.144c-1.536,1.872-3.938,2.88-6.721,2.88
	c-4.752,0-7.586-3.456-7.586-7.2c0-6.097,5.473-9.025,13.777-8.977v-0.337c0-1.248-0.672-3.024-4.271-3.024
	c-2.399,0-4.944,0.816-6.479,1.776l-1.345-4.705c1.632-0.912,4.849-2.064,9.119-2.064c7.826,0,10.322,4.608,10.322,10.129v8.161
	c0,2.256,0.096,4.417,0.336,5.712L1328.705-321.232L1328.705-321.232z M1327.84-332.321c-3.841-0.048-6.816,0.864-6.816,3.696
	c0,1.872,1.248,2.784,2.881,2.784c1.824,0,3.313-1.2,3.791-2.688c0.098-0.384,0.146-0.816,0.146-1.248L1327.84-332.321
	L1327.84-332.321z M1340.703-337.218c0-2.928-0.096-5.424-0.19-7.489h6.145l0.336,3.168h0.146c1.008-1.488,3.072-3.696,7.104-3.696
	c3.025,0,5.426,1.536,6.435,3.984h0.096c0.863-1.2,1.92-2.16,3.023-2.833c1.297-0.768,2.735-1.152,4.465-1.152
	c4.512,0,7.92,3.168,7.92,10.177v13.825h-7.104v-12.767c0-3.408-1.104-5.376-3.457-5.376c-1.68,0-2.879,1.152-3.358,2.544
	c-0.193,0.528-0.289,1.296-0.289,1.873v13.729h-7.104v-13.155c0-2.976-1.057-4.992-3.36-4.992c-1.871,0-2.978,1.44-3.408,2.64
	c-0.24,0.576-0.287,1.248-0.287,1.824v13.681h-7.105v-15.985H1340.703z M1387.6-330.641c0.24,3.024,3.217,4.464,6.625,4.464
	c2.496,0,4.512-0.336,6.479-0.96l0.959,4.944c-2.399,0.96-5.328,1.44-8.496,1.44c-7.969,0-12.528-4.608-12.528-11.953
	c0-5.952,3.694-12.529,11.856-12.529c7.584,0,10.465,5.904,10.465,11.713c0,1.248-0.145,2.352-0.239,2.88L1387.6-330.641
	L1387.6-330.641z M1396.191-335.634c0-1.776-0.768-4.752-4.127-4.752c-3.072,0-4.32,2.784-4.514,4.752H1396.191z M1415.488-351.427
	v6.721h5.232v5.376h-5.232v8.497c0,2.832,0.672,4.128,2.879,4.128c0.912,0,1.633-0.096,2.16-0.192l0.049,5.521
	c-0.961,0.384-2.688,0.624-4.752,0.624c-2.354,0-4.32-0.816-5.473-2.016c-1.344-1.392-2.017-3.648-2.017-6.96v-9.601h-3.12v-5.376
	h3.12v-5.088L1415.488-351.427z M1440.254-330.641c0.24,3.024,3.218,4.464,6.625,4.464c2.496,0,4.513-0.336,6.48-0.96l0.961,4.944
	c-2.4,0.96-5.328,1.44-8.498,1.44c-7.969,0-12.529-4.608-12.529-11.953c0-5.952,3.697-12.529,11.857-12.529
	c7.586,0,10.465,5.904,10.465,11.713c0,1.248-0.143,2.352-0.24,2.88L1440.254-330.641L1440.254-330.641z M1448.848-335.634
	c0-1.776-0.769-4.752-4.129-4.752c-3.072,0-4.32,2.784-4.513,4.752H1448.848z M1459.982-355.315h7.297v34.083h-7.297V-355.315z
	 M1480.719-351.235c0,2.016-1.537,3.648-3.938,3.648c-2.303,0-3.84-1.632-3.791-3.648c-0.049-2.112,1.488-3.696,3.84-3.696
	C1479.182-354.931,1480.67-353.347,1480.719-351.235z M1473.182-321.232v-23.474h7.297v23.474H1473.182z M1494.494-351.427v6.721
	h5.232v5.376h-5.232v8.497c0,2.832,0.672,4.128,2.879,4.128c0.912,0,1.634-0.096,2.162-0.192l0.047,5.521
	c-0.959,0.384-2.688,0.624-4.752,0.624c-2.352,0-4.319-0.816-5.473-2.016c-1.344-1.392-2.016-3.648-2.016-6.96v-9.601h-3.121v-5.376
	h3.121v-5.088L1494.494-351.427z M1503.037-325.12c0-2.592,1.775-4.464,4.32-4.464c2.543,0,4.271,1.824,4.271,4.464
	c0,2.544-1.729,4.416-4.319,4.416C1504.813-320.704,1503.037-322.576,1503.037-325.12z M890.711-261.809
	c-1.295,0.576-3.744,1.057-6.528,1.057c-7.585,0-12.433-4.607-12.433-12.002c0-6.863,4.705-12.48,13.44-12.48
	c1.92,0,4.032,0.336,5.567,0.912l-1.151,5.424c-0.864-0.383-2.161-0.719-4.081-0.719c-3.84,0-6.336,2.736-6.289,6.576
	c0,4.321,2.88,6.577,6.434,6.577c1.728,0,3.071-0.286,4.176-0.719L890.711-261.809z M917.4-273.233
	c0,8.592-6.098,12.53-12.385,12.53c-6.864,0-12.145-4.514-12.145-12.098c0-7.583,4.992-12.433,12.528-12.433
	C912.6-285.235,917.4-280.289,917.4-273.233z M900.406-272.993c0,4.032,1.68,7.057,4.801,7.057c2.832,0,4.656-2.834,4.656-7.057
	c0-3.506-1.344-7.056-4.656-7.056C901.702-280.049,900.406-276.45,900.406-272.993z M921.909-277.218
	c0-2.929-0.096-5.425-0.192-7.488h6.336l0.336,3.215h0.145c0.96-1.488,3.36-3.744,7.249-3.744c4.802,0,8.401,3.168,8.401,10.082
	v13.92h-7.297v-13.008c0-3.025-1.055-5.089-3.695-5.089c-2.018,0-3.216,1.393-3.697,2.736c-0.191,0.432-0.287,1.152-0.287,1.824
	v13.537h-7.298V-277.218L921.909-277.218z M949.989-267.618c1.345,0.816,4.128,1.777,6.289,1.777c2.208,0,3.12-0.77,3.12-1.969
	s-0.721-1.775-3.457-2.688c-4.848-1.634-6.721-4.274-6.672-7.058c0-4.369,3.744-7.682,9.553-7.682c2.736,0,5.186,0.625,6.625,1.344
	l-1.297,5.041c-1.057-0.576-3.072-1.344-5.088-1.344c-1.776,0-2.784,0.721-2.784,1.92c0,1.103,0.912,1.679,3.792,2.687
	c4.465,1.537,6.337,3.793,6.385,7.25c0,4.367-3.457,7.584-10.177,7.584c-3.071,0-5.81-0.672-7.585-1.633L949.989-267.618z
	 M976.486-270.641c0.239,3.023,3.216,4.465,6.624,4.465c2.496,0,4.513-0.336,6.479-0.961l0.961,4.945
	c-2.4,0.959-5.328,1.438-8.496,1.438c-7.969,0-12.529-4.606-12.529-11.954c0-5.953,3.695-12.529,11.857-12.529
	c7.584,0,10.465,5.904,10.465,11.712c0,1.248-0.146,2.354-0.24,2.881h-15.121V-270.641z M985.078-275.634
	c0-1.777-0.768-4.751-4.128-4.751c-3.071,0-4.319,2.783-4.513,4.751H985.078z M1013.83-261.809
	c-1.296,0.576-3.744,1.057-6.527,1.057c-7.586,0-12.434-4.607-12.434-12.002c0-6.863,4.704-12.48,13.441-12.48
	c1.92,0,4.031,0.336,5.568,0.912l-1.152,5.424c-0.864-0.383-2.16-0.719-4.08-0.719c-3.842,0-6.337,2.736-6.289,6.576
	c0,4.321,2.881,6.577,6.434,6.577c1.728,0,3.071-0.286,4.176-0.719L1013.83-261.809z M1026.789-291.427v6.722h5.232v5.375h-5.232
	v8.498c0,2.832,0.672,4.127,2.881,4.127c0.912,0,1.631-0.096,2.16-0.19l0.047,5.521c-0.959,0.383-2.688,0.623-4.752,0.623
	c-2.353,0-4.32-0.816-5.473-2.016c-1.344-1.393-2.016-3.648-2.016-6.961v-9.602h-3.121v-5.375h3.121v-5.09L1026.789-291.427z
	 M1041.621-270.641c0.239,3.023,3.217,4.465,6.624,4.465c2.496,0,4.513-0.336,6.48-0.961l0.96,4.945
	c-2.4,0.959-5.328,1.438-8.496,1.438c-7.969,0-12.529-4.606-12.529-11.954c0-5.953,3.695-12.529,11.857-12.529
	c7.584,0,10.465,5.904,10.465,11.712c0,1.248-0.145,2.354-0.24,2.881h-15.121V-270.641z M1050.213-275.634
	c0-1.777-0.768-4.751-4.127-4.751c-3.072,0-4.32,2.783-4.514,4.751H1050.213z M1069.508-291.427v6.722h5.232v5.375h-5.232v8.498
	c0,2.832,0.674,4.127,2.881,4.127c0.912,0,1.633-0.096,2.16-0.19l0.049,5.521c-0.961,0.383-2.688,0.623-4.754,0.623
	c-2.353,0-4.319-0.816-5.471-2.016c-1.346-1.393-2.018-3.648-2.018-6.961v-9.602h-3.12v-5.375h3.12v-5.09L1069.508-291.427z
	 M1101.094-268.77c0,3.072,0.096,5.57,0.19,7.537h-6.336l-0.336-3.313h-0.146c-0.911,1.441-3.118,3.843-7.344,3.843
	c-4.752,0-8.258-2.978-8.258-10.228v-13.775h7.346v12.625c0,3.408,1.104,5.471,3.648,5.471c2.016,0,3.168-1.392,3.648-2.543
	c0.19-0.433,0.238-1.008,0.238-1.584v-13.969h7.346v15.936H1101.094z M1106.947-276.977c0-3.457-0.096-5.712-0.191-7.728h6.289
	l0.238,4.32h0.193c1.199-3.408,4.08-4.85,6.336-4.85c0.672,0,1.008,0,1.536,0.096v6.865c-0.528-0.096-1.152-0.191-1.968-0.191
	c-2.689,0-4.514,1.439-4.992,3.695c-0.098,0.48-0.146,1.057-0.146,1.633v11.904h-7.297L1106.947-276.977L1106.947-276.977z
	 M1148.229-261.233l-0.434-2.353h-0.144c-1.537,1.871-3.937,2.882-6.722,2.882c-4.752,0-7.584-3.457-7.584-7.201
	c0-6.099,5.473-9.026,13.777-8.978v-0.336c0-1.248-0.674-3.025-4.272-3.025c-2.4,0-4.944,0.816-6.48,1.777l-1.344-4.705
	c1.632-0.912,4.849-2.064,9.12-2.064c7.824,0,10.32,4.609,10.32,10.128v8.162c0,2.258,0.097,4.418,0.336,5.713H1148.229
	L1148.229-261.233z M1147.363-272.321c-3.84-0.049-6.816,0.864-6.816,3.696c0,1.873,1.248,2.785,2.881,2.785
	c1.824,0,3.313-1.201,3.793-2.689c0.097-0.383,0.144-0.813,0.144-1.248L1147.363-272.321L1147.363-272.321z M1182.98-295.315v27.075
	c0,2.641,0.098,5.424,0.193,7.008h-6.48l-0.338-3.455h-0.096c-1.488,2.639-4.32,3.984-7.345,3.984
	c-5.568,0-10.032-4.754-10.032-12.052c-0.049-7.919,4.896-12.48,10.514-12.48c2.879,0,5.135,1.008,6.19,2.641h0.097v-12.721H1182.98
	z M1175.684-274.77c0-0.383-0.047-0.912-0.097-1.295c-0.432-1.968-2.016-3.601-4.271-3.601c-3.313,0-5.041,2.976-5.041,6.673
	c0,3.985,1.969,6.481,4.992,6.481c2.113,0,3.793-1.441,4.225-3.506c0.146-0.527,0.191-1.055,0.191-1.68V-274.77L1175.684-274.77z
	 M1196.371-291.235c0,2.016-1.535,3.648-3.936,3.648c-2.305,0-3.84-1.633-3.793-3.648c-0.047-2.112,1.488-3.696,3.84-3.696
	C1194.836-294.931,1196.324-293.347,1196.371-291.235z M1188.834-261.233v-23.473h7.298v23.473H1188.834z M1201.986-276.835
	c0-3.072-0.096-5.71-0.191-7.871h6.337l0.336,3.264h0.096c1.729-2.496,4.416-3.793,7.824-3.793c5.137,0,9.746,4.465,9.746,11.953
	c0,8.545-5.427,12.579-10.658,12.579c-2.832,0-5.039-1.151-6.097-2.688h-0.096v11.666h-7.297V-276.835z M1209.283-271.313
	c0,0.576,0.047,1.104,0.146,1.535c0.479,1.969,2.159,3.457,4.271,3.457c3.168,0,5.041-2.642,5.041-6.625
	c0-3.744-1.682-6.576-4.945-6.576c-2.063,0-3.889,1.535-4.366,3.695c-0.099,0.385-0.146,0.865-0.146,1.297V-271.313
	L1209.283-271.313z M1238.227-291.235c0,2.016-1.535,3.648-3.937,3.648c-2.305,0-3.84-1.633-3.793-3.648
	c-0.047-2.112,1.488-3.696,3.84-3.696C1236.691-294.931,1238.18-293.347,1238.227-291.235z M1230.689-261.233v-23.473h7.297v23.473
	H1230.689z M1243.793-267.618c1.347,0.816,4.129,1.777,6.289,1.777c2.209,0,3.121-0.77,3.121-1.969s-0.721-1.775-3.457-2.688
	c-4.848-1.634-6.721-4.274-6.672-7.058c0-4.369,3.744-7.682,9.553-7.682c2.736,0,5.185,0.625,6.623,1.344l-1.295,5.041
	c-1.057-0.576-3.071-1.344-5.088-1.344c-1.777,0-2.785,0.721-2.785,1.92c0,1.103,0.912,1.679,3.793,2.687
	c4.463,1.537,6.336,3.793,6.386,7.25c0,4.367-3.457,7.584-10.179,7.584c-3.071,0-5.809-0.672-7.584-1.633L1243.793-267.618z
	 M1272.209-291.235c0,2.016-1.534,3.648-3.936,3.648c-2.305,0-3.84-1.633-3.793-3.648c-0.047-2.112,1.488-3.696,3.84-3.696
	C1270.674-294.931,1272.162-293.347,1272.209-291.235z M1264.672-261.233v-23.473h7.298v23.473H1264.672z M1295.441-261.809
	c-1.297,0.576-3.744,1.057-6.529,1.057c-7.584,0-12.432-4.607-12.432-12.002c0-6.863,4.703-12.48,13.44-12.48
	c1.921,0,4.031,0.336,5.568,0.912l-1.152,5.424c-0.864-0.383-2.159-0.719-4.079-0.719c-3.843,0-6.339,2.736-6.289,6.576
	c0,4.321,2.881,6.577,6.432,6.577c1.729,0,3.072-0.286,4.178-0.719L1295.441-261.809z M1307.008-291.235
	c0,2.016-1.535,3.648-3.937,3.648c-2.305,0-3.84-1.633-3.793-3.648c-0.047-2.112,1.488-3.696,3.84-3.696
	C1305.473-294.931,1306.961-293.347,1307.008-291.235z M1299.471-261.233v-23.473h7.297v23.473H1299.471z M1312.623-277.218
	c0-2.929-0.096-5.425-0.19-7.488h6.336l0.336,3.215h0.145c0.959-1.488,3.359-3.744,7.248-3.744c4.802,0,8.4,3.168,8.4,10.082v13.92
	h-7.297v-13.008c0-3.025-1.056-5.089-3.695-5.089c-2.018,0-3.217,1.393-3.697,2.736c-0.19,0.432-0.286,1.152-0.286,1.824v13.537
	h-7.298L1312.623-277.218L1312.623-277.218z M1363.168-284.705c-0.096,1.486-0.19,3.455-0.19,6.959v13.105
	c0,4.514-0.912,8.209-3.553,10.561c-2.593,2.209-6.097,2.881-9.554,2.881c-3.071,0-6.336-0.623-8.448-1.824l1.44-5.52
	c1.488,0.863,4.08,1.775,6.816,1.775c3.457,0,6.096-1.873,6.096-6.193v-1.535h-0.096c-1.394,1.969-3.648,3.072-6.336,3.072
	c-5.81,0-9.938-4.705-9.938-11.473c0-7.537,4.896-12.337,10.658-12.337c3.215,0,5.232,1.393,6.432,3.313h0.097l0.239-2.783
	L1363.168-284.705L1363.168-284.705z M1355.68-275.153c0-0.48-0.047-0.961-0.146-1.346c-0.526-1.919-1.92-3.214-3.936-3.214
	c-2.642,0-4.802,2.4-4.802,6.671c0,3.504,1.729,6.241,4.802,6.241c1.873,0,3.36-1.248,3.84-2.977c0.193-0.527,0.24-1.295,0.24-1.92
	L1355.68-275.153L1355.68-275.153z M1401.279-295.315v27.075c0,2.641,0.098,5.424,0.193,7.008h-6.48l-0.336-3.455h-0.098
	c-1.486,2.639-4.32,3.984-7.344,3.984c-5.568,0-10.033-4.754-10.033-12.052c-0.047-7.919,4.896-12.48,10.514-12.48
	c2.881,0,5.137,1.008,6.191,2.641h0.098v-12.721H1401.279z M1393.984-274.77c0-0.383-0.049-0.912-0.098-1.295
	c-0.433-1.968-2.017-3.601-4.271-3.601c-3.313,0-5.041,2.976-5.041,6.673c0,3.985,1.969,6.481,4.992,6.481
	c2.113,0,3.793-1.441,4.225-3.506c0.146-0.527,0.193-1.055,0.193-1.68V-274.77L1393.984-274.77z M1430.32-273.233
	c0,8.592-6.098,12.53-12.385,12.53c-6.865,0-12.146-4.514-12.146-12.098c0-7.583,4.994-12.433,12.529-12.433
	C1425.52-285.235,1430.32-280.289,1430.32-273.233z M1413.326-272.993c0,4.032,1.68,7.057,4.801,7.057
	c2.832,0,4.656-2.834,4.656-7.057c0-3.506-1.344-7.056-4.656-7.056C1414.623-280.049,1413.326-276.45,1413.326-272.993z
	 M1434.83-295.315h7.297v34.083h-7.297V-295.315z M1471.215-273.233c0,8.592-6.097,12.53-12.386,12.53
	c-6.862,0-12.145-4.514-12.145-12.098c0-7.583,4.992-12.433,12.528-12.433C1466.416-285.235,1471.215-280.289,1471.215-273.233z
	 M1454.223-272.993c0,4.032,1.68,7.057,4.801,7.057c2.832,0,4.656-2.834,4.656-7.057c0-3.506-1.347-7.056-4.656-7.056
	C1455.518-280.049,1454.223-276.45,1454.223-272.993z M1475.725-276.977c0-3.457-0.097-5.712-0.191-7.728h6.289l0.24,4.32h0.19
	c1.199-3.408,4.08-4.85,6.337-4.85c0.674,0,1.01,0,1.536,0.096v6.865c-0.526-0.096-1.151-0.191-1.969-0.191
	c-2.688,0-4.512,1.439-4.992,3.695c-0.096,0.48-0.145,1.057-0.145,1.633v11.904h-7.297L1475.725-276.977L1475.725-276.977z
	 M885.311-233.155c2.352-0.385,5.855-0.672,9.744-0.672c4.801,0,8.162,0.719,10.466,2.543c1.92,1.537,2.978,3.793,2.978,6.77
	c0,4.129-2.929,6.961-5.714,7.969v0.145c2.257,0.912,3.505,3.072,4.321,6.048c1.008,3.647,2.016,7.873,2.641,9.12h-7.49
	c-0.527-0.911-1.295-3.553-2.256-7.536c-0.863-4.031-2.256-5.136-5.231-5.185h-2.208v12.721h-7.249L885.311-233.155L885.311-233.155
	z M892.559-219.235h2.88c3.647,0,5.808-1.824,5.808-4.656c0-2.975-2.016-4.463-5.376-4.512c-1.776,0-2.784,0.145-3.312,0.24
	V-219.235L892.559-219.235z M919.15-210.641c0.24,3.023,3.216,4.465,6.625,4.465c2.496,0,4.512-0.336,6.48-0.961l0.959,4.945
	c-2.399,0.959-5.328,1.438-8.496,1.438c-7.969,0-12.529-4.606-12.529-11.952c0-5.953,3.695-12.529,11.857-12.529
	c7.584,0,10.465,5.904,10.465,11.713c0,1.248-0.145,2.354-0.24,2.881H919.15L919.15-210.641z M927.742-215.633
	c0-1.777-0.768-4.752-4.128-4.752c-3.071,0-4.319,2.783-4.513,4.752H927.742z M938.877-216.834c0-3.072-0.096-5.711-0.191-7.871
	h6.336l0.336,3.264h0.096c1.729-2.495,4.417-3.793,7.825-3.793c5.136,0,9.745,4.466,9.745,11.953
	c0,8.545-5.426,12.578-10.657,12.578c-2.833,0-5.041-1.151-6.097-2.688h-0.096v11.666h-7.297V-216.834L938.877-216.834z
	 M946.174-211.313c0,0.576,0.047,1.104,0.144,1.535c0.479,1.969,2.16,3.457,4.272,3.457c3.168,0,5.041-2.642,5.041-6.625
	c0-3.744-1.682-6.576-4.945-6.576c-2.064,0-3.889,1.535-4.368,3.695c-0.097,0.385-0.144,0.864-0.144,1.297V-211.313z
	 M973.342-210.641c0.238,3.023,3.216,4.465,6.623,4.465c2.496,0,4.514-0.336,6.48-0.961l0.96,4.945
	c-2.399,0.959-5.328,1.438-8.496,1.438c-7.969,0-12.528-4.606-12.528-11.952c0-5.953,3.694-12.529,11.856-12.529
	c7.584,0,10.465,5.904,10.465,11.713c0,1.248-0.146,2.354-0.239,2.881H973.342L973.342-210.641z M981.934-215.633
	c0-1.777-0.768-4.752-4.129-4.752c-3.071,0-4.319,2.783-4.512,4.752H981.934z M993.068-235.315h7.297v34.082h-7.297V-235.315z
	 M1006.268-235.315h7.297v34.082h-7.297V-235.315z M1032.813-201.233l-0.432-2.353h-0.146c-1.535,1.871-3.937,2.882-6.722,2.882
	c-4.752,0-7.584-3.457-7.584-7.201c0-6.099,5.474-9.025,13.777-8.978v-0.336c0-1.248-0.672-3.024-4.271-3.024
	c-2.4,0-4.944,0.815-6.48,1.776l-1.345-4.705c1.633-0.911,4.851-2.063,9.121-2.063c7.823,0,10.321,4.608,10.321,10.129v8.16
	c0,2.258,0.096,4.418,0.336,5.713H1032.813L1032.813-201.233z M1031.949-212.321c-3.841-0.049-6.816,0.863-6.816,3.694
	c0,1.873,1.248,2.785,2.881,2.785c1.824,0,3.312-1.2,3.791-2.688c0.097-0.383,0.146-0.814,0.146-1.248L1031.949-212.321
	L1031.949-212.321z M1052.588-231.426v6.721h5.232v5.375h-5.232v8.498c0,2.832,0.674,4.127,2.881,4.127
	c0.912,0,1.634-0.096,2.16-0.19l0.049,5.521c-0.961,0.383-2.688,0.623-4.754,0.623c-2.352,0-4.319-0.816-5.472-2.016
	c-1.345-1.393-2.017-3.648-2.017-6.961v-9.602h-3.12v-5.375h3.12v-5.091L1052.588-231.426z M1071.739-216.834
	c0-3.072-0.097-5.711-0.192-7.871h6.338l0.336,3.264h0.097c1.728-2.495,4.416-3.793,7.824-3.793c5.137,0,9.743,4.466,9.743,11.953
	c0,8.545-5.424,12.578-10.655,12.578c-2.832,0-5.041-1.151-6.097-2.688h-0.097v11.666h-7.297V-216.834z M1079.036-211.313
	c0,0.576,0.048,1.104,0.144,1.535c0.48,1.969,2.16,3.457,4.272,3.457c3.169,0,5.04-2.642,5.04-6.625c0-3.744-1.68-6.576-4.943-6.576
	c-2.063,0-3.889,1.535-4.368,3.695c-0.097,0.385-0.144,0.864-0.144,1.297L1079.036-211.313L1079.036-211.313z M1106.203-210.641
	c0.24,3.023,3.217,4.465,6.625,4.465c2.496,0,4.512-0.336,6.48-0.961l0.959,4.945c-2.399,0.959-5.328,1.438-8.496,1.438
	c-7.969,0-12.529-4.606-12.529-11.952c0-5.953,3.696-12.529,11.857-12.529c7.584,0,10.465,5.904,10.465,11.713
	c0,1.248-0.145,2.354-0.24,2.881H1106.203L1106.203-210.641z M1114.797-215.633c0-1.777-0.77-4.752-4.129-4.752
	c-3.072,0-4.319,2.783-4.514,4.752H1114.797z M1125.93-216.977c0-3.457-0.096-5.713-0.191-7.729h6.289l0.24,4.319h0.191
	c1.199-3.408,4.08-4.851,6.336-4.851c0.672,0,1.008,0,1.537,0.097v6.864c-0.529-0.096-1.152-0.19-1.97-0.19
	c-2.688,0-4.512,1.438-4.991,3.695c-0.097,0.479-0.145,1.057-0.145,1.633v11.903h-7.297V-216.977L1125.93-216.977z
	 M1144.123-207.618c1.344,0.816,4.127,1.777,6.287,1.777c2.209,0,3.121-0.77,3.121-1.969s-0.721-1.775-3.457-2.688
	c-4.848-1.634-6.721-4.273-6.672-7.058c0-4.369,3.744-7.683,9.553-7.683c2.736,0,5.184,0.625,6.625,1.345l-1.297,5.041
	c-1.057-0.576-3.072-1.345-5.088-1.345c-1.777,0-2.785,0.722-2.785,1.92c0,1.104,0.912,1.681,3.793,2.688
	c4.465,1.537,6.336,3.793,6.385,7.25c0,4.367-3.457,7.584-10.178,7.584c-3.072,0-5.809-0.672-7.584-1.633L1144.123-207.618z
	 M1165.002-216.834c0-3.072-0.097-5.711-0.191-7.871h6.337l0.336,3.264h0.096c1.729-2.495,4.416-3.793,7.826-3.793
	c5.135,0,9.744,4.466,9.744,11.953c0,8.545-5.424,12.578-10.656,12.578c-2.834,0-5.041-1.151-6.098-2.688h-0.096v11.666h-7.298
	V-216.834z M1172.299-211.313c0,0.576,0.047,1.104,0.143,1.535c0.48,1.969,2.162,3.457,4.273,3.457c3.168,0,5.041-2.642,5.041-6.625
	c0-3.744-1.681-6.576-4.945-6.576c-2.064,0-3.89,1.535-4.369,3.695c-0.096,0.385-0.143,0.864-0.143,1.297V-211.313z
	 M1201.242-231.235c0,2.016-1.535,3.647-3.936,3.647c-2.306,0-3.84-1.633-3.793-3.647c-0.047-2.113,1.487-3.697,3.84-3.697
	C1199.707-234.932,1201.195-233.348,1201.242-231.235z M1193.705-201.233v-23.473h7.297v23.473H1193.705z M1224.475-201.809
	c-1.297,0.576-3.744,1.057-6.529,1.057c-7.584,0-12.432-4.607-12.432-12.002c0-6.863,4.703-12.48,13.44-12.48
	c1.92,0,4.031,0.336,5.568,0.912l-1.152,5.424c-0.864-0.383-2.16-0.719-4.08-0.719c-3.842,0-6.338,2.736-6.289,6.576
	c0,4.32,2.882,6.576,6.433,6.576c1.729,0,3.072-0.287,4.178-0.719L1224.475-201.809z M1236.041-231.235
	c0,2.016-1.534,3.647-3.936,3.647c-2.305,0-3.84-1.633-3.793-3.647c-0.047-2.113,1.488-3.697,3.84-3.697
	C1234.506-234.932,1235.994-233.348,1236.041-231.235z M1228.504-201.233v-23.473h7.298v23.473H1228.504z M1255.002-201.233
	l-0.434-2.353h-0.143c-1.537,1.871-3.938,2.882-6.722,2.882c-4.752,0-7.586-3.457-7.586-7.201c0-6.099,5.474-9.025,13.777-8.978
	v-0.336c0-1.248-0.672-3.024-4.271-3.024c-2.399,0-4.944,0.815-6.479,1.776l-1.344-4.705c1.631-0.911,4.848-2.063,9.118-2.063
	c7.826,0,10.322,4.608,10.322,10.129v8.16c0,2.258,0.096,4.418,0.336,5.713H1255.002L1255.002-201.233z M1254.137-212.321
	c-3.84-0.049-6.816,0.863-6.816,3.694c0,1.873,1.248,2.785,2.881,2.785c1.824,0,3.313-1.2,3.791-2.688
	c0.099-0.383,0.146-0.814,0.146-1.248L1254.137-212.321L1254.137-212.321z M1274.777-231.426v6.721h5.232v5.375h-5.232v8.498
	c0,2.832,0.672,4.127,2.879,4.127c0.912,0,1.633-0.096,2.16-0.19l0.049,5.521c-0.961,0.383-2.688,0.623-4.752,0.623
	c-2.354,0-4.32-0.816-5.473-2.016c-1.344-1.393-2.017-3.648-2.017-6.961v-9.602h-3.12v-5.375h3.12v-5.091L1274.777-231.426z
	 M1291.768-231.235c0,2.016-1.535,3.647-3.937,3.647c-2.305,0-3.84-1.633-3.793-3.647c-0.047-2.113,1.488-3.697,3.843-3.697
	C1290.232-234.932,1291.721-233.348,1291.768-231.235z M1284.232-201.233v-23.473h7.297v23.473H1284.232z M1297.336-207.618
	c1.345,0.816,4.127,1.777,6.287,1.777c2.209,0,3.121-0.77,3.121-1.969s-0.721-1.775-3.457-2.688
	c-4.848-1.634-6.721-4.273-6.672-7.058c0-4.369,3.744-7.683,9.553-7.683c2.736,0,5.185,0.625,6.625,1.345l-1.297,5.041
	c-1.057-0.576-3.072-1.345-5.088-1.345c-1.777,0-2.785,0.722-2.785,1.92c0,1.104,0.912,1.681,3.793,2.688
	c4.466,1.537,6.336,3.793,6.386,7.25c0,4.367-3.457,7.584-10.179,7.584c-3.071,0-5.809-0.672-7.584-1.633L1297.336-207.618z
	 M1350.041-208.77c0,3.072,0.097,5.57,0.191,7.537h-6.336l-0.336-3.313h-0.146c-0.912,1.441-3.121,3.843-7.346,3.843
	c-4.752,0-8.256-2.978-8.256-10.228v-13.774h7.344v12.625c0,3.407,1.105,5.471,3.648,5.471c2.018,0,3.17-1.392,3.647-2.543
	c0.193-0.433,0.24-1.008,0.24-1.584v-13.969h7.346v15.936H1350.041z M1355.895-217.217c0-2.93-0.096-5.426-0.191-7.488h6.336
	l0.336,3.215h0.146c0.959-1.487,3.358-3.744,7.248-3.744c4.801,0,8.399,3.168,8.399,10.082v13.92h-7.297v-13.008
	c0-3.024-1.055-5.09-3.694-5.09c-2.019,0-3.218,1.394-3.697,2.736c-0.191,0.432-0.287,1.152-0.287,1.824v13.537h-7.297
	L1355.895-217.217L1355.895-217.217z M1391.895-231.426v6.721h5.231v5.375h-5.231v8.498c0,2.832,0.672,4.127,2.881,4.127
	c0.912,0,1.633-0.096,2.16-0.19l0.047,5.521c-0.959,0.383-2.688,0.623-4.752,0.623c-2.353,0-4.32-0.816-5.474-2.016
	c-1.344-1.393-2.016-3.648-2.016-6.961v-9.602h-3.121v-5.375h3.121v-5.091L1391.895-231.426z M1424.391-201.233l-0.433-2.353h-0.145
	c-1.535,1.871-3.937,2.882-6.721,2.882c-4.753,0-7.584-3.457-7.584-7.201c0-6.099,5.473-9.025,13.776-8.978v-0.336
	c0-1.248-0.672-3.024-4.272-3.024c-2.4,0-4.943,0.815-6.48,1.776l-1.344-4.705c1.633-0.911,4.85-2.063,9.121-2.063
	c7.823,0,10.319,4.608,10.319,10.129v8.16c0,2.258,0.097,4.418,0.336,5.713H1424.391L1424.391-201.233z M1423.527-212.321
	c-3.842-0.049-6.816,0.863-6.816,3.694c0,1.873,1.248,2.785,2.88,2.785c1.823,0,3.313-1.2,3.793-2.688
	c0.096-0.383,0.145-0.814,0.145-1.248L1423.527-212.321L1423.527-212.321z M1458.52-208.77c0,3.072,0.096,5.57,0.19,7.537h-6.336
	l-0.336-3.313h-0.145c-0.912,1.441-3.119,3.843-7.345,3.843c-4.754,0-8.258-2.978-8.258-10.228v-13.774h7.347v12.625
	c0,3.407,1.104,5.471,3.647,5.471c2.017,0,3.168-1.392,3.648-2.543c0.19-0.433,0.237-1.008,0.237-1.584v-13.969h7.347v15.936
	H1458.52z M1472.533-231.426v6.721h5.232v5.375h-5.232v8.498c0,2.832,0.672,4.127,2.881,4.127c0.912,0,1.633-0.096,2.16-0.19
	l0.047,5.521c-0.959,0.383-2.688,0.623-4.752,0.623c-2.352,0-4.32-0.816-5.473-2.016c-1.344-1.393-2.017-3.648-2.017-6.961v-9.602
	h-3.12v-5.375h3.12v-5.091L1472.533-231.426z M1585.496-436.594H760.32v334.965h825.176V-436.594z"/>
<g>
	<path fill="#FFFFFF" d="M602.381,177.68c-1.621,0-3.744,1.116-3.744,5.004c0,3.275,0.936,5.398,3.707,5.398
		c2.7,0,3.672-2.843,3.672-5.398C606.016,180.308,605.115,177.68,602.381,177.68z"/>
	<path fill="#FFFFFF" d="M492.293,138.883c2.7,0,3.672-2.844,3.672-5.398c0-2.377-0.9-5.004-3.635-5.004
		c-1.621,0-3.744,1.115-3.744,5.004C488.586,136.76,489.521,138.883,492.293,138.883z"/>
	<path fill="#FFFFFF" d="M210.924,177.68c-2.771,0-3.744,2.628-3.744,5.004c0,2.556,0.972,5.398,3.744,5.398
		c2.988,0,3.636-2.843,3.636-5.219C214.56,180.164,213.587,177.68,210.924,177.68z"/>
	<path fill="#FFFFFF" d="M620.992,135.283c-1.404,0.324-2.52,0.9-2.52,2.376c0,1.548,1.151,2.124,2.555,2.124
		c2.916,0,3.889-1.62,3.744-5.508C623.908,134.815,622.324,134.888,620.992,135.283z"/>
	<path fill="#FFFFFF" d="M579.178,78.74c-2.16,0-3.563,1.512-3.959,3.815h7.595C582.705,80.432,581.229,78.74,579.178,78.74z"/>
	<path fill="#FFFFFF" d="M304.251,89.683c2.88,0,3.744-2.771,3.744-5.183c0-2.377-0.864-5.22-3.744-5.22
		c-2.844,0-3.708,2.843-3.708,5.22C300.544,86.911,301.408,89.683,304.251,89.683z"/>
	<path fill="#FFFFFF" d="M509.159,78.74c-2.159,0-3.563,1.512-3.96,3.815h7.596C512.688,80.432,511.211,78.74,509.159,78.74z"/>
	<path fill="#FFFFFF" d="M141.157,127.94c-2.16,0-3.563,1.512-3.959,3.815h7.595C144.685,129.633,143.208,127.94,141.157,127.94z"/>
	<path fill="#FFFFFF" d="M512.994,177.68c-2.844,0-3.707,2.844-3.707,5.22c0,2.411,0.863,5.183,3.707,5.183
		c2.88,0,3.744-2.771,3.744-5.183C516.738,180.523,515.874,177.68,512.994,177.68z"/>
	<path fill="#FFFFFF" d="M428.324,184.482c-1.404,0.324-2.52,0.9-2.52,2.377c0,1.547,1.151,2.123,2.555,2.123
		c2.916,0,3.889-1.619,3.744-5.508C431.24,184.016,429.656,184.088,428.324,184.482z"/>
	<path fill="#FFFFFF" d="M233.819,177.141c-2.16,0-3.563,1.512-3.959,3.814h7.595C237.347,178.832,235.871,177.141,233.819,177.141z
		"/>
	<path fill="#FFFFFF" d="M456.564,88.352c2.592,0,3.707-2.053,3.707-4.355c0-2.412-0.971-4.716-3.671-4.716
		s-3.563,2.376-3.563,4.679C453.037,86.155,454.08,88.352,456.564,88.352z"/>
	<path fill="#FFFFFF" d="M211.193,88.352c2.592,0,3.708-2.053,3.708-4.355c0-2.412-0.972-4.716-3.671-4.716
		s-3.563,2.376-3.563,4.679C207.666,86.155,208.709,88.352,211.193,88.352z"/>
	<path fill="#FFFFFF" d="M504.643,226.881c-1.62,0-3.744,1.115-3.744,5.003c0,3.275,0.937,5.399,3.708,5.399
		c2.7,0,3.671-2.844,3.671-5.399C508.277,229.508,507.378,226.881,504.643,226.881z"/>
	<path fill="#FFFFFF" d="M423.59,89.683c2.879,0,3.743-2.771,3.743-5.183c0-2.377-0.864-5.22-3.743-5.22
		c-2.844,0-3.708,2.843-3.708,5.22C419.882,86.911,420.746,89.683,423.59,89.683z"/>
	<path fill="#FFFFFF" d="M569.261,177.141c-2.159,0-3.563,1.512-3.96,3.814h7.596C572.789,178.832,571.313,177.141,569.261,177.141z
		"/>
	<path fill="#FFFFFF" d="M275.831,177.141c-2.16,0-3.563,1.512-3.959,3.814h7.595C279.359,178.832,277.883,177.141,275.831,177.141z
		"/>
	<path fill="#FFFFFF" d="M458.526,127.94c-2.159,0-3.563,1.512-3.96,3.815h7.596C462.055,129.633,460.578,127.94,458.526,127.94z"/>
	<path fill="#FFFFFF" d="M536.537,127.94c-2.16,0-3.564,1.512-3.96,3.815h7.595C540.064,129.633,538.588,127.94,536.537,127.94z"/>
	<path fill="#FFFFFF" d="M510.582,131.756h7.595c-0.108-2.123-1.584-3.815-3.636-3.815
		C512.381,127.94,510.978,129.452,510.582,131.756z"/>
	<path fill="#FFFFFF" d="M387.212,127.94c-2.159,0-3.563,1.512-3.96,3.815h7.596C390.74,129.633,389.264,127.94,387.212,127.94z"/>
	<path fill="#FFFFFF" d="M678.32,89.683c2.7,0,3.672-2.843,3.672-5.399c0-2.375-0.9-5.003-3.635-5.003
		c-1.621,0-3.744,1.116-3.744,5.003C674.613,87.559,675.549,89.683,678.32,89.683z"/>
	<path fill="#FFFFFF" d="M748.285,128.48c-2.844,0-3.708,2.844-3.708,5.219c0,2.412,0.864,5.184,3.708,5.184
		c2.879,0,3.743-2.771,3.743-5.184C752.028,131.324,751.164,128.48,748.285,128.48z"/>
	<path fill="#FFFFFF" d="M655.641,89.683c2.7,0,3.672-2.843,3.672-5.399c0-2.375-0.9-5.003-3.635-5.003
		c-1.621,0-3.744,1.116-3.744,5.003C651.934,87.559,652.869,89.683,655.641,89.683z"/>
	<path fill="#FFFFFF" d="M73.551,184.482c-1.404,0.324-2.52,0.9-2.52,2.377c0,1.547,1.152,2.123,2.556,2.123
		c2.916,0,3.888-1.619,3.744-5.508C76.467,184.016,74.883,184.088,73.551,184.482z"/>
	<path fill="#FFFFFF" d="M747.277,177.141c-2.16,0-3.563,1.512-3.959,3.814h7.595C750.805,178.832,749.329,177.141,747.277,177.141z
		"/>
	<path fill="#FFFFFF" d="M332.494,177.141c-2.16,0-3.563,1.512-3.959,3.814h7.595C336.022,178.832,334.546,177.141,332.494,177.141z
		"/>
	<path fill="#FFFFFF" d="M22.36,137.659c0,1.548,1.152,2.124,2.556,2.124c2.916,0,3.888-1.62,3.744-5.508
		c-0.864,0.54-2.448,0.612-3.78,1.008C23.476,135.607,22.36,136.184,22.36,137.659z"/>
	<path fill="#FFFFFF" d="M-107.082-22.381v368h1031v-368H-107.082z M764.937,75.141h5.938v3.275h0.072
		c0.9-2.412,2.987-3.635,5.615-3.635c0.468,0,0.972,0.035,1.44,0.144v5.579c-0.828-0.252-1.513-0.359-2.34-0.359
		c-3.023,0-4.607,2.088-4.607,4.427v9.251h-6.119V75.141z M767.581,127.616c0.899-2.411,2.987-3.636,5.615-3.636
		c0.468,0,0.972,0.036,1.439,0.145v5.579c-0.828-0.252-1.512-0.36-2.34-0.36c-3.023,0-4.607,2.088-4.607,4.428v9.251h-6.119v-18.682
		h5.939v3.275H767.581z M773.666,136.327h6.695v6.695h-6.695V136.327z M726.992,75.141h3.096v-5.651h6.119v5.651h3.78V79.1h-3.78
		v8.496c0,1.475,0.865,1.799,2.196,1.799c0.54,0,1.044-0.072,1.584-0.072v4.5c-1.116,0.036-2.231,0.18-3.348,0.18
		c-5.22,0-6.552-1.547-6.552-6.587V79.1h-3.096V75.141z M668.71,75.141h5.831v2.16h0.072c1.224-1.801,2.951-2.7,5.147-2.7
		c5.867,0,8.351,5.003,8.351,10.295c0,4.859-2.592,9.467-7.883,9.467c-2.268,0-4.067-0.864-5.327-2.556h-0.072v8.279h-6.119V75.141z
		 M646.03,75.141h5.831v2.16h0.072c1.224-1.801,2.951-2.7,5.147-2.7c5.867,0,8.351,5.003,8.351,10.295
		c0,4.859-2.592,9.467-7.883,9.467c-2.268,0-4.067-0.864-5.327-2.556h-0.072v8.279h-6.119V75.141z M623.314,75.141h6.119v10.834
		c0,2.484,1.044,3.348,3.023,3.348c1.297,0,3.348-0.863,3.348-4.175V75.141h6.119v18.682h-5.939v-2.556h-0.071
		c-1.151,1.907-3.528,3.096-5.688,3.096c-5.363,0-6.911-3.096-6.911-7.991V75.141z M634.924,122.001v-4.679h6.119v4.679H634.924z
		 M641.043,124.341v18.682h-6.119v-18.682H641.043z M611.254,86.443c-3.852-0.973-8.676-1.08-8.676-6.119
		c0-4.464,4.859-5.724,8.531-5.724c4.067,0,8.423,1.188,8.604,6.048h-5.652c0-0.756-0.252-1.297-0.791-1.62
		c-0.469-0.324-1.116-0.468-1.943-0.468c-1.009,0-2.629,0.107-2.629,1.403c0,1.728,4.104,2.124,6.912,2.7
		c3.743,0.756,4.751,3.491,4.751,5.039c0,5.004-4.751,6.659-8.963,6.659c-4.464,0-8.963-1.476-9.144-6.695h5.832
		c0,0.972,0.396,1.62,1.008,2.088c0.576,0.432,1.404,0.647,2.268,0.647c1.152,0,2.88-0.539,2.88-1.979
		C614.241,86.947,612.297,86.73,611.254,86.443z M547.319,68.121h6.119v9.575h0.072c0.972-1.907,3.456-3.096,5.687-3.096
		c6.228,0,6.732,4.536,6.732,7.235v11.986h-6.12v-9.035v-1.871c0-1.801-0.612-3.275-3.06-3.275c-2.304,0-3.312,1.979-3.312,3.995
		v10.187h-6.119V68.121z M531.588,75.141h3.096v-5.651h6.119v5.651h3.779V79.1h-3.779v8.496c0,1.475,0.864,1.799,2.195,1.799
		c0.541,0,1.045-0.072,1.584-0.072v4.5c-1.115,0.036-2.231,0.18-3.348,0.18c-5.219,0-6.551-1.547-6.551-6.587V79.1h-3.096V75.141z
		 M524.296,135.176h-13.714c0.107,2.592,1.584,4.247,4.176,4.247c1.475,0,2.915-0.647,3.49-2.052h5.725
		c-1.152,4.319-5.112,6.191-9.287,6.191c-6.084,0-10.223-3.672-10.223-9.936c0-5.723,4.57-9.826,10.078-9.826
		C521.236,123.801,524.584,128.84,524.296,135.176z M522.857,182.899c0,5.615-4.068,9.862-9.863,9.862s-9.826-4.247-9.826-9.862
		s4.031-9.899,9.826-9.899S522.857,177.284,522.857,182.899z M509.159,74.601c6.695,0,10.043,5.04,9.755,11.374h-13.715
		c0.108,2.592,1.584,4.248,4.176,4.248c1.477,0,2.916-0.648,3.492-2.052h5.723c-1.151,4.319-5.111,6.191-9.287,6.191
		c-6.082,0-10.223-3.672-10.223-9.935C499.08,78.704,503.652,74.601,509.159,74.601z M488.874,126.393
		c1.26-1.729,3.023-2.592,5.327-2.592c5.291,0,7.883,4.607,7.883,9.467c0,5.291-2.483,10.295-8.351,10.295
		c-2.196,0-3.924-0.9-5.147-2.699h-0.072v2.159h-5.831v-25.7h6.119v9.07H488.874z M484.86,75.141l3.419,12.347h0.072l3.456-12.347
		h6.228l-6.264,18.682h-7.055l-6.228-18.682H484.86z M470.209,68.121h6.119v4.68h-6.119V68.121z M470.209,75.141h6.119v18.682
		h-6.119V75.141z M474.402,187.795c0.541,0,1.045-0.072,1.584-0.072v4.5c-1.115,0.035-2.231,0.18-3.348,0.18
		c-5.219,0-6.551-1.548-6.551-6.588V177.5h-3.096v-3.959h3.096v-5.652h6.119v5.652h3.779v3.959h-3.779v8.495
		C472.207,187.471,473.071,187.795,474.402,187.795z M468.281,135.176h-13.715c0.108,2.592,1.584,4.247,4.176,4.247
		c1.477,0,2.916-0.647,3.492-2.052h5.723c-1.151,4.319-5.111,6.191-9.287,6.191c-6.082,0-10.223-3.672-10.223-9.936
		c0-5.723,4.572-9.826,10.079-9.826C465.222,123.801,468.569,128.84,468.281,135.176z M455.125,74.601
		c2.268,0,3.924,0.972,5.003,2.88h0.072v-2.34h5.867v16.414c0,3.023-0.576,8.818-9.323,8.818c-4.319,0-8.494-0.972-9.179-5.975h6.12
		c0.143,0.791,0.504,1.332,1.043,1.619c0.504,0.252,1.26,0.396,2.232,0.396c2.915,0,3.203-2.052,3.203-4.355v-1.764h-0.072
		c-1.115,1.728-2.951,2.735-4.967,2.735c-5.652,0-8.207-4.031-8.207-9.286C446.918,78.776,449.834,74.601,455.125,74.601z
		 M423.59,74.601c5.795,0,9.862,4.284,9.862,9.899s-4.067,9.862-9.862,9.862c-5.796,0-9.827-4.247-9.827-9.862
		S417.794,74.601,423.59,74.601z M419.793,124.017v-6.694h5.723v5.975c-0.036,3.6-1.8,6.299-5.723,6.983v-2.88
		c1.583-0.288,2.699-1.691,2.591-3.384H419.793z M398.931,75.141h3.096v-5.651h6.119v5.651h3.78V79.1h-3.78v8.496
		c0,1.475,0.864,1.799,2.196,1.799c0.539,0,1.043-0.072,1.584-0.072v4.5c-1.116,0.036-2.232,0.18-3.348,0.18
		c-5.22,0-6.552-1.547-6.552-6.587V79.1h-3.096V75.141z M404.204,124.341l3.528,12.167h0.071l3.528-12.167h6.263l-7.38,20.337
		c-1.439,4.104-3.707,4.607-7.811,4.607h-2.879v-4.967h2.123c1.404,0,2.447-0.792,2.447-2.088c0-1.008-1.188-3.887-1.547-4.896
		l-4.824-12.994H404.204z M377.223,86.443c-3.852-0.973-8.676-1.08-8.676-6.119c0-4.464,4.859-5.724,8.531-5.724
		c4.067,0,8.423,1.188,8.604,6.048h-5.652c0-0.756-0.252-1.297-0.791-1.62c-0.469-0.324-1.116-0.468-1.943-0.468
		c-1.009,0-2.629,0.107-2.629,1.403c0,1.728,4.104,2.124,6.912,2.7c3.743,0.756,4.751,3.491,4.751,5.039
		c0,5.004-4.751,6.659-8.963,6.659c-4.464,0-8.963-1.476-9.144-6.695h5.832c0,0.972,0.396,1.62,1.008,2.088
		c0.576,0.432,1.404,0.647,2.268,0.647c1.152,0,2.88-0.539,2.88-1.979C380.21,86.947,378.266,86.73,377.223,86.443z M358.863,68.121
		h6.119v4.68h-6.119V68.121z M358.863,75.141h6.119v18.682h-6.119V75.141z M355.354,117.322h6.119v9.574h0.072
		c0.972-1.908,3.455-3.096,5.688-3.096c6.227,0,6.73,4.535,6.73,7.235v11.986h-6.119v-9.034v-1.873c0-1.799-0.611-3.275-3.06-3.275
		c-2.304,0-3.312,1.98-3.312,3.996v10.187h-6.119V117.322z M374.974,166.521v25.701h-6.695v-25.701H374.974z M321.46,75.141
		l3.131,12.094h0.072l2.664-12.094h5.831l2.736,12.059h0.072l3.06-12.059h6.228l-5.832,18.682h-6.191l-2.952-12.418h-0.072
		l-2.916,12.418H321.1l-5.831-18.682H321.46z M314.278,124.341h3.096v-5.651h6.119v5.651h3.78v3.96h-3.78v8.494
		c0,1.477,0.864,1.801,2.196,1.801c0.54,0,1.044-0.072,1.584-0.072v4.499c-1.116,0.036-2.232,0.181-3.348,0.181
		c-5.219,0-6.551-1.549-6.551-6.588v-8.314h-3.096V124.341z M304.251,74.601c5.795,0,9.863,4.284,9.863,9.899
		s-4.067,9.862-9.863,9.862s-9.827-4.247-9.827-9.862S298.456,74.601,304.251,74.601z M303.189,127.76
		c-1.764,0-2.771,0.793-3.06,2.34h-5.723c0.108-2.447,1.224-4.031,2.916-5.003s3.78-1.296,5.939-1.296
		c4.427,0,8.711,0.973,8.711,6.264v8.17c0,1.584,0,3.313,0.72,4.788h-6.155c-0.252-0.576-0.252-1.151-0.36-1.764
		c-1.584,1.692-3.888,2.304-6.155,2.304c-3.6,0-6.371-1.8-6.371-5.651c0-6.048,6.623-5.615,10.871-6.479
		c1.044-0.252,1.62-0.576,1.62-1.728C306.141,128.301,304.449,127.76,303.189,127.76z M272.645,75.141h5.939v2.556h0.072
		c1.152-1.907,3.636-3.096,5.867-3.096c6.228,0,6.731,4.536,6.731,7.235v11.986h-6.12v-9.035v-1.871c0-1.801-0.612-3.275-3.06-3.275
		c-2.304,0-3.312,1.979-3.312,3.995v10.187h-6.119V75.141z M271.979,117.322h6.119v9.574h0.072c0.972-1.908,3.456-3.096,5.687-3.096
		c6.228,0,6.731,4.535,6.731,7.235v11.986h-6.12v-9.034v-1.873c0-1.799-0.612-3.275-3.06-3.275c-2.304,0-3.312,1.98-3.312,3.996
		v10.187h-6.119V117.322z M245.574,75.141h3.096v-5.651h6.119v5.651h3.78V79.1h-3.78v8.496c0,1.475,0.864,1.799,2.196,1.799
		c0.54,0,1.044-0.072,1.584-0.072v4.5c-1.116,0.036-2.232,0.18-3.348,0.18c-5.219,0-6.551-1.547-6.551-6.587V79.1h-3.096V75.141z
		 M224.622,68.121h6.119v9.575h0.072c0.972-1.907,3.456-3.096,5.687-3.096c6.227,0,6.731,4.536,6.731,7.235v11.986h-6.12v-9.035
		v-1.871c0-1.801-0.612-3.275-3.06-3.275c-2.304,0-3.312,1.979-3.312,3.995v10.187h-6.119V68.121z M209.753,74.601
		c2.268,0,3.924,0.972,5.003,2.88h0.072v-2.34h5.867v16.414c0,3.023-0.576,8.818-9.323,8.818c-4.32,0-8.495-0.972-9.179-5.975h6.12
		c0.144,0.791,0.504,1.332,1.043,1.619c0.504,0.252,1.26,0.396,2.232,0.396c2.916,0,3.204-2.052,3.204-4.355v-1.764h-0.072
		c-1.116,1.728-2.951,2.735-4.967,2.735c-5.651,0-8.207-4.031-8.207-9.286C201.546,78.776,204.462,74.601,209.753,74.601z
		 M192.187,68.121h6.119v4.68h-6.119V68.121z M192.187,75.141h6.119v18.682h-6.119V75.141z M176.851,75.141h5.939v3.275h0.072
		c0.9-2.412,2.988-3.635,5.615-3.635c0.468,0,0.972,0.035,1.44,0.144v5.579c-0.828-0.252-1.512-0.359-2.34-0.359
		c-3.023,0-4.607,2.088-4.607,4.427v9.251h-6.119V75.141z M174.204,123.801c4.68,0,8.747,2.484,9.215,7.379h-5.939
		c0-1.584-1.44-2.699-2.988-2.699c-3.419,0-3.959,2.916-3.959,5.508c0,2.411,1.044,4.895,3.636,4.895
		c2.16,0,3.204-1.188,3.492-3.203h5.939c-0.576,5.039-4.392,7.883-9.395,7.883c-5.615,0-9.791-3.815-9.791-9.574
		C164.414,128.049,168.193,123.801,174.204,123.801z M153.198,86.443c-3.852-0.973-8.675-1.08-8.675-6.119
		c0-4.464,4.859-5.724,8.531-5.724c4.067,0,8.423,1.188,8.603,6.048h-5.651c0-0.756-0.252-1.297-0.792-1.62
		c-0.468-0.324-1.116-0.468-1.943-0.468c-1.008,0-2.628,0.107-2.628,1.403c0,1.728,4.104,2.124,6.911,2.7
		c3.744,0.756,4.751,3.491,4.751,5.039c0,5.004-4.751,6.659-8.963,6.659c-4.463,0-8.963-1.476-9.143-6.695h5.832
		c0,0.972,0.396,1.62,1.008,2.088c0.576,0.432,1.404,0.647,2.268,0.647c1.152,0,2.88-0.539,2.88-1.979
		C156.186,86.947,154.242,86.73,153.198,86.443z M141.373,139.423c1.476,0,2.916-0.647,3.491-2.052h5.724
		c-1.152,4.319-5.111,6.191-9.287,6.191c-6.083,0-10.223-3.672-10.223-9.936c0-5.723,4.571-9.826,10.079-9.826
		c6.695,0,10.043,5.039,9.755,11.375h-13.714C137.305,137.768,138.781,139.423,141.373,139.423z M122.563,75.141h6.119v10.834
		c0,2.484,1.044,3.348,3.024,3.348c1.296,0,3.348-0.863,3.348-4.175V75.141h6.119v18.682h-5.939v-2.556h-0.072
		c-1.152,1.907-3.528,3.096-5.688,3.096c-5.363,0-6.911-3.096-6.911-7.991V75.141z M110.143,74.601c4.68,0,8.747,2.483,9.215,7.38
		h-5.939c0-1.584-1.44-2.7-2.988-2.7c-3.419,0-3.959,2.915-3.959,5.507c0,2.412,1.044,4.896,3.636,4.896
		c2.16,0,3.204-1.188,3.492-3.204h5.939c-0.576,5.04-4.392,7.884-9.395,7.884c-5.615,0-9.791-3.815-9.791-9.575
		C100.352,78.848,104.131,74.601,110.143,74.601z M88.183,74.601c5.795,0,9.863,4.284,9.863,9.899s-4.067,9.862-9.863,9.862
		s-9.827-4.247-9.827-9.862S82.388,74.601,88.183,74.601z M64.317,75.141h2.952c0-5.363,1.872-7.02,7.091-7.02
		c0.972,0,1.98,0.072,2.952,0.108v4.319c-0.576-0.072-1.116-0.107-1.656-0.107c-1.404,0-2.268,0.18-2.268,1.871v0.828h3.671V79.1
		h-3.671v14.723h-6.119V79.1h-2.952V75.141z M57.206,131.036v11.986h-6.12v-9.034v-1.873c0-1.799-0.612-3.275-3.06-3.275
		c-2.304,0-3.312,1.98-3.312,3.996v10.187h-6.119v-18.682h5.939v2.556h0.072c1.152-1.908,3.636-3.096,5.867-3.096
		C56.702,123.801,57.206,128.336,57.206,131.036z M39.441,75.141l3.528,12.166h0.072l3.528-12.166h6.263l-7.379,20.338
		c-1.439,4.104-3.708,4.607-7.811,4.607h-2.879v-4.968h2.124c1.404,0,2.448-0.792,2.448-2.088c0-1.008-1.188-3.888-1.548-4.896
		l-4.823-12.994H39.441z M25.779,127.76c-1.764,0-2.771,0.793-3.06,2.34h-5.723c0.108-2.447,1.224-4.031,2.916-5.003
		s3.78-1.296,5.939-1.296c4.427,0,8.711,0.973,8.711,6.264v8.17c0,1.584,0,3.313,0.72,4.788h-6.155
		c-0.252-0.576-0.252-1.151-0.36-1.764c-1.584,1.692-3.888,2.304-6.155,2.304c-3.6,0-6.371-1.8-6.371-5.651
		c0-6.048,6.623-5.615,10.871-6.479c1.044-0.252,1.62-0.576,1.62-1.728C28.731,128.301,27.039,127.76,25.779,127.76z M2.218,68.121
		h9.863l4.427,17.135h0.072l4.427-17.135h9.863v25.701h-6.299v-19.51h-0.072L19.1,93.822h-5.111l-5.399-19.51H8.517v19.51H2.218
		V68.121z M34.093,192.223h-6.695l-3.528-17.711h-0.072l-3.527,17.711h-6.803l-6.947-25.701h6.695l3.635,18.789h0.072l3.779-18.789
		h6.299l3.779,18.789h0.072l3.635-18.789h6.695L34.093,192.223z M61.85,192.223h-6.12v-9.035v-1.872c0-1.8-0.612-3.275-3.06-3.275
		c-2.304,0-3.312,1.979-3.312,3.995v10.188H43.24v-25.701h6.119v9.574h0.072c0.972-1.907,3.456-3.096,5.687-3.096
		c6.227,0,6.731,4.536,6.731,7.236V192.223z M60.376,133.268c0-4.859,2.592-9.467,7.883-9.467c2.268,0,4.068,0.863,5.328,2.556
		h0.072v-9.034h6.119v25.7h-5.831v-2.159h-0.072c-1.224,1.799-2.952,2.699-5.147,2.699C62.86,143.563,60.376,138.559,60.376,133.268
		z M77.798,192.223c-0.252-0.576-0.252-1.152-0.36-1.764c-1.584,1.691-3.888,2.303-6.155,2.303c-3.6,0-6.371-1.799-6.371-5.65
		c0-6.048,6.623-5.615,10.871-6.479c1.044-0.252,1.62-0.576,1.62-1.728c0-1.404-1.692-1.944-2.952-1.944
		c-1.764,0-2.771,0.792-3.06,2.34h-5.723c0.108-2.448,1.224-4.032,2.916-5.003c1.692-0.973,3.78-1.297,5.939-1.297
		c4.427,0,8.711,0.973,8.711,6.264v8.171c0,1.584,0,3.312,0.72,4.788H77.798z M98.534,177.5h-3.78v8.495
		c0,1.476,0.864,1.8,2.196,1.8c0.54,0,1.044-0.072,1.584-0.072v4.5c-1.116,0.035-2.232,0.18-3.348,0.18
		c-5.219,0-6.551-1.548-6.551-6.588V177.5H85.54v-3.959h3.096v-5.652h6.119v5.652h3.78V177.5z M106.562,128.301h-3.78v8.494
		c0,1.477,0.864,1.801,2.196,1.801c0.54,0,1.044-0.072,1.584-0.072v4.499c-1.116,0.036-2.232,0.181-3.348,0.181
		c-5.219,0-6.551-1.549-6.551-6.588v-8.314h-3.096v-3.96h3.096v-5.651h6.119v5.651h3.78V128.301z M109.299,117.322h6.119v9.574
		h0.072c0.972-1.908,3.456-3.096,5.687-3.096c6.227,0,6.731,4.535,6.731,7.235v11.986h-6.12v-9.034v-1.873
		c0-1.799-0.612-3.275-3.06-3.275c-2.304,0-3.312,1.98-3.312,3.996v10.187h-6.119V117.322z M123.877,177.5h-3.78v8.495
		c0,1.476,0.864,1.8,2.196,1.8c0.54,0,1.044-0.072,1.584-0.072v4.5c-1.116,0.035-2.232,0.18-3.348,0.18
		c-5.219,0-6.551-1.548-6.551-6.588V177.5h-3.096v-3.959h3.096v-5.652h6.119v5.652h3.78V177.5z M145.224,192.223h-6.12v-9.035
		v-1.872c0-1.8-0.612-3.275-3.06-3.275c-2.304,0-3.312,1.979-3.312,3.995v10.188h-6.119v-25.701h6.119v9.574h0.072
		c0.972-1.907,3.456-3.096,5.687-3.096c6.227,0,6.731,4.536,6.731,7.236V192.223z M168.228,184.375h-13.714
		c0.108,2.592,1.584,4.248,4.176,4.248c1.476,0,2.916-0.648,3.491-2.053h5.724c-1.152,4.32-5.112,6.191-9.287,6.191
		c-6.083,0-10.223-3.672-10.223-9.935c0-5.724,4.571-9.827,10.079-9.827C165.168,173,168.516,178.04,168.228,184.375z
		 M181.476,193.878c-1.439,4.104-3.708,4.607-7.811,4.607h-2.879v-4.968h2.124c1.404,0,2.448-0.791,2.448-2.088
		c0-1.008-1.188-3.887-1.548-4.895l-4.823-12.994h6.479l3.528,12.166h0.072l3.528-12.166h6.263L181.476,193.878z M192.996,143.022
		h-6.119v-18.682h6.119V143.022z M192.996,122.001h-6.119v-4.679h6.119V122.001z M198.684,136.615v-8.314h-3.096v-3.96h3.096v-5.651
		h6.119v5.651h3.78v3.96h-3.78v8.494c0,1.477,0.864,1.801,2.196,1.801c0.54,0,1.044-0.072,1.584-0.072v4.499
		c-1.116,0.036-2.232,0.181-3.348,0.181C200.016,143.203,198.684,141.654,198.684,136.615z M220.462,192.223h-5.831v-2.16h-0.072
		c-1.224,1.8-2.952,2.699-5.147,2.699c-5.867,0-8.351-5.003-8.351-10.295c0-4.859,2.592-9.467,7.883-9.467
		c2.268,0,4.068,0.864,5.328,2.557h0.072v-9.035h6.119V192.223z M213.696,149.285h-2.879v-4.967h2.124
		c1.404,0,2.448-0.792,2.448-2.088c0-1.008-1.188-3.887-1.548-4.896l-4.823-12.994h6.479l3.528,12.167h0.072l3.528-12.167h6.263
		l-7.379,20.337C220.067,148.781,217.799,149.285,213.696,149.285z M243.574,184.375H229.86c0.108,2.592,1.584,4.248,4.176,4.248
		c1.476,0,2.916-0.648,3.491-2.053h5.724c-1.152,4.32-5.112,6.191-9.287,6.191c-6.083,0-10.223-3.672-10.223-9.935
		c0-5.724,4.571-9.827,10.079-9.827C240.515,173,243.862,178.04,243.574,184.375z M254.699,192.762
		c-4.463,0-8.963-1.476-9.143-6.695h5.832c0,0.973,0.396,1.62,1.008,2.088c0.576,0.432,1.404,0.648,2.268,0.648
		c1.152,0,2.88-0.54,2.88-1.98c0-1.475-1.944-1.691-2.988-1.979c-3.852-0.973-8.675-1.08-8.675-6.12
		c0-4.464,4.859-5.724,8.531-5.724c4.067,0,8.423,1.188,8.603,6.048h-5.651c0-0.756-0.252-1.296-0.792-1.62
		c-0.468-0.324-1.116-0.468-1.943-0.468c-1.008,0-2.628,0.108-2.628,1.403c0,1.729,4.104,2.125,6.911,2.7
		c3.744,0.756,4.751,3.491,4.751,5.04C263.662,191.106,258.911,192.762,254.699,192.762z M257.901,143.022l-2.952-12.419h-0.072
		l-2.916,12.419h-6.191l-5.831-18.682h6.191l3.131,12.095h0.072l2.664-12.095h5.831l2.736,12.059h0.072l3.06-12.059h6.228
		l-5.832,18.682H257.901z M265.752,182.827c0-5.724,4.571-9.827,10.079-9.827c6.695,0,10.043,5.04,9.755,11.375h-13.714
		c0.108,2.592,1.584,4.248,4.176,4.248c1.476,0,2.916-0.648,3.491-2.053h5.724c-1.152,4.32-5.112,6.191-9.287,6.191
		C269.892,192.762,265.752,189.09,265.752,182.827z M295.558,226.7h-3.78v8.495c0,1.476,0.864,1.8,2.196,1.8
		c0.54,0,1.044-0.072,1.584-0.072v4.499c-1.116,0.037-2.232,0.181-3.348,0.181c-5.219,0-6.551-1.548-6.551-6.587V226.7h-3.096v-3.96
		h3.096v-5.65h6.119v5.65h3.78V226.7z M294.983,182.971v9.252h-6.119v-18.682h5.939v3.275h0.072c0.9-2.412,2.988-3.636,5.615-3.636
		c0.468,0,0.972,0.036,1.44,0.144v0.217h6.265l3.419,12.346h0.072l3.456-12.346h6.227l-6.263,18.682h-7.055l-6.121-18.363v5.045
		c-0.828-0.252-1.512-0.36-2.34-0.36C296.567,178.544,294.983,180.632,294.983,182.971z M316.905,241.422h-6.12v-9.034v-1.872
		c0-1.8-0.612-3.275-3.06-3.275c-2.304,0-3.312,1.979-3.312,3.996v10.186h-6.119v-25.7h6.119v9.575h0.072
		c0.972-1.908,3.456-3.096,5.687-3.096c6.227,0,6.731,4.535,6.731,7.234V241.422z M339.908,233.575h-13.714
		c0.108,2.592,1.584,4.247,4.176,4.247c1.476,0,2.916-0.647,3.491-2.051h5.724c-1.152,4.318-5.112,6.191-9.287,6.191
		c-6.083,0-10.223-3.672-10.223-9.936c0-5.723,4.571-9.826,10.079-9.826C336.849,222.201,340.196,227.24,339.908,233.575z
		 M342.249,184.375h-13.714c0.108,2.592,1.584,4.248,4.176,4.248c1.476,0,2.916-0.648,3.491-2.053h5.724
		c-1.152,4.32-5.112,6.191-9.287,6.191c-6.083,0-10.223-3.672-10.223-9.935c0-5.724,4.571-9.827,10.079-9.827
		C339.189,173,342.537,178.04,342.249,184.375z M352.294,192.223h-6.695v-6.695h6.695V192.223z M352.616,128.301h-3.78v8.494
		c0,1.477,0.864,1.801,2.196,1.801c0.54,0,1.044-0.072,1.584-0.072v4.499c-1.116,0.036-2.232,0.181-3.348,0.181
		c-5.219,0-6.551-1.549-6.551-6.588v-8.314h-3.096v-3.96h3.096v-5.651h6.119v5.651h3.78V128.301z M383.25,241.422h-6.299v-19.51
		h-0.072l-5.399,19.51h-5.111l-5.399-19.51h-0.072v19.51h-6.299v-25.7h9.863l4.427,17.134h0.072l4.427-17.134h9.863V241.422z
		 M377.133,133.627c0-5.723,4.572-9.826,10.079-9.826c6.695,0,10.043,5.039,9.755,11.375h-13.715
		c0.108,2.592,1.584,4.247,4.176,4.247c1.477,0,2.916-0.647,3.492-2.052h5.723c-1.151,4.319-5.111,6.191-9.287,6.191
		C381.273,143.563,377.133,139.891,377.133,133.627z M406.579,241.422h-18.682v-25.7h6.695v19.941h11.986V241.422z M403.664,179.804
		h-0.072l-2.916,12.419h-6.191l-5.831-18.682h6.191l3.132,12.094h0.072l2.663-12.094h5.831l2.736,12.059h0.071l3.06-12.059h6.228
		l-5.831,18.682h-6.191L403.664,179.804z M419.576,241.963c-5.867,0-11.158-2.592-11.158-9.18h6.694
		c0.144,3.023,1.979,3.996,4.859,3.996c2.016,0,4.104-0.721,4.104-2.628c0-2.304-3.671-2.7-7.379-3.743
		c-3.636-1.045-7.522-2.664-7.522-7.416c0-5.615,5.65-7.811,10.475-7.811c5.074,0,10.294,2.52,10.294,8.279h-6.694
		c0.107-2.305-2.125-3.096-4.141-3.096c-1.439,0-3.239,0.504-3.239,2.195c0,2.016,3.708,2.34,7.451,3.384
		c3.708,1.044,7.451,2.771,7.451,7.415C430.771,239.875,425.227,241.963,419.576,241.963z M432.571,192.223
		c-0.252-0.576-0.252-1.152-0.36-1.764c-1.584,1.691-3.887,2.303-6.154,2.303c-3.6,0-6.371-1.799-6.371-5.65
		c0-6.048,6.623-5.615,10.87-6.479c1.044-0.252,1.62-0.576,1.62-1.728c0-1.404-1.692-1.944-2.952-1.944
		c-1.764,0-2.771,0.792-3.06,2.34h-5.723c0.107-2.448,1.223-4.032,2.915-5.003c1.692-0.973,3.78-1.297,5.939-1.297
		c4.427,0,8.711,0.973,8.711,6.264v8.171c0,1.584,0,3.312,0.72,4.788H432.571z M434.083,143.022l-6.228-18.682h6.371l3.42,12.347
		h0.072l3.455-12.347h6.228l-6.263,18.682H434.083z M442.041,173.541h5.939v2.555h0.071c1.151-1.907,3.636-3.096,5.867-3.096
		c6.228,0,6.731,4.536,6.731,7.236v11.986h-6.119v-9.035v-1.872c0-1.8-0.612-3.275-3.061-3.275c-2.303,0-3.311,1.979-3.311,3.995
		v10.188h-6.119V173.541z M457.123,236.203c3.167,0,4.932-1.764,5.184-4.752h6.694c-0.396,6.66-5.22,10.512-11.734,10.512
		c-7.812,0-12.814-5.939-12.814-13.391s5.003-13.391,12.814-13.391c5.579,0,11.555,3.527,11.734,9.719h-6.694
		c-0.396-2.592-2.34-3.959-5.184-3.959c-4.32,0-5.976,3.779-5.976,7.631S452.803,236.203,457.123,236.203z M490.89,241.422h-5.939
		v-2.555h-0.071c-1.152,1.907-3.528,3.096-5.688,3.096c-5.363,0-6.912-3.096-6.912-7.992v-11.23h6.119v10.835
		c0,2.483,1.045,3.348,3.024,3.348c1.296,0,3.348-0.864,3.348-4.175V222.74h6.119V241.422z M491.432,185.814V177.5h-3.096v-3.959
		h3.096v-5.652h6.119v5.652h3.779v3.959h-3.779v8.495c0,1.476,0.863,1.8,2.195,1.8c0.54,0,1.044-0.072,1.584-0.072v4.5
		c-1.115,0.035-2.232,0.18-3.348,0.18C492.764,192.402,491.432,190.854,491.432,185.814z M506.514,241.963
		c-2.268,0-4.066-0.864-5.326-2.557h-0.072v8.279h-6.119V222.74h5.83v2.16h0.072c1.225-1.8,2.952-2.699,5.148-2.699
		c5.867,0,8.35,5.003,8.35,10.295C514.396,237.355,511.806,241.963,506.514,241.963z M524.658,241.422h-6.695v-6.695h6.695V241.422z
		 M526.458,133.627c0-5.723,4.571-9.826,10.079-9.826c6.695,0,10.043,5.039,9.754,11.375h-13.714
		c0.108,2.592,1.584,4.247,4.176,4.247c1.476,0,2.915-0.647,3.491-2.052h5.724c-1.151,4.319-5.111,6.191-9.287,6.191
		C530.598,143.563,526.458,139.891,526.458,133.627z M556.012,192.223h-6.119v-9.035v-1.872c0-1.8-0.611-3.275-3.06-3.275
		c-2.304,0-3.312,1.979-3.312,3.995v10.188h-6.119v-25.701h6.119v9.574h0.072c0.972-1.907,3.455-3.096,5.688-3.096
		c6.227,0,6.73,4.536,6.73,7.236V192.223z M555.473,132.836v10.187h-6.119v-18.682h5.939v2.556h0.072
		c1.151-1.908,3.635-3.096,5.867-3.096c6.227,0,6.73,4.535,6.73,7.235v11.986h-6.119v-9.034v-1.873c0-1.799-0.611-3.275-3.06-3.275
		C556.48,128.84,555.473,130.82,555.473,132.836z M579.016,184.375h-13.715c0.108,2.592,1.584,4.248,4.176,4.248
		c1.477,0,2.916-0.648,3.492-2.053h5.723c-1.151,4.32-5.111,6.191-9.287,6.191c-6.082,0-10.223-3.672-10.223-9.935
		c0-5.724,4.572-9.827,10.079-9.827C575.956,173,579.304,178.04,579.016,184.375z M569.1,84.428c0-5.724,4.57-9.827,10.078-9.827
		c6.695,0,10.043,5.04,9.755,11.374h-13.714c0.107,2.592,1.584,4.248,4.176,4.248c1.475,0,2.915-0.648,3.49-2.052h5.725
		c-1.152,4.319-5.112,6.191-9.287,6.191C573.238,94.362,569.1,90.69,569.1,84.428z M587.513,124.341l3.132,12.095h0.072
		l2.663-12.095h5.831l2.736,12.059h0.071l3.06-12.059h6.228l-5.831,18.682h-6.191l-2.951-12.419h-0.072l-2.916,12.419h-6.191
		l-5.831-18.682H587.513z M588.412,192.223h-6.119v-25.701h6.119V192.223z M604.252,192.762c-2.268,0-4.067-0.863-5.327-2.555
		h-0.072v8.278h-6.119v-24.944h5.831v2.159h0.072c1.224-1.8,2.951-2.7,5.147-2.7c5.867,0,8.351,5.004,8.351,10.295
		C612.135,188.154,609.543,192.762,604.252,192.762z M612.354,137.911c0-6.048,6.623-5.615,10.87-6.479
		c1.044-0.252,1.62-0.576,1.62-1.728c0-1.403-1.692-1.944-2.952-1.944c-1.764,0-2.771,0.793-3.06,2.34h-5.723
		c0.107-2.447,1.223-4.031,2.915-5.003s3.78-1.296,5.939-1.296c4.427,0,8.711,0.973,8.711,6.264v8.17c0,1.584,0,3.313,0.72,4.788
		h-6.155c-0.252-0.576-0.252-1.151-0.36-1.764c-1.584,1.692-3.887,2.304-6.154,2.304
		C615.125,143.563,612.354,141.763,612.354,137.911z M648.854,192.223h-6.191l-2.951-12.419h-0.072l-2.916,12.419h-6.191
		l-5.83-18.682h6.191l3.131,12.094h0.072l2.664-12.094h5.83l2.736,12.059h0.072l3.059-12.059h6.229L648.854,192.223z
		 M656.631,128.301h-3.78v8.494c0,1.477,0.864,1.801,2.196,1.801c0.539,0,1.043-0.072,1.584-0.072v4.499
		c-1.116,0.036-2.232,0.181-3.348,0.181c-5.22,0-6.552-1.549-6.552-6.588v-8.314h-3.096v-3.96h3.096v-5.651h6.119v5.651h3.78
		V128.301z M663.075,192.223h-6.119v-18.682h6.119V192.223z M663.075,171.201h-6.119v-4.68h6.119V171.201z M665.703,143.022h-6.119
		v-18.682h6.119V143.022z M665.703,122.001h-6.119v-4.679h6.119V122.001z M686.006,192.223h-6.119v-9.035v-1.872
		c0-1.8-0.612-3.275-3.061-3.275c-2.303,0-3.311,1.979-3.311,3.995v10.188h-6.119v-18.682h5.939v2.555h0.071
		c1.151-1.907,3.636-3.096,5.867-3.096c6.228,0,6.731,4.536,6.731,7.236V192.223z M688.633,143.022h-6.119v-9.034v-1.873
		c0-1.799-0.611-3.275-3.06-3.275c-2.304,0-3.312,1.98-3.312,3.996v10.187h-6.119v-18.682h5.939v2.556h0.072
		c1.151-1.908,3.635-3.096,5.867-3.096c6.227,0,6.73,4.535,6.73,7.235V143.022z M700.316,74.601c5.795,0,9.862,4.284,9.862,9.899
		s-4.067,9.862-9.862,9.862c-5.796,0-9.827-4.247-9.827-9.862S694.521,74.601,700.316,74.601z M692.271,143.599h6.12
		c0.143,0.792,0.504,1.331,1.043,1.62c0.504,0.252,1.26,0.396,2.232,0.396c2.915,0,3.203-2.052,3.203-4.355v-1.764h-0.072
		c-1.115,1.728-2.951,2.735-4.967,2.735c-5.652,0-8.207-4.031-8.207-9.287c0-4.967,2.916-9.143,8.207-9.143
		c2.268,0,3.924,0.973,5.003,2.88h0.072v-2.34h5.867v16.414c0,3.023-0.576,8.819-9.323,8.819
		C697.13,149.574,692.955,148.602,692.271,143.599z M712.682,177.5h-3.779v8.495c0,1.476,0.863,1.8,2.195,1.8
		c0.54,0,1.044-0.072,1.584-0.072v4.5c-1.115,0.035-2.232,0.18-3.348,0.18c-5.219,0-6.551-1.548-6.551-6.588V177.5h-3.096v-3.959
		h3.096v-5.652h6.119v5.652h3.779V177.5z M713.602,75.141h5.939v3.275h0.071c0.899-2.412,2.987-3.635,5.615-3.635
		c0.468,0,0.972,0.035,1.44,0.144v5.579c-0.828-0.252-1.512-0.359-2.34-0.359c-3.023,0-4.607,2.088-4.607,4.427v9.251h-6.119V75.141
		z M734.029,192.223h-6.12v-9.035v-1.872c0-1.8-0.612-3.275-3.06-3.275c-2.304,0-3.312,1.979-3.312,3.995v10.188h-6.119v-25.701
		h6.119v9.574h0.072c0.972-1.907,3.456-3.096,5.687-3.096c6.228,0,6.732,4.536,6.732,7.236V192.223z M737.16,128.301h-3.671v14.722
		h-6.119v-14.722h-2.952v-3.96h2.952c0-5.363,1.872-7.019,7.091-7.019c0.973,0,1.98,0.071,2.951,0.107v4.319
		c-0.575-0.071-1.115-0.108-1.655-0.108c-1.403,0-2.268,0.181-2.268,1.872v0.828h3.671V128.301z M757.032,184.375h-13.714
		c0.107,2.592,1.584,4.248,4.176,4.248c1.475,0,2.915-0.648,3.49-2.053h5.725c-1.152,4.32-5.112,6.191-9.287,6.191
		c-6.084,0-10.223-3.672-10.223-9.935c0-5.724,4.57-9.827,10.078-9.827C753.973,173,757.32,178.04,757.032,184.375z
		 M748.285,143.563c-5.796,0-9.827-4.248-9.827-9.863s4.031-9.898,9.827-9.898c5.795,0,9.862,4.283,9.862,9.898
		S754.08,143.563,748.285,143.563z M752.047,94.362c-6.082,0-10.223-3.672-10.223-9.935c0-5.724,4.572-9.827,10.079-9.827
		c6.695,0,10.043,5.04,9.755,11.374h-13.715c0.108,2.592,1.584,4.248,4.176,4.248c1.477,0,2.916-0.648,3.492-2.052h5.723
		C760.183,92.49,756.223,94.362,752.047,94.362z M789.322,192.223h-6.119v-10.979c0-2.016-0.972-3.204-2.556-3.204
		c-2.628,0-2.88,2.016-2.88,5.039v9.144h-6.119v-10.619c0-2.195-0.611-3.563-2.304-3.563c-2.195,0-3.131,1.296-3.131,5.075v9.107
		h-6.12v-18.682h5.939v2.555h0.072c1.116-1.871,3.06-3.096,5.363-3.096c2.34,0,4.428,0.756,5.436,3.024
		c1.476-2.017,3.275-3.024,5.831-3.024c5.939,0,6.587,4.5,6.587,8.063V192.223z M788.118,94.362c-4.463,0-8.962-1.476-9.143-6.695
		h5.831c0,0.972,0.396,1.62,1.008,2.088c0.576,0.432,1.404,0.647,2.269,0.647c1.151,0,2.879-0.539,2.879-1.979
		c0-1.476-1.943-1.692-2.987-1.979c-3.852-0.973-8.675-1.08-8.675-6.119c0-4.464,4.859-5.724,8.531-5.724
		c4.067,0,8.423,1.188,8.603,6.048h-5.651c0-0.756-0.252-1.297-0.792-1.62c-0.468-0.324-1.115-0.468-1.943-0.468
		c-1.008,0-2.628,0.107-2.628,1.403c0,1.728,4.104,2.124,6.911,2.7c3.743,0.756,4.751,3.491,4.751,5.039
		C797.081,92.707,792.33,94.362,788.118,94.362z"/>
	<path fill="#FFFFFF" d="M73.875,133.664c0-2.7-0.972-5.184-3.636-5.184c-2.771,0-3.744,2.627-3.744,5.004
		c0,2.555,0.972,5.398,3.744,5.398C73.227,138.883,73.875,136.039,73.875,133.664z"/>
	<path fill="#FFFFFF" d="M751.903,78.74c-2.159,0-3.563,1.512-3.96,3.815h7.596C755.432,80.432,753.955,78.74,751.903,78.74z"/>
	<path fill="#FFFFFF" d="M701.306,128.48c-2.7,0-3.563,2.375-3.563,4.68c0,2.195,1.043,4.391,3.527,4.391
		c2.592,0,3.707-2.051,3.707-4.355C704.977,130.784,704.006,128.48,701.306,128.48z"/>
	<path fill="#FFFFFF" d="M158.473,177.141c-2.16,0-3.563,1.512-3.959,3.814h7.595C162,178.832,160.524,177.141,158.473,177.141z"/>
	<path fill="#FFFFFF" d="M88.183,89.683c2.88,0,3.744-2.771,3.744-5.183c0-2.377-0.864-5.22-3.744-5.22
		c-2.844,0-3.708,2.843-3.708,5.22C84.476,86.911,85.339,89.683,88.183,89.683z"/>
	<path fill="#FFFFFF" d="M330.153,226.34c-2.16,0-3.563,1.512-3.959,3.816h7.595C333.681,228.032,332.205,226.34,330.153,226.34z"/>
	<path fill="#FFFFFF" d="M700.316,89.683c2.879,0,3.743-2.771,3.743-5.183c0-2.377-0.864-5.22-3.743-5.22
		c-2.844,0-3.708,2.843-3.708,5.22C696.608,86.911,697.473,89.683,700.316,89.683z"/>
	<path fill="#FFFFFF" d="M299.77,137.659c0,1.548,1.152,2.124,2.556,2.124c2.916,0,3.888-1.62,3.744-5.508
		c-0.864,0.54-2.448,0.612-3.78,1.008C300.886,135.607,299.77,136.184,299.77,137.659z"/>
</g>
</svg>
