<?xml version="1.0" encoding="utf-8"?>
<!-- Generator: Adobe Illustrator 16.0.0, SVG Export Plug-In . SVG Version: 6.00 Build 0)  -->
<!DOCTYPE svg PUBLIC "-//W3C//DTD SVG 1.1//EN" "http://www.w3.org/Graphics/SVG/1.1/DTD/svg11.dtd">
<svg version="1.1" id="Layer_1" xmlns="http://www.w3.org/2000/svg" xmlns:xlink="http://www.w3.org/1999/xlink" x="0px" y="0px"
	 width="60px" height="90px" viewBox="0 0 60 90" enable-background="new 0 0 60 90" xml:space="preserve">
<g>
	<g>
		<g>
			<g>
				<path fill-rule="evenodd" clip-rule="evenodd" d="M49.952,57.599c0.057-0.207,0.623-0.374,0.314-0.63
					C50.065,57.093,49.724,57.306,49.952,57.599z M51.144,56.277c-0.586-1.32,0.846,0.445,0.168,0.095
					C51.319,56.376,51.177,56.353,51.144,56.277z M56.412,51.559c-1.47,1.364-2.783,2.642-4.335,3.964
					c-0.151-0.157-0.305-0.375-0.082-0.188C53.471,53.877,54.511,51.996,56.412,51.559z M51.571,55.521
					c0.295,0.325,0.15,0.468-0.115,0.41C51.294,55.639,51.625,55.812,51.571,55.521z M48.007,57.783
					c0.156,0.336,0.547,0.127,0.364,0.442c0.998,0.239,0.789-0.599,1.356-0.658c-3.535,4.87-7.866,9.433-12.284,13.907
					c-4.577,4.637-9.32,10.529-16.167,13.145c-0.306-0.475,0.5-0.031,0.032-0.599c-0.728-0.026-1.307,0.189-2.058,0.312
					c-0.724,0.117-1.777-0.088-2.536-0.005c-0.824,0.092-1.327,0.48-3.01-0.603c-0.556,0.24-1.763-0.439-2.337-0.226
					c-0.924-0.789-1.429-0.923-2.441-1.516c0.008-0.176,0.351,0.14,0.142-0.158c-0.689-0.378-1.036-0.271-1.938-0.948
					c0.254,0.001,0.511,0.001,0.76,0.001c-0.73-0.607-0.888-0.087-1.543-0.82c0.237-0.111-0.004-0.352-0.445-0.915
					c8.239-1.532,12.846-6.566,18.012-10.968c3.749-3.194,6.22-6.335,9.584-10.067c2.512-2.787,4.985-5.821,7.742-8.306
					c3.623-3.266,6.068-6.699,10.925-8.458c0.622,0.4,0.958,0.398,1.573,0.79c2.793,2.49,2.397,3.628,2.479,4.573
					c0.049,0.562,0.317,1.375,0.187,1.764c-0.402,1.193-1.511,1.402-2.185,2.423c-0.657,1-1.274,1.892-2.101,2.613
					c-0.28,0.246-0.161,0.779-0.821,0.628c-0.082,1.28-1.602,1.497-2.352,2.329c-0.164,0.182,0.092,0.744-0.062,0.914
					c-0.18,0.194-0.707,0.272-0.849,0.375L48.007,57.783z"/>
			</g>
		</g>
	</g>
	<g>
		<g>
			<g>
				<path fill-rule="evenodd" clip-rule="evenodd" d="M33.085,18.486c-0.278-0.021-0.119-0.712-0.765-0.17
					c0.057,0.22,0.59,0.129,0.109,0.702C33.188,18.191,32.487,19.114,33.085,18.486z M51.801,37.798
					c0.33-0.32,0.398-0.24,0.454-0.142C51.763,38.192,51.613,38.08,51.801,37.798z M50.405,36.701
					c0.632-0.57,0.634-0.183,0.642,0.044C50.689,36.951,50.525,36.861,50.405,36.701z M35.942,22.237
					c0.916-0.931,1.003-0.294,0.735,0.138C36.22,22.654,36.375,21.995,35.942,22.237z M35.516,20.917
					c0.096,0.058,0.171,0.129,0.039,0.335C35.175,21.576,35.032,21.418,35.516,20.917z M34.688,20.685
					c0.791-0.805,0.274,0.16,0.672,0.077C34.771,21.212,34.917,20.862,34.688,20.685z M38.197,23.598
					c0.649-0.424,0.521,0.176,0.288,0.585C38.24,24.225,38.133,23.91,38.197,23.598z M37.067,22.172
					c-0.205,0.322,0.098,0.313,0.164,0.459C36.803,22.96,36.54,22.791,37.067,22.172z M31.066,16.764
					c0.873-0.633,0.847,0.096,0.803,0.506C31.189,17.746,31.085,17.054,31.066,16.764z M41.47,26.872
					c0.219-0.126,0.504-0.353,0.601-0.289l-0.445,0.445C41.426,27.035,41.462,27.071,41.47,26.872z M39.887,25.586
					c-0.128-0.002,0.019-0.184,0.024-0.273c0.268-0.252,0.392-0.284,0.422-0.172L39.887,25.586z M30.287,15.985
					c-0.172-0.077-0.239-0.221,0.016-0.577C30.446,15.38,30.801,15.377,30.287,15.985z M29.548,14.355
					c0.209-0.034-0.128,0.29,0.006,0.305C29.094,15.109,29.076,14.803,29.548,14.355z M28.16,13.561
					c0.539-0.589,0.335-0.041,0.515-0.079C28.115,13.94,28.483,13.466,28.16,13.561z M38.529,24.824
					c-0.184,0.292,0.122,0.263-0.226,0.662c0.225-0.134,0.679-0.619,0.6-0.288c-0.302,0.331-0.326,0.237-0.39,0.203
					c-0.355,0.474,0.152,0.288,0.514-0.078c0.203,0.021-0.359,0.543-0.257,0.631c0.111-0.019,0.178-0.202,0.444-0.444
					c-0.106,0.188-0.339,0.461-0.32,0.568c0.752-0.786,0.169,0.086,0.281,0.281c0.111-0.019,0.177-0.203,0.444-0.444
					c-0.144,0.388-0.015,0.28-0.195,0.693c0.042,0.094,0.54-0.511,0.774-0.711c-0.061-0.012-0.297,0.245-0.477,0.414
					c0.136-0.226,0.551-0.634,0.469-0.718c0.694-0.408,0.327,0.291,0.702,0.108c-0.653,0.657-0.336-0.169-1.227,0.853
					c0.374,0.145,1.441-0.64,0.53,0.53c0.928-0.608-0.167,0.851,0.969-0.22c-0.039,0.232-0.198,0.542-0.345,0.844
					c-0.005,0.217,0.643-0.563,0.601-0.29c-0.456,0.432,0.007,0.497-0.133,0.757c0.111-0.019,0.177-0.202,0.445-0.445
					c-0.905,1.273,1.07-0.303,0.084,0.975c0.062,0.012,0.298-0.245,0.477-0.414c-0.671,0.96,0.82-0.071-0.04,0.851
					c0.423-0.333,0.608-0.299,0.844-0.345c0.135-0.002-0.153,0.271-0.383,0.508c0.459-0.29-0.115,0.545,0.632-0.258
					c-0.997,1.264,1.021-0.218,0.022,0.913c0.833-0.592-0.09,1.067,0.975,0.084c0.186-0.019-0.247,0.368-0.352,0.539
					c0.978-0.362,0.311,1.139,1.623,0.435c-0.224,0.415-0.194,0.779,0.491,0.195c-0.293,0.496,0.224,0.155-0.196,0.695
					c0.307-0.065,0.437-0.035,0.813-0.376c0.036,0.08-0.483,0.521-0.532,0.657c0.834-0.598-0.219,1.105,1.101,0.209
					c0.135-0.002-0.152,0.271-0.384,0.507c-0.032,0.234,0.528-0.44,0.688-0.5c-0.438,0.665,0.587,0.086-0.189,1
					c0.116,0.128,0.411-0.218,0.57-0.321c-0.397,0.605,0.075,0.341,0.461,0.163c-0.554,0.723-0.203,0.657,0.436,0.437
					c-0.157,0.232-0.221,0.246-0.445,0.445c0.105,0.694,1.74-0.679,0.718,0.717c0.616-0.626,0.372-0.341,0.21-0.086
					c0.153-0.013,0.193-0.269,0.477-0.414c0.035,0.08-0.483,0.522-0.531,0.655c0.121-0.001,0.188,0.081,0.57-0.32
					c0.185-0.017-0.248,0.368-0.352,0.539c0.041,0.095,0.22-0.022,0.538-0.352c-0.129,0.188,0.068,0.162-0.352,0.539
					c0.138-0.079,0.317-0.223,0.508-0.383c0.003,0.152-0.291,0.499-0.259,0.632c0.127,0.095,0.425-0.557,0.477-0.414
					c0.169,0.085,0.017,0.125-0.383,0.508c0.133,0.098,0.295-0.138,0.655-0.531c0.127,0.038-0.104,0.309-0.499,0.687
					c0.03,0.19,0.602-0.449,0.632-0.258c-0.432,0.477-0.49,0.383-0.922,0.859c0.034-0.267-0.516-0.097-0.765-0.17
					c0.176,1.341,0.982,1.775,1.426,2.316c0.384-0.367-0.538,1.022,0.514-0.079c0.096,0.041-0.021,0.22-0.352,0.539
					c0.755,1.049,1.587,2.119,2.58,2.282c0.647,1.342,0.691,3.213,1.656,4.329c-0.503,0.433-0.338,0.333-0.891,0.891
					c0.74-0.017-0.499,1.348-0.268,1.515c-0.582,0.602-0.546,0.258-1.047,0.735c0.004,0.255,0.725,0.042-0.07,0.819
					c-0.058-0.255-0.38-0.103-0.523-0.225c-0.53,0.638-0.021,0.597-0.368,1.116c-0.768,0.776-1.144,0.881-1.125,1.25
					c-2.78-0.689-4.798-3.618-7.273-5.195c-0.689-0.439-1.49-0.702-1.465-1.465c-3.452-1.871-6.277-5.417-9.408-7.924
					c-3.617-2.896-7.202-5.662-9.834-9.243c-0.834-1.134-2.178-1.738-2.93-2.93c-3.002-4.758-7.69-7.987-9.165-14.213
					c0.865-1.526,0.471-2.23,1.128-3.622c1.288,0.766,5.821-3.027,6.588-1.725c0.567-0.315,1.109-0.448,0.974,0.085
					c0.579-0.859-0.015-0.952,0.206-1.577c1.183,0.076,1.714,0.819,2.198,1.604c2.528,4.106,4.946,7.99,8.047,10.719
					c-0.304,0.599,0.158,0.489,0.202,0.795c0.105,0.735,1.204,0.598,1.488,1.192c0.313,0.652,0.952,1.126,1.418,2.012
					c0.169-0.18,0.069-0.182,0.056-0.243c0.162,0.025,0.77-0.197,0.069,0.367c0.454,0.392,0.896,1.156,1.481,0.888
					c-0.242,0.467,0.034,1.073,0.804,0.505c0.012,0.062-0.245,0.297-0.415,0.478c0.47-0.215,0.516,0.969,1.053,0.755
					c0.014,0.34,0.741-0.085,0.678,0.382c0.104,0.026,0.661-0.644,0.805-0.681c-0.128,0.532,1.033,0.066,0.779,0.779
					c-0.459,0.405-0.214,0.121-0.273,0.024c-0.531,0.536-0.394,0.635-0.736,1.047c0.076,0.12,0.841-0.815,0.749-0.438
					c-0.777,0.556-0.091,0.576,0.343,0.343C37.777,24.889,37.718,25.621,38.529,24.824z M37.142,24.029l0.594-0.595
					c-0.41,0.031-0.454-0.036-0.617-0.318c-0.709,0.728,0.105,0.23-0.524,0.96C37.025,23.762,37.061,23.976,37.142,24.029z"/>
			</g>
		</g>
	</g>
</g>
</svg>
