<?xml version="1.0" encoding="utf-8"?>
<!-- Generator: Adobe Illustrator 16.0.0, SVG Export Plug-In . SVG Version: 6.00 Build 0)  -->
<!DOCTYPE svg PUBLIC "-//W3C//DTD SVG 1.1//EN" "http://www.w3.org/Graphics/SVG/1.1/DTD/svg11.dtd">
<svg version="1.1" id="Layer_1" xmlns="http://www.w3.org/2000/svg" xmlns:xlink="http://www.w3.org/1999/xlink" x="0px" y="0px"
	 width="90px" height="40px" viewBox="0 0 90 40" enable-background="new 0 0 90 40" xml:space="preserve">
<path fill="#FFFFFF" d="M38.299,35.969c-1.373-0.924-2.658-1.748-3.989-2.727c0.156-0.098,0.373-0.197,0.188-0.055
	C35.964,34.115,37.85,34.762,38.299,35.969z M33.896,32.852c-0.056,0.168,0.088,0.26,0.411,0.068
	C34.018,32.957,34.189,32.744,33.896,32.852z M32.221,31.906c0.208,0.035,0.378,0.395,0.633,0.195
	C32.728,31.975,32.513,31.76,32.221,31.906z M33.55,32.656c-0.076,0.021-0.097,0.111-0.094,0.107
	C33.11,33.199,34.867,32.271,33.55,32.656z M65.57,24.301c0.41,0.143,1.012,0.219,0.582-0.189
	C65.841,24.072,65.527,24.145,65.57,24.301z M67.115,23.486c0.146-0.045,0.135-0.238,0.459-0.109
	C66.951,23.047,66.783,23.217,67.115,23.486z M53.12,32.008c-0.158,0.078-0.248,0.184-0.039,0.41
	C53.308,32.41,53.694,32.404,53.12,32.008z M62.898,26.227c-0.199-0.004-0.162-0.029-0.154,0.1l0.446,0.279
	C63.254,26.543,63.025,26.365,62.898,26.227z M52.032,32.906c-0.283-0.117-0.395-0.02,0.146,0.289
	C52.273,33.16,52.354,33.113,52.032,32.906z M64.447,25.219c-0.088-0.002-0.271-0.096-0.272-0.014l0.446,0.281
	C64.733,25.465,64.701,25.387,64.447,25.219z M75.041,18.522c0.014-0.084,0.34,0.127,0.305-0.006
	C74.895,18.22,74.59,18.235,75.041,18.522z M73.721,19.002c0.611,0.32,0.607,0.096,0.577,0.004
	C73.939,18.848,73.797,18.891,73.721,19.002z M76.132,17.624c0.098,0.205-0.38-0.024,0.082,0.328
	C76.175,17.838,76.724,17.964,76.132,17.624z M85.629,12.021c-0.068,0.756-0.809,1.102-1.592,1.416
	c-4.092,1.647-7.961,3.225-10.672,5.224c-0.602-0.188-0.488,0.105-0.793,0.137c-0.736,0.072-0.593,0.771-1.186,0.958
	c-0.65,0.205-1.12,0.617-2.003,0.922c0.181,0.105,0.182,0.043,0.241,0.033c-0.022,0.104,0.203,0.488-0.364,0.047
	c-0.392,0.295-1.151,0.582-0.881,0.953c-0.468-0.15-1.071,0.029-0.5,0.516c-0.062,0.008-0.298-0.152-0.479-0.26
	c0.217,0.297-0.966,0.338-0.748,0.678c-0.342,0.012,0.088,0.471-0.38,0.436c-0.024,0.066,0.648,0.416,0.687,0.508
	c-0.532-0.076-0.061,0.658-0.774,0.504c-0.407-0.289-0.122-0.137-0.024-0.174c-0.539-0.334-0.639-0.246-1.053-0.459
	c-0.117,0.049,0.82,0.527,0.443,0.473c-0.561-0.49-0.577-0.053-0.342,0.221c-0.35-0.297-1.082-0.33-0.28,0.182
	c-0.293-0.115-0.263,0.078-0.663-0.141c0.135,0.145,0.623,0.428,0.292,0.381c-0.333-0.189-0.239-0.205-0.206-0.246
	c-0.477-0.223-0.287,0.1,0.081,0.326c-0.019,0.131-0.545-0.225-0.632-0.16c0.02,0.072,0.203,0.113,0.447,0.279
	c-0.189-0.064-0.465-0.209-0.57-0.197c0.79,0.473-0.085,0.107-0.28,0.182c0.021,0.07,0.204,0.111,0.447,0.279
	c-0.39-0.088-0.28-0.008-0.694-0.117c-0.094,0.027,0.514,0.34,0.715,0.486c0.014-0.039-0.246-0.188-0.416-0.301
	c0.228,0.086,0.639,0.346,0.721,0.291c0.412,0.439-0.288,0.213-0.104,0.449c-0.66-0.41,0.167-0.215-0.859-0.773
	c-0.144,0.238,0.648,0.912-0.526,0.342c0.612,0.588-0.853-0.1,0.226,0.617c-0.231-0.023-0.543-0.123-0.846-0.215
	c-0.217,0,0.566,0.406,0.294,0.381c-0.437-0.285-0.497,0.01-0.758-0.078c0.019,0.072,0.202,0.111,0.446,0.281
	c-1.277-0.564,0.311,0.678-0.975,0.063c-0.012,0.039,0.247,0.188,0.418,0.301c-0.965-0.42,0.074,0.52-0.853-0.02
	c0.335,0.268,0.303,0.387,0.352,0.535c0.002,0.086-0.272-0.096-0.513-0.24c0.293,0.289-0.545-0.066,0.263,0.4
	c-1.271-0.623,0.225,0.648-0.912,0.021c0.596,0.525-1.067-0.047-0.078,0.623c0.02,0.117-0.371-0.154-0.541-0.221
	c0.367,0.621-1.139,0.209-0.428,1.039c-0.416-0.139-0.779-0.117-0.191,0.314c-0.496-0.184-0.152,0.145-0.695-0.119
	c0.066,0.195,0.038,0.279,0.381,0.516c-0.08,0.023-0.523-0.305-0.66-0.334c0.604,0.525-1.104-0.129-0.203,0.703
	c0.004,0.088-0.271-0.094-0.509-0.24c-0.233-0.02,0.443,0.332,0.505,0.436c-0.668-0.273-0.082,0.373-1.002-0.111
	c-0.127,0.074,0.221,0.26,0.324,0.361c-0.607-0.25-0.34,0.049-0.16,0.293c-0.727-0.348-0.658-0.123-0.435,0.281
	c-0.232-0.098-0.248-0.139-0.447-0.277c-0.692,0.072,0.688,1.102-0.714,0.463c0.63,0.387,0.344,0.234,0.089,0.133
	c0.013,0.098,0.271,0.121,0.415,0.301c-0.078,0.023-0.523-0.303-0.657-0.332c0.003,0.078-0.079,0.121,0.323,0.359
	c0.02,0.117-0.369-0.154-0.541-0.219c-0.095,0.025,0.023,0.141,0.355,0.34c-0.189-0.08-0.162,0.045-0.541-0.221
	c0.078,0.088,0.224,0.199,0.386,0.32c-0.151,0.002-0.501-0.182-0.634-0.158c-0.094,0.082,0.56,0.266,0.416,0.299
	c-0.084,0.109-0.125,0.014-0.51-0.238c-0.099,0.086,0.139,0.188,0.534,0.414c-0.036,0.08-0.31-0.064-0.688-0.314
	c-0.19,0.021,0.451,0.381,0.261,0.4c-0.479-0.27-0.386-0.307-0.863-0.58c0.267,0.021,0.095-0.328,0.165-0.486
	c-1.341,0.123-1.77,0.641-2.308,0.93c0.368,0.24-1.024-0.334,0.082,0.326c-0.041,0.063-0.22-0.014-0.541-0.221
	c-1.046,0.492-2.11,1.031-2.269,1.664c-0.203,0.064-0.422,0.119-0.646,0.17c-0.03,0.035-0.051,0.065-0.089,0.104
	c-2.474,1.803-3.614,1.561-4.558,1.621c-0.562,0.037-1.373,0.215-1.764,0.137c-1.195-0.246-1.41-0.951-2.434-1.371
	c-1.004-0.41-1.9-0.795-2.625-1.316c-0.248-0.176-0.78-0.096-0.632-0.518c-1.281-0.039-1.506-1.006-2.343-1.477
	c-0.183-0.104-0.744,0.064-0.915-0.031c-0.194-0.113-0.275-0.449-0.38-0.537l-0.033-0.016c-0.335,0.104-0.124,0.35-0.439,0.234
	c-0.233,0.639,0.604,0.498,0.666,0.857c-4.891-2.207-9.478-4.926-13.978-7.701c-4.663-2.875-10.582-5.844-13.237-10.184
	c0.473-0.198,0.034,0.319,0.6,0.016c0.021-0.465-0.197-0.831-0.324-1.308c-0.121-0.461,0.078-1.135-0.01-1.617
	c-0.096-0.523-0.487-0.841,0.585-1.923C5.646,8.692,6.317,7.918,6.102,7.554c0.784-0.596,0.915-0.919,1.502-1.57
	C7.78,5.987,7.466,6.21,7.763,6.073C8.138,5.63,8.029,5.409,8.7,4.829c0,0.162,0.002,0.326,0.003,0.484
	c0.604-0.471,0.082-0.566,0.812-0.99c0.113,0.149,0.352-0.006,0.912-0.293c1.581,5.236,6.64,8.125,11.072,11.379
	c3.214,2.36,6.37,3.906,10.121,6.017c2.801,1.574,5.85,3.123,8.351,4.857c0.911,0.632,1.831,1.205,2.727,1.771
	c0.158-0.138,0.317-0.274,0.456-0.415c0.435-0.443,0.694-0.955,1.458-0.947c1.851-2.217,5.38-4.049,7.868-6.064
	c2.874-2.331,5.62-4.642,9.187-6.351c1.13-0.541,1.727-1.404,2.912-1.894c4.74-1.956,7.943-4.974,14.16-5.968
	c1.531,0.537,2.232,0.279,3.629,0.686c-0.758,0.828,3.061,3.682,1.764,4.184c0.316,0.357,0.453,0.701-0.079,0.621
	C84.912,12.266,85.002,11.886,85.629,12.021z M65.666,23.094c0.316,0.271,0.103,0.297,0.05,0.35l0.599,0.371
	c-0.033-0.26,0.033-0.287,0.314-0.395C65.897,22.975,66.399,23.488,65.666,23.094z M67.5,22.66c0.246,0.275-0.414,0.182-0.133,0.471
	C67.801,23.299,68.437,23.236,67.5,22.66z M72.445,20.021c0.409,0.025,1.139,0.033,0.5-0.516
	C72.656,19.52,71.965,19.592,72.445,20.021z M68.973,22.277c-0.086-0.254,0.883,0.066,0.072-0.43
	C68.869,21.994,68.52,21.906,68.973,22.277z M68.484,22.404c0.207,0.084,0.276,0.035,0.336-0.027
	C68.315,22.074,68.158,22.168,68.484,22.404z M71.402,20.318c-0.221,0.037-0.127,0.377-0.703,0.076
	c0.832,0.475-0.095,0.037,0.537,0.412C71.257,20.629,71.947,20.725,71.402,20.318z"/>
</svg>
