<?xml version="1.0" encoding="utf-8"?>
<!-- Generator: Adobe Illustrator 16.0.0, SVG Export Plug-In . SVG Version: 6.00 Build 0)  -->
<!DOCTYPE svg PUBLIC "-//W3C//DTD SVG 1.1//EN" "http://www.w3.org/Graphics/SVG/1.1/DTD/svg11.dtd">
<svg version="1.1" id="Layer_1" xmlns="http://www.w3.org/2000/svg" xmlns:xlink="http://www.w3.org/1999/xlink" x="0px" y="0px"
	 width="90px" height="40px" viewBox="-15 25 90 40" enable-background="new -15 25 90 40" xml:space="preserve">
<g>
	<g>
		<g>
			<g>
				<path d="M16.664,57.938c0.208,0.034,0.378,0.394,0.633,0.194C17.171,58.005,16.956,57.79,16.664,57.938z M17.993,58.687
					c1.317-0.385-0.44,0.543-0.094,0.108C17.896,58.798,17.917,58.708,17.993,58.687z M22.742,62
					c-1.373-0.925-2.658-1.749-3.989-2.726c0.156-0.099,0.373-0.199,0.188-0.055C20.407,60.147,22.293,60.792,22.742,62z
					 M18.751,58.951c-0.323,0.191-0.467,0.1-0.411-0.068C18.633,58.775,18.461,58.988,18.751,58.951z M16.469,56.701
					c-0.335,0.103-0.124,0.35-0.439,0.235c-0.233,0.638,0.604,0.497,0.666,0.857c-4.891-2.208-9.478-4.927-13.978-7.702
					c-4.663-2.874-10.582-5.844-13.237-10.184c0.473-0.198,0.034,0.319,0.6,0.016c0.021-0.465-0.197-0.831-0.324-1.308
					c-0.121-0.461,0.078-1.134-0.01-1.617c-0.096-0.524-0.487-0.841,0.585-1.923c-0.243-0.352,0.429-1.127,0.213-1.491
					c0.784-0.596,0.915-0.919,1.502-1.57c0.176,0.004-0.138,0.226,0.159,0.089c0.375-0.443,0.266-0.663,0.937-1.243
					c0,0.162,0.002,0.325,0.003,0.484c0.604-0.471,0.082-0.567,0.812-0.991c0.113,0.15,0.352-0.006,0.912-0.292
					c1.581,5.236,6.64,8.125,11.072,11.378c3.214,2.361,6.37,3.907,10.121,6.017c2.801,1.575,5.85,3.123,8.351,4.858
					c3.286,2.279,6.733,3.807,8.52,6.886c-0.396,0.4-0.393,0.614-0.78,1.009c-2.475,1.803-3.615,1.561-4.559,1.621
					c-0.562,0.037-1.373,0.214-1.764,0.136c-1.195-0.245-1.41-0.95-2.434-1.371c-1.004-0.409-1.9-0.794-2.625-1.315
					c-0.248-0.177-0.78-0.096-0.632-0.518c-1.281-0.04-1.506-1.007-2.343-1.478c-0.183-0.103-0.744,0.065-0.915-0.031
					c-0.194-0.112-0.275-0.448-0.38-0.537L16.469,56.701z"/>
			</g>
		</g>
	</g>
	<g>
		<g>
			<g>
				<path d="M55.679,46.838c0.021-0.178,0.711-0.083,0.166-0.489c-0.22,0.038-0.126,0.378-0.702,0.077
					C55.975,46.9,55.048,46.462,55.679,46.838z M36.476,58.938c0.321,0.207,0.241,0.253,0.145,0.288
					C36.081,58.918,36.192,58.82,36.476,58.938z M37.564,58.038c0.573,0.398,0.187,0.403-0.04,0.41
					C37.315,58.223,37.405,58.117,37.564,58.038z M51.944,48.692c0.936,0.575,0.3,0.637-0.134,0.469
					C51.529,48.873,52.189,48.966,51.944,48.692z M53.263,48.408c-0.059,0.062-0.128,0.111-0.335,0.028
					C52.602,48.198,52.759,48.105,53.263,48.408z M53.489,47.879c0.81,0.496-0.159,0.176-0.073,0.43
					C52.963,47.938,53.313,48.026,53.489,47.879z M50.596,50.143c0.429,0.408-0.172,0.332-0.583,0.188
					C49.97,50.175,50.284,50.104,50.596,50.143z M52.017,49.407c-0.323-0.127-0.313,0.066-0.458,0.11
					C51.227,49.248,51.395,49.078,52.017,49.407z M57.389,45.536c0.639,0.55-0.091,0.541-0.501,0.516
					C56.408,45.623,57.099,45.55,57.389,45.536z M47.342,52.257c0.127,0.14,0.355,0.317,0.292,0.379l-0.447-0.279
					C47.179,52.229,47.143,52.254,47.342,52.257z M48.618,51.236c0.002-0.081,0.185,0.011,0.273,0.013
					c0.253,0.169,0.286,0.247,0.174,0.268L48.618,51.236z M58.164,45.033c0.076-0.111,0.219-0.155,0.577,0.004
					C58.771,45.128,58.775,45.354,58.164,45.033z M59.789,44.547c0.035,0.132-0.291-0.079-0.305,0.006
					C59.033,44.265,59.338,44.25,59.789,44.547z M60.575,43.654c0.592,0.34,0.043,0.214,0.082,0.328
					C60.196,43.63,60.673,43.859,60.575,43.654z M49.372,50.364c-0.293-0.114-0.262,0.079-0.663-0.139
					c0.135,0.143,0.623,0.428,0.292,0.38c-0.333-0.189-0.239-0.204-0.206-0.246c-0.476-0.222-0.287,0.099,0.081,0.327
					c-0.019,0.13-0.545-0.225-0.632-0.16c0.02,0.071,0.203,0.113,0.447,0.279c-0.189-0.065-0.464-0.21-0.57-0.198
					c0.79,0.473-0.085,0.108-0.28,0.182c0.021,0.07,0.204,0.111,0.447,0.279c-0.39-0.088-0.28-0.007-0.694-0.118
					c-0.094,0.028,0.514,0.34,0.715,0.487c0.013-0.039-0.246-0.188-0.416-0.3c0.227,0.085,0.638,0.345,0.721,0.291
					c0.411,0.438-0.289,0.212-0.104,0.449c-0.66-0.411,0.167-0.216-0.86-0.774c-0.143,0.239,0.649,0.912-0.526,0.343
					c0.613,0.586-0.853-0.1,0.226,0.616c-0.232-0.023-0.543-0.122-0.846-0.214c-0.217-0.001,0.566,0.405,0.294,0.381
					c-0.436-0.286-0.497,0.009-0.758-0.078c0.019,0.071,0.202,0.111,0.446,0.28c-1.277-0.565,0.311,0.679-0.974,0.063
					c-0.012,0.039,0.247,0.187,0.417,0.3c-0.964-0.419,0.075,0.521-0.852-0.018c0.335,0.267,0.303,0.385,0.351,0.534
					c0.002,0.086-0.272-0.095-0.512-0.239c0.293,0.289-0.545-0.068,0.263,0.4c-1.271-0.624,0.224,0.648-0.913,0.021
					c0.597,0.526-1.067-0.047-0.078,0.623c0.02,0.118-0.37-0.154-0.541-0.22c0.367,0.62-1.138,0.208-0.427,1.038
					c-0.416-0.138-0.779-0.116-0.191,0.315c-0.497-0.184-0.153,0.144-0.696-0.119c0.067,0.194,0.038,0.278,0.381,0.516
					c-0.08,0.022-0.524-0.305-0.66-0.334c0.604,0.524-1.105-0.13-0.203,0.703c0.003,0.087-0.271-0.095-0.509-0.24
					c-0.234-0.02,0.443,0.332,0.504,0.435c-0.667-0.273-0.082,0.373-1.001-0.112c-0.127,0.075,0.22,0.26,0.324,0.361
					c-0.607-0.249-0.34,0.05-0.16,0.294c-0.727-0.347-0.658-0.123-0.435,0.281c-0.232-0.097-0.248-0.138-0.447-0.278
					c-0.693,0.073,0.688,1.102-0.714,0.464c0.63,0.386,0.344,0.233,0.089,0.132c0.013,0.098,0.27,0.121,0.415,0.301
					c-0.078,0.023-0.523-0.303-0.657-0.331c0.002,0.077-0.08,0.12,0.323,0.359c0.019,0.117-0.369-0.154-0.541-0.219
					c-0.095,0.025,0.023,0.14,0.355,0.339c-0.189-0.08-0.162,0.046-0.541-0.22c0.079,0.088,0.224,0.2,0.386,0.32
					c-0.151,0.003-0.501-0.181-0.634-0.158c-0.094,0.081,0.56,0.265,0.417,0.299c-0.084,0.11-0.125,0.013-0.51-0.239
					c-0.099,0.086,0.139,0.188,0.534,0.414c-0.037,0.081-0.31-0.064-0.689-0.313c-0.19,0.021,0.452,0.38,0.261,0.4
					c-0.479-0.271-0.386-0.308-0.863-0.58c0.267,0.021,0.094-0.329,0.165-0.487c-1.341,0.123-1.77,0.641-2.308,0.929
					c0.369,0.241-1.024-0.333,0.082,0.327c-0.041,0.062-0.22-0.013-0.541-0.22c-1.045,0.491-2.11,1.03-2.268,1.664
					c-1.338,0.425-3.209,0.47-4.319,1.096c-0.436-0.318-0.334-0.214-0.896-0.56c0.021,0.471-1.351-0.307-1.516-0.158
					c-0.606-0.365-0.262-0.345-0.742-0.661c-0.255,0.005-0.038,0.464-0.818-0.036c0.253-0.038,0.1-0.243,0.221-0.336
					c-0.642-0.331-0.598-0.008-1.118-0.225c-0.781-0.482-0.887-0.721-1.256-0.705c0.672-1.777,3.59-3.091,5.153-4.682
					c0.435-0.442,0.694-0.955,1.457-0.946c1.851-2.217,5.38-4.049,7.869-6.066c2.874-2.331,5.62-4.641,9.187-6.35
					c1.129-0.542,1.726-1.404,2.912-1.894c4.74-1.956,7.943-4.973,14.16-5.968c1.531,0.537,2.232,0.28,3.628,0.686
					c-0.758,0.828,3.061,3.682,1.764,4.183c0.317,0.358,0.453,0.702-0.079,0.621c0.861,0.361,0.95-0.019,1.577,0.116
					c-0.068,0.755-0.809,1.101-1.591,1.416c-4.092,1.647-7.962,3.224-10.673,5.225c-0.601-0.189-0.488,0.104-0.793,0.136
					c-0.735,0.073-0.592,0.772-1.185,0.958c-0.65,0.206-1.12,0.619-2.003,0.922c0.181,0.107,0.182,0.043,0.242,0.034
					c-0.023,0.104,0.202,0.489-0.365,0.047c-0.391,0.294-1.151,0.582-0.881,0.952c-0.468-0.15-1.071,0.031-0.5,0.517
					c-0.062,0.008-0.298-0.153-0.479-0.26c0.217,0.297-0.966,0.337-0.749,0.678c-0.341,0.012,0.089,0.471-0.379,0.436
					c-0.024,0.066,0.648,0.416,0.687,0.507c-0.533-0.077-0.061,0.659-0.775,0.503c-0.407-0.289-0.122-0.135-0.024-0.174
					c-0.539-0.334-0.639-0.245-1.053-0.459c-0.118,0.049,0.82,0.528,0.443,0.474c-0.561-0.49-0.577-0.054-0.341,0.221
					C49.303,49.886,48.571,49.854,49.372,50.364z M50.159,49.474l0.599,0.372c-0.033-0.261,0.033-0.288,0.314-0.396
					c-0.731-0.445-0.229,0.069-0.963-0.325C50.426,49.396,50.212,49.421,50.159,49.474z"/>
			</g>
		</g>
	</g>
</g>
</svg>
