<?xml version="1.0" encoding="utf-8"?>
<!-- Generator: Adobe Illustrator 16.0.0, SVG Export Plug-In . SVG Version: 6.00 Build 0)  -->
<!DOCTYPE svg PUBLIC "-//W3C//DTD SVG 1.1//EN" "http://www.w3.org/Graphics/SVG/1.1/DTD/svg11.dtd">
<svg version="1.1" id="Layer_1" xmlns="http://www.w3.org/2000/svg" xmlns:xlink="http://www.w3.org/1999/xlink" x="0px" y="0px"
	 width="300px" height="80px" viewBox="0 0 300 80" enable-background="new 0 0 300 80" xml:space="preserve">
<g>
	<g>
		<g>
			<path fill-rule="evenodd" clip-rule="evenodd" d="M179.721,20.256c-0.318-0.382,12.635-0.721,13.879-0.721
				c4.058,0,12.446-1.706,13.878,0c-0.219-0.259-11.321,0.721-13.878,0.721C190.903,20.256,181.152,21.964,179.721,20.256z"/>
			<path fill-rule="evenodd" clip-rule="evenodd" d="M141.707,21.697c9.017-0.791,20.79-1.441,28.964-1.441
				c0.866,0,11.816,0.187,6.033,0.72C164.229,22.128,154.424,21.146,141.707,21.697z"/>
			<path fill-rule="evenodd" clip-rule="evenodd" d="M214.115,20.976c-0.315-0.375,2.014-1.197,2.414-0.72
				C216.845,20.634,214.516,21.452,214.115,20.976z"/>
			<path fill-rule="evenodd" clip-rule="evenodd" d="M113.347,24.577c-19.574,1.084-41.878,0.313-62.151,1.438
				c-3.704,0.206-8.181-0.095-11.465,0.721c-1.717,0.425,1.871,2.115,1.811,2.159c-2.211,1.608-6.629-1.222-9.051,0.721
				c0.86-0.689,4.063,1.498,3.621,2.158c-0.557,0.836-8.417,0.277-9.051,0.722c0.748-0.522,2.27,0.265,2.414,0.721
				c0.323,1.02-1.848,2.911-1.207,2.159c-6.594,7.726,11.275,10.563,13.877,10.8c23.959,2.17,59.322,0.48,81.459-0.721
				c42.683-2.313,86.352-3.66,127.319-1.439c11.321,0.613,23.385,1.732,34.393,0.721c3.35-0.309,13.784-2.162,8.449-2.162
				c-3.541,0-0.357-1.008,0-2.159c1.134-3.66-0.916-3.325-2.414-3.6c-4.017-0.732,0.133-2.715,1.206-1.439
				c-1.122-1.336-2.168-2.915-6.034-3.602c-5.149-0.91-10.425,1.738-13.275-0.719c2.058,1.773,6.729-2.4,4.225-1.439
				c-0.453,0.173-1.279-0.7-1.206-0.721c2.96-0.793,6.299,0.111,8.447,0c9.331-0.48,0.1-1.23-3.018-1.438
				c-13.26-0.888-26.793-1.36-39.222-1.441c3.015,0.022-9.217-0.521-9.05-0.72c0.887-1.057,17.017-0.49,21.119,0
				c4.232,0.508,12.931,0.982,17.498,1.44c3.82,0.384,22.87-0.942,12.672-1.44c-1.979-0.096-10.448-1.352-12.068-1.439
				c-28.638-1.568-61.283-3.718-88.7-2.159C161.614,22.966,137.429,23.238,113.347,24.577z M218.942,25.296
				c-0.78-0.932,7.252-0.282,1.811,0C220.518,25.308,219.094,25.476,218.942,25.296z M224.374,25.296
				c-0.306-0.364,1.501-1.088,1.81-0.719C226.489,24.94,224.682,25.664,224.374,25.296z"/>
			<path fill-rule="evenodd" clip-rule="evenodd" d="M141.707,21.697c-3.117,0.149-8.763,2.503-10.258,0.718
				C132.019,23.095,140.283,20.358,141.707,21.697z"/>
			<path fill-rule="evenodd" clip-rule="evenodd" d="M119.985,23.136c3.255-0.044,9.244-2.648,10.861-0.721
				C129.836,21.211,121.433,24.876,119.985,23.136z"/>
			<path fill-rule="evenodd" clip-rule="evenodd" d="M119.985,23.136c-1.941-0.039-14.26,2.426-15.689,0.721
				c0.521,0.623,5.91-0.706,7.241-0.721C114.732,23.136,117.45,23.136,119.985,23.136z"/>
		</g>
	</g>
</g>
<g>
	<g>
		<g>
			<path fill-rule="evenodd" clip-rule="evenodd" d="M140.353,31.411c0.319,0.382-12.635,0.721-13.878,0.721
				c-4.057,0-12.446,1.707-13.878,0c0.218,0.259,11.321-0.721,13.878-0.721C129.17,31.411,138.922,29.703,140.353,31.411z"/>
			<path fill-rule="evenodd" clip-rule="evenodd" d="M178.367,29.969c-9.017,0.791-20.79,1.441-28.963,1.441
				c-0.867,0-11.816-0.186-6.034-0.719C155.845,29.539,165.65,30.52,178.367,29.969z"/>
			<path fill-rule="evenodd" clip-rule="evenodd" d="M105.958,30.691c0.316,0.375-2.013,1.197-2.414,0.719
				C103.229,31.033,105.559,30.214,105.958,30.691z"/>
			<path fill-rule="evenodd" clip-rule="evenodd" d="M206.728,27.089c19.573-1.084,41.878-0.313,62.15-1.438
				c3.703-0.207,8.182,0.095,11.465-0.721c1.717-0.425-1.87-2.115-1.811-2.159c2.211-1.608,6.629,1.222,9.052-0.721
				c-0.861,0.69-4.063-1.499-3.621-2.158c0.558-0.836,8.417-0.278,9.051-0.722c-0.748,0.523-2.269-0.265-2.414-0.721
				c-0.322-1.02,1.848-2.911,1.207-2.159c6.594-7.727-11.275-10.564-13.878-10.8c-23.959-2.169-59.321-0.48-81.459,0.721
				C153.787,8.524,110.118,9.87,69.151,7.649C57.83,7.037,45.766,5.918,34.757,6.93c-3.349,0.308-13.784,2.161-8.448,2.161
				c3.541,0,0.357,1.009,0,2.161c-1.134,3.661,0.916,3.325,2.414,3.599c4.017,0.732-0.133,2.716-1.206,1.44
				c1.122,1.336,2.168,2.915,6.034,3.602c5.15,0.91,10.425-1.739,13.275,0.718c-2.057-1.772-6.728,2.401-4.224,1.44
				c0.452-0.173,1.279,0.7,1.206,0.721c-2.96,0.792-6.299-0.111-8.447,0c-9.331,0.48-0.1,1.23,3.018,1.438
				c13.259,0.888,26.793,1.361,39.221,1.441c-3.014-0.022,9.217,0.52,9.05,0.719c-0.886,1.058-17.016,0.491-21.119,0
				c-4.233-0.507-12.931-0.981-17.498-1.44c-3.821-0.384-22.87,0.942-12.672,1.44c1.979,0.097,10.448,1.352,12.069,1.44
				c28.637,1.569,61.283,3.718,88.7,2.159C158.46,28.701,182.646,28.428,206.728,27.089z M101.132,26.37
				c0.781,0.932-7.252,0.283-1.811,0C99.557,26.358,100.98,26.191,101.132,26.37z M95.701,26.37c0.306,0.365-1.501,1.088-1.81,0.719
				C93.585,26.726,95.393,26.002,95.701,26.37z"/>
			<path fill-rule="evenodd" clip-rule="evenodd" d="M178.367,29.969c3.117-0.149,8.763-2.503,10.258-0.718
				C188.056,28.572,179.791,31.308,178.367,29.969z"/>
			<path fill-rule="evenodd" clip-rule="evenodd" d="M200.09,28.531c-3.256,0.044-9.244,2.648-10.861,0.721
				C190.238,30.456,198.642,26.791,200.09,28.531z"/>
			<path fill-rule="evenodd" clip-rule="evenodd" d="M200.09,28.531c1.94,0.04,14.259-2.426,15.688-0.721
				c-0.521-0.623-5.909,0.706-7.241,0.721C205.342,28.531,202.625,28.531,200.09,28.531z"/>
		</g>
	</g>
</g>
<g>
	<g>
		<g>
			<path fill-rule="evenodd" clip-rule="evenodd" d="M248.925,65.425c0.035-1.138-1.898-0.949-2.826-0.566
				C247.587,64.446,247.726,65.518,248.925,65.425z M210.392,28.935c0.354,0.894,0.057,0.943,0,1.978
				c0.18,0.937,2.051,0.009,2.057,1.134c-0.416,0.079-0.443-0.268-0.771-0.284c-0.799,0.991,1.266,1.233,1.541,1.98
				c0.537,0.985-0.801,1.427,0.77,1.698c0.18,0.76-0.529,0.546-0.77,0.848c0.039,0.524,0.869,0.173,1.027,0.565
				c0.105,1.341-0.877,1.487-0.77,2.83c12.908,2.479,27.49,2.69,43.668,3.394c5.982,0.26,15.621,0.538,17.982,2.829
				c0.904,0.876,0.572,2.894,2.055,2.83c0.072,0.738-0.094,1.216-0.77,1.131c1.846,0.167,3.35,3.292,1.283,4.526
				c0.08,0.665,0.893,0.524,0.77,1.414c-0.906,2.395-2.127,4.443-3.338,6.505c-26.441-2.057-47.25-1.417-68.588-2.827
				c-0.719-0.05-1.418,0.568-2.055,0.564c-4.789-0.034-9.627-0.83-14.898-0.85c-4.793-0.017-9.869,0.235-14.898,0
				c5.273,2.291,10.74-0.433,15.156,1.981c1.004-0.363,2.268-1.125,3.338-1.132c3.357-0.02,7.215,1.516,10.531,1.413
				c0.695-0.019,1.367-0.571,2.057-0.563c1.67,0.016,3.777,0.883,5.65,0.848c0.572-0.009,1.291-0.624,1.799-0.565
				c0.844,0.095,1.293,0.791,2.055,0.847c1.24,0.097,2.51-0.008,4.367,0c0.408,0.003,1.016-0.584,1.285-0.565
				c2.488,0.192,4.777,1.102,7.191,1.134c5.287,0.07,10.496,1.695,16.184,1.696c0.045,0.615-0.912,0.129-1.285,0.282
				c-0.047,0.797,1.012,0.709,0,1.133c2.762,0.817,4.85,0.838,7.965,1.696c0.141,0.628-0.49,0.404-0.514,0.85
				c0.898,1.178,2.754,1.306,3.596,2.546c-0.168,0.379-0.549,0.527-1.027,0.565c0.734,0.7,2.125,0.68,2.313,1.979
				c-2.572,2.264-7.359-0.545-8.992,1.981c-33.178,4.468-66.781,0.173-98.126,1.694c-5.926-0.664-14.697,0.195-22.863,0.567
				c-1.844,0.083-4.001-0.593-4.881,0.282c-3.381-0.991-7.095,0.474-10.532-0.85c-3.95,0.781-7.211,1.248-11.045,0
				c-3.856,1.068-8.217,0.479-12.074,0c-3.06-0.376-6.539,1.405-8.991-0.563c-7.273-0.351-16.788-1.175-21.835-6.505
				c-1.107-1.171-1.266-2.987-2.826-3.679c-0.592-1.705-1.231-3.357-1.541-5.374c-0.271-1.055,0.541-0.913,0.771-1.414
				c-5.855,0.063-12.918-1.216-20.293-1.699c-4.07-0.266-8.822,0.07-11.56-2.264c-2.066-1.759-1.518-5.389-3.597-7.07
				c0.974-2.611,0.936-3.756,0.257-6.506c0.865-2.632,3.399-3.423,5.908-4.243c-2.24-0.099-5.138-1.992-7.963-1.415
				c0.233-0.592,0.758-0.863,1.541-0.848c-0.214-0.791-2.066-0.883-0.771-1.698c-0.954-0.457-2.31-0.474-3.34-0.85
				c0.15-1.248,1.077-1.644,1.798-2.262c-0.313-0.199-1.808-0.337-3.083-0.284c1.969-0.883,3.03-1.014,5.651-1.131
				c-0.191-0.639-1.44-0.111-2.055-0.281c6.149-2.755,15.56-3.567,22.862-3.678c0.454-0.253,0.75-0.684,1.285-0.85
				c15.993-0.806,32.928-1.118,49.064-0.848c30.922,0.517,58.7,0.65,90.934,2.263c0.479,0.025,0.816,0.231,1.285,0.283
				C190.71,27.251,202.456,26.034,210.392,28.935z M161.072,58.919c2.782,1.384,6.237,0.617,8.733,0.281
				C166.827,58.028,163.847,59.745,161.072,58.919z M171.86,59.765c0.08-0.77-1.494-1.152-1.799-0.564
				C170.606,60.08,171.208,59.26,171.86,59.765z"/>
		</g>
	</g>
</g>
</svg>
