<?xml version="1.0" encoding="utf-8"?>
<!-- Generator: Adobe Illustrator 16.0.0, SVG Export Plug-In . SVG Version: 6.00 Build 0)  -->
<!DOCTYPE svg PUBLIC "-//W3C//DTD SVG 1.1//EN" "http://www.w3.org/Graphics/SVG/1.1/DTD/svg11.dtd">
<svg version="1.1" id="Layer_1" xmlns="http://www.w3.org/2000/svg" xmlns:xlink="http://www.w3.org/1999/xlink" x="0px" y="0px"
	 width="400px" height="10px" viewBox="0 0 400 10" enable-background="new 0 0 400 10" xml:space="preserve">
<g>
	<g>
		<path fill="#FFFFFF" d="M2.51,6.849c32.924-0.029,65.865-0.802,98.788-1.154c16.468-0.176,32.935-0.357,49.38,0.694
			c16.304,1.042,32.43,1.853,48.782,1.6c32.799-0.507,65.636-1.12,98.414-2.393c32.193-1.25,64.817-1.981,96.899,1.504
			c1.253,0.14,2.504,0.289,3.755,0.446c0.396,0.048-0.411-2.097-1.057-2.176c-31.955-3.913-64.583-3.286-96.695-2.101
			c-32.809,1.211-65.627,1.756-98.449,2.47c-16.278,0.354-32.508,0.131-48.737-1.233c-16.419-1.381-32.935-1.207-49.395-1.03
			C71.268,3.829,38.332,4.527,5.404,4.667C4.087,4.671,2.771,4.673,1.455,4.673C0.979,4.674,1.902,6.85,2.51,6.849L2.51,6.849z"/>
	</g>
</g>
</svg>
