<?xml version="1.0" encoding="utf-8"?>
<!-- Generator: Adobe Illustrator 16.0.0, SVG Export Plug-In . SVG Version: 6.00 Build 0)  -->
<!DOCTYPE svg PUBLIC "-//W3C//DTD SVG 1.1//EN" "http://www.w3.org/Graphics/SVG/1.1/DTD/svg11.dtd">
<svg version="1.1" id="Layer_1" xmlns="http://www.w3.org/2000/svg" xmlns:xlink="http://www.w3.org/1999/xlink" x="0px" y="0px"
	 width="400px" height="10px" viewBox="0 0 400 10" enable-background="new 0 0 400 10" xml:space="preserve">
<g>
	<g>
		<path fill="#FFFFFF" d="M3.442,6.83c30.984,3.729,62.209,0.875,93.295,0.7c32.924-0.186,65.883-0.326,98.796,0.632
			c32.568,0.948,65.111-1.28,97.679-1.119c16.372,0.081,32.681,1.081,49.061,0.711c16.244-0.367,32.467-1.346,48.715-1.583
			c1.944-0.028,3.89-0.034,5.834-0.038c1.582-0.003,1.062-2.27-0.264-2.267c-16.241,0.037-32.458,0.927-48.687,1.457
			c-16.388,0.535-32.661-0.178-49.037-0.479c-32.568-0.599-65.111,1.781-97.682,1.204c-32.971-0.584-65.905-0.82-98.882-0.79
			C71.079,5.288,39.747,8.104,8.617,5.169C6.801,4.999,4.989,4.782,3.178,4.563C1.608,4.375,2.142,6.673,3.442,6.83L3.442,6.83z"/>
	</g>
</g>
</svg>
