<?xml version="1.0" encoding="utf-8"?>
<!-- Generator: Adobe Illustrator 16.0.0, SVG Export Plug-In . SVG Version: 6.00 Build 0)  -->
<!DOCTYPE svg PUBLIC "-//W3C//DTD SVG 1.1//EN" "http://www.w3.org/Graphics/SVG/1.1/DTD/svg11.dtd">
<svg version="1.1" id="Layer_1" xmlns="http://www.w3.org/2000/svg" xmlns:xlink="http://www.w3.org/1999/xlink" x="0px" y="0px"
	 width="80px" height="80px" viewBox="0 0 80 80" enable-background="new 0 0 80 80" xml:space="preserve">
<g>
	<path fill="#FFFFFF" d="M75.133,5.534C52.357,28.311,29.644,51.022,6.868,73.798"/>
	<g>
		<path fill-rule="evenodd" clip-rule="evenodd" fill="#FFFFFF" d="M28.863,42.506c-0.116,0.373-0.977,0.383-0.467,1.062
			c0.309-0.145,0.357-0.818,0.959-0.366C28.508,42.464,29.5,43.095,28.863,42.506z M60.236,11.729
			c-0.317-0.333-0.19-0.447-0.043-0.553C60.743,11.654,60.547,11.887,60.236,11.729z M58.348,13.915
			c-0.55-0.651-0.038-0.777,0.263-0.858C58.767,13.462,58.597,13.707,58.348,13.915z M34.71,37.553
			c-0.936-0.911-0.069-1.228,0.415-1.011C35.347,37.055,34.528,37.059,34.71,37.553z M32.836,38.533
			c0.106-0.145,0.224-0.267,0.454-0.157C33.596,38.773,33.343,39.011,32.836,38.533z M32.268,39.696
			c-0.809-0.787,0.297-0.412,0.314-0.909C32.989,39.42,32.574,39.34,32.268,39.696z M37.218,34.151
			c-0.353-0.72,0.397-0.742,0.862-0.565C38.058,33.896,37.608,34.137,37.218,34.151z M34.981,36.092
			c0.359,0.167,0.444-0.229,0.657-0.361C35.936,36.189,35.628,36.59,34.981,36.092z M25.955,45.711
			c-0.557-0.948,0.395-1.146,0.921-1.218C27.287,45.238,26.342,45.595,25.955,45.711z M42.567,28.802
			c-0.097-0.249-0.305-0.552-0.19-0.7l0.445,0.445C42.769,28.808,42.827,28.749,42.567,28.802z M40.372,31.294
			c-0.043,0.17-0.236,0.034-0.353,0.056c-0.248-0.273-0.25-0.425-0.093-0.501L40.372,31.294z M24.681,46.984
			c-0.156,0.251-0.367,0.386-0.754,0.162C23.936,46.966,24.044,46.5,24.681,46.984z M22.3,48.475
			c0.022-0.265,0.341,0.078,0.403-0.105C23.149,48.834,22.74,48.955,22.3,48.475z M20.814,50.555
			c-0.605-0.522,0.053-0.428,0.06-0.653C21.299,50.494,20.791,50.159,20.814,50.555z M38.938,33.325
			c0.326,0.149,0.386-0.245,0.801,0.087c-0.105-0.254-0.6-0.698-0.189-0.699c0.34,0.293,0.209,0.354,0.143,0.449
			c0.511,0.318,0.427-0.291,0.061-0.653c0.093-0.273,0.602,0.301,0.75,0.138c0.011-0.14-0.21-0.169-0.444-0.444
			c0.215,0.079,0.5,0.3,0.647,0.24c-0.797-0.741,0.167-0.25,0.459-0.458c0.01-0.14-0.211-0.169-0.444-0.444
			c0.466,0.066,0.364-0.07,0.851,0.037c0.137-0.085-0.502-0.549-0.691-0.793c-0.036,0.084,0.228,0.314,0.394,0.497
			c-0.254-0.107-0.66-0.524-0.797-0.39c-0.318-0.785,0.487-0.523,0.365-0.959c0.658,0.651-0.33,0.497,0.734,1.346
			c0.309-0.539-0.386-1.696,0.865-0.866c-0.507-1.03,1.068-0.05,0.018-1.206c0.293-0.022,0.65,0.088,1.002,0.187
			c0.285-0.063-0.538-0.668-0.19-0.7c0.424,0.464,0.657-0.167,0.955-0.064c0.01-0.141-0.211-0.169-0.445-0.445
			c1.389,0.789-0.061-1.314,1.311-0.42c0.035-0.084-0.229-0.314-0.395-0.496c1.052,0.58,0.167-1.058,1.107-0.217
			c-0.304-0.452-0.201-0.706-0.187-1.002c0.04-0.178,0.309,0.115,0.547,0.344c-0.235-0.513,0.682-0.021-0.14-0.751
			c1.35,0.911,0.037-1.275,1.21-0.319c-0.516-0.91,1.378-0.22,0.421-1.312c0.034-0.239,0.405,0.209,0.598,0.292
			c-0.167-1.172,1.599-0.77,1.088-2.275c0.476,0.162,0.964,0.008,0.412-0.708c0.561,0.229,0.276-0.345,0.854,0.038
			c0.011-0.383,0.093-0.563-0.238-0.951c0.116-0.072,0.534,0.471,0.696,0.493c-0.523-0.909,1.387-0.062,0.625-1.516
			c0.039-0.178,0.308,0.114,0.547,0.344c0.298-0.031-0.412-0.556-0.441-0.748c0.736,0.365,0.3-0.8,1.257-0.068
			c0.206-0.193-0.157-0.472-0.242-0.649c0.671,0.332,0.473-0.208,0.36-0.658c0.776,0.499,0.801,0.058,0.713-0.713
			c0.256,0.133,0.254,0.213,0.445,0.445c0.948-0.358-0.342-2.076,1.172-1.172c-0.629-0.614-0.33-0.383-0.046-0.25
			c0.032-0.198-0.293-0.169-0.394-0.496c0.116-0.072,0.533,0.472,0.694,0.492c0.036-0.159,0.166-0.274-0.241-0.649
			c0.036-0.238,0.406,0.209,0.598,0.292c0.139-0.084,0.042-0.283-0.292-0.598c0.206,0.111,0.234-0.141,0.598,0.292
			c-0.061-0.156-0.192-0.347-0.343-0.547c0.201-0.053,0.564,0.225,0.751,0.14c0.164-0.196-0.599-0.382-0.395-0.496
			c0.165-0.249,0.169-0.061,0.547,0.343c0.172-0.206-0.088-0.344-0.491-0.695c0.09-0.178,0.374,0.04,0.746,0.44
			c0.261-0.101-0.4-0.651-0.14-0.751c0.491,0.417,0.349,0.525,0.84,0.942c-0.342,0.04-0.292,0.71-0.467,1.061
			c1.822-0.657,2.649-1.857,3.502-2.611c-0.361-0.39,1.176,0.383,0.06-0.652c0.084-0.139,0.283-0.042,0.599,0.292
			c1.621-1.328,3.295-2.763,3.824-4.123c1.973-1.278,4.452-1.93,6.227-3.555c0.411,0.525,0.331,0.34,0.891,0.891
			c0.213-0.969,1.617,0.229,1.91-0.128c0.608,0.576,0.166,0.638,0.637,1.146c0.337-0.085,0.285-0.967,1.056-0.167
			c-0.354,0.156-0.256,0.533-0.462,0.76c0.672,0.496,0.779-0.162,1.354,0.131c0.777,0.766,0.798,1.227,1.289,1.085
			c-1.79,3.881-6.287,7.468-9.149,11.228c-0.798,1.047-1.397,2.186-2.395,2.394c-3.56,5.14-9.125,9.985-13.42,14.905
			c-4.962,5.682-9.742,11.281-15.293,15.885c-1.759,1.459-2.979,3.42-4.788,4.788c-7.219,5.464-12.959,12.662-21.628,16.58
			c-1.736-0.655-2.788,0.087-4.412-0.337c1.417-1.939-2.141-6.708-0.183-8.13c-0.235-0.647-0.239-1.319,0.421-1.31
			c-0.948-0.49-1.258,0.322-2.012,0.229c0.475-1.582,1.624-2.518,2.811-3.404c6.209-4.632,12.092-9.048,16.67-13.998
			c0.693,0.21,0.695-0.363,1.111-0.519c1.002-0.372,1.17-1.775,2.043-2.338c0.958-0.618,1.785-1.611,3.099-2.505
			c-0.183-0.166-0.218-0.033-0.302,0.004c0.085-0.222-0.015-0.951,0.506-0.208c0.66-0.722,1.807-1.547,1.639-2.232
			c0.539,0.169,1.424-0.386,0.92-1.219c0.085-0.035,0.314,0.228,0.498,0.395c-0.134-0.552,1.44-0.988,1.328-1.626
			c0.453-0.127,0.124-0.949,0.718-1.014c0.067-0.145-0.639-0.667-0.641-0.845c0.66,0,0.414-1.381,1.273-1.273
			c0.388,0.477,0.091,0.244-0.056,0.353c0.538,0.53,0.712,0.317,1.146,0.637c0.183-0.139-0.807-0.85-0.338-0.848
			c0.485,0.847,0.73-0.063,0.56-0.561C38.785,34.294,39.73,34.14,38.938,33.325z M37.451,35.404l-0.595-0.594
			c-0.089,0.53-0.191,0.609-0.615,0.913c0.733,0.704,0.337-0.211,1.099,0.386C37.062,35.643,37.355,35.527,37.451,35.404z"/>
	</g>
</g>
<g>
	<path fill="#FFFFFF" d="M8.569,8.042c22.533,22.534,45.068,45.068,67.535,67.535"/>
	<g>
		<path fill-rule="evenodd" clip-rule="evenodd" fill="#FFFFFF" d="M31.979,21.358c0.336-0.232-0.187,0.585-0.338,0.84
			c3.651,4.378,7.653,8.833,11.903,13.083c9.441,9.441,16.774,16.368,25.141,25.435c1.113,1.204,2.696,2.088,3.169,3.757
			c0.334,1.184,1.06,2.319,1.872,3.346c1.165,1.473,2.461,2.733,3.277,4.75c0.369,0.243-0.844,0.875-0.784,0.985
			c0.052,0.548,0.353,0.975,0.364,1.542c-1.771,1.574-1.682,0.476-2.034,0.027c-0.672-0.85-2.397-1.004-2.901-2.016
			c-0.4,0.184-0.533,0.859-0.983,0.782c-2.116-1.735-3.986-2.42-5.707-4.527c-0.61,0.799,0.675,0.665,0.411,1.294
			c-1.31-1.079-3.142-2.008-4.697-2.929c-0.579-0.344-0.723-1.142-1.258-1.553c-3.452-2.656-6.814-5.633-10.467-8.699
			c-3.238-2.722-5.989-5.665-9.27-8.092c-0.672-2.053-2.442-3.137-3.868-4.16c-2.753-3.862-7.192-7.362-10.6-11.778
			c-2.063-2.675-4.246-5.249-6.485-7.664c-1.203-1.298-1.933-3.111-2.782-4.845c-0.45-0.917-1.18-1.533-1.713-2.301
			c-0.663-0.955-1.596-1.455-1.323-3.092c-1.65-1.412-1.983-3.268-3.877-5.054c0.924-1.678,0.384-2.634,1.492-4.402
			c1.108-0.832,1.573-0.359,2.472-0.767c0.678,0.628,1.843,0.853,2.841,1.072c0.618,0.136,0.46,0.914,0.81,1.398
			c0.681,0.946,1.947,1.704,2.756,2.462c1.34,1.257,3.128,1.809,4.299,2.826c2.249,3.035,4.681,6.131,8.084,8.674
			C31.768,21.663,32.044,21.426,31.979,21.358z"/>
	</g>
</g>
</svg>
